<?xml version="1.0" encoding="utf-8"?>
<!-- Generator: Adobe Illustrator 24.1.1, SVG Export Plug-In . SVG Version: 6.00 Build 0)  -->
<svg version="1.1" id="圖層_1" xmlns="http://www.w3.org/2000/svg" xmlns:xlink="http://www.w3.org/1999/xlink" x="0px" y="0px"
	 viewBox="0 0 2455.2 447.1" style="enable-background:new 0 0 2455.2 447.1;" xml:space="preserve">
<style type="text/css">
	.st0{fill:url(#SVGID_1_);}
	.st1{fill:url(#SVGID_2_);}
	.st2{fill-rule:evenodd;clip-rule:evenodd;fill:#FFFFFF;}
	.st3{fill-rule:evenodd;clip-rule:evenodd;fill:#211513;}
</style>
<radialGradient id="SVGID_1_" cx="-588.3792" cy="261.7612" r="66.98" gradientTransform="matrix(0.83 0 0 -1 599.95 448.5511)" gradientUnits="userSpaceOnUse">
	<stop  offset="0.14" style="stop-color:#5E5C5C"/>
	<stop  offset="0.92" style="stop-color:#FFFFFF;stop-opacity:0"/>
</radialGradient>
<ellipse class="st0" cx="112" cy="186.8" rx="55.5" ry="67"/>
<linearGradient id="SVGID_2_" gradientUnits="userSpaceOnUse" x1="121.02" y1="268.7611" x2="2432.8899" y2="268.7611" gradientTransform="matrix(1 0 0 -1 0 448.5511)">
	<stop  offset="0" style="stop-color:#FFFFFF"/>
	<stop  offset="0.96" style="stop-color:#FFFFFF;stop-opacity:0"/>
</linearGradient>
<polygon class="st1" points="2432.9,180.6 121,180.6 121,178.9 2432.9,178.9 2432.9,180.6 "/>
<path class="st2" d="M105.8,235.6c7-2.4,15.1-4.7,23.1-2C122.4,229.5,112.7,227.4,105.8,235.6z"/>
<path class="st2" d="M152.8,287.8c-4.8,4.1-5.6,7.4-5.6,7.4c15.6-15.7,28.8-6.7,28.8-6.7s-3-4.6-7.4-5.4S157.6,283.7,152.8,287.8z"
	/>
<path class="st3" d="M174.6,440c-7.4-12.7-23.2-21.9-33.8-30.4c-4-2.9-7.3-6.6-9.6-11c-9.7-16.9-11.7-34.1-14.6-54.2
	c-1.3-8.8-4.6-17-5.9-29c-0.7-6.8-1-13.4-1.4-19.9c-0.9-13.2-5.3-42.3-4.4-45.6c-1.7-4.6-4-22.8-3.3-28.7c-0.7-6.5-5.8-23-5.6-36.1
	c0.1-9.5,1.7-15.4,9.3-17.4c6.9-1.8,12.2,4.5,14.6,11.2c4.5,12.5,4.5,26.7,7.7,39.6c3,12.6,7.1,25.1,9.3,38.4
	c1.4,7.4,3.2,14.7,5.3,21.9c2.4,8.2-1.5,15.9-2.1,23c5.3-14.4,15.3-27.7,27.1-30.3c7.9-1.8,18.2,0.9,21.5,4.4c1.9,2,1.2,5.3,0.7,7.7
	c-0.7,3.5-4.2,4.5-7.1,3.9c5.4,5.3,10.3-1.1,18.5-2.7c6.3-1.3,11.7,3.3,20.2,4.4c-14.8-7-15.6-9.7-30.7-2.3
	c0.4-3.9,2.3-8.4,5.2-10.2c9.4-5.9,19.7-3.8,25.7,3.2c1.8,2.2,3.1,4.7,4,7.4c-3.1-1.3-5.4-5.1-5.4-5.1c8,17,16.8,2,34.7,8.8
	c-3.6-3.2-8.3-4.9-13.1-4.9c-6.6,0.1-9.6,3.8-14.9,1.5c-0.1-2.2-2.3-6.9,1.4-7.7c8.3-1.7,16.9-0.5,24.4,3.5
	c6.8,3.5,13.7,14.5,16.5,24c3.9,13.1,3.1,29.2,3.6,43.1c8.5-3.4,20.3,56.3,22.4,64.5c-3.2-2.5-6.8-4.5-10.7-5.7
	c10.9,11.9,16.9,26.9,22.1,40.6l4.2-0.9c-7.3-16.5-11.2-30.1-15-50.3c-3.9-20.7-10.3-35.9-17.3-54.7c-2.4-8.2-1.7-27.1-4.9-37.7
	c-2.9-9.8-11.5-23.5-18.5-27.1c-7.6-4-19.4-7.8-29.8-1.9c-6-10-24.3-11-32.7-3.1c-1.5-3.8-14.3-9.6-25.8-7
	c-8.6,2-14.5,7.7-19.3,14.4c-2.6-9.8-5.5-18.3-7.2-28.4c-2.3-13.9-6.1-24.8-9.2-37.9c-2.4-9.5-3.5-20.1-5.2-29.8s-6.2-25-21.5-21.8
	c-9.3,2.3-12,10.3-12.1,20.2c-0.2,13.6,5,30.6,5.8,37.3c-0.7,6.1,1.7,23.9,3.5,28.6c-1,4,3.9,32.2,4,40c-7.4-9.3-16.4-11.3-25.7-7.1
	c-3.4,1.4-8,4.9-6.3,8.6c3.9,8.5,8.4,15.9,11.9,23c0.2,1,2.4,5.5,3.4,9c3.3,11.8,8,20.2,14.5,30.5c12.5,19.6,16.9,45.2,35.6,59.9
	c11.1,8.8,26.8,18.9,34.5,32.1c2.9,3.7,10.9,18.1,16.6,29.2l4.4-1C187.8,462.6,177.7,443.8,174.6,440z M77.8,292.1
	c-1.6-3.4,0.1-4.1,2.3-3.6c9.8,2.1,18.2,17,9,24.8C85.7,306.5,81.6,300.3,77.8,292.1z M107.2,352.5c-3.4-5.3-6.3-9.7-9.1-14.8
	c-2.3-4.2,2.9-10.8,4.6-15.3l-7.7,9.3c-1.3-2.8-2.3-5.7-3.1-8.7c-0.7-2.4-1.7-5.9-2.3-8c12.1-6.7,3-26.5-8.4-28.9
	c13.1-5.6,20.9,6,24.2,11.4c1.1,17,4.6,31.6,7.5,47.4c1.4,7.9,2.5,15.4,4.7,23.3c1.8,6.5,3.8,12.9,5.6,19
	C117.5,375.9,114.2,363.4,107.2,352.5z"/>
<path class="st2" d="M117.9,183.5c-0.2-2.7-0.9-6.8-2.2-9.1c-4-7-12-5.4-15.5-0.8c-2.3,3-1.3,8.5-0.5,12.6c0.6,2.7,2.2,3.8,4.8,3.5
	c4.2-0.5,6.5-0.6,10.4-1.2C117.8,188.1,118.1,186.3,117.9,183.5z M105.3,187.7c-2.2,0.3-3.4-0.4-3.9-2.6c-0.7-3.4-1.5-7.5,0.4-10
	c2.9-3.8,9.3-5.2,12.6,0.6c1,2.3,1.6,4.7,1.7,7.2c0.1,2.3,0.1,3.5-2.2,3.8C110.5,187.1,108.7,187.3,105.3,187.7z"/>
<path class="st2" d="M125.3,242.4c-4.2,1.9-8.7,3.4-13.3,4.2C118.1,249.3,123.8,244.6,125.3,242.4z"/>
</svg>
