<?xml version="1.0" encoding="utf-8"?>
<!-- Generator: Adobe Illustrator 24.1.1, SVG Export Plug-In . SVG Version: 6.00 Build 0)  -->
<svg version="1.1" xmlns="http://www.w3.org/2000/svg" xmlns:xlink="http://www.w3.org/1999/xlink" x="0px" y="0px"
	 viewBox="0 0 380 160" style="enable-background:new 0 0 380 160;" xml:space="preserve">
<style type="text/css">
	.st0{display:none;}
	.st1{display:inline;fill-rule:evenodd;clip-rule:evenodd;fill:#5F7696;}
	.st2{display:inline;fill-rule:evenodd;clip-rule:evenodd;fill:url(#SVGID_1_);}
	.st3{display:inline;fill:url(#SVGID_2_);}
	.st4{display:inline;fill:url(#SVGID_3_);}
	.st5{display:inline;fill:url(#SVGID_4_);}
	.st6{display:inline;fill:url(#SVGID_5_);}
	.st7{display:inline;fill:url(#SVGID_6_);}
	.st8{display:inline;fill:url(#SVGID_7_);}
	.st9{display:inline;fill:url(#SVGID_8_);}
	.st10{display:inline;fill:url(#SVGID_9_);}
	.st11{display:inline;fill:url(#SVGID_10_);}
	.st12{display:inline;fill:url(#SVGID_11_);}
	.st13{display:inline;fill:url(#SVGID_12_);}
	.st14{display:inline;fill:url(#SVGID_13_);}
	.st15{display:inline;fill:url(#SVGID_14_);}
	.st16{display:inline;fill:url(#SVGID_15_);}
	.st17{display:inline;fill:url(#SVGID_16_);}
	.st18{display:inline;fill:url(#SVGID_17_);}
	.st19{display:inline;fill:url(#SVGID_18_);}
	.st20{display:inline;fill:url(#SVGID_19_);}
	.st21{display:inline;fill:url(#SVGID_20_);}
	.st22{display:inline;fill:url(#SVGID_21_);}
	.st23{display:inline;fill:url(#SVGID_22_);}
	.st24{display:inline;fill:#4C6075;}
	.st25{display:inline;fill:#FFFFFF;}
	.st26{display:inline;fill:#211513;}
	.st27{display:inline;fill-rule:evenodd;clip-rule:evenodd;fill:#AD181C;}
	.st28{fill:#CF121B;}
</style>
<g id="圖層_1" class="st0">
	<path class="st1" d="M214.3,19.8c-21-15.5-50.7-10.9-66.1,10.1c-12.3,16.8-12.2,39.6,0.2,56.3c6.5,8.9,15.8,15.3,26.5,18.1
		c4.5,1.1,8.3,1.3,12.7,3.1c13.1,5.4,13,19.9-12.7,40.2c44-17.9,68.8-65.6,57.8-101.6C229.5,35.6,223.1,26.4,214.3,19.8z"/>
	
		<linearGradient id="SVGID_1_" gradientUnits="userSpaceOnUse" x1="124.9825" y1="324.6305" x2="231.7425" y2="324.6305" gradientTransform="matrix(0.84 -0.54 0.54 0.84 -141 -102.55)">
		<stop  offset="0" style="stop-color:#D33924"/>
		<stop  offset="0.15" style="stop-color:#CB3023"/>
		<stop  offset="0.35" style="stop-color:#BB1C21"/>
		<stop  offset="0.57" style="stop-color:#AA1B20"/>
		<stop  offset="1" style="stop-color:#7F191E"/>
		<stop  offset="1" style="stop-color:#7F191E"/>
	</linearGradient>
	<path class="st2" d="M216.1,19.6C195,4.1,165.4,8.7,150,29.9S139.1,80.6,160.2,96c4.9,3.6,10.5,6.2,16.4,7.7
		c4.4,1.1,8.6,1.2,12.7,3.4c12.9,6.9,11.1,22.9-14.5,40.5c44-17.9,70.6-65.8,59.6-101.8C231.3,35.3,224.9,26.1,216.1,19.6z"/>
	
		<linearGradient id="SVGID_2_" gradientUnits="userSpaceOnUse" x1="147.9925" y1="310.6533" x2="230.0926" y2="310.6533" gradientTransform="matrix(0.84 -0.54 0.54 0.84 -141 -102.55)">
		<stop  offset="0" style="stop-color:#D33924"/>
		<stop  offset="0.15" style="stop-color:#CB3023"/>
		<stop  offset="0.35" style="stop-color:#BB1C21"/>
		<stop  offset="0.57" style="stop-color:#AA1B20"/>
		<stop  offset="1" style="stop-color:#7F191E"/>
		<stop  offset="1" style="stop-color:#7F191E"/>
	</linearGradient>
	<path class="st3" d="M150.1,47c3.3-22.4,24.2-37.9,46.6-34.5s37.9,24.2,34.6,46.6S207.1,97,184.6,93.7
		C162.2,90.3,146.7,69.5,150.1,47L150.1,47z"/>
	
		<linearGradient id="SVGID_3_" gradientUnits="userSpaceOnUse" x1="134.9922" y1="339.6342" x2="217.5322" y2="339.6342" gradientTransform="matrix(0.8493 -0.5087 0.5087 0.8493 -133.6073 -144.4759)">
		<stop  offset="0" style="stop-color:#CD3B28"/>
		<stop  offset="0.15" style="stop-color:#C53227"/>
		<stop  offset="0.35" style="stop-color:#B61F25"/>
		<stop  offset="0.57" style="stop-color:#A51E24"/>
		<stop  offset="1" style="stop-color:#7D1C22"/>
	</linearGradient>
	<path class="st4" d="M150,47.3c3.3-22.4,24.2-37.8,46.6-34.5s37.8,24.2,34.5,46.6s-24.2,37.8-46.6,34.5l0,0
		C162.1,90.6,146.7,69.7,150,47.3L150,47.3z"/>
	
		<linearGradient id="SVGID_4_" gradientUnits="userSpaceOnUse" x1="122.108" y1="370.029" x2="205.048" y2="370.029" gradientTransform="matrix(0.86 -0.48 0.48 0.86 -125.67 -187.4499)">
		<stop  offset="0" style="stop-color:#C63D2C"/>
		<stop  offset="0.16" style="stop-color:#BE342B"/>
		<stop  offset="0.35" style="stop-color:#B02329"/>
		<stop  offset="0.59" style="stop-color:#9F2228"/>
		<stop  offset="1" style="stop-color:#7A2026"/>
	</linearGradient>
	<path class="st5" d="M149.9,47.6c3.4-22.4,24.2-37.8,46.5-34.5s37.8,24.1,34.4,46.5c-3.3,22.3-24.1,37.7-46.5,34.4
		C162,90.7,146.6,69.9,149.9,47.6z"/>
	
		<linearGradient id="SVGID_5_" gradientUnits="userSpaceOnUse" x1="100.2097" y1="406.9473" x2="183.4814" y2="406.9473" gradientTransform="matrix(0.866 -0.4587 0.4587 0.866 -119.5831 -233.3769)">
		<stop  offset="0" style="stop-color:#C03F30"/>
		<stop  offset="0.17" style="stop-color:#B8362F"/>
		<stop  offset="0.35" style="stop-color:#AB262D"/>
		<stop  offset="0.6" style="stop-color:#9A252C"/>
		<stop  offset="1" style="stop-color:#78232A"/>
	</linearGradient>
	<path class="st6" d="M149.9,47.9c3.3-22.3,24-37.7,46.3-34.4s37.7,24,34.4,46.3s-24,37.7-46.3,34.4c0,0,0,0-0.1,0
		C162,90.9,146.6,70.2,149.9,47.9z"/>
	
		<linearGradient id="SVGID_6_" gradientUnits="userSpaceOnUse" x1="86.9115" y1="444.2193" x2="170.4714" y2="444.2193" gradientTransform="matrix(0.87 -0.43 0.43 0.87 -114.33 -276.35)">
		<stop  offset="0" style="stop-color:#B94133"/>
		<stop  offset="0.17" style="stop-color:#B23832"/>
		<stop  offset="0.35" style="stop-color:#A62931"/>
		<stop  offset="0.61" style="stop-color:#952830"/>
		<stop  offset="1" style="stop-color:#75272F"/>
	</linearGradient>
	<path class="st7" d="M149.8,48.1c3.3-22.2,24-37.6,46.3-34.3s37.6,24,34.3,46.3c-3.3,22.3-24,37.6-46.3,34.3l0,0
		C161.8,91.1,146.5,70.4,149.8,48.1z"/>
	
		<linearGradient id="SVGID_7_" gradientUnits="userSpaceOnUse" x1="72.015" y1="480.2782" x2="155.7949" y2="480.2782" gradientTransform="matrix(0.8803 -0.4075 0.4075 0.8803 -106.5682 -321.8242)">
		<stop  offset="0" style="stop-color:#B34237"/>
		<stop  offset="0.18" style="stop-color:#AB3936"/>
		<stop  offset="0.35" style="stop-color:#A02C35"/>
		<stop  offset="0.63" style="stop-color:#8F2B34"/>
		<stop  offset="1" style="stop-color:#732A33"/>
	</linearGradient>
	<path class="st8" d="M149.7,48.4c3.3-22.2,24-37.6,46.2-34.3s37.6,24,34.3,46.2c-3.3,22.2-24,37.6-46.2,34.3l0,0
		C161.7,91.3,146.4,70.6,149.7,48.4L149.7,48.4z"/>
	
		<linearGradient id="SVGID_8_" gradientUnits="userSpaceOnUse" x1="60.4476" y1="516.3625" x2="144.4076" y2="516.3625" gradientTransform="matrix(0.891 -0.3835 0.3835 0.891 -98.5908 -366.6811)">
		<stop  offset="0" style="stop-color:#AC443B"/>
		<stop  offset="0.2" style="stop-color:#A43B3A"/>
		<stop  offset="0.35" style="stop-color:#9B3039"/>
		<stop  offset="0.64" style="stop-color:#8A2F38"/>
		<stop  offset="1" style="stop-color:#702D37"/>
	</linearGradient>
	<path class="st9" d="M149.6,48.7c3.3-22.2,24-37.6,46.1-34.3s37.5,24,34.2,46.1C226.6,82.7,206,98,183.8,94.7
		C161.6,91.5,146.3,70.9,149.6,48.7L149.6,48.7z"/>
	
		<linearGradient id="SVGID_9_" gradientUnits="userSpaceOnUse" x1="52.02" y1="559.2597" x2="136.08" y2="559.2597" gradientTransform="matrix(0.8918 -0.3553 0.3553 0.8918 -94.6241 -409.7853)">
		<stop  offset="0" style="stop-color:#A6463F"/>
		<stop  offset="0.2" style="stop-color:#9E3D3E"/>
		<stop  offset="0.35" style="stop-color:#96333D"/>
		<stop  offset="0.66" style="stop-color:#85323C"/>
		<stop  offset="1" style="stop-color:#6E313B"/>
	</linearGradient>
	<path class="st10" d="M149.6,48.9c3.3-22.1,23.9-37.4,46.1-34.1s37.4,23.9,34.1,46.1C226.5,83,205.9,98.3,183.7,95l0,0
		C161.6,91.7,146.3,71,149.6,48.9z"/>
	
		<linearGradient id="SVGID_10_" gradientUnits="userSpaceOnUse" x1="44.7406" y1="597.553" x2="128.8406" y2="597.553" gradientTransform="matrix(0.9012 -0.3307 0.3307 0.9012 -87.1829 -454.4015)">
		<stop  offset="0" style="stop-color:#9F4843"/>
		<stop  offset="0.21" style="stop-color:#983F42"/>
		<stop  offset="0.35" style="stop-color:#913641"/>
		<stop  offset="0.67" style="stop-color:#803540"/>
		<stop  offset="1" style="stop-color:#6B343F"/>
	</linearGradient>
	<path class="st11" d="M149.5,49.2c3.3-22.1,23.9-37.4,46-34.1s37.4,23.9,34.1,46s-23.9,37.3-46,34.1
		C161.5,91.9,146.2,71.3,149.5,49.2L149.5,49.2L149.5,49.2z"/>
	
		<linearGradient id="SVGID_11_" gradientUnits="userSpaceOnUse" x1="39.7297" y1="636.668" x2="123.7997" y2="636.668" gradientTransform="matrix(0.91 -0.3057 0.3057 0.91 -79.9805 -498.8721)">
		<stop  offset="0" style="stop-color:#994A47"/>
		<stop  offset="0.22" style="stop-color:#914146"/>
		<stop  offset="0.35" style="stop-color:#8B3945"/>
		<stop  offset="0.7" style="stop-color:#7A3944"/>
		<stop  offset="1" style="stop-color:#693843"/>
	</linearGradient>
	<path class="st12" d="M149.4,49.5c3.3-22.1,23.8-37.3,45.9-34s37.3,23.8,34,45.9s-23.8,37.3-45.9,34l0,0
		C161.3,92.1,146.1,71.5,149.4,49.5z"/>
	
		<linearGradient id="SVGID_12_" gradientUnits="userSpaceOnUse" x1="36.902" y1="676.3654" x2="120.898" y2="676.3654" gradientTransform="matrix(0.9181 -0.2805 0.2805 0.9181 -73.0785 -543.2518)">
		<stop  offset="0" style="stop-color:#934C4B"/>
		<stop  offset="0.24" style="stop-color:#8B434A"/>
		<stop  offset="0.35" style="stop-color:#863D49"/>
		<stop  offset="0.73" style="stop-color:#753C48"/>
		<stop  offset="1" style="stop-color:#673B47"/>
	</linearGradient>
	<path class="st13" d="M149.3,49.7c3.3-22,23.8-37.2,45.8-34s37.2,23.8,34,45.8c-3.3,22-23.8,37.2-45.8,34
		C161.3,92.3,146.1,71.8,149.3,49.7C149.3,49.8,149.3,49.7,149.3,49.7z"/>
	
		<linearGradient id="SVGID_13_" gradientUnits="userSpaceOnUse" x1="36.7128" y1="716.7278" x2="120.5487" y2="716.7278" gradientTransform="matrix(0.9255 -0.2549 0.2549 0.9255 -66.4418 -587.4443)">
		<stop  offset="0" style="stop-color:#8C4E4F"/>
		<stop  offset="0.26" style="stop-color:#85454E"/>
		<stop  offset="0.35" style="stop-color:#81404D"/>
		<stop  offset="0.75" style="stop-color:#703F4C"/>
		<stop  offset="1" style="stop-color:#643E4C"/>
	</linearGradient>
	<path class="st14" d="M149.2,50c3.3-22,23.7-37.2,45.7-33.9s37.2,23.7,33.9,45.7S205.1,99,183.1,95.7C161.2,92.5,146,72,149.2,50
		L149.2,50z"/>
	
		<linearGradient id="SVGID_14_" gradientUnits="userSpaceOnUse" x1="38.7041" y1="757.704" x2="122.364" y2="757.704" gradientTransform="matrix(0.9322 -0.2293 0.2293 0.9322 -60.1067 -631.667)">
		<stop  offset="0" style="stop-color:#865052"/>
		<stop  offset="0.27" style="stop-color:#7E4751"/>
		<stop  offset="0.35" style="stop-color:#7B4351"/>
		<stop  offset="0.81" style="stop-color:#6A4250"/>
		<stop  offset="1" style="stop-color:#624250"/>
	</linearGradient>
	<path class="st15" d="M149.2,50.3c3.3-22,23.7-37.1,45.6-33.8s37.1,23.7,33.8,45.6c-3.3,22-23.7,37.1-45.6,33.8l0,0
		C161.1,92.6,145.9,72.2,149.2,50.3L149.2,50.3z"/>
	
		<linearGradient id="SVGID_15_" gradientUnits="userSpaceOnUse" x1="43.3544" y1="798.9527" x2="126.7044" y2="798.9527" gradientTransform="matrix(0.9382 -0.2035 0.2035 0.9382 -54.0358 -675.8199)">
		<stop  offset="0" style="stop-color:#7F5156"/>
		<stop  offset="0.31" style="stop-color:#774855"/>
		<stop  offset="0.35" style="stop-color:#764655"/>
		<stop  offset="0.84" style="stop-color:#654554"/>
		<stop  offset="1" style="stop-color:#5F4554"/>
	</linearGradient>
	<path class="st16" d="M149.1,50.5c3.3-21.9,23.7-37,45.6-33.8s37,23.7,33.8,45.6c-3.3,21.9-23.7,37-45.6,33.8l0,0
		C161,92.8,145.8,72.4,149.1,50.5L149.1,50.5z"/>
	
		<linearGradient id="SVGID_16_" gradientUnits="userSpaceOnUse" x1="50.4825" y1="840.6532" x2="133.4924" y2="840.6532" gradientTransform="matrix(0.9434 -0.1777 0.1777 0.9434 -48.2786 -719.9368)">
		<stop  offset="0" style="stop-color:#79535A"/>
		<stop  offset="0.35" style="stop-color:#714A59"/>
		<stop  offset="0.9" style="stop-color:#604958"/>
		<stop  offset="1" style="stop-color:#5D4958"/>
	</linearGradient>
	<path class="st17" d="M149,50.8c3.3-21.8,23.7-36.9,45.5-33.7s36.9,23.6,33.7,45.5c-3.3,21.8-23.6,36.9-45.5,33.7
		C160.9,93,145.8,72.7,149,50.8L149,50.8z"/>
	
		<linearGradient id="SVGID_17_" gradientUnits="userSpaceOnUse" x1="56.5028" y1="873.387" x2="139.1028" y2="873.387" gradientTransform="matrix(0.9578 -0.1534 0.1534 0.9578 -38.8725 -764.668)">
		<stop  offset="0" style="stop-color:#72555E"/>
		<stop  offset="0.35" style="stop-color:#6B4D5D"/>
		<stop  offset="0.99" style="stop-color:#5A4C5C"/>
		<stop  offset="1" style="stop-color:#5A4C5C"/>
	</linearGradient>
	<path class="st18" d="M149,51.1c3.2-21.9,23.6-37,45.4-33.7s37,23.6,33.7,45.4s-23.6,37-45.4,33.7c0,0,0,0-0.1,0
		C160.8,93.2,145.7,72.9,149,51.1C148.9,51.1,148.9,51.1,149,51.1z"/>
	
		<linearGradient id="SVGID_18_" gradientUnits="userSpaceOnUse" x1="68.651" y1="914.9163" x2="150.791" y2="914.9163" gradientTransform="matrix(0.9616 -0.1273 0.1273 0.9616 -33.7002 -808.6582)">
		<stop  offset="0" style="stop-color:#6C5762"/>
		<stop  offset="0.35" style="stop-color:#665061"/>
		<stop  offset="1" style="stop-color:#584F60"/>
	</linearGradient>
	<path class="st19" d="M148.9,51.3c3.2-21.8,23.5-36.8,45.3-33.6S231,41.2,227.8,63c-3.3,21.9-23.6,36.9-45.3,33.7
		C160.7,93.4,145.6,73.1,148.9,51.3L148.9,51.3z"/>
	
		<linearGradient id="SVGID_19_" gradientUnits="userSpaceOnUse" x1="78.6754" y1="946.7654" x2="160.3055" y2="946.7654" gradientTransform="matrix(0.9746 -0.1024 0.1024 0.9746 -24.799 -853.1451)">
		<stop  offset="0" style="stop-color:#655966"/>
		<stop  offset="0.35" style="stop-color:#615365"/>
		<stop  offset="1" style="stop-color:#555365"/>
	</linearGradient>
	<path class="st20" d="M148.8,51.6c3.2-21.7,23.5-36.8,45.2-33.5s36.8,23.5,33.5,45.2C224.3,85,204,100,182.3,96.8
		S145.6,73.4,148.8,51.6z"/>
	
		<linearGradient id="SVGID_20_" gradientUnits="userSpaceOnUse" x1="95.1432" y1="988.0281" x2="176.2315" y2="988.0281" gradientTransform="matrix(0.977 -7.654888e-02 7.654888e-02 0.977 -20.199 -897.2656)">
		<stop  offset="0" style="stop-color:#5F5B6A"/>
		<stop  offset="0.35" style="stop-color:#5C5769"/>
		<stop  offset="1" style="stop-color:#535669"/>
	</linearGradient>
	<path class="st21" d="M148.7,51.9c3.2-21.7,23.4-36.7,45.1-33.5s36.7,23.4,33.5,45.1s-23.4,36.7-45.1,33.5l0,0
		C160.5,93.8,145.5,73.6,148.7,51.9z"/>
	
		<linearGradient id="SVGID_21_" gradientUnits="userSpaceOnUse" x1="110.092" y1="1016.66" x2="190.532" y2="1016.66" gradientTransform="matrix(0.99 -5.000000e-02 5.000000e-02 0.99 -11.33 -941.1)">
		<stop  offset="0" style="stop-color:#595D6D"/>
		<stop  offset="0.35" style="stop-color:#565A6D"/>
		<stop  offset="1" style="stop-color:#515A6D"/>
	</linearGradient>
	<path class="st22" d="M148.6,52.1c3.2-21.7,23.4-36.6,45.1-33.4s36.6,23.4,33.4,45.1s-23.4,36.6-45.1,33.4l0,0
		C160.4,94,145.4,73.8,148.6,52.1z"/>
	
		<linearGradient id="SVGID_22_" gradientUnits="userSpaceOnUse" x1="130.3002" y1="1059.1643" x2="210.0702" y2="1059.1643" gradientTransform="matrix(0.9897 -2.539699e-02 2.539699e-02 0.9897 -7.7944 -985.7262)">
		<stop  offset="0" style="stop-color:#525F71"/>
		<stop  offset="0.35" style="stop-color:#515D71"/>
		<stop  offset="1" style="stop-color:#4E5D71"/>
	</linearGradient>
	<path class="st23" d="M148.6,52.4c3.2-21.6,23.4-36.6,45-33.3s36.6,23.4,33.3,45c-3.2,21.6-23.4,36.6-45,33.3
		C160.3,94.2,145.4,74,148.6,52.4L148.6,52.4z"/>
	<path class="st24" d="M148.5,52.7c3.2-21.6,23.3-36.5,44.9-33.3s36.5,23.3,33.3,44.9c-3.2,21.6-23.3,36.5-44.9,33.3l0,0
		C160.2,94.4,145.3,74.3,148.5,52.7L148.5,52.7z"/>
	<path class="st25" d="M148.5,52.7c3.2-21.6,23.3-36.5,44.9-33.3s36.5,23.3,33.3,44.9c-3.2,21.6-23.3,36.5-44.9,33.3l0,0
		C160.2,94.4,145.3,74.3,148.5,52.7L148.5,52.7z"/>
	<path class="st25" d="M150,52.9c3.1-20.8,22.4-35.1,43.2-32s35.1,22.4,32,43.2c-3.1,20.7-22.4,35-43.2,32
		C161.2,93,146.9,73.7,150,52.9L150,52.9z"/>
	<path class="st26" d="M181.5,39l-0.5,1c-1.5-1.6-3.1-3-4.9-4.2c-0.7,0.8-1.4,1.6-2.2,2.2h4.5v1h-4.5v-0.9c-1.1,0.9-2.2,1.7-3.3,2.4
		l-0.5-1c2.3-1.3,4.3-3.1,5.9-5.2l1.1,0.3c0,0.1-0.1,0.2-0.2,0.3C178.4,36.2,180.1,37.5,181.5,39z M180.2,53.8h-1v-1.1h-5.6v1.1h-1
		V49c-0.2,1.7-0.8,3.4-1.8,4.8l-0.7-0.7c1.3-2.3,1.9-5,1.8-7.7v-5.1h8.4v6.1h-7.4c0,0.4-0.1,0.9-0.2,1.7h7.5
		C180.2,48.1,180.2,53.8,180.2,53.8z M179.2,42.8v-1.4h-6.3v1.5L179.2,42.8z M179.2,45.4v-1.5h-6.3v1.5H179.2z M179.2,51.6v-2.5
		h-5.6v2.5H179.2z M186.8,51.9c0,0.4-0.1,0.9-0.3,1.2c-0.3,0.4-0.7,0.6-1.1,0.6c-0.6,0-1.1,0-1.7,0h-0.8l-0.4-1.2c0.9,0,1.8,0,2.8,0
		c0.2,0,0.3-0.1,0.4-0.3c0.1-0.2,0.2-0.3,0.2-0.5V34.6h1v17.3H186.8z M183.4,49.7h-1V35.6h1V49.7z"/>
	<path class="st26" d="M191.1,47.6c-0.5,1.6-1.3,3.1-2.3,4.5l-0.9-0.7c0.9-1.3,1.7-2.8,2.2-4.3L191.1,47.6z M197.1,45.8h-4v8.1h-1
		v-8.1h-4v-1.1h4v-2.2h-3.8v-1.1h2.4c-0.2-1.1-0.6-2.2-1-3.3l0.7-0.5h-2v-1.1h3.7c-0.2-0.6-0.5-1.1-0.8-1.6l1-0.5
		c0.4,0.6,0.7,1.3,1,2h3.5v1.1h-1.6l0.7,0.5c-0.3,1.1-0.8,2.2-1.2,3.3h2.3v1.1h-3.8v2.2h4L197.1,45.8z M194.8,37.7h-4.1
		c0.5,1.2,0.8,2.5,1.1,3.8h1.7C194,40.2,194.5,39,194.8,37.7z M196.5,50l-0.9,0.6c-0.4-1.1-0.8-2.1-1.4-3.1L195,47
		C195.6,47.9,196.1,49,196.5,50z M205.2,42.8h-2.1v11.1h-1V42.8h-3c0,4.9-0.8,8.6-2.5,11.2l-0.8-0.7c0.8-1.4,1.4-2.9,1.8-4.4
		c0.4-1.9,0.6-3.9,0.6-5.9v-6.6c2.1-0.3,4.2-0.9,6.1-1.9l0.8,0.9c-1.9,0.9-3.8,1.6-5.9,1.9v4.3h6.1L205.2,42.8z"/>
	<path class="st26" d="M173,73.2c-0.5,2-1.3,3.9-2.4,5.6l-1-0.6c1-1.7,1.8-3.5,2.3-5.3L173,73.2z M185.3,71.2h-13.6v-9.6h13.6
		C185.3,61.6,185.3,71.2,185.3,71.2z M178,65.8v-3.1h-5.2v3.1H178z M178,70.1v-3.2h-5.2v3.2H178z M183.4,76.4c0,1-0.2,1.9-0.6,2.8
		c-0.2,0.4-0.5,0.7-0.9,0.8c-1,0.1-1.9,0.2-2.9,0.1c-1,0-1.9,0-2.9-0.1c-0.3-0.1-0.6-0.2-0.8-0.5s-0.4-0.7-0.3-1.2v-5.8h1v5.7
		c0,0.3,0.1,0.6,0.4,0.7c0.9,0.1,1.8,0.2,2.7,0.2c0.9,0,1.7,0,2.6-0.1c0.2-0.1,0.4-0.5,0.5-1.2c0.1-0.6,0.2-1.2,0.2-1.8L183.4,76.4z
		 M180.6,75.3l-0.9,0.6c-0.6-1.2-1.3-2.4-2.1-3.4l0.9-0.6C179.3,73,180,74.1,180.6,75.3z M184.2,65.8v-3.1H179v3.1H184.2z
		 M184.2,70.2v-3.3H179v3.2L184.2,70.2z M187.2,77.9l-0.8,0.7c-0.9-1.9-2-3.6-3.3-5.3l1-0.5C185.3,74.4,186.4,76.1,187.2,77.9
		L187.2,77.9z"/>
	<path class="st26" d="M190.3,75.2c-0.1,1.8-0.5,3.6-1.2,5.2l-0.9-0.5c0.6-1.6,1-3.2,1.1-4.9L190.3,75.2z M195.3,73.7l-1,0.4
		c-0.1-0.3-0.2-0.8-0.3-1.3c-1.8,0.6-3.6,1.1-5.4,1.5l-0.3-1c1.5-1.6,2.7-3.4,3.8-5.3c-1.2,0.3-2.3,0.6-3.6,0.7l-0.3-1
		c1.4-2.2,2.6-4.5,3.6-6.8l1,0.5c-1,2.1-2,4.1-3.3,6c1.1-0.2,2.2-0.4,3.3-0.8c0.4-0.7,0.9-1.6,1.4-2.6l0.9,0.6
		c-1.5,3-3.2,5.7-5.3,8.3c1.3-0.3,2.6-0.7,3.8-1.1l-0.5-1.3l0.9-0.4C194.7,71.2,195.1,72.4,195.3,73.7z M192.8,79.6l-1,0.2
		c0-1.5-0.2-3-0.5-4.5l1-0.2C192.7,76.6,192.9,78.1,192.8,79.6z M195.5,78.6l-0.9,0.3c-0.2-1.3-0.5-2.6-1-3.8l0.9-0.3
		C195,76,195.4,77.3,195.5,78.6L195.5,78.6z M205.5,79h-7.9v1.3h-1V67.8c-0.1,0.2-0.5,0.8-1.1,1.8l-0.9-0.6c1.6-2.5,2.8-5.2,3.6-8
		l0.9,0.3c-0.4,1.3-0.8,2.6-1.3,3.8h3.5c-0.3-1.2-0.7-2.4-1.2-3.5l0.9-0.4c0.5,1.2,1,2.5,1.3,3.9h2.9v1.1h-3.4v2.9h3v1.1h-3v3.2h3
		v1.1h-3v3.4h3.6L205.5,79z M200.8,69.1v-2.9h-3.2v2.9H200.8z M200.8,73.4v-3.2h-3.2v3.2H200.8z M200.8,77.9v-3.5h-3.2v3.5H200.8z"
		/>
	<path class="st27" d="M176.5,152.4c0,2-1.6,3.7-3.7,3.7s-3.7-1.6-3.7-3.7s1.6-3.7,3.7-3.7l0,0C174.9,148.8,176.5,150.4,176.5,152.4
		z"/>
</g>
<g id="圖層_2">
	<path class="st28" d="M20,68.3h-6.6v13.2h-1.1V62.4h7.8L20,68.3L20,68.3z M18.8,64.8v-1.3h-5.5v1.3H18.8z M18.8,67.2v-1.4h-5.5v1.4
		H18.8z M20.6,74.3l-0.9,0.4l-0.3-0.6l-4.6,0.6l-0.3-0.9c1-0.6,1.9-1.3,2.8-2.1L14.7,72l-0.3-0.9c1.1-0.7,2.2-1.6,3-2.7l1.1,0.5
		c-0.6,0.7-1.3,1.4-2.1,2l2-0.3c0.4-0.3,0.8-0.7,1.1-1.1l1,0.5c-1.3,1.3-2.6,2.5-4,3.6l2.5-0.3c-0.1-0.2-0.3-0.5-0.4-0.7l0.9-0.4
		C19.9,72.9,20.3,73.6,20.6,74.3z M19.9,76.3c0.1,1.2-0.2,2.3-0.9,3.2c-0.8,0.8-1.8,1.3-2.9,1.5l-0.7-1c2-0.4,3.1-1.2,3.4-2.3h-3.5
		v-2.6h1.1v1.8h2.5c0-0.3,0.1-0.5,0.1-0.8v-1h1.1L19.9,76.3z M27.9,74.2L27,74.8l-0.5-0.7l-5.3,0.5L21,73.7c1-0.5,1.8-1.2,2.6-1.9
		L21,72.1l-0.3-0.8c1.1-0.7,2.1-1.5,2.9-2.6l1.1,0.5c-0.6,0.7-1.2,1.3-1.9,1.9l1.9-0.2c0.2-0.2,0.5-0.5,1-0.9l0.9,0.4
		c-1.1,1.2-2.3,2.2-3.6,3.2l2.7-0.3c-0.2-0.3-0.4-0.5-0.6-0.7l0.9-0.5C26.8,72.7,27.4,73.5,27.9,74.2L27.9,74.2z M26.3,77.9h-3.7V81
		h-1.1v-5.9h1.1v1.8h2.6v-1.7h1.1L26.3,77.9L26.3,77.9z M29.8,80.2c0,0.4-0.1,0.7-0.4,1c-0.2,0.2-0.6,0.4-0.9,0.4
		c-1.2,0-1.9,0-2.1,0l-0.5-1.2c0.5,0,1,0.1,1.4,0.1s0.8,0,1.2-0.1c0.1-0.1,0.2-0.2,0.2-0.4V68.3H22v-5.9h7.8V80.2z M28.7,64.8v-1.3
		h-5.5v1.3H28.7z M28.7,67.2v-1.4h-5.5v1.4H28.7z"/>
	<path class="st28" d="M38.9,73.8c-1.2,2.7-2.7,5.3-4.4,7.8l-0.9-0.8c1.7-2.4,3.1-5,4.3-7.7L38.9,73.8z M38.7,70L38,70.9
		c-1.3-1-2.7-2-4.1-2.8l0.7-1C36.1,67.9,37.5,68.9,38.7,70L38.7,70z M39.3,64.8l-0.9,0.9c-1.2-1.1-2.5-2.1-3.9-3l0.7-0.9
		C36.7,62.7,38,63.7,39.3,64.8L39.3,64.8z M53.2,80.9H38.8v-1.1h6.9v-6.4h-5.2v-1.2h5.2v-5.4h-5.8v-1.2h6c-0.4-1.2-0.9-2.4-1.5-3.5
		l1.2-0.3c0.6,1.2,1.1,2.5,1.5,3.8H53v1.2h-6.2v5.4h5.4v1.2h-5.4v6.4h6.4L53.2,80.9z"/>
	<path class="st28" d="M75.7,71.1H59.2v2.2c0,3.8-0.8,6.6-2.3,8.3l-0.8-0.8c0.7-0.9,1.2-1.8,1.5-2.9s0.5-2.2,0.5-3.3v-4.7h17.7
		L75.7,71.1L75.7,71.1z M75.2,64.9h-3.4c-0.7,0.8-1.5,1.6-2.4,2.2c1.6,0.4,3.2,0.9,4.8,1.5l-0.6,0.9c-1.8-0.7-3.7-1.3-5.6-1.7
		c-2.5,1-5.3,1.6-8,1.6l-0.4-1c2.2-0.1,4.4-0.4,6.6-1c-1.7-0.4-3.5-0.7-5.3-1l0.5-0.9c2.3,0.4,4.5,0.8,6.4,1.3
		c0.9-0.5,1.7-1.1,2.4-1.8H57.4v-1.1h8.4c-0.3-0.6-0.6-1.1-1-1.6l1.1-0.5c0.5,0.6,0.9,1.3,1.2,2h8.1V64.9z M75.5,80.9H59.4v-1h7.7
		v-2.2h-5.5v-1.1h5.5v-2h-4.8c-0.5,0.7-1.1,1.3-1.7,1.9l-0.7-1c1.2-1.1,2.2-2.4,2.9-3.9l1.1,0.3c-0.2,0.5-0.5,1-0.8,1.5h4.1v-1.8
		h1.1v1.8h6.2v1.1h-6.2v2H74v1.1h-5.7v2.3h7.3v1H75.5z"/>
	<path class="st28" d="M98.2,75.8h-9.1v5.7h-1.2v-5.7h-9.2v-1.1h9.2v-1.8h-8.3v-1h8.3v-1.8h-8.7V69h5.9c-0.3-0.6-0.8-1.2-1.3-1.8
		l0.9-0.5h-6v-1.1h7.4v-3.7h1.2v3.6h2.5v-3.6h1.1v3.6h7.3v1.1h-5.9l0.8,0.6c-0.3,0.6-0.7,1.2-1.1,1.7h5.7V70h-8.6v1.8h8.1v1h-8.1
		v1.8h9.1L98.2,75.8z M85.9,77.5c-2,1.5-4.1,2.6-6.5,3.4l-0.8-1c2.3-0.7,4.4-1.8,6.3-3.2L85.9,77.5z M83.8,64.5l-1,0.6
		c-0.7-0.8-1.4-1.6-2.2-2.3l1-0.7C82.4,62.8,83.1,63.6,83.8,64.5z M92,66.7h-7.1c0.6,0.7,1.1,1.5,1.5,2.3h4.2
		C91.2,68.3,91.7,67.5,92,66.7z M98.2,80.3l-0.7,0.9c-2.1-1.4-4.3-2.6-6.6-3.6l0.7-0.9C93.9,77.7,96.1,78.9,98.2,80.3z M96.4,62.6
		c-0.6,0.9-1.4,1.7-2.3,2.3l-1-0.6c0.8-0.7,1.6-1.4,2.3-2.3L96.4,62.6z"/>
	<path class="st28" d="M107.5,79.7c0,1.2-0.7,1.8-2,1.8c-0.2,0-0.4,0-0.8,0l-0.4-1.2h1.4c0.2,0,0.3-0.1,0.4-0.2
		c0.1-0.1,0.2-0.2,0.2-0.4v-6.9c-0.9,1-1.7,2-2.7,2.9L103,75c0,2.2-0.4,4.5-1,6.6l-1.1-0.9c0.6-1.8,1-3.8,1-5.7
		c0.1-2.3,0.1-4.3,0.1-6.2v-6.5h5.5L107.5,79.7z M106.4,68.9l-0.6,0.6c-0.8-0.8-1.6-1.6-2.5-2.3v1.4c0,2.8,0,4.8-0.1,6
		c1.2-1.1,2.3-2.3,3.3-3.6L106.4,68.9L106.4,68.9z M106.4,68.6v-5h-3.1v3.5l0.6-0.7C104.7,67,105.6,67.8,106.4,68.6z M119.2,62.8
		c-2.7,1.2-5.6,1.9-8.5,2.1V72c0.1,3.3-0.5,6.5-1.6,9.6l-1.1-0.5c1.1-2.9,1.6-5.9,1.5-9v-8.2c3-0.1,6-0.8,8.8-2L119.2,62.8z
		 M119.6,66.6c-2,0.9-4,1.5-6.2,1.9v11.3c0.9-0.5,1.8-0.9,2.6-1.4l0.3,1.1c-1.3,0.8-2.7,1.5-4.1,2.2l-0.4-1c0.3-0.3,0.4-0.7,0.4-1.1
		v-12c2.3-0.2,4.5-0.9,6.6-1.8L119.6,66.6z M120.7,80.8l-0.9,0.9c-2.6-2.7-4.1-6.6-4.4-11.6l1.1-0.3c0.1,1.1,0.3,2.3,0.5,3.4
		c1-0.9,1.8-1.9,2.6-2.9l0.9,0.7c-1,1.3-2.1,2.4-3.3,3.5C117.8,76.8,119,79,120.7,80.8L120.7,80.8z"/>
	<path class="st28" d="M134.4,62.8c-1.5,0.4-3,0.7-4.5,0.8v1.8h4.5v1.1h-4.5v1.7h4.1v6.5h-4.1v1.6h4.1v1.1h-4.1v2.3
		c1.3-0.1,2.7-0.3,4.1-0.5v1.1c-4,0.5-7.4,0.9-10.2,1.2l-0.3-1.2c1.6-0.1,3.4-0.3,5.3-0.5v-2.4h-4.1v-1.1h4.1v-1.6h-4.1v-6.5h4.1
		v-1.7h-4.9v-1.1h4.9v-1.6c-1.2,0.1-2.6,0.2-4.1,0.2l-0.4-1c3.2,0.1,6.4-0.3,9.6-1.1L134.4,62.8z M128.8,70.8v-1.6h-3v1.6H128.8z
		 M128.8,73.6v-1.7h-3v1.7H128.8z M132.9,70.8v-1.6h-3v1.6H132.9z M132.9,73.6v-1.7h-3v1.7H132.9z M142.2,66.3c0,3.3-0.1,6.3-0.2,9
		c0,1.6-0.1,3.2-0.4,4.8c-0.1,0.4-0.4,0.8-0.8,1.1c-0.7,0.3-1.5,0.4-2.2,0.4c-0.3,0-0.6,0-0.8,0l-0.4-1.2c0.8,0,1.6,0,2.2,0
		c0.3,0,0.6-0.1,0.8-0.3c0.3-0.3,0.4-0.6,0.4-1l0.2-4.3c0.1-2.4,0.1-4.8,0.1-7.3h-2.4c0.1,5-1.1,9.8-3.4,14.2l-1-0.5
		c2.1-3.6,3.2-8.2,3.3-13.7h-2.4v-1.1h2.4l0.1-4.4h1.1c0,1.8-0.1,3.3-0.1,4.4L142.2,66.3z"/>
	<path class="st28" d="M155.5,73.7c-0.5-0.2-0.8-0.6-0.8-1.1c0-0.2,0.1-0.5,0.3-0.7c0.2-0.2,0.5-0.4,0.8-0.3c0.7,0,1,0.5,1,1.4
		c-0.1,0.9-0.6,1.7-1.4,2.2l-0.5-0.4C155.2,74.5,155.4,74.2,155.5,73.7z"/>
	<path class="st28" d="M175.9,64.3h-2.8c-0.4,1.7-0.9,3.4-1.5,5h3.5v9.6H174V78h-2.1v1.9h-1.1V71c-0.5,0.9-1,1.8-1.6,2.6l-0.8-0.8
		c1.7-2.6,2.9-5.5,3.5-8.5h-3v-1.1h7V64.3z M174,77v-6.5h-2.1V77H174z M188.1,81h-12.6v-1.1h4V66.8h-3.8v-1.1h12.1v1.1h-4v13.1h4.3
		V81z M178.3,76.3l-1.1,0.4c-0.1-2.4-0.5-4.8-1.1-7.1l1-0.4C177.7,71.5,178.1,73.9,178.3,76.3L178.3,76.3z M180.2,64.5l-1,0.5
		c-0.5-1-1.1-1.9-1.7-2.7l1-0.5C179.1,62.6,179.7,63.5,180.2,64.5L180.2,64.5z M182.7,79.9V66.8h-2.1v13.1H182.7z M185.9,62.2
		c-0.5,1-1.2,1.9-2,2.8l-0.9-0.6c0.7-0.8,1.4-1.7,2-2.7L185.9,62.2z M187.6,69.5c-0.3,2.4-0.9,4.8-1.7,7.1l-1-0.5
		c0.8-2.3,1.3-4.7,1.6-7.1L187.6,69.5z"/>
	<path class="st28" d="M197.3,71.9l-2.2,1V80c0,1.1-0.7,1.6-2.2,1.6h-1.2l-0.3-1.2c0.4,0,0.7,0.1,1.1,0.1s0.8,0,1.2-0.2
		c0.2-0.1,0.2-0.3,0.2-0.5v-6.4l-3,1.2l-0.3-1.2c1.5-0.5,2.5-0.9,3.2-1.2V67h-3.1v-1.1h3.1v-4h1.1v4h1.5V67h-1.5v4.7
		c0.7-0.2,1.4-0.5,2-0.9L197.3,71.9z M210.5,68.1h-13.4v-1h3.9c-0.2-0.7-0.5-1.3-0.8-2h-2.1V64h5.2c-0.3-0.7-0.6-1.2-0.8-1.5l1-0.5
		c0.4,0.6,0.7,1.3,1,2h5.5v1.1h-2.6c-0.2,0.7-0.5,1.4-0.8,2h3.9V68.1z M210.5,81h-13.4v-1h6.1v-1.7h-5.7v-1.1h5.7v-1.5h-4.9v-6.3
		h10.9v6.3h-4.8v1.5h5.6v1.1h-5.6v1.6h6L210.5,81z M203.2,71.9v-1.5h-3.8v1.5H203.2z M203.2,74.6v-1.7h-3.8v1.6L203.2,74.6z
		 M206.3,65.1h-4.9c0.2,0.6,0.5,1.2,0.7,2h3.3C205.7,66.5,206,65.8,206.3,65.1z M208.1,71.9v-1.5h-3.7v1.5H208.1z M208.1,74.6v-1.7
		h-3.7v1.6L208.1,74.6z"/>
	<path class="st28" d="M231.8,81.5h-1.2v-1.1h-15.8v-7.5h1.2v6.4h6.8v-8.7h-7v-7.4h1.2v6.2h5.8v-7.7h1.1v7.7h5.7v-6.2h1.2v7.4h-6.9
		v8.6h6.7v-6.3h1.2L231.8,81.5z"/>
	<path class="st28" d="M243.1,78.9c-3.1,1.1-5.4,1.9-6.8,2.3l-0.5-1.1c0.3-0.1,0.7-0.2,1-0.3v-8.6h1.1v8.3c0.5-0.1,1-0.3,1.5-0.5
		v-9.6h-2.6v-6.8h5.4v6.8h-1.6v3.1h2v1.1h-2v5c0.9-0.2,1.7-0.5,2.5-0.9V78.9z M241,68.2v-4.4h-3v4.5L241,68.2z M255.6,69.3l-0.7,0.9
		c-2.1-1.1-3.8-2.9-4.7-5.1h-1.8c-1.1,2.1-2.6,3.8-4.6,5l-1-0.8c1.7-1,3.2-2.4,4.2-4.2h-3.7V64h4.2c0.3-0.7,0.5-1.5,0.7-2.3l1.2,0.3
		c-0.1,0.7-0.3,1.3-0.6,2h6.3v1.1h-3.7C252.3,67,253.8,68.5,255.6,69.3L255.6,69.3z M254.9,72.9h-7.4l-0.7,2.3h6.7
		c0,1.4-0.2,2.8-0.5,4.2c-0.1,0.7-0.5,1.3-1,1.8c-0.8,0.3-1.7,0.5-2.6,0.4c-0.6,0-1.4,0-2.1-0.1l-0.3-1.2c1,0,2.3,0.1,3.9,0.1
		c0.4,0,0.7-0.2,0.8-0.6c0.3-1.1,0.5-2.2,0.6-3.4h-7l1-3.4h-2.7v-1H255L254.9,72.9z M252.1,69.7h-5.7v-1.1h5.7V69.7z"/>
	<path class="st28" d="M267.8,66.5l-0.8,0.8c-1-1.3-2.2-2.5-3.5-3.4c-1.2,2-2.6,3.8-4.4,5.3l-0.7-1c2.1-1.8,3.7-4,4.9-6.5l1.1,0.3
		c-0.2,0.4-0.3,0.7-0.4,0.8C265.4,63.9,266.7,65.1,267.8,66.5z M267.3,72.5c-0.2,0.8-0.5,1.5-0.9,2.2c-0.6,1.3-1.4,2.5-2.2,3.7
		c0.7,0.7,1.4,1.5,2.1,2.3l-0.9,0.7c-1.6-2-3.4-3.8-5.5-5.3l0.8-0.8c0.8,0.6,1.7,1.3,2.7,2.2c1.2-1.5,2.1-3.3,2.7-5.1h-7.2v-1.1h8.4
		V72.5z M266.5,69.1H261V68h5.5V69.1z M278,63.5h-4.4c-0.3,1.3-0.6,2.2-0.7,2.6h4.1v11h-5.3l0.7,0.7c-1.3,1.4-2.7,2.7-4.3,3.7
		l-0.8-0.9c1.5-1,2.9-2.1,4.1-3.5h-2.7v-11h2.9c0.3-0.9,0.5-1.7,0.7-2.6h-4.6v-1H278L278,63.5L278,63.5z M275.8,69.2v-2h-5.9v2
		H275.8z M275.8,72.5v-2.2h-5.9v2.2H275.8z M275.8,76v-2.5h-5.9V76H275.8z M278.1,80.6l-0.7,0.8c-1.2-1.1-2.5-2.1-3.9-3l0.7-0.9
		C275.6,78.5,276.9,79.5,278.1,80.6L278.1,80.6z"/>
	<path class="st28" d="M286.7,76.9c-2,1-3.9,1.9-5.6,2.7l-0.4-1.1c0.9-0.3,1.8-0.7,2.6-1.2v-8.7h-2.2v-1.1h2.2v-5.6h1.1v5.6h1.9v1.1
		h-1.9v8.2c0.7-0.3,1.4-0.6,2.1-1L286.7,76.9z M300.5,77.2c-0.1,1.1-0.4,2.2-0.8,3.2c-0.2,0.6-0.8,1-1.4,1c-1,0-1.9-1.2-2.8-3.5
		c-1.2,1.4-2.6,2.7-4.2,3.6l-0.8-1c1.8-1,3.4-2.4,4.6-4.1c-0.7-3.4-1.1-6.9-1.1-10.3h-7.7V65h7.7c0-0.7,0-1.3,0-2c0-0.5,0-0.9,0-1.2
		h1.1c0,1.7,0,2.8,0,3.3h5.1v1.1h-5.1c0,3,0.3,5.9,0.8,8.9c1.1-2.1,1.9-4.3,2.3-6.6l1.1,0.3c-0.6,2.8-1.6,5.5-3,8
		c0.2,0.6,0.4,1.2,0.7,1.7c0.2,0.4,0.5,0.9,0.8,1.3c0.2,0.2,0.4,0.3,0.5,0.3s0.2-0.1,0.3-0.2c0.2-0.3,0.3-0.7,0.3-1
		c0.2-0.7,0.3-1.4,0.4-2.2L300.5,77.2z M293.5,76.9c-2.5,0.9-4.7,1.7-6.7,2.3l-0.3-1.2c1.9-0.5,4.1-1.3,6.9-2.3L293.5,76.9z
		 M292.3,74.4h-4.8v-5.9h4.8V74.4z M291.2,73.3v-3.7h-2.5v3.7H291.2z M299.2,63.9l-0.9,0.8c-0.5-0.7-1-1.3-1.7-1.9l0.9-0.7
		C298.1,62.6,298.7,63.2,299.2,63.9L299.2,63.9z"/>
	<path class="st28" d="M310.6,68.2c-0.6,1.1-1.2,2.2-1.9,3.2v10.1h-1.2v-8.6c-1,1.1-2.1,2-3.3,2.9l-0.9-0.9c2.7-1.7,4.9-4.2,6.2-7.2
		L310.6,68.2z M312.7,65.2H310v2.2h-1.2v-2.2h-5.4v-1.1h5.4v-2.4h1.2v2.4h2.7L312.7,65.2z M322.9,76.5c0,1.2-0.1,2.4-0.5,3.5
		c-0.2,0.4-0.5,0.8-1,1c-1.1,0.2-2.3,0.3-3.4,0.3c-1.3,0.1-2.6,0-3.8-0.3c-0.5-0.3-0.7-0.9-0.6-1.4V68h1.2v3.8h7.8v1.1h-7.8v6.5
		c0,0.3,0.1,0.5,0.4,0.6c0.9,0.1,1.9,0.2,2.8,0.1c1,0.1,2,0,3-0.2c0.2-0.1,0.4-0.5,0.5-1.3c0.1-0.9,0.2-1.7,0.3-2.6L322.9,76.5z
		 M323,65.2h-5.3v2.3h-1.2v-2.4h-2.9V64h2.9v-2.4h1.2V64h5.3V65.2z"/>
	<path class="st28" d="M345.4,80.7l-0.7,1c-5.1-2.9-8.2-6.6-9.2-11.3c-0.8,4.6-3.8,8.4-9,11.3l-0.8-1c2.1-1.1,4-2.6,5.6-4.3
		c1.6-1.8,2.7-4,3-6.4c0.4-2.7,0.6-5.4,0.5-8.1h1.2l-0.1,3.5c0,2.1,0.3,4.1,1,6.1c2.4-1.9,4.5-4,6.3-6.4l1,0.8
		c-2,2.5-4.3,4.8-6.8,6.8C339.2,76,341.9,78.9,345.4,80.7z M332.4,71.7l-1,0.7c-1.2-2.4-2.8-4.6-4.6-6.5l1-0.7
		C329.7,67.1,331.2,69.3,332.4,71.7L332.4,71.7z"/>
</g>
</svg>
