<?xml version="1.0" encoding="utf-8"?>
<!-- Generator: Adobe Illustrator 24.1.1, SVG Export Plug-In . SVG Version: 6.00 Build 0)  -->
<svg version="1.1" id="圖層_1" xmlns="http://www.w3.org/2000/svg" xmlns:xlink="http://www.w3.org/1999/xlink" x="0px" y="0px"
	 viewBox="0 0 380 160" style="enable-background:new 0 0 380 160;" xml:space="preserve">
<style type="text/css">
	.st0{display:none;}
	.st1{display:inline;fill-rule:evenodd;clip-rule:evenodd;fill:#5F7696;}
	.st2{display:inline;fill-rule:evenodd;clip-rule:evenodd;fill:url(#SVGID_1_);}
	.st3{display:inline;fill:url(#SVGID_2_);}
	.st4{display:inline;fill:url(#SVGID_3_);}
	.st5{display:inline;fill:url(#SVGID_4_);}
	.st6{display:inline;fill:url(#SVGID_5_);}
	.st7{display:inline;fill:url(#SVGID_6_);}
	.st8{display:inline;fill:url(#SVGID_7_);}
	.st9{display:inline;fill:url(#SVGID_8_);}
	.st10{display:inline;fill:url(#SVGID_9_);}
	.st11{display:inline;fill:url(#SVGID_10_);}
	.st12{display:inline;fill:url(#SVGID_11_);}
	.st13{display:inline;fill:url(#SVGID_12_);}
	.st14{display:inline;fill:url(#SVGID_13_);}
	.st15{display:inline;fill:url(#SVGID_14_);}
	.st16{display:inline;fill:url(#SVGID_15_);}
	.st17{display:inline;fill:url(#SVGID_16_);}
	.st18{display:inline;fill:url(#SVGID_17_);}
	.st19{display:inline;fill:url(#SVGID_18_);}
	.st20{display:inline;fill:url(#SVGID_19_);}
	.st21{display:inline;fill:url(#SVGID_20_);}
	.st22{display:inline;fill:url(#SVGID_21_);}
	.st23{display:inline;fill:url(#SVGID_22_);}
	.st24{display:inline;fill:#4C6075;}
	.st25{display:inline;fill:#FFFFFF;}
	.st26{display:inline;fill:#211513;}
	.st27{display:inline;fill-rule:evenodd;clip-rule:evenodd;fill:#AD181C;}
	.st28{fill:#211513;}
</style>
<g id="圖層_1_1_" class="st0">
	<path class="st1" d="M214.3,19.8c-21-15.5-50.7-10.9-66.1,10.1c-12.3,16.8-12.2,39.6,0.2,56.3c6.5,8.9,15.8,15.3,26.5,18.1
		c4.5,1.1,8.3,1.3,12.7,3.1c13.1,5.4,13,19.9-12.7,40.2c44-17.9,68.8-65.6,57.8-101.6C229.5,35.6,223.1,26.4,214.3,19.8z"/>
	
		<linearGradient id="SVGID_1_" gradientUnits="userSpaceOnUse" x1="-190.1559" y1="-207.4839" x2="-83.3959" y2="-207.4839" gradientTransform="matrix(0.84 -0.54 -0.54 -0.84 186.9976 -174.2871)">
		<stop  offset="0" style="stop-color:#D33924"/>
		<stop  offset="0.15" style="stop-color:#CB3023"/>
		<stop  offset="0.35" style="stop-color:#BB1C21"/>
		<stop  offset="0.57" style="stop-color:#AA1B20"/>
		<stop  offset="1" style="stop-color:#7F191E"/>
		<stop  offset="1" style="stop-color:#7F191E"/>
	</linearGradient>
	<path class="st2" d="M216.1,19.6C195,4.1,165.4,8.7,150,29.9S139.1,80.6,160.2,96c4.9,3.6,10.5,6.2,16.4,7.7
		c4.4,1.1,8.6,1.2,12.7,3.4c12.9,6.9,11.1,22.9-14.5,40.5c44-17.9,70.6-65.8,59.6-101.8C231.3,35.3,224.9,26.1,216.1,19.6z"/>
	
		<linearGradient id="SVGID_2_" gradientUnits="userSpaceOnUse" x1="-167.1459" y1="-193.5066" x2="-85.0458" y2="-193.5066" gradientTransform="matrix(0.84 -0.54 -0.54 -0.84 186.9976 -174.2871)">
		<stop  offset="0" style="stop-color:#D33924"/>
		<stop  offset="0.15" style="stop-color:#CB3023"/>
		<stop  offset="0.35" style="stop-color:#BB1C21"/>
		<stop  offset="0.57" style="stop-color:#AA1B20"/>
		<stop  offset="1" style="stop-color:#7F191E"/>
		<stop  offset="1" style="stop-color:#7F191E"/>
	</linearGradient>
	<path class="st3" d="M150.1,47c3.3-22.4,24.2-37.9,46.6-34.5s37.9,24.2,34.6,46.6S207.1,97,184.6,93.7
		C162.2,90.3,146.7,69.5,150.1,47L150.1,47z"/>
	
		<linearGradient id="SVGID_3_" gradientUnits="userSpaceOnUse" x1="-163.0033" y1="-229.7803" x2="-80.4633" y2="-229.7803" gradientTransform="matrix(0.8493 -0.5087 -0.5087 -0.8493 175.3846 -202.7313)">
		<stop  offset="0" style="stop-color:#CD3B28"/>
		<stop  offset="0.15" style="stop-color:#C53227"/>
		<stop  offset="0.35" style="stop-color:#B61F25"/>
		<stop  offset="0.57" style="stop-color:#A51E24"/>
		<stop  offset="1" style="stop-color:#7D1C22"/>
	</linearGradient>
	<path class="st4" d="M150,47.3c3.3-22.4,24.2-37.8,46.6-34.5s37.8,24.2,34.5,46.6s-24.2,37.8-46.6,34.5l0,0
		C162.1,90.6,146.7,69.7,150,47.3L150,47.3z"/>
	
		<linearGradient id="SVGID_4_" gradientUnits="userSpaceOnUse" x1="-158.8198" y1="-264.9335" x2="-75.8798" y2="-264.9335" gradientTransform="matrix(0.86 -0.48 -0.48 -0.86 166.3945 -231.8759)">
		<stop  offset="0" style="stop-color:#C63D2C"/>
		<stop  offset="0.16" style="stop-color:#BE342B"/>
		<stop  offset="0.35" style="stop-color:#B02329"/>
		<stop  offset="0.59" style="stop-color:#9F2228"/>
		<stop  offset="1" style="stop-color:#7A2026"/>
	</linearGradient>
	<path class="st5" d="M149.9,47.6c3.4-22.4,24.2-37.8,46.5-34.5s37.8,24.1,34.4,46.5c-3.3,22.3-24.1,37.7-46.5,34.4
		C162,90.7,146.6,69.9,149.9,47.6z"/>
	
		<linearGradient id="SVGID_5_" gradientUnits="userSpaceOnUse" x1="-168.37" y1="-305.6937" x2="-85.0983" y2="-305.6937" gradientTransform="matrix(0.866 -0.4587 -0.4587 -0.866 159.4722 -268.8506)">
		<stop  offset="0" style="stop-color:#C03F30"/>
		<stop  offset="0.17" style="stop-color:#B8362F"/>
		<stop  offset="0.35" style="stop-color:#AB262D"/>
		<stop  offset="0.6" style="stop-color:#9A252C"/>
		<stop  offset="1" style="stop-color:#78232A"/>
	</linearGradient>
	<path class="st6" d="M149.9,47.9c3.3-22.3,24-37.7,46.3-34.4s37.7,24,34.4,46.3s-24,37.7-46.3,34.4c0,0,0,0-0.1,0
		C162,90.9,146.6,70.2,149.9,47.9z"/>
	
		<linearGradient id="SVGID_6_" gradientUnits="userSpaceOnUse" x1="-165.7579" y1="-349.4629" x2="-82.198" y2="-349.4629" gradientTransform="matrix(0.87 -0.43 -0.43 -0.87 146.257 -302.5205)">
		<stop  offset="0" style="stop-color:#B94133"/>
		<stop  offset="0.17" style="stop-color:#B23832"/>
		<stop  offset="0.35" style="stop-color:#A62931"/>
		<stop  offset="0.61" style="stop-color:#952830"/>
		<stop  offset="1" style="stop-color:#75272F"/>
	</linearGradient>
	<path class="st7" d="M149.8,48.1c3.3-22.2,24-37.6,46.3-34.3s37.6,24,34.3,46.3s-24,37.6-46.3,34.3l0,0
		C161.8,91.1,146.5,70.4,149.8,48.1z"/>
	
		<linearGradient id="SVGID_7_" gradientUnits="userSpaceOnUse" x1="-165.8422" y1="-386.1635" x2="-82.0623" y2="-386.1635" gradientTransform="matrix(0.8803 -0.4075 -0.4075 -0.8803 141.1879 -335.8615)">
		<stop  offset="0" style="stop-color:#B34237"/>
		<stop  offset="0.18" style="stop-color:#AB3936"/>
		<stop  offset="0.35" style="stop-color:#A02C35"/>
		<stop  offset="0.63" style="stop-color:#8F2B34"/>
		<stop  offset="1" style="stop-color:#732A33"/>
	</linearGradient>
	<path class="st8" d="M149.7,48.4c3.3-22.2,24-37.6,46.2-34.3s37.6,24,34.3,46.2s-24,37.6-46.2,34.3l0,0
		C161.7,91.3,146.4,70.6,149.7,48.4L149.7,48.4z"/>
	
		<linearGradient id="SVGID_8_" gradientUnits="userSpaceOnUse" x1="-161.6588" y1="-422.2574" x2="-77.6988" y2="-422.2574" gradientTransform="matrix(0.891 -0.3835 -0.3835 -0.891 135.4131 -367.97)">
		<stop  offset="0" style="stop-color:#AC443B"/>
		<stop  offset="0.2" style="stop-color:#A43B3A"/>
		<stop  offset="0.35" style="stop-color:#9B3039"/>
		<stop  offset="0.64" style="stop-color:#8A2F38"/>
		<stop  offset="1" style="stop-color:#702D37"/>
	</linearGradient>
	<path class="st9" d="M149.6,48.7c3.3-22.2,24-37.6,46.1-34.3s37.5,24,34.2,46.1C226.6,82.7,206,98,183.8,94.7
		C161.6,91.5,146.3,70.9,149.6,48.7L149.6,48.7z"/>
	
		<linearGradient id="SVGID_9_" gradientUnits="userSpaceOnUse" x1="-153.9611" y1="-470.8089" x2="-69.9011" y2="-470.8089" gradientTransform="matrix(0.8918 -0.3553 -0.3553 -0.8918 120.5132 -404.0478)">
		<stop  offset="0" style="stop-color:#A6463F"/>
		<stop  offset="0.2" style="stop-color:#9E3D3E"/>
		<stop  offset="0.35" style="stop-color:#96333D"/>
		<stop  offset="0.66" style="stop-color:#85323C"/>
		<stop  offset="1" style="stop-color:#6E313B"/>
	</linearGradient>
	<path class="st10" d="M149.6,48.9c3.3-22.1,23.9-37.4,46.1-34.1s37.4,23.9,34.1,46.1C226.5,83,205.9,98.3,183.7,95l0,0
		C161.6,91.7,146.3,71,149.6,48.9z"/>
	
		<linearGradient id="SVGID_10_" gradientUnits="userSpaceOnUse" x1="-145.146" y1="-508.2297" x2="-61.046" y2="-508.2297" gradientTransform="matrix(0.9012 -0.3307 -0.3307 -0.9012 113.4979 -436.6558)">
		<stop  offset="0" style="stop-color:#9F4843"/>
		<stop  offset="0.21" style="stop-color:#983F42"/>
		<stop  offset="0.35" style="stop-color:#913641"/>
		<stop  offset="0.67" style="stop-color:#803540"/>
		<stop  offset="1" style="stop-color:#6B343F"/>
	</linearGradient>
	<path class="st11" d="M149.5,49.2c3.3-22.1,23.9-37.4,46-34.1s37.4,23.9,34.1,46s-23.9,37.3-46,34.1
		C161.5,91.9,146.2,71.3,149.5,49.2L149.5,49.2L149.5,49.2z"/>
	
		<linearGradient id="SVGID_11_" gradientUnits="userSpaceOnUse" x1="-133.9908" y1="-546.0053" x2="-49.9208" y2="-546.0053" gradientTransform="matrix(0.91 -0.3057 -0.3057 -0.91 105.8355 -469.4315)">
		<stop  offset="0" style="stop-color:#994A47"/>
		<stop  offset="0.22" style="stop-color:#914146"/>
		<stop  offset="0.35" style="stop-color:#8B3945"/>
		<stop  offset="0.7" style="stop-color:#7A3944"/>
		<stop  offset="1" style="stop-color:#693843"/>
	</linearGradient>
	<path class="st12" d="M149.4,49.5c3.3-22.1,23.8-37.3,45.9-34s37.3,23.8,34,45.9s-23.8,37.3-45.9,34l0,0
		C161.3,92.1,146.1,71.5,149.4,49.5z"/>
	
		<linearGradient id="SVGID_12_" gradientUnits="userSpaceOnUse" x1="-120.7169" y1="-583.918" x2="-36.7209" y2="-583.918" gradientTransform="matrix(0.9181 -0.2805 -0.2805 -0.9181 97.5766 -502.5433)">
		<stop  offset="0" style="stop-color:#934C4B"/>
		<stop  offset="0.24" style="stop-color:#8B434A"/>
		<stop  offset="0.35" style="stop-color:#863D49"/>
		<stop  offset="0.73" style="stop-color:#753C48"/>
		<stop  offset="1" style="stop-color:#673B47"/>
	</linearGradient>
	<path class="st13" d="M149.3,49.7c3.3-22,23.8-37.2,45.8-34s37.2,23.8,34,45.8c-3.3,22-23.8,37.2-45.8,34S146.1,71.8,149.3,49.7
		C149.3,49.8,149.3,49.7,149.3,49.7z"/>
	
		<linearGradient id="SVGID_13_" gradientUnits="userSpaceOnUse" x1="-104.761" y1="-622.0672" x2="-20.9251" y2="-622.0672" gradientTransform="matrix(0.9255 -0.2549 -0.2549 -0.9255 88.6212 -535.8487)">
		<stop  offset="0" style="stop-color:#8C4E4F"/>
		<stop  offset="0.26" style="stop-color:#85454E"/>
		<stop  offset="0.35" style="stop-color:#81404D"/>
		<stop  offset="0.75" style="stop-color:#703F4C"/>
		<stop  offset="1" style="stop-color:#643E4C"/>
	</linearGradient>
	<path class="st14" d="M149.2,50c3.3-22,23.7-37.2,45.7-33.9s37.2,23.7,33.9,45.7S205.1,99,183.1,95.7C161.2,92.5,146,72,149.2,50
		L149.2,50z"/>
	
		<linearGradient id="SVGID_14_" gradientUnits="userSpaceOnUse" x1="-86.783" y1="-660.3666" x2="-3.1232" y2="-660.3666" gradientTransform="matrix(0.9322 -0.2293 -0.2293 -0.9322 79.2032 -569.6572)">
		<stop  offset="0" style="stop-color:#865052"/>
		<stop  offset="0.27" style="stop-color:#7E4751"/>
		<stop  offset="0.35" style="stop-color:#7B4351"/>
		<stop  offset="0.81" style="stop-color:#6A4250"/>
		<stop  offset="1" style="stop-color:#624250"/>
	</linearGradient>
	<path class="st15" d="M149.2,50.3c3.3-22,23.7-37.1,45.6-33.8s37.1,23.7,33.8,45.6c-3.3,22-23.7,37.1-45.6,33.8l0,0
		C161.1,92.6,145.9,72.2,149.2,50.3L149.2,50.3z"/>
	
		<linearGradient id="SVGID_15_" gradientUnits="userSpaceOnUse" x1="-66.2249" y1="-698.4946" x2="17.1251" y2="-698.4946" gradientTransform="matrix(0.9382 -0.2035 -0.2035 -0.9382 69.2249 -603.8228)">
		<stop  offset="0" style="stop-color:#7F5156"/>
		<stop  offset="0.31" style="stop-color:#774855"/>
		<stop  offset="0.35" style="stop-color:#764655"/>
		<stop  offset="0.84" style="stop-color:#654554"/>
		<stop  offset="1" style="stop-color:#5F4554"/>
	</linearGradient>
	<path class="st16" d="M149.1,50.5c3.3-21.9,23.7-37,45.6-33.8s37,23.7,33.8,45.6c-3.3,21.9-23.7,37-45.6,33.8l0,0
		C161,92.8,145.8,72.4,149.1,50.5L149.1,50.5z"/>
	
		<linearGradient id="SVGID_16_" gradientUnits="userSpaceOnUse" x1="-43.3748" y1="-736.6938" x2="39.6351" y2="-736.6938" gradientTransform="matrix(0.9434 -0.1777 -0.1777 -0.9434 58.7488 -638.4929)">
		<stop  offset="0" style="stop-color:#79535A"/>
		<stop  offset="0.35" style="stop-color:#714A59"/>
		<stop  offset="0.9" style="stop-color:#604958"/>
		<stop  offset="1" style="stop-color:#5D4958"/>
	</linearGradient>
	<path class="st17" d="M149,50.8c3.3-21.8,23.7-36.9,45.5-33.7s36.9,23.6,33.7,45.5c-3.3,21.8-23.6,36.9-45.5,33.7
		C160.9,93,145.8,72.7,149,50.8L149,50.8z"/>
	
		<linearGradient id="SVGID_17_" gradientUnits="userSpaceOnUse" x1="-23.3313" y1="-759.6265" x2="59.2687" y2="-759.6265" gradientTransform="matrix(0.9578 -0.1534 -0.1534 -0.9578 55.051 -667.9072)">
		<stop  offset="0" style="stop-color:#72555E"/>
		<stop  offset="0.35" style="stop-color:#6B4D5D"/>
		<stop  offset="0.99" style="stop-color:#5A4C5C"/>
		<stop  offset="1" style="stop-color:#5A4C5C"/>
	</linearGradient>
	<path class="st18" d="M149,51.1c3.2-21.9,23.6-37,45.4-33.7s37,23.6,33.7,45.4s-23.6,37-45.4,33.7c0,0,0,0-0.1,0
		C160.8,93.2,145.7,72.9,149,51.1C148.9,51.1,148.9,51.1,149,51.1z"/>
	
		<linearGradient id="SVGID_18_" gradientUnits="userSpaceOnUse" x1="4.0306" y1="-796.8752" x2="86.1706" y2="-796.8752" gradientTransform="matrix(0.9616 -0.1273 -0.1273 -0.9616 43.4655 -703.3272)">
		<stop  offset="0" style="stop-color:#6C5762"/>
		<stop  offset="0.35" style="stop-color:#665061"/>
		<stop  offset="1" style="stop-color:#584F60"/>
	</linearGradient>
	<path class="st19" d="M148.9,51.3c3.2-21.8,23.5-36.8,45.3-33.6S231,41.2,227.8,63c-3.3,21.9-23.6,36.9-45.3,33.7
		C160.7,93.4,145.6,73.1,148.9,51.3L148.9,51.3z"/>
	
		<linearGradient id="SVGID_19_" gradientUnits="userSpaceOnUse" x1="27.1785" y1="-818.4408" x2="108.8085" y2="-818.4408" gradientTransform="matrix(0.9746 -0.1024 -0.1024 -0.9746 38.5354 -733.3049)">
		<stop  offset="0" style="stop-color:#655966"/>
		<stop  offset="0.35" style="stop-color:#615365"/>
		<stop  offset="1" style="stop-color:#555365"/>
	</linearGradient>
	<path class="st20" d="M148.8,51.6c3.2-21.7,23.5-36.8,45.2-33.5s36.8,23.5,33.5,45.2C224.3,85,204,100,182.3,96.8
		S145.6,73.4,148.8,51.6z"/>
	
		<linearGradient id="SVGID_20_" gradientUnits="userSpaceOnUse" x1="58.0688" y1="-854.7667" x2="139.1572" y2="-854.7667" gradientTransform="matrix(0.977 -7.654888e-02 -7.654888e-02 -0.977 26.2237 -769.8584)">
		<stop  offset="0" style="stop-color:#5F5B6A"/>
		<stop  offset="0.35" style="stop-color:#5C5769"/>
		<stop  offset="1" style="stop-color:#535669"/>
	</linearGradient>
	<path class="st21" d="M148.7,51.9c3.2-21.7,23.4-36.7,45.1-33.5s36.7,23.4,33.5,45.1s-23.4,36.7-45.1,33.5l0,0
		C160.5,93.8,145.5,73.6,148.7,51.9z"/>
	
		<linearGradient id="SVGID_21_" gradientUnits="userSpaceOnUse" x1="85.6182" y1="-871.7402" x2="166.0582" y2="-871.7402" gradientTransform="matrix(0.99 -5.000000e-02 -5.000000e-02 -0.99 20.1476 -798.8043)">
		<stop  offset="0" style="stop-color:#595D6D"/>
		<stop  offset="0.35" style="stop-color:#565A6D"/>
		<stop  offset="1" style="stop-color:#515A6D"/>
	</linearGradient>
	<path class="st22" d="M148.6,52.1c3.2-21.7,23.4-36.6,45.1-33.4s36.6,23.4,33.4,45.1s-23.4,36.6-45.1,33.4l0,0
		C160.4,94,145.4,73.8,148.6,52.1z"/>
	
		<linearGradient id="SVGID_22_" gradientUnits="userSpaceOnUse" x1="119.1966" y1="-909.6394" x2="198.9666" y2="-909.6394" gradientTransform="matrix(0.9897 -2.539699e-02 -2.539699e-02 -0.9897 6.9936 -837.9745)">
		<stop  offset="0" style="stop-color:#525F71"/>
		<stop  offset="0.35" style="stop-color:#515D71"/>
		<stop  offset="1" style="stop-color:#4E5D71"/>
	</linearGradient>
	<path class="st23" d="M148.6,52.4c3.2-21.6,23.4-36.6,45-33.3s36.6,23.4,33.3,45c-3.2,21.6-23.4,36.6-45,33.3
		C160.3,94.2,145.4,74,148.6,52.4L148.6,52.4z"/>
	<path class="st24" d="M148.5,52.7c3.2-21.6,23.3-36.5,44.9-33.3s36.5,23.3,33.3,44.9s-23.3,36.5-44.9,33.3l0,0
		C160.2,94.4,145.3,74.3,148.5,52.7L148.5,52.7z"/>
	<path class="st25" d="M148.5,52.7c3.2-21.6,23.3-36.5,44.9-33.3s36.5,23.3,33.3,44.9s-23.3,36.5-44.9,33.3l0,0
		C160.2,94.4,145.3,74.3,148.5,52.7L148.5,52.7z"/>
	<path class="st25" d="M150,52.9c3.1-20.8,22.4-35.1,43.2-32s35.1,22.4,32,43.2c-3.1,20.7-22.4,35-43.2,32
		C161.2,93,146.9,73.7,150,52.9L150,52.9z"/>
	<path class="st26" d="M181.5,39l-0.5,1c-1.5-1.6-3.1-3-4.9-4.2c-0.7,0.8-1.4,1.6-2.2,2.2h4.5v1h-4.5v-0.9c-1.1,0.9-2.2,1.7-3.3,2.4
		l-0.5-1c2.3-1.3,4.3-3.1,5.9-5.2l1.1,0.3c0,0.1-0.1,0.2-0.2,0.3C178.4,36.2,180.1,37.5,181.5,39z M180.2,53.8h-1v-1.1h-5.6v1.1h-1
		V49c-0.2,1.7-0.8,3.4-1.8,4.8l-0.7-0.7c1.3-2.3,1.9-5,1.8-7.7v-5.1h8.4v6.1h-7.4c0,0.4-0.1,0.9-0.2,1.7h7.5V53.8z M179.2,42.8v-1.4
		h-6.3v1.5L179.2,42.8z M179.2,45.4v-1.5h-6.3v1.5H179.2z M179.2,51.6v-2.5h-5.6v2.5H179.2z M186.8,51.9c0,0.4-0.1,0.9-0.3,1.2
		c-0.3,0.4-0.7,0.6-1.1,0.6c-0.6,0-1.1,0-1.7,0h-0.8l-0.4-1.2c0.9,0,1.8,0,2.8,0c0.2,0,0.3-0.1,0.4-0.3c0.1-0.2,0.2-0.3,0.2-0.5
		V34.6h1L186.8,51.9C186.9,51.9,186.8,51.9,186.8,51.9z M183.4,49.7h-1V35.6h1V49.7z"/>
	<path class="st26" d="M191.1,47.6c-0.5,1.6-1.3,3.1-2.3,4.5l-0.9-0.7c0.9-1.3,1.7-2.8,2.2-4.3L191.1,47.6z M197.1,45.8h-4v8.1h-1
		v-8.1h-4v-1.1h4v-2.2h-3.8v-1.1h2.4c-0.2-1.1-0.6-2.2-1-3.3l0.7-0.5h-2v-1.1h3.7c-0.2-0.6-0.5-1.1-0.8-1.6l1-0.5
		c0.4,0.6,0.7,1.3,1,2h3.5v1.1h-1.6l0.7,0.5c-0.3,1.1-0.8,2.2-1.2,3.3h2.3v1.1h-3.8v2.2h4L197.1,45.8z M194.8,37.7h-4.1
		c0.5,1.2,0.8,2.5,1.1,3.8h1.7C194,40.2,194.5,39,194.8,37.7z M196.5,50l-0.9,0.6c-0.4-1.1-0.8-2.1-1.4-3.1L195,47
		C195.6,47.9,196.1,49,196.5,50z M205.2,42.8h-2.1v11.1h-1V42.8h-3c0,4.9-0.8,8.6-2.5,11.2l-0.8-0.7c0.8-1.4,1.4-2.9,1.8-4.4
		c0.4-1.9,0.6-3.9,0.6-5.9v-6.6c2.1-0.3,4.2-0.9,6.1-1.9l0.8,0.9c-1.9,0.9-3.8,1.6-5.9,1.9v4.3h6.1L205.2,42.8z"/>
	<path class="st26" d="M173,73.2c-0.5,2-1.3,3.9-2.4,5.6l-1-0.6c1-1.7,1.8-3.5,2.3-5.3L173,73.2z M185.3,71.2h-13.6v-9.6h13.6V71.2z
		 M178,65.8v-3.1h-5.2v3.1H178z M178,70.1v-3.2h-5.2v3.2H178z M183.4,76.4c0,1-0.2,1.9-0.6,2.8c-0.2,0.4-0.5,0.7-0.9,0.8
		c-1,0.1-1.9,0.2-2.9,0.1c-1,0-1.9,0-2.9-0.1c-0.3-0.1-0.6-0.2-0.8-0.5s-0.4-0.7-0.3-1.2v-5.8h1v5.7c0,0.3,0.1,0.6,0.4,0.7
		c0.9,0.1,1.8,0.2,2.7,0.2s1.7,0,2.6-0.1c0.2-0.1,0.4-0.5,0.5-1.2c0.1-0.6,0.2-1.2,0.2-1.8L183.4,76.4z M180.6,75.3l-0.9,0.6
		c-0.6-1.2-1.3-2.4-2.1-3.4l0.9-0.6C179.3,73,180,74.1,180.6,75.3z M184.2,65.8v-3.1H179v3.1H184.2z M184.2,70.2v-3.3H179v3.2
		L184.2,70.2z M187.2,77.9l-0.8,0.7c-0.9-1.9-2-3.6-3.3-5.3l1-0.5C185.3,74.4,186.4,76.1,187.2,77.9L187.2,77.9z"/>
	<path class="st26" d="M190.3,75.2c-0.1,1.8-0.5,3.6-1.2,5.2l-0.9-0.5c0.6-1.6,1-3.2,1.1-4.9L190.3,75.2z M195.3,73.7l-1,0.4
		c-0.1-0.3-0.2-0.8-0.3-1.3c-1.8,0.6-3.6,1.1-5.4,1.5l-0.3-1c1.5-1.6,2.7-3.4,3.8-5.3c-1.2,0.3-2.3,0.6-3.6,0.7l-0.3-1
		c1.4-2.2,2.6-4.5,3.6-6.8l1,0.5c-1,2.1-2,4.1-3.3,6c1.1-0.2,2.2-0.4,3.3-0.8c0.4-0.7,0.9-1.6,1.4-2.6l0.9,0.6
		c-1.5,3-3.2,5.7-5.3,8.3c1.3-0.3,2.6-0.7,3.8-1.1l-0.5-1.3l0.9-0.4C194.7,71.2,195.1,72.4,195.3,73.7z M192.8,79.6l-1,0.2
		c0-1.5-0.2-3-0.5-4.5l1-0.2C192.7,76.6,192.9,78.1,192.8,79.6z M195.5,78.6l-0.9,0.3c-0.2-1.3-0.5-2.6-1-3.8l0.9-0.3
		C195,76,195.4,77.3,195.5,78.6L195.5,78.6z M205.5,79h-7.9v1.3h-1V67.8c-0.1,0.2-0.5,0.8-1.1,1.8l-0.9-0.6c1.6-2.5,2.8-5.2,3.6-8
		l0.9,0.3c-0.4,1.3-0.8,2.6-1.3,3.8h3.5c-0.3-1.2-0.7-2.4-1.2-3.5l0.9-0.4c0.5,1.2,1,2.5,1.3,3.9h2.9v1.1h-3.4v2.9h3v1.1h-3v3.2h3
		v1.1h-3v3.4h3.6L205.5,79z M200.8,69.1v-2.9h-3.2v2.9H200.8z M200.8,73.4v-3.2h-3.2v3.2H200.8z M200.8,77.9v-3.5h-3.2v3.5H200.8z"
		/>
	<path class="st27" d="M176.5,152.4c0,2-1.6,3.7-3.7,3.7s-3.7-1.6-3.7-3.7s1.6-3.7,3.7-3.7l0,0C174.9,148.8,176.5,150.4,176.5,152.4
		z"/>
</g>
<g>
	<path class="st28" d="M62.8,99.3h-2.7v1.1h-1.1v-1.1h-5.4v-0.9h5.4v-1.2h1.1v1.2h2.7V99.3z M73.1,116.4H53.6v-0.9h19.5V116.4z
		 M72.9,109H54v-0.9h18.9V109z M72.6,101.9H54V101h18.6V101.9z M70.6,107H56v-4.2h14.6L70.6,107z M70.6,114.4H56V110h14.6
		L70.6,114.4z M62.7,104.6v-0.9h-5.6v0.9H62.7z M62.7,106.3v-0.9h-5.6v0.9H62.7z M62.7,111.8v-0.9h-5.6v0.9L62.7,111.8z M62.7,113.5
		v-1h-5.6v1H62.7z M73,99.3h-5.2v1.1h-1.2v-1.1h-2.9v-0.9h2.9v-1.2h1.2v1.2H73V99.3z M69.5,104.6v-0.9h-5.6v0.9H69.5z M69.5,106.3
		v-0.9h-5.6v0.9H69.5z M69.5,111.8v-0.9h-5.6v0.9L69.5,111.8z M69.5,113.6v-1h-5.6v1H69.5z"/>
	<path class="st28" d="M95.7,115.5l-0.4,1.1h-7.4c-1.6,0.1-3.2-0.2-4.7-0.8c-1.3-0.6-2.4-1.4-3.3-2.5c-0.9,1.3-2,2.5-3.2,3.5
		l-0.9-0.9c2.3-1.7,4-4.1,4.8-6.8l1.2,0.3c-0.3,1-0.7,2-1.2,2.9c1.2,1.6,2.9,2.7,4.9,3v-7.1H76V107h19.6v1.1h-8.9v2.9h7.7v1.1h-7.7
		v3.2c0.7,0,1.4,0.1,2.2,0.1L95.7,115.5z M92.7,105.3H78.9v-7.5h13.8L92.7,105.3z M91.5,100.9v-2H80.1v2H91.5z M91.5,104.1v-2.1
		H80.1v2.1L91.5,104.1z"/>
	<path class="st28" d="M118,105.6h-6.8c-1.9,1.4-3.8,2.6-5.9,3.7v0.7h8.8v1.1h-8.8v3.5c0,0.2,0.1,0.5,0.3,0.6
		c0.2,0.2,0.4,0.2,0.7,0.2h8c0.4,0,0.7-0.2,0.9-0.4c0.4-0.3,0.6-1.3,0.7-3l1.1,0.7c-0.1,1.1-0.4,2.2-1,3.2c-0.6,0.6-1.4,0.8-2.2,0.7
		h-8c-0.5,0-1-0.2-1.4-0.6c-0.3-0.4-0.5-0.9-0.5-1.5v-4.8c-1.6,0.8-3.3,1.5-5.1,2.2l-0.6-1.2c3.8-1.3,7.5-3.1,10.9-5.3H98.5v-1.2
		h7.9v-3.2H100V100h6.3v-2.7h1.2v2.7h5.5v1.2h-5.4v3.3h3.3c2-1.7,3.8-3.7,5.4-5.9l1,0.7c-1.4,1.8-3,3.5-4.6,5.2h5.4V105.6z"/>
	<path class="st28" d="M128.7,116.5h-1.1v-1.9h-4.8v2.4h-1.1V101h2.1c0.7-1.2,1.2-2.5,1.6-3.9l1.1,0.2c-0.3,0.8-0.8,2-1.5,3.6h3.8
		L128.7,116.5z M127.6,106.9v-4.8h-4.8v4.8H127.6z M127.6,113.4v-5.3h-4.8v5.3H127.6z M140,101c-0.1,3.4-0.3,6.5-0.5,9.4
		c0,1.7-0.3,3.4-0.7,5.1c-0.2,0.4-0.5,0.8-0.9,1.1c-0.7,0.3-1.4,0.4-2.2,0.3h-1.8l-0.4-1.1c0.6,0,1.3,0,2,0s1.1,0,1.3,0
		c0.2,0,0.4-0.1,0.6-0.3c0.2-0.2,0.3-0.4,0.4-0.6c0.2-0.9,0.3-1.7,0.3-2.6c0.2-1.5,0.3-3.1,0.4-4.9c0.1-1.8,0.2-3.5,0.2-5.2h-5.9
		c-0.8,1.6-1.7,3-2.7,4.4l-0.9-0.7c2-2.6,3.4-5.5,4.2-8.6l1.1,0.3c-0.3,1.2-0.8,2.3-1.2,3.4L140,101z M135.9,111.1l-1,0.7
		c-0.9-1.9-1.9-3.6-3.3-5.2l1-0.6C133.9,107.5,135,109.2,135.9,111.1L135.9,111.1z"/>
	<path class="st28" d="M152,106.9h-3.7v2.9h3.2v1.1h-3.3c-0.2,2.3-1.3,4.5-3.1,6l-0.8-0.9c1.6-1.3,2.6-3.1,2.7-5.1h-3.2v-1.1h3.3
		v-2.9h-3.7v-1.1h2.3c-0.3-1.4-0.7-2.7-1.1-4l0.9-0.7h-1.8v-1h3.7c-0.2-0.9-0.5-1.8-0.9-2.6l1-0.4c0.4,1,0.8,2,1,3h3.1v1.1H150
		l0.8,0.6c-0.3,1.4-0.7,2.7-1.2,4h2.4V106.9z M149.8,101.1h-4.1c0.5,1.5,1,3.1,1.3,4.6h1.5C149,104.3,149.5,102.7,149.8,101.1
		L149.8,101.1z M163.1,114.2l-0.7,0.9c-2-1.5-3.6-3.6-4.6-5.9v7.6h-1.1v-7.4c-1.2,2.4-3.1,4.5-5.5,5.8l-0.6-0.9
		c2.2-1.3,3.9-3.1,5.1-5.4h-2.9v-5.9h4v-2.3h-4.1v-1.1h4.1v-2.4h1.1v2.4h5v1.1h-5v2.3h4v6h-3C159.8,111.1,161.3,112.9,163.1,114.2
		L163.1,114.2z M156.8,107.9v-3.8h-2.9v3.8H156.8z M160.8,107.9v-3.8h-2.9v3.8H160.8z"/>
	<path class="st28" d="M175.3,109.2c-0.5-0.2-0.8-0.6-0.8-1.1c0-0.2,0.1-0.5,0.3-0.7c0.2-0.2,0.5-0.3,0.8-0.3c0.7,0,1.1,0.5,1.1,1.4
		c-0.1,0.9-0.6,1.7-1.3,2.2l-0.5-0.4C175.1,110,175.3,109.6,175.3,109.2z"/>
	<path class="st28" d="M197.2,100.7h-8.8v-1.1h4c-0.3-0.7-0.6-1.4-1-2l1.1-0.5c0.5,0.8,0.8,1.6,1.1,2.5h3.5L197.2,100.7z
		 M196.4,104.1h-7.2v-1.1h7.2V104.1z M196.4,107.2h-7.2v-1.1h7.2V107.2z M196.2,116.6h-1.2v-1.3h-4.4v1.7h-1.2v-7.5h6.8V116.6z
		 M195.1,114.1v-3.5h-4.4v3.5H195.1z M207.9,111.9c0,1.1-0.1,2.3-0.4,3.4c-0.2,0.5-0.5,0.8-1,1c-1.1,0.2-2.3,0.3-3.4,0.3
		c-1.2,0.1-2.4,0-3.6-0.2c-0.3-0.1-0.6-0.3-0.8-0.6c-0.2-0.3-0.3-0.6-0.3-0.9V105h7.4v-5.6H198v-1.2h9v8h-7.4v8.6
		c0,0.2,0.1,0.5,0.3,0.6c0.9,0.2,1.8,0.2,2.7,0.2c1.1,0,2.1,0,3.2-0.1c0.4-0.1,0.7-0.4,0.8-1.1c0.1-1,0.1-1.9,0.1-2.9L207.9,111.9z"
		/>
	<path class="st28" d="M221.5,98.7h-1.9V117h-1.2v-4.6c-2.4,0.8-4.8,1.5-7.2,2l-0.4-1.1l2-0.4V98.7h-2v-1.1h10.7V98.7z M218.5,102.2
		v-3.5H214v3.5H218.5z M218.5,107v-3.6H214v3.6H218.5z M218.5,111.2v-3.1H214v4.4C215.2,112.2,216.7,111.8,218.5,111.2L218.5,111.2z
		 M230.5,116l-0.8,0.9c-1.5-1.2-2.8-2.6-3.9-4.1c-1.3,1.5-2.7,2.9-4.3,4.1l-0.8-0.8c1.7-1.2,3.1-2.6,4.4-4.3
		c-2-3.4-3.1-7.3-3.3-11.2H221v-1.2h8.6c0.1,4.3-1,8.6-3.2,12.3c0.5,0.8,1.1,1.5,1.8,2.2C228.9,114.7,229.6,115.4,230.5,116
		L230.5,116z M228.4,100.7h-5.5c0.1,3.5,1.1,7,2.8,10.1C227.4,107.6,228.3,104.2,228.4,100.7L228.4,100.7z"/>
	<path class="st28" d="M242.6,115.4c0,0.4-0.1,0.7-0.4,1c-0.3,0.3-0.7,0.4-1.1,0.4c-0.5,0-0.9,0-1.4,0c-0.4,0-0.8,0-1.2,0l-0.4-1.2
		c0.6,0,1.5,0.1,2.8,0.1c0.1,0,0.3-0.1,0.3-0.2c0.1-0.1,0.1-0.2,0.1-0.4v-3.3h-5.1c-0.3,1.9-1.1,3.6-2.2,5.1l-0.9-0.8
		c1.4-1.9,2.1-4.6,2.1-8.1v-5h7.2L242.6,115.4z M252.8,101.2h-19.5v-1.1h19.5V101.2z M241.4,110.9v-2.8h-4.9c0,0.6,0,1.5-0.1,2.8
		H241.4z M241.4,106.9v-2.6h-4.9v2.6H241.4z M241.4,99.3l-1.1,0.5c-0.7-0.8-1.4-1.5-2.3-2.1l1.2-0.5
		C240.1,97.8,240.8,98.5,241.4,99.3L241.4,99.3z M248.3,97.8c-0.6,0.8-1.4,1.4-2.2,2l-1.2-0.6c0.9-0.5,1.7-1.2,2.4-1.9L248.3,97.8z
		 M246.6,113.2h-1.1v-9.6h1.1V113.2z M251.1,115.3c0,0.4-0.1,0.7-0.3,1c-0.2,0.3-0.4,0.4-0.7,0.5c-0.6,0.1-1.2,0.1-1.7,0.1
		c-0.5,0-1,0-1.6,0l-0.4-1.2l3.1,0.1c0.4,0,0.6-0.2,0.6-0.7V103h1.1V115.3z"/>
	<path class="st28" d="M275.3,105h-7.5c-1.2,1-2.5,1.9-3.9,2.6h8.7v9.2h-1.2v-1.2h-10.1v1.2h-1.2v-7.5c-1.3,0.5-2.6,1-3.9,1.4
		l-0.7-1.1c3.6-1,7.1-2.6,10.2-4.8h-10.1v-1.2h8.4v-3.2H258v-1.1h6.3v-2.4h1.2v2.4h4.5v1.1h-4.5v3.2h2c2-1.7,3.9-3.6,5.5-5.7
		l0.9,0.7c-1.4,1.8-3,3.5-4.7,5h6.1L275.3,105z M271.6,111.1v-2.4h-9.7l-0.3,0.1v2.3H271.6z M271.6,114.6v-2.3h-10.1v2.3H271.6z"/>
	<path class="st28" d="M286,112c-1,1.3-2,2.4-2.9,3.4l-0.6-1.2c0.3-0.2,0.4-0.5,0.4-0.9v-6.6h-1.6c0,4.5-0.7,7.9-2.1,10.1l-0.8-0.8
		c1.2-2.2,1.8-5.3,1.8-9.3h-1.9v-1.1h3.3v-8.2h1.2v8.2h3.1v1.1H284v5.9c0.4-0.4,0.9-1.1,1.6-2L286,112z M280.7,103.5l-1.1,0.6
		c-0.3-1.7-0.7-3.4-1.2-5l1-0.4C280,100.2,280.4,101.8,280.7,103.5z M285.7,99.1c-0.2,1.6-0.5,3.3-1,4.8l-1.1-0.5
		c0.5-1.6,0.8-3.2,1-4.8L285.7,99.1z M297.9,114.2h-5.3v2.8h-1.1v-2.8H286v-1.1h5.4v-1.8H287v-7.2h4.4v-1.7h-2.9v-1h2.9v-1.5h1.1
		v1.5h2.9v1h-2.9v1.7h4.5v7.2h-4.4v1.8h5.3L297.9,114.2z M297.6,102h-1.2v-3h-8.7v3h-1.1v-4.1h11L297.6,102z M291.4,107.1v-1.9h-3.3
		v1.9H291.4z M291.4,110.2v-2.1h-3.3v2.1L291.4,110.2z M295.9,107.1v-1.9h-3.3v1.9H295.9z M295.9,110.2v-2.1h-3.3v2.1L295.9,110.2z"
		/>
	<path class="st28" d="M303.4,106.9l-1.1,0.7c-0.3-1.9-0.8-3.7-1.6-5.5l1-0.7C302.4,103.1,303,105,303.4,106.9z M308,101.3
		c-0.8,1.6-1.7,3.1-2.9,4.5c0,1.5-0.1,2.7-0.2,3.4c1,1.1,1.9,2.4,2.6,3.7l-0.8,0.8c-0.5-1.1-1.1-2.1-1.9-3.1c-0.4,2.3-1.5,4.4-3,6.2
		l-1-0.7c0.9-1,1.6-2.1,2.2-3.3c0.5-1.1,0.8-2.2,0.9-3.4c0.1-1.2,0.2-3,0.2-5.5v-6.8h1.1v6.9c0.8-1.1,1.4-2.4,1.9-3.7L308,101.3z
		 M320.3,116.4h-12.9v-1.1h6v-2.7h-4.9v-1.1h4.9v-2.4H308v-1.1h11.9v1.1h-5.3v2.4h4.8v1.1h-4.8v2.7h5.8L320.3,116.4z M319.2,106.3
		h-10.4v-7h3.4c0.4-0.7,0.7-1.5,0.9-2.3l1.1,0.3c-0.2,0.7-0.5,1.4-0.9,2h6L319.2,106.3z M318,102.2v-1.8h-8.1v1.8H318z M318,105.2
		v-1.9h-8.1v1.9H318z"/>
	<path class="st28" d="M325.7,111.6c-0.3,1.8-0.8,3.5-1.5,5.1l-1-0.5c0.6-1.6,1.1-3.2,1.4-4.9L325.7,111.6z M331,109.9l-1,0.4
		c-0.1-0.4-0.2-0.8-0.2-1c-2.2,0.6-4.2,1.1-6,1.4l-0.4-1c1.7-1.6,3.2-3.4,4.5-5.4c-1.2,0.2-2.6,0.4-4,0.7l-0.3-1
		c1.7-2,3-4.3,3.9-6.7l1.1,0.3c-0.8,2.2-2,4.3-3.4,6.2c0.9-0.1,2-0.3,3.3-0.5c0.5-0.8,1-1.7,1.5-2.6l1.1,0.4c-1.5,3-3.4,5.7-5.7,8.2
		c1.3-0.3,2.6-0.6,4-1c-0.2-0.5-0.4-1.1-0.6-1.6l1-0.4C330.3,107.5,330.7,108.7,331,109.9L331,109.9z M328.4,116.1l-1.1,0.2
		c0-1.6-0.1-3.2-0.4-4.7l1-0.2C328.3,112.9,328.5,114.5,328.4,116.1z M331.4,114.2l-1,0.4c-0.2-1.1-0.6-2.2-1-3.2l0.9-0.4
		C330.9,112.1,331.2,113.1,331.4,114.2L331.4,114.2z M334.7,108.2l-1,0.5c-0.8-1.5-1.7-3-2.8-4.4c0.9-1.3,1.8-2.7,2.5-4.1l1,0.4
		c-0.6,1.3-1.4,2.6-2.2,3.7C333.2,105.6,334,106.9,334.7,108.2L334.7,108.2z M342.7,116.4h-11.6v-1.1h5.2v-4.6h-4.6v-1.1h10.4v1.1
		h-4.7v4.6h5.2V116.4z M342.4,99h-11.3v-1.1h11.3V99z M338.6,108.1l-1,0.6c-0.8-1.5-1.7-2.9-2.7-4.2c0.9-1.3,1.7-2.6,2.4-4l1.1,0.4
		c-0.7,1.3-1.4,2.5-2.2,3.6C337.1,105.6,338,106.8,338.6,108.1L338.6,108.1z M342.6,108.1l-1,0.5c-0.8-1.5-1.7-2.9-2.8-4.2
		c0.9-1.3,1.7-2.7,2.4-4.2l1.1,0.4c-0.6,1.3-1.4,2.5-2.1,3.7C341.1,105.6,342,106.8,342.6,108.1L342.6,108.1z"/>
	<path class="st28" d="M347.3,110c-0.1,1.8-0.3,3.7-0.6,5.4l-1-0.2c0.4-1.7,0.6-3.5,0.7-5.3L347.3,110z M353.8,99h-2.5v2.2h2.1v1.1
		h-2.1v2.1h2.1v1.1h-2.1v2.2h2.1c0,1.3,0,2.3,0,3c0,1.6,0,2.9-0.1,3.8c0,0.6-0.2,1.3-0.5,1.9c-0.2,0.3-0.5,0.5-0.8,0.6
		c-0.6,0.1-1.2,0.1-1.9,0.1l-0.3-1.2h1.4c0.4,0,0.8-0.2,1-0.6c0.3-1.4,0.4-2.9,0.3-4.4c0-0.8,0-1.5-0.1-2.2h-5.5V97.9h7L353.8,99z
		 M348.8,115.2l-0.9,0.1c0-0.7,0-1.4,0-2c0-1.2,0-2.2-0.1-3.1l0.9-0.1c0.1,2.1,0.2,3.4,0.2,4S348.9,114.8,348.8,115.2L348.8,115.2z
		 M350.1,101.1v-2.2h-2.2v2.1L350.1,101.1z M350.1,104.3v-2.1h-2.2v2.1L350.1,104.3z M350.1,107.6v-2.2h-2.2v2.2H350.1z
		 M350.6,114.3l-0.9,0.1c0-1.5-0.2-2.9-0.5-4.4l0.8-0.2C350.3,111.3,350.5,112.8,350.6,114.3L350.6,114.3z M352,113.1l-0.8,0.2
		c-0.1-1.2-0.4-2.4-0.7-3.5l0.7-0.2C351.6,110.7,351.8,111.9,352,113.1L352,113.1z M365.3,102.7l-0.6,1c-2.2-1.2-4-2.8-5.5-4.9
		c-1.4,1.8-3.1,3.4-5.1,4.7l-0.7-0.9c2.2-1.4,4.1-3.2,5.5-5.4l1.1,0.4c-0.1,0.1-0.1,0.3-0.2,0.4C361.3,99.9,363.2,101.5,365.3,102.7
		L365.3,102.7z M359.1,114.9l-0.8,0.8c-0.5-0.7-1-1.3-1.7-1.9c-0.6,1.1-1.3,2.2-2.1,3.2l-0.9-0.6c1.4-1.6,2.4-3.5,3-5.5l1.1,0.4
		c-0.2,0.7-0.4,1.2-0.6,1.5C357.8,113.4,358.5,114.1,359.1,114.9z M358.8,110.3h-4.3v-5.3h4.3L358.8,110.3z M357.7,109.2V106h-2.2
		v3.2H357.7z M362.3,103.4h-6v-1.1h6V103.4z M365.3,116.2l-0.8,0.8c-0.8-1.1-1.7-2-2.7-2.8c-0.6,1.1-1.3,2.1-2,3l-0.9-0.7
		c1.4-1.6,2.5-3.6,3.1-5.7l1.1,0.4c-0.2,0.7-0.5,1.3-0.8,1.9C363.4,114,364.4,115,365.3,116.2L365.3,116.2z M364.3,110.3H360v-5.3
		h4.3L364.3,110.3z M363.3,109.2V106H361v3.2H363.3z"/>
</g>
</svg>
