<?xml version="1.0" encoding="utf-8"?>
<!-- Generator: Adobe Illustrator 24.1.1, SVG Export Plug-In . SVG Version: 6.00 Build 0)  -->
<svg version="1.1" xmlns="http://www.w3.org/2000/svg" xmlns:xlink="http://www.w3.org/1999/xlink" x="0px" y="0px"
	 viewBox="0 0 120 160" style="enable-background:new 0 0 120 160;" xml:space="preserve">
<style type="text/css">
	.st0{display:none;}
	.st1{display:inline;}
	.st2{fill-rule:evenodd;clip-rule:evenodd;fill:#5F7696;}
	.st3{fill-rule:evenodd;clip-rule:evenodd;fill:url(#SVGID_1_);}
	.st4{fill:url(#SVGID_2_);}
	.st5{fill:url(#SVGID_3_);}
	.st6{fill:url(#SVGID_4_);}
	.st7{fill:url(#SVGID_5_);}
	.st8{fill:url(#SVGID_6_);}
	.st9{fill:url(#SVGID_7_);}
	.st10{fill:url(#SVGID_8_);}
	.st11{fill:url(#SVGID_9_);}
	.st12{fill:url(#SVGID_10_);}
	.st13{fill:url(#SVGID_11_);}
	.st14{fill:url(#SVGID_12_);}
	.st15{fill:url(#SVGID_13_);}
	.st16{fill:url(#SVGID_14_);}
	.st17{fill:url(#SVGID_15_);}
	.st18{fill:url(#SVGID_16_);}
	.st19{fill:url(#SVGID_17_);}
	.st20{fill:url(#SVGID_18_);}
	.st21{fill:url(#SVGID_19_);}
	.st22{fill:url(#SVGID_20_);}
	.st23{fill:url(#SVGID_21_);}
	.st24{fill:url(#SVGID_22_);}
	.st25{fill:#4C6075;}
	.st26{fill:#FFFFFF;}
	.st27{fill:#211513;}
	.st28{fill-rule:evenodd;clip-rule:evenodd;fill:#AD181C;}
	.st29{display:inline;fill:#CF121B;}
	.st30{fill-rule:evenodd;clip-rule:evenodd;fill:url(#SVGID_23_);}
	.st31{fill:url(#SVGID_24_);}
	.st32{fill:url(#SVGID_25_);}
	.st33{fill:url(#SVGID_26_);}
	.st34{fill:url(#SVGID_27_);}
	.st35{fill:url(#SVGID_28_);}
	.st36{fill:url(#SVGID_29_);}
	.st37{fill:url(#SVGID_30_);}
	.st38{fill:url(#SVGID_31_);}
	.st39{fill:url(#SVGID_32_);}
	.st40{fill:url(#SVGID_33_);}
	.st41{fill:url(#SVGID_34_);}
	.st42{fill:url(#SVGID_35_);}
	.st43{fill:url(#SVGID_36_);}
	.st44{fill:url(#SVGID_37_);}
	.st45{fill:url(#SVGID_38_);}
	.st46{fill:url(#SVGID_39_);}
	.st47{fill:url(#SVGID_40_);}
	.st48{fill:url(#SVGID_41_);}
	.st49{fill:url(#SVGID_42_);}
	.st50{fill:url(#SVGID_43_);}
	.st51{fill:url(#SVGID_44_);}
</style>
<g id="圖層_1" class="st0">
	<g id="圖層_1_1_" class="st1">
		<path class="st2" d="M84.3,19.8C63.3,4.3,33.6,8.9,18.2,29.9C5.9,46.7,6,69.5,18.4,86.2c6.5,8.9,15.8,15.3,26.5,18.1
			c4.5,1.1,8.3,1.3,12.7,3.1c13.1,5.4,13,19.9-12.7,40.2c44-17.9,68.8-65.6,57.8-101.6C99.5,35.6,93.1,26.4,84.3,19.8z"/>
		
			<linearGradient id="SVGID_1_" gradientUnits="userSpaceOnUse" x1="-340.6493" y1="-277.881" x2="-233.8893" y2="-277.881" gradientTransform="matrix(0.84 -0.54 -0.54 -0.84 145.3976 -314.6871)">
			<stop  offset="0" style="stop-color:#D33924"/>
			<stop  offset="0.15" style="stop-color:#CB3023"/>
			<stop  offset="0.35" style="stop-color:#BB1C21"/>
			<stop  offset="0.57" style="stop-color:#AA1B20"/>
			<stop  offset="1" style="stop-color:#7F191E"/>
			<stop  offset="1" style="stop-color:#7F191E"/>
		</linearGradient>
		<path class="st3" d="M86.1,19.6C65,4.1,35.4,8.7,20,29.9S9.1,80.6,30.2,96c4.9,3.6,10.5,6.2,16.4,7.7c4.4,1.1,8.6,1.2,12.7,3.4
			c12.9,6.9,11.1,22.9-14.5,40.5c44-17.9,70.6-65.8,59.6-101.8C101.3,35.3,94.9,26.1,86.1,19.6z"/>
		
			<linearGradient id="SVGID_2_" gradientUnits="userSpaceOnUse" x1="-317.6393" y1="-263.9037" x2="-235.5392" y2="-263.9037" gradientTransform="matrix(0.84 -0.54 -0.54 -0.84 145.3976 -314.6871)">
			<stop  offset="0" style="stop-color:#D33924"/>
			<stop  offset="0.15" style="stop-color:#CB3023"/>
			<stop  offset="0.35" style="stop-color:#BB1C21"/>
			<stop  offset="0.57" style="stop-color:#AA1B20"/>
			<stop  offset="1" style="stop-color:#7F191E"/>
			<stop  offset="1" style="stop-color:#7F191E"/>
		</linearGradient>
		<path class="st4" d="M20.1,47c3.3-22.4,24.2-37.9,46.6-34.5s37.9,24.2,34.6,46.6S77.1,97,54.6,93.7C32.2,90.3,16.7,69.5,20.1,47
			L20.1,47z"/>
		
			<linearGradient id="SVGID_3_" gradientUnits="userSpaceOnUse" x1="-310.351" y1="-297.255" x2="-227.811" y2="-297.255" gradientTransform="matrix(0.8493 -0.5087 -0.5087 -0.8493 136.2026 -334.9933)">
			<stop  offset="0" style="stop-color:#CD3B28"/>
			<stop  offset="0.15" style="stop-color:#C53227"/>
			<stop  offset="0.35" style="stop-color:#B61F25"/>
			<stop  offset="0.57" style="stop-color:#A51E24"/>
			<stop  offset="1" style="stop-color:#7D1C22"/>
		</linearGradient>
		<path class="st5" d="M20,47.3c3.3-22.4,24.2-37.8,46.6-34.5s37.8,24.2,34.5,46.6S76.9,97.2,54.5,93.9l0,0
			C32.1,90.6,16.7,69.7,20,47.3L20,47.3z"/>
		
			<linearGradient id="SVGID_4_" gradientUnits="userSpaceOnUse" x1="-303.5621" y1="-329.2634" x2="-220.6221" y2="-329.2634" gradientTransform="matrix(0.86 -0.48 -0.48 -0.86 129.9946 -356.6759)">
			<stop  offset="0" style="stop-color:#C63D2C"/>
			<stop  offset="0.16" style="stop-color:#BE342B"/>
			<stop  offset="0.35" style="stop-color:#B02329"/>
			<stop  offset="0.59" style="stop-color:#9F2228"/>
			<stop  offset="1" style="stop-color:#7A2026"/>
		</linearGradient>
		<path class="st6" d="M19.9,47.6c3.4-22.4,24.2-37.8,46.5-34.5s37.8,24.1,34.4,46.5C97.5,81.9,76.7,97.3,54.3,94
			C32,90.7,16.6,69.9,19.9,47.6z"/>
		
			<linearGradient id="SVGID_5_" gradientUnits="userSpaceOnUse" x1="-311.1434" y1="-367.7859" x2="-227.8717" y2="-367.7859" gradientTransform="matrix(0.866 -0.4587 -0.4587 -0.866 124.6322 -388.1126)">
			<stop  offset="0" style="stop-color:#C03F30"/>
			<stop  offset="0.17" style="stop-color:#B8362F"/>
			<stop  offset="0.35" style="stop-color:#AB262D"/>
			<stop  offset="0.6" style="stop-color:#9A252C"/>
			<stop  offset="1" style="stop-color:#78232A"/>
		</linearGradient>
		<path class="st7" d="M19.9,47.9c3.3-22.3,24-37.7,46.3-34.4s37.7,24,34.4,46.3s-24,37.7-46.3,34.4c0,0,0,0-0.1,0
			C32,90.9,16.6,70.2,19.9,47.9z"/>
		
			<linearGradient id="SVGID_6_" gradientUnits="userSpaceOnUse" x1="-305.6687" y1="-408.8173" x2="-222.1088" y2="-408.8173" gradientTransform="matrix(0.87 -0.43 -0.43 -0.87 112.457 -414.3205)">
			<stop  offset="0" style="stop-color:#B94133"/>
			<stop  offset="0.17" style="stop-color:#B23832"/>
			<stop  offset="0.35" style="stop-color:#A62931"/>
			<stop  offset="0.61" style="stop-color:#952830"/>
			<stop  offset="1" style="stop-color:#75272F"/>
		</linearGradient>
		<path class="st8" d="M19.8,48.1c3.3-22.2,24-37.6,46.3-34.3s37.6,24,34.3,46.3s-24,37.6-46.3,34.3l0,0
			C31.8,91.1,16.5,70.4,19.8,48.1z"/>
		
			<linearGradient id="SVGID_7_" gradientUnits="userSpaceOnUse" x1="-304.2259" y1="-442.4609" x2="-220.446" y2="-442.4609" gradientTransform="matrix(0.8803 -0.4075 -0.4075 -0.8803 110.0659 -441.8115)">
			<stop  offset="0" style="stop-color:#B34237"/>
			<stop  offset="0.18" style="stop-color:#AB3936"/>
			<stop  offset="0.35" style="stop-color:#A02C35"/>
			<stop  offset="0.63" style="stop-color:#8F2B34"/>
			<stop  offset="1" style="stop-color:#732A33"/>
		</linearGradient>
		<path class="st9" d="M19.7,48.4c3.3-22.2,24-37.6,46.2-34.3s37.6,24,34.3,46.2S76.2,97.9,54,94.6l0,0
			C31.7,91.3,16.4,70.6,19.7,48.4L19.7,48.4z"/>
		
			<linearGradient id="SVGID_8_" gradientUnits="userSpaceOnUse" x1="-298.5602" y1="-475.2409" x2="-214.6003" y2="-475.2409" gradientTransform="matrix(0.891 -0.3835 -0.3835 -0.891 107.0731 -467.68)">
			<stop  offset="0" style="stop-color:#AC443B"/>
			<stop  offset="0.2" style="stop-color:#A43B3A"/>
			<stop  offset="0.35" style="stop-color:#9B3039"/>
			<stop  offset="0.64" style="stop-color:#8A2F38"/>
			<stop  offset="1" style="stop-color:#702D37"/>
		</linearGradient>
		<path class="st10" d="M19.6,48.7c3.3-22.2,24-37.6,46.1-34.3s37.5,24,34.2,46.1C96.6,82.7,76,98,53.8,94.7
			C31.6,91.5,16.3,70.9,19.6,48.7L19.6,48.7z"/>
		
			<linearGradient id="SVGID_9_" gradientUnits="userSpaceOnUse" x1="-288.1572" y1="-520.9301" x2="-204.0972" y2="-520.9301" gradientTransform="matrix(0.8918 -0.3553 -0.3553 -0.8918 92.3812 -496.4258)">
			<stop  offset="0" style="stop-color:#A6463F"/>
			<stop  offset="0.2" style="stop-color:#9E3D3E"/>
			<stop  offset="0.35" style="stop-color:#96333D"/>
			<stop  offset="0.66" style="stop-color:#85323C"/>
			<stop  offset="1" style="stop-color:#6E313B"/>
		</linearGradient>
		<path class="st11" d="M19.6,48.9c3.3-22.1,23.9-37.4,46.1-34.1s37.4,23.9,34.1,46.1C96.5,83,75.9,98.3,53.7,95l0,0
			C31.6,91.7,16.3,71,19.6,48.9z"/>
		
			<linearGradient id="SVGID_10_" gradientUnits="userSpaceOnUse" x1="-278.0131" y1="-554.8818" x2="-193.9131" y2="-554.8818" gradientTransform="matrix(0.9012 -0.3307 -0.3307 -0.9012 87.8099 -522.6378)">
			<stop  offset="0" style="stop-color:#9F4843"/>
			<stop  offset="0.21" style="stop-color:#983F42"/>
			<stop  offset="0.35" style="stop-color:#913641"/>
			<stop  offset="0.67" style="stop-color:#803540"/>
			<stop  offset="1" style="stop-color:#6B343F"/>
		</linearGradient>
		<path class="st12" d="M19.5,49.2c3.3-22.1,23.9-37.4,46-34.1s37.4,23.9,34.1,46s-23.9,37.3-46,34.1C31.5,91.9,16.2,71.3,19.5,49.2
			L19.5,49.2L19.5,49.2z"/>
		
			<linearGradient id="SVGID_11_" gradientUnits="userSpaceOnUse" x1="-265.6205" y1="-589.1293" x2="-181.5505" y2="-589.1293" gradientTransform="matrix(0.91 -0.3057 -0.3057 -0.91 82.4355 -548.9135)">
			<stop  offset="0" style="stop-color:#994A47"/>
			<stop  offset="0.22" style="stop-color:#914146"/>
			<stop  offset="0.35" style="stop-color:#8B3945"/>
			<stop  offset="0.7" style="stop-color:#7A3944"/>
			<stop  offset="1" style="stop-color:#693843"/>
		</linearGradient>
		<path class="st13" d="M19.4,49.5c3.3-22.1,23.8-37.3,45.9-34s37.3,23.8,34,45.9s-23.8,37.3-45.9,34l0,0
			C31.3,92.1,16.1,71.5,19.4,49.5z"/>
		
			<linearGradient id="SVGID_12_" gradientUnits="userSpaceOnUse" x1="-251.2089" y1="-623.4855" x2="-167.2129" y2="-623.4855" gradientTransform="matrix(0.9181 -0.2805 -0.2805 -0.9181 76.2826 -575.4733)">
			<stop  offset="0" style="stop-color:#934C4B"/>
			<stop  offset="0.24" style="stop-color:#8B434A"/>
			<stop  offset="0.35" style="stop-color:#863D49"/>
			<stop  offset="0.73" style="stop-color:#753C48"/>
			<stop  offset="1" style="stop-color:#673B47"/>
		</linearGradient>
		<path class="st14" d="M19.3,49.7c3.3-22,23.8-37.2,45.8-34s37.2,23.8,34,45.8c-3.3,22-23.8,37.2-45.8,34S16.1,71.8,19.3,49.7
			C19.3,49.8,19.3,49.7,19.3,49.7z"/>
		
			<linearGradient id="SVGID_13_" gradientUnits="userSpaceOnUse" x1="-234.2002" y1="-658.0262" x2="-150.3643" y2="-658.0262" gradientTransform="matrix(0.9255 -0.2549 -0.2549 -0.9255 69.2512 -602.1229)">
			<stop  offset="0" style="stop-color:#8C4E4F"/>
			<stop  offset="0.26" style="stop-color:#85454E"/>
			<stop  offset="0.35" style="stop-color:#81404D"/>
			<stop  offset="0.75" style="stop-color:#703F4C"/>
			<stop  offset="1" style="stop-color:#643E4C"/>
		</linearGradient>
		<path class="st15" d="M19.2,50c3.3-22,23.7-37.2,45.7-33.9s37.2,23.7,33.9,45.7S75.1,99,53.1,95.7C31.2,92.5,16,72,19.2,50
			L19.2,50z"/>
		
			<linearGradient id="SVGID_14_" gradientUnits="userSpaceOnUse" x1="-215.2843" y1="-692.7123" x2="-131.6244" y2="-692.7123" gradientTransform="matrix(0.9322 -0.2293 -0.2293 -0.9322 61.5752 -629.2752)">
			<stop  offset="0" style="stop-color:#865052"/>
			<stop  offset="0.27" style="stop-color:#7E4751"/>
			<stop  offset="0.35" style="stop-color:#7B4351"/>
			<stop  offset="0.81" style="stop-color:#6A4250"/>
			<stop  offset="1" style="stop-color:#624250"/>
		</linearGradient>
		<path class="st16" d="M19.2,50.3c3.3-22,23.7-37.1,45.6-33.8s37.1,23.7,33.8,45.6c-3.3,22-23.7,37.1-45.6,33.8l0,0
			C31.1,92.6,15.9,72.2,19.2,50.3L19.2,50.3z"/>
		
			<linearGradient id="SVGID_15_" gradientUnits="userSpaceOnUse" x1="-193.8878" y1="-727.1991" x2="-110.5379" y2="-727.1991" gradientTransform="matrix(0.9382 -0.2035 -0.2035 -0.9382 53.1569 -656.7328)">
			<stop  offset="0" style="stop-color:#7F5156"/>
			<stop  offset="0.31" style="stop-color:#774855"/>
			<stop  offset="0.35" style="stop-color:#764655"/>
			<stop  offset="0.84" style="stop-color:#654554"/>
			<stop  offset="1" style="stop-color:#5F4554"/>
		</linearGradient>
		<path class="st17" d="M19.1,50.5c3.3-21.9,23.7-37,45.6-33.8s37,23.7,33.8,45.6c-3.3,21.9-23.7,37-45.6,33.8l0,0
			C31,92.8,15.8,72.4,19.1,50.5L19.1,50.5z"/>
		
			<linearGradient id="SVGID_16_" gradientUnits="userSpaceOnUse" x1="-170.297" y1="-761.7605" x2="-87.2871" y2="-761.7605" gradientTransform="matrix(0.9434 -0.1777 -0.1777 -0.9434 44.0328 -684.6948)">
			<stop  offset="0" style="stop-color:#79535A"/>
			<stop  offset="0.35" style="stop-color:#714A59"/>
			<stop  offset="0.9" style="stop-color:#604958"/>
			<stop  offset="1" style="stop-color:#5D4958"/>
		</linearGradient>
		<path class="st18" d="M19,50.8C22.3,29,42.7,13.9,64.5,17.1s36.9,23.6,33.7,45.5c-3.3,21.8-23.6,36.9-45.5,33.7
			C30.9,93,15.8,72.7,19,50.8L19,50.8z"/>
		
			<linearGradient id="SVGID_17_" gradientUnits="userSpaceOnUse" x1="-150.998" y1="-780.8208" x2="-68.398" y2="-780.8208" gradientTransform="matrix(0.9578 -0.1534 -0.1534 -0.9578 44.079 -707.7911)">
			<stop  offset="0" style="stop-color:#72555E"/>
			<stop  offset="0.35" style="stop-color:#6B4D5D"/>
			<stop  offset="0.99" style="stop-color:#5A4C5C"/>
			<stop  offset="1" style="stop-color:#5A4C5C"/>
		</linearGradient>
		<path class="st19" d="M19,51.1c3.2-21.9,23.6-37,45.4-33.7s37,23.6,33.7,45.4s-23.6,37-45.4,33.7c0,0,0,0-0.1,0
			C30.8,93.2,15.7,72.9,19,51.1C18.9,51.1,18.9,51.1,19,51.1z"/>
		
			<linearGradient id="SVGID_18_" gradientUnits="userSpaceOnUse" x1="-123.1066" y1="-814.4641" x2="-40.9666" y2="-814.4641" gradientTransform="matrix(0.9616 -0.1273 -0.1273 -0.9616 33.4815 -736.4252)">
			<stop  offset="0" style="stop-color:#6C5762"/>
			<stop  offset="0.35" style="stop-color:#665061"/>
			<stop  offset="1" style="stop-color:#584F60"/>
		</linearGradient>
		<path class="st20" d="M18.9,51.3c3.2-21.8,23.5-36.8,45.3-33.6S101,41.2,97.8,63c-3.3,21.9-23.6,36.9-45.3,33.7
			C30.7,93.4,15.6,73.1,18.9,51.3L18.9,51.3z"/>
		
			<linearGradient id="SVGID_19_" gradientUnits="userSpaceOnUse" x1="-100.8899" y1="-832.3028" x2="-19.2599" y2="-832.3028" gradientTransform="matrix(0.9746 -0.1024 -0.1024 -0.9746 31.9314 -759.9291)">
			<stop  offset="0" style="stop-color:#655966"/>
			<stop  offset="0.35" style="stop-color:#615365"/>
			<stop  offset="1" style="stop-color:#555365"/>
		</linearGradient>
		<path class="st21" d="M18.8,51.6C22,29.9,42.3,14.8,64,18.1s36.8,23.5,33.5,45.2C94.3,85,74,100,52.3,96.8S15.6,73.4,18.8,51.6z"
			/>
		
			<linearGradient id="SVGID_20_" gradientUnits="userSpaceOnUse" x1="-69.6827" y1="-865.1285" x2="11.4057" y2="-865.1285" gradientTransform="matrix(0.977 -7.654888e-02 -7.654888e-02 -0.977 20.2437 -789.7611)">
			<stop  offset="0" style="stop-color:#5F5B6A"/>
			<stop  offset="0.35" style="stop-color:#5C5769"/>
			<stop  offset="1" style="stop-color:#535669"/>
		</linearGradient>
		<path class="st22" d="M18.7,51.9c3.2-21.7,23.4-36.7,45.1-33.5s36.7,23.4,33.5,45.1S73.9,100.2,52.2,97l0,0
			C30.5,93.8,15.5,73.6,18.7,51.9z"/>
		
			<linearGradient id="SVGID_21_" gradientUnits="userSpaceOnUse" x1="-43.4028" y1="-878.3553" x2="37.0372" y2="-878.3553" gradientTransform="matrix(0.99 -5.000000e-02 -5.000000e-02 -0.99 17.5476 -811.8043)">
			<stop  offset="0" style="stop-color:#595D6D"/>
			<stop  offset="0.35" style="stop-color:#565A6D"/>
			<stop  offset="1" style="stop-color:#515A6D"/>
		</linearGradient>
		<path class="st23" d="M18.6,52.1C21.8,30.4,42,15.5,63.7,18.7s36.6,23.4,33.4,45.1S73.7,100.4,52,97.2l0,0
			C30.4,94,15.4,73.8,18.6,52.1z"/>
		
			<linearGradient id="SVGID_22_" gradientUnits="userSpaceOnUse" x1="-9.5369" y1="-913.0079" x2="70.2331" y2="-913.0079" gradientTransform="matrix(0.9897 -2.539699e-02 -2.539699e-02 -0.9897 4.3156 -844.5777)">
			<stop  offset="0" style="stop-color:#525F71"/>
			<stop  offset="0.35" style="stop-color:#515D71"/>
			<stop  offset="1" style="stop-color:#4E5D71"/>
		</linearGradient>
		<path class="st24" d="M18.6,52.4c3.2-21.6,23.4-36.6,45-33.3s36.6,23.4,33.3,45c-3.2,21.6-23.4,36.6-45,33.3
			C30.3,94.2,15.4,74,18.6,52.4L18.6,52.4z"/>
		<path class="st25" d="M18.5,52.7c3.2-21.6,23.3-36.5,44.9-33.3s36.5,23.3,33.3,44.9c-3.2,21.6-23.3,36.5-44.9,33.3l0,0
			C30.2,94.4,15.3,74.3,18.5,52.7L18.5,52.7z"/>
		<path class="st26" d="M18.5,52.7c3.2-21.6,23.3-36.5,44.9-33.3s36.5,23.3,33.3,44.9c-3.2,21.6-23.3,36.5-44.9,33.3l0,0
			C30.2,94.4,15.3,74.3,18.5,52.7L18.5,52.7z"/>
		<path class="st26" d="M20,52.9c3.1-20.8,22.4-35.1,43.2-32s35.1,22.4,32,43.2c-3.1,20.7-22.4,35-43.2,32
			C31.2,93,16.9,73.7,20,52.9L20,52.9z"/>
		<path class="st27" d="M51.5,39L51,40c-1.5-1.6-3.1-3-4.9-4.2c-0.7,0.8-1.4,1.6-2.2,2.2h4.5v1h-4.5v-0.9c-1.1,0.9-2.2,1.7-3.3,2.4
			l-0.5-1c2.3-1.3,4.3-3.1,5.9-5.2l1.1,0.3c0,0.1-0.1,0.2-0.2,0.3C48.4,36.2,50.1,37.5,51.5,39z M50.2,53.8h-1v-1.1h-5.6v1.1h-1V49
			c-0.2,1.7-0.8,3.4-1.8,4.8l-0.7-0.7c1.3-2.3,1.9-5,1.8-7.7v-5.1h8.4v6.1h-7.4c0,0.4-0.1,0.9-0.2,1.7h7.5V53.8z M49.2,42.8v-1.4
			h-6.3v1.5L49.2,42.8z M49.2,45.4v-1.5h-6.3v1.5H49.2z M49.2,51.6v-2.5h-5.6v2.5H49.2z M56.8,51.9c0,0.4-0.1,0.9-0.3,1.2
			c-0.3,0.4-0.7,0.6-1.1,0.6c-0.6,0-1.1,0-1.7,0h-0.8l-0.4-1.2c0.9,0,1.8,0,2.8,0c0.2,0,0.3-0.1,0.4-0.3c0.1-0.2,0.2-0.3,0.2-0.5
			V34.6h1v17.3C56.9,51.9,56.8,51.9,56.8,51.9z M53.4,49.7h-1V35.6h1V49.7z"/>
		<path class="st27" d="M61.1,47.6c-0.5,1.6-1.3,3.1-2.3,4.5l-0.9-0.7c0.9-1.3,1.7-2.8,2.2-4.3L61.1,47.6z M67.1,45.8h-4v8.1h-1
			v-8.1h-4v-1.1h4v-2.2h-3.8v-1.1h2.4c-0.2-1.1-0.6-2.2-1-3.3l0.7-0.5h-2v-1.1h3.7c-0.2-0.6-0.5-1.1-0.8-1.6l1-0.5
			c0.4,0.6,0.7,1.3,1,2h3.5v1.1h-1.6l0.7,0.5c-0.3,1.1-0.8,2.2-1.2,3.3H67v1.1h-3.8v2.2h4L67.1,45.8z M64.8,37.7h-4.1
			c0.5,1.2,0.8,2.5,1.1,3.8h1.7C64,40.2,64.5,39,64.8,37.7z M66.5,50l-0.9,0.6c-0.4-1.1-0.8-2.1-1.4-3.1L65,47
			C65.6,47.9,66.1,49,66.5,50z M75.2,42.8h-2.1v11.1h-1V42.8h-3c0,4.9-0.8,8.6-2.5,11.2l-0.8-0.7c0.8-1.4,1.4-2.9,1.8-4.4
			C68,47,68.2,45,68.2,43v-6.6c2.1-0.3,4.2-0.9,6.1-1.9l0.8,0.9c-1.9,0.9-3.8,1.6-5.9,1.9v4.3h6.1L75.2,42.8z"/>
		<path class="st27" d="M43,73.2c-0.5,2-1.3,3.9-2.4,5.6l-1-0.6c1-1.7,1.8-3.5,2.3-5.3L43,73.2z M55.3,71.2H41.7v-9.6h13.6
			C55.3,61.6,55.3,71.2,55.3,71.2z M48,65.8v-3.1h-5.2v3.1H48z M48,70.1v-3.2h-5.2v3.2H48z M53.4,76.4c0,1-0.2,1.9-0.6,2.8
			c-0.2,0.4-0.5,0.7-0.9,0.8c-1,0.1-1.9,0.2-2.9,0.1c-1,0-1.9,0-2.9-0.1c-0.3-0.1-0.6-0.2-0.8-0.5s-0.4-0.7-0.3-1.2v-5.8h1v5.7
			c0,0.3,0.1,0.6,0.4,0.7c0.9,0.1,1.8,0.2,2.7,0.2s1.7,0,2.6-0.1c0.2-0.1,0.4-0.5,0.5-1.2c0.1-0.6,0.2-1.2,0.2-1.8L53.4,76.4z
			 M50.6,75.3l-0.9,0.6c-0.6-1.2-1.3-2.4-2.1-3.4l0.9-0.6C49.3,73,50,74.1,50.6,75.3z M54.2,65.8v-3.1H49v3.1H54.2z M54.2,70.2v-3.3
			H49v3.2L54.2,70.2z M57.2,77.9l-0.8,0.7c-0.9-1.9-2-3.6-3.3-5.3l1-0.5C55.3,74.4,56.4,76.1,57.2,77.9L57.2,77.9z"/>
		<path class="st27" d="M60.3,75.2c-0.1,1.8-0.5,3.6-1.2,5.2l-0.9-0.5c0.6-1.6,1-3.2,1.1-4.9L60.3,75.2z M65.3,73.7l-1,0.4
			c-0.1-0.3-0.2-0.8-0.3-1.3c-1.8,0.6-3.6,1.1-5.4,1.5l-0.3-1c1.5-1.6,2.7-3.4,3.8-5.3c-1.2,0.3-2.3,0.6-3.6,0.7l-0.3-1
			c1.4-2.2,2.6-4.5,3.6-6.8l1,0.5c-1,2.1-2,4.1-3.3,6c1.1-0.2,2.2-0.4,3.3-0.8c0.4-0.7,0.9-1.6,1.4-2.6l0.9,0.6
			c-1.5,3-3.2,5.7-5.3,8.3c1.3-0.3,2.6-0.7,3.8-1.1l-0.5-1.3l0.9-0.4C64.7,71.2,65.1,72.4,65.3,73.7z M62.8,79.6l-1,0.2
			c0-1.5-0.2-3-0.5-4.5l1-0.2C62.7,76.6,62.9,78.1,62.8,79.6z M65.5,78.6l-0.9,0.3c-0.2-1.3-0.5-2.6-1-3.8l0.9-0.3
			C65,76,65.4,77.3,65.5,78.6L65.5,78.6z M75.5,79h-7.9v1.3h-1V67.8c-0.1,0.2-0.5,0.8-1.1,1.8L64.6,69c1.6-2.5,2.8-5.2,3.6-8
			l0.9,0.3c-0.4,1.3-0.8,2.6-1.3,3.8h3.5c-0.3-1.2-0.7-2.4-1.2-3.5l0.9-0.4c0.5,1.2,1,2.5,1.3,3.9h2.9v1.1h-3.4v2.9h3v1.1h-3v3.2h3
			v1.1h-3v3.4h3.6L75.5,79z M70.8,69.1v-2.9h-3.2v2.9H70.8z M70.8,73.4v-3.2h-3.2v3.2H70.8z M70.8,77.9v-3.5h-3.2v3.5H70.8z"/>
		<path class="st28" d="M46.5,152.4c0,2-1.6,3.7-3.7,3.7s-3.7-1.6-3.7-3.7s1.6-3.7,3.7-3.7l0,0C44.9,148.8,46.5,150.4,46.5,152.4z"
			/>
	</g>
	<g id="圖層_2_1_">
		<path class="st29" d="M-92.3,67.4h-6.6v13.2h-1.1V61.5h7.8L-92.3,67.4L-92.3,67.4z M-93.5,63.9v-1.3H-99v1.3H-93.5z M-93.5,66.3
			v-1.4H-99v1.4H-93.5z M-91.7,73.4l-0.9,0.4l-0.3-0.6l-4.6,0.6l-0.3-0.9c1-0.6,1.9-1.3,2.8-2.1l-2.6,0.3l-0.3-0.9
			c1.1-0.7,2.2-1.6,3-2.7l1.1,0.5c-0.6,0.7-1.3,1.4-2.1,2l2-0.3c0.4-0.3,0.8-0.7,1.1-1.1l1,0.5c-1.3,1.3-2.6,2.5-4,3.6l2.5-0.3
			c-0.1-0.2-0.3-0.5-0.4-0.7l0.9-0.4C-92.4,72-92,72.7-91.7,73.4z M-92.4,75.4c0.1,1.2-0.2,2.3-0.9,3.2c-0.8,0.8-1.8,1.3-2.9,1.5
			l-0.7-1c2-0.4,3.1-1.2,3.4-2.3H-97v-2.6h1.1V76h2.5c0-0.3,0.1-0.5,0.1-0.8v-1h1.1L-92.4,75.4z M-84.4,73.3l-0.9,0.6l-0.5-0.7
			l-5.3,0.5l-0.2-0.9c1-0.5,1.8-1.2,2.6-1.9l-2.6,0.3l-0.3-0.8c1.1-0.7,2.1-1.5,2.9-2.6l1.1,0.5c-0.6,0.7-1.2,1.3-1.9,1.9l1.9-0.2
			c0.2-0.2,0.5-0.5,1-0.9l0.9,0.4c-1.1,1.2-2.3,2.2-3.6,3.2l2.7-0.3c-0.2-0.3-0.4-0.5-0.6-0.7l0.9-0.5
			C-85.5,71.8-84.9,72.6-84.4,73.3L-84.4,73.3z M-86,77h-3.7v3.1h-1.1v-5.9h1.1V76h2.6v-1.7h1.1V77L-86,77z M-82.5,79.3
			c0,0.4-0.1,0.7-0.4,1c-0.2,0.2-0.6,0.4-0.9,0.4c-1.2,0-1.9,0-2.1,0l-0.5-1.2c0.5,0,1,0.1,1.4,0.1s0.8,0,1.2-0.1
			c0.1-0.1,0.2-0.2,0.2-0.4V67.4h-6.7v-5.9h7.8V79.3z M-83.6,63.9v-1.3h-5.5v1.3H-83.6z M-83.6,66.3v-1.4h-5.5v1.4H-83.6z"/>
		<path class="st29" d="M-73.4,72.9c-1.2,2.7-2.7,5.3-4.4,7.8l-0.9-0.8c1.7-2.4,3.1-5,4.3-7.7L-73.4,72.9z M-73.6,69.1l-0.7,0.9
			c-1.3-1-2.7-2-4.1-2.8l0.7-1C-76.2,67-74.8,68-73.6,69.1L-73.6,69.1z M-73,63.9l-0.9,0.9c-1.2-1.1-2.5-2.1-3.9-3l0.7-0.9
			C-75.6,61.8-74.3,62.8-73,63.9L-73,63.9z M-59.1,80h-14.4v-1.1h6.9v-6.4h-5.2v-1.2h5.2v-5.4h-5.8v-1.2h6c-0.4-1.2-0.9-2.4-1.5-3.5
			l1.2-0.3c0.6,1.2,1.1,2.5,1.5,3.8h5.9v1.2h-6.2v5.4h5.4v1.2h-5.4v6.4h6.4V80z"/>
		<path class="st29" d="M-36.6,70.2h-16.5v2.2c0,3.8-0.8,6.6-2.3,8.3l-0.8-0.8c0.7-0.9,1.2-1.8,1.5-2.9s0.5-2.2,0.5-3.3V69h17.7
			L-36.6,70.2L-36.6,70.2z M-37.1,64h-3.4c-0.7,0.8-1.5,1.6-2.4,2.2c1.6,0.4,3.2,0.9,4.8,1.5l-0.6,0.9c-1.8-0.7-3.7-1.3-5.6-1.7
			c-2.5,1-5.3,1.6-8,1.6l-0.4-1c2.2-0.1,4.4-0.4,6.6-1c-1.7-0.4-3.5-0.7-5.3-1l0.5-0.9c2.3,0.4,4.5,0.8,6.4,1.3
			c0.9-0.5,1.7-1.1,2.4-1.8h-12.8V63h8.4c-0.3-0.6-0.6-1.1-1-1.6l1.1-0.5c0.5,0.6,0.9,1.3,1.2,2h8.1V64z M-36.8,80h-16.1v-1h7.7
			v-2.2h-5.5v-1.1h5.5v-2H-50c-0.5,0.7-1.1,1.3-1.7,1.9l-0.7-1c1.2-1.1,2.2-2.4,2.9-3.9l1.1,0.3c-0.2,0.5-0.5,1-0.8,1.5h4.1v-1.8
			h1.1v1.8h6.2v1.1H-44v2h5.7v1.1H-44V79h7.3L-36.8,80L-36.8,80z"/>
		<path class="st29" d="M-14.1,74.9h-9.1v5.7h-1.2v-5.7h-9.2v-1.1h9.2V72h-8.3v-1h8.3v-1.8h-8.7v-1.1h5.9c-0.3-0.6-0.8-1.2-1.3-1.8
			l0.9-0.5h-6v-1.1h7.4V61h1.2v3.6h2.5V61h1.1v3.6h7.3v1.1H-20l0.8,0.6c-0.3,0.6-0.7,1.2-1.1,1.7h5.7v1.1h-8.6v1.8h8.1v1h-8.1v1.8
			h9.1V74.9z M-26.4,76.6c-2,1.5-4.1,2.6-6.5,3.4l-0.8-1c2.3-0.7,4.4-1.8,6.3-3.2L-26.4,76.6z M-28.5,63.6l-1,0.6
			c-0.7-0.8-1.4-1.6-2.2-2.3l1-0.7C-29.9,61.9-29.2,62.7-28.5,63.6z M-20.3,65.8h-7.1c0.6,0.7,1.1,1.5,1.5,2.3h4.2
			C-21.1,67.4-20.6,66.6-20.3,65.8z M-14.1,79.4l-0.7,0.9c-2.1-1.4-4.3-2.6-6.6-3.6l0.7-0.9C-18.4,76.8-16.2,78-14.1,79.4z
			 M-15.9,61.7c-0.6,0.9-1.4,1.7-2.3,2.3l-1-0.6c0.8-0.7,1.6-1.4,2.3-2.3L-15.9,61.7z"/>
		<path class="st29" d="M-4.8,78.8c0,1.2-0.7,1.8-2,1.8c-0.2,0-0.4,0-0.8,0L-8,79.4h1.4c0.2,0,0.3-0.1,0.4-0.2
			C-6.1,79.1-6,79-6,78.8v-6.9c-0.9,1-1.7,2-2.7,2.9l-0.6-0.7c0,2.2-0.4,4.5-1,6.6l-1.1-0.9c0.6-1.8,1-3.8,1-5.7
			c0.1-2.3,0.1-4.3,0.1-6.2v-6.5h5.5V78.8z M-5.9,68l-0.6,0.6C-7.3,67.8-8.1,67-9,66.3v1.4c0,2.8,0,4.8-0.1,6
			c1.2-1.1,2.3-2.3,3.3-3.6L-5.9,68L-5.9,68z M-5.9,67.7v-5H-9v3.5l0.6-0.7C-7.6,66.1-6.7,66.9-5.9,67.7z M6.9,61.9
			c-2.7,1.2-5.6,1.9-8.5,2.1v7.1c0.1,3.3-0.5,6.5-1.6,9.6l-1.1-0.5c1.1-2.9,1.6-5.9,1.5-9V63c3-0.1,6-0.8,8.8-2L6.9,61.9z M7.3,65.7
			c-2,0.9-4,1.5-6.2,1.9v11.3C2,78.4,2.9,78,3.7,77.5L4,78.6c-1.3,0.8-2.7,1.5-4.1,2.2l-0.4-1c0.3-0.3,0.4-0.7,0.4-1.1v-12
			c2.3-0.2,4.5-0.9,6.6-1.8L7.3,65.7z M8.4,79.9l-0.9,0.9c-2.6-2.7-4.1-6.6-4.4-11.6l1.1-0.3c0.1,1.1,0.3,2.3,0.5,3.4
			c1-0.9,1.8-1.9,2.6-2.9l0.9,0.7c-1,1.3-2.1,2.4-3.3,3.5C5.5,75.9,6.7,78.1,8.4,79.9L8.4,79.9z"/>
		<path class="st29" d="M22.1,61.9c-1.5,0.4-3,0.7-4.5,0.8v1.8h4.5v1.1h-4.5v1.7h4.1v6.5h-4.1v1.6h4.1v1.1h-4.1v2.3
			c1.3-0.1,2.7-0.3,4.1-0.5v1.1c-4,0.5-7.4,0.9-10.2,1.2l-0.3-1.2c1.6-0.1,3.4-0.3,5.3-0.5v-2.4h-4.1v-1.1h4.1v-1.6h-4.1v-6.5h4.1
			v-1.7h-4.9v-1.1h4.9v-1.6c-1.2,0.1-2.6,0.2-4.1,0.2l-0.4-1c3.2,0.1,6.4-0.3,9.6-1.1L22.1,61.9z M16.5,69.9v-1.6h-3v1.6H16.5z
			 M16.5,72.7V71h-3v1.7H16.5z M20.6,69.9v-1.6h-3v1.6H20.6z M20.6,72.7V71h-3v1.7H20.6z M29.9,65.4c0,3.3-0.1,6.3-0.2,9
			c0,1.6-0.1,3.2-0.4,4.8c-0.1,0.4-0.4,0.8-0.8,1.1c-0.7,0.3-1.5,0.4-2.2,0.4c-0.3,0-0.6,0-0.8,0l-0.4-1.2c0.8,0,1.6,0,2.2,0
			c0.3,0,0.6-0.1,0.8-0.3c0.3-0.3,0.4-0.6,0.4-1l0.2-4.3c0.1-2.4,0.1-4.8,0.1-7.3h-2.4c0.1,5-1.1,9.8-3.4,14.2l-1-0.5
			c2.1-3.6,3.2-8.2,3.3-13.7h-2.4v-1.1h2.4l0.1-4.4h1.1c0,1.8-0.1,3.3-0.1,4.4L29.9,65.4z"/>
		<path class="st29" d="M43.2,72.8c-0.5-0.2-0.8-0.6-0.8-1.1c0-0.2,0.1-0.5,0.3-0.7s0.5-0.4,0.8-0.3c0.7,0,1,0.5,1,1.4
			c-0.1,0.9-0.6,1.7-1.4,2.2l-0.5-0.4C42.9,73.6,43.1,73.3,43.2,72.8z"/>
		<path class="st29" d="M63.6,63.4h-2.8c-0.4,1.7-0.9,3.4-1.5,5h3.5V78h-1.1v-0.9h-2.1V79h-1.1v-8.9c-0.5,0.9-1,1.8-1.6,2.6
			l-0.8-0.8c1.7-2.6,2.9-5.5,3.5-8.5h-3v-1.1h7C63.6,62.3,63.6,63.4,63.6,63.4z M61.7,76.1v-6.5h-2.1v6.5H61.7z M75.8,80.1H63.2V79
			h4V65.9h-3.8v-1.1h12.1v1.1h-4V79h4.3V80.1z M66,75.4l-1.1,0.4c-0.1-2.4-0.5-4.8-1.1-7.1l1-0.4C65.4,70.6,65.8,73,66,75.4L66,75.4
			z M67.9,63.6l-1,0.5c-0.5-1-1.1-1.9-1.7-2.7l1-0.5C66.8,61.7,67.4,62.6,67.9,63.6L67.9,63.6z M70.4,79V65.9h-2.1V79H70.4z
			 M73.6,61.3c-0.5,1-1.2,1.9-2,2.8l-0.9-0.6c0.7-0.8,1.4-1.7,2-2.7L73.6,61.3z M75.3,68.6c-0.3,2.4-0.9,4.8-1.7,7.1l-1-0.5
			c0.8-2.3,1.3-4.7,1.6-7.1L75.3,68.6z"/>
		<path class="st29" d="M85,71l-2.2,1v7.1c0,1.1-0.7,1.6-2.2,1.6h-1.2l-0.3-1.2c0.4,0,0.7,0.1,1.1,0.1s0.8,0,1.2-0.2
			c0.2-0.1,0.2-0.3,0.2-0.5v-6.4l-3,1.2l-0.3-1.2c1.5-0.5,2.5-0.9,3.2-1.2v-5.2h-3.1V65h3.1v-4h1.1v4h1.5v1.1h-1.5v4.7
			c0.7-0.2,1.4-0.5,2-0.9L85,71z M98.2,67.2H84.8v-1h3.9c-0.2-0.7-0.5-1.3-0.8-2h-2.1v-1.1H91c-0.3-0.7-0.6-1.2-0.8-1.5l1-0.5
			c0.4,0.6,0.7,1.3,1,2h5.5v1.1h-2.6c-0.2,0.7-0.5,1.4-0.8,2h3.9V67.2z M98.2,80.1H84.8v-1h6.1v-1.7h-5.7v-1.1h5.7v-1.5H86v-6.3
			h10.9v6.3h-4.8v1.5h5.6v1.1h-5.6V79h6L98.2,80.1z M90.9,71v-1.5h-3.8V71H90.9z M90.9,73.7V72h-3.8v1.6L90.9,73.7z M94,64.2h-4.9
			c0.2,0.6,0.5,1.2,0.7,2h3.3C93.4,65.6,93.7,64.9,94,64.2z M95.8,71v-1.5h-3.7V71H95.8z M95.8,73.7V72h-3.7v1.6L95.8,73.7z"/>
		<path class="st29" d="M119.5,80.6h-1.2v-1.1h-15.8V72h1.2v6.4h6.8v-8.7h-7v-7.4h1.2v6.2h5.8v-7.7h1.1v7.7h5.7v-6.2h1.2v7.4h-6.9
			v8.6h6.7V72h1.2L119.5,80.6z"/>
		<path class="st29" d="M130.8,78c-3.1,1.1-5.4,1.9-6.8,2.3l-0.5-1.1c0.3-0.1,0.7-0.2,1-0.3v-8.6h1.1v8.3c0.5-0.1,1-0.3,1.5-0.5
			v-9.6h-2.6v-6.8h5.4v6.8h-1.6v3.1h2v1.1h-2v5c0.9-0.2,1.7-0.5,2.5-0.9L130.8,78L130.8,78z M128.7,67.3v-4.4h-3v4.5L128.7,67.3z
			 M143.3,68.4l-0.7,0.9c-2.1-1.1-3.8-2.9-4.7-5.1h-1.8c-1.1,2.1-2.6,3.8-4.6,5l-1-0.8c1.7-1,3.2-2.4,4.2-4.2H131v-1.1h4.2
			c0.3-0.7,0.5-1.5,0.7-2.3l1.2,0.3c-0.1,0.7-0.3,1.3-0.6,2h6.3v1.1h-3.7C140,66.1,141.5,67.6,143.3,68.4L143.3,68.4z M142.6,72
			h-7.4l-0.7,2.3h6.7c0,1.4-0.2,2.8-0.5,4.2c-0.1,0.7-0.5,1.3-1,1.8c-0.8,0.3-1.7,0.5-2.6,0.4c-0.6,0-1.4,0-2.1-0.1l-0.3-1.2
			c1,0,2.3,0.1,3.9,0.1c0.4,0,0.7-0.2,0.8-0.6c0.3-1.1,0.5-2.2,0.6-3.4h-7l1-3.4h-2.7v-1h11.4L142.6,72z M139.8,68.8h-5.7v-1.1h5.7
			V68.8z"/>
		<path class="st29" d="M155.5,65.6l-0.8,0.8c-1-1.3-2.2-2.5-3.5-3.4c-1.2,2-2.6,3.8-4.4,5.3l-0.7-1c2.1-1.8,3.7-4,4.9-6.5l1.1,0.3
			c-0.2,0.4-0.3,0.7-0.4,0.8C153.1,63,154.4,64.2,155.5,65.6z M155,71.6c-0.2,0.8-0.5,1.5-0.9,2.2c-0.6,1.3-1.4,2.5-2.2,3.7
			c0.7,0.7,1.4,1.5,2.1,2.3l-0.9,0.7c-1.6-2-3.4-3.8-5.5-5.3l0.8-0.8c0.8,0.6,1.7,1.3,2.7,2.2c1.2-1.5,2.1-3.3,2.7-5.1h-7.2v-1.1
			h8.4L155,71.6L155,71.6z M154.2,68.2h-5.5v-1.1h5.5V68.2z M165.7,62.6h-4.4c-0.3,1.3-0.6,2.2-0.7,2.6h4.1v11h-5.3l0.7,0.7
			c-1.3,1.4-2.7,2.7-4.3,3.7l-0.8-0.9c1.5-1,2.9-2.1,4.1-3.5h-2.7v-11h2.9c0.3-0.9,0.5-1.7,0.7-2.6h-4.6v-1h10.3V62.6L165.7,62.6z
			 M163.5,68.3v-2h-5.9v2H163.5z M163.5,71.6v-2.2h-5.9v2.2H163.5z M163.5,75.1v-2.5h-5.9v2.5H163.5z M165.8,79.7l-0.7,0.8
			c-1.2-1.1-2.5-2.1-3.9-3l0.7-0.9C163.3,77.6,164.6,78.6,165.8,79.7L165.8,79.7z"/>
		<path class="st29" d="M174.4,76c-2,1-3.9,1.9-5.6,2.7l-0.4-1.1c0.9-0.3,1.8-0.7,2.6-1.2v-8.7h-2.2v-1.1h2.2V61h1.1v5.6h1.9v1.1
			h-1.9v8.2c0.7-0.3,1.4-0.6,2.1-1L174.4,76z M188.2,76.3c-0.1,1.1-0.4,2.2-0.8,3.2c-0.2,0.6-0.8,1-1.4,1c-1,0-1.9-1.2-2.8-3.5
			c-1.2,1.4-2.6,2.7-4.2,3.6l-0.8-1c1.8-1,3.4-2.4,4.6-4.1c-0.7-3.4-1.1-6.9-1.1-10.3H174v-1.1h7.7c0-0.7,0-1.3,0-2
			c0-0.5,0-0.9,0-1.2h1.1c0,1.7,0,2.8,0,3.3h5.1v1.1h-5.1c0,3,0.3,5.9,0.8,8.9c1.1-2.1,1.9-4.3,2.3-6.6l1.1,0.3
			c-0.6,2.8-1.6,5.5-3,8c0.2,0.6,0.4,1.2,0.7,1.7c0.2,0.4,0.5,0.9,0.8,1.3c0.2,0.2,0.4,0.3,0.5,0.3s0.2-0.1,0.3-0.2
			c0.2-0.3,0.3-0.7,0.3-1c0.2-0.7,0.3-1.4,0.4-2.2L188.2,76.3z M181.2,76c-2.5,0.9-4.7,1.7-6.7,2.3l-0.3-1.2
			c1.9-0.5,4.1-1.3,6.9-2.3L181.2,76z M180,73.5h-4.8v-5.9h4.8V73.5z M178.9,72.4v-3.7h-2.5v3.7H178.9z M186.9,63l-0.9,0.8
			c-0.5-0.7-1-1.3-1.7-1.9l0.9-0.7C185.8,61.7,186.4,62.3,186.9,63L186.9,63z"/>
		<path class="st29" d="M198.3,67.3c-0.6,1.1-1.2,2.2-1.9,3.2v10.1h-1.2V72c-1,1.1-2.1,2-3.3,2.9L191,74c2.7-1.7,4.9-4.2,6.2-7.2
			L198.3,67.3z M200.4,64.3h-2.7v2.2h-1.2v-2.2h-5.4v-1.1h5.4v-2.4h1.2v2.4h2.7V64.3z M210.6,75.6c0,1.2-0.1,2.4-0.5,3.5
			c-0.2,0.4-0.5,0.8-1,1c-1.1,0.2-2.3,0.3-3.4,0.3c-1.3,0.1-2.6,0-3.8-0.3c-0.5-0.3-0.7-0.9-0.6-1.4V67.1h1.2v3.8h7.8V72h-7.8v6.5
			c0,0.3,0.1,0.5,0.4,0.6c0.9,0.1,1.9,0.2,2.8,0.1c1,0.1,2,0,3-0.2c0.2-0.1,0.4-0.5,0.5-1.3c0.1-0.9,0.2-1.7,0.3-2.6L210.6,75.6z
			 M210.7,64.3h-5.3v2.3h-1.2v-2.4h-2.9v-1.1h2.9v-2.4h1.2v2.4h5.3V64.3z"/>
		<path class="st29" d="M233.1,79.8l-0.7,1c-5.1-2.9-8.2-6.6-9.2-11.3c-0.8,4.6-3.8,8.4-9,11.3l-0.8-1c2.1-1.1,4-2.6,5.6-4.3
			c1.6-1.8,2.7-4,3-6.4c0.4-2.7,0.6-5.4,0.5-8.1h1.2l-0.1,3.5c0,2.1,0.3,4.1,1,6.1c2.4-1.9,4.5-4,6.3-6.4l1,0.8
			c-2,2.5-4.3,4.8-6.8,6.8C226.9,75.1,229.6,78,233.1,79.8z M220.1,70.8l-1,0.7c-1.2-2.4-2.8-4.6-4.6-6.5l1-0.7
			C217.4,66.2,218.9,68.4,220.1,70.8L220.1,70.8z"/>
	</g>
</g>
<g id="圖層_2">
	<path class="st2" d="M81.5,19.7C60.4,4.2,30.8,8.8,15.3,29.9C3,46.6,3.1,69.4,15.5,86.1c6.5,8.9,15.8,15.3,26.5,18.1
		c4.4,1.1,8.3,1.4,12.7,3.1c13.1,5.4,13,19.9-12.7,40.2c44-17.9,68.8-65.6,57.8-101.6C96.6,35.5,90.2,26.3,81.5,19.7L81.5,19.7z"/>
	
		<linearGradient id="SVGID_23_" gradientUnits="userSpaceOnUse" x1="7.9499" y1="81.5839" x2="104.0022" y2="81.5839" gradientTransform="matrix(1 0 0 -1 0 160.5511)">
		<stop  offset="0" style="stop-color:#D33924"/>
		<stop  offset="0.15" style="stop-color:#CB3023"/>
		<stop  offset="0.35" style="stop-color:#BB1C21"/>
		<stop  offset="0.57" style="stop-color:#AA1B20"/>
		<stop  offset="1" style="stop-color:#7F191E"/>
		<stop  offset="1" style="stop-color:#7F191E"/>
	</linearGradient>
	<path class="st30" d="M83.2,19.5C62.1,4.1,32.5,8.7,17.1,29.8S6.2,80.5,27.3,95.9c4.9,3.6,10.5,6.2,16.4,7.7
		c4.5,1.1,8.6,1.2,12.7,3.4c12.9,6.9,11.1,22.9-14.5,40.5c44-17.9,70.6-65.8,59.5-101.8C98.4,35.3,92,26.1,83.2,19.5L83.2,19.5z"/>
	
		<linearGradient id="SVGID_24_" gradientUnits="userSpaceOnUse" x1="180.8408" y1="933.0157" x2="262.9508" y2="933.0157" gradientTransform="matrix(0.84 -0.54 -0.54 -0.84 370.6076 959.5429)">
		<stop  offset="0" style="stop-color:#D33924"/>
		<stop  offset="0.15" style="stop-color:#CB3023"/>
		<stop  offset="0.35" style="stop-color:#BB1C21"/>
		<stop  offset="0.57" style="stop-color:#AA1B20"/>
		<stop  offset="1" style="stop-color:#7F191E"/>
		<stop  offset="1" style="stop-color:#7F191E"/>
	</linearGradient>
	<path class="st31" d="M17.2,47c3.3-22.4,24.2-37.9,46.6-34.6S101.8,36.6,98.4,59c-3.3,22.4-24.2,37.9-46.6,34.6
		c-22.4-3.3-37.9-24.1-34.6-46.5C17.2,47,17.2,47,17.2,47z"/>
	
		<linearGradient id="SVGID_25_" gradientUnits="userSpaceOnUse" x1="155.5166" y1="906.7098" x2="238.0666" y2="906.7098" gradientTransform="matrix(0.8493 -0.5087 -0.5087 -0.8493 349.7949 924.6473)">
		<stop  offset="0" style="stop-color:#CD3B28"/>
		<stop  offset="0.15" style="stop-color:#C53227"/>
		<stop  offset="0.35" style="stop-color:#B61F25"/>
		<stop  offset="0.57" style="stop-color:#A51E24"/>
		<stop  offset="1" style="stop-color:#7D1C22"/>
	</linearGradient>
	<path class="st32" d="M17.1,47.3c3.3-22.4,24.2-37.9,46.6-34.5c22.4,3.3,37.9,24.2,34.5,46.6c-3.3,22.4-24.2,37.9-46.6,34.5
		c0,0,0,0,0,0C29.3,90.5,13.8,69.6,17.1,47.3z"/>
	
		<linearGradient id="SVGID_26_" gradientUnits="userSpaceOnUse" x1="131.509" y1="876.8513" x2="214.449" y2="876.8513" gradientTransform="matrix(0.86 -0.48 -0.48 -0.86 331.2346 889.754)">
		<stop  offset="0" style="stop-color:#C63D2C"/>
		<stop  offset="0.16" style="stop-color:#BE342B"/>
		<stop  offset="0.35" style="stop-color:#B02329"/>
		<stop  offset="0.59" style="stop-color:#9F2228"/>
		<stop  offset="1" style="stop-color:#7A2026"/>
	</linearGradient>
	<path class="st33" d="M17.1,47.5c3.3-22.3,24.1-37.8,46.5-34.4c22.3,3.3,37.8,24.1,34.4,46.5C94.6,81.9,73.8,97.3,51.5,94
		C29.2,90.7,13.7,69.9,17.1,47.5C17.1,47.5,17.1,47.5,17.1,47.5z"/>
	
		<linearGradient id="SVGID_27_" gradientUnits="userSpaceOnUse" x1="104.4804" y1="840.6303" x2="187.8125" y2="840.6303" gradientTransform="matrix(0.866 -0.4587 -0.4587 -0.866 316.0041 849.0242)">
		<stop  offset="0" style="stop-color:#C03F30"/>
		<stop  offset="0.17" style="stop-color:#B8362F"/>
		<stop  offset="0.35" style="stop-color:#AB262D"/>
		<stop  offset="0.6" style="stop-color:#9A252C"/>
		<stop  offset="1" style="stop-color:#78232A"/>
	</linearGradient>
	<path class="st34" d="M17,47.8c3.3-22.3,24.1-37.7,46.4-34.4c22.3,3.3,37.7,24.1,34.4,46.4c-3.3,22.3-24.1,37.7-46.4,34.4
		C29.1,90.8,13.7,70.1,17,47.8C17,47.8,17,47.8,17,47.8z"/>
	
		<linearGradient id="SVGID_28_" gradientUnits="userSpaceOnUse" x1="80.8386" y1="806.5441" x2="164.3986" y2="806.5441" gradientTransform="matrix(0.87 -0.43 -0.43 -0.87 295.017 809.6095)">
		<stop  offset="0" style="stop-color:#B94133"/>
		<stop  offset="0.17" style="stop-color:#B23832"/>
		<stop  offset="0.35" style="stop-color:#A62931"/>
		<stop  offset="0.61" style="stop-color:#952830"/>
		<stop  offset="1" style="stop-color:#75272F"/>
	</linearGradient>
	<path class="st35" d="M16.9,48c3.3-22.3,24-37.6,46.3-34.3c22.3,3.3,37.6,24,34.3,46.3s-24,37.6-46.3,34.3c0,0,0,0,0,0
		C29,91,13.6,70.3,16.9,48z"/>
	
		<linearGradient id="SVGID_29_" gradientUnits="userSpaceOnUse" x1="59.1551" y1="768.3875" x2="142.9352" y2="768.3875" gradientTransform="matrix(0.8803 -0.4075 -0.4075 -0.8803 280.4793 772.1866)">
		<stop  offset="0" style="stop-color:#B34237"/>
		<stop  offset="0.18" style="stop-color:#AB3936"/>
		<stop  offset="0.35" style="stop-color:#A02C35"/>
		<stop  offset="0.63" style="stop-color:#8F2B34"/>
		<stop  offset="1" style="stop-color:#732A33"/>
	</linearGradient>
	<path class="st36" d="M16.8,48.3c3.3-22.2,24-37.6,46.2-34.3s37.6,24,34.3,46.2c-3.3,22.2-24,37.6-46.2,34.3c0,0,0,0,0,0
		C28.9,91.2,13.5,70.5,16.8,48.3z"/>
	
		<linearGradient id="SVGID_30_" gradientUnits="userSpaceOnUse" x1="39.8811" y1="729.751" x2="123.8411" y2="729.751" gradientTransform="matrix(0.891 -0.3835 -0.3835 -0.891 265.1255 735.5905)">
		<stop  offset="0" style="stop-color:#AC443B"/>
		<stop  offset="0.2" style="stop-color:#A43B3A"/>
		<stop  offset="0.35" style="stop-color:#9B3039"/>
		<stop  offset="0.64" style="stop-color:#8A2F38"/>
		<stop  offset="1" style="stop-color:#702D37"/>
	</linearGradient>
	<path class="st37" d="M16.8,48.6c3.3-22.2,24-37.5,46.1-34.2s37.5,24,34.2,46.1C93.8,82.7,73.2,98,51,94.7
		C28.8,91.4,13.5,70.8,16.8,48.6C16.8,48.6,16.8,48.6,16.8,48.6z"/>
	
		<linearGradient id="SVGID_31_" gradientUnits="userSpaceOnUse" x1="20.9729" y1="690.386" x2="105.0329" y2="690.386" gradientTransform="matrix(0.8918 -0.3553 -0.3553 -0.8918 243.3354 693.9092)">
		<stop  offset="0" style="stop-color:#A6463F"/>
		<stop  offset="0.2" style="stop-color:#9E3D3E"/>
		<stop  offset="0.35" style="stop-color:#96333D"/>
		<stop  offset="0.66" style="stop-color:#85323C"/>
		<stop  offset="1" style="stop-color:#6E313B"/>
	</linearGradient>
	<path class="st38" d="M16.7,48.8C20,26.7,40.6,11.4,62.7,14.7s37.4,23.9,34.1,46.1S73,98.2,50.8,94.9c0,0,0,0,0,0
		C28.6,91.6,13.4,71,16.7,48.8z"/>
	
		<linearGradient id="SVGID_32_" gradientUnits="userSpaceOnUse" x1="5.6369" y1="649.4506" x2="89.7369" y2="649.4506" gradientTransform="matrix(0.9012 -0.3307 -0.3307 -0.9012 227.1019 656.6533)">
		<stop  offset="0" style="stop-color:#9F4843"/>
		<stop  offset="0.21" style="stop-color:#983F42"/>
		<stop  offset="0.35" style="stop-color:#913641"/>
		<stop  offset="0.67" style="stop-color:#803540"/>
		<stop  offset="1" style="stop-color:#6B343F"/>
	</linearGradient>
	<path class="st39" d="M16.6,49.1c3.3-22.1,23.9-37.3,46-34c22.1,3.3,37.3,23.9,34,46c-3.3,22.1-23.9,37.3-46,34
		C28.6,91.8,13.3,71.2,16.6,49.1C16.6,49.1,16.6,49.1,16.6,49.1z"/>
	
		<linearGradient id="SVGID_33_" gradientUnits="userSpaceOnUse" x1="-7.5753" y1="607.7687" x2="76.5848" y2="607.7687" gradientTransform="matrix(0.91 -0.3057 -0.3057 -0.91 210.3689 619.1228)">
		<stop  offset="0" style="stop-color:#994A47"/>
		<stop  offset="0.22" style="stop-color:#914146"/>
		<stop  offset="0.35" style="stop-color:#8B3945"/>
		<stop  offset="0.7" style="stop-color:#7A3944"/>
		<stop  offset="1" style="stop-color:#693843"/>
	</linearGradient>
	<path class="st40" d="M16.5,49.4c3.3-22.1,23.8-37.3,45.9-34s37.3,23.8,34,45.9c-3.3,22.1-23.8,37.3-45.9,34c0,0,0,0,0,0
		C28.5,92,13.3,71.4,16.5,49.4z"/>
	
		<linearGradient id="SVGID_34_" gradientUnits="userSpaceOnUse" x1="-18.6156" y1="565.316" x2="65.4041" y2="565.316" gradientTransform="matrix(0.9181 -0.2805 -0.2805 -0.9181 193.2398 581.2085)">
		<stop  offset="0" style="stop-color:#934C4B"/>
		<stop  offset="0.24" style="stop-color:#8B434A"/>
		<stop  offset="0.35" style="stop-color:#863D49"/>
		<stop  offset="0.73" style="stop-color:#753C48"/>
		<stop  offset="1" style="stop-color:#673B47"/>
	</linearGradient>
	<path class="st41" d="M16.4,49.6c3.3-22,23.8-37.2,45.8-34c22,3.3,37.2,23.8,34,45.8c-3.3,22-23.8,37.2-45.8,34
		C28.4,92.2,13.2,71.7,16.4,49.6C16.4,49.7,16.4,49.7,16.4,49.6z"/>
	
		<linearGradient id="SVGID_35_" gradientUnits="userSpaceOnUse" x1="-27.2818" y1="522.2548" x2="56.5968" y2="522.2548" gradientTransform="matrix(0.9255 -0.2549 -0.2549 -0.9255 175.6122 542.9777)">
		<stop  offset="0" style="stop-color:#8C4E4F"/>
		<stop  offset="0.26" style="stop-color:#85454E"/>
		<stop  offset="0.35" style="stop-color:#81404D"/>
		<stop  offset="0.75" style="stop-color:#703F4C"/>
		<stop  offset="1" style="stop-color:#643E4C"/>
	</linearGradient>
	<path class="st42" d="M16.4,49.9c3.3-22,23.8-37.2,45.7-33.9S99.3,39.8,96,61.8c-3.3,22-23.7,37.2-45.7,33.9
		C28.3,92.4,13.1,71.9,16.4,49.9C16.4,49.9,16.4,49.9,16.4,49.9z"/>
	
		<linearGradient id="SVGID_36_" gradientUnits="userSpaceOnUse" x1="-33.6514" y1="478.6284" x2="49.9786" y2="478.6284" gradientTransform="matrix(0.9322 -0.2293 -0.2293 -0.9322 157.6909 504.2605)">
		<stop  offset="0" style="stop-color:#865052"/>
		<stop  offset="0.27" style="stop-color:#7E4751"/>
		<stop  offset="0.35" style="stop-color:#7B4351"/>
		<stop  offset="0.81" style="stop-color:#6A4250"/>
		<stop  offset="1" style="stop-color:#624250"/>
	</linearGradient>
	<path class="st43" d="M16.3,50.2C19.6,28.2,40,13.1,61.9,16.3S99,40,95.8,62c-3.3,21.9-23.7,37.1-45.6,33.8
		C28.2,92.6,13,72.1,16.3,50.2C16.3,50.2,16.3,50.2,16.3,50.2z"/>
	
		<linearGradient id="SVGID_37_" gradientUnits="userSpaceOnUse" x1="-37.5627" y1="434.5741" x2="45.7873" y2="434.5741" gradientTransform="matrix(0.9382 -0.2035 -0.2035 -0.9382 139.3966 465.1271)">
		<stop  offset="0" style="stop-color:#7F5156"/>
		<stop  offset="0.31" style="stop-color:#774855"/>
		<stop  offset="0.35" style="stop-color:#764655"/>
		<stop  offset="0.84" style="stop-color:#654554"/>
		<stop  offset="1" style="stop-color:#5F4554"/>
	</linearGradient>
	<path class="st44" d="M16.2,50.4c3.3-21.9,23.7-37,45.6-33.8s37,23.7,33.8,45.6S71.9,99.3,50,96c0,0,0,0,0,0
		C28.1,92.8,13,72.4,16.2,50.4C16.2,50.5,16.2,50.5,16.2,50.4z"/>
	
		<linearGradient id="SVGID_38_" gradientUnits="userSpaceOnUse" x1="-39.0615" y1="390.1467" x2="43.9485" y2="390.1467" gradientTransform="matrix(0.9434 -0.1777 -0.1777 -0.9434 120.841 425.4874)">
		<stop  offset="0" style="stop-color:#79535A"/>
		<stop  offset="0.35" style="stop-color:#714A59"/>
		<stop  offset="0.9" style="stop-color:#604958"/>
		<stop  offset="1" style="stop-color:#5D4958"/>
	</linearGradient>
	<path class="st45" d="M16.1,50.7c3.3-21.8,23.6-36.9,45.5-33.7s36.9,23.6,33.7,45.5C92,84.4,71.7,99.4,49.9,96.2
		C28,93,12.9,72.6,16.1,50.7C16.1,50.8,16.1,50.7,16.1,50.7z"/>
	
		<linearGradient id="SVGID_39_" gradientUnits="userSpaceOnUse" x1="-37.6938" y1="348.998" x2="44.9162" y2="348.998" gradientTransform="matrix(0.9578 -0.1534 -0.1534 -0.9578 106.5635 391.5183)">
		<stop  offset="0" style="stop-color:#72555E"/>
		<stop  offset="0.35" style="stop-color:#6B4D5D"/>
		<stop  offset="0.99" style="stop-color:#5A4C5C"/>
		<stop  offset="1" style="stop-color:#5A4C5C"/>
	</linearGradient>
	<path class="st46" d="M16.1,51c3.2-21.9,23.6-37,45.4-33.7s37,23.6,33.7,45.4s-23.6,37-45.4,33.7c0,0-0.1,0-0.1,0
		C27.9,93.2,12.8,72.8,16.1,51C16.1,51,16.1,51,16.1,51z"/>
	
		<linearGradient id="SVGID_40_" gradientUnits="userSpaceOnUse" x1="-34.35" y1="304.7094" x2="47.8" y2="304.7094" gradientTransform="matrix(0.9616 -0.1273 -0.1273 -0.9616 87.266 351.0573)">
		<stop  offset="0" style="stop-color:#6C5762"/>
		<stop  offset="0.35" style="stop-color:#665061"/>
		<stop  offset="1" style="stop-color:#584F60"/>
	</linearGradient>
	<path class="st47" d="M16,51.3c3.2-21.8,23.5-36.8,45.3-33.6S98.2,41.2,94.9,63S71.4,99.8,49.6,96.6c0,0,0,0,0,0
		C27.8,93.3,12.8,73.1,16,51.3C16,51.3,16,51.3,16,51.3z"/>
	
		<linearGradient id="SVGID_41_" gradientUnits="userSpaceOnUse" x1="-28.6426" y1="264.5988" x2="52.9874" y2="264.5988" gradientTransform="matrix(0.9746 -0.1024 -0.1024 -0.9746 72.1494 316.3458)">
		<stop  offset="0" style="stop-color:#655966"/>
		<stop  offset="0.35" style="stop-color:#615365"/>
		<stop  offset="1" style="stop-color:#555365"/>
	</linearGradient>
	<path class="st48" d="M15.9,51.5C19.2,29.8,39.4,14.8,61.2,18s36.8,23.5,33.5,45.2C91.4,85,71.2,100,49.4,96.8
		C27.7,93.5,12.7,73.3,15.9,51.5C15.9,51.5,15.9,51.5,15.9,51.5L15.9,51.5z"/>
	
		<linearGradient id="SVGID_42_" gradientUnits="userSpaceOnUse" x1="-20.8042" y1="220.7221" x2="60.3137" y2="220.7221" gradientTransform="matrix(0.977 -7.654888e-02 -7.654888e-02 -0.977 52.4948 274.8098)">
		<stop  offset="0" style="stop-color:#5F5B6A"/>
		<stop  offset="0.35" style="stop-color:#5C5769"/>
		<stop  offset="1" style="stop-color:#535669"/>
	</linearGradient>
	<path class="st49" d="M15.8,51.8C19.1,30.1,39.3,15.1,61,18.3s36.7,23.4,33.5,45.2S71,100.2,49.3,96.9c0,0,0,0,0,0
		C27.6,93.7,12.6,73.5,15.8,51.8z"/>
	
		<linearGradient id="SVGID_43_" gradientUnits="userSpaceOnUse" x1="-10.1934" y1="183.2256" x2="70.2466" y2="183.2256" gradientTransform="matrix(0.99 -5.000000e-02 -5.000000e-02 -0.99 36.2176 240.6956)">
		<stop  offset="0" style="stop-color:#595D6D"/>
		<stop  offset="0.35" style="stop-color:#565A6D"/>
		<stop  offset="1" style="stop-color:#515A6D"/>
	</linearGradient>
	<path class="st50" d="M15.8,52.1C19,30.4,39.2,15.4,60.8,18.7s36.6,23.4,33.4,45.1C91,85.4,70.9,100.3,49.2,97.1c0,0,0,0,0,0
		C27.5,93.9,12.6,73.7,15.8,52.1C15.8,52.1,15.8,52.1,15.8,52.1z"/>
	
		<linearGradient id="SVGID_44_" gradientUnits="userSpaceOnUse" x1="1.4147" y1="139.0833" x2="81.1847" y2="139.0833" gradientTransform="matrix(0.9897 -2.539699e-02 -2.539699e-02 -0.9897 16.4597 196.8826)">
		<stop  offset="0" style="stop-color:#525F71"/>
		<stop  offset="0.35" style="stop-color:#515D71"/>
		<stop  offset="1" style="stop-color:#4E5D71"/>
	</linearGradient>
	<path class="st51" d="M15.7,52.3c3.2-21.6,23.4-36.6,45-33.3C82.3,22.2,97.3,42.4,94,64c-3.2,21.6-23.4,36.6-45,33.3
		C27.4,94.1,12.5,74,15.7,52.3C15.7,52.3,15.7,52.3,15.7,52.3z"/>
	<path class="st25" d="M15.6,52.6C18.8,31,38.9,16.1,60.5,19.3C82.1,22.5,97,42.6,93.8,64.2s-23.3,36.5-44.9,33.3c0,0,0,0,0,0
		C27.3,94.3,12.4,74.2,15.6,52.6z"/>
	<path class="st26" d="M15.6,52.6C18.8,31,38.9,16.1,60.5,19.3C82.1,22.5,97,42.6,93.8,64.2s-23.3,36.5-44.9,33.3c0,0,0,0,0,0
		C27.3,94.3,12.4,74.2,15.6,52.6z"/>
	<path class="st26" d="M17.1,52.8c3.1-20.8,22.4-35.1,43.2-32s35.1,22.4,32,43.2c-3.1,20.7-22.4,35-43.2,32
		C28.3,92.9,14,73.6,17.1,52.8C17.1,52.8,17.1,52.8,17.1,52.8z"/>
	<path class="st27" d="M53.4,48.3c0,0.9-0.1,1.8-0.3,2.6c-0.1,0.7-0.2,1.4-0.5,2c-0.2,0.3-0.4,0.5-0.7,0.7c-0.3,0.2-0.6,0.3-0.9,0.3
		h-3l-0.4-1.2c0.9,0.1,1.6,0.1,2.2,0.1c0.5,0,1,0,1.4-0.1c0.3,0,0.5-0.3,0.7-0.8c0.2-0.8,0.3-1.7,0.4-2.5h-7.6
		c-0.9,2.1-3.1,3.7-6.6,4.6l-0.6-1c3.1-0.7,5.1-1.8,6-3.5h-6.1v-1.1h6.5c0.1-0.4,0.2-0.7,0.3-1.1h1c0,0.4-0.1,0.8-0.2,1.1H53.4z
		 M52.9,45.9c0,0.5-0.1,0.9-0.5,1.2c-0.3,0.3-1.2,0.4-2.7,0.3l-0.4-1.1c0.4,0.1,0.8,0.1,1.3,0.1c0.4,0,0.8,0,1.1-0.2
		c0.1-0.1,0.2-0.3,0.2-0.5V45h-5.8v1.6h-1V45h-5.4v2.3h-1v-8.3h5.8c-0.9-0.5-1.7-1-2.7-1.5l0.5-0.8c1.2,0.5,2.3,1.2,3.4,1.9
		c1-0.4,2.5-1.3,4.6-2.5H38.1v-1h14.3v1c-1.8,1.1-3.5,2-5.1,2.8h5.6L52.9,45.9z M45.1,41.4v-1.5h-5.4v1.4L45.1,41.4z M45.1,44v-1.5
		h-5.4v1.5L45.1,44z M51.9,41.4v-1.5h-5.8v1.4L51.9,41.4z M51.9,44v-1.5h-5.8v1.5L51.9,44z"/>
	<path class="st27" d="M64.1,39.9h-1.5v13.9h-1v-3.6c-1.9,0.6-4,1.2-6.4,1.8l-0.3-1.1c0.8-0.2,1.3-0.3,1.5-0.3V39.9h-1.5v-1.1h4.3
		v-2.7h-3.5V35h8.1v1.1h-3.5v2.7h4L64.1,39.9z M61.6,42.3v-2.4h-4.1v2.4H61.6z M61.6,45.9v-2.5h-4.1v2.5H61.6z M61.6,48.9V47h-4.1
		v3.2C58.9,49.8,60.3,49.4,61.6,48.9L61.6,48.9z M72.2,52.8l-0.7,1c-1.5-1-2.8-2.3-3.8-3.8c-1,1.5-2.3,2.7-3.7,3.8l-0.7-1
		c1.5-0.9,2.9-2.2,3.8-3.8c-0.8-1.8-1.4-3.7-1.6-5.6l1-0.4c0.2,1.7,0.6,3.3,1.3,4.8c1.1-2.8,1.7-5.7,1.6-8.7h-2.8
		c-0.5,1.7-1.2,3.3-2,4.9l-0.8-0.7c1.5-2.8,2.5-5.9,2.9-9.1l1,0.3C67.3,36,67,37.2,66.8,38h5.3v1.2h-1.7c-0.1,4.2-0.8,7.5-2,9.8
		C69.3,50.6,70.6,51.9,72.2,52.8L72.2,52.8z"/>
	<path class="st27" d="M42.8,70.8c-0.7,0.4-1.5,0.7-2.2,1v6.5c0,0.5-0.1,0.9-0.3,1.3c-0.2,0.4-0.7,0.6-1.5,0.6c-0.4,0-0.7,0-1,0
		l-0.3-1.1c0.4,0,0.9,0,1.6,0c0.2,0,0.3-0.1,0.4-0.2c0.1-0.1,0.2-0.3,0.2-0.4v-6.2c-0.8,0.4-1.6,0.7-2.4,1l-0.4-1
		c1.1-0.4,2-0.8,2.8-1.1V66H37v-1.2h2.5v-4h1v4h1.9V66h-1.9v4.6c0.6-0.3,1.3-0.6,1.9-0.9L42.8,70.8z M47.3,70.4c0.1,2-0.3,4-1,5.9
		c-0.7,1.5-1.7,2.9-2.9,4l-0.8-0.8c2.3-2,3.6-4.8,3.6-7.8c-1,1.1-2.1,2.1-3.3,3l-0.7-1c1.5-1.1,2.9-2.3,4.1-3.7v-9.2h1L47.3,70.4z
		 M45.5,67.9l-1,0.5c-0.5-1.6-1.1-3.1-1.8-4.5l1-0.5C44.4,64.9,45,66.4,45.5,67.9L45.5,67.9z M54.3,76.1c0,1-0.2,2.1-0.7,3
		c-0.4,0.5-1,0.8-1.6,0.8c-0.8,0.1-1.6-0.1-2.4-0.4c-0.4-0.2-0.6-0.8-0.6-1.6V60.8h1v5.9c1.1-0.9,2.2-1.9,3.1-3l0.8,0.9
		c-1.2,1.3-2.5,2.5-3.8,3.6v1.8c1.5,1,2.8,2.1,4.1,3.4l-0.7,0.9c-1-1.1-2.2-2.1-3.4-3V78c0,0.5,0.5,0.7,1.5,0.7
		c0.5,0.1,1-0.1,1.3-0.5c0.3-0.8,0.5-1.7,0.5-2.6L54.3,76.1z"/>
	<path class="st27" d="M65.1,77h-4.2v3.1h-1V77h-4.6v-1h4.6v-1.8h-3.7v-7.3h8.3v7.3h-3.6V76h4.2V77z M59.8,65.6h-4v-4.3h4V65.6z
		 M58.8,64.6v-2.2h-2v2.2L58.8,64.6z M59.9,70v-2h-2.7v2H59.9z M59.9,73.2v-2.1h-2.7v2.2L59.9,73.2z M63.5,70v-2h-2.6v2H63.5z
		 M63.5,73.2v-2.1h-2.6v2.2L63.5,73.2z M65,65.6h-4v-4.3h4V65.6z M64,64.6v-2.2h-2.1v2.1L64,64.6z M72.6,76.3c-0.2,1-0.5,2-0.9,3
		c-0.2,0.5-0.7,0.9-1.2,0.9c-0.9,0-1.7-1.3-2.3-3.9c-1,1.2-2.1,2.3-3.3,3.3l-0.8-0.8c1.4-1.1,2.7-2.4,3.9-3.9
		c-0.3-2.2-0.5-4.4-0.6-6.6c-0.4,0-1,0.1-1.9,0.2l-0.1-1.1c0.7,0,1.3-0.1,2-0.2l-0.1-6.3h1v6.2c0.8,0,2.2-0.2,4-0.4l0.1,1.1l-4,0.4
		c0,1.8,0.1,3.6,0.4,5.4c1-1.4,1.7-3,2.3-4.7l0.9,0.5c-0.8,2-1.8,3.9-3,5.7c0.1,0.7,0.3,1.4,0.5,2.1c0.1,0.5,0.3,0.9,0.6,1.3
		c0.2,0.3,0.3,0.4,0.4,0.4c0.1,0,0.2,0,0.3-0.1c0.2-0.3,0.3-0.7,0.4-1.1c0.2-0.8,0.4-1.5,0.5-2.3L72.6,76.3z M71.9,65l-0.9,0.6
		c-0.5-1.1-1.1-2.1-1.8-3l0.8-0.6C70.8,62.9,71.4,63.9,71.9,65L71.9,65z"/>
	<path class="st28" d="M46.7,152.4c0,2-1.6,3.7-3.7,3.7s-3.7-1.6-3.7-3.7c0-2,1.6-3.7,3.7-3.7l0,0C45.1,148.7,46.7,150.3,46.7,152.4
		z"/>
</g>
</svg>
