<?xml version="1.0" encoding="utf-8"?>
<!-- Generator: Adobe Illustrator 24.1.1, SVG Export Plug-In . SVG Version: 6.00 Build 0)  -->
<svg version="1.1" id="圖層_1" xmlns="http://www.w3.org/2000/svg" xmlns:xlink="http://www.w3.org/1999/xlink" x="0px" y="0px"
	 viewBox="0 0 380 160" style="enable-background:new 0 0 380 160;" xml:space="preserve">
<style type="text/css">
	.st0{display:none;}
	.st1{display:inline;fill-rule:evenodd;clip-rule:evenodd;fill:#5F7696;}
	.st2{display:inline;fill-rule:evenodd;clip-rule:evenodd;fill:url(#SVGID_1_);}
	.st3{display:inline;fill:url(#SVGID_2_);}
	.st4{display:inline;fill:url(#SVGID_3_);}
	.st5{display:inline;fill:url(#SVGID_4_);}
	.st6{display:inline;fill:url(#SVGID_5_);}
	.st7{display:inline;fill:url(#SVGID_6_);}
	.st8{display:inline;fill:url(#SVGID_7_);}
	.st9{display:inline;fill:url(#SVGID_8_);}
	.st10{display:inline;fill:url(#SVGID_9_);}
	.st11{display:inline;fill:url(#SVGID_10_);}
	.st12{display:inline;fill:url(#SVGID_11_);}
	.st13{display:inline;fill:url(#SVGID_12_);}
	.st14{display:inline;fill:url(#SVGID_13_);}
	.st15{display:inline;fill:url(#SVGID_14_);}
	.st16{display:inline;fill:url(#SVGID_15_);}
	.st17{display:inline;fill:url(#SVGID_16_);}
	.st18{display:inline;fill:url(#SVGID_17_);}
	.st19{display:inline;fill:url(#SVGID_18_);}
	.st20{display:inline;fill:url(#SVGID_19_);}
	.st21{display:inline;fill:url(#SVGID_20_);}
	.st22{display:inline;fill:url(#SVGID_21_);}
	.st23{display:inline;fill:url(#SVGID_22_);}
	.st24{display:inline;fill:#4C6075;}
	.st25{display:inline;fill:#FFFFFF;}
	.st26{display:inline;fill:#211513;}
	.st27{display:inline;fill-rule:evenodd;clip-rule:evenodd;fill:#AD181C;}
	.st28{fill:#CF121B;}
</style>
<g id="圖層_1_1_" class="st0">
	<path class="st1" d="M214.3,19.8c-21-15.5-50.7-10.9-66.1,10.1c-12.3,16.8-12.2,39.6,0.2,56.3c6.5,8.9,15.8,15.3,26.5,18.1
		c4.5,1.1,8.3,1.3,12.7,3.1c13.1,5.4,13,19.9-12.7,40.2c44-17.9,68.8-65.6,57.8-101.6C229.5,35.6,223.1,26.4,214.3,19.8z"/>
	
		<linearGradient id="SVGID_1_" gradientUnits="userSpaceOnUse" x1="-505.2943" y1="1441.3986" x2="-398.5343" y2="1441.3986" gradientTransform="matrix(0.84 -0.54 0.54 0.84 -214.6 -1380.9501)">
		<stop  offset="0" style="stop-color:#D33924"/>
		<stop  offset="0.15" style="stop-color:#CB3023"/>
		<stop  offset="0.35" style="stop-color:#BB1C21"/>
		<stop  offset="0.57" style="stop-color:#AA1B20"/>
		<stop  offset="1" style="stop-color:#7F191E"/>
		<stop  offset="1" style="stop-color:#7F191E"/>
	</linearGradient>
	<path class="st2" d="M216.1,19.6C195,4.1,165.4,8.7,150,29.9S139.1,80.6,160.2,96c4.9,3.6,10.5,6.2,16.4,7.7
		c4.4,1.1,8.6,1.2,12.7,3.4c12.9,6.9,11.1,22.9-14.5,40.5c44-17.9,70.6-65.8,59.6-101.8C231.3,35.3,224.9,26.1,216.1,19.6z"/>
	
		<linearGradient id="SVGID_2_" gradientUnits="userSpaceOnUse" x1="-482.2843" y1="1427.4213" x2="-400.1842" y2="1427.4213" gradientTransform="matrix(0.84 -0.54 0.54 0.84 -214.6 -1380.9501)">
		<stop  offset="0" style="stop-color:#D33924"/>
		<stop  offset="0.15" style="stop-color:#CB3023"/>
		<stop  offset="0.35" style="stop-color:#BB1C21"/>
		<stop  offset="0.57" style="stop-color:#AA1B20"/>
		<stop  offset="1" style="stop-color:#7F191E"/>
		<stop  offset="1" style="stop-color:#7F191E"/>
	</linearGradient>
	<path class="st3" d="M150.1,47c3.3-22.4,24.2-37.9,46.6-34.5s37.9,24.2,34.6,46.6S207.1,97,184.6,93.7
		C162.2,90.3,146.7,69.5,150.1,47L150.1,47z"/>
	
		<linearGradient id="SVGID_3_" gradientUnits="userSpaceOnUse" x1="-460.9988" y1="1470.9862" x2="-378.4589" y2="1470.9862" gradientTransform="matrix(0.8493 -0.5087 0.5087 0.8493 -202.9293 -1408.4779)">
		<stop  offset="0" style="stop-color:#CD3B28"/>
		<stop  offset="0.15" style="stop-color:#C53227"/>
		<stop  offset="0.35" style="stop-color:#B61F25"/>
		<stop  offset="0.57" style="stop-color:#A51E24"/>
		<stop  offset="1" style="stop-color:#7D1C22"/>
	</linearGradient>
	<path class="st4" d="M150,47.3c3.3-22.4,24.2-37.8,46.6-34.5s37.8,24.2,34.5,46.6s-24.2,37.8-46.6,34.5l0,0
		C162.1,90.6,146.7,69.7,150,47.3L150,47.3z"/>
	
		<linearGradient id="SVGID_4_" gradientUnits="userSpaceOnUse" x1="-439.7476" y1="1510.897" x2="-356.8076" y2="1510.897" gradientTransform="matrix(0.86 -0.48 0.48 0.86 -190.07 -1438.2499)">
		<stop  offset="0" style="stop-color:#C63D2C"/>
		<stop  offset="0.16" style="stop-color:#BE342B"/>
		<stop  offset="0.35" style="stop-color:#B02329"/>
		<stop  offset="0.59" style="stop-color:#9F2228"/>
		<stop  offset="1" style="stop-color:#7A2026"/>
	</linearGradient>
	<path class="st5" d="M149.9,47.6c3.4-22.4,24.2-37.8,46.5-34.5s37.8,24.1,34.4,46.5c-3.3,22.3-24.1,37.7-46.5,34.4
		C162,90.7,146.6,69.9,149.9,47.6z"/>
	
		<linearGradient id="SVGID_5_" gradientUnits="userSpaceOnUse" x1="-436.9497" y1="1555.4983" x2="-353.678" y2="1555.4983" gradientTransform="matrix(0.866 -0.4587 0.4587 0.866 -181.2231 -1474.3789)">
		<stop  offset="0" style="stop-color:#C03F30"/>
		<stop  offset="0.17" style="stop-color:#B8362F"/>
		<stop  offset="0.35" style="stop-color:#AB262D"/>
		<stop  offset="0.6" style="stop-color:#9A252C"/>
		<stop  offset="1" style="stop-color:#78232A"/>
	</linearGradient>
	<path class="st6" d="M149.9,47.9c3.3-22.3,24-37.7,46.3-34.4s37.7,24,34.4,46.3s-24,37.7-46.3,34.4c0,0,0,0-0.1,0
		C162,90.9,146.6,70.2,149.9,47.9z"/>
	
		<linearGradient id="SVGID_6_" gradientUnits="userSpaceOnUse" x1="-418.4273" y1="1605.7637" x2="-334.8674" y2="1605.7637" gradientTransform="matrix(0.87 -0.43 0.43 0.87 -174.13 -1504.15)">
		<stop  offset="0" style="stop-color:#B94133"/>
		<stop  offset="0.17" style="stop-color:#B23832"/>
		<stop  offset="0.35" style="stop-color:#A62931"/>
		<stop  offset="0.61" style="stop-color:#952830"/>
		<stop  offset="1" style="stop-color:#75272F"/>
	</linearGradient>
	<path class="st7" d="M149.8,48.1c3.3-22.2,24-37.6,46.3-34.3s37.6,24,34.3,46.3s-24,37.6-46.3,34.3l0,0
		C161.8,91.1,146.5,70.4,149.8,48.1z"/>
	
		<linearGradient id="SVGID_7_" gradientUnits="userSpaceOnUse" x1="-403.6994" y1="1643.1052" x2="-319.9195" y2="1643.1052" gradientTransform="matrix(0.8803 -0.4075 0.4075 0.8803 -161.6302 -1539.2742)">
		<stop  offset="0" style="stop-color:#B34237"/>
		<stop  offset="0.18" style="stop-color:#AB3936"/>
		<stop  offset="0.35" style="stop-color:#A02C35"/>
		<stop  offset="0.63" style="stop-color:#8F2B34"/>
		<stop  offset="1" style="stop-color:#732A33"/>
	</linearGradient>
	<path class="st8" d="M149.7,48.4c3.3-22.2,24-37.6,46.2-34.3s37.6,24,34.3,46.2s-24,37.6-46.2,34.3l0,0
		C161.7,91.3,146.4,70.6,149.7,48.4L149.7,48.4z"/>
	
		<linearGradient id="SVGID_8_" gradientUnits="userSpaceOnUse" x1="-383.7652" y1="1679.2084" x2="-299.8052" y2="1679.2084" gradientTransform="matrix(0.891 -0.3835 0.3835 0.891 -148.7308 -1573.0911)">
		<stop  offset="0" style="stop-color:#AC443B"/>
		<stop  offset="0.2" style="stop-color:#A43B3A"/>
		<stop  offset="0.35" style="stop-color:#9B3039"/>
		<stop  offset="0.64" style="stop-color:#8A2F38"/>
		<stop  offset="1" style="stop-color:#702D37"/>
	</linearGradient>
	<path class="st9" d="M149.6,48.7c3.3-22.2,24-37.6,46.1-34.3s37.5,24,34.2,46.1C226.6,82.7,206,98,183.8,94.7
		C161.6,91.5,146.3,70.9,149.6,48.7L149.6,48.7z"/>
	
		<linearGradient id="SVGID_9_" gradientUnits="userSpaceOnUse" x1="-359.9422" y1="1733.4131" x2="-275.8822" y2="1733.4131" gradientTransform="matrix(0.8918 -0.3553 0.3553 0.8918 -144.3961 -1603.2233)">
		<stop  offset="0" style="stop-color:#A6463F"/>
		<stop  offset="0.2" style="stop-color:#9E3D3E"/>
		<stop  offset="0.35" style="stop-color:#96333D"/>
		<stop  offset="0.66" style="stop-color:#85323C"/>
		<stop  offset="1" style="stop-color:#6E313B"/>
	</linearGradient>
	<path class="st10" d="M149.6,48.9c3.3-22.1,23.9-37.4,46.1-34.1s37.4,23.9,34.1,46.1C226.5,83,205.9,98.3,183.7,95l0,0
		C161.6,91.7,146.3,71,149.6,48.9z"/>
	
		<linearGradient id="SVGID_10_" gradientUnits="userSpaceOnUse" x1="-335.0326" y1="1769.9609" x2="-250.9326" y2="1769.9609" gradientTransform="matrix(0.9012 -0.3307 0.3307 0.9012 -132.6309 -1636.5234)">
		<stop  offset="0" style="stop-color:#9F4843"/>
		<stop  offset="0.21" style="stop-color:#983F42"/>
		<stop  offset="0.35" style="stop-color:#913641"/>
		<stop  offset="0.67" style="stop-color:#803540"/>
		<stop  offset="1" style="stop-color:#6B343F"/>
	</linearGradient>
	<path class="st11" d="M149.5,49.2c3.3-22.1,23.9-37.4,46-34.1s37.4,23.9,34.1,46s-23.9,37.3-46,34.1
		C161.5,91.9,146.2,71.3,149.5,49.2L149.5,49.2L149.5,49.2z"/>
	
		<linearGradient id="SVGID_11_" gradientUnits="userSpaceOnUse" x1="-307.7113" y1="1806.3966" x2="-223.6413" y2="1806.3966" gradientTransform="matrix(0.91 -0.3057 0.3057 0.91 -121.3805 -1669.494)">
		<stop  offset="0" style="stop-color:#994A47"/>
		<stop  offset="0.22" style="stop-color:#914146"/>
		<stop  offset="0.35" style="stop-color:#8B3945"/>
		<stop  offset="0.7" style="stop-color:#7A3944"/>
		<stop  offset="1" style="stop-color:#693843"/>
	</linearGradient>
	<path class="st12" d="M149.4,49.5c3.3-22.1,23.8-37.3,45.9-34s37.3,23.8,34,45.9s-23.8,37.3-45.9,34l0,0
		C161.3,92.1,146.1,71.5,149.4,49.5z"/>
	
		<linearGradient id="SVGID_12_" gradientUnits="userSpaceOnUse" x1="-278.3358" y1="1842.5243" x2="-194.3398" y2="1842.5243" gradientTransform="matrix(0.9181 -0.2805 0.2805 0.9181 -110.7525 -1702.2819)">
		<stop  offset="0" style="stop-color:#934C4B"/>
		<stop  offset="0.24" style="stop-color:#8B434A"/>
		<stop  offset="0.35" style="stop-color:#863D49"/>
		<stop  offset="0.73" style="stop-color:#753C48"/>
		<stop  offset="1" style="stop-color:#673B47"/>
	</linearGradient>
	<path class="st13" d="M149.3,49.7c3.3-22,23.8-37.2,45.8-34s37.2,23.8,34,45.8c-3.3,22-23.8,37.2-45.8,34S146.1,71.8,149.3,49.7
		C149.3,49.8,149.3,49.7,149.3,49.7z"/>
	
		<linearGradient id="SVGID_13_" gradientUnits="userSpaceOnUse" x1="-246.2213" y1="1878.4598" x2="-162.3854" y2="1878.4598" gradientTransform="matrix(0.9255 -0.2549 0.2549 0.9255 -100.7118 -1734.6982)">
		<stop  offset="0" style="stop-color:#8C4E4F"/>
		<stop  offset="0.26" style="stop-color:#85454E"/>
		<stop  offset="0.35" style="stop-color:#81404D"/>
		<stop  offset="0.75" style="stop-color:#703F4C"/>
		<stop  offset="1" style="stop-color:#643E4C"/>
	</linearGradient>
	<path class="st14" d="M149.2,50c3.3-22,23.7-37.2,45.7-33.9s37.2,23.7,33.9,45.7S205.1,99,183.1,95.7C161.2,92.5,146,72,149.2,50
		L149.2,50z"/>
	
		<linearGradient id="SVGID_14_" gradientUnits="userSpaceOnUse" x1="-212.2701" y1="1914.082" x2="-128.6103" y2="1914.082" gradientTransform="matrix(0.9322 -0.2293 0.2293 0.9322 -91.2947 -1767.145)">
		<stop  offset="0" style="stop-color:#865052"/>
		<stop  offset="0.27" style="stop-color:#7E4751"/>
		<stop  offset="0.35" style="stop-color:#7B4351"/>
		<stop  offset="0.81" style="stop-color:#6A4250"/>
		<stop  offset="1" style="stop-color:#624250"/>
	</linearGradient>
	<path class="st15" d="M149.2,50.3c3.3-22,23.7-37.1,45.6-33.8s37.1,23.7,33.8,45.6c-3.3,22-23.7,37.1-45.6,33.8l0,0
		C161.1,92.6,145.9,72.2,149.2,50.3L149.2,50.3z"/>
	
		<linearGradient id="SVGID_15_" gradientUnits="userSpaceOnUse" x1="-175.8042" y1="1949.089" x2="-92.4542" y2="1949.089" gradientTransform="matrix(0.9382 -0.2035 0.2035 0.9382 -82.4638 -1799.4299)">
		<stop  offset="0" style="stop-color:#7F5156"/>
		<stop  offset="0.31" style="stop-color:#774855"/>
		<stop  offset="0.35" style="stop-color:#764655"/>
		<stop  offset="0.84" style="stop-color:#654554"/>
		<stop  offset="1" style="stop-color:#5F4554"/>
	</linearGradient>
	<path class="st16" d="M149.1,50.5c3.3-21.9,23.7-37,45.6-33.8s37,23.7,33.8,45.6c-3.3,21.9-23.7,37-45.6,33.8l0,0
		C161,92.8,145.8,72.4,149.1,50.5L149.1,50.5z"/>
	
		<linearGradient id="SVGID_16_" gradientUnits="userSpaceOnUse" x1="-137.2321" y1="1983.7869" x2="-54.2222" y2="1983.7869" gradientTransform="matrix(0.9434 -0.1777 0.1777 0.9434 -74.3146 -1831.6788)">
		<stop  offset="0" style="stop-color:#79535A"/>
		<stop  offset="0.35" style="stop-color:#714A59"/>
		<stop  offset="0.9" style="stop-color:#604958"/>
		<stop  offset="1" style="stop-color:#5D4958"/>
	</linearGradient>
	<path class="st17" d="M149,50.8c3.3-21.8,23.7-36.9,45.5-33.7s36.9,23.6,33.7,45.5c-3.3,21.8-23.6,36.9-45.5,33.7
		C160.9,93,145.8,72.7,149,50.8L149,50.8z"/>
	
		<linearGradient id="SVGID_17_" gradientUnits="userSpaceOnUse" x1="-103.1654" y1="1996.9187" x2="-20.5654" y2="1996.9187" gradientTransform="matrix(0.9578 -0.1534 0.1534 0.9578 -58.2846 -1865.2321)">
		<stop  offset="0" style="stop-color:#72555E"/>
		<stop  offset="0.35" style="stop-color:#6B4D5D"/>
		<stop  offset="0.99" style="stop-color:#5A4C5C"/>
		<stop  offset="1" style="stop-color:#5A4C5C"/>
	</linearGradient>
	<path class="st18" d="M149,51.1c3.2-21.9,23.6-37,45.4-33.7s37,23.6,33.7,45.4s-23.6,37-45.4,33.7c0,0,0,0-0.1,0
		C160.8,93.2,145.7,72.9,149,51.1C148.9,51.1,148.9,51.1,149,51.1z"/>
	
		<linearGradient id="SVGID_18_" gradientUnits="userSpaceOnUse" x1="-60.5833" y1="2029.8865" x2="21.5567" y2="2029.8865" gradientTransform="matrix(0.9616 -0.1273 0.1273 0.9616 -51.3642 -1897.2162)">
		<stop  offset="0" style="stop-color:#6C5762"/>
		<stop  offset="0.35" style="stop-color:#665061"/>
		<stop  offset="1" style="stop-color:#584F60"/>
	</linearGradient>
	<path class="st19" d="M148.9,51.3c3.2-21.8,23.5-36.8,45.3-33.6S231,41.2,227.8,63c-3.3,21.9-23.6,36.9-45.3,33.7
		C160.7,93.4,145.6,73.1,148.9,51.3L148.9,51.3z"/>
	
		<linearGradient id="SVGID_19_" gradientUnits="userSpaceOnUse" x1="-24.3184" y1="2041.1688" x2="57.3116" y2="2041.1688" gradientTransform="matrix(0.9746 -0.1024 0.1024 0.9746 -36.483 -1930.249)">
		<stop  offset="0" style="stop-color:#655966"/>
		<stop  offset="0.35" style="stop-color:#615365"/>
		<stop  offset="1" style="stop-color:#555365"/>
	</linearGradient>
	<path class="st20" d="M148.8,51.6c3.2-21.7,23.5-36.8,45.2-33.5s36.8,23.5,33.5,45.2C224.3,85,204,100,182.3,96.8
		S145.6,73.4,148.8,51.6z"/>
	
		<linearGradient id="SVGID_20_" gradientUnits="userSpaceOnUse" x1="20.9983" y1="2072.5579" x2="102.0866" y2="2072.5579" gradientTransform="matrix(0.977 -7.654888e-02 7.654888e-02 0.977 -30.779 -1962.4781)">
		<stop  offset="0" style="stop-color:#5F5B6A"/>
		<stop  offset="0.35" style="stop-color:#5C5769"/>
		<stop  offset="1" style="stop-color:#535669"/>
	</linearGradient>
	<path class="st21" d="M148.7,51.9c3.2-21.7,23.4-36.7,45.1-33.5s36.7,23.4,33.5,45.1s-23.4,36.7-45.1,33.5l0,0
		C160.5,93.8,145.5,73.6,148.7,51.9z"/>
	
		<linearGradient id="SVGID_21_" gradientUnits="userSpaceOnUse" x1="61.1444" y1="2077.8735" x2="141.5844" y2="2077.8735" gradientTransform="matrix(0.99 -5.000000e-02 5.000000e-02 0.99 -15.93 -1994.1)">
		<stop  offset="0" style="stop-color:#595D6D"/>
		<stop  offset="0.35" style="stop-color:#565A6D"/>
		<stop  offset="1" style="stop-color:#515A6D"/>
	</linearGradient>
	<path class="st22" d="M148.6,52.1c3.2-21.7,23.4-36.6,45.1-33.4s36.6,23.4,33.4,45.1s-23.4,36.6-45.1,33.4l0,0
		C160.4,94,145.4,73.8,148.6,52.1z"/>
	
		<linearGradient id="SVGID_22_" gradientUnits="userSpaceOnUse" x1="108.093" y1="2111.1675" x2="187.863" y2="2111.1675" gradientTransform="matrix(0.9897 -2.539699e-02 2.539699e-02 0.9897 -12.5324 -2027.4088)">
		<stop  offset="0" style="stop-color:#525F71"/>
		<stop  offset="0.35" style="stop-color:#515D71"/>
		<stop  offset="1" style="stop-color:#4E5D71"/>
	</linearGradient>
	<path class="st23" d="M148.6,52.4c3.2-21.6,23.4-36.6,45-33.3s36.6,23.4,33.3,45c-3.2,21.6-23.4,36.6-45,33.3
		C160.3,94.2,145.4,74,148.6,52.4L148.6,52.4z"/>
	<path class="st24" d="M148.5,52.7c3.2-21.6,23.3-36.5,44.9-33.3s36.5,23.3,33.3,44.9s-23.3,36.5-44.9,33.3l0,0
		C160.2,94.4,145.3,74.3,148.5,52.7L148.5,52.7z"/>
	<path class="st25" d="M148.5,52.7c3.2-21.6,23.3-36.5,44.9-33.3s36.5,23.3,33.3,44.9s-23.3,36.5-44.9,33.3l0,0
		C160.2,94.4,145.3,74.3,148.5,52.7L148.5,52.7z"/>
	<path class="st25" d="M150,52.9c3.1-20.8,22.4-35.1,43.2-32s35.1,22.4,32,43.2c-3.1,20.7-22.4,35-43.2,32
		C161.2,93,146.9,73.7,150,52.9L150,52.9z"/>
	<path class="st26" d="M181.5,39l-0.5,1c-1.5-1.6-3.1-3-4.9-4.2c-0.7,0.8-1.4,1.6-2.2,2.2h4.5v1h-4.5v-0.9c-1.1,0.9-2.2,1.7-3.3,2.4
		l-0.5-1c2.3-1.3,4.3-3.1,5.9-5.2l1.1,0.3c0,0.1-0.1,0.2-0.2,0.3C178.4,36.2,180.1,37.5,181.5,39z M180.2,53.8h-1v-1.1h-5.6v1.1h-1
		V49c-0.2,1.7-0.8,3.4-1.8,4.8l-0.7-0.7c1.3-2.3,1.9-5,1.8-7.7v-5.1h8.4v6.1h-7.4c0,0.4-0.1,0.9-0.2,1.7h7.5V53.8z M179.2,42.8v-1.4
		h-6.3v1.5L179.2,42.8z M179.2,45.4v-1.5h-6.3v1.5H179.2z M179.2,51.6v-2.5h-5.6v2.5H179.2z M186.8,51.9c0,0.4-0.1,0.9-0.3,1.2
		c-0.3,0.4-0.7,0.6-1.1,0.6c-0.6,0-1.1,0-1.7,0h-0.8l-0.4-1.2c0.9,0,1.8,0,2.8,0c0.2,0,0.3-0.1,0.4-0.3c0.1-0.2,0.2-0.3,0.2-0.5
		V34.6h1L186.8,51.9C186.9,51.9,186.8,51.9,186.8,51.9z M183.4,49.7h-1V35.6h1V49.7z"/>
	<path class="st26" d="M191.1,47.6c-0.5,1.6-1.3,3.1-2.3,4.5l-0.9-0.7c0.9-1.3,1.7-2.8,2.2-4.3L191.1,47.6z M197.1,45.8h-4v8.1h-1
		v-8.1h-4v-1.1h4v-2.2h-3.8v-1.1h2.4c-0.2-1.1-0.6-2.2-1-3.3l0.7-0.5h-2v-1.1h3.7c-0.2-0.6-0.5-1.1-0.8-1.6l1-0.5
		c0.4,0.6,0.7,1.3,1,2h3.5v1.1h-1.6l0.7,0.5c-0.3,1.1-0.8,2.2-1.2,3.3h2.3v1.1h-3.8v2.2h4L197.1,45.8z M194.8,37.7h-4.1
		c0.5,1.2,0.8,2.5,1.1,3.8h1.7C194,40.2,194.5,39,194.8,37.7z M196.5,50l-0.9,0.6c-0.4-1.1-0.8-2.1-1.4-3.1L195,47
		C195.6,47.9,196.1,49,196.5,50z M205.2,42.8h-2.1v11.1h-1V42.8h-3c0,4.9-0.8,8.6-2.5,11.2l-0.8-0.7c0.8-1.4,1.4-2.9,1.8-4.4
		c0.4-1.9,0.6-3.9,0.6-5.9v-6.6c2.1-0.3,4.2-0.9,6.1-1.9l0.8,0.9c-1.9,0.9-3.8,1.6-5.9,1.9v4.3h6.1L205.2,42.8z"/>
	<path class="st26" d="M173,73.2c-0.5,2-1.3,3.9-2.4,5.6l-1-0.6c1-1.7,1.8-3.5,2.3-5.3L173,73.2z M185.3,71.2h-13.6v-9.6h13.6V71.2z
		 M178,65.8v-3.1h-5.2v3.1H178z M178,70.1v-3.2h-5.2v3.2H178z M183.4,76.4c0,1-0.2,1.9-0.6,2.8c-0.2,0.4-0.5,0.7-0.9,0.8
		c-1,0.1-1.9,0.2-2.9,0.1c-1,0-1.9,0-2.9-0.1c-0.3-0.1-0.6-0.2-0.8-0.5s-0.4-0.7-0.3-1.2v-5.8h1v5.7c0,0.3,0.1,0.6,0.4,0.7
		c0.9,0.1,1.8,0.2,2.7,0.2s1.7,0,2.6-0.1c0.2-0.1,0.4-0.5,0.5-1.2c0.1-0.6,0.2-1.2,0.2-1.8L183.4,76.4z M180.6,75.3l-0.9,0.6
		c-0.6-1.2-1.3-2.4-2.1-3.4l0.9-0.6C179.3,73,180,74.1,180.6,75.3z M184.2,65.8v-3.1H179v3.1H184.2z M184.2,70.2v-3.3H179v3.2
		L184.2,70.2z M187.2,77.9l-0.8,0.7c-0.9-1.9-2-3.6-3.3-5.3l1-0.5C185.3,74.4,186.4,76.1,187.2,77.9L187.2,77.9z"/>
	<path class="st26" d="M190.3,75.2c-0.1,1.8-0.5,3.6-1.2,5.2l-0.9-0.5c0.6-1.6,1-3.2,1.1-4.9L190.3,75.2z M195.3,73.7l-1,0.4
		c-0.1-0.3-0.2-0.8-0.3-1.3c-1.8,0.6-3.6,1.1-5.4,1.5l-0.3-1c1.5-1.6,2.7-3.4,3.8-5.3c-1.2,0.3-2.3,0.6-3.6,0.7l-0.3-1
		c1.4-2.2,2.6-4.5,3.6-6.8l1,0.5c-1,2.1-2,4.1-3.3,6c1.1-0.2,2.2-0.4,3.3-0.8c0.4-0.7,0.9-1.6,1.4-2.6l0.9,0.6
		c-1.5,3-3.2,5.7-5.3,8.3c1.3-0.3,2.6-0.7,3.8-1.1l-0.5-1.3l0.9-0.4C194.7,71.2,195.1,72.4,195.3,73.7z M192.8,79.6l-1,0.2
		c0-1.5-0.2-3-0.5-4.5l1-0.2C192.7,76.6,192.9,78.1,192.8,79.6z M195.5,78.6l-0.9,0.3c-0.2-1.3-0.5-2.6-1-3.8l0.9-0.3
		C195,76,195.4,77.3,195.5,78.6L195.5,78.6z M205.5,79h-7.9v1.3h-1V67.8c-0.1,0.2-0.5,0.8-1.1,1.8l-0.9-0.6c1.6-2.5,2.8-5.2,3.6-8
		l0.9,0.3c-0.4,1.3-0.8,2.6-1.3,3.8h3.5c-0.3-1.2-0.7-2.4-1.2-3.5l0.9-0.4c0.5,1.2,1,2.5,1.3,3.9h2.9v1.1h-3.4v2.9h3v1.1h-3v3.2h3
		v1.1h-3v3.4h3.6L205.5,79z M200.8,69.1v-2.9h-3.2v2.9H200.8z M200.8,73.4v-3.2h-3.2v3.2H200.8z M200.8,77.9v-3.5h-3.2v3.5H200.8z"
		/>
	<path class="st27" d="M176.5,152.4c0,2-1.6,3.7-3.7,3.7s-3.7-1.6-3.7-3.7s1.6-3.7,3.7-3.7l0,0C174.9,148.8,176.5,150.4,176.5,152.4
		z"/>
</g>
<g>
	<path class="st28" d="M114.7,82.2l-0.8,1c-2.3-1.4-4.2-3.2-5.8-5.4c-1.6-2.3-2.7-4.8-3.2-7.6c-0.9,5.3-4,9.5-9.2,12.8l-0.8-1
		c1.4-0.9,2.7-1.9,3.8-3c1.2-1.1,2.2-2.4,3.1-3.7c0.9-1.7,1.6-3.5,1.9-5.4h-8.3v-1.2h8.6c0.2-1.8,0.4-3.6,0.4-5.5h1.3
		c-0.1,2-0.2,3.8-0.4,5.5h9.2V70h-8.3c0.6,2.7,1.7,5.3,3.3,7.5C110.8,79.4,112.6,81,114.7,82.2z"/>
	<path class="st28" d="M123.6,81.7c0,0.3-0.1,0.6-0.2,0.9c-0.1,0.2-0.3,0.3-0.5,0.4c-0.4,0.1-0.9,0.1-1.3,0.1c-0.2,0-0.4,0-0.6,0
		l-0.4-1.1c0.3,0,0.8,0,1.6,0c0.2,0,0.3-0.1,0.3-0.4v-6.9c-1.3,1.5-2.2,2.4-2.6,2.9l-0.6-0.7c0,2.2-0.4,4.3-1,6.4l-1-0.8
		c0.6-2.2,0.9-4.5,0.9-6.8V64h5.4L123.6,81.7z M122.5,69.9v-4.8h-3.2v3.1l0.4-0.5C120.7,68.4,121.7,69.1,122.5,69.9z M122.5,70.3
		l-0.4,0.7c-0.8-0.8-1.8-1.6-2.7-2.2v7.8c1.1-1.1,2.2-2.3,3.2-3.5L122.5,70.3z M137.1,68.2H134v1.4c0,0.1,0.1,0.2,0.1,0.3
		c0.1,0.1,0.2,0.1,0.3,0.1h2.4v1h-2.6c-0.3,0-0.6-0.1-0.9-0.4c-0.2-0.2-0.4-0.5-0.4-0.9v-1.6h-2.1c-0.4,1.5-1.3,2.7-2.7,3.4
		l-0.8-0.9c1.1-0.4,2-1.4,2.3-2.5h-3v5.1c0,4.4-0.5,7.7-1.6,9.9l-0.9-0.7c1.1-2.6,1.5-5.3,1.4-8.1V68c-0.2,0.2-0.5,0.3-0.7,0.5
		l-0.7-0.9c1.8-1,3.3-2.5,4.3-4.4l1,0.4c-0.1,0.3-0.3,0.6-0.5,0.8h5.8v1.1c-0.4,0.5-0.9,1.1-1.3,1.6h3.8L137.1,68.2z M133.2,65.6h-5
		c-0.4,0.6-1,1.1-1.5,1.6h4.9C132.2,66.7,132.8,66.1,133.2,65.6z M136.9,73.3h-9.6v-1.1h4c-0.2-0.5-0.4-1-0.6-1.5l1.1-0.4
		c0.3,0.6,0.5,1.2,0.7,1.9h4.5L136.9,73.3z M136.2,83.2h-1.1v-1h-5.9v1h-1.1v-4.6h8.1V83.2z M136.2,75.4h-8.1v-1h8.1V75.4z
		 M136.2,77.4h-8.1v-1h8.1V77.4z M135,81.1v-1.5h-5.8v1.5H135z"/>
	<path class="st28" d="M158.5,70.2h-1.2v-3.4H142v3.4h-1.2v-4.4h8.3v-2.4h1.2v2.4h8.3v4.4H158.5z M158.5,75.6h-15.2
		c-0.4,0-0.7-0.1-1-0.4c-0.3-0.3-0.4-0.6-0.4-1v-3h1.1v1.3h13.8v0.9h-13.7v0.8c0,0.3,0.1,0.5,0.4,0.5h14.9v0.9H158.5z M156.9,83.1
		h-1.2v-0.9h-12.1v0.9h-1.1v-6.2h14.4V83.1z M146.3,64.9l-1.2,0.4c-0.6-0.5-1.2-1-1.8-1.4l1.1-0.5C145.2,63.8,145.8,64.3,146.3,64.9
		z M155.7,79.1v-1.2h-12.1v1.2H155.7z M155.7,81.3V80h-12.1v1.3H155.7z M155.4,71.3h-11.3v-3.2h11.3V71.3z M154.3,70.3V69h-9.2v1.3
		H154.3z M156.2,63.9c-0.6,0.6-1.2,1-1.8,1.5l-1.2-0.6c0.7-0.4,1.3-0.9,1.8-1.4L156.2,63.9z"/>
	<path class="st28" d="M169.4,67h-7v-1.1h3.1c-0.2-0.8-0.5-1.5-0.9-2.3l1.1-0.4c0.4,0.8,0.8,1.7,1.1,2.6h2.7L169.4,67z M169,70.2h-6
		v-1.1h6V70.2z M169,73.5h-6v-1.1h6V73.5z M168.7,82.6h-1.1v-1.1h-3.1v1.7h-1.3v-7.5h5.5V82.6z M167.5,80.4v-3.6h-3.1v3.6H167.5z
		 M176.5,79.5c-2.3,0.9-4.5,1.7-6.7,2.3l-0.3-1.1c1-0.3,2-0.6,2.9-0.9v-7h-2.2v-1.1h5.7v1.1h-2.4v6.6c0.8-0.3,1.8-0.6,2.9-1
		L176.5,79.5z M182.1,78.8c-0.5,2.9-1.2,4.3-2.1,4.3c-0.5,0-0.9-0.3-1.1-0.8c-0.5-1.1-0.9-2.3-1.2-3.6c-0.6-3.3-0.9-6.7-0.9-10.1
		h-6.6v-1.1h6.6c0-1.4,0-2.8,0-4.2h1.1v4.2h3.9v1.1h-3.9c-0.1,3.4,0.3,6.9,0.9,10.2c0.5,1.9,0.9,2.9,1.1,2.9s0.3-0.3,0.5-0.9
		c0.3-0.9,0.5-1.9,0.6-2.8L182.1,78.8z M181.6,66.2l-0.9,0.6c-0.5-0.8-1.1-1.6-1.8-2.3l0.8-0.6C180.5,64.5,181.2,65.3,181.6,66.2
		L181.6,66.2z"/>
	<path class="st28" d="M194.3,75.4c-0.5-0.2-0.8-0.6-0.8-1.1c0-0.2,0.1-0.5,0.3-0.7c0.2-0.2,0.5-0.3,0.8-0.3c0.7,0,1.1,0.5,1.1,1.4
		c-0.1,0.9-0.6,1.7-1.3,2.2l-0.5-0.4C194.1,76.2,194.3,75.8,194.3,75.4z"/>
	<path class="st28" d="M209.6,77.8c-0.2,1.8-0.6,3.6-1.2,5.3l-1-0.4c0.6-1.6,1-3.3,1.3-5.1L209.6,77.8z M215.2,76.2l-1,0.4l-0.4-1.1
		c-2.6,0.7-4.6,1.2-6,1.4l-0.3-0.9c1.5-1.8,3-3.6,4.3-5.5c-0.9,0.2-2.2,0.4-4,0.6l-0.1-1c1.7-2,3.1-4.3,4.2-6.7l1,0.5
		c-0.9,2.1-2.1,4.1-3.5,5.9c1.4-0.1,2.5-0.3,3.2-0.4c0.5-0.7,0.9-1.4,1.3-2.1l1.1,0.5c-1.6,2.7-3.5,5.3-5.7,7.7
		c1.4-0.3,2.8-0.6,4.2-1c-0.2-0.5-0.4-1-0.7-1.5l0.9-0.4C214.3,73.8,214.8,75,215.2,76.2z M212.6,82.4l-1.1,0.1
		c-0.1-1.5-0.3-3.1-0.6-4.6l1.1-0.3C212.3,79.2,212.5,80.8,212.6,82.4z M215.4,80.4l-1.1,0.3c-0.2-1.1-0.4-2.1-0.8-3.1l1-0.3
		C214.9,78.3,215.1,79.3,215.4,80.4L215.4,80.4z M226.9,66.5h-3l0.9,0.6c-0.4,0.9-0.7,1.9-1.1,2.8h2.9v3.4h-1.2V71h-3.9v3.2h4.2v5.6
		c0,0.4-0.2,0.7-0.5,1s-1.2,0.4-2.7,0.3l-0.4-1h1.4c0.3,0,0.6,0,0.8-0.1c0.1-0.1,0.2-0.3,0.2-0.4v-4.3h-3.1v7.9h-1.1v-7.9h-3v6.2
		h-1.1v-7.2h4.1V71h-3.9v2.3h-1.1v-3.4h3.1c-0.1-0.4-0.6-1.3-1.2-2.8l0.9-0.6h-3v-1.1h5.1c-0.1-0.6-0.3-1.2-0.6-1.7l1.1-0.4
		c0.3,0.7,0.5,1.4,0.6,2.1h5.6L226.9,66.5z M223.6,66.5h-5.4c0.6,1.1,1,2.2,1.4,3.4h2.8C222.9,68.8,223.3,67.6,223.6,66.5
		L223.6,66.5z"/>
	<path class="st28" d="M249.6,81.5l-0.3,1.2c-0.8,0-3.4,0-8.1,0c-3.8,0-6.5-0.8-8.1-2.5c-0.8,1.1-1.6,2.1-2.6,3l-0.9-0.8
		c2.2-1.9,3.7-4.4,4.4-7.2h-3.7v-1c1-1.3,2.2-2.8,3.5-4.6h-3.9v-1.2h5.4v1.2c-0.7,0.9-1.8,2.4-3.4,4.5h3.4v1.1
		c-0.4,1.4-0.9,2.8-1.6,4.1c0.7,0.7,1.6,1.2,2.5,1.6c0.9,0.3,1.9,0.5,2.8,0.6c1,0.1,3,0.1,6,0.1C247.3,81.6,248.8,81.6,249.6,81.5z
		 M234.5,66.8l-0.9,0.8c-1-1.2-2.1-2.4-3.3-3.3l0.8-0.8C232.4,64.4,233.6,65.5,234.5,66.8z M249.3,71.9H236v-1.1h6.2v-3.2h-3.6
		c-0.7,1-1.1,1.7-1.4,2.1l-1-0.6c1.2-1.6,2.2-3.3,2.8-5.3l1.1,0.3c-0.2,0.8-0.5,1.6-0.9,2.4h3.1v-3h1.1v3h4.9v1.1h-4.9v3.2h6v1.1
		H249.3z M248,79.2h-10.2v-5.4H248V79.2z M246.8,78.1v-3.2h-7.9v3.2H246.8z"/>
	<path class="st28" d="M256.5,78.3c-0.9,1.7-2,3.3-3.2,4.8l-0.9-0.7c1.2-1.4,2.3-2.9,3.1-4.6L256.5,78.3z M272,77h-19.5v-1.1h3.3V72
		h-2.9v-1.2h2.9V68h1.1v2.7h2.9V68h1.1v2.7h2.9V68h1.1v2.7h3V68h1.1v2.7h2.4V72H269v3.8h2.9L272,77z M271.2,67.2h-15.4
		c-0.7,0.8-1.5,1.4-2.3,2l-0.9-0.8c1.9-1.4,3.5-3,4.9-4.9l1.2,0.4c-0.5,0.7-1.1,1.5-1.8,2.3h14.3V67.2z M259.8,75.8V72h-2.9v3.8
		H259.8z M260.7,82.8l-1.1,0.2c-0.1-1.7-0.3-3.3-0.7-4.9l1.1-0.3C260.4,79.5,260.6,81.2,260.7,82.8L260.7,82.8z M263.9,75.8V72H261
		v3.8H263.9z M266.3,82.7l-1.1,0.4c-0.4-1.7-1-3.3-1.8-4.8l1.1-0.4C265.3,79.4,265.9,81,266.3,82.7z M268,75.8V72h-3v3.8H268z
		 M271.9,82.6l-1,0.5c-0.7-1.7-1.7-3.3-2.8-4.7l1.1-0.5C270.3,79.3,271.2,80.9,271.9,82.6L271.9,82.6z"/>
	<path class="st28" d="M280.1,70.3c1.2,1.5,1.9,3.4,2,5.3c0.1,0.8-0.2,1.6-0.8,2.2c-0.5,0.5-1.6,0.7-3.1,0.7l-0.5-1.2
		c0.4,0,0.8,0,1.1,0c0.6,0.1,1.2-0.1,1.7-0.4c0.3-0.4,0.5-0.9,0.4-1.5c-0.1-1.8-0.8-3.5-2-4.9c0.5-1.2,1.1-3.1,1.8-5.4h-3.6v18H276
		V64h5.8v1.2C281.2,66.9,280.7,68.6,280.1,70.3z M293.1,72.9h-8.2v8.7c1.3-0.4,2.5-0.8,3.7-1.3l0.1,1.2c-1.5,0.6-3.1,1.1-4.7,1.6
		l-0.5-1.1c0.2-0.2,0.3-0.4,0.3-0.6V64h9.4v8.9H293.1z M291.9,67.8v-2.6H285v2.6H291.9z M291.9,71.8v-2.9H285v2.8L291.9,71.8z
		 M294.9,82.2l-0.8,1c-3.1-1.9-5.4-4.9-6.4-8.4l1.1-0.5c0.3,1,0.7,1.9,1.1,2.8c1.3-0.8,2.4-1.8,3.4-2.9l0.9,0.8
		c-1.2,1.2-2.4,2.2-3.8,3.2C291.5,79.9,293.1,81.3,294.9,82.2L294.9,82.2z"/>
	<path class="st28" d="M316.8,65.1h-2.5v16.5c0,0.4-0.2,0.9-0.5,1.1c-0.4,0.3-0.8,0.4-1.3,0.4c-2,0-3.3,0-4,0l-0.4-1.3
		c0.9,0.1,2.4,0.1,4.3,0.1c0.5,0,0.7-0.2,0.7-0.7V65.1h-15.9v-1.2h19.5L316.8,65.1L316.8,65.1z M309.2,77.9h-9.5v-9.1h9.5V77.9z
		 M308.1,76.8V70H301v6.8H308.1z"/>
	<path class="st28" d="M330.3,69.3l-0.9,0.8c-0.3-0.5-0.5-0.9-0.9-1.3c-2.7,0.4-5.5,0.7-8.4,0.8l-0.4-1c1.6-1.4,2.8-3.1,3.6-5
		l1.2,0.3c-0.7,1.7-1.7,3.2-2.9,4.6c2.3-0.2,4.4-0.4,6.2-0.7c-0.6-0.8-1.2-1.5-1.9-2.1l1-0.6C328.3,66.2,329.4,67.7,330.3,69.3z
		 M328.9,81.8c0,0.4-0.1,0.7-0.4,1c-0.2,0.2-0.6,0.4-0.9,0.4c-0.3,0-1,0-2.1,0L325,82h1c0.5,0,0.9,0,1.4,0c0.2,0,0.3-0.2,0.3-0.4V78
		c-2.2,1-3.9,1.7-5.3,2.2l-0.5-0.8c-0.2,1.3-0.5,2.6-1.1,3.8l-1-0.6c0.7-1.7,1-3.5,1-5.4v-6h8.1V81.8z M327.7,76.7v-4.4H322v1.6
		c1.7,0.3,3.3,0.8,4.9,1.3l-0.5,1c-1.4-0.5-2.9-0.9-4.3-1.2v2.2c0,0.6,0,1.2-0.1,1.8C323.9,78.4,325.8,77.6,327.7,76.7L327.7,76.7z
		 M339.3,79.3c0,0.9-0.2,1.7-0.5,2.5c-0.2,0.4-0.5,0.8-0.9,1c-0.6,0.2-1.2,0.3-1.8,0.2h-3.4c-0.4,0-0.9-0.1-1.2-0.4
		c-0.3-0.3-0.5-0.7-0.5-1.2v-8.5h1.2v3.3h6.5v1.1h-6.5v4c0,0.4,0.3,0.6,0.8,0.6c2.3,0,3.6,0,3.9,0s0.6-0.2,0.8-0.4
		c0.3-0.8,0.5-1.6,0.5-2.4L339.3,79.3z M339.1,72h-6.5c-0.4,0-0.7-0.1-1-0.4c-0.2-0.3-0.4-0.6-0.4-1v-7h1.2v2.8h6.4v1.1h-6.4v2.9
		c0,0.4,0.2,0.5,0.6,0.5h6.2L339.1,72z"/>
	<path class="st28" d="M344.5,68.4c-0.2,1.8-0.6,3.7-1.1,5.4l-1.1-0.3c0.5-1.7,0.9-3.5,1.1-5.3L344.5,68.4z M349.3,70.5l-0.7,0.9
		c-0.6-0.7-1.2-1.3-1.8-1.9v13.6h-1.2V63.4h1.2V68C347.7,68.8,348.6,69.6,349.3,70.5z M361.8,82.6h-12.9v-1.2h6.3v-5.9H350v-1.1h5.2
		v-5h-3.3c-0.5,1.4-1.2,2.6-2,3.8l-1-0.6c1.4-2.4,2.4-5.1,2.9-7.8l1.2,0.3c-0.2,1.1-0.4,2.1-0.8,3.2h2.9v-4.7h1.2v4.8h4.9v1.2h-4.9
		v5h4.4v1.1h-4.4v5.9h5.3L361.8,82.6z"/>
</g>
</svg>
