<?xml version="1.0" encoding="utf-8"?>
<!-- Generator: Adobe Illustrator 24.1.1, SVG Export Plug-In . SVG Version: 6.00 Build 0)  -->
<svg version="1.1" id="圖層_1" xmlns="http://www.w3.org/2000/svg" xmlns:xlink="http://www.w3.org/1999/xlink" x="0px" y="0px"
	 viewBox="0 0 120 160" style="enable-background:new 0 0 120 160;" xml:space="preserve">
<style type="text/css">
	.st0{display:none;}
	.st1{display:inline;fill:#CF121B;}
	.st2{fill-rule:evenodd;clip-rule:evenodd;fill:#5F7696;}
	.st3{fill-rule:evenodd;clip-rule:evenodd;fill:url(#SVGID_1_);}
	.st4{fill:url(#SVGID_2_);}
	.st5{fill:url(#SVGID_3_);}
	.st6{fill:url(#SVGID_4_);}
	.st7{fill:url(#SVGID_5_);}
	.st8{fill:url(#SVGID_6_);}
	.st9{fill:url(#SVGID_7_);}
	.st10{fill:url(#SVGID_8_);}
	.st11{fill:url(#SVGID_9_);}
	.st12{fill:url(#SVGID_10_);}
	.st13{fill:url(#SVGID_11_);}
	.st14{fill:url(#SVGID_12_);}
	.st15{fill:url(#SVGID_13_);}
	.st16{fill:url(#SVGID_14_);}
	.st17{fill:url(#SVGID_15_);}
	.st18{fill:url(#SVGID_16_);}
	.st19{fill:url(#SVGID_17_);}
	.st20{fill:url(#SVGID_18_);}
	.st21{fill:url(#SVGID_19_);}
	.st22{fill:url(#SVGID_20_);}
	.st23{fill:url(#SVGID_21_);}
	.st24{fill:url(#SVGID_22_);}
	.st25{fill:#4C6075;}
	.st26{fill:#FFFFFF;}
	.st27{fill:#211513;}
	.st28{fill-rule:evenodd;clip-rule:evenodd;fill:#AD181C;}
</style>
<g id="圖層_2_1_" class="st0">
	<path class="st1" d="M-92.3,67.4h-6.6v13.2h-1.1V61.5h7.8L-92.3,67.4L-92.3,67.4z M-93.5,63.9v-1.3H-99v1.3H-93.5z M-93.5,66.3
		v-1.4H-99v1.4H-93.5z M-91.7,73.4l-0.9,0.4l-0.3-0.6l-4.6,0.6l-0.3-0.9c1-0.6,1.9-1.3,2.8-2.1l-2.6,0.3l-0.3-0.9
		c1.1-0.7,2.2-1.6,3-2.7l1.1,0.5c-0.6,0.7-1.3,1.4-2.1,2l2-0.3c0.4-0.3,0.8-0.7,1.1-1.1l1,0.5c-1.3,1.3-2.6,2.5-4,3.6l2.5-0.3
		c-0.1-0.2-0.3-0.5-0.4-0.7l0.9-0.4C-92.4,72-92,72.7-91.7,73.4z M-92.4,75.4c0.1,1.2-0.2,2.3-0.9,3.2c-0.8,0.8-1.8,1.3-2.9,1.5
		l-0.7-1c2-0.4,3.1-1.2,3.4-2.3H-97v-2.6h1.1V76h2.5c0-0.3,0.1-0.5,0.1-0.8v-1h1.1L-92.4,75.4z M-84.4,73.3l-0.9,0.6l-0.5-0.7
		l-5.3,0.5l-0.2-0.9c1-0.5,1.8-1.2,2.6-1.9l-2.6,0.3l-0.3-0.8c1.1-0.7,2.1-1.5,2.9-2.6l1.1,0.5c-0.6,0.7-1.2,1.3-1.9,1.9l1.9-0.2
		c0.2-0.2,0.5-0.5,1-0.9l0.9,0.4c-1.1,1.2-2.3,2.2-3.6,3.2l2.7-0.3c-0.2-0.3-0.4-0.5-0.6-0.7l0.9-0.5
		C-85.5,71.8-84.9,72.6-84.4,73.3L-84.4,73.3z M-86,77h-3.7v3.1h-1.1v-5.9h1.1V76h2.6v-1.7h1.1V77L-86,77z M-82.5,79.3
		c0,0.4-0.1,0.7-0.4,1c-0.2,0.2-0.6,0.4-0.9,0.4c-1.2,0-1.9,0-2.1,0l-0.5-1.2c0.5,0,1,0.1,1.4,0.1s0.8,0,1.2-0.1
		c0.1-0.1,0.2-0.2,0.2-0.4V67.4h-6.7v-5.9h7.8V79.3z M-83.6,63.9v-1.3h-5.5v1.3H-83.6z M-83.6,66.3v-1.4h-5.5v1.4H-83.6z"/>
	<path class="st1" d="M-73.4,72.9c-1.2,2.7-2.7,5.3-4.4,7.8l-0.9-0.8c1.7-2.4,3.1-5,4.3-7.7L-73.4,72.9z M-73.6,69.1l-0.7,0.9
		c-1.3-1-2.7-2-4.1-2.8l0.7-1C-76.2,67-74.8,68-73.6,69.1L-73.6,69.1z M-73,63.9l-0.9,0.9c-1.2-1.1-2.5-2.1-3.9-3l0.7-0.9
		C-75.6,61.8-74.3,62.8-73,63.9L-73,63.9z M-59.1,80h-14.4v-1.1h6.9v-6.4h-5.2v-1.2h5.2v-5.4h-5.8v-1.2h6c-0.4-1.2-0.9-2.4-1.5-3.5
		l1.2-0.3c0.6,1.2,1.1,2.5,1.5,3.8h5.9v1.2h-6.2v5.4h5.4v1.2h-5.4v6.4h6.4V80z"/>
	<path class="st1" d="M-36.6,70.2h-16.5v2.2c0,3.8-0.8,6.6-2.3,8.3l-0.8-0.8c0.7-0.9,1.2-1.8,1.5-2.9s0.5-2.2,0.5-3.3V69h17.7
		L-36.6,70.2L-36.6,70.2z M-37.1,64h-3.4c-0.7,0.8-1.5,1.6-2.4,2.2c1.6,0.4,3.2,0.9,4.8,1.5l-0.6,0.9c-1.8-0.7-3.7-1.3-5.6-1.7
		c-2.5,1-5.3,1.6-8,1.6l-0.4-1c2.2-0.1,4.4-0.4,6.6-1c-1.7-0.4-3.5-0.7-5.3-1l0.5-0.9c2.3,0.4,4.5,0.8,6.4,1.3
		c0.9-0.5,1.7-1.1,2.4-1.8h-12.8V63h8.4c-0.3-0.6-0.6-1.1-1-1.6l1.1-0.5c0.5,0.6,0.9,1.3,1.2,2h8.1V64z M-36.8,80h-16.1v-1h7.7v-2.2
		h-5.5v-1.1h5.5v-2H-50c-0.5,0.7-1.1,1.3-1.7,1.9l-0.7-1c1.2-1.1,2.2-2.4,2.9-3.9l1.1,0.3c-0.2,0.5-0.5,1-0.8,1.5h4.1v-1.8h1.1v1.8
		h6.2v1.1H-44v2h5.7v1.1H-44V79h7.3L-36.8,80L-36.8,80z"/>
	<path class="st1" d="M-14.1,74.9h-9.1v5.7h-1.2v-5.7h-9.2v-1.1h9.2V72h-8.3v-1h8.3v-1.8h-8.7v-1.1h5.9c-0.3-0.6-0.8-1.2-1.3-1.8
		l0.9-0.5h-6v-1.1h7.4V61h1.2v3.6h2.5V61h1.1v3.6h7.3v1.1H-20l0.8,0.6c-0.3,0.6-0.7,1.2-1.1,1.7h5.7v1.1h-8.6v1.8h8.1v1h-8.1v1.8
		h9.1V74.9z M-26.4,76.6c-2,1.5-4.1,2.6-6.5,3.4l-0.8-1c2.3-0.7,4.4-1.8,6.3-3.2L-26.4,76.6z M-28.5,63.6l-1,0.6
		c-0.7-0.8-1.4-1.6-2.2-2.3l1-0.7C-29.9,61.9-29.2,62.7-28.5,63.6z M-20.3,65.8h-7.1c0.6,0.7,1.1,1.5,1.5,2.3h4.2
		C-21.1,67.4-20.6,66.6-20.3,65.8z M-14.1,79.4l-0.7,0.9c-2.1-1.4-4.3-2.6-6.6-3.6l0.7-0.9C-18.4,76.8-16.2,78-14.1,79.4z
		 M-15.9,61.7c-0.6,0.9-1.4,1.7-2.3,2.3l-1-0.6c0.8-0.7,1.6-1.4,2.3-2.3L-15.9,61.7z"/>
	<path class="st1" d="M-4.8,78.8c0,1.2-0.7,1.8-2,1.8c-0.2,0-0.4,0-0.8,0L-8,79.4h1.4c0.2,0,0.3-0.1,0.4-0.2C-6.1,79.1-6,79-6,78.8
		v-6.9c-0.9,1-1.7,2-2.7,2.9l-0.6-0.7c0,2.2-0.4,4.5-1,6.6l-1.1-0.9c0.6-1.8,1-3.8,1-5.7c0.1-2.3,0.1-4.3,0.1-6.2v-6.5h5.5V78.8z
		 M-5.9,68l-0.6,0.6C-7.3,67.8-8.1,67-9,66.3v1.4c0,2.8,0,4.8-0.1,6c1.2-1.1,2.3-2.3,3.3-3.6L-5.9,68L-5.9,68z M-5.9,67.7v-5H-9v3.5
		l0.6-0.7C-7.6,66.1-6.7,66.9-5.9,67.7z M6.9,61.9c-2.7,1.2-5.6,1.9-8.5,2.1v7.1c0.1,3.3-0.5,6.5-1.6,9.6l-1.1-0.5
		c1.1-2.9,1.6-5.9,1.5-9V63c3-0.1,6-0.8,8.8-2L6.9,61.9z M7.3,65.7c-2,0.9-4,1.5-6.2,1.9v11.3C2,78.4,2.9,78,3.7,77.5L4,78.6
		c-1.3,0.8-2.7,1.5-4.1,2.2l-0.4-1c0.3-0.3,0.4-0.7,0.4-1.1v-12c2.3-0.2,4.5-0.9,6.6-1.8L7.3,65.7z M8.4,79.9l-0.9,0.9
		c-2.6-2.7-4.1-6.6-4.4-11.6l1.1-0.3c0.1,1.1,0.3,2.3,0.5,3.4c1-0.9,1.8-1.9,2.6-2.9l0.9,0.7c-1,1.3-2.1,2.4-3.3,3.5
		C5.5,75.9,6.7,78.1,8.4,79.9L8.4,79.9z"/>
	<path class="st1" d="M22.1,61.9c-1.5,0.4-3,0.7-4.5,0.8v1.8h4.5v1.1h-4.5v1.7h4.1v6.5h-4.1v1.6h4.1v1.1h-4.1v2.3
		c1.3-0.1,2.7-0.3,4.1-0.5v1.1c-4,0.5-7.4,0.9-10.2,1.2l-0.3-1.2c1.6-0.1,3.4-0.3,5.3-0.5v-2.4h-4.1v-1.1h4.1v-1.6h-4.1v-6.5h4.1
		v-1.7h-4.9v-1.1h4.9v-1.6c-1.2,0.1-2.6,0.2-4.1,0.2l-0.4-1c3.2,0.1,6.4-0.3,9.6-1.1L22.1,61.9z M16.5,69.9v-1.6h-3v1.6H16.5z
		 M16.5,72.7V71h-3v1.7H16.5z M20.6,69.9v-1.6h-3v1.6H20.6z M20.6,72.7V71h-3v1.7H20.6z M29.9,65.4c0,3.3-0.1,6.3-0.2,9
		c0,1.6-0.1,3.2-0.4,4.8c-0.1,0.4-0.4,0.8-0.8,1.1c-0.7,0.3-1.5,0.4-2.2,0.4c-0.3,0-0.6,0-0.8,0l-0.4-1.2c0.8,0,1.6,0,2.2,0
		c0.3,0,0.6-0.1,0.8-0.3c0.3-0.3,0.4-0.6,0.4-1l0.2-4.3c0.1-2.4,0.1-4.8,0.1-7.3h-2.4c0.1,5-1.1,9.8-3.4,14.2l-1-0.5
		c2.1-3.6,3.2-8.2,3.3-13.7h-2.4v-1.1h2.4l0.1-4.4h1.1c0,1.8-0.1,3.3-0.1,4.4L29.9,65.4z"/>
	<path class="st1" d="M43.2,72.8c-0.5-0.2-0.8-0.6-0.8-1.1c0-0.2,0.1-0.5,0.3-0.7s0.5-0.4,0.8-0.3c0.7,0,1,0.5,1,1.4
		c-0.1,0.9-0.6,1.7-1.4,2.2l-0.5-0.4C42.9,73.6,43.1,73.3,43.2,72.8z"/>
	<path class="st1" d="M63.6,63.4h-2.8c-0.4,1.7-0.9,3.4-1.5,5h3.5V78h-1.1v-0.9h-2.1V79h-1.1v-8.9c-0.5,0.9-1,1.8-1.6,2.6l-0.8-0.8
		c1.7-2.6,2.9-5.5,3.5-8.5h-3v-1.1h7C63.6,62.3,63.6,63.4,63.6,63.4z M61.7,76.1v-6.5h-2.1v6.5H61.7z M75.8,80.1H63.2V79h4V65.9
		h-3.8v-1.1h12.1v1.1h-4V79h4.3V80.1z M66,75.4l-1.1,0.4c-0.1-2.4-0.5-4.8-1.1-7.1l1-0.4C65.4,70.6,65.8,73,66,75.4L66,75.4z
		 M67.9,63.6l-1,0.5c-0.5-1-1.1-1.9-1.7-2.7l1-0.5C66.8,61.7,67.4,62.6,67.9,63.6L67.9,63.6z M70.4,79V65.9h-2.1V79H70.4z
		 M73.6,61.3c-0.5,1-1.2,1.9-2,2.8l-0.9-0.6c0.7-0.8,1.4-1.7,2-2.7L73.6,61.3z M75.3,68.6c-0.3,2.4-0.9,4.8-1.7,7.1l-1-0.5
		c0.8-2.3,1.3-4.7,1.6-7.1L75.3,68.6z"/>
	<path class="st1" d="M85,71l-2.2,1v7.1c0,1.1-0.7,1.6-2.2,1.6h-1.2l-0.3-1.2c0.4,0,0.7,0.1,1.1,0.1s0.8,0,1.2-0.2
		c0.2-0.1,0.2-0.3,0.2-0.5v-6.4l-3,1.2l-0.3-1.2c1.5-0.5,2.5-0.9,3.2-1.2v-5.2h-3.1V65h3.1v-4h1.1v4h1.5v1.1h-1.5v4.7
		c0.7-0.2,1.4-0.5,2-0.9L85,71z M98.2,67.2H84.8v-1h3.9c-0.2-0.7-0.5-1.3-0.8-2h-2.1v-1.1H91c-0.3-0.7-0.6-1.2-0.8-1.5l1-0.5
		c0.4,0.6,0.7,1.3,1,2h5.5v1.1h-2.6c-0.2,0.7-0.5,1.4-0.8,2h3.9V67.2z M98.2,80.1H84.8v-1h6.1v-1.7h-5.7v-1.1h5.7v-1.5H86v-6.3h10.9
		v6.3h-4.8v1.5h5.6v1.1h-5.6V79h6L98.2,80.1z M90.9,71v-1.5h-3.8V71H90.9z M90.9,73.7V72h-3.8v1.6L90.9,73.7z M94,64.2h-4.9
		c0.2,0.6,0.5,1.2,0.7,2h3.3C93.4,65.6,93.7,64.9,94,64.2z M95.8,71v-1.5h-3.7V71H95.8z M95.8,73.7V72h-3.7v1.6L95.8,73.7z"/>
	<path class="st1" d="M119.5,80.6h-1.2v-1.1h-15.8V72h1.2v6.4h6.8v-8.7h-7v-7.4h1.2v6.2h5.8v-7.7h1.1v7.7h5.7v-6.2h1.2v7.4h-6.9v8.6
		h6.7V72h1.2L119.5,80.6z"/>
	<path class="st1" d="M130.8,78c-3.1,1.1-5.4,1.9-6.8,2.3l-0.5-1.1c0.3-0.1,0.7-0.2,1-0.3v-8.6h1.1v8.3c0.5-0.1,1-0.3,1.5-0.5v-9.6
		h-2.6v-6.8h5.4v6.8h-1.6v3.1h2v1.1h-2v5c0.9-0.2,1.7-0.5,2.5-0.9L130.8,78L130.8,78z M128.7,67.3v-4.4h-3v4.5L128.7,67.3z
		 M143.3,68.4l-0.7,0.9c-2.1-1.1-3.8-2.9-4.7-5.1h-1.8c-1.1,2.1-2.6,3.8-4.6,5l-1-0.8c1.7-1,3.2-2.4,4.2-4.2H131v-1.1h4.2
		c0.3-0.7,0.5-1.5,0.7-2.3l1.2,0.3c-0.1,0.7-0.3,1.3-0.6,2h6.3v1.1h-3.7C140,66.1,141.5,67.6,143.3,68.4L143.3,68.4z M142.6,72h-7.4
		l-0.7,2.3h6.7c0,1.4-0.2,2.8-0.5,4.2c-0.1,0.7-0.5,1.3-1,1.8c-0.8,0.3-1.7,0.5-2.6,0.4c-0.6,0-1.4,0-2.1-0.1l-0.3-1.2
		c1,0,2.3,0.1,3.9,0.1c0.4,0,0.7-0.2,0.8-0.6c0.3-1.1,0.5-2.2,0.6-3.4h-7l1-3.4h-2.7v-1h11.4L142.6,72z M139.8,68.8h-5.7v-1.1h5.7
		V68.8z"/>
	<path class="st1" d="M155.5,65.6l-0.8,0.8c-1-1.3-2.2-2.5-3.5-3.4c-1.2,2-2.6,3.8-4.4,5.3l-0.7-1c2.1-1.8,3.7-4,4.9-6.5l1.1,0.3
		c-0.2,0.4-0.3,0.7-0.4,0.8C153.1,63,154.4,64.2,155.5,65.6z M155,71.6c-0.2,0.8-0.5,1.5-0.9,2.2c-0.6,1.3-1.4,2.5-2.2,3.7
		c0.7,0.7,1.4,1.5,2.1,2.3l-0.9,0.7c-1.6-2-3.4-3.8-5.5-5.3l0.8-0.8c0.8,0.6,1.7,1.3,2.7,2.2c1.2-1.5,2.1-3.3,2.7-5.1h-7.2v-1.1h8.4
		L155,71.6L155,71.6z M154.2,68.2h-5.5v-1.1h5.5V68.2z M165.7,62.6h-4.4c-0.3,1.3-0.6,2.2-0.7,2.6h4.1v11h-5.3l0.7,0.7
		c-1.3,1.4-2.7,2.7-4.3,3.7l-0.8-0.9c1.5-1,2.9-2.1,4.1-3.5h-2.7v-11h2.9c0.3-0.9,0.5-1.7,0.7-2.6h-4.6v-1h10.3V62.6L165.7,62.6z
		 M163.5,68.3v-2h-5.9v2H163.5z M163.5,71.6v-2.2h-5.9v2.2H163.5z M163.5,75.1v-2.5h-5.9v2.5H163.5z M165.8,79.7l-0.7,0.8
		c-1.2-1.1-2.5-2.1-3.9-3l0.7-0.9C163.3,77.6,164.6,78.6,165.8,79.7L165.8,79.7z"/>
	<path class="st1" d="M174.4,76c-2,1-3.9,1.9-5.6,2.7l-0.4-1.1c0.9-0.3,1.8-0.7,2.6-1.2v-8.7h-2.2v-1.1h2.2V61h1.1v5.6h1.9v1.1h-1.9
		v8.2c0.7-0.3,1.4-0.6,2.1-1L174.4,76z M188.2,76.3c-0.1,1.1-0.4,2.2-0.8,3.2c-0.2,0.6-0.8,1-1.4,1c-1,0-1.9-1.2-2.8-3.5
		c-1.2,1.4-2.6,2.7-4.2,3.6l-0.8-1c1.8-1,3.4-2.4,4.6-4.1c-0.7-3.4-1.1-6.9-1.1-10.3H174v-1.1h7.7c0-0.7,0-1.3,0-2
		c0-0.5,0-0.9,0-1.2h1.1c0,1.7,0,2.8,0,3.3h5.1v1.1h-5.1c0,3,0.3,5.9,0.8,8.9c1.1-2.1,1.9-4.3,2.3-6.6l1.1,0.3c-0.6,2.8-1.6,5.5-3,8
		c0.2,0.6,0.4,1.2,0.7,1.7c0.2,0.4,0.5,0.9,0.8,1.3c0.2,0.2,0.4,0.3,0.5,0.3s0.2-0.1,0.3-0.2c0.2-0.3,0.3-0.7,0.3-1
		c0.2-0.7,0.3-1.4,0.4-2.2L188.2,76.3z M181.2,76c-2.5,0.9-4.7,1.7-6.7,2.3l-0.3-1.2c1.9-0.5,4.1-1.3,6.9-2.3L181.2,76z M180,73.5
		h-4.8v-5.9h4.8V73.5z M178.9,72.4v-3.7h-2.5v3.7H178.9z M186.9,63l-0.9,0.8c-0.5-0.7-1-1.3-1.7-1.9l0.9-0.7
		C185.8,61.7,186.4,62.3,186.9,63L186.9,63z"/>
	<path class="st1" d="M198.3,67.3c-0.6,1.1-1.2,2.2-1.9,3.2v10.1h-1.2V72c-1,1.1-2.1,2-3.3,2.9L191,74c2.7-1.7,4.9-4.2,6.2-7.2
		L198.3,67.3z M200.4,64.3h-2.7v2.2h-1.2v-2.2h-5.4v-1.1h5.4v-2.4h1.2v2.4h2.7V64.3z M210.6,75.6c0,1.2-0.1,2.4-0.5,3.5
		c-0.2,0.4-0.5,0.8-1,1c-1.1,0.2-2.3,0.3-3.4,0.3c-1.3,0.1-2.6,0-3.8-0.3c-0.5-0.3-0.7-0.9-0.6-1.4V67.1h1.2v3.8h7.8V72h-7.8v6.5
		c0,0.3,0.1,0.5,0.4,0.6c0.9,0.1,1.9,0.2,2.8,0.1c1,0.1,2,0,3-0.2c0.2-0.1,0.4-0.5,0.5-1.3c0.1-0.9,0.2-1.7,0.3-2.6L210.6,75.6z
		 M210.7,64.3h-5.3v2.3h-1.2v-2.4h-2.9v-1.1h2.9v-2.4h1.2v2.4h5.3V64.3z"/>
	<path class="st1" d="M233.1,79.8l-0.7,1c-5.1-2.9-8.2-6.6-9.2-11.3c-0.8,4.6-3.8,8.4-9,11.3l-0.8-1c2.1-1.1,4-2.6,5.6-4.3
		c1.6-1.8,2.7-4,3-6.4c0.4-2.7,0.6-5.4,0.5-8.1h1.2l-0.1,3.5c0,2.1,0.3,4.1,1,6.1c2.4-1.9,4.5-4,6.3-6.4l1,0.8
		c-2,2.5-4.3,4.8-6.8,6.8C226.9,75.1,229.6,78,233.1,79.8z M220.1,70.8l-1,0.7c-1.2-2.4-2.8-4.6-4.6-6.5l1-0.7
		C217.4,66.2,218.9,68.4,220.1,70.8L220.1,70.8z"/>
</g>
<path class="st2" d="M33.9,146.2c21.4,15.1,51,10.1,66.1-11.3s10.1-51-11.3-66.1c-4.6-3.3-9.8-5.7-15.3-7.1
	c-4.4-1.1-8.3-1.3-12.7-3.1c-13.1-5.4-13-19.9,12.7-40.2c-44,17.9-68.8,65.6-57.8,101.6C18.8,130.4,25.2,139.6,33.9,146.2
	L33.9,146.2z"/>
<linearGradient id="SVGID_1_" gradientUnits="userSpaceOnUse" x1="11.3737" y1="73.6306" x2="107.431" y2="73.6306" gradientTransform="matrix(1 0 0 -1 0 160.5511)">
	<stop  offset="0" style="stop-color:#D33924"/>
	<stop  offset="0.15" style="stop-color:#CB3023"/>
	<stop  offset="0.35" style="stop-color:#BB1C21"/>
	<stop  offset="0.57" style="stop-color:#AA1B20"/>
	<stop  offset="1" style="stop-color:#7F191E"/>
	<stop  offset="1" style="stop-color:#7F191E"/>
</linearGradient>
<path class="st3" d="M32.1,146.4c21.1,15.4,50.7,10.9,66.2-10.2C113.7,115,109.1,85.4,88,70c-4.9-3.6-10.5-6.2-16.5-7.7
	c-4.5-1.1-8.6-1.2-12.7-3.4C46,51.9,47.8,35.9,73.4,18.3c-44,17.9-70.6,65.8-59.6,101.8C17,130.6,23.4,139.8,32.1,146.4z"/>
<linearGradient id="SVGID_2_" gradientUnits="userSpaceOnUse" x1="16.4978" y1="47.6693" x2="98.6156" y2="47.6693" gradientTransform="matrix(1 0 0 -1 0 160.5511)">
	<stop  offset="0" style="stop-color:#D33924"/>
	<stop  offset="0.15" style="stop-color:#CB3023"/>
	<stop  offset="0.35" style="stop-color:#BB1C21"/>
	<stop  offset="0.57" style="stop-color:#AA1B20"/>
	<stop  offset="1" style="stop-color:#7F191E"/>
	<stop  offset="1" style="stop-color:#7F191E"/>
</linearGradient>
<path class="st4" d="M98.2,118.9c-3.3,22.4-24.2,37.9-46.6,34.6c-22.4-3.3-37.9-24.2-34.6-46.6s24.2-37.9,46.6-34.6c0,0,0,0,0,0
	C86,75.6,101.5,96.4,98.2,118.9C98.2,118.9,98.2,118.9,98.2,118.9z"/>
<linearGradient id="SVGID_3_" gradientUnits="userSpaceOnUse" x1="16.6741" y1="47.9104" x2="98.685" y2="47.9104" gradientTransform="matrix(1 0 0 -1 0 160.5511)">
	<stop  offset="0" style="stop-color:#CD3B28"/>
	<stop  offset="0.15" style="stop-color:#C53227"/>
	<stop  offset="0.35" style="stop-color:#B61F25"/>
	<stop  offset="0.57" style="stop-color:#A51E24"/>
	<stop  offset="1" style="stop-color:#7D1C22"/>
</linearGradient>
<path class="st5" d="M98.2,118.6c-3.3,22.4-24.2,37.9-46.6,34.5c-22.4-3.3-37.9-24.2-34.5-46.6c3.3-22.4,24.2-37.9,46.6-34.5
	c0,0,0,0,0,0C86.1,75.4,101.6,96.3,98.2,118.6z"/>
<linearGradient id="SVGID_4_" gradientUnits="userSpaceOnUse" x1="16.9461" y1="48.1868" x2="98.7571" y2="48.1868" gradientTransform="matrix(1 0 0 -1 0 160.5511)">
	<stop  offset="0" style="stop-color:#C63D2C"/>
	<stop  offset="0.16" style="stop-color:#BE342B"/>
	<stop  offset="0.35" style="stop-color:#B02329"/>
	<stop  offset="0.59" style="stop-color:#9F2228"/>
	<stop  offset="1" style="stop-color:#7A2026"/>
</linearGradient>
<path class="st6" d="M98.3,118.4c-3.3,22.3-24.1,37.8-46.5,34.4c-22.3-3.3-37.8-24.1-34.4-46.5s24.1-37.8,46.5-34.4c0,0,0,0,0,0
	C86.2,75.2,101.6,96,98.3,118.4z"/>
<linearGradient id="SVGID_5_" gradientUnits="userSpaceOnUse" x1="17.1667" y1="48.446" x2="98.8377" y2="48.446" gradientTransform="matrix(1 0 0 -1 0 160.5511)">
	<stop  offset="0" style="stop-color:#C03F30"/>
	<stop  offset="0.17" style="stop-color:#B8362F"/>
	<stop  offset="0.35" style="stop-color:#AB262D"/>
	<stop  offset="0.6" style="stop-color:#9A252C"/>
	<stop  offset="1" style="stop-color:#78232A"/>
</linearGradient>
<path class="st7" d="M98.4,118.1c-3.3,22.3-24.1,37.7-46.4,34.4s-37.7-24.1-34.4-46.4C20.9,83.8,41.7,68.4,64,71.7
	C86.3,75,101.7,95.8,98.4,118.1C98.4,118.1,98.4,118.1,98.4,118.1z"/>
<linearGradient id="SVGID_6_" gradientUnits="userSpaceOnUse" x1="17.4093" y1="48.6604" x2="98.9416" y2="48.6604" gradientTransform="matrix(1 0 0 -1 0 160.5511)">
	<stop  offset="0" style="stop-color:#B94133"/>
	<stop  offset="0.17" style="stop-color:#B23832"/>
	<stop  offset="0.35" style="stop-color:#A62931"/>
	<stop  offset="0.61" style="stop-color:#952830"/>
	<stop  offset="1" style="stop-color:#75272F"/>
</linearGradient>
<path class="st8" d="M98.5,117.8c-3.3,22.3-24,37.7-46.3,34.4c-22.3-3.3-37.7-24-34.4-46.3s24-37.7,46.3-34.4c0,0,0,0,0,0
	C86.4,74.9,101.8,95.6,98.5,117.8C98.5,117.8,98.5,117.8,98.5,117.8z"/>
<linearGradient id="SVGID_7_" gradientUnits="userSpaceOnUse" x1="17.5537" y1="48.965" x2="98.946" y2="48.965" gradientTransform="matrix(1 0 0 -1 0 160.5511)">
	<stop  offset="0" style="stop-color:#B34237"/>
	<stop  offset="0.18" style="stop-color:#AB3936"/>
	<stop  offset="0.35" style="stop-color:#A02C35"/>
	<stop  offset="0.63" style="stop-color:#8F2B34"/>
	<stop  offset="1" style="stop-color:#732A33"/>
</linearGradient>
<path class="st9" d="M98.5,117.6c-3.3,22.2-24,37.6-46.2,34.3c-22.2-3.3-37.6-24-34.3-46.2C21.3,83.4,42,68,64.2,71.3c0,0,0,0,0,0
	C86.5,74.6,101.8,95.3,98.5,117.6C98.5,117.6,98.5,117.6,98.5,117.6z"/>
<linearGradient id="SVGID_8_" gradientUnits="userSpaceOnUse" x1="17.8115" y1="49.2046" x2="99.0637" y2="49.2046" gradientTransform="matrix(1 0 0 -1 0 160.5511)">
	<stop  offset="0" style="stop-color:#AC443B"/>
	<stop  offset="0.2" style="stop-color:#A43B3A"/>
	<stop  offset="0.35" style="stop-color:#9B3039"/>
	<stop  offset="0.64" style="stop-color:#8A2F38"/>
	<stop  offset="1" style="stop-color:#702D37"/>
</linearGradient>
<path class="st10" d="M98.6,117.3c-3.3,22.2-24,37.5-46.1,34.2s-37.5-24-34.2-46.1s24-37.5,46.1-34.2c0,0,0,0,0,0
	C86.6,74.5,101.9,95.1,98.6,117.3C98.6,117.3,98.6,117.3,98.6,117.3z"/>
<linearGradient id="SVGID_9_" gradientUnits="userSpaceOnUse" x1="18.042" y1="49.4724" x2="99.1343" y2="49.4724" gradientTransform="matrix(1 0 0 -1 0 160.5511)">
	<stop  offset="0" style="stop-color:#A6463F"/>
	<stop  offset="0.2" style="stop-color:#9E3D3E"/>
	<stop  offset="0.35" style="stop-color:#96333D"/>
	<stop  offset="0.66" style="stop-color:#85323C"/>
	<stop  offset="1" style="stop-color:#6E313B"/>
</linearGradient>
<path class="st11" d="M98.7,117c-3.3,22.1-23.9,37.4-46.1,34.1c-22.1-3.3-37.4-23.9-34.1-46.1C21.8,83,42.4,67.7,64.5,71
	C86.7,74.3,102,94.9,98.7,117C98.7,117,98.7,117,98.7,117z"/>
<linearGradient id="SVGID_10_" gradientUnits="userSpaceOnUse" x1="18.2641" y1="49.7414" x2="99.2164" y2="49.7414" gradientTransform="matrix(1 0 0 -1 0 160.5511)">
	<stop  offset="0" style="stop-color:#9F4843"/>
	<stop  offset="0.21" style="stop-color:#983F42"/>
	<stop  offset="0.35" style="stop-color:#913641"/>
	<stop  offset="0.67" style="stop-color:#803540"/>
	<stop  offset="1" style="stop-color:#6B343F"/>
</linearGradient>
<path class="st12" d="M98.8,116.8c-3.3,22.1-23.9,37.4-46,34.1c-22.1-3.3-37.4-23.9-34.1-46c3.3-22.1,23.9-37.3,46-34.1
	C86.8,74.1,102.1,94.6,98.8,116.8C98.8,116.8,98.8,116.8,98.8,116.8L98.8,116.8z"/>
<linearGradient id="SVGID_11_" gradientUnits="userSpaceOnUse" x1="18.4922" y1="49.9926" x2="99.2845" y2="49.9926" gradientTransform="matrix(1 0 0 -1 0 160.5511)">
	<stop  offset="0" style="stop-color:#994A47"/>
	<stop  offset="0.22" style="stop-color:#914146"/>
	<stop  offset="0.35" style="stop-color:#8B3945"/>
	<stop  offset="0.7" style="stop-color:#7A3944"/>
	<stop  offset="1" style="stop-color:#693843"/>
</linearGradient>
<path class="st13" d="M98.8,116.5c-3.3,22.1-23.8,37.3-45.9,34c-22.1-3.3-37.3-23.8-34-45.9c3.3-22.1,23.8-37.3,45.9-34
	C86.9,73.9,102.1,94.4,98.8,116.5C98.8,116.5,98.8,116.5,98.8,116.5z"/>
<linearGradient id="SVGID_12_" gradientUnits="userSpaceOnUse" x1="18.7101" y1="50.2432" x2="99.3609" y2="50.2432" gradientTransform="matrix(1 0 0 -1 0 160.5511)">
	<stop  offset="0" style="stop-color:#934C4B"/>
	<stop  offset="0.24" style="stop-color:#8B434A"/>
	<stop  offset="0.35" style="stop-color:#863D49"/>
	<stop  offset="0.73" style="stop-color:#753C48"/>
	<stop  offset="1" style="stop-color:#673B47"/>
</linearGradient>
<path class="st14" d="M98.9,116.2c-3.3,22-23.8,37.2-45.8,34c-22-3.3-37.2-23.8-34-45.8c3.3-22,23.8-37.2,45.8-34
	C86.9,73.7,102.2,94.2,98.9,116.2C98.9,116.2,98.9,116.2,98.9,116.2z"/>
<linearGradient id="SVGID_13_" gradientUnits="userSpaceOnUse" x1="18.919" y1="50.5001" x2="99.4298" y2="50.5001" gradientTransform="matrix(1 0 0 -1 0 160.5511)">
	<stop  offset="0" style="stop-color:#8C4E4F"/>
	<stop  offset="0.26" style="stop-color:#85454E"/>
	<stop  offset="0.35" style="stop-color:#81404D"/>
	<stop  offset="0.75" style="stop-color:#703F4C"/>
	<stop  offset="1" style="stop-color:#643E4C"/>
</linearGradient>
<path class="st15" d="M99,116c-3.3,22-23.7,37.2-45.7,33.9s-37.2-23.7-33.9-45.7c3.3-22,23.7-37.2,45.7-33.9c0,0,0,0,0,0
	C87.1,73.5,102.3,94,99,116z"/>
<linearGradient id="SVGID_14_" gradientUnits="userSpaceOnUse" x1="19.1382" y1="50.7595" x2="99.509" y2="50.7595" gradientTransform="matrix(1 0 0 -1 0 160.5511)">
	<stop  offset="0" style="stop-color:#865052"/>
	<stop  offset="0.27" style="stop-color:#7E4751"/>
	<stop  offset="0.35" style="stop-color:#7B4351"/>
	<stop  offset="0.81" style="stop-color:#6A4250"/>
	<stop  offset="1" style="stop-color:#624250"/>
</linearGradient>
<path class="st16" d="M99.1,115.7c-3.3,21.9-23.7,37.1-45.7,33.8s-37.1-23.7-33.8-45.7S43.3,66.8,65.2,70c0,0,0,0,0,0
	C87.2,73.3,102.3,93.8,99.1,115.7z"/>
<linearGradient id="SVGID_15_" gradientUnits="userSpaceOnUse" x1="19.3687" y1="51.0173" x2="99.5795" y2="51.0173" gradientTransform="matrix(1 0 0 -1 0 160.5511)">
	<stop  offset="0" style="stop-color:#7F5156"/>
	<stop  offset="0.31" style="stop-color:#774855"/>
	<stop  offset="0.35" style="stop-color:#764655"/>
	<stop  offset="0.84" style="stop-color:#654554"/>
	<stop  offset="1" style="stop-color:#5F4554"/>
</linearGradient>
<path class="st17" d="M99.1,115.4c-3.3,21.9-23.7,37-45.6,33.8c-21.9-3.3-37-23.7-33.8-45.6c3.3-21.9,23.7-37,45.6-33.8
	C87.3,73.1,102.4,93.5,99.1,115.4C99.1,115.4,99.1,115.4,99.1,115.4L99.1,115.4z"/>
<linearGradient id="SVGID_16_" gradientUnits="userSpaceOnUse" x1="19.6518" y1="51.3005" x2="99.6528" y2="51.3005" gradientTransform="matrix(1 0 0 -1 0 160.5511)">
	<stop  offset="0" style="stop-color:#79535A"/>
	<stop  offset="0.35" style="stop-color:#714A59"/>
	<stop  offset="0.9" style="stop-color:#604958"/>
	<stop  offset="1" style="stop-color:#5D4958"/>
</linearGradient>
<path class="st18" d="M99.2,115.2c-3.3,21.8-23.6,36.9-45.5,33.6c-21.8-3.3-36.9-23.6-33.6-45.5c3.3-21.8,23.6-36.9,45.4-33.7
	C87.4,72.9,102.4,93.2,99.2,115.2C99.2,115.1,99.2,115.1,99.2,115.2L99.2,115.2z"/>
<linearGradient id="SVGID_17_" gradientUnits="userSpaceOnUse" x1="19.7203" y1="51.4927" x2="99.7309" y2="51.4927" gradientTransform="matrix(1 0 0 -1 0 160.5511)">
	<stop  offset="0" style="stop-color:#72555E"/>
	<stop  offset="0.35" style="stop-color:#6B4D5D"/>
	<stop  offset="0.99" style="stop-color:#5A4C5C"/>
	<stop  offset="1" style="stop-color:#5A4C5C"/>
</linearGradient>
<path class="st19" d="M99.3,114.9c-3.2,21.9-23.6,37-45.4,33.7c-21.9-3.2-37-23.6-33.7-45.4c3.2-21.9,23.6-37,45.4-33.7
	c0,0,0.1,0,0.1,0C87.5,72.8,102.5,93.1,99.3,114.9z"/>
<linearGradient id="SVGID_18_" gradientUnits="userSpaceOnUse" x1="20.0149" y1="51.7858" x2="99.8056" y2="51.7858" gradientTransform="matrix(1 0 0 -1 0 160.5511)">
	<stop  offset="0" style="stop-color:#6C5762"/>
	<stop  offset="0.35" style="stop-color:#665061"/>
	<stop  offset="1" style="stop-color:#584F60"/>
</linearGradient>
<path class="st20" d="M99.4,114.6c-3.2,21.8-23.5,36.8-45.3,33.6s-36.8-23.5-33.6-45.3S44,66.1,65.8,69.3c0,0,0,0,0,0
	C87.6,72.5,102.6,92.8,99.4,114.6z"/>
<linearGradient id="SVGID_19_" gradientUnits="userSpaceOnUse" x1="20.2827" y1="52.0354" x2="99.9333" y2="52.0354" gradientTransform="matrix(1 0 0 -1 0 160.5511)">
	<stop  offset="0" style="stop-color:#655966"/>
	<stop  offset="0.35" style="stop-color:#615365"/>
	<stop  offset="1" style="stop-color:#555365"/>
</linearGradient>
<path class="st21" d="M99.5,114.4c-3.2,21.8-23.5,36.8-45.2,33.5c-21.8-3.2-36.8-23.5-33.5-45.2C23.9,80.9,44.2,65.9,66,69.1
	c0,0,0,0,0,0C87.7,72.4,102.7,92.6,99.5,114.4z"/>
<linearGradient id="SVGID_20_" gradientUnits="userSpaceOnUse" x1="20.4449" y1="52.3045" x2="99.9369" y2="52.3045" gradientTransform="matrix(1 0 0 -1 0 160.5511)">
	<stop  offset="0" style="stop-color:#5F5B6A"/>
	<stop  offset="0.35" style="stop-color:#5C5769"/>
	<stop  offset="1" style="stop-color:#535669"/>
</linearGradient>
<path class="st22" d="M99.5,114.1c-3.2,21.7-23.5,36.7-45.2,33.5c-21.7-3.2-36.7-23.5-33.5-45.2C24.1,80.7,44.3,65.7,66,68.9
	C87.7,72.2,102.7,92.4,99.5,114.1C99.5,114.1,99.5,114.1,99.5,114.1z"/>
<linearGradient id="SVGID_21_" gradientUnits="userSpaceOnUse" x1="20.6824" y1="52.5526" x2="100.0331" y2="52.5526" gradientTransform="matrix(1 0 0 -1 0 160.5511)">
	<stop  offset="0" style="stop-color:#595D6D"/>
	<stop  offset="0.35" style="stop-color:#565A6D"/>
	<stop  offset="1" style="stop-color:#515A6D"/>
</linearGradient>
<path class="st23" d="M99.6,113.8c-3.2,21.7-23.4,36.6-45.1,33.4s-36.6-23.4-33.4-45.1c3.2-21.7,23.4-36.6,45.1-33.4
	C87.9,72,102.8,92.2,99.6,113.8C99.6,113.8,99.6,113.8,99.6,113.8z"/>
<linearGradient id="SVGID_22_" gradientUnits="userSpaceOnUse" x1="20.8933" y1="52.8133" x2="100.1067" y2="52.8133" gradientTransform="matrix(1 0 0 -1 0 160.5511)">
	<stop  offset="0" style="stop-color:#525F71"/>
	<stop  offset="0.35" style="stop-color:#515D71"/>
	<stop  offset="1" style="stop-color:#4E5D71"/>
</linearGradient>
<path class="st24" d="M99.7,113.6c-3.2,21.6-23.4,36.6-45,33.3c-21.6-3.2-36.6-23.4-33.3-45c3.2-21.6,23.4-36.6,45-33.3
	C87.9,71.8,102.9,91.9,99.7,113.6C99.7,113.5,99.7,113.6,99.7,113.6z"/>
<path class="st25" d="M99.7,113.3c-3.2,21.6-23.3,36.5-44.9,33.3c-21.6-3.2-36.5-23.3-33.3-44.9c3.2-21.6,23.3-36.5,44.9-33.3
	c0,0,0,0,0,0C88.1,71.6,103,91.7,99.7,113.3L99.7,113.3z"/>
<path class="st26" d="M99.7,113.3c-3.2,21.6-23.3,36.5-44.9,33.3c-21.6-3.2-36.5-23.3-33.3-44.9c3.2-21.6,23.3-36.5,44.9-33.3
	c0,0,0,0,0,0C88.1,71.6,103,91.7,99.7,113.3L99.7,113.3z"/>
<path class="st26" d="M98.3,113.1c-3.1,20.8-22.4,35.1-43.2,32c-20.8-3.1-35.1-22.4-32-43.2c3.1-20.7,22.4-35,43.2-32
	C87,72.9,101.4,92.3,98.3,113.1C98.3,113,98.3,113.1,98.3,113.1z"/>
<path class="st27" d="M47.8,83.4c-0.1,0.6-0.4,1.4-0.7,2.4l-0.5,1.5v15h-1V89.9c-0.7,1.3-1.2,2.4-1.7,3.3l-0.7-1.1
	c1.7-2.9,2.9-6,3.7-9.2L47.8,83.4z M52.1,96.6c-1,1.9-2.3,3.5-3.9,5l-0.7-0.8c1.5-1.5,2.8-3.1,3.8-4.9L52.1,96.6z M60.6,94.3h-5.9
	v8.2h-1v-8.2h-6.1v-1.1h6.1v-2.6h-4.5v-6.8h10.1v6.8h-4.5v2.6h5.9L60.6,94.3z M58.2,89.4v-4.6h-8v4.6L58.2,89.4z M60.7,100.7
	l-0.7,0.8c-1.1-1.8-2.4-3.4-3.8-4.9l0.8-0.8C58.4,97.3,59.6,98.9,60.7,100.7L60.7,100.7z"/>
<path class="st27" d="M69.4,84c-2,0.8-4,1.4-6.1,1.8v4.9c1.4-0.5,2.8-1.1,4.2-1.7c-0.2-0.5-0.5-1-0.8-1.4l0.8-0.6
	c0.7,1.1,1.3,2.2,1.8,3.4l-1,0.6c-0.1-0.3-0.2-0.7-0.4-1c-2.5,1.1-4.3,1.9-5.6,2.3l-0.5-1c0.3-0.2,0.4-0.5,0.4-0.9v-5.6
	c2.2-0.2,4.4-0.8,6.4-1.7L69.4,84z M76.6,102.4h-1v-1H64.4v1h-1.1v-9.3h13.3V102.4z M69.5,96.6v-2.4h-5.1v2.4H69.5z M69.5,100.3
	v-2.7h-5.1v2.7H69.5z M77.8,84c0,1.7,0,3.2-0.1,4.5c0,0.8-0.1,1.6-0.4,2.4c-0.2,0.3-0.5,0.5-0.8,0.6c-1,0.3-2,0.4-3.1,0.3L73,90.6
	c0.5,0,0.9,0.1,1.4,0.1c0.5,0,1.1,0,1.6-0.2c0.2-0.1,0.4-0.3,0.4-0.6c0.1-0.6,0.2-1.1,0.2-1.7c0.1-0.8,0.1-1.9,0.1-3.1h-2.8
	c-0.3,2.8-1.7,5.3-3.9,7l-0.8-0.9c2.1-1.4,3.4-3.6,3.6-6.1h-2.6V84L77.8,84z M75.6,96.6v-2.4h-5.1v2.4H75.6z M75.6,100.3v-2.7h-5.1
	v2.7H75.6z"/>
<path class="st27" d="M47,109.7c-0.1,0.7-0.3,1.5-0.6,2.5l-0.4,1.4v15.2h-1v-12.1c-0.5,1.1-1,2.1-1.5,3.2l-0.5-1.2
	c1.5-2.9,2.5-6,3.1-9.3L47,109.7z M60.2,124.7h-2.9v2.2c0,0.5-0.1,0.9-0.4,1.3c-0.3,0.3-0.9,0.5-1.8,0.5c-0.4,0-0.8,0-1.1-0.1
	l-0.5-1.1c0.6,0.1,1.1,0.1,1.6,0.1c0.3,0,0.7,0,1-0.1c0.1-0.1,0.2-0.2,0.2-0.4v-2.5h-9.5v-1h9.5v-1.3h1.1v1.3h2.9L60.2,124.7z
	 M60.3,122.2l-0.7,0.7c-0.2-0.3-0.5-0.7-0.8-1.1l-11.6,0.7l-0.2-1l5.8-0.3v-1.5H48v-6h4.8V112h-5.5v-1h5.5v-1.7h1v1.7h5.9v1h-5.9
	v1.5h5v6.1h-0.7C58.9,120.4,59.7,121.3,60.3,122.2L60.3,122.2z M52.9,127.2l-0.8,0.9c-1.1-0.8-2.3-1.5-3.5-2.1l0.7-0.9
	C50.6,125.7,51.8,126.4,52.9,127.2L52.9,127.2z M52.8,116.1v-1.5h-3.7v1.6L52.8,116.1z M52.8,118.6V117h-3.7v1.6H52.8z M57.8,116.1
	v-1.5h-3.9v1.6L57.8,116.1z M57.8,118.6V117h-3.9v1.6H57.8z M57.9,120.8c-0.3-0.3-0.6-0.6-0.9-0.9l0.4-0.3h-3.5v1.4
	C55.2,121,56.5,120.9,57.9,120.8L57.9,120.8z"/>
<path class="st27" d="M63.4,123.6c-0.2,1.8-0.6,3.5-1.2,5.2l-0.9-0.4c0.6-1.6,1-3.3,1.2-5.1L63.4,123.6z M68.2,122.2l-0.9,0.3
	c-0.1-0.4-0.2-0.9-0.3-1.3c-1.7,0.6-3.5,1.1-5.2,1.5l-0.3-1c1.5-1.7,2.8-3.5,3.9-5.4c-1,0.3-2.2,0.5-3.5,0.7l-0.3-1
	c1.4-2,2.5-4.2,3.3-6.5l0.9,0.4c-0.7,2.1-1.7,4.1-2.9,5.9c1.1-0.1,2.1-0.3,3.1-0.6c0.3-0.5,0.6-1.1,0.8-1.7l0.9,0.4
	c-1.2,2.7-2.7,5.2-4.5,7.4c1.2-0.3,2.4-0.6,3.5-1.1c-0.1-0.4-0.3-0.9-0.5-1.4l0.9-0.4C67.5,119.7,67.9,120.9,68.2,122.2L68.2,122.2z
	 M65.9,127.8l-1,0.2c0-1.5-0.2-3-0.6-4.5l1-0.2C65.5,124.8,65.8,126.3,65.9,127.8L65.9,127.8z M68.1,126.1l-0.9,0.3
	c-0.2-1.1-0.5-2.1-0.8-3.1l0.9-0.3C67.7,124,67.9,125,68.1,126.1L68.1,126.1z M78.5,113.1h-6.1c-0.7,1.8-1.6,3.4-2.7,5
	c2.1-0.1,4.2-0.4,6.2-0.7c-0.4-0.7-0.9-1.4-1.5-2l0.9-0.6c1.1,1.4,2.1,3,2.9,4.6l-0.8,0.7c-0.3-0.6-0.6-1.1-0.9-1.7l-1.8,0.3v8.2
	c0,0.3,0.1,0.5,0.5,0.5h1.4c0.2,0,0.3-0.1,0.5-0.2c0.2-0.4,0.3-0.9,0.3-1.3c0.1-0.8,0.1-1.6,0.1-2.6l1,0.4c0,1.1-0.1,2.3-0.3,3.4
	c-0.1,0.5-0.3,0.9-0.7,1.2c-0.5,0.2-1.1,0.3-1.6,0.3c-0.6,0.1-1.1-0.1-1.6-0.3c-0.3-0.3-0.5-0.7-0.4-1.2v-8.2
	c-1.1,0.1-1.8,0.2-2,0.2c0,4.4-1.2,7.7-3.7,9.8l-0.7-0.8c1.1-1,1.9-2.1,2.5-3.5c0.6-1.7,0.9-3.6,0.9-5.4c-0.7,0.1-1.4,0.1-2.2,0.1
	l-0.2-1c1.3-1.5,2.3-3.3,3.1-5.1H68v-1.1h3.8c0.2-0.6,0.5-1.4,0.9-2.6l1,0.3c-0.3,1-0.6,1.8-0.8,2.3h5.6V113.1z"/>
<path class="st28" d="M78.1,8.4c0,2-1.6,3.7-3.7,3.7c-2,0-3.7-1.6-3.7-3.7c0-2,1.6-3.7,3.7-3.7c0,0,0,0,0,0
	C76.5,4.7,78.2,6.3,78.1,8.4L78.1,8.4z"/>
</svg>
