<?xml version="1.0" encoding="utf-8"?>
<!-- Generator: Adobe Illustrator 24.1.1, SVG Export Plug-In . SVG Version: 6.00 Build 0)  -->
<svg version="1.1" xmlns="http://www.w3.org/2000/svg" xmlns:xlink="http://www.w3.org/1999/xlink" x="0px" y="0px"
	 viewBox="0 0 120 160" style="enable-background:new 0 0 120 160;" xml:space="preserve">
<style type="text/css">
	.st0{fill-rule:evenodd;clip-rule:evenodd;fill:#5F7696;}
	.st1{fill-rule:evenodd;clip-rule:evenodd;fill:url(#SVGID_1_);}
	.st2{fill:url(#SVGID_2_);}
	.st3{fill:url(#SVGID_3_);}
	.st4{fill:url(#SVGID_4_);}
	.st5{fill:url(#SVGID_5_);}
	.st6{fill:url(#SVGID_6_);}
	.st7{fill:url(#SVGID_7_);}
	.st8{fill:url(#SVGID_8_);}
	.st9{fill:url(#SVGID_9_);}
	.st10{fill:url(#SVGID_10_);}
	.st11{fill:url(#SVGID_11_);}
	.st12{fill:url(#SVGID_12_);}
	.st13{fill:url(#SVGID_13_);}
	.st14{fill:url(#SVGID_14_);}
	.st15{fill:url(#SVGID_15_);}
	.st16{fill:url(#SVGID_16_);}
	.st17{fill:url(#SVGID_17_);}
	.st18{fill:url(#SVGID_18_);}
	.st19{fill:url(#SVGID_19_);}
	.st20{fill:url(#SVGID_20_);}
	.st21{fill:url(#SVGID_21_);}
	.st22{fill:url(#SVGID_22_);}
	.st23{fill:#4C6075;}
	.st24{fill:#FFFFFF;}
	.st25{fill:#211513;}
	.st26{fill-rule:evenodd;clip-rule:evenodd;fill:#AD181C;}
	.st27{display:none;}
	.st28{display:inline;fill:#CF121B;}
</style>
<g id="圖層_1">
	<path class="st0" d="M84.3,19.8C63.3,4.3,33.6,8.9,18.2,29.9C5.9,46.7,6,69.5,18.4,86.2c6.5,8.9,15.8,15.3,26.5,18.1
		c4.5,1.1,8.3,1.3,12.7,3.1c13.1,5.4,13,19.9-12.7,40.2c44-17.9,68.8-65.6,57.8-101.6C99.5,35.6,93.1,26.4,84.3,19.8z"/>
	
		<linearGradient id="SVGID_1_" gradientUnits="userSpaceOnUse" x1="-5.0175" y1="324.6305" x2="101.7425" y2="324.6305" gradientTransform="matrix(0.84 -0.54 0.54 0.84 -161.8 -172.75)">
		<stop  offset="0" style="stop-color:#D33924"/>
		<stop  offset="0.15" style="stop-color:#CB3023"/>
		<stop  offset="0.35" style="stop-color:#BB1C21"/>
		<stop  offset="0.57" style="stop-color:#AA1B20"/>
		<stop  offset="1" style="stop-color:#7F191E"/>
		<stop  offset="1" style="stop-color:#7F191E"/>
	</linearGradient>
	<path class="st1" d="M86.1,19.6C65,4.1,35.4,8.7,20,29.9S9.1,80.6,30.2,96c4.9,3.6,10.5,6.2,16.4,7.7c4.4,1.1,8.6,1.2,12.7,3.4
		c12.9,6.9,11.1,22.9-14.5,40.5c44-17.9,70.6-65.8,59.6-101.8C101.3,35.3,94.9,26.1,86.1,19.6z"/>
	
		<linearGradient id="SVGID_2_" gradientUnits="userSpaceOnUse" x1="17.9925" y1="310.6533" x2="100.0926" y2="310.6533" gradientTransform="matrix(0.84 -0.54 0.54 0.84 -161.8 -172.75)">
		<stop  offset="0" style="stop-color:#D33924"/>
		<stop  offset="0.15" style="stop-color:#CB3023"/>
		<stop  offset="0.35" style="stop-color:#BB1C21"/>
		<stop  offset="0.57" style="stop-color:#AA1B20"/>
		<stop  offset="1" style="stop-color:#7F191E"/>
		<stop  offset="1" style="stop-color:#7F191E"/>
	</linearGradient>
	<path class="st2" d="M20.1,47c3.3-22.4,24.2-37.9,46.6-34.5s37.9,24.2,34.6,46.6S77.1,97,54.6,93.7C32.2,90.3,16.7,69.5,20.1,47
		L20.1,47z"/>
	
		<linearGradient id="SVGID_3_" gradientUnits="userSpaceOnUse" x1="4.9922" y1="339.6342" x2="87.5322" y2="339.6342" gradientTransform="matrix(0.8493 -0.5087 0.5087 0.8493 -153.1983 -210.6069)">
		<stop  offset="0" style="stop-color:#CD3B28"/>
		<stop  offset="0.15" style="stop-color:#C53227"/>
		<stop  offset="0.35" style="stop-color:#B61F25"/>
		<stop  offset="0.57" style="stop-color:#A51E24"/>
		<stop  offset="1" style="stop-color:#7D1C22"/>
	</linearGradient>
	<path class="st3" d="M20,47.3c3.3-22.4,24.2-37.8,46.6-34.5s37.8,24.2,34.5,46.6S76.9,97.2,54.5,93.9l0,0
		C32.1,90.6,16.7,69.7,20,47.3L20,47.3z"/>
	
		<linearGradient id="SVGID_4_" gradientUnits="userSpaceOnUse" x1="-7.892" y1="370.029" x2="75.048" y2="370.029" gradientTransform="matrix(0.86 -0.48 0.48 0.86 -143.87 -249.8499)">
		<stop  offset="0" style="stop-color:#C63D2C"/>
		<stop  offset="0.16" style="stop-color:#BE342B"/>
		<stop  offset="0.35" style="stop-color:#B02329"/>
		<stop  offset="0.59" style="stop-color:#9F2228"/>
		<stop  offset="1" style="stop-color:#7A2026"/>
	</linearGradient>
	<path class="st4" d="M19.9,47.6c3.4-22.4,24.2-37.8,46.5-34.5s37.8,24.1,34.4,46.5C97.5,81.9,76.7,97.3,54.3,94
		C32,90.7,16.6,69.9,19.9,47.6z"/>
	
		<linearGradient id="SVGID_5_" gradientUnits="userSpaceOnUse" x1="-29.7903" y1="406.9473" x2="53.4814" y2="406.9473" gradientTransform="matrix(0.866 -0.4587 0.4587 0.866 -137.0031 -293.0079)">
		<stop  offset="0" style="stop-color:#C03F30"/>
		<stop  offset="0.17" style="stop-color:#B8362F"/>
		<stop  offset="0.35" style="stop-color:#AB262D"/>
		<stop  offset="0.6" style="stop-color:#9A252C"/>
		<stop  offset="1" style="stop-color:#78232A"/>
	</linearGradient>
	<path class="st5" d="M19.9,47.9c3.3-22.3,24-37.7,46.3-34.4s37.7,24,34.4,46.3s-24,37.7-46.3,34.4c0,0,0,0-0.1,0
		C32,90.9,16.6,70.2,19.9,47.9z"/>
	
		<linearGradient id="SVGID_6_" gradientUnits="userSpaceOnUse" x1="-43.0885" y1="444.2193" x2="40.4714" y2="444.2193" gradientTransform="matrix(0.87 -0.43 0.43 0.87 -131.23 -332.25)">
		<stop  offset="0" style="stop-color:#B94133"/>
		<stop  offset="0.17" style="stop-color:#B23832"/>
		<stop  offset="0.35" style="stop-color:#A62931"/>
		<stop  offset="0.61" style="stop-color:#952830"/>
		<stop  offset="1" style="stop-color:#75272F"/>
	</linearGradient>
	<path class="st6" d="M19.8,48.1c3.3-22.2,24-37.6,46.3-34.3s37.6,24,34.3,46.3c-3.3,22.3-24,37.6-46.3,34.3l0,0
		C31.8,91.1,16.5,70.4,19.8,48.1z"/>
	
		<linearGradient id="SVGID_7_" gradientUnits="userSpaceOnUse" x1="-57.985" y1="480.2782" x2="25.7949" y2="480.2782" gradientTransform="matrix(0.8803 -0.4075 0.4075 0.8803 -122.1292 -374.7992)">
		<stop  offset="0" style="stop-color:#B34237"/>
		<stop  offset="0.18" style="stop-color:#AB3936"/>
		<stop  offset="0.35" style="stop-color:#A02C35"/>
		<stop  offset="0.63" style="stop-color:#8F2B34"/>
		<stop  offset="1" style="stop-color:#732A33"/>
	</linearGradient>
	<path class="st7" d="M19.7,48.4c3.3-22.2,24-37.6,46.2-34.3s37.6,24,34.3,46.2c-3.3,22.2-24,37.6-46.2,34.3l0,0
		C31.7,91.3,16.4,70.6,19.7,48.4L19.7,48.4z"/>
	
		<linearGradient id="SVGID_8_" gradientUnits="userSpaceOnUse" x1="-69.5524" y1="516.3625" x2="14.4076" y2="516.3625" gradientTransform="matrix(0.891 -0.3835 0.3835 0.891 -112.7608 -416.536)">
		<stop  offset="0" style="stop-color:#AC443B"/>
		<stop  offset="0.2" style="stop-color:#A43B3A"/>
		<stop  offset="0.35" style="stop-color:#9B3039"/>
		<stop  offset="0.64" style="stop-color:#8A2F38"/>
		<stop  offset="1" style="stop-color:#702D37"/>
	</linearGradient>
	<path class="st8" d="M19.6,48.7c3.3-22.2,24-37.6,46.1-34.3s37.5,24,34.2,46.1C96.6,82.7,76,98,53.8,94.7
		C31.6,91.5,16.3,70.9,19.6,48.7L19.6,48.7z"/>
	
		<linearGradient id="SVGID_9_" gradientUnits="userSpaceOnUse" x1="-77.98" y1="559.2597" x2="6.08" y2="559.2597" gradientTransform="matrix(0.8918 -0.3553 0.3553 0.8918 -108.6901 -455.9743)">
		<stop  offset="0" style="stop-color:#A6463F"/>
		<stop  offset="0.2" style="stop-color:#9E3D3E"/>
		<stop  offset="0.35" style="stop-color:#96333D"/>
		<stop  offset="0.66" style="stop-color:#85323C"/>
		<stop  offset="1" style="stop-color:#6E313B"/>
	</linearGradient>
	<path class="st9" d="M19.6,48.9c3.3-22.1,23.9-37.4,46.1-34.1s37.4,23.9,34.1,46.1C96.5,83,75.9,98.3,53.7,95l0,0
		C31.6,91.7,16.3,71,19.6,48.9z"/>
	
		<linearGradient id="SVGID_10_" gradientUnits="userSpaceOnUse" x1="-85.2594" y1="597.553" x2="-1.1594" y2="597.553" gradientTransform="matrix(0.9012 -0.3307 0.3307 0.9012 -100.0269 -497.3925)">
		<stop  offset="0" style="stop-color:#9F4843"/>
		<stop  offset="0.21" style="stop-color:#983F42"/>
		<stop  offset="0.35" style="stop-color:#913641"/>
		<stop  offset="0.67" style="stop-color:#803540"/>
		<stop  offset="1" style="stop-color:#6B343F"/>
	</linearGradient>
	<path class="st10" d="M19.5,49.2c3.3-22.1,23.9-37.4,46-34.1s37.4,23.9,34.1,46s-23.9,37.3-46,34.1C31.5,91.9,16.2,71.3,19.5,49.2
		L19.5,49.2L19.5,49.2z"/>
	
		<linearGradient id="SVGID_11_" gradientUnits="userSpaceOnUse" x1="-90.2703" y1="636.668" x2="-6.2003" y2="636.668" gradientTransform="matrix(0.91 -0.3057 0.3057 0.91 -91.6805 -538.6131)">
		<stop  offset="0" style="stop-color:#994A47"/>
		<stop  offset="0.22" style="stop-color:#914146"/>
		<stop  offset="0.35" style="stop-color:#8B3945"/>
		<stop  offset="0.7" style="stop-color:#7A3944"/>
		<stop  offset="1" style="stop-color:#693843"/>
	</linearGradient>
	<path class="st11" d="M19.4,49.5c3.3-22.1,23.8-37.3,45.9-34s37.3,23.8,34,45.9s-23.8,37.3-45.9,34l0,0
		C31.3,92.1,16.1,71.5,19.4,49.5z"/>
	
		<linearGradient id="SVGID_12_" gradientUnits="userSpaceOnUse" x1="-93.098" y1="676.3654" x2="-9.102" y2="676.3654" gradientTransform="matrix(0.9181 -0.2805 0.2805 0.9181 -83.7255 -579.7168)">
		<stop  offset="0" style="stop-color:#934C4B"/>
		<stop  offset="0.24" style="stop-color:#8B434A"/>
		<stop  offset="0.35" style="stop-color:#863D49"/>
		<stop  offset="0.73" style="stop-color:#753C48"/>
		<stop  offset="1" style="stop-color:#673B47"/>
	</linearGradient>
	<path class="st12" d="M19.3,49.7c3.3-22,23.8-37.2,45.8-34s37.2,23.8,34,45.8c-3.3,22-23.8,37.2-45.8,34
		C31.3,92.3,16.1,71.8,19.3,49.7C19.3,49.8,19.3,49.7,19.3,49.7z"/>
	
		<linearGradient id="SVGID_13_" gradientUnits="userSpaceOnUse" x1="-93.2872" y1="716.7278" x2="-9.4513" y2="716.7278" gradientTransform="matrix(0.9255 -0.2549 0.2549 0.9255 -76.1268 -620.5814)">
		<stop  offset="0" style="stop-color:#8C4E4F"/>
		<stop  offset="0.26" style="stop-color:#85454E"/>
		<stop  offset="0.35" style="stop-color:#81404D"/>
		<stop  offset="0.75" style="stop-color:#703F4C"/>
		<stop  offset="1" style="stop-color:#643E4C"/>
	</linearGradient>
	<path class="st13" d="M19.2,50c3.3-22,23.7-37.2,45.7-33.9s37.2,23.7,33.9,45.7S75.1,99,53.1,95.7C31.2,92.5,16,72,19.2,50L19.2,50
		z"/>
	
		<linearGradient id="SVGID_14_" gradientUnits="userSpaceOnUse" x1="-91.2959" y1="757.704" x2="-7.636" y2="757.704" gradientTransform="matrix(0.9322 -0.2293 0.2293 0.9322 -68.9207 -661.476)">
		<stop  offset="0" style="stop-color:#865052"/>
		<stop  offset="0.27" style="stop-color:#7E4751"/>
		<stop  offset="0.35" style="stop-color:#7B4351"/>
		<stop  offset="0.81" style="stop-color:#6A4250"/>
		<stop  offset="1" style="stop-color:#624250"/>
	</linearGradient>
	<path class="st14" d="M19.2,50.3c3.3-22,23.7-37.1,45.6-33.8s37.1,23.7,33.8,45.6c-3.3,22-23.7,37.1-45.6,33.8l0,0
		C31.1,92.6,15.9,72.2,19.2,50.3L19.2,50.3z"/>
	
		<linearGradient id="SVGID_15_" gradientUnits="userSpaceOnUse" x1="-86.6456" y1="798.9527" x2="-3.2956" y2="798.9527" gradientTransform="matrix(0.9382 -0.2035 0.2035 0.9382 -62.0698 -702.2749)">
		<stop  offset="0" style="stop-color:#7F5156"/>
		<stop  offset="0.31" style="stop-color:#774855"/>
		<stop  offset="0.35" style="stop-color:#764655"/>
		<stop  offset="0.84" style="stop-color:#654554"/>
		<stop  offset="1" style="stop-color:#5F4554"/>
	</linearGradient>
	<path class="st15" d="M19.1,50.5c3.3-21.9,23.7-37,45.6-33.8s37,23.7,33.8,45.6c-3.3,21.9-23.7,37-45.6,33.8l0,0
		C31,92.8,15.8,72.4,19.1,50.5L19.1,50.5z"/>
	
		<linearGradient id="SVGID_16_" gradientUnits="userSpaceOnUse" x1="-79.5175" y1="840.6532" x2="3.4924" y2="840.6532" gradientTransform="matrix(0.9434 -0.1777 0.1777 0.9434 -55.6366 -743.0378)">
		<stop  offset="0" style="stop-color:#79535A"/>
		<stop  offset="0.35" style="stop-color:#714A59"/>
		<stop  offset="0.9" style="stop-color:#604958"/>
		<stop  offset="1" style="stop-color:#5D4958"/>
	</linearGradient>
	<path class="st16" d="M19,50.8C22.3,29,42.7,13.9,64.5,17.1s36.9,23.6,33.7,45.5c-3.3,21.8-23.6,36.9-45.5,33.7
		C30.9,93,15.8,72.7,19,50.8L19,50.8z"/>
	
		<linearGradient id="SVGID_17_" gradientUnits="userSpaceOnUse" x1="-73.4972" y1="873.387" x2="9.1028" y2="873.387" gradientTransform="matrix(0.9578 -0.1534 0.1534 0.9578 -44.3585 -784.61)">
		<stop  offset="0" style="stop-color:#72555E"/>
		<stop  offset="0.35" style="stop-color:#6B4D5D"/>
		<stop  offset="0.99" style="stop-color:#5A4C5C"/>
		<stop  offset="1" style="stop-color:#5A4C5C"/>
	</linearGradient>
	<path class="st17" d="M19,51.1c3.2-21.9,23.6-37,45.4-33.7s37,23.6,33.7,45.4s-23.6,37-45.4,33.7c0,0,0,0-0.1,0
		C30.8,93.2,15.7,72.9,19,51.1C18.9,51.1,18.9,51.1,19,51.1z"/>
	
		<linearGradient id="SVGID_18_" gradientUnits="userSpaceOnUse" x1="-61.349" y1="914.9163" x2="20.791" y2="914.9163" gradientTransform="matrix(0.9616 -0.1273 0.1273 0.9616 -38.6922 -825.2072)">
		<stop  offset="0" style="stop-color:#6C5762"/>
		<stop  offset="0.35" style="stop-color:#665061"/>
		<stop  offset="1" style="stop-color:#584F60"/>
	</linearGradient>
	<path class="st18" d="M18.9,51.3c3.2-21.8,23.5-36.8,45.3-33.6S101,41.2,97.8,63c-3.3,21.9-23.6,36.9-45.3,33.7
		C30.7,93.4,15.6,73.1,18.9,51.3L18.9,51.3z"/>
	
		<linearGradient id="SVGID_19_" gradientUnits="userSpaceOnUse" x1="-51.3246" y1="946.7654" x2="30.3054" y2="946.7654" gradientTransform="matrix(0.9746 -0.1024 0.1024 0.9746 -28.101 -866.4572)">
		<stop  offset="0" style="stop-color:#655966"/>
		<stop  offset="0.35" style="stop-color:#615365"/>
		<stop  offset="1" style="stop-color:#555365"/>
	</linearGradient>
	<path class="st19" d="M18.8,51.6C22,29.9,42.3,14.8,64,18.1s36.8,23.5,33.5,45.2C94.3,85,74,100,52.3,96.8S15.6,73.4,18.8,51.6z"/>
	
		<linearGradient id="SVGID_20_" gradientUnits="userSpaceOnUse" x1="-34.8568" y1="988.0281" x2="46.2315" y2="988.0281" gradientTransform="matrix(0.977 -7.654888e-02 7.654888e-02 0.977 -23.189 -907.217)">
		<stop  offset="0" style="stop-color:#5F5B6A"/>
		<stop  offset="0.35" style="stop-color:#5C5769"/>
		<stop  offset="1" style="stop-color:#535669"/>
	</linearGradient>
	<path class="st20" d="M18.7,51.9c3.2-21.7,23.4-36.7,45.1-33.5s36.7,23.4,33.5,45.1S73.9,100.2,52.2,97l0,0
		C30.5,93.8,15.5,73.6,18.7,51.9z"/>
	
		<linearGradient id="SVGID_21_" gradientUnits="userSpaceOnUse" x1="-19.908" y1="1016.66" x2="60.532" y2="1016.66" gradientTransform="matrix(0.99 -5.000000e-02 5.000000e-02 0.99 -12.63 -947.6)">
		<stop  offset="0" style="stop-color:#595D6D"/>
		<stop  offset="0.35" style="stop-color:#565A6D"/>
		<stop  offset="1" style="stop-color:#515A6D"/>
	</linearGradient>
	<path class="st21" d="M18.6,52.1C21.8,30.4,42,15.5,63.7,18.7s36.6,23.4,33.4,45.1S73.7,100.4,52,97.2l0,0
		C30.4,94,15.4,73.8,18.6,52.1z"/>
	
		<linearGradient id="SVGID_22_" gradientUnits="userSpaceOnUse" x1="0.3002" y1="1059.1643" x2="80.0702" y2="1059.1643" gradientTransform="matrix(0.9897 -2.539699e-02 2.539699e-02 0.9897 -9.1334 -989.0278)">
		<stop  offset="0" style="stop-color:#525F71"/>
		<stop  offset="0.35" style="stop-color:#515D71"/>
		<stop  offset="1" style="stop-color:#4E5D71"/>
	</linearGradient>
	<path class="st22" d="M18.6,52.4c3.2-21.6,23.4-36.6,45-33.3s36.6,23.4,33.3,45c-3.2,21.6-23.4,36.6-45,33.3
		C30.3,94.2,15.4,74,18.6,52.4L18.6,52.4z"/>
	<path class="st23" d="M18.5,52.7c3.2-21.6,23.3-36.5,44.9-33.3s36.5,23.3,33.3,44.9c-3.2,21.6-23.3,36.5-44.9,33.3l0,0
		C30.2,94.4,15.3,74.3,18.5,52.7L18.5,52.7z"/>
	<path class="st24" d="M18.5,52.7c3.2-21.6,23.3-36.5,44.9-33.3s36.5,23.3,33.3,44.9c-3.2,21.6-23.3,36.5-44.9,33.3l0,0
		C30.2,94.4,15.3,74.3,18.5,52.7L18.5,52.7z"/>
	<path class="st24" d="M20,52.9c3.1-20.8,22.4-35.1,43.2-32s35.1,22.4,32,43.2c-3.1,20.7-22.4,35-43.2,32C31.2,93,16.9,73.7,20,52.9
		L20,52.9z"/>
	<path class="st25" d="M51.5,39L51,40c-1.5-1.6-3.1-3-4.9-4.2c-0.7,0.8-1.4,1.6-2.2,2.2h4.5v1h-4.5v-0.9c-1.1,0.9-2.2,1.7-3.3,2.4
		l-0.5-1c2.3-1.3,4.3-3.1,5.9-5.2l1.1,0.3c0,0.1-0.1,0.2-0.2,0.3C48.4,36.2,50.1,37.5,51.5,39z M50.2,53.8h-1v-1.1h-5.6v1.1h-1V49
		c-0.2,1.7-0.8,3.4-1.8,4.8l-0.7-0.7c1.3-2.3,1.9-5,1.8-7.7v-5.1h8.4v6.1h-7.4c0,0.4-0.1,0.9-0.2,1.7h7.5
		C50.2,48.1,50.2,53.8,50.2,53.8z M49.2,42.8v-1.4h-6.3v1.5L49.2,42.8z M49.2,45.4v-1.5h-6.3v1.5H49.2z M49.2,51.6v-2.5h-5.6v2.5
		H49.2z M56.8,51.9c0,0.4-0.1,0.9-0.3,1.2c-0.3,0.4-0.7,0.6-1.1,0.6c-0.6,0-1.1,0-1.7,0h-0.8l-0.4-1.2c0.9,0,1.8,0,2.8,0
		c0.2,0,0.3-0.1,0.4-0.3c0.1-0.2,0.2-0.3,0.2-0.5V34.6h1v17.3H56.8z M53.4,49.7h-1V35.6h1V49.7z"/>
	<path class="st25" d="M61.1,47.6c-0.5,1.6-1.3,3.1-2.3,4.5l-0.9-0.7c0.9-1.3,1.7-2.8,2.2-4.3L61.1,47.6z M67.1,45.8h-4v8.1h-1v-8.1
		h-4v-1.1h4v-2.2h-3.8v-1.1h2.4c-0.2-1.1-0.6-2.2-1-3.3l0.7-0.5h-2v-1.1h3.7c-0.2-0.6-0.5-1.1-0.8-1.6l1-0.5c0.4,0.6,0.7,1.3,1,2
		h3.5v1.1h-1.6l0.7,0.5c-0.3,1.1-0.8,2.2-1.2,3.3H67v1.1h-3.8v2.2h4L67.1,45.8z M64.8,37.7h-4.1c0.5,1.2,0.8,2.5,1.1,3.8h1.7
		C64,40.2,64.5,39,64.8,37.7z M66.5,50l-0.9,0.6c-0.4-1.1-0.8-2.1-1.4-3.1L65,47C65.6,47.9,66.1,49,66.5,50z M75.2,42.8h-2.1v11.1
		h-1V42.8h-3c0,4.9-0.8,8.6-2.5,11.2l-0.8-0.7c0.8-1.4,1.4-2.9,1.8-4.4C68,47,68.2,45,68.2,43v-6.6c2.1-0.3,4.2-0.9,6.1-1.9l0.8,0.9
		c-1.9,0.9-3.8,1.6-5.9,1.9v4.3h6.1L75.2,42.8z"/>
	<path class="st25" d="M43,73.2c-0.5,2-1.3,3.9-2.4,5.6l-1-0.6c1-1.7,1.8-3.5,2.3-5.3L43,73.2z M55.3,71.2H41.7v-9.6h13.6
		C55.3,61.6,55.3,71.2,55.3,71.2z M48,65.8v-3.1h-5.2v3.1H48z M48,70.1v-3.2h-5.2v3.2H48z M53.4,76.4c0,1-0.2,1.9-0.6,2.8
		c-0.2,0.4-0.5,0.7-0.9,0.8c-1,0.1-1.9,0.2-2.9,0.1c-1,0-1.9,0-2.9-0.1c-0.3-0.1-0.6-0.2-0.8-0.5s-0.4-0.7-0.3-1.2v-5.8h1v5.7
		c0,0.3,0.1,0.6,0.4,0.7c0.9,0.1,1.8,0.2,2.7,0.2s1.7,0,2.6-0.1c0.2-0.1,0.4-0.5,0.5-1.2c0.1-0.6,0.2-1.2,0.2-1.8L53.4,76.4z
		 M50.6,75.3l-0.9,0.6c-0.6-1.2-1.3-2.4-2.1-3.4l0.9-0.6C49.3,73,50,74.1,50.6,75.3z M54.2,65.8v-3.1H49v3.1H54.2z M54.2,70.2v-3.3
		H49v3.2L54.2,70.2z M57.2,77.9l-0.8,0.7c-0.9-1.9-2-3.6-3.3-5.3l1-0.5C55.3,74.4,56.4,76.1,57.2,77.9L57.2,77.9z"/>
	<path class="st25" d="M60.3,75.2c-0.1,1.8-0.5,3.6-1.2,5.2l-0.9-0.5c0.6-1.6,1-3.2,1.1-4.9L60.3,75.2z M65.3,73.7l-1,0.4
		c-0.1-0.3-0.2-0.8-0.3-1.3c-1.8,0.6-3.6,1.1-5.4,1.5l-0.3-1c1.5-1.6,2.7-3.4,3.8-5.3c-1.2,0.3-2.3,0.6-3.6,0.7l-0.3-1
		c1.4-2.2,2.6-4.5,3.6-6.8l1,0.5c-1,2.1-2,4.1-3.3,6c1.1-0.2,2.2-0.4,3.3-0.8c0.4-0.7,0.9-1.6,1.4-2.6l0.9,0.6
		c-1.5,3-3.2,5.7-5.3,8.3c1.3-0.3,2.6-0.7,3.8-1.1l-0.5-1.3l0.9-0.4C64.7,71.2,65.1,72.4,65.3,73.7z M62.8,79.6l-1,0.2
		c0-1.5-0.2-3-0.5-4.5l1-0.2C62.7,76.6,62.9,78.1,62.8,79.6z M65.5,78.6l-0.9,0.3c-0.2-1.3-0.5-2.6-1-3.8l0.9-0.3
		C65,76,65.4,77.3,65.5,78.6L65.5,78.6z M75.5,79h-7.9v1.3h-1V67.8c-0.1,0.2-0.5,0.8-1.1,1.8L64.6,69c1.6-2.5,2.8-5.2,3.6-8l0.9,0.3
		c-0.4,1.3-0.8,2.6-1.3,3.8h3.5c-0.3-1.2-0.7-2.4-1.2-3.5l0.9-0.4c0.5,1.2,1,2.5,1.3,3.9h2.9v1.1h-3.4v2.9h3v1.1h-3v3.2h3v1.1h-3
		v3.4h3.6L75.5,79z M70.8,69.1v-2.9h-3.2v2.9H70.8z M70.8,73.4v-3.2h-3.2v3.2H70.8z M70.8,77.9v-3.5h-3.2v3.5H70.8z"/>
	<path class="st26" d="M46.5,152.4c0,2-1.6,3.7-3.7,3.7s-3.7-1.6-3.7-3.7s1.6-3.7,3.7-3.7l0,0C44.9,148.8,46.5,150.4,46.5,152.4z"/>
</g>
<g id="圖層_2" class="st27">
	<path class="st28" d="M-92.3,67.4h-6.6v13.2h-1.1V61.5h7.8L-92.3,67.4L-92.3,67.4z M-93.5,63.9v-1.3H-99v1.3H-93.5z M-93.5,66.3
		v-1.4H-99v1.4H-93.5z M-91.7,73.4l-0.9,0.4l-0.3-0.6l-4.6,0.6l-0.3-0.9c1-0.6,1.9-1.3,2.8-2.1l-2.6,0.3l-0.3-0.9
		c1.1-0.7,2.2-1.6,3-2.7l1.1,0.5c-0.6,0.7-1.3,1.4-2.1,2l2-0.3c0.4-0.3,0.8-0.7,1.1-1.1l1,0.5c-1.3,1.3-2.6,2.5-4,3.6l2.5-0.3
		c-0.1-0.2-0.3-0.5-0.4-0.7l0.9-0.4C-92.4,72-92,72.7-91.7,73.4z M-92.4,75.4c0.1,1.2-0.2,2.3-0.9,3.2c-0.8,0.8-1.8,1.3-2.9,1.5
		l-0.7-1c2-0.4,3.1-1.2,3.4-2.3H-97v-2.6h1.1V76h2.5c0-0.3,0.1-0.5,0.1-0.8v-1h1.1L-92.4,75.4z M-84.4,73.3l-0.9,0.6l-0.5-0.7
		l-5.3,0.5l-0.2-0.9c1-0.5,1.8-1.2,2.6-1.9l-2.6,0.3l-0.3-0.8c1.1-0.7,2.1-1.5,2.9-2.6l1.1,0.5c-0.6,0.7-1.2,1.3-1.9,1.9l1.9-0.2
		c0.2-0.2,0.5-0.5,1-0.9l0.9,0.4c-1.1,1.2-2.3,2.2-3.6,3.2l2.7-0.3c-0.2-0.3-0.4-0.5-0.6-0.7l0.9-0.5
		C-85.5,71.8-84.9,72.6-84.4,73.3L-84.4,73.3z M-86,77h-3.7v3.1h-1.1v-5.9h1.1V76h2.6v-1.7h1.1L-86,77L-86,77z M-82.5,79.3
		c0,0.4-0.1,0.7-0.4,1c-0.2,0.2-0.6,0.4-0.9,0.4c-1.2,0-1.9,0-2.1,0l-0.5-1.2c0.5,0,1,0.1,1.4,0.1s0.8,0,1.2-0.1
		c0.1-0.1,0.2-0.2,0.2-0.4V67.4h-6.7v-5.9h7.8V79.3z M-83.6,63.9v-1.3h-5.5v1.3H-83.6z M-83.6,66.3v-1.4h-5.5v1.4H-83.6z"/>
	<path class="st28" d="M-73.4,72.9c-1.2,2.7-2.7,5.3-4.4,7.8l-0.9-0.8c1.7-2.4,3.1-5,4.3-7.7L-73.4,72.9z M-73.6,69.1l-0.7,0.9
		c-1.3-1-2.7-2-4.1-2.8l0.7-1C-76.2,67-74.8,68-73.6,69.1L-73.6,69.1z M-73,63.9l-0.9,0.9c-1.2-1.1-2.5-2.1-3.9-3l0.7-0.9
		C-75.6,61.8-74.3,62.8-73,63.9L-73,63.9z M-59.1,80h-14.4v-1.1h6.9v-6.4h-5.2v-1.2h5.2v-5.4h-5.8v-1.2h6c-0.4-1.2-0.9-2.4-1.5-3.5
		l1.2-0.3c0.6,1.2,1.1,2.5,1.5,3.8h5.9v1.2h-6.2v5.4h5.4v1.2h-5.4v6.4h6.4L-59.1,80z"/>
	<path class="st28" d="M-36.6,70.2h-16.5v2.2c0,3.8-0.8,6.6-2.3,8.3l-0.8-0.8c0.7-0.9,1.2-1.8,1.5-2.9s0.5-2.2,0.5-3.3V69h17.7
		L-36.6,70.2L-36.6,70.2z M-37.1,64h-3.4c-0.7,0.8-1.5,1.6-2.4,2.2c1.6,0.4,3.2,0.9,4.8,1.5l-0.6,0.9c-1.8-0.7-3.7-1.3-5.6-1.7
		c-2.5,1-5.3,1.6-8,1.6l-0.4-1c2.2-0.1,4.4-0.4,6.6-1c-1.7-0.4-3.5-0.7-5.3-1l0.5-0.9c2.3,0.4,4.5,0.8,6.4,1.3
		c0.9-0.5,1.7-1.1,2.4-1.8h-12.8V63h8.4c-0.3-0.6-0.6-1.1-1-1.6l1.1-0.5c0.5,0.6,0.9,1.3,1.2,2h8.1V64z M-36.8,80h-16.1v-1h7.7v-2.2
		h-5.5v-1.1h5.5v-2H-50c-0.5,0.7-1.1,1.3-1.7,1.9l-0.7-1c1.2-1.1,2.2-2.4,2.9-3.9l1.1,0.3c-0.2,0.5-0.5,1-0.8,1.5h4.1v-1.8h1.1v1.8
		h6.2v1.1H-44v2h5.7v1.1H-44V79h7.3v1H-36.8z"/>
	<path class="st28" d="M-14.1,74.9h-9.1v5.7h-1.2v-5.7h-9.2v-1.1h9.2V72h-8.3v-1h8.3v-1.8h-8.7v-1.1h5.9c-0.3-0.6-0.8-1.2-1.3-1.8
		l0.9-0.5h-6v-1.1h7.4V61h1.2v3.6h2.5V61h1.1v3.6h7.3v1.1H-20l0.8,0.6c-0.3,0.6-0.7,1.2-1.1,1.7h5.7v1.1h-8.6v1.8h8.1v1h-8.1v1.8
		h9.1L-14.1,74.9z M-26.4,76.6c-2,1.5-4.1,2.6-6.5,3.4l-0.8-1c2.3-0.7,4.4-1.8,6.3-3.2L-26.4,76.6z M-28.5,63.6l-1,0.6
		c-0.7-0.8-1.4-1.6-2.2-2.3l1-0.7C-29.9,61.9-29.2,62.7-28.5,63.6z M-20.3,65.8h-7.1c0.6,0.7,1.1,1.5,1.5,2.3h4.2
		C-21.1,67.4-20.6,66.6-20.3,65.8z M-14.1,79.4l-0.7,0.9c-2.1-1.4-4.3-2.6-6.6-3.6l0.7-0.9C-18.4,76.8-16.2,78-14.1,79.4z
		 M-15.9,61.7c-0.6,0.9-1.4,1.7-2.3,2.3l-1-0.6c0.8-0.7,1.6-1.4,2.3-2.3L-15.9,61.7z"/>
	<path class="st28" d="M-4.8,78.8c0,1.2-0.7,1.8-2,1.8c-0.2,0-0.4,0-0.8,0L-8,79.4h1.4c0.2,0,0.3-0.1,0.4-0.2C-6.1,79.1-6,79-6,78.8
		v-6.9c-0.9,1-1.7,2-2.7,2.9l-0.6-0.7c0,2.2-0.4,4.5-1,6.6l-1.1-0.9c0.6-1.8,1-3.8,1-5.7c0.1-2.3,0.1-4.3,0.1-6.2v-6.5h5.5
		L-4.8,78.8z M-5.9,68l-0.6,0.6C-7.3,67.8-8.1,67-9,66.3v1.4c0,2.8,0,4.8-0.1,6c1.2-1.1,2.3-2.3,3.3-3.6L-5.9,68L-5.9,68z
		 M-5.9,67.7v-5H-9v3.5l0.6-0.7C-7.6,66.1-6.7,66.9-5.9,67.7z M6.9,61.9c-2.7,1.2-5.6,1.9-8.5,2.1v7.1c0.1,3.3-0.5,6.5-1.6,9.6
		l-1.1-0.5c1.1-2.9,1.6-5.9,1.5-9V63c3-0.1,6-0.8,8.8-2L6.9,61.9z M7.3,65.7c-2,0.9-4,1.5-6.2,1.9v11.3C2,78.4,2.9,78,3.7,77.5
		L4,78.6c-1.3,0.8-2.7,1.5-4.1,2.2l-0.4-1c0.3-0.3,0.4-0.7,0.4-1.1v-12c2.3-0.2,4.5-0.9,6.6-1.8L7.3,65.7z M8.4,79.9l-0.9,0.9
		c-2.6-2.7-4.1-6.6-4.4-11.6l1.1-0.3c0.1,1.1,0.3,2.3,0.5,3.4c1-0.9,1.8-1.9,2.6-2.9l0.9,0.7c-1,1.3-2.1,2.4-3.3,3.5
		C5.5,75.9,6.7,78.1,8.4,79.9L8.4,79.9z"/>
	<path class="st28" d="M22.1,61.9c-1.5,0.4-3,0.7-4.5,0.8v1.8h4.5v1.1h-4.5v1.7h4.1v6.5h-4.1v1.6h4.1v1.1h-4.1v2.3
		c1.3-0.1,2.7-0.3,4.1-0.5v1.1c-4,0.5-7.4,0.9-10.2,1.2l-0.3-1.2c1.6-0.1,3.4-0.3,5.3-0.5v-2.4h-4.1v-1.1h4.1v-1.6h-4.1v-6.5h4.1
		v-1.7h-4.9v-1.1h4.9v-1.6c-1.2,0.1-2.6,0.2-4.1,0.2l-0.4-1c3.2,0.1,6.4-0.3,9.6-1.1L22.1,61.9z M16.5,69.9v-1.6h-3v1.6H16.5z
		 M16.5,72.7V71h-3v1.7H16.5z M20.6,69.9v-1.6h-3v1.6H20.6z M20.6,72.7V71h-3v1.7H20.6z M29.9,65.4c0,3.3-0.1,6.3-0.2,9
		c0,1.6-0.1,3.2-0.4,4.8c-0.1,0.4-0.4,0.8-0.8,1.1c-0.7,0.3-1.5,0.4-2.2,0.4c-0.3,0-0.6,0-0.8,0l-0.4-1.2c0.8,0,1.6,0,2.2,0
		c0.3,0,0.6-0.1,0.8-0.3c0.3-0.3,0.4-0.6,0.4-1l0.2-4.3c0.1-2.4,0.1-4.8,0.1-7.3h-2.4c0.1,5-1.1,9.8-3.4,14.2l-1-0.5
		c2.1-3.6,3.2-8.2,3.3-13.7h-2.4v-1.1h2.4l0.1-4.4h1.1c0,1.8-0.1,3.3-0.1,4.4L29.9,65.4z"/>
	<path class="st28" d="M43.2,72.8c-0.5-0.2-0.8-0.6-0.8-1.1c0-0.2,0.1-0.5,0.3-0.7c0.2-0.2,0.5-0.4,0.8-0.3c0.7,0,1,0.5,1,1.4
		c-0.1,0.9-0.6,1.7-1.4,2.2l-0.5-0.4C42.9,73.6,43.1,73.3,43.2,72.8z"/>
	<path class="st28" d="M63.6,63.4h-2.8c-0.4,1.7-0.9,3.4-1.5,5h3.5V78h-1.1v-0.9h-2.1V79h-1.1v-8.9c-0.5,0.9-1,1.8-1.6,2.6l-0.8-0.8
		c1.7-2.6,2.9-5.5,3.5-8.5h-3v-1.1h7V63.4z M61.7,76.1v-6.5h-2.1v6.5H61.7z M75.8,80.1H63.2V79h4V65.9h-3.8v-1.1h12.1v1.1h-4V79h4.3
		V80.1z M66,75.4l-1.1,0.4c-0.1-2.4-0.5-4.8-1.1-7.1l1-0.4C65.4,70.6,65.8,73,66,75.4L66,75.4z M67.9,63.6l-1,0.5
		c-0.5-1-1.1-1.9-1.7-2.7l1-0.5C66.8,61.7,67.4,62.6,67.9,63.6L67.9,63.6z M70.4,79V65.9h-2.1V79H70.4z M73.6,61.3
		c-0.5,1-1.2,1.9-2,2.8l-0.9-0.6c0.7-0.8,1.4-1.7,2-2.7L73.6,61.3z M75.3,68.6c-0.3,2.4-0.9,4.8-1.7,7.1l-1-0.5
		c0.8-2.3,1.3-4.7,1.6-7.1L75.3,68.6z"/>
	<path class="st28" d="M85,71l-2.2,1v7.1c0,1.1-0.7,1.6-2.2,1.6h-1.2l-0.3-1.2c0.4,0,0.7,0.1,1.1,0.1s0.8,0,1.2-0.2
		c0.2-0.1,0.2-0.3,0.2-0.5v-6.4l-3,1.2l-0.3-1.2c1.5-0.5,2.5-0.9,3.2-1.2v-5.2h-3.1V65h3.1v-4h1.1v4h1.5v1.1h-1.5v4.7
		c0.7-0.2,1.4-0.5,2-0.9L85,71z M98.2,67.2H84.8v-1h3.9c-0.2-0.7-0.5-1.3-0.8-2h-2.1v-1.1H91c-0.3-0.7-0.6-1.2-0.8-1.5l1-0.5
		c0.4,0.6,0.7,1.3,1,2h5.5v1.1h-2.6c-0.2,0.7-0.5,1.4-0.8,2h3.9V67.2z M98.2,80.1H84.8v-1h6.1v-1.7h-5.7v-1.1h5.7v-1.5H86v-6.3h10.9
		v6.3h-4.8v1.5h5.6v1.1h-5.6V79h6L98.2,80.1z M90.9,71v-1.5h-3.8V71H90.9z M90.9,73.7V72h-3.8v1.6L90.9,73.7z M94,64.2h-4.9
		c0.2,0.6,0.5,1.2,0.7,2h3.3C93.4,65.6,93.7,64.9,94,64.2z M95.8,71v-1.5h-3.7V71H95.8z M95.8,73.7V72h-3.7v1.6L95.8,73.7z"/>
	<path class="st28" d="M119.5,80.6h-1.2v-1.1h-15.8V72h1.2v6.4h6.8v-8.7h-7v-7.4h1.2v6.2h5.8v-7.7h1.1v7.7h5.7v-6.2h1.2v7.4h-6.9
		v8.6h6.7V72h1.2L119.5,80.6z"/>
	<path class="st28" d="M130.8,78c-3.1,1.1-5.4,1.9-6.8,2.3l-0.5-1.1c0.3-0.1,0.7-0.2,1-0.3v-8.6h1.1v8.3c0.5-0.1,1-0.3,1.5-0.5v-9.6
		h-2.6v-6.8h5.4v6.8h-1.6v3.1h2v1.1h-2v5c0.9-0.2,1.7-0.5,2.5-0.9V78z M128.7,67.3v-4.4h-3v4.5L128.7,67.3z M143.3,68.4l-0.7,0.9
		c-2.1-1.1-3.8-2.9-4.7-5.1h-1.8c-1.1,2.1-2.6,3.8-4.6,5l-1-0.8c1.7-1,3.2-2.4,4.2-4.2H131v-1.1h4.2c0.3-0.7,0.5-1.5,0.7-2.3
		l1.2,0.3c-0.1,0.7-0.3,1.3-0.6,2h6.3v1.1h-3.7C140,66.1,141.5,67.6,143.3,68.4L143.3,68.4z M142.6,72h-7.4l-0.7,2.3h6.7
		c0,1.4-0.2,2.8-0.5,4.2c-0.1,0.7-0.5,1.3-1,1.8c-0.8,0.3-1.7,0.5-2.6,0.4c-0.6,0-1.4,0-2.1-0.1l-0.3-1.2c1,0,2.3,0.1,3.9,0.1
		c0.4,0,0.7-0.2,0.8-0.6c0.3-1.1,0.5-2.2,0.6-3.4h-7l1-3.4h-2.7v-1h11.4L142.6,72z M139.8,68.8h-5.7v-1.1h5.7V68.8z"/>
	<path class="st28" d="M155.5,65.6l-0.8,0.8c-1-1.3-2.2-2.5-3.5-3.4c-1.2,2-2.6,3.8-4.4,5.3l-0.7-1c2.1-1.8,3.7-4,4.9-6.5l1.1,0.3
		c-0.2,0.4-0.3,0.7-0.4,0.8C153.1,63,154.4,64.2,155.5,65.6z M155,71.6c-0.2,0.8-0.5,1.5-0.9,2.2c-0.6,1.3-1.4,2.5-2.2,3.7
		c0.7,0.7,1.4,1.5,2.1,2.3l-0.9,0.7c-1.6-2-3.4-3.8-5.5-5.3l0.8-0.8c0.8,0.6,1.7,1.3,2.7,2.2c1.2-1.5,2.1-3.3,2.7-5.1h-7.2v-1.1h8.4
		V71.6z M154.2,68.2h-5.5v-1.1h5.5V68.2z M165.7,62.6h-4.4c-0.3,1.3-0.6,2.2-0.7,2.6h4.1v11h-5.3l0.7,0.7c-1.3,1.4-2.7,2.7-4.3,3.7
		l-0.8-0.9c1.5-1,2.9-2.1,4.1-3.5h-2.7v-11h2.9c0.3-0.9,0.5-1.7,0.7-2.6h-4.6v-1h10.3L165.7,62.6L165.7,62.6z M163.5,68.3v-2h-5.9v2
		H163.5z M163.5,71.6v-2.2h-5.9v2.2H163.5z M163.5,75.1v-2.5h-5.9v2.5H163.5z M165.8,79.7l-0.7,0.8c-1.2-1.1-2.5-2.1-3.9-3l0.7-0.9
		C163.3,77.6,164.6,78.6,165.8,79.7L165.8,79.7z"/>
	<path class="st28" d="M174.4,76c-2,1-3.9,1.9-5.6,2.7l-0.4-1.1c0.9-0.3,1.8-0.7,2.6-1.2v-8.7h-2.2v-1.1h2.2V61h1.1v5.6h1.9v1.1
		h-1.9v8.2c0.7-0.3,1.4-0.6,2.1-1L174.4,76z M188.2,76.3c-0.1,1.1-0.4,2.2-0.8,3.2c-0.2,0.6-0.8,1-1.4,1c-1,0-1.9-1.2-2.8-3.5
		c-1.2,1.4-2.6,2.7-4.2,3.6l-0.8-1c1.8-1,3.4-2.4,4.6-4.1c-0.7-3.4-1.1-6.9-1.1-10.3H174v-1.1h7.7c0-0.7,0-1.3,0-2
		c0-0.5,0-0.9,0-1.2h1.1c0,1.7,0,2.8,0,3.3h5.1v1.1h-5.1c0,3,0.3,5.9,0.8,8.9c1.1-2.1,1.9-4.3,2.3-6.6l1.1,0.3c-0.6,2.8-1.6,5.5-3,8
		c0.2,0.6,0.4,1.2,0.7,1.7c0.2,0.4,0.5,0.9,0.8,1.3c0.2,0.2,0.4,0.3,0.5,0.3s0.2-0.1,0.3-0.2c0.2-0.3,0.3-0.7,0.3-1
		c0.2-0.7,0.3-1.4,0.4-2.2L188.2,76.3z M181.2,76c-2.5,0.9-4.7,1.7-6.7,2.3l-0.3-1.2c1.9-0.5,4.1-1.3,6.9-2.3L181.2,76z M180,73.5
		h-4.8v-5.9h4.8V73.5z M178.9,72.4v-3.7h-2.5v3.7H178.9z M186.9,63l-0.9,0.8c-0.5-0.7-1-1.3-1.7-1.9l0.9-0.7
		C185.8,61.7,186.4,62.3,186.9,63L186.9,63z"/>
	<path class="st28" d="M198.3,67.3c-0.6,1.1-1.2,2.2-1.9,3.2v10.1h-1.2V72c-1,1.1-2.1,2-3.3,2.9L191,74c2.7-1.7,4.9-4.2,6.2-7.2
		L198.3,67.3z M200.4,64.3h-2.7v2.2h-1.2v-2.2h-5.4v-1.1h5.4v-2.4h1.2v2.4h2.7L200.4,64.3z M210.6,75.6c0,1.2-0.1,2.4-0.5,3.5
		c-0.2,0.4-0.5,0.8-1,1c-1.1,0.2-2.3,0.3-3.4,0.3c-1.3,0.1-2.6,0-3.8-0.3c-0.5-0.3-0.7-0.9-0.6-1.4V67.1h1.2v3.8h7.8V72h-7.8v6.5
		c0,0.3,0.1,0.5,0.4,0.6c0.9,0.1,1.9,0.2,2.8,0.1c1,0.1,2,0,3-0.2c0.2-0.1,0.4-0.5,0.5-1.3c0.1-0.9,0.2-1.7,0.3-2.6L210.6,75.6z
		 M210.7,64.3h-5.3v2.3h-1.2v-2.4h-2.9v-1.1h2.9v-2.4h1.2v2.4h5.3V64.3z"/>
	<path class="st28" d="M233.1,79.8l-0.7,1c-5.1-2.9-8.2-6.6-9.2-11.3c-0.8,4.6-3.8,8.4-9,11.3l-0.8-1c2.1-1.1,4-2.6,5.6-4.3
		c1.6-1.8,2.7-4,3-6.4c0.4-2.7,0.6-5.4,0.5-8.1h1.2l-0.1,3.5c0,2.1,0.3,4.1,1,6.1c2.4-1.9,4.5-4,6.3-6.4l1,0.8
		c-2,2.5-4.3,4.8-6.8,6.8C226.9,75.1,229.6,78,233.1,79.8z M220.1,70.8l-1,0.7c-1.2-2.4-2.8-4.6-4.6-6.5l1-0.7
		C217.4,66.2,218.9,68.4,220.1,70.8L220.1,70.8z"/>
</g>
</svg>
