<?xml version="1.0" encoding="utf-8"?>
<!-- Generator: Adobe Illustrator 24.1.1, SVG Export Plug-In . SVG Version: 6.00 Build 0)  -->
<svg version="1.1" id="圖層_1" xmlns="http://www.w3.org/2000/svg" xmlns:xlink="http://www.w3.org/1999/xlink" x="0px" y="0px"
	 viewBox="0 0 120 160" style="enable-background:new 0 0 120 160;" xml:space="preserve">
<style type="text/css">
	.st0{display:none;}
	.st1{display:inline;fill:#CF121B;}
	.st2{fill-rule:evenodd;clip-rule:evenodd;fill:#5F7696;}
	.st3{fill-rule:evenodd;clip-rule:evenodd;fill:url(#SVGID_1_);}
	.st4{fill:url(#SVGID_2_);}
	.st5{fill:url(#SVGID_3_);}
	.st6{fill:url(#SVGID_4_);}
	.st7{fill:url(#SVGID_5_);}
	.st8{fill:url(#SVGID_6_);}
	.st9{fill:url(#SVGID_7_);}
	.st10{fill:url(#SVGID_8_);}
	.st11{fill:url(#SVGID_9_);}
	.st12{fill:url(#SVGID_10_);}
	.st13{fill:url(#SVGID_11_);}
	.st14{fill:url(#SVGID_12_);}
	.st15{fill:url(#SVGID_13_);}
	.st16{fill:url(#SVGID_14_);}
	.st17{fill:url(#SVGID_15_);}
	.st18{fill:url(#SVGID_16_);}
	.st19{fill:url(#SVGID_17_);}
	.st20{fill:url(#SVGID_18_);}
	.st21{fill:url(#SVGID_19_);}
	.st22{fill:url(#SVGID_20_);}
	.st23{fill:url(#SVGID_21_);}
	.st24{fill:url(#SVGID_22_);}
	.st25{fill:#4C6075;}
	.st26{fill:#FFFFFF;}
	.st27{fill:#211513;}
	.st28{fill-rule:evenodd;clip-rule:evenodd;fill:#AD181C;}
</style>
<g id="圖層_2_1_" class="st0">
	<path class="st1" d="M-92.3,67.4h-6.6v13.2h-1.1V61.5h7.8L-92.3,67.4L-92.3,67.4z M-93.5,63.9v-1.3H-99v1.3H-93.5z M-93.5,66.3
		v-1.4H-99v1.4H-93.5z M-91.7,73.4l-0.9,0.4l-0.3-0.6l-4.6,0.6l-0.3-0.9c1-0.6,1.9-1.3,2.8-2.1l-2.6,0.3l-0.3-0.9
		c1.1-0.7,2.2-1.6,3-2.7l1.1,0.5c-0.6,0.7-1.3,1.4-2.1,2l2-0.3c0.4-0.3,0.8-0.7,1.1-1.1l1,0.5c-1.3,1.3-2.6,2.5-4,3.6l2.5-0.3
		c-0.1-0.2-0.3-0.5-0.4-0.7l0.9-0.4C-92.4,72-92,72.7-91.7,73.4z M-92.4,75.4c0.1,1.2-0.2,2.3-0.9,3.2c-0.8,0.8-1.8,1.3-2.9,1.5
		l-0.7-1c2-0.4,3.1-1.2,3.4-2.3H-97v-2.6h1.1V76h2.5c0-0.3,0.1-0.5,0.1-0.8v-1h1.1L-92.4,75.4z M-84.4,73.3l-0.9,0.6l-0.5-0.7
		l-5.3,0.5l-0.2-0.9c1-0.5,1.8-1.2,2.6-1.9l-2.6,0.3l-0.3-0.8c1.1-0.7,2.1-1.5,2.9-2.6l1.1,0.5c-0.6,0.7-1.2,1.3-1.9,1.9l1.9-0.2
		c0.2-0.2,0.5-0.5,1-0.9l0.9,0.4c-1.1,1.2-2.3,2.2-3.6,3.2l2.7-0.3c-0.2-0.3-0.4-0.5-0.6-0.7l0.9-0.5
		C-85.5,71.8-84.9,72.6-84.4,73.3L-84.4,73.3z M-86,77h-3.7v3.1h-1.1v-5.9h1.1V76h2.6v-1.7h1.1V77L-86,77z M-82.5,79.3
		c0,0.4-0.1,0.7-0.4,1c-0.2,0.2-0.6,0.4-0.9,0.4c-1.2,0-1.9,0-2.1,0l-0.5-1.2c0.5,0,1,0.1,1.4,0.1s0.8,0,1.2-0.1
		c0.1-0.1,0.2-0.2,0.2-0.4V67.4h-6.7v-5.9h7.8V79.3z M-83.6,63.9v-1.3h-5.5v1.3H-83.6z M-83.6,66.3v-1.4h-5.5v1.4H-83.6z"/>
	<path class="st1" d="M-73.4,72.9c-1.2,2.7-2.7,5.3-4.4,7.8l-0.9-0.8c1.7-2.4,3.1-5,4.3-7.7L-73.4,72.9z M-73.6,69.1l-0.7,0.9
		c-1.3-1-2.7-2-4.1-2.8l0.7-1C-76.2,67-74.8,68-73.6,69.1L-73.6,69.1z M-73,63.9l-0.9,0.9c-1.2-1.1-2.5-2.1-3.9-3l0.7-0.9
		C-75.6,61.8-74.3,62.8-73,63.9L-73,63.9z M-59.1,80h-14.4v-1.1h6.9v-6.4h-5.2v-1.2h5.2v-5.4h-5.8v-1.2h6c-0.4-1.2-0.9-2.4-1.5-3.5
		l1.2-0.3c0.6,1.2,1.1,2.5,1.5,3.8h5.9v1.2h-6.2v5.4h5.4v1.2h-5.4v6.4h6.4V80z"/>
	<path class="st1" d="M-36.6,70.2h-16.5v2.2c0,3.8-0.8,6.6-2.3,8.3l-0.8-0.8c0.7-0.9,1.2-1.8,1.5-2.9s0.5-2.2,0.5-3.3V69h17.7
		L-36.6,70.2L-36.6,70.2z M-37.1,64h-3.4c-0.7,0.8-1.5,1.6-2.4,2.2c1.6,0.4,3.2,0.9,4.8,1.5l-0.6,0.9c-1.8-0.7-3.7-1.3-5.6-1.7
		c-2.5,1-5.3,1.6-8,1.6l-0.4-1c2.2-0.1,4.4-0.4,6.6-1c-1.7-0.4-3.5-0.7-5.3-1l0.5-0.9c2.3,0.4,4.5,0.8,6.4,1.3
		c0.9-0.5,1.7-1.1,2.4-1.8h-12.8V63h8.4c-0.3-0.6-0.6-1.1-1-1.6l1.1-0.5c0.5,0.6,0.9,1.3,1.2,2h8.1V64z M-36.8,80h-16.1v-1h7.7v-2.2
		h-5.5v-1.1h5.5v-2H-50c-0.5,0.7-1.1,1.3-1.7,1.9l-0.7-1c1.2-1.1,2.2-2.4,2.9-3.9l1.1,0.3c-0.2,0.5-0.5,1-0.8,1.5h4.1v-1.8h1.1v1.8
		h6.2v1.1H-44v2h5.7v1.1H-44V79h7.3L-36.8,80L-36.8,80z"/>
	<path class="st1" d="M-14.1,74.9h-9.1v5.7h-1.2v-5.7h-9.2v-1.1h9.2V72h-8.3v-1h8.3v-1.8h-8.7v-1.1h5.9c-0.3-0.6-0.8-1.2-1.3-1.8
		l0.9-0.5h-6v-1.1h7.4V61h1.2v3.6h2.5V61h1.1v3.6h7.3v1.1H-20l0.8,0.6c-0.3,0.6-0.7,1.2-1.1,1.7h5.7v1.1h-8.6v1.8h8.1v1h-8.1v1.8
		h9.1V74.9z M-26.4,76.6c-2,1.5-4.1,2.6-6.5,3.4l-0.8-1c2.3-0.7,4.4-1.8,6.3-3.2L-26.4,76.6z M-28.5,63.6l-1,0.6
		c-0.7-0.8-1.4-1.6-2.2-2.3l1-0.7C-29.9,61.9-29.2,62.7-28.5,63.6z M-20.3,65.8h-7.1c0.6,0.7,1.1,1.5,1.5,2.3h4.2
		C-21.1,67.4-20.6,66.6-20.3,65.8z M-14.1,79.4l-0.7,0.9c-2.1-1.4-4.3-2.6-6.6-3.6l0.7-0.9C-18.4,76.8-16.2,78-14.1,79.4z
		 M-15.9,61.7c-0.6,0.9-1.4,1.7-2.3,2.3l-1-0.6c0.8-0.7,1.6-1.4,2.3-2.3L-15.9,61.7z"/>
	<path class="st1" d="M-4.8,78.8c0,1.2-0.7,1.8-2,1.8c-0.2,0-0.4,0-0.8,0L-8,79.4h1.4c0.2,0,0.3-0.1,0.4-0.2C-6.1,79.1-6,79-6,78.8
		v-6.9c-0.9,1-1.7,2-2.7,2.9l-0.6-0.7c0,2.2-0.4,4.5-1,6.6l-1.1-0.9c0.6-1.8,1-3.8,1-5.7c0.1-2.3,0.1-4.3,0.1-6.2v-6.5h5.5V78.8z
		 M-5.9,68l-0.6,0.6C-7.3,67.8-8.1,67-9,66.3v1.4c0,2.8,0,4.8-0.1,6c1.2-1.1,2.3-2.3,3.3-3.6L-5.9,68L-5.9,68z M-5.9,67.7v-5H-9v3.5
		l0.6-0.7C-7.6,66.1-6.7,66.9-5.9,67.7z M6.9,61.9c-2.7,1.2-5.6,1.9-8.5,2.1v7.1c0.1,3.3-0.5,6.5-1.6,9.6l-1.1-0.5
		c1.1-2.9,1.6-5.9,1.5-9V63c3-0.1,6-0.8,8.8-2L6.9,61.9z M7.3,65.7c-2,0.9-4,1.5-6.2,1.9v11.3C2,78.4,2.9,78,3.7,77.5L4,78.6
		c-1.3,0.8-2.7,1.5-4.1,2.2l-0.4-1c0.3-0.3,0.4-0.7,0.4-1.1v-12c2.3-0.2,4.5-0.9,6.6-1.8L7.3,65.7z M8.4,79.9l-0.9,0.9
		c-2.6-2.7-4.1-6.6-4.4-11.6l1.1-0.3c0.1,1.1,0.3,2.3,0.5,3.4c1-0.9,1.8-1.9,2.6-2.9l0.9,0.7c-1,1.3-2.1,2.4-3.3,3.5
		C5.5,75.9,6.7,78.1,8.4,79.9L8.4,79.9z"/>
	<path class="st1" d="M22.1,61.9c-1.5,0.4-3,0.7-4.5,0.8v1.8h4.5v1.1h-4.5v1.7h4.1v6.5h-4.1v1.6h4.1v1.1h-4.1v2.3
		c1.3-0.1,2.7-0.3,4.1-0.5v1.1c-4,0.5-7.4,0.9-10.2,1.2l-0.3-1.2c1.6-0.1,3.4-0.3,5.3-0.5v-2.4h-4.1v-1.1h4.1v-1.6h-4.1v-6.5h4.1
		v-1.7h-4.9v-1.1h4.9v-1.6c-1.2,0.1-2.6,0.2-4.1,0.2l-0.4-1c3.2,0.1,6.4-0.3,9.6-1.1L22.1,61.9z M16.5,69.9v-1.6h-3v1.6H16.5z
		 M16.5,72.7V71h-3v1.7H16.5z M20.6,69.9v-1.6h-3v1.6H20.6z M20.6,72.7V71h-3v1.7H20.6z M29.9,65.4c0,3.3-0.1,6.3-0.2,9
		c0,1.6-0.1,3.2-0.4,4.8c-0.1,0.4-0.4,0.8-0.8,1.1c-0.7,0.3-1.5,0.4-2.2,0.4c-0.3,0-0.6,0-0.8,0l-0.4-1.2c0.8,0,1.6,0,2.2,0
		c0.3,0,0.6-0.1,0.8-0.3c0.3-0.3,0.4-0.6,0.4-1l0.2-4.3c0.1-2.4,0.1-4.8,0.1-7.3h-2.4c0.1,5-1.1,9.8-3.4,14.2l-1-0.5
		c2.1-3.6,3.2-8.2,3.3-13.7h-2.4v-1.1h2.4l0.1-4.4h1.1c0,1.8-0.1,3.3-0.1,4.4L29.9,65.4z"/>
	<path class="st1" d="M43.2,72.8c-0.5-0.2-0.8-0.6-0.8-1.1c0-0.2,0.1-0.5,0.3-0.7s0.5-0.4,0.8-0.3c0.7,0,1,0.5,1,1.4
		c-0.1,0.9-0.6,1.7-1.4,2.2l-0.5-0.4C42.9,73.6,43.1,73.3,43.2,72.8z"/>
	<path class="st1" d="M63.6,63.4h-2.8c-0.4,1.7-0.9,3.4-1.5,5h3.5V78h-1.1v-0.9h-2.1V79h-1.1v-8.9c-0.5,0.9-1,1.8-1.6,2.6l-0.8-0.8
		c1.7-2.6,2.9-5.5,3.5-8.5h-3v-1.1h7C63.6,62.3,63.6,63.4,63.6,63.4z M61.7,76.1v-6.5h-2.1v6.5H61.7z M75.8,80.1H63.2V79h4V65.9
		h-3.8v-1.1h12.1v1.1h-4V79h4.3V80.1z M66,75.4l-1.1,0.4c-0.1-2.4-0.5-4.8-1.1-7.1l1-0.4C65.4,70.6,65.8,73,66,75.4L66,75.4z
		 M67.9,63.6l-1,0.5c-0.5-1-1.1-1.9-1.7-2.7l1-0.5C66.8,61.7,67.4,62.6,67.9,63.6L67.9,63.6z M70.4,79V65.9h-2.1V79H70.4z
		 M73.6,61.3c-0.5,1-1.2,1.9-2,2.8l-0.9-0.6c0.7-0.8,1.4-1.7,2-2.7L73.6,61.3z M75.3,68.6c-0.3,2.4-0.9,4.8-1.7,7.1l-1-0.5
		c0.8-2.3,1.3-4.7,1.6-7.1L75.3,68.6z"/>
	<path class="st1" d="M85,71l-2.2,1v7.1c0,1.1-0.7,1.6-2.2,1.6h-1.2l-0.3-1.2c0.4,0,0.7,0.1,1.1,0.1s0.8,0,1.2-0.2
		c0.2-0.1,0.2-0.3,0.2-0.5v-6.4l-3,1.2l-0.3-1.2c1.5-0.5,2.5-0.9,3.2-1.2v-5.2h-3.1V65h3.1v-4h1.1v4h1.5v1.1h-1.5v4.7
		c0.7-0.2,1.4-0.5,2-0.9L85,71z M98.2,67.2H84.8v-1h3.9c-0.2-0.7-0.5-1.3-0.8-2h-2.1v-1.1H91c-0.3-0.7-0.6-1.2-0.8-1.5l1-0.5
		c0.4,0.6,0.7,1.3,1,2h5.5v1.1h-2.6c-0.2,0.7-0.5,1.4-0.8,2h3.9V67.2z M98.2,80.1H84.8v-1h6.1v-1.7h-5.7v-1.1h5.7v-1.5H86v-6.3h10.9
		v6.3h-4.8v1.5h5.6v1.1h-5.6V79h6L98.2,80.1z M90.9,71v-1.5h-3.8V71H90.9z M90.9,73.7V72h-3.8v1.6L90.9,73.7z M94,64.2h-4.9
		c0.2,0.6,0.5,1.2,0.7,2h3.3C93.4,65.6,93.7,64.9,94,64.2z M95.8,71v-1.5h-3.7V71H95.8z M95.8,73.7V72h-3.7v1.6L95.8,73.7z"/>
	<path class="st1" d="M119.5,80.6h-1.2v-1.1h-15.8V72h1.2v6.4h6.8v-8.7h-7v-7.4h1.2v6.2h5.8v-7.7h1.1v7.7h5.7v-6.2h1.2v7.4h-6.9v8.6
		h6.7V72h1.2L119.5,80.6z"/>
	<path class="st1" d="M130.8,78c-3.1,1.1-5.4,1.9-6.8,2.3l-0.5-1.1c0.3-0.1,0.7-0.2,1-0.3v-8.6h1.1v8.3c0.5-0.1,1-0.3,1.5-0.5v-9.6
		h-2.6v-6.8h5.4v6.8h-1.6v3.1h2v1.1h-2v5c0.9-0.2,1.7-0.5,2.5-0.9L130.8,78L130.8,78z M128.7,67.3v-4.4h-3v4.5L128.7,67.3z
		 M143.3,68.4l-0.7,0.9c-2.1-1.1-3.8-2.9-4.7-5.1h-1.8c-1.1,2.1-2.6,3.8-4.6,5l-1-0.8c1.7-1,3.2-2.4,4.2-4.2H131v-1.1h4.2
		c0.3-0.7,0.5-1.5,0.7-2.3l1.2,0.3c-0.1,0.7-0.3,1.3-0.6,2h6.3v1.1h-3.7C140,66.1,141.5,67.6,143.3,68.4L143.3,68.4z M142.6,72h-7.4
		l-0.7,2.3h6.7c0,1.4-0.2,2.8-0.5,4.2c-0.1,0.7-0.5,1.3-1,1.8c-0.8,0.3-1.7,0.5-2.6,0.4c-0.6,0-1.4,0-2.1-0.1l-0.3-1.2
		c1,0,2.3,0.1,3.9,0.1c0.4,0,0.7-0.2,0.8-0.6c0.3-1.1,0.5-2.2,0.6-3.4h-7l1-3.4h-2.7v-1h11.4L142.6,72z M139.8,68.8h-5.7v-1.1h5.7
		V68.8z"/>
	<path class="st1" d="M155.5,65.6l-0.8,0.8c-1-1.3-2.2-2.5-3.5-3.4c-1.2,2-2.6,3.8-4.4,5.3l-0.7-1c2.1-1.8,3.7-4,4.9-6.5l1.1,0.3
		c-0.2,0.4-0.3,0.7-0.4,0.8C153.1,63,154.4,64.2,155.5,65.6z M155,71.6c-0.2,0.8-0.5,1.5-0.9,2.2c-0.6,1.3-1.4,2.5-2.2,3.7
		c0.7,0.7,1.4,1.5,2.1,2.3l-0.9,0.7c-1.6-2-3.4-3.8-5.5-5.3l0.8-0.8c0.8,0.6,1.7,1.3,2.7,2.2c1.2-1.5,2.1-3.3,2.7-5.1h-7.2v-1.1h8.4
		L155,71.6L155,71.6z M154.2,68.2h-5.5v-1.1h5.5V68.2z M165.7,62.6h-4.4c-0.3,1.3-0.6,2.2-0.7,2.6h4.1v11h-5.3l0.7,0.7
		c-1.3,1.4-2.7,2.7-4.3,3.7l-0.8-0.9c1.5-1,2.9-2.1,4.1-3.5h-2.7v-11h2.9c0.3-0.9,0.5-1.7,0.7-2.6h-4.6v-1h10.3V62.6L165.7,62.6z
		 M163.5,68.3v-2h-5.9v2H163.5z M163.5,71.6v-2.2h-5.9v2.2H163.5z M163.5,75.1v-2.5h-5.9v2.5H163.5z M165.8,79.7l-0.7,0.8
		c-1.2-1.1-2.5-2.1-3.9-3l0.7-0.9C163.3,77.6,164.6,78.6,165.8,79.7L165.8,79.7z"/>
	<path class="st1" d="M174.4,76c-2,1-3.9,1.9-5.6,2.7l-0.4-1.1c0.9-0.3,1.8-0.7,2.6-1.2v-8.7h-2.2v-1.1h2.2V61h1.1v5.6h1.9v1.1h-1.9
		v8.2c0.7-0.3,1.4-0.6,2.1-1L174.4,76z M188.2,76.3c-0.1,1.1-0.4,2.2-0.8,3.2c-0.2,0.6-0.8,1-1.4,1c-1,0-1.9-1.2-2.8-3.5
		c-1.2,1.4-2.6,2.7-4.2,3.6l-0.8-1c1.8-1,3.4-2.4,4.6-4.1c-0.7-3.4-1.1-6.9-1.1-10.3H174v-1.1h7.7c0-0.7,0-1.3,0-2
		c0-0.5,0-0.9,0-1.2h1.1c0,1.7,0,2.8,0,3.3h5.1v1.1h-5.1c0,3,0.3,5.9,0.8,8.9c1.1-2.1,1.9-4.3,2.3-6.6l1.1,0.3c-0.6,2.8-1.6,5.5-3,8
		c0.2,0.6,0.4,1.2,0.7,1.7c0.2,0.4,0.5,0.9,0.8,1.3c0.2,0.2,0.4,0.3,0.5,0.3s0.2-0.1,0.3-0.2c0.2-0.3,0.3-0.7,0.3-1
		c0.2-0.7,0.3-1.4,0.4-2.2L188.2,76.3z M181.2,76c-2.5,0.9-4.7,1.7-6.7,2.3l-0.3-1.2c1.9-0.5,4.1-1.3,6.9-2.3L181.2,76z M180,73.5
		h-4.8v-5.9h4.8V73.5z M178.9,72.4v-3.7h-2.5v3.7H178.9z M186.9,63l-0.9,0.8c-0.5-0.7-1-1.3-1.7-1.9l0.9-0.7
		C185.8,61.7,186.4,62.3,186.9,63L186.9,63z"/>
	<path class="st1" d="M198.3,67.3c-0.6,1.1-1.2,2.2-1.9,3.2v10.1h-1.2V72c-1,1.1-2.1,2-3.3,2.9L191,74c2.7-1.7,4.9-4.2,6.2-7.2
		L198.3,67.3z M200.4,64.3h-2.7v2.2h-1.2v-2.2h-5.4v-1.1h5.4v-2.4h1.2v2.4h2.7V64.3z M210.6,75.6c0,1.2-0.1,2.4-0.5,3.5
		c-0.2,0.4-0.5,0.8-1,1c-1.1,0.2-2.3,0.3-3.4,0.3c-1.3,0.1-2.6,0-3.8-0.3c-0.5-0.3-0.7-0.9-0.6-1.4V67.1h1.2v3.8h7.8V72h-7.8v6.5
		c0,0.3,0.1,0.5,0.4,0.6c0.9,0.1,1.9,0.2,2.8,0.1c1,0.1,2,0,3-0.2c0.2-0.1,0.4-0.5,0.5-1.3c0.1-0.9,0.2-1.7,0.3-2.6L210.6,75.6z
		 M210.7,64.3h-5.3v2.3h-1.2v-2.4h-2.9v-1.1h2.9v-2.4h1.2v2.4h5.3V64.3z"/>
	<path class="st1" d="M233.1,79.8l-0.7,1c-5.1-2.9-8.2-6.6-9.2-11.3c-0.8,4.6-3.8,8.4-9,11.3l-0.8-1c2.1-1.1,4-2.6,5.6-4.3
		c1.6-1.8,2.7-4,3-6.4c0.4-2.7,0.6-5.4,0.5-8.1h1.2l-0.1,3.5c0,2.1,0.3,4.1,1,6.1c2.4-1.9,4.5-4,6.3-6.4l1,0.8
		c-2,2.5-4.3,4.8-6.8,6.8C226.9,75.1,229.6,78,233.1,79.8z M220.1,70.8l-1,0.7c-1.2-2.4-2.8-4.6-4.6-6.5l1-0.7
		C217.4,66.2,218.9,68.4,220.1,70.8L220.1,70.8z"/>
</g>
<path class="st2" d="M37.6,146.7c21.4,15.2,51,10.2,66.2-11.2s10.2-51-11.2-66.2c-4.7-3.3-9.9-5.8-15.5-7.2
	c-4.4-1.1-8.3-1.3-12.7-3.1c-13.2-5.4-13-19.9,12.7-40.2c-44,17.9-68.8,65.6-57.8,101.6C22.5,130.9,28.9,140.1,37.6,146.7
	L37.6,146.7z"/>
<linearGradient id="SVGID_1_" gradientUnits="userSpaceOnUse" x1="15.0454" y1="1117.4512" x2="111.0735" y2="1117.4512" gradientTransform="matrix(1 0 0 1 0 -1030)">
	<stop  offset="0" style="stop-color:#D33924"/>
	<stop  offset="0.15" style="stop-color:#CB3023"/>
	<stop  offset="0.35" style="stop-color:#BB1C21"/>
	<stop  offset="0.57" style="stop-color:#AA1B20"/>
	<stop  offset="1" style="stop-color:#7F191E"/>
	<stop  offset="1" style="stop-color:#7F191E"/>
</linearGradient>
<path class="st3" d="M35.9,146.9c21.1,15.4,50.7,10.8,66.2-10.3s10.8-50.7-10.3-66.2c-4.9-3.6-10.5-6.2-16.4-7.7
	c-4.4-1.1-8.6-1.2-12.7-3.4c-12.9-6.9-11.1-22.9,14.6-40.5c-44,17.9-70.6,65.8-59.6,101.8C20.7,131.2,27.1,140.4,35.9,146.9
	L35.9,146.9z"/>
<linearGradient id="SVGID_2_" gradientUnits="userSpaceOnUse" x1="20.2082" y1="1143.5492" x2="102.2938" y2="1143.5492" gradientTransform="matrix(1 0 0 1 0 -1030)">
	<stop  offset="0" style="stop-color:#D33924"/>
	<stop  offset="0.15" style="stop-color:#CB3023"/>
	<stop  offset="0.35" style="stop-color:#BB1C21"/>
	<stop  offset="0.57" style="stop-color:#AA1B20"/>
	<stop  offset="1" style="stop-color:#7F191E"/>
	<stop  offset="1" style="stop-color:#7F191E"/>
</linearGradient>
<path class="st4" d="M101.9,119.5c-3.3,22.4-24.2,37.9-46.6,34.6s-37.9-24.2-34.6-46.6s24.2-37.9,46.6-34.6l0,0
	C89.7,76.1,105.2,97,101.9,119.5C101.9,119.4,101.9,119.4,101.9,119.5z"/>
<linearGradient id="SVGID_3_" gradientUnits="userSpaceOnUse" x1="20.3082" y1="1143.2491" x2="102.3938" y2="1143.2491" gradientTransform="matrix(1 0 0 1 0 -1030)">
	<stop  offset="0" style="stop-color:#CD3B28"/>
	<stop  offset="0.15" style="stop-color:#C53227"/>
	<stop  offset="0.35" style="stop-color:#B61F25"/>
	<stop  offset="0.57" style="stop-color:#A51E24"/>
	<stop  offset="1" style="stop-color:#7D1C22"/>
</linearGradient>
<path class="st5" d="M102,119.2c-3.3,22.4-24.2,37.9-46.6,34.5s-37.9-24.1-34.6-46.5S45,69.3,67.4,72.7l0,0
	C89.8,76,105.3,96.8,102,119.2z"/>
<linearGradient id="SVGID_4_" gradientUnits="userSpaceOnUse" x1="20.6035" y1="1142.9492" x2="102.4189" y2="1142.9492" gradientTransform="matrix(1 0 0 1 0 -1030)">
	<stop  offset="0" style="stop-color:#C63D2C"/>
	<stop  offset="0.16" style="stop-color:#BE342B"/>
	<stop  offset="0.35" style="stop-color:#B02329"/>
	<stop  offset="0.59" style="stop-color:#9F2228"/>
	<stop  offset="1" style="stop-color:#7A2026"/>
</linearGradient>
<path class="st6" d="M102,118.9c-3.3,22.3-24.1,37.8-46.5,34.4s-37.7-24.1-34.4-46.4s24.1-37.8,46.5-34.4
	C89.9,75.8,105.4,96.6,102,118.9L102,118.9z"/>
<linearGradient id="SVGID_5_" gradientUnits="userSpaceOnUse" x1="20.8058" y1="1142.6492" x2="102.4962" y2="1142.6492" gradientTransform="matrix(1 0 0 1 0 -1030)">
	<stop  offset="0" style="stop-color:#C03F30"/>
	<stop  offset="0.17" style="stop-color:#B8362F"/>
	<stop  offset="0.35" style="stop-color:#AB262D"/>
	<stop  offset="0.6" style="stop-color:#9A252C"/>
	<stop  offset="1" style="stop-color:#78232A"/>
</linearGradient>
<path class="st7" d="M102.1,118.6C98.8,140.9,78,156.3,55.7,153S18,128.9,21.3,106.6s24.1-37.7,46.4-34.4l0,0
	C90,75.6,105.4,96.3,102.1,118.6z"/>
<linearGradient id="SVGID_6_" gradientUnits="userSpaceOnUse" x1="21.1034" y1="1142.4492" x2="102.5963" y2="1142.4492" gradientTransform="matrix(1 0 0 1 0 -1030)">
	<stop  offset="0" style="stop-color:#B94133"/>
	<stop  offset="0.17" style="stop-color:#B23832"/>
	<stop  offset="0.35" style="stop-color:#A62931"/>
	<stop  offset="0.61" style="stop-color:#952830"/>
	<stop  offset="1" style="stop-color:#75272F"/>
</linearGradient>
<path class="st8" d="M102.2,118.4c-3.3,22.3-24,37.6-46.3,34.3s-37.6-24-34.3-46.3c3.3-22.3,24-37.6,46.3-34.3
	C90.1,75.4,105.5,96.1,102.2,118.4z"/>
<linearGradient id="SVGID_7_" gradientUnits="userSpaceOnUse" x1="21.3057" y1="1142.1992" x2="102.6963" y2="1142.1992" gradientTransform="matrix(1 0 0 1 0 -1030)">
	<stop  offset="0" style="stop-color:#B34237"/>
	<stop  offset="0.18" style="stop-color:#AB3936"/>
	<stop  offset="0.35" style="stop-color:#A02C35"/>
	<stop  offset="0.63" style="stop-color:#8F2B34"/>
	<stop  offset="1" style="stop-color:#732A33"/>
</linearGradient>
<path class="st9" d="M102.3,118.1c-3.3,22.2-24,37.6-46.2,34.3s-37.6-24-34.3-46.2s24-37.6,46.2-34.3l0,0
	C90.2,75.2,105.6,95.9,102.3,118.1L102.3,118.1L102.3,118.1z"/>
<linearGradient id="SVGID_8_" gradientUnits="userSpaceOnUse" x1="21.487" y1="1141.9492" x2="102.7823" y2="1141.9492" gradientTransform="matrix(1 0 0 1 0 -1030)">
	<stop  offset="0" style="stop-color:#AC443B"/>
	<stop  offset="0.2" style="stop-color:#A43B3A"/>
	<stop  offset="0.35" style="stop-color:#9B3039"/>
	<stop  offset="0.64" style="stop-color:#8A2F38"/>
	<stop  offset="1" style="stop-color:#702D37"/>
</linearGradient>
<path class="st10" d="M102.3,117.9c-3.3,22.2-24,37.5-46.2,34.2c-22.2-3.3-37.5-24-34.2-46.2s24-37.5,46.2-34.2l0,0
	C90.3,75,105.6,95.7,102.3,117.9C102.3,117.8,102.3,117.8,102.3,117.9z"/>
<linearGradient id="SVGID_9_" gradientUnits="userSpaceOnUse" x1="21.7033" y1="1141.6492" x2="102.7987" y2="1141.6492" gradientTransform="matrix(1 0 0 1 0 -1030)">
	<stop  offset="0" style="stop-color:#A6463F"/>
	<stop  offset="0.2" style="stop-color:#9E3D3E"/>
	<stop  offset="0.35" style="stop-color:#96333D"/>
	<stop  offset="0.66" style="stop-color:#85323C"/>
	<stop  offset="1" style="stop-color:#6E313B"/>
</linearGradient>
<path class="st11" d="M102.4,117.6c-3.3,22.1-23.9,37.4-46.1,34.1c-22.1-3.3-37.4-23.9-34.1-46.1c3.3-22.1,23.9-37.4,46.1-34.1
	C90.4,74.9,105.7,95.5,102.4,117.6L102.4,117.6z"/>
<linearGradient id="SVGID_10_" gradientUnits="userSpaceOnUse" x1="21.9033" y1="1141.4104" x2="102.8987" y2="1141.4104" gradientTransform="matrix(1 0 0 1 0 -1030)">
	<stop  offset="0" style="stop-color:#9F4843"/>
	<stop  offset="0.21" style="stop-color:#983F42"/>
	<stop  offset="0.35" style="stop-color:#913641"/>
	<stop  offset="0.67" style="stop-color:#803540"/>
	<stop  offset="1" style="stop-color:#6B343F"/>
</linearGradient>
<path class="st12" d="M102.5,117.3c-3.3,22.1-23.9,37.4-46,34.1s-37.4-23.9-34.1-46s23.9-37.3,46-34.1
	C90.5,74.6,105.8,95.2,102.5,117.3L102.5,117.3z"/>
<linearGradient id="SVGID_11_" gradientUnits="userSpaceOnUse" x1="22.2009" y1="1141.0992" x2="102.9763" y2="1141.0992" gradientTransform="matrix(1 0 0 1 0 -1030)">
	<stop  offset="0" style="stop-color:#994A47"/>
	<stop  offset="0.22" style="stop-color:#914146"/>
	<stop  offset="0.35" style="stop-color:#8B3945"/>
	<stop  offset="0.7" style="stop-color:#7A3944"/>
	<stop  offset="1" style="stop-color:#693843"/>
</linearGradient>
<path class="st13" d="M102.6,117c-3.3,22.1-23.8,37.3-45.9,34s-37.3-23.8-34-45.9C26,83,46.5,67.8,68.6,71.1l0,0
	C90.6,74.4,105.8,95,102.6,117z"/>
<linearGradient id="SVGID_12_" gradientUnits="userSpaceOnUse" x1="22.3256" y1="1140.9492" x2="103.0011" y2="1140.9492" gradientTransform="matrix(1 0 0 1 0 -1030)">
	<stop  offset="0" style="stop-color:#934C4B"/>
	<stop  offset="0.24" style="stop-color:#8B434A"/>
	<stop  offset="0.35" style="stop-color:#863D49"/>
	<stop  offset="0.73" style="stop-color:#753C48"/>
	<stop  offset="1" style="stop-color:#673B47"/>
</linearGradient>
<path class="st14" d="M102.6,116.8c-3.3,22-23.8,37.2-45.8,34S19.6,127,22.8,105c3.3-22,23.8-37.2,45.8-34
	C90.7,74.2,105.9,94.7,102.6,116.8C102.6,116.7,102.6,116.8,102.6,116.8z"/>
<linearGradient id="SVGID_13_" gradientUnits="userSpaceOnUse" x1="22.6008" y1="1140.6492" x2="103.1012" y2="1140.6492" gradientTransform="matrix(1 0 0 1 0 -1030)">
	<stop  offset="0" style="stop-color:#8C4E4F"/>
	<stop  offset="0.26" style="stop-color:#85454E"/>
	<stop  offset="0.35" style="stop-color:#81404D"/>
	<stop  offset="0.75" style="stop-color:#703F4C"/>
	<stop  offset="1" style="stop-color:#643E4C"/>
</linearGradient>
<path class="st15" d="M102.7,116.5c-3.3,22-23.7,37.2-45.7,33.9s-37.2-23.7-33.9-45.7c3.3-22,23.7-37.2,45.7-33.9
	C90.8,74,106,94.5,102.7,116.5L102.7,116.5L102.7,116.5z"/>
<linearGradient id="SVGID_14_" gradientUnits="userSpaceOnUse" x1="22.8256" y1="1140.4003" x2="103.1786" y2="1140.4003" gradientTransform="matrix(1 0 0 1 0 -1030)">
	<stop  offset="0" style="stop-color:#865052"/>
	<stop  offset="0.27" style="stop-color:#7E4751"/>
	<stop  offset="0.35" style="stop-color:#7B4351"/>
	<stop  offset="0.81" style="stop-color:#6A4250"/>
	<stop  offset="1" style="stop-color:#624250"/>
</linearGradient>
<path class="st16" d="M102.8,116.2c-3.2,22-23.7,37.1-45.6,33.9s-37.1-23.7-33.9-45.6S47,67.4,68.9,70.6l0,0
	C90.9,73.9,106,94.3,102.8,116.2z"/>
<linearGradient id="SVGID_15_" gradientUnits="userSpaceOnUse" x1="23.0233" y1="1140.1492" x2="103.2787" y2="1140.1492" gradientTransform="matrix(1 0 0 1 0 -1030)">
	<stop  offset="0" style="stop-color:#7F5156"/>
	<stop  offset="0.31" style="stop-color:#774855"/>
	<stop  offset="0.35" style="stop-color:#764655"/>
	<stop  offset="0.84" style="stop-color:#654554"/>
	<stop  offset="1" style="stop-color:#5F4554"/>
</linearGradient>
<path class="st17" d="M102.9,116c-3.3,21.9-23.7,37-45.6,33.8s-37-23.7-33.8-45.6c3.3-21.9,23.7-37,45.6-33.8
	C91,73.7,106.1,94,102.9,116L102.9,116z"/>
<linearGradient id="SVGID_16_" gradientUnits="userSpaceOnUse" x1="23.3187" y1="1139.8492" x2="103.3036" y2="1139.8492" gradientTransform="matrix(1 0 0 1 0 -1030)">
	<stop  offset="0" style="stop-color:#79535A"/>
	<stop  offset="0.35" style="stop-color:#714A59"/>
	<stop  offset="0.9" style="stop-color:#604958"/>
	<stop  offset="1" style="stop-color:#5D4958"/>
</linearGradient>
<path class="st18" d="M102.9,115.7c-3.3,21.8-23.6,36.9-45.5,33.7s-36.8-23.7-33.6-45.5C27.1,82.1,47.4,67,69.2,70.2
	C91.1,73.5,106.2,93.8,102.9,115.7L102.9,115.7z"/>
<linearGradient id="SVGID_17_" gradientUnits="userSpaceOnUse" x1="23.481" y1="1139.5992" x2="103.4614" y2="1139.5992" gradientTransform="matrix(1 0 0 1 0 -1030)">
	<stop  offset="0" style="stop-color:#72555E"/>
	<stop  offset="0.35" style="stop-color:#6B4D5D"/>
	<stop  offset="0.99" style="stop-color:#5A4C5C"/>
	<stop  offset="1" style="stop-color:#5A4C5C"/>
</linearGradient>
<path class="st19" d="M103,115.4c-3.2,21.9-23.6,37-45.4,33.7s-37-23.6-33.7-45.4c3.2-21.9,23.6-37,45.4-33.7c0,0,0,0,0.1,0
	C91.2,73.3,106.2,93.6,103,115.4z"/>
<linearGradient id="SVGID_18_" gradientUnits="userSpaceOnUse" x1="23.7209" y1="1139.3992" x2="103.4811" y2="1139.3992" gradientTransform="matrix(1 0 0 1 0 -1030)">
	<stop  offset="0" style="stop-color:#6C5762"/>
	<stop  offset="0.35" style="stop-color:#665061"/>
	<stop  offset="1" style="stop-color:#584F60"/>
</linearGradient>
<path class="st20" d="M103.1,115.2C99.9,137,79.6,152,57.8,148.8C36,145.6,21,125.3,24.2,103.5c3.2-21.8,23.5-36.8,45.3-33.6l0,0
	C91.3,73.1,106.3,93.4,103.1,115.2z"/>
<linearGradient id="SVGID_19_" gradientUnits="userSpaceOnUse" x1="23.9186" y1="1139.0503" x2="103.5811" y2="1139.0503" gradientTransform="matrix(1 0 0 1 0 -1030)">
	<stop  offset="0" style="stop-color:#655966"/>
	<stop  offset="0.35" style="stop-color:#615365"/>
	<stop  offset="1" style="stop-color:#555365"/>
</linearGradient>
<path class="st21" d="M103.2,114.9c-3.2,21.8-23.5,36.7-45.3,33.5s-36.7-23.5-33.5-45.3c3.2-21.7,23.5-36.7,45.2-33.5
	C91.4,72.9,106.4,93.1,103.2,114.9L103.2,114.9z"/>
<linearGradient id="SVGID_20_" gradientUnits="userSpaceOnUse" x1="24.1379" y1="1138.7981" x2="103.6286" y2="1138.7981" gradientTransform="matrix(1 0 0 1 0 -1030)">
	<stop  offset="0" style="stop-color:#5F5B6A"/>
	<stop  offset="0.35" style="stop-color:#5C5769"/>
	<stop  offset="1" style="stop-color:#535669"/>
</linearGradient>
<path class="st22" d="M103.2,114.6c-3.2,21.7-23.4,36.7-45.2,33.5s-36.7-23.4-33.5-45.2s23.4-36.7,45.2-33.5l0,0
	C91.5,72.7,106.5,92.9,103.2,114.6z"/>
<linearGradient id="SVGID_21_" gradientUnits="userSpaceOnUse" x1="24.3185" y1="1138.5992" x2="103.6835" y2="1138.5992" gradientTransform="matrix(1 0 0 1 0 -1030)">
	<stop  offset="0" style="stop-color:#595D6D"/>
	<stop  offset="0.35" style="stop-color:#565A6D"/>
	<stop  offset="1" style="stop-color:#515A6D"/>
</linearGradient>
<path class="st23" d="M103.3,114.4c-3.2,21.7-23.4,36.6-45.1,33.4s-36.6-23.4-33.4-45.1s23.4-36.6,45.1-33.4
	C91.6,72.5,106.5,92.7,103.3,114.4L103.3,114.4z"/>
<linearGradient id="SVGID_22_" gradientUnits="userSpaceOnUse" x1="24.5957" y1="1138.2992" x2="103.7835" y2="1138.2992" gradientTransform="matrix(1 0 0 1 0 -1030)">
	<stop  offset="0" style="stop-color:#525F71"/>
	<stop  offset="0.35" style="stop-color:#515D71"/>
	<stop  offset="1" style="stop-color:#4E5D71"/>
</linearGradient>
<path class="st24" d="M103.4,114.1c-3.2,21.6-23.4,36.6-45,33.3c-21.6-3.2-36.6-23.4-33.3-45c3.2-21.6,23.4-36.6,45-33.3
	C91.7,72.3,106.6,92.5,103.4,114.1L103.4,114.1z"/>
<path class="st25" d="M103.5,113.8c-3.2,21.6-23.3,36.5-44.9,33.3s-36.5-23.3-33.3-44.9s23.3-36.5,44.9-33.3l0,0
	C91.8,72.1,106.7,92.2,103.5,113.8L103.5,113.8z"/>
<path class="st26" d="M103.5,113.8c-3.2,21.6-23.3,36.5-44.9,33.3s-36.5-23.3-33.3-44.9s23.3-36.5,44.9-33.3l0,0
	C91.8,72.1,106.7,92.2,103.5,113.8L103.5,113.8z"/>
<path class="st26" d="M102,113.6c-3.1,20.8-22.4,35.1-43.2,32c-20.8-3.1-35.1-22.4-32-43.2c3.1-20.7,22.4-35,43.2-32
	C90.7,73.5,105.1,92.8,102,113.6L102,113.6z"/>
<path class="st27" d="M52.5,86.9h-5.9v-1.1h2.6c-0.2-0.7-0.5-1.4-0.8-2.1l0.9-0.4c0.4,0.8,0.8,1.6,1,2.5h2.2L52.5,86.9z M52.1,90.2
	h-5V89h5V90.2z M52.1,93.3h-5v-1.1h5V93.3z M51.8,102.2h-1V101h-2.5v1.7h-1v-7.4h4.5V102.2z M50.8,100v-3.4h-2.5v3.4H50.8z
	 M63.8,98.5c-0.1,1.1-0.3,2.1-0.6,3.2c-0.3,0.8-0.7,1.1-1.2,1.1c-0.9,0-1.6-1.3-2.1-3.8c-0.8,1.2-1.8,2.3-2.9,3.3l-0.7-0.9
	c1.3-1.1,2.4-2.4,3.3-3.8c-0.4-2.9-0.6-6-0.7-9.4h-4.4V91h3.2c0,2.1,0,3.8,0,5c0,0.8,0,1.5-0.2,2.3c-0.1,0.3-0.3,0.5-0.5,0.7
	c-0.4,0.2-0.8,0.3-1.2,0.3c-0.2,0-0.4,0-0.7-0.1l-0.2-1.1c0.2,0,0.6,0,1.2,0c0.3,0,0.5-0.3,0.6-0.9s0-2.3,0-5.2h-2.2
	c0.1,3.6-0.2,7.2-1.1,10.7l-1-0.5c0.9-3.2,1.2-6.6,1.2-9.9v-5.2h5.3c0-0.6,0-1.7,0-3.4h1l0.1,3.4h3.9v1.1H60c0,2.6,0.2,5.2,0.6,7.7
	c0.9-1.8,1.5-3.7,2-5.7l0.9,0.6c-0.6,2.4-1.5,4.7-2.7,6.9c0.1,0.9,0.3,1.7,0.6,2.6c0.1,0.4,0.3,0.7,0.4,1.1c0.1,0.1,0.2,0.1,0.3,0.1
	s0.2,0,0.3-0.1c0.2-0.4,0.3-0.8,0.3-1.3c0.1-0.7,0.2-1.4,0.3-2.1L63.8,98.5z M63.3,86.1l-0.9,0.6c-0.3-0.8-0.7-1.5-1.3-2.2l0.8-0.6
	C62.4,84.6,62.9,85.3,63.3,86.1L63.3,86.1z"/>
<path class="st27" d="M68.6,90.9c-0.6,3.2-1.5,6.4-2.8,9.5l-1-0.7c1.3-2.9,2.2-5.9,2.7-9.1L68.6,90.9z M78.3,96.6
	c-0.1,1.2-0.2,2.3-0.3,3.5c-0.1,0.6-0.2,1.2-0.5,1.8c-0.2,0.3-0.5,0.5-0.8,0.6c-0.8,0.1-1.6,0.2-2.4,0.2c-0.9,0-1.7,0-2.3-0.1
	c-0.5,0-1-0.2-1.3-0.5s-0.4-0.8-0.4-1.2V88.6h1.1v11.9c0,0.2,0.1,0.4,0.2,0.5c0.1,0.1,0.2,0.2,0.3,0.3c0.5,0.1,1,0.1,1.5,0.1H76
	c0.2,0,0.4-0.1,0.6-0.3c0.3-0.6,0.5-1.2,0.5-1.9c0.1-1,0.2-2,0.2-3L78.3,96.6z M76.5,89.5l-0.9,0.8c-1.2-2.2-2.7-4.3-4.5-6l0.8-0.8
	C73.7,85.3,75.2,87.3,76.5,89.5L76.5,89.5z M82.2,99.1l-1.1,0.4c-0.7-2.9-1.7-5.7-3.1-8.4l1-0.6C80.3,93.3,81.4,96.2,82.2,99.1
	L82.2,99.1z"/>
<path class="st27" d="M63.5,120.8c0,1.4-0.1,2.8-0.2,4.2c-0.1,0.9-0.2,1.8-0.4,2.6c-0.1,0.4-0.3,0.7-0.6,1s-0.6,0.5-1,0.6
	c-0.7,0.1-1.4,0.2-2.1,0.2l-0.4-1.3c0.3,0,0.9,0,1.8,0c0.3,0,0.6-0.1,0.8-0.2c0.2-0.2,0.4-0.4,0.5-0.7c0.2-0.6,0.3-1.2,0.3-1.8
	c0.1-0.9,0.2-2.1,0.2-3.5H50.2c-0.9,1.2-2,2.4-3.1,3.4l-0.6-1.1c3-2.6,5.1-6.1,6.1-9.9h-5.3v-1.2h5.5c0.3-1.4,0.5-2.6,0.6-3.3l1,0.3
	c-0.1,0.8-0.3,1.8-0.5,3h7.3c-0.2,1.3-0.4,2.5-0.7,3.8h2c-0.1,1.2-0.3,2.4-0.6,3.8L63.5,120.8z M51.5,112.2l-0.9,0.6
	c-0.5-0.8-1.1-1.6-1.7-2.3l0.9-0.6C50.5,110.7,51,111.4,51.5,112.2L51.5,112.2z M52,123.7c-0.5,1.9-1.2,3.6-2.1,5.3l-1-0.6
	c0.9-1.6,1.6-3.3,2.1-5L52,123.7z M61.4,118.2h-8.8c-0.4,0.9-0.9,1.8-1.4,2.7H61C61.1,119.9,61.2,119,61.4,118.2L61.4,118.2z
	 M60.1,114.4h-6.3c-0.2,0.9-0.5,1.8-0.8,2.7h6.6C59.7,116.3,59.9,115.4,60.1,114.4L60.1,114.4z M54.9,128.7l-1.1,0.2
	c0-1.8-0.1-3.5-0.5-5.3l1-0.2C54.6,125.2,54.8,126.9,54.9,128.7L54.9,128.7z M58.1,127.5l-1,0.4c-0.2-1.5-0.6-2.9-1.1-4.3l1-0.4
	C57.4,124.6,57.8,126.1,58.1,127.5L58.1,127.5z M60.9,126.3l-0.9,0.5c-0.3-1.2-0.8-2.3-1.3-3.4l0.9-0.5
	C60.1,124,60.5,125.2,60.9,126.3L60.9,126.3z"/>
<path class="st27" d="M82.2,125.1l-0.7,0.9c-3.5-2.9-6.1-6.8-7.4-11.1v9.4h4.3v1.1h-4.3v4H73v-4h-4.4v-1.1H73v-9.4
	c-0.7,2.2-1.7,4.3-3,6.2c-1.3,1.8-2.9,3.5-4.6,4.9l-0.7-1c3.4-2.6,5.9-6.1,7.2-10.1h-6.7v-1.2H73V110h1.1v3.8h7.6v1.2h-6.5
	C76.5,118.9,78.9,122.5,82.2,125.1z"/>
<path class="st28" d="M81.2,8.9c0,2-1.6,3.7-3.7,3.7c-2,0-3.7-1.6-3.7-3.7s1.6-3.7,3.7-3.7l0,0C79.6,5.2,81.2,6.9,81.2,8.9L81.2,8.9
	z"/>
</svg>
