<svg id="圖層_1" data-name="圖層 1" xmlns="http://www.w3.org/2000/svg" viewBox="0 0 1100 120"><defs><style>.cls-1{fill:#fff;}</style></defs><path class="cls-1" d="M14.16,112.21v-.89a46.8,46.8,0,0,0,7-.44A9.19,9.19,0,0,0,25.65,109a7.65,7.65,0,0,0,2.42-3.82,23.48,23.48,0,0,0,.72-6.49v-75c0-4.67-.78-7.87-2.36-9.61s-4.37-2.74-8.4-3H14.16v-.77h46a46.77,46.77,0,0,1,14,1.91,27.44,27.44,0,0,1,9.67,5.47,21.55,21.55,0,0,1,5.51,8A27.14,27.14,0,0,1,91.19,36q0,11.45-7.38,18.2a25.66,25.66,0,0,1-9.67,5.47,42.54,42.54,0,0,1-14,2H41.73V98.85a25.5,25.5,0,0,0,.55,5.85,8.1,8.1,0,0,0,1.81,3.69,7.6,7.6,0,0,0,3.39,2.1,18.72,18.72,0,0,0,5.14.83h3.74l-.12.13v.76H14.16Zm27.57-51.3H59.15a16.88,16.88,0,0,0,10.27-3.18,18.16,18.16,0,0,0,2.72-2.61,17.56,17.56,0,0,0,2.48-3.75A28.05,28.05,0,0,0,77,44.43,39.37,39.37,0,0,0,77.89,36q0-10.95-4.48-17.57-4.95-7.26-14.26-7.25H51.41q-5.44.63-7.56,3.18c-1.41,1.7-2.12,4.79-2.12,9.29V60.91Z"/><path class="cls-1" d="M158.18,110.05a28.54,28.54,0,0,0,7.08-3.31,27,27,0,0,0,5.38-4.65,37.26,37.26,0,0,0,4-5.41,44.88,44.88,0,0,0,5.44-14.76h.85l-3.51,30.29H97.48v-.89a46.8,46.8,0,0,0,7-.44A9.23,9.23,0,0,0,109,109a7.64,7.64,0,0,0,2.41-3.82,23.05,23.05,0,0,0,.73-6.49V25.27a4.87,4.87,0,0,0-.06-.76,4.87,4.87,0,0,1-.06-.76q0-7-2.36-9.61t-8.4-3H97.36v-.77H174V37.11h-.84V37c-.65-2.81-1.39-5.73-2.24-8.79A26.87,26.87,0,0,0,167,19.86a20.76,20.76,0,0,0-7.25-6.23q-4.6-2.49-12.1-2.48H124.93V60.91h17.29q5.21-.12,8.16-2.48a16.38,16.38,0,0,0,4.48-5.28,17.5,17.5,0,0,0,1.87-5.6,33.57,33.57,0,0,0,.36-3.56V43.6h.85V79.12h-.85v-.38a37.09,37.09,0,0,0-.36-3.7,17.47,17.47,0,0,0-1.93-5.79A15.75,15.75,0,0,0,150.14,64c-2-1.53-4.9-2.29-8.52-2.29H124.93V96.56a14.46,14.46,0,0,1,.12,2.29,26.15,26.15,0,0,0,.54,5.85,8.21,8.21,0,0,0,1.82,3.69,7.59,7.59,0,0,0,3.32,2.1,18.06,18.06,0,0,0,5.08.83h13.42A29.32,29.32,0,0,0,158.18,110.05Z"/><path class="cls-1" d="M188.53,112.21v-.89h.13a46.9,46.9,0,0,0,7-.44,8.81,8.81,0,0,0,4.47-1.85,7.77,7.77,0,0,0,2.36-3.82,23.43,23.43,0,0,0,.73-6.49v-75q0-7-2.36-9.61c-1.57-1.74-4.38-2.74-8.41-3h-3.87v-.77h46.08a47.45,47.45,0,0,1,14,1.91,30.64,30.64,0,0,1,9.68,5.47,21.52,21.52,0,0,1,5.5,8A27.14,27.14,0,0,1,265.69,36q0,11.45-7.38,18.2a28.58,28.58,0,0,1-9.68,5.47A24,24,0,0,1,243,61q-3,.39-6.23.64a17.88,17.88,0,0,1,5.39,2.67,28.29,28.29,0,0,1,6.46,7l22.74,33.23a12.42,12.42,0,0,0,4.05,3.75,24,24,0,0,0,4.59,2,18.89,18.89,0,0,0,3.93.83c1.13.08,1.82.12,2.06.12h.12v.89H261.94l-29.51-43a30.13,30.13,0,0,0-3.32-4A13.8,13.8,0,0,0,226.2,63a9.18,9.18,0,0,0-2.72-1,14.74,14.74,0,0,0-2.78-.25h-4.47V98.85a26.15,26.15,0,0,0,.54,5.85,8.2,8.2,0,0,0,1.81,3.69,7.68,7.68,0,0,0,3.33,2.1,18,18,0,0,0,5.08.83h3.75v.89H188.53Zm27.7-51.3h17.41a16.7,16.7,0,0,0,10.16-3.18,19.17,19.17,0,0,0,2.72-2.61,22.63,22.63,0,0,0,2.6-3.75,32.29,32.29,0,0,0,2.3-6.94,40,40,0,0,0,.84-8.46q0-10.95-4.47-17.57-5-7.26-14.15-7.25h-7.86a15.3,15.3,0,0,0-4.47,1,7.54,7.54,0,0,0-3,2.17A8.49,8.49,0,0,0,216.71,18a27.8,27.8,0,0,0-.48,5.6V60.91Z"/><path class="cls-1" d="M298.7,110.62a9.12,9.12,0,0,0,4.47-1.84,7.67,7.67,0,0,0,2.42-3.82,23.48,23.48,0,0,0,.73-6.49v-75a26.08,26.08,0,0,0-.55-5.85A8.2,8.2,0,0,0,304,14a7.23,7.23,0,0,0-3.39-2,25.79,25.79,0,0,0-5.14-.89h-3.75V10h76.67V37h-.85v-.26c-.64-2.8-1.39-5.71-2.23-8.72a26.82,26.82,0,0,0-3.93-8.27,20.91,20.91,0,0,0-7.26-6.24Q349.49,11,342,11H319.25V60.53h17.3a13.64,13.64,0,0,0,8.16-2.41,15.11,15.11,0,0,0,4.41-5.22A19.72,19.72,0,0,0,351,47.29a28.38,28.38,0,0,0,.42-3.69v-.38h.73V78.74h-.73v-.39a32.09,32.09,0,0,0-.42-3.69,18.86,18.86,0,0,0-1.94-5.73,15.27,15.27,0,0,0-4.59-5.21q-3.09-2.3-8.53-2.3H319.25V98.59a26.25,26.25,0,0,0,.55,5.79,8.22,8.22,0,0,0,1.81,3.76,7.75,7.75,0,0,0,3.39,2.1,19.1,19.1,0,0,0,5.14.83h3.75V112H291.8v-.89A44.37,44.37,0,0,0,298.7,110.62Z"/><path class="cls-1" d="M373.91,60.41a57.18,57.18,0,0,1,3.39-20A49.5,49.5,0,0,1,386.37,24a40.86,40.86,0,0,1,13.3-10.95A36.06,36.06,0,0,1,416.24,9h7a35.81,35.81,0,0,1,16.44,4.07,40.58,40.58,0,0,1,13.55,11,55.59,55.59,0,0,1,9.19,16.42,60.51,60.51,0,0,1,3.26,20,59.77,59.77,0,0,1-3.26,20,55.59,55.59,0,0,1-9.19,16.42,40.58,40.58,0,0,1-13.55,11,35.81,35.81,0,0,1-16.44,4.07h-7a36.06,36.06,0,0,1-16.57-4.07,40.73,40.73,0,0,1-13.3-11,49.5,49.5,0,0,1-9.07-16.42A57.17,57.17,0,0,1,373.91,60.41Zm13.18,0a82,82,0,0,0,2.24,19.47A54.89,54.89,0,0,0,396,96.17a25.6,25.6,0,0,0,1.88,2.93,26.24,26.24,0,0,0,2.11,2.55,31.34,31.34,0,0,0,7.32,5.92,57.55,57.55,0,0,0,5.74,2.86l2.3.51a12.22,12.22,0,0,0,2.54.26h3.63a10.53,10.53,0,0,0,2.41-.26c.73-.17,1.54-.34,2.42-.51,1.37-.59,3.25-1.55,5.63-2.86a33.63,33.63,0,0,0,7.43-5.92c.65-.77,1.31-1.61,2-2.55s1.35-1.91,2-2.93a56.06,56.06,0,0,0,6.78-16.29,79.92,79.92,0,0,0,2.29-19.47,79.94,79.94,0,0,0-2.29-19.48,56.06,56.06,0,0,0-6.78-16.29c-.64-1-1.31-2-2-2.93s-1.35-1.78-2-2.55A33.63,33.63,0,0,0,432,13.24q-3.57-2-5.63-2.86c-.88-.17-1.69-.32-2.42-.44a13.65,13.65,0,0,0-2.41-.2h-3.63a19.1,19.1,0,0,0-4.84.64,59.84,59.84,0,0,0-5.74,2.86A31.34,31.34,0,0,0,400,19.16a27.5,27.5,0,0,0-2.11,2.55A25.6,25.6,0,0,0,396,24.64a54.89,54.89,0,0,0-6.71,16.29A82,82,0,0,0,387.09,60.41Z"/><path class="cls-1" d="M469.44,112.21v-.89h.12a47,47,0,0,0,7-.44A8.81,8.81,0,0,0,481,109a7.85,7.85,0,0,0,2.36-3.82,23.48,23.48,0,0,0,.72-6.49v-75q0-7-2.35-9.61t-8.41-3h-3.87v-.77h46.08a47.49,47.49,0,0,1,14,1.91,30.75,30.75,0,0,1,9.68,5.47,21.64,21.64,0,0,1,5.5,8A27.14,27.14,0,0,1,546.59,36q0,11.45-7.37,18.2a28.58,28.58,0,0,1-9.68,5.47,24.1,24.1,0,0,1-5.62,1.4c-2,.26-4,.47-6.23.64a17.84,17.84,0,0,1,5.38,2.67,28.3,28.3,0,0,1,6.47,7l22.74,33.23a12.33,12.33,0,0,0,4.05,3.75,24,24,0,0,0,4.59,2,18.63,18.63,0,0,0,3.93.83c1.13.08,1.82.12,2.06.12H567v.89H542.84l-29.5-43a29.36,29.36,0,0,0-3.33-4,13.77,13.77,0,0,0-2.9-2.23,9.29,9.29,0,0,0-2.72-1,14.74,14.74,0,0,0-2.78-.25h-4.48V98.85a26.08,26.08,0,0,0,.55,5.85,8.2,8.2,0,0,0,1.81,3.69,7.68,7.68,0,0,0,3.33,2.1,18,18,0,0,0,5.08.83h3.75v.89H469.44Zm27.69-51.3h17.42a16.72,16.72,0,0,0,10.16-3.18,19.17,19.17,0,0,0,2.72-2.61,22.63,22.63,0,0,0,2.6-3.75,32.29,32.29,0,0,0,2.29-6.94,39.37,39.37,0,0,0,.85-8.46q0-10.95-4.47-17.57-5-7.26-14.15-7.25h-7.86a15.37,15.37,0,0,0-4.48,1,7.51,7.51,0,0,0-3,2.17A8.38,8.38,0,0,0,497.62,18a27,27,0,0,0-.49,5.6V60.91Z"/><path class="cls-1" d="M659.78,110.81a10.05,10.05,0,0,0,4.47-1.84,7.29,7.29,0,0,0,2.42-3.82,24.23,24.23,0,0,0,.73-6.56V31.89q0-6.1.06-10.5t.06-5.79L630.39,90.45h-1L594.24,20.18V95.54q0,5.22,2.23,8.27a16.75,16.75,0,0,0,5.32,4.78,19.21,19.21,0,0,0,6.29,2.22,34.09,34.09,0,0,0,5,.51H615v.77H572.83v-.77h1.82a34.44,34.44,0,0,0,5.14-.51,18.46,18.46,0,0,0,6.22-2.22,16.77,16.77,0,0,0,5.26-4.78c1.5-2,2.24-4.79,2.24-8.27V25.78c0-2,0-3.94-.12-5.72a11,11,0,0,0-1.15-4.65A7.21,7.21,0,0,0,589,12.29a14.3,14.3,0,0,0-6.35-1.14h-3.87v-.9H604l32.65,65.56,32.53-65.56h25.64v.9H690q-5.44,0-7.56,2.8t-2.11,9.54V98.72q0,7.13,2.66,9.87t8.22,2.73H695v.77H652.89v-.77A39.12,39.12,0,0,0,659.78,110.81Z"/><path class="cls-1" d="M701,111.07l2.12-.26a14.12,14.12,0,0,0,4.72-1.72,23.77,23.77,0,0,0,10.94-13.3l32.53-85.54h1l32.4,85.29a59.16,59.16,0,0,0,4,8.59,17.23,17.23,0,0,0,3.63,4.46,8.08,8.08,0,0,0,3.69,1.78l4.29.7V112H760.63v-.89q4.35-.25,7.44-.58a8.12,8.12,0,0,0,4.65-1.71c1-.94,1.49-2.44,1.33-4.52a36.55,36.55,0,0,0-2.42-9l-8.94-23.67H729l-9.19,24.06a12.79,12.79,0,0,0-1,6.42,8.75,8.75,0,0,0,1.87,4.33,9.87,9.87,0,0,0,3.57,2.67,20.6,20.6,0,0,0,4.11,1.4,19.72,19.72,0,0,0,3.45.51l1.57.07V112H701Zm44.87-83.76L729.31,70.72h33Z"/><path class="cls-1" d="M920.86,10.38v.89H919a30.93,30.93,0,0,0-5.14.57A21.81,21.81,0,0,0,907.67,14a15.42,15.42,0,0,0-5.26,4.65,13.47,13.47,0,0,0-2.23,8.14v85.41h-1l-71.1-93.68V95.67c0,3.48.74,6.23,2.23,8.27a15.42,15.42,0,0,0,5.26,4.65,21.38,21.38,0,0,0,6.23,2.16,30.93,30.93,0,0,0,5.14.57h1.81v.89H806.46v-.89h1.81a30.82,30.82,0,0,0,5.14-.57,21.38,21.38,0,0,0,6.23-2.16,15.42,15.42,0,0,0,5.26-4.65,13.73,13.73,0,0,0,2.24-8.27V23.24c0-2,0-3.8-.12-5.29a7.73,7.73,0,0,0-1.09-3.75A5.58,5.58,0,0,0,822.72,12a23.08,23.08,0,0,0-6.47-.7h-3.74v-.89h25.87l60.83,79.56V26.8A13.47,13.47,0,0,0,897,18.66,15.33,15.33,0,0,0,891.71,14a21.64,21.64,0,0,0-6.22-2.17,31,31,0,0,0-5.14-.57h-1.82v-.89h42.33Z"/><path class="cls-1" d="M922.79,61.17V61h-.49a60.89,60.89,0,0,1,.85-10.18,59.59,59.59,0,0,1,2.54-9.8,50.81,50.81,0,0,1,15.42-22.53,35.08,35.08,0,0,1,7.19-4.71,35,35,0,0,1,16.57-4.08,28.9,28.9,0,0,1,11.85,2.42h.12a.69.69,0,0,0,.49.26l.12.12,1.63.77c.52.25,1.07.55,1.63.89q6.28,3.18,9.92,3.18a9.48,9.48,0,0,0,5.44-1.27,6.49,6.49,0,0,0,2.78-4.46h.85V48.7h-.85a66.13,66.13,0,0,0-1.75-8.92,64.62,64.62,0,0,0-2.72-7.89,46.83,46.83,0,0,0-3.57-6.43,40.41,40.41,0,0,0-4.29-5.4,31.16,31.16,0,0,0-10.16-7.13,29.84,29.84,0,0,0-9.68-2.29,20.83,20.83,0,0,0-12.09,3.94,35.63,35.63,0,0,0-9.91,10.82A60.44,60.44,0,0,0,938,41.5a75.72,75.72,0,0,0-2.47,19.67,71.85,71.85,0,0,0,4,24.69q4.05,11.2,10.58,18a32.39,32.39,0,0,0,5.92,4.52,34.31,34.31,0,0,0,4.84,2.36,12.3,12.3,0,0,0,2.84.7,25.18,25.18,0,0,0,3,.19,43.62,43.62,0,0,0,4.9-.77,26.44,26.44,0,0,0,4.78-1.53,29.81,29.81,0,0,0,10-7.12,27,27,0,0,0,4.29-5.29,54.16,54.16,0,0,0,3.44-6.42,47.47,47.47,0,0,0,2.79-7.9c.72-2.8,1.33-5.77,1.81-8.91l.85.13a60.62,60.62,0,0,1-4.72,17.06A42.1,42.1,0,0,1,987,102.92a33.84,33.84,0,0,1-10.4,7.13,28.07,28.07,0,0,1-11.73,2.42,35,35,0,0,1-16.57-4.08,42.47,42.47,0,0,1-13.42-10.94,52.43,52.43,0,0,1-9.19-16.3,59.59,59.59,0,0,1-2.54-9.8,60.89,60.89,0,0,1-.85-10.18Z"/><path class="cls-1" d="M1070.19,110.05a28.37,28.37,0,0,0,7.08-3.31,27,27,0,0,0,5.38-4.65,37.26,37.26,0,0,0,4-5.41,44.88,44.88,0,0,0,5.44-14.76h.85l-3.51,30.29h-79.93v-.89a46.8,46.8,0,0,0,7-.44A9.19,9.19,0,0,0,1021,109a7.65,7.65,0,0,0,2.42-3.82,23.48,23.48,0,0,0,.72-6.49V25.27a4.87,4.87,0,0,0-.06-.76,4.87,4.87,0,0,1-.06-.76c0-4.67-.78-7.87-2.36-9.61s-4.37-2.74-8.4-3h-3.87v-.77H1086V37.11h-.85V37c-.65-2.81-1.39-5.73-2.24-8.79a26.64,26.64,0,0,0-3.93-8.34,20.76,20.76,0,0,0-7.25-6.23q-4.61-2.49-12.1-2.48h-22.73V60.91h17.29q5.2-.12,8.17-2.48a16.47,16.47,0,0,0,4.47-5.28,17.26,17.26,0,0,0,1.87-5.6,31.83,31.83,0,0,0,.37-3.56V43.6h.84V79.12h-.84v-.38a35.14,35.14,0,0,0-.37-3.7,17.24,17.24,0,0,0-1.93-5.79,15.75,15.75,0,0,0-4.66-5.28q-3.08-2.3-8.52-2.29h-16.69V96.56a14.46,14.46,0,0,1,.12,2.29,25.5,25.5,0,0,0,.55,5.85,8.1,8.1,0,0,0,1.81,3.69,7.64,7.64,0,0,0,3.32,2.1,18.06,18.06,0,0,0,5.08.83h13.43A29.3,29.3,0,0,0,1070.19,110.05Z"/></svg>