<?xml version="1.0" encoding="utf-8"?>
<!-- Generator: Adobe Illustrator 24.1.1, SVG Export Plug-In . SVG Version: 6.00 Build 0)  -->
<svg version="1.1" id="圖層_1" xmlns="http://www.w3.org/2000/svg" xmlns:xlink="http://www.w3.org/1999/xlink" x="0px" y="0px"
	 viewBox="0 0 1020 180" style="enable-background:new 0 0 1020 180;" xml:space="preserve">
<style type="text/css">
	.st0{fill:#211513;}
</style>
<path class="st0" d="M-1.2,149.7v-0.9c2.2,0,4.4-0.1,6.6-0.4c1.6-0.2,3-0.8,4.3-1.7c1.1-0.9,1.9-2.2,2.3-3.6c0.5-2,0.7-4.1,0.7-6.1
	V66.2c0-4.4-0.7-7.4-2.2-9.1s-4.1-2.6-7.9-2.8h-3.7v-0.7h43.4c4.5-0.1,9,0.5,13.3,1.8c3.4,1.1,6.5,2.8,9.1,5.2
	c2.3,2.1,4.1,4.7,5.2,7.5c1.2,3.1,1.8,6.4,1.8,9.7c0,7.2-2.3,13-7,17.2c-2.6,2.4-5.7,4.1-9.1,5.2c-4.3,1.4-8.8,2-13.3,1.9H24.9v35.1
	c0,1.9,0.1,3.7,0.5,5.5c0.3,1.3,0.9,2.5,1.7,3.5c0.9,0.9,2,1.6,3.2,2c1.6,0.5,3.2,0.7,4.8,0.8h3.5l-0.1,0.1v0.7L-1.2,149.7
	L-1.2,149.7z M24.8,101.3h16.5c3.5,0.1,6.9-1,9.7-3c0.9-0.7,1.8-1.6,2.6-2.5c0.9-1.1,1.7-2.3,2.3-3.6c1-2.1,1.8-4.3,2.3-6.6
	c0.6-2.6,0.8-5.3,0.8-8c0-6.9-1.4-12.4-4.2-16.6c-3.1-4.6-7.6-6.8-13.5-6.8H34c-3.4,0.4-5.8,1.4-7.1,3c-1.3,1.6-2,4.5-2,8.8
	L24.8,101.3L24.8,101.3z"/>
<path class="st0" d="M134.9,147.7c2.4-0.7,4.6-1.8,6.7-3.1c1.9-1.2,3.6-2.7,5.1-4.4c1.4-1.6,2.7-3.3,3.8-5.1c2.5-4.3,4.3-9,5.1-13.9
	h0.8l-3.3,28.6H77.5v-0.9c2.2,0,4.4-0.1,6.6-0.4c1.6-0.2,3-0.8,4.3-1.7c1.1-0.9,1.9-2.2,2.3-3.6c0.5-2,0.8-4.1,0.7-6.1V67.6
	c0-0.2,0-0.5-0.1-0.7c0-0.2-0.1-0.5-0.1-0.7c0-4.4-0.7-7.4-2.2-9.1s-4.1-2.6-7.9-2.8h-3.7v-0.7h72.4v25.3H149v-0.1
	c-0.6-2.7-1.3-5.4-2.1-8.3c-0.8-2.8-2-5.5-3.7-7.9c-1.8-2.5-4.1-4.5-6.9-5.9c-2.9-1.6-6.7-2.4-11.4-2.3h-21.4v47h16.3
	c2.8,0.1,5.5-0.7,7.7-2.3c1.8-1.3,3.2-3,4.2-5c0.9-1.6,1.5-3.4,1.8-5.3c0.2-1.1,0.3-2.2,0.3-3.4v-0.4h0.8v33.5h-0.8v-0.4
	c-0.1-1.2-0.2-2.3-0.3-3.5c-0.3-1.9-0.9-3.8-1.8-5.5c-1.1-2-2.6-3.7-4.4-5c-1.9-1.4-4.6-2.2-8-2.2h-15.8v32.9
	c0.1,0.7,0.1,1.4,0.1,2.2c0,1.9,0.1,3.7,0.5,5.5c0.3,1.3,0.9,2.5,1.7,3.5c0.9,0.9,1.9,1.6,3.2,2c1.6,0.5,3.2,0.7,4.8,0.8h12.7
	C129.3,148.9,132.1,148.5,134.9,147.7z"/>
<path class="st0" d="M163.5,149.7v-0.9h0.1c2.2,0,4.4-0.1,6.6-0.4c1.5-0.2,3-0.8,4.2-1.7c1.1-1,1.9-2.2,2.2-3.6
	c0.5-2,0.7-4.1,0.7-6.1V66.2c0-4.4-0.7-7.4-2.2-9.1s-4.1-2.6-7.9-2.8h-3.7v-0.7H207c4.5-0.1,8.9,0.5,13.3,1.8
	c3.3,1.2,6.4,2.9,9.1,5.2c2.3,2.1,4.1,4.7,5.2,7.5c1.2,3.1,1.8,6.4,1.8,9.7c0,7.2-2.3,13-7,17.2c-2.7,2.3-5.8,4.1-9.1,5.2
	c-1.7,0.7-3.5,1.1-5.3,1.3c-1.9,0.2-3.8,0.4-5.9,0.6c1.8,0.5,3.5,1.4,5.1,2.5c2.4,1.8,4.5,4.1,6.1,6.6l21.5,31.4
	c1,1.5,2.3,2.7,3.8,3.5c1.4,0.8,2.8,1.4,4.3,1.9c1.2,0.4,2.4,0.7,3.7,0.8c1.1,0.1,1.7,0.1,1.9,0.1h0.1v0.8h-22.8L205,109.1
	c-0.9-1.4-2-2.6-3.1-3.8c-0.8-0.8-1.7-1.5-2.7-2.1c-0.8-0.5-1.7-0.8-2.6-1c-0.9-0.2-1.7-0.2-2.6-0.2h-4.2v35.1
	c0,1.9,0.1,3.7,0.5,5.5c0.3,1.3,0.9,2.5,1.7,3.5c0.9,0.9,1.9,1.6,3.1,2c1.6,0.5,3.2,0.7,4.8,0.8h3.6v0.8L163.5,149.7L163.5,149.7z
	 M189.7,101.3h16.4c3.4,0.1,6.8-1,9.6-3c0.9-0.7,1.8-1.6,2.6-2.5c0.9-1.1,1.8-2.3,2.5-3.6c1-2.1,1.7-4.3,2.2-6.6
	c0.6-2.6,0.8-5.3,0.8-8c0-6.9-1.4-12.4-4.2-16.6c-2.9-4.5-8-7.1-13.4-6.8h-7.4c-1.5,0.1-2.9,0.5-4.2,1c-1.1,0.4-2,1.1-2.8,2
	c-0.8,1-1.3,2.2-1.5,3.5c-0.3,1.7-0.5,3.5-0.4,5.3L189.7,101.3L189.7,101.3z"/>
<path class="st0" d="M267.6,148.2c1.5-0.2,3-0.8,4.2-1.8c1.1-0.9,1.9-2.2,2.3-3.6c0.5-2,0.8-4.1,0.7-6.1V66c0-1.9-0.1-3.7-0.5-5.5
	c-0.3-1.3-0.9-2.5-1.7-3.5c-0.9-0.9-2-1.6-3.2-1.9c-1.6-0.4-3.2-0.7-4.9-0.8h-3.5v-1h72.4v25.5h-0.8v-0.2c-0.6-2.7-1.3-5.4-2.1-8.2
	c-0.8-2.8-2-5.4-3.7-7.8c-1.8-2.5-4.1-4.5-6.9-5.9c-2.9-1.6-6.7-2.4-11.4-2.3H287v46.7h16.3c2.7,0.1,5.5-0.7,7.7-2.3
	c1.7-1.3,3.2-3,4.2-4.9c0.9-1.7,1.5-3.4,1.8-5.3c0.2-1.1,0.3-2.3,0.4-3.5v-0.3h0.7v33.5h-0.6v-0.4c-0.1-1.2-0.2-2.3-0.4-3.5
	c-0.3-1.9-1-3.7-1.9-5.4c-1.1-2-2.5-3.6-4.3-4.9c-1.9-1.4-4.6-2.2-8-2.2H287v35.1c0,1.8,0.1,3.7,0.5,5.5c0.3,1.3,0.8,2.5,1.7,3.5
	c0.9,0.9,2,1.6,3.2,2c1.6,0.5,3.2,0.7,4.9,0.8h3.5v0.8H261v-0.8C263.2,148.7,265.4,148.6,267.6,148.2z"/>
<path class="st0" d="M338.6,100.8c-0.1-6.4,1-12.8,3.2-18.9c1.9-5.7,4.8-10.9,8.6-15.5c3.4-4.3,7.7-7.8,12.6-10.3
	c4.8-2.5,10.2-3.8,15.6-3.8h6.6c5.4,0,10.7,1.3,15.5,3.8c5,2.5,9.3,6,12.8,10.3c3.8,4.6,6.7,9.9,8.7,15.5c2.1,6.1,3.1,12.5,3.1,18.9
	c0.1,6.4-1,12.8-3.1,18.9c-2,5.6-4.9,10.9-8.7,15.5c-3.5,4.3-7.8,7.9-12.8,10.3c-4.8,2.5-10.1,3.8-15.5,3.9h-6.6
	c-5.5,0-10.8-1.3-15.6-3.9c-4.9-2.5-9.2-6-12.6-10.3c-3.8-4.6-6.7-9.8-8.6-15.5C339.6,113.6,338.5,107.3,338.6,100.8z M351,100.8
	c0,6.2,0.7,12.4,2.1,18.4c1.3,5.4,3.4,10.6,6.3,15.4c0.5,1,1.1,1.9,1.8,2.8c0.6,0.8,1.3,1.6,2,2.4c2,2.2,4.3,4.1,6.9,5.6
	c1.8,1,3.6,1.9,5.4,2.7c0.7,0.2,1.4,0.3,2.2,0.5c0.8,0.2,1.6,0.2,2.4,0.2h3.4c0.8,0,1.5-0.1,2.3-0.2c0.7-0.2,1.5-0.3,2.3-0.5
	c1.3-0.6,3.1-1.5,5.3-2.7c2.6-1.5,4.9-3.4,7-5.6c0.6-0.7,1.2-1.5,1.9-2.4c0.6-0.9,1.3-1.8,1.9-2.8c2.9-4.8,5.1-9.9,6.4-15.4
	c1.5-6,2.2-12.2,2.2-18.4c0-6.2-0.7-12.4-2.2-18.4c-1.3-5.4-3.5-10.6-6.4-15.4c-0.6-1-1.2-1.9-1.9-2.8s-1.3-1.7-1.9-2.4
	c-2.1-2.2-4.4-4.1-7-5.6c-2.2-1.2-4-2.1-5.3-2.7l-2.3-0.4c-0.8-0.1-1.5-0.2-2.3-0.2h-3.4c-1.5,0-3.1,0.2-4.6,0.6
	c-1.9,0.8-3.7,1.7-5.4,2.7c-2.6,1.5-4.9,3.4-6.9,5.6c-0.7,0.8-1.4,1.6-2,2.4c-0.6,0.9-1.2,1.8-1.8,2.8c-2.9,4.8-5.1,10-6.3,15.4
	C351.7,88.5,351,94.6,351,100.8z"/>
<path class="st0" d="M428.8,149.7v-0.9h0.1c2.2,0,4.4-0.1,6.6-0.4c1.5-0.2,3-0.8,4.2-1.7c1.1-1,1.9-2.2,2.2-3.6
	c0.5-2,0.7-4.1,0.7-6.1V66.2c0-4.4-0.7-7.4-2.2-9.1s-4.1-2.6-7.9-2.8h-3.7v-0.7h43.5c4.5-0.1,8.9,0.5,13.3,1.8
	c3.3,1.2,6.4,2.9,9.1,5.2c2.3,2.1,4.1,4.7,5.2,7.5c1.2,3.1,1.8,6.4,1.8,9.7c0,7.2-2.3,13-7,17.2c-2.7,2.3-5.8,4.1-9.1,5.2
	c-1.7,0.7-3.5,1.1-5.3,1.3c-1.9,0.2-3.8,0.4-5.9,0.6c1.8,0.5,3.5,1.4,5.1,2.5c2.4,1.8,4.5,4.1,6.1,6.6l21.5,31.4
	c1,1.5,2.3,2.7,3.8,3.5c1.4,0.8,2.8,1.4,4.3,1.9c1.2,0.4,2.4,0.7,3.7,0.8c1.1,0.1,1.7,0.1,1.9,0.1h0.1v0.8h-22.8l-27.9-40.6
	c-0.9-1.4-2-2.6-3.1-3.8c-0.8-0.8-1.7-1.5-2.7-2.1c-0.8-0.5-1.7-0.8-2.6-1c-0.9-0.2-1.7-0.2-2.6-0.2H455v35.1c0,1.9,0.1,3.7,0.5,5.5
	c0.3,1.3,0.9,2.5,1.7,3.5c0.9,0.9,1.9,1.6,3.1,2c1.6,0.5,3.2,0.7,4.8,0.8h3.5v0.8L428.8,149.7L428.8,149.7z M455,101.3h16.4
	c3.4,0.1,6.8-1,9.6-3c0.9-0.7,1.8-1.6,2.6-2.5c0.9-1.1,1.8-2.3,2.5-3.6c1-2.1,1.7-4.3,2.2-6.6c0.6-2.6,0.8-5.3,0.8-8
	c0-6.9-1.4-12.4-4.2-16.6c-2.9-4.5-8-7.1-13.4-6.8H464c-1.5,0.1-2.9,0.5-4.2,1c-1.1,0.4-2,1.1-2.8,2c-0.8,1-1.3,2.2-1.5,3.5
	c-0.3,1.7-0.5,3.5-0.5,5.3L455,101.3L455,101.3z"/>
<path class="st0" d="M608.6,148.4c1.5-0.2,3-0.8,4.2-1.7c1.1-0.9,1.9-2.2,2.3-3.6c0.5-2,0.7-4.1,0.7-6.2v-63c0-3.9,0-7.2,0.1-9.9
	c0-2.8,0.1-4.6,0.1-5.5l-35.1,70.7h-0.9l-33.2-66.4V134c-0.1,2.8,0.6,5.5,2.1,7.8c1.3,1.8,3,3.4,5,4.5c1.8,1,3.9,1.8,5.9,2.1
	c1.6,0.3,3.2,0.4,4.7,0.5h1.8v0.7h-39.8v-0.7h1.7c1.6,0,3.2-0.2,4.8-0.5c2.1-0.3,4.1-1,5.9-2.1c2-1.1,3.7-2.7,5-4.5
	c1.5-2.3,2.3-5.1,2.1-7.8V68.1c0-1.9,0-3.7-0.1-5.4c0-1.5-0.4-3-1.1-4.4c-0.7-1.3-1.8-2.3-3.1-3c-1.9-0.8-3.9-1.2-6-1.1h-3.7v-0.8
	h23.9l30.8,61.9l30.7-61.9h24.2v0.8h-4.6c-3.4,0-5.8,0.9-7.1,2.7c-1.3,1.8-2,4.8-2,9v71c0,4.5,0.8,7.6,2.5,9.3
	c1.7,1.7,4.3,2.6,7.8,2.6h3.5v0.7h-39.8v-0.7C604.2,148.9,606.4,148.8,608.6,148.4z"/>
<path class="st0" d="M647.5,148.7l2-0.2c1.6-0.3,3.1-0.8,4.5-1.6c4.9-2.8,8.6-7.2,10.3-12.6L695,53.5h0.9l30.6,80.5
	c1,2.8,2.3,5.5,3.8,8.1c0.9,1.6,2.1,3,3.4,4.2c1,0.8,2.2,1.4,3.5,1.7l4,0.7v0.8h-37.4v-0.8c2.7-0.2,5.1-0.3,7-0.5
	c1.6-0.1,3.1-0.6,4.4-1.6c1-0.9,1.4-2.3,1.3-4.3c-0.4-2.9-1.2-5.8-2.3-8.5l-8.4-22.4h-31.9l-8.7,22.7c-0.9,1.9-1.2,4-1,6.1
	c0.2,1.5,0.8,2.9,1.8,4.1c0.9,1.1,2.1,1.9,3.4,2.5c1.2,0.6,2.5,1,3.9,1.3c1.1,0.3,2.2,0.4,3.3,0.5l1.5,0.1v0.8h-30.5V148.7z
	 M689.9,69.6l-15.7,41h31.2L689.9,69.6z"/>
<path class="st0" d="M855.1,53.6v0.8h-1.7c-1.6,0-3.3,0.2-4.9,0.5c-2.1,0.4-4,1-5.9,2c-2,1.1-3.7,2.6-5,4.4c-1.5,2.3-2.2,5-2.1,7.7
	v80.7h-0.9l-67.1-88.4v72.8c-0.1,2.8,0.6,5.5,2.1,7.8c1.3,1.8,3,3.3,5,4.4c1.8,1,3.8,1.6,5.9,2c1.6,0.3,3.2,0.5,4.9,0.6h1.7v0.8h-40
	v-0.8h1.7c1.6,0,3.3-0.2,4.8-0.5c2.1-0.4,4-1,5.9-2c2-1.1,3.7-2.6,5-4.4c1.5-2.3,2.3-5.1,2.1-7.8V65.7c0-1.9,0-3.6-0.1-5
	c0-1.2-0.4-2.5-1-3.5c-0.7-1-1.8-1.8-3-2.1c-2-0.5-4.1-0.7-6.1-0.7h-3.7v-0.8h24.4l57.5,75.1V69.1c0.1-2.7-0.6-5.4-2.1-7.7
	c-1.3-1.8-3-3.3-5-4.4c-1.8-1-3.8-1.6-5.9-2c-1.6-0.3-3.2-0.5-4.9-0.5h-1.7v-0.8L855.1,53.6L855.1,53.6z"/>
<path class="st0" d="M857,101.5v-0.1h-0.5c0-3.2,0.3-6.4,0.8-9.6c0.5-3.1,1.3-6.2,2.4-9.3c2-5.6,4.9-10.8,8.7-15.4
	c1.8-2.1,3.8-4.1,5.9-5.9c2.1-1.7,4.4-3.2,6.8-4.4c4.8-2.6,10.2-3.9,15.7-3.8c3.8,0,7.7,0.7,11.2,2.3h0.1c0.1,0.1,0.3,0.2,0.5,0.2
	l0.1,0.1c0.5,0.2,1,0.5,1.5,0.7s1,0.5,1.5,0.8c4,2,7.1,3,9.4,3c1.8,0.1,3.6-0.3,5.1-1.2c1.4-1,2.4-2.5,2.6-4.2h0.8v35h-0.8
	c-0.4-2.8-0.9-5.6-1.7-8.4c-0.7-2.5-1.6-5-2.6-7.5c-1-2.1-2.1-4.1-3.4-6.1c-1.2-1.8-2.6-3.5-4.1-5.1c-2.7-2.9-6-5.2-9.6-6.7
	c-2.9-1.2-6-2-9.1-2.2c-4.1,0-8.1,1.3-11.4,3.7c-3.8,2.7-7,6.2-9.4,10.2c-2.8,4.7-5,9.9-6.3,15.2c-1.6,6.1-2.4,12.3-2.3,18.6
	c-0.1,7.9,1.2,15.8,3.8,23.3c2.5,7,5.9,12.7,10,17c1.7,1.6,3.6,3.1,5.6,4.3c1.5,0.9,3,1.6,4.6,2.2c0.9,0.3,1.8,0.5,2.7,0.7
	c0.9,0.1,1.9,0.2,2.8,0.2c1.6-0.2,3.1-0.4,4.6-0.7c1.5-0.3,3.1-0.8,4.5-1.4c3.6-1.6,6.8-3.9,9.5-6.7c1.5-1.5,2.9-3.2,4-5
	c1.2-2,2.3-4,3.3-6.1c1.1-2.4,2-4.9,2.6-7.4c0.7-2.8,1.3-5.6,1.7-8.4l0.8,0.1c-0.7,5.6-2.2,11-4.5,16.1c-1.8,4.2-4.3,8.1-7.4,11.4
	c-2.8,2.8-6.2,5.1-9.8,6.7c-3.5,1.5-7.3,2.3-11.1,2.3c-5.5,0-10.8-1.3-15.7-3.8c-4.9-2.6-9.2-6.1-12.6-10.4
	c-3.8-4.6-6.7-9.8-8.7-15.4c-1.1-3-1.9-6.1-2.4-9.3c-0.5-3.2-0.8-6.4-0.8-9.6H857z"/>
<path class="st0" d="M996.2,147.7c2.4-0.7,4.6-1.8,6.7-3.1c1.9-1.2,3.6-2.7,5.1-4.4c1.4-1.6,2.7-3.3,3.8-5.1c2.5-4.3,4.3-9,5.1-13.9
	h0.8l-3.3,28.6h-75.5v-0.9c2.2,0,4.4-0.1,6.6-0.4c1.6-0.2,3-0.8,4.3-1.7c1.1-0.9,1.9-2.2,2.3-3.6c0.5-2,0.8-4.1,0.7-6.1V67.6
	c0-0.2,0-0.5-0.1-0.7c0-0.2-0.1-0.5-0.1-0.7c0-4.4-0.7-7.4-2.2-9.1s-4.1-2.6-7.9-2.8h-3.7v-0.7h72.4v25.3h-0.8v-0.1
	c-0.6-2.7-1.3-5.4-2.1-8.3c-0.8-2.8-2-5.5-3.7-7.9c-1.8-2.5-4.1-4.5-6.8-5.9c-2.9-1.6-6.7-2.4-11.4-2.3h-21.5v47h16.3
	c2.8,0.1,5.5-0.7,7.7-2.3c1.8-1.3,3.2-3.1,4.2-5c0.9-1.6,1.5-3.4,1.8-5.3c0.2-1.1,0.3-2.2,0.3-3.4v-0.4h0.8v33.5h-0.8v-0.4
	c-0.1-1.2-0.2-2.3-0.3-3.5c-0.3-1.9-0.9-3.8-1.8-5.5c-1.1-2-2.6-3.7-4.4-5c-1.9-1.4-4.6-2.2-8-2.2h-15.8v32.9
	c0.1,0.7,0.1,1.4,0.1,2.2c0,1.9,0.1,3.7,0.5,5.5c0.3,1.3,0.9,2.5,1.7,3.5c0.9,0.9,1.9,1.6,3.1,2c1.6,0.5,3.2,0.7,4.8,0.8h12.7
	C990.6,148.9,993.4,148.5,996.2,147.7z"/>
</svg>
