<svg xmlns="http://www.w3.org/2000/svg" xmlns:xlink="http://www.w3.org/1999/xlink" viewBox="0 0 2284.23 474.06"><defs><style>.cls-1{isolation:isolate;}.cls-2{fill:url(#未命名漸層_306);}.cls-3{fill:url(#未命名漸層_309);}.cls-30,.cls-4{fill:#211513;}.cls-120,.cls-31,.cls-4,.cls-5,.cls-53,.cls-6,.cls-76,.cls-98{fill-rule:evenodd;}.cls-5{fill:#5f7696;}.cls-6{fill:url(#新增漸層色票_1);}.cls-7{mix-blend-mode:multiply;fill:url(#新增漸層色票_1-2);}.cls-8{fill:url(#未命名漸層_22);}.cls-9{fill:url(#未命名漸層_21);}.cls-10{fill:url(#未命名漸層_20);}.cls-11{fill:url(#未命名漸層_19);}.cls-12{fill:url(#未命名漸層_18);}.cls-13{fill:url(#未命名漸層_17);}.cls-14{fill:url(#未命名漸層_16);}.cls-15{fill:url(#未命名漸層_15);}.cls-16{fill:url(#未命名漸層_14);}.cls-17{fill:url(#未命名漸層_13);}.cls-18{fill:url(#未命名漸層_12);}.cls-19{fill:url(#未命名漸層_11);}.cls-20{fill:url(#未命名漸層_10);}.cls-21{fill:url(#未命名漸層_9);}.cls-22{fill:url(#未命名漸層_8);}.cls-23{fill:url(#未命名漸層_6);}.cls-24{fill:url(#未命名漸層_5);}.cls-25{fill:url(#未命名漸層_4);}.cls-26{fill:url(#未命名漸層_3);}.cls-27{fill:url(#未命名漸層_2);}.cls-28{fill:#4c6075;}.cls-29{fill:#fff;}.cls-31{fill:url(#新增漸層色票_1-3);}.cls-32{fill:url(#新增漸層色票_1-4);}.cls-33{fill:url(#未命名漸層_22-2);}.cls-34{fill:url(#未命名漸層_21-2);}.cls-35{fill:url(#未命名漸層_20-2);}.cls-36{fill:url(#未命名漸層_19-2);}.cls-37{fill:url(#未命名漸層_18-2);}.cls-38{fill:url(#未命名漸層_17-2);}.cls-39{fill:url(#未命名漸層_16-2);}.cls-40{fill:url(#未命名漸層_15-2);}.cls-41{fill:url(#未命名漸層_14-2);}.cls-42{fill:url(#未命名漸層_13-2);}.cls-43{fill:url(#未命名漸層_12-2);}.cls-44{fill:url(#未命名漸層_11-2);}.cls-45{fill:url(#未命名漸層_10-2);}.cls-46{fill:url(#未命名漸層_9-2);}.cls-47{fill:url(#未命名漸層_8-2);}.cls-48{fill:url(#未命名漸層_6-2);}.cls-49{fill:url(#未命名漸層_5-2);}.cls-50{fill:url(#未命名漸層_4-2);}.cls-51{fill:url(#未命名漸層_3-2);}.cls-52{fill:url(#未命名漸層_2-2);}.cls-53{fill:url(#新增漸層色票_1-5);}.cls-54{fill:url(#新增漸層色票_1-6);}.cls-55{fill:url(#未命名漸層_22-3);}.cls-56{fill:url(#未命名漸層_21-3);}.cls-57{fill:url(#未命名漸層_20-3);}.cls-58{fill:url(#未命名漸層_19-3);}.cls-59{fill:url(#未命名漸層_18-3);}.cls-60{fill:url(#未命名漸層_17-3);}.cls-61{fill:url(#未命名漸層_16-3);}.cls-62{fill:url(#未命名漸層_15-3);}.cls-63{fill:url(#未命名漸層_14-3);}.cls-64{fill:url(#未命名漸層_13-3);}.cls-65{fill:url(#未命名漸層_12-3);}.cls-66{fill:url(#未命名漸層_11-3);}.cls-67{fill:url(#未命名漸層_10-3);}.cls-68{fill:url(#未命名漸層_9-3);}.cls-69{fill:url(#未命名漸層_8-3);}.cls-70{fill:url(#未命名漸層_6-3);}.cls-71{fill:url(#未命名漸層_5-3);}.cls-72{fill:url(#未命名漸層_4-3);}.cls-73{fill:url(#未命名漸層_3-3);}.cls-74{fill:url(#未命名漸層_2-3);}.cls-75{fill:url(#未命名漸層_7);}.cls-76{fill:url(#新增漸層色票_1-7);}.cls-77{fill:url(#新增漸層色票_1-8);}.cls-78{fill:url(#未命名漸層_22-4);}.cls-79{fill:url(#未命名漸層_21-4);}.cls-80{fill:url(#未命名漸層_20-4);}.cls-81{fill:url(#未命名漸層_19-4);}.cls-82{fill:url(#未命名漸層_18-4);}.cls-83{fill:url(#未命名漸層_17-4);}.cls-84{fill:url(#未命名漸層_16-4);}.cls-85{fill:url(#未命名漸層_15-4);}.cls-86{fill:url(#未命名漸層_14-4);}.cls-87{fill:url(#未命名漸層_13-4);}.cls-88{fill:url(#未命名漸層_12-4);}.cls-89{fill:url(#未命名漸層_11-4);}.cls-90{fill:url(#未命名漸層_10-4);}.cls-91{fill:url(#未命名漸層_9-4);}.cls-92{fill:url(#未命名漸層_8-4);}.cls-93{fill:url(#未命名漸層_6-4);}.cls-94{fill:url(#未命名漸層_5-4);}.cls-95{fill:url(#未命名漸層_4-4);}.cls-96{fill:url(#未命名漸層_3-4);}.cls-97{fill:url(#未命名漸層_2-4);}.cls-98{fill:url(#新增漸層色票_1-9);}.cls-99{fill:url(#新增漸層色票_1-10);}.cls-100{fill:url(#未命名漸層_22-5);}.cls-101{fill:url(#未命名漸層_21-5);}.cls-102{fill:url(#未命名漸層_20-5);}.cls-103{fill:url(#未命名漸層_19-5);}.cls-104{fill:url(#未命名漸層_18-5);}.cls-105{fill:url(#未命名漸層_17-5);}.cls-106{fill:url(#未命名漸層_16-5);}.cls-107{fill:url(#未命名漸層_15-5);}.cls-108{fill:url(#未命名漸層_14-5);}.cls-109{fill:url(#未命名漸層_13-5);}.cls-110{fill:url(#未命名漸層_12-5);}.cls-111{fill:url(#未命名漸層_11-5);}.cls-112{fill:url(#未命名漸層_10-5);}.cls-113{fill:url(#未命名漸層_9-5);}.cls-114{fill:url(#未命名漸層_8-5);}.cls-115{fill:url(#未命名漸層_6-5);}.cls-116{fill:url(#未命名漸層_5-5);}.cls-117{fill:url(#未命名漸層_4-5);}.cls-118{fill:url(#未命名漸層_3-5);}.cls-119{fill:url(#未命名漸層_2-5);}.cls-120{fill:#ad181c;}.cls-121{fill:#cf121b;}</style><radialGradient id="未命名漸層_306" cx="-461.72" cy="169.41" r="66.98" gradientTransform="translate(456.15) scale(0.83 1)" gradientUnits="userSpaceOnUse"><stop offset="0.14" stop-color="#837e7d"/><stop offset="0.92" stop-color="#fff" stop-opacity="0"/></radialGradient><linearGradient id="未命名漸層_309" x1="82.39" y1="162.41" x2="2394.26" y2="162.41" gradientUnits="userSpaceOnUse"><stop offset="0" stop-color="#fff"/><stop offset="0.96" stop-color="#fff" stop-opacity="0"/></linearGradient><linearGradient id="新增漸層色票_1" x1="974.93" y1="-1022.91" x2="1081.69" y2="-1022.91" gradientTransform="matrix(0.84, -0.54, 0.54, 0.84, 223.71, 1494.95)" gradientUnits="userSpaceOnUse"><stop offset="0" stop-color="#d33924"/><stop offset="0.15" stop-color="#cb3023"/><stop offset="0.35" stop-color="#bb1c21"/><stop offset="0.57" stop-color="#aa1b20"/><stop offset="1" stop-color="#7f191e"/><stop offset="1" stop-color="#7f191e"/></linearGradient><linearGradient id="新增漸層色票_1-2" x1="997.93" y1="-1037.05" x2="1080.04" y2="-1037.05" xlink:href="#新增漸層色票_1"/><linearGradient id="未命名漸層_22" x1="950.05" y1="-1003.81" x2="1032.6" y2="-1003.81" gradientTransform="translate(213.06 1423.76) rotate(-30.92) scale(0.99)" gradientUnits="userSpaceOnUse"><stop offset="0" stop-color="#cd3b28"/><stop offset="0.15" stop-color="#c53227"/><stop offset="0.35" stop-color="#b61f25"/><stop offset="0.57" stop-color="#a51e24"/><stop offset="1" stop-color="#7d1c22"/></linearGradient><linearGradient id="未命名漸層_21" x1="903.35" y1="-967.67" x2="986.29" y2="-967.67" gradientTransform="matrix(0.86, -0.48, 0.48, 0.86, 202.41, 1352.58)" gradientUnits="userSpaceOnUse"><stop offset="0" stop-color="#c63d2c"/><stop offset="0.16" stop-color="#be342b"/><stop offset="0.35" stop-color="#b02329"/><stop offset="0.59" stop-color="#9f2228"/><stop offset="1" stop-color="#7a2026"/></linearGradient><linearGradient id="未命名漸層_20" x1="858.08" y1="-928.66" x2="941.36" y2="-928.66" gradientTransform="translate(191.75 1281.39) rotate(-27.91) scale(0.98)" gradientUnits="userSpaceOnUse"><stop offset="0" stop-color="#c03f30"/><stop offset="0.17" stop-color="#b8362f"/><stop offset="0.35" stop-color="#ab262d"/><stop offset="0.6" stop-color="#9a252c"/><stop offset="1" stop-color="#78232a"/></linearGradient><linearGradient id="未命名漸層_19" x1="814.49" y1="-886.86" x2="898.05" y2="-886.86" gradientTransform="matrix(0.87, -0.43, 0.43, 0.87, 181.1, 1210.2)" gradientUnits="userSpaceOnUse"><stop offset="0" stop-color="#b94133"/><stop offset="0.17" stop-color="#b23832"/><stop offset="0.35" stop-color="#a62931"/><stop offset="0.61" stop-color="#952830"/><stop offset="1" stop-color="#75272f"/></linearGradient><linearGradient id="未命名漸層_18" x1="772.84" y1="-842.37" x2="856.62" y2="-842.37" gradientTransform="translate(170.45 1139.01) rotate(-24.84) scale(0.97)" gradientUnits="userSpaceOnUse"><stop offset="0" stop-color="#b34237"/><stop offset="0.18" stop-color="#ab3936"/><stop offset="0.35" stop-color="#a02c35"/><stop offset="0.63" stop-color="#8f2b34"/><stop offset="1" stop-color="#732a33"/></linearGradient><linearGradient id="未命名漸層_17" x1="733.35" y1="-795.31" x2="817.31" y2="-795.31" gradientTransform="translate(159.79 1067.82) rotate(-23.29) scale(0.97)" gradientUnits="userSpaceOnUse"><stop offset="0" stop-color="#ac443b"/><stop offset="0.2" stop-color="#a43b3a"/><stop offset="0.35" stop-color="#9b3039"/><stop offset="0.64" stop-color="#8a2f38"/><stop offset="1" stop-color="#702d37"/></linearGradient><linearGradient id="未命名漸層_16" x1="696.27" y1="-745.84" x2="780.33" y2="-745.84" gradientTransform="translate(149.14 996.63) rotate(-21.72) scale(0.96)" gradientUnits="userSpaceOnUse"><stop offset="0" stop-color="#a6463f"/><stop offset="0.2" stop-color="#9e3d3e"/><stop offset="0.35" stop-color="#96333d"/><stop offset="0.66" stop-color="#85323c"/><stop offset="1" stop-color="#6e313b"/></linearGradient><linearGradient id="未命名漸層_15" x1="661.8" y1="-694.15" x2="745.9" y2="-694.15" gradientTransform="translate(138.49 925.45) rotate(-20.15) scale(0.96)" gradientUnits="userSpaceOnUse"><stop offset="0" stop-color="#9f4843"/><stop offset="0.21" stop-color="#983f42"/><stop offset="0.35" stop-color="#913641"/><stop offset="0.67" stop-color="#803540"/><stop offset="1" stop-color="#6b343f"/></linearGradient><linearGradient id="未命名漸層_14" x1="630.14" y1="-640.44" x2="714.22" y2="-640.44" gradientTransform="translate(127.84 854.26) rotate(-18.57) scale(0.96)" gradientUnits="userSpaceOnUse"><stop offset="0" stop-color="#994a47"/><stop offset="0.22" stop-color="#914146"/><stop offset="0.35" stop-color="#8b3945"/><stop offset="0.7" stop-color="#7a3944"/><stop offset="1" stop-color="#693843"/></linearGradient><linearGradient id="未命名漸層_13" x1="601.46" y1="-584.93" x2="685.45" y2="-584.93" gradientTransform="translate(117.18 783.07) rotate(-16.99) scale(0.96)" gradientUnits="userSpaceOnUse"><stop offset="0" stop-color="#934c4b"/><stop offset="0.24" stop-color="#8b434a"/><stop offset="0.35" stop-color="#863d49"/><stop offset="0.73" stop-color="#753c48"/><stop offset="1" stop-color="#673b47"/></linearGradient><linearGradient id="未命名漸層_12" x1="575.9" y1="-527.88" x2="659.74" y2="-527.88" gradientTransform="translate(106.53 711.88) rotate(-15.4) scale(0.96)" gradientUnits="userSpaceOnUse"><stop offset="0" stop-color="#8c4e4f"/><stop offset="0.26" stop-color="#85454e"/><stop offset="0.35" stop-color="#81404d"/><stop offset="0.75" stop-color="#703f4c"/><stop offset="1" stop-color="#643e4c"/></linearGradient><linearGradient id="未命名漸層_11" x1="553.58" y1="-469.54" x2="637.21" y2="-469.54" gradientTransform="translate(95.88 640.69) rotate(-13.82) scale(0.96)" gradientUnits="userSpaceOnUse"><stop offset="0" stop-color="#865052"/><stop offset="0.27" stop-color="#7e4751"/><stop offset="0.35" stop-color="#7b4351"/><stop offset="0.81" stop-color="#6a4250"/><stop offset="1" stop-color="#624250"/></linearGradient><linearGradient id="未命名漸層_10" x1="534.59" y1="-410.19" x2="617.94" y2="-410.19" gradientTransform="translate(85.22 569.51) rotate(-12.24) scale(0.96)" gradientUnits="userSpaceOnUse"><stop offset="0" stop-color="#7f5156"/><stop offset="0.31" stop-color="#774855"/><stop offset="0.35" stop-color="#764655"/><stop offset="0.84" stop-color="#654554"/><stop offset="1" stop-color="#5f4554"/></linearGradient><linearGradient id="未命名漸層_9" x1="518.99" y1="-350.1" x2="602" y2="-350.1" gradientTransform="translate(74.57 498.32) rotate(-10.67) scale(0.96)" gradientUnits="userSpaceOnUse"><stop offset="0" stop-color="#79535a"/><stop offset="0.35" stop-color="#714a59"/><stop offset="0.9" stop-color="#604958"/><stop offset="1" stop-color="#5d4958"/></linearGradient><linearGradient id="未命名漸層_8" x1="506.8" y1="-289.57" x2="589.41" y2="-289.57" gradientTransform="translate(63.92 427.13) rotate(-9.1) scale(0.97)" gradientUnits="userSpaceOnUse"><stop offset="0" stop-color="#72555e"/><stop offset="0.35" stop-color="#6b4d5d"/><stop offset="0.99" stop-color="#5a4c5c"/><stop offset="1" stop-color="#5a4c5c"/></linearGradient><linearGradient id="未命名漸層_6" x1="498.01" y1="-228.86" x2="580.16" y2="-228.86" gradientTransform="translate(53.26 355.94) rotate(-7.54) scale(0.97)" gradientUnits="userSpaceOnUse"><stop offset="0" stop-color="#6c5762"/><stop offset="0.35" stop-color="#665061"/><stop offset="1" stop-color="#584f60"/></linearGradient><linearGradient id="未命名漸層_5" x1="492.59" y1="-168.25" x2="574.22" y2="-168.25" gradientTransform="translate(42.61 284.75) rotate(-6) scale(0.98)" gradientUnits="userSpaceOnUse"><stop offset="0" stop-color="#655966"/><stop offset="0.35" stop-color="#615365"/><stop offset="1" stop-color="#555365"/></linearGradient><linearGradient id="未命名漸層_4" x1="490.48" y1="-108.01" x2="571.54" y2="-108.01" gradientTransform="translate(31.96 213.56) rotate(-4.48) scale(0.98)" gradientUnits="userSpaceOnUse"><stop offset="0" stop-color="#5f5b6a"/><stop offset="0.35" stop-color="#5c5769"/><stop offset="1" stop-color="#535669"/></linearGradient><linearGradient id="未命名漸層_3" x1="491.58" y1="-48.39" x2="572.01" y2="-48.39" gradientTransform="matrix(0.99, -0.05, 0.05, 0.99, 21.31, 142.38)" gradientUnits="userSpaceOnUse"><stop offset="0" stop-color="#595d6d"/><stop offset="0.35" stop-color="#565a6d"/><stop offset="1" stop-color="#515a6d"/></linearGradient><linearGradient id="未命名漸層_2" x1="495.77" y1="10.39" x2="575.54" y2="10.39" gradientTransform="translate(10.65 71.19) rotate(-1.47) scale(0.99)" gradientUnits="userSpaceOnUse"><stop offset="0" stop-color="#525f71"/><stop offset="0.35" stop-color="#515d71"/><stop offset="1" stop-color="#4e5d71"/></linearGradient><linearGradient id="新增漸層色票_1-3" x1="1377.21" y1="88.67" x2="1473.23" y2="88.67" gradientTransform="matrix(1, 0, 0, 1, 0, 0)" xlink:href="#新增漸層色票_1"/><linearGradient id="新增漸層色票_1-4" x1="1742.29" y1="-564.86" x2="1824.4" y2="-564.86" xlink:href="#新增漸層色票_1"/><linearGradient id="未命名漸層_22-2" x1="1711.69" y1="-547.67" x2="1794.24" y2="-547.67" xlink:href="#未命名漸層_22"/><linearGradient id="未命名漸層_21-2" x1="1681.64" y1="-528.68" x2="1764.58" y2="-528.68" xlink:href="#未命名漸層_21"/><linearGradient id="未命名漸層_20-2" x1="1652.29" y1="-507.9" x2="1735.57" y2="-507.9" xlink:href="#未命名漸層_20"/><linearGradient id="未命名漸層_19-2" x1="1623.8" y1="-485.35" x2="1707.36" y2="-485.35" xlink:href="#未命名漸層_19"/><linearGradient id="未命名漸層_18-2" x1="1596.33" y1="-461.09" x2="1680.12" y2="-461.09" xlink:href="#未命名漸層_18"/><linearGradient id="未命名漸層_17-2" x1="1570.02" y1="-435.17" x2="1653.98" y2="-435.17" xlink:href="#未命名漸層_17"/><linearGradient id="未命名漸層_16-2" x1="1545.03" y1="-407.67" x2="1629.09" y2="-407.67" xlink:href="#未命名漸層_16"/><linearGradient id="未命名漸層_15-2" x1="1521.48" y1="-378.7" x2="1605.58" y2="-378.7" xlink:href="#未命名漸層_15"/><linearGradient id="未命名漸層_14-2" x1="1499.52" y1="-348.36" x2="1583.6" y2="-348.36" xlink:href="#未命名漸層_14"/><linearGradient id="未命名漸層_13-2" x1="1479.25" y1="-316.78" x2="1563.24" y2="-316.78" xlink:href="#未命名漸層_13"/><linearGradient id="未命名漸層_12-2" x1="1460.77" y1="-284.11" x2="1544.61" y2="-284.11" xlink:href="#未命名漸層_12"/><linearGradient id="未命名漸層_11-2" x1="1444.17" y1="-250.48" x2="1527.79" y2="-250.48" xlink:href="#未命名漸層_11"/><linearGradient id="未命名漸層_10-2" x1="1429.51" y1="-216.06" x2="1512.86" y2="-216.06" xlink:href="#未命名漸層_10"/><linearGradient id="未命名漸層_9-2" x1="1416.86" y1="-181.02" x2="1499.87" y2="-181.02" xlink:href="#未命名漸層_9"/><linearGradient id="未命名漸層_8-2" x1="1406.23" y1="-145.51" x2="1488.83" y2="-145.51" xlink:href="#未命名漸層_8"/><linearGradient id="未命名漸層_6-2" x1="1397.63" y1="-109.71" x2="1479.78" y2="-109.71" xlink:href="#未命名漸層_6"/><linearGradient id="未命名漸層_5-2" x1="1391.07" y1="-73.78" x2="1472.7" y2="-73.78" xlink:href="#未命名漸層_5"/><linearGradient id="未命名漸層_4-2" x1="1386.52" y1="-37.88" x2="1467.58" y2="-37.88" xlink:href="#未命名漸層_4"/><linearGradient id="未命名漸層_3-2" x1="1383.93" y1="-2.18" x2="1464.37" y2="-2.18" xlink:href="#未命名漸層_3"/><linearGradient id="未命名漸層_2-2" x1="1383.26" y1="33.19" x2="1463.03" y2="33.19" xlink:href="#未命名漸層_2"/><linearGradient id="新增漸層色票_1-5" x1="1898.93" y1="88.67" x2="1994.96" y2="88.67" gradientTransform="matrix(1, 0, 0, 1, 0, 0)" xlink:href="#新增漸層色票_1"/><linearGradient id="新增漸層色票_1-6" x1="1907.72" y1="62.69" x2="1989.83" y2="62.69" gradientTransform="matrix(1, 0, 0, 1, 0, 0)" xlink:href="#新增漸層色票_1"/><linearGradient id="未命名漸層_22-3" x1="1907.65" y1="62.95" x2="1989.61" y2="62.95" gradientTransform="matrix(1, 0, 0, 1, 0, 0)" xlink:href="#未命名漸層_22"/><linearGradient id="未命名漸層_21-3" x1="1907.57" y1="63.2" x2="1989.39" y2="63.2" gradientTransform="matrix(1, 0, 0, 1, 0, 0)" xlink:href="#未命名漸層_21"/><linearGradient id="未命名漸層_20-3" x1="1907.5" y1="63.46" x2="1989.17" y2="63.46" gradientTransform="matrix(1, 0, 0, 1, 0, 0)" xlink:href="#未命名漸層_20"/><linearGradient id="未命名漸層_19-3" x1="1907.42" y1="63.72" x2="1988.95" y2="63.72" gradientTransform="matrix(1, 0, 0, 1, 0, 0)" xlink:href="#未命名漸層_19"/><linearGradient id="未命名漸層_18-3" x1="1907.35" y1="63.98" x2="1988.73" y2="63.98" gradientTransform="matrix(1, 0, 0, 1, 0, 0)" xlink:href="#未命名漸層_18"/><linearGradient id="未命名漸層_17-3" x1="1907.27" y1="64.23" x2="1988.51" y2="64.23" gradientTransform="matrix(1, 0, 0, 1, 0, 0)" xlink:href="#未命名漸層_17"/><linearGradient id="未命名漸層_16-3" x1="1907.2" y1="64.49" x2="1988.29" y2="64.49" gradientTransform="matrix(1, 0, 0, 1, 0, 0)" xlink:href="#未命名漸層_16"/><linearGradient id="未命名漸層_15-3" x1="1907.12" y1="64.75" x2="1988.07" y2="64.75" gradientTransform="matrix(1, 0, 0, 1, 0, 0)" xlink:href="#未命名漸層_15"/><linearGradient id="未命名漸層_14-3" x1="1907.05" y1="65" x2="1987.85" y2="65" gradientTransform="matrix(1, 0, 0, 1, 0, 0)" xlink:href="#未命名漸層_14"/><linearGradient id="未命名漸層_13-3" x1="1906.97" y1="65.26" x2="1987.63" y2="65.26" gradientTransform="matrix(1, 0, 0, 1, 0, 0)" xlink:href="#未命名漸層_13"/><linearGradient id="未命名漸層_12-3" x1="1906.9" y1="65.52" x2="1987.41" y2="65.52" gradientTransform="matrix(1, 0, 0, 1, 0, 0)" xlink:href="#未命名漸層_12"/><linearGradient id="未命名漸層_11-3" x1="1906.82" y1="65.78" x2="1987.19" y2="65.78" gradientTransform="matrix(1, 0, 0, 1, 0, 0)" xlink:href="#未命名漸層_11"/><linearGradient id="未命名漸層_10-3" x1="1906.75" y1="66.03" x2="1986.97" y2="66.03" gradientTransform="matrix(1, 0, 0, 1, 0, 0)" xlink:href="#未命名漸層_10"/><linearGradient id="未命名漸層_9-3" x1="1906.67" y1="66.29" x2="1986.75" y2="66.29" gradientTransform="matrix(1, 0, 0, 1, 0, 0)" xlink:href="#未命名漸層_9"/><linearGradient id="未命名漸層_8-3" x1="1906.6" y1="66.55" x2="1986.53" y2="66.55" gradientTransform="matrix(1, 0, 0, 1, 0, 0)" xlink:href="#未命名漸層_8"/><linearGradient id="未命名漸層_6-3" x1="1906.53" y1="66.81" x2="1986.31" y2="66.81" gradientTransform="matrix(1, 0, 0, 1, 0, 0)" xlink:href="#未命名漸層_6"/><linearGradient id="未命名漸層_5-3" x1="1906.45" y1="67.06" x2="1986.09" y2="67.06" gradientTransform="matrix(1, 0, 0, 1, 0, 0)" xlink:href="#未命名漸層_5"/><linearGradient id="未命名漸層_4-3" x1="1906.38" y1="67.32" x2="1985.87" y2="67.32" gradientTransform="matrix(1, 0, 0, 1, 0, 0)" xlink:href="#未命名漸層_4"/><linearGradient id="未命名漸層_3-3" x1="1906.3" y1="67.58" x2="1985.65" y2="67.58" gradientTransform="matrix(1, 0, 0, 1, 0, 0)" xlink:href="#未命名漸層_3"/><linearGradient id="未命名漸層_2-3" x1="1906.23" y1="67.84" x2="1985.43" y2="67.84" gradientTransform="matrix(1, 0, 0, 1, 0, 0)" xlink:href="#未命名漸層_2"/><linearGradient id="未命名漸層_7" x1="1906.15" y1="68.09" x2="1985.21" y2="68.09" gradientUnits="userSpaceOnUse"><stop offset="0" stop-color="#7f5b5f"/><stop offset="0.35" stop-color="#76565b"/><stop offset="0.93" stop-color="#655058"/><stop offset="1" stop-color="#634f57"/></linearGradient><linearGradient id="新增漸層色票_1-7" x1="1136.43" y1="240.59" x2="1232.46" y2="240.59" gradientTransform="matrix(1, 0, 0, 1, 0, 0)" xlink:href="#新增漸層色票_1"/><linearGradient id="新增漸層色票_1-8" x1="1141.56" y1="266.56" x2="1223.67" y2="266.56" gradientTransform="matrix(1, 0, 0, 1, 0, 0)" xlink:href="#新增漸層色票_1"/><linearGradient id="未命名漸層_22-4" x1="1141.78" y1="266.31" x2="1223.75" y2="266.31" gradientTransform="matrix(1, 0, 0, 1, 0, 0)" xlink:href="#未命名漸層_22"/><linearGradient id="未命名漸層_21-4" x1="1142" y1="266.05" x2="1223.82" y2="266.05" gradientTransform="matrix(1, 0, 0, 1, 0, 0)" xlink:href="#未命名漸層_21"/><linearGradient id="未命名漸層_20-4" x1="1142.22" y1="265.79" x2="1223.89" y2="265.79" gradientTransform="matrix(1, 0, 0, 1, 0, 0)" xlink:href="#未命名漸層_20"/><linearGradient id="未命名漸層_19-4" x1="1142.44" y1="265.53" x2="1223.97" y2="265.53" gradientTransform="matrix(1, 0, 0, 1, 0, 0)" xlink:href="#未命名漸層_19"/><linearGradient id="未命名漸層_18-4" x1="1142.66" y1="265.28" x2="1224.04" y2="265.28" gradientTransform="matrix(1, 0, 0, 1, 0, 0)" xlink:href="#未命名漸層_18"/><linearGradient id="未命名漸層_17-4" x1="1142.88" y1="265.02" x2="1224.12" y2="265.02" gradientTransform="matrix(1, 0, 0, 1, 0, 0)" xlink:href="#未命名漸層_17"/><linearGradient id="未命名漸層_16-4" x1="1143.1" y1="264.76" x2="1224.19" y2="264.76" gradientTransform="matrix(1, 0, 0, 1, 0, 0)" xlink:href="#未命名漸層_16"/><linearGradient id="未命名漸層_15-4" x1="1143.32" y1="264.51" x2="1224.27" y2="264.51" gradientTransform="matrix(1, 0, 0, 1, 0, 0)" xlink:href="#未命名漸層_15"/><linearGradient id="未命名漸層_14-4" x1="1143.54" y1="264.25" x2="1224.34" y2="264.25" gradientTransform="matrix(1, 0, 0, 1, 0, 0)" xlink:href="#未命名漸層_14"/><linearGradient id="未命名漸層_13-4" x1="1143.76" y1="263.99" x2="1224.42" y2="263.99" gradientTransform="matrix(1, 0, 0, 1, 0, 0)" xlink:href="#未命名漸層_13"/><linearGradient id="未命名漸層_12-4" x1="1143.98" y1="263.73" x2="1224.49" y2="263.73" gradientTransform="matrix(1, 0, 0, 1, 0, 0)" xlink:href="#未命名漸層_12"/><linearGradient id="未命名漸層_11-4" x1="1144.2" y1="263.48" x2="1224.57" y2="263.48" gradientTransform="matrix(1, 0, 0, 1, 0, 0)" xlink:href="#未命名漸層_11"/><linearGradient id="未命名漸層_10-4" x1="1144.42" y1="263.22" x2="1224.64" y2="263.22" gradientTransform="matrix(1, 0, 0, 1, 0, 0)" xlink:href="#未命名漸層_10"/><linearGradient id="未命名漸層_9-4" x1="1144.64" y1="262.96" x2="1224.72" y2="262.96" gradientTransform="matrix(1, 0, 0, 1, 0, 0)" xlink:href="#未命名漸層_9"/><linearGradient id="未命名漸層_8-4" x1="1144.86" y1="262.7" x2="1224.79" y2="262.7" gradientTransform="matrix(1, 0, 0, 1, 0, 0)" xlink:href="#未命名漸層_8"/><linearGradient id="未命名漸層_6-4" x1="1145.08" y1="262.45" x2="1224.87" y2="262.45" gradientTransform="matrix(1, 0, 0, 1, 0, 0)" xlink:href="#未命名漸層_6"/><linearGradient id="未命名漸層_5-4" x1="1145.3" y1="262.19" x2="1224.94" y2="262.19" gradientTransform="matrix(1, 0, 0, 1, 0, 0)" xlink:href="#未命名漸層_5"/><linearGradient id="未命名漸層_4-4" x1="1145.52" y1="261.93" x2="1225.01" y2="261.93" gradientTransform="matrix(1, 0, 0, 1, 0, 0)" xlink:href="#未命名漸層_4"/><linearGradient id="未命名漸層_3-4" x1="1145.74" y1="261.67" x2="1225.09" y2="261.67" gradientTransform="matrix(1, 0, 0, 1, 0, 0)" xlink:href="#未命名漸層_3"/><linearGradient id="未命名漸層_2-4" x1="1145.96" y1="261.42" x2="1225.16" y2="261.42" gradientTransform="matrix(1, 0, 0, 1, 0, 0)" xlink:href="#未命名漸層_2"/><linearGradient id="新增漸層色票_1-9" x1="1445.02" y1="240.59" x2="1541.05" y2="240.59" gradientTransform="matrix(1, 0, 0, 1, 0, 0)" xlink:href="#新增漸層色票_1"/><linearGradient id="新增漸層色票_1-10" x1="1450.15" y1="266.56" x2="1532.26" y2="266.56" gradientTransform="matrix(1, 0, 0, 1, 0, 0)" xlink:href="#新增漸層色票_1"/><linearGradient id="未命名漸層_22-5" x1="1450.37" y1="266.31" x2="1532.33" y2="266.31" gradientTransform="matrix(1, 0, 0, 1, 0, 0)" xlink:href="#未命名漸層_22"/><linearGradient id="未命名漸層_21-5" x1="1450.59" y1="266.05" x2="1532.41" y2="266.05" gradientTransform="matrix(1, 0, 0, 1, 0, 0)" xlink:href="#未命名漸層_21"/><linearGradient id="未命名漸層_20-5" x1="1450.81" y1="265.79" x2="1532.48" y2="265.79" gradientTransform="matrix(1, 0, 0, 1, 0, 0)" xlink:href="#未命名漸層_20"/><linearGradient id="未命名漸層_19-5" x1="1451.03" y1="265.53" x2="1532.56" y2="265.53" gradientTransform="matrix(1, 0, 0, 1, 0, 0)" xlink:href="#未命名漸層_19"/><linearGradient id="未命名漸層_18-5" x1="1451.25" y1="265.28" x2="1532.63" y2="265.28" gradientTransform="matrix(1, 0, 0, 1, 0, 0)" xlink:href="#未命名漸層_18"/><linearGradient id="未命名漸層_17-5" x1="1451.47" y1="265.02" x2="1532.71" y2="265.02" gradientTransform="matrix(1, 0, 0, 1, 0, 0)" xlink:href="#未命名漸層_17"/><linearGradient id="未命名漸層_16-5" x1="1451.69" y1="264.76" x2="1532.78" y2="264.76" gradientTransform="matrix(1, 0, 0, 1, 0, 0)" xlink:href="#未命名漸層_16"/><linearGradient id="未命名漸層_15-5" x1="1451.91" y1="264.51" x2="1532.86" y2="264.51" gradientTransform="matrix(1, 0, 0, 1, 0, 0)" xlink:href="#未命名漸層_15"/><linearGradient id="未命名漸層_14-5" x1="1452.13" y1="264.25" x2="1532.93" y2="264.25" gradientTransform="matrix(1, 0, 0, 1, 0, 0)" xlink:href="#未命名漸層_14"/><linearGradient id="未命名漸層_13-5" x1="1452.35" y1="263.99" x2="1533.01" y2="263.99" gradientTransform="matrix(1, 0, 0, 1, 0, 0)" xlink:href="#未命名漸層_13"/><linearGradient id="未命名漸層_12-5" x1="1452.57" y1="263.73" x2="1533.08" y2="263.73" gradientTransform="matrix(1, 0, 0, 1, 0, 0)" xlink:href="#未命名漸層_12"/><linearGradient id="未命名漸層_11-5" x1="1452.79" y1="263.48" x2="1533.16" y2="263.48" gradientTransform="matrix(1, 0, 0, 1, 0, 0)" xlink:href="#未命名漸層_11"/><linearGradient id="未命名漸層_10-5" x1="1453.01" y1="263.22" x2="1533.23" y2="263.22" gradientTransform="matrix(1, 0, 0, 1, 0, 0)" xlink:href="#未命名漸層_10"/><linearGradient id="未命名漸層_9-5" x1="1453.23" y1="262.96" x2="1533.3" y2="262.96" gradientTransform="matrix(1, 0, 0, 1, 0, 0)" xlink:href="#未命名漸層_9"/><linearGradient id="未命名漸層_8-5" x1="1453.45" y1="262.7" x2="1533.38" y2="262.7" gradientTransform="matrix(1, 0, 0, 1, 0, 0)" xlink:href="#未命名漸層_8"/><linearGradient id="未命名漸層_6-5" x1="1453.67" y1="262.45" x2="1533.45" y2="262.45" gradientTransform="matrix(1, 0, 0, 1, 0, 0)" xlink:href="#未命名漸層_6"/><linearGradient id="未命名漸層_5-5" x1="1453.89" y1="262.19" x2="1533.53" y2="262.19" gradientTransform="matrix(1, 0, 0, 1, 0, 0)" xlink:href="#未命名漸層_5"/><linearGradient id="未命名漸層_4-5" x1="1454.11" y1="261.93" x2="1533.6" y2="261.93" gradientTransform="matrix(1, 0, 0, 1, 0, 0)" xlink:href="#未命名漸層_4"/><linearGradient id="未命名漸層_3-5" x1="1454.33" y1="261.67" x2="1533.68" y2="261.67" gradientTransform="matrix(1, 0, 0, 1, 0, 0)" xlink:href="#未命名漸層_3"/><linearGradient id="未命名漸層_2-5" x1="1454.55" y1="261.42" x2="1533.75" y2="261.42" gradientTransform="matrix(1, 0, 0, 1, 0, 0)" xlink:href="#未命名漸層_2"/></defs><g class="cls-1"><g id="圖層_1" data-name="圖層 1"><ellipse class="cls-2" cx="73.39" cy="169.41" rx="55.52" ry="66.98"/><polygon class="cls-3" points="2394.26 163.27 82.39 163.27 82.39 161.55 2394.26 161.55 2394.26 163.27 2394.26 163.27"/><path class="cls-4" d="M67.19,218.23c7-2.42,15.13-4.72,23.07-2C83.75,212.14,74.06,210.06,67.19,218.23Z"/><path class="cls-4" d="M114.13,270.42c-4.79,4.14-5.63,7.42-5.63,7.42,15.59-15.72,28.76-6.7,28.76-6.7s-3-4.56-7.35-5.43S118.92,266.28,114.13,270.42Z"/><path class="cls-4" d="M136,422.62c-7.39-12.69-23.16-21.9-33.83-30.35a31.58,31.58,0,0,1-9.55-11C82.93,364.34,80.93,347.15,78,327c-1.28-8.81-4.63-17-5.88-29-.7-6.75-1-13.43-1.4-19.88-.85-13.19-5.26-42.33-4.43-45.55C64.54,228,62.23,209.75,63,203.88c-.72-6.47-5.77-23-5.61-36.11.11-9.52,1.71-15.35,9.35-17.37,6.87-1.8,12.2,4.49,14.63,11.2,4.52,12.51,4.47,26.69,7.67,39.57,3,12.6,7.05,25.06,9.27,38.38a214.51,214.51,0,0,0,5.29,21.92c2.42,8.17-1.53,15.89-2,23,5.33-14.39,15.31-27.74,27.1-30.31,7.92-1.82,18.2.92,21.51,4.41,1.89,2,1.2,5.28.71,7.74-.69,3.45-4.17,4.49-7.12,3.93,5.36,5.29,10.3-1.07,18.49-2.72,6.31-1.27,11.68,3.31,20.17,4.36-14.77-7-15.66-9.73-30.74-2.29.39-3.88,2.35-8.39,5.23-10.19,9.42-5.88,19.68-3.84,25.74,3.18a22.38,22.38,0,0,1,4,7.43c-3.11-1.3-5.36-5.13-5.36-5.13,8,17,16.79,2,34.69,8.79a19.53,19.53,0,0,0-13.12-4.85c-6.62.09-9.55,3.81-14.89,1.53-.06-2.22-2.3-6.91,1.42-7.75a36.24,36.24,0,0,1,24.37,3.49c6.76,3.53,13.67,14.51,16.47,24,3.86,13.06,3.08,29.22,3.57,43.09,8.51-3.36,20.29,56.34,22.38,64.47a34.1,34.1,0,0,0-10.7-5.7c10.89,11.85,16.87,26.94,22.14,40.63l4.18-.9c-7.3-16.45-11.2-30.09-15-50.26-3.91-20.69-10.26-35.91-17.26-54.7-2.43-8.22-1.72-27.12-4.85-37.72-2.91-9.83-11.51-23.47-18.55-27.13-7.63-4-19.35-7.82-29.77-1.88-6-10-24.28-11-32.7-3.09-1.51-3.76-14.34-9.59-25.82-6.95-8.56,2-14.47,7.73-19.25,14.41-2.57-9.77-5.53-18.27-7.21-28.41C99,222,95.18,211.08,92,198c-2.35-9.46-3.45-20.05-5.21-29.81s-6.22-25-21.53-21.79c-9.3,2.28-12,10.27-12.08,20.17-.16,13.57,5.05,30.57,5.8,37.29-.75,6.1,1.65,23.88,3.46,28.65-1,4,3.87,32.17,4,40-7.36-9.28-16.39-11.32-25.72-7.14-3.37,1.45-8,4.89-6.28,8.66,3.94,8.52,8.37,15.86,11.87,23,.25,1,2.45,5.53,3.42,9,3.26,11.77,7.95,20.22,14.49,30.48,12.52,19.61,16.93,45.17,35.59,59.93,11.09,8.78,26.81,18.89,34.49,32.09,3,3.67,10.91,18.07,16.61,29.22l4.36-.94C149.17,445.24,139.08,426.43,136,422.62ZM39.19,274.68c-1.6-3.42.09-4.09,2.29-3.61,9.74,2.11,18.23,17,9,24.82C47.11,289.07,43,282.87,39.19,274.68Zm29.38,60.47c-3.4-5.34-6.27-9.68-9.06-14.81-2.3-4.23,2.92-10.81,4.6-15.29l-7.71,9.34a62.19,62.19,0,0,1-3.13-8.66c-.67-2.42-1.68-5.87-2.29-8,12.09-6.74,3-26.47-8.44-28.86,13.12-5.64,20.93,6,24.22,11.44,1.13,17,4.59,31.58,7.49,47.36,1.45,7.86,2.5,15.39,4.73,23.25,1.85,6.5,3.81,12.88,5.58,19C78.84,358.48,75.53,346.06,68.57,335.15Z"/><path class="cls-4" d="M79.25,166.15c-.17-2.66-.91-6.81-2.21-9.11-4-7-12-5.39-15.47-.8-2.26,3-1.34,8.49-.48,12.61.56,2.7,2.15,3.77,4.85,3.45,4.18-.49,6.46-.61,10.43-1.17C79.21,170.74,79.43,169,79.25,166.15Zm-12.61,4.19c-2.24.26-3.46-.36-3.92-2.6-.71-3.41-1.46-7.5.41-10,2.86-3.8,9.32-5.23,12.6.56a18.52,18.52,0,0,1,1.69,7.16c.15,2.33.12,3.51-2.23,3.84C71.9,169.77,70.1,169.93,66.64,170.34Z"/><path class="cls-4" d="M86.65,225.07a56.55,56.55,0,0,1-13.26,4.2C79.47,231.88,85.19,227.22,86.65,225.07Z"/><path class="cls-5" d="M569.2,29.4A47.44,47.44,0,1,0,529.7,114c4.44,1.11,8.31,1.35,12.67,3.13,13.15,5.36,13,19.89-12.68,40.16,44-17.87,68.8-65.56,57.77-101.61A51,51,0,0,0,569.2,29.4Z"/><path class="cls-6" d="M571,29.19a47.34,47.34,0,1,0-39.47,84.13c4.45,1.11,8.57,1.21,12.73,3.42,12.9,6.88,11.11,22.94-14.55,40.51,44-17.87,70.58-65.77,59.55-101.82A51,51,0,0,0,571,29.19Z"/><path class="cls-7" d="M505,56.65a41.05,41.05,0,1,1,34.57,46.64A41,41,0,0,1,505,56.65Z"/><path class="cls-8" d="M504.87,56.92a41,41,0,1,1,34.51,46.56,41,41,0,0,1-34.51-46.56Z"/><path class="cls-9" d="M504.8,57.19a40.9,40.9,0,1,1,34.44,46.47A40.91,40.91,0,0,1,504.8,57.19Z"/><path class="cls-10" d="M504.72,57.46a40.83,40.83,0,1,1,34.39,46.39,40.84,40.84,0,0,1-34.39-46.39Z"/><path class="cls-11" d="M504.65,57.72A40.76,40.76,0,1,1,539,104a40.75,40.75,0,0,1-34.32-46.31Z"/><path class="cls-12" d="M504.57,58a40.69,40.69,0,1,1,34.26,46.23A40.69,40.69,0,0,1,504.57,58Z"/><path class="cls-13" d="M504.5,58.26a40.61,40.61,0,1,1,34.2,46.15,40.6,40.6,0,0,1-34.2-46.15Z"/><path class="cls-14" d="M504.42,58.53a40.54,40.54,0,1,1,34.14,46.06,40.54,40.54,0,0,1-34.14-46.06Z"/><path class="cls-15" d="M504.35,58.8a40.46,40.46,0,1,1,34.07,46,40.46,40.46,0,0,1-34.07-46Z"/><path class="cls-16" d="M504.27,59.06a40.39,40.39,0,1,1,34,45.9,40.39,40.39,0,0,1-34-45.9Z"/><path class="cls-17" d="M504.2,59.33a40.32,40.32,0,1,1,33.95,45.82A40.31,40.31,0,0,1,504.2,59.33Z"/><path class="cls-18" d="M504.12,59.6A40.25,40.25,0,1,1,538,105.33,40.24,40.24,0,0,1,504.12,59.6Z"/><path class="cls-19" d="M504,59.87a40.18,40.18,0,1,1,33.84,45.65A40.17,40.17,0,0,1,504,59.87Z"/><path class="cls-20" d="M504,60.14a40.11,40.11,0,1,1,33.77,45.56A40.11,40.11,0,0,1,504,60.14Z"/><path class="cls-21" d="M503.89,60.4a40,40,0,1,1,33.71,45.49A40,40,0,0,1,503.89,60.4Z"/><path class="cls-22" d="M503.82,60.67a40,40,0,1,1,33.65,45.4,40,40,0,0,1-33.65-45.4Z"/><path class="cls-23" d="M503.74,60.94a39.89,39.89,0,1,1,33.59,45.32,39.89,39.89,0,0,1-33.59-45.32Z"/><path class="cls-24" d="M503.67,61.21a39.81,39.81,0,1,1,33.52,45.23,39.81,39.81,0,0,1-33.52-45.23Z"/><path class="cls-25" d="M503.59,61.48a39.74,39.74,0,1,1,33.47,45.15,39.74,39.74,0,0,1-33.47-45.15Z"/><path class="cls-26" d="M503.52,61.74a39.67,39.67,0,1,1,33.4,45.08,39.66,39.66,0,0,1-33.4-45.08Z"/><path class="cls-27" d="M503.44,62a39.6,39.6,0,1,1,33.34,45,39.6,39.6,0,0,1-33.34-45Z"/><path class="cls-28" d="M503.36,62.28a39.53,39.53,0,1,1,33.29,44.91,39.53,39.53,0,0,1-33.29-44.91Z"/><path class="cls-29" d="M503.36,62.28a39.53,39.53,0,1,1,33.29,44.91,39.53,39.53,0,0,1-33.29-44.91Z"/><path class="cls-29" d="M504.84,62.5a38,38,0,1,1,32,43.21,38,38,0,0,1-32-43.21Z"/><path class="cls-30" d="M536.39,48.65l-.54,1a29.29,29.29,0,0,0-4.93-4.23,18.07,18.07,0,0,1-2.19,2.24h4.46v1h-4.54v-.94a29.38,29.38,0,0,1-3.31,2.41l-.54-1A19.14,19.14,0,0,0,530.68,44l1.09.3a.82.82,0,0,1-.16.26A37.68,37.68,0,0,1,536.39,48.65ZM535.1,63.43h-1V62.31h-5.74v1.12h-1V58.59a10.23,10.23,0,0,1-1.81,4.79l-.73-.72A14.89,14.89,0,0,0,526.73,55V50h8.37v6.11h-7.39c0,.38-.06.93-.15,1.67h7.54Zm-1-11V51h-6.37v1.44Zm0,2.56V53.51h-6.37V55Zm0,6.25v-2.5h-5.74v2.5Zm7.51.26a2,2,0,0,1-.36,1.24,1.57,1.57,0,0,1-1.13.6c-.57,0-1.15.05-1.73.05h-.79l-.38-1.19c.86,0,1.78,0,2.76,0a.56.56,0,0,0,.44-.28.91.91,0,0,0,.18-.53V44.17h1Zm-3.34-2.17h-1V45.2h1Z"/><path class="cls-30" d="M545.92,57.16a18.88,18.88,0,0,1-2.25,4.52L542.8,61A18.33,18.33,0,0,0,545,56.65ZM552,55.4h-4v8.09h-1V55.4h-4.05V54.34H547V52.18h-3.83v-1.1h2.43a20.28,20.28,0,0,0-1-3.27l.7-.53h-2V46.14h3.65a8.12,8.12,0,0,0-.83-1.59l.95-.46a12.59,12.59,0,0,1,1,2h3.47v1.14H550l.74.51a34,34,0,0,1-1.23,3.29h2.3v1.1H548v2.16h4Zm-2.33-8.12h-4.12a27.35,27.35,0,0,1,1.13,3.8h1.67A21.65,21.65,0,0,0,549.65,47.28Zm1.74,12.34-.92.62a23.74,23.74,0,0,0-1.37-3.12l.83-.53A19.31,19.31,0,0,1,551.39,59.62Zm8.7-7.23H558V63.51h-1V52.39h-3q0,7.38-2.52,11.18l-.83-.71a15.82,15.82,0,0,0,1.84-4.34,25.64,25.64,0,0,0,.54-5.86v-6.6a18.06,18.06,0,0,0,6.1-1.89l.78.91A20.69,20.69,0,0,1,554,47v4.3h6.09Z"/><path class="cls-30" d="M527.87,82.81a21.66,21.66,0,0,1-2.36,5.59l-1-.54a21.6,21.6,0,0,0,2.29-5.39Zm12.3-2H526.54V71.24h13.63Zm-7.34-5.44V72.32h-5.24v3.09Zm0,4.33V76.5h-5.24v3.24ZM538.22,86a8.66,8.66,0,0,1-.55,2.85,1.41,1.41,0,0,1-.87.78,19.06,19.06,0,0,1-2.9.12c-1.62,0-2.59,0-2.92-.08a1.32,1.32,0,0,1-.83-.52,1.89,1.89,0,0,1-.33-1.15V82.22h1V87.9a.67.67,0,0,0,.4.7,12.43,12.43,0,0,0,2.67.15,15.79,15.79,0,0,0,2.59-.11c.23-.08.41-.48.53-1.2a11.21,11.21,0,0,0,.18-1.77ZM535.5,85l-.91.57a24.88,24.88,0,0,0-2.16-3.44l.89-.55A15.21,15.21,0,0,1,535.5,85Zm3.59-9.54V72.32h-5.22v3.09Zm0,4.35V76.52h-5.22v3.24Zm3,7.78-.84.65a29,29,0,0,0-3.29-5.25l1-.53A26.37,26.37,0,0,1,542.07,87.54Z"/><path class="cls-30" d="M545.14,84.77A17.87,17.87,0,0,1,544,90l-.93-.47a18.49,18.49,0,0,0,1.11-4.91Zm5.06-1.46-1,.4-.3-1.32a46.74,46.74,0,0,1-5.45,1.54l-.28-1A31.2,31.2,0,0,0,547,77.59a23,23,0,0,1-3.55.74l-.34-1a55.9,55.9,0,0,0,3.63-6.73l1,.47a50.71,50.71,0,0,1-3.27,6,22.48,22.48,0,0,0,3.32-.78q.6-1.05,1.38-2.61l.91.57a50.06,50.06,0,0,1-5.22,8.29,32.68,32.68,0,0,0,3.82-1.14L548.11,80l.9-.4A19.89,19.89,0,0,1,550.2,83.31Zm-2.5,5.89-1,.19a19.75,19.75,0,0,0-.5-4.48l.95-.21A17.49,17.49,0,0,1,547.7,89.2Zm2.72-1-.91.37a16.54,16.54,0,0,0-1.06-3.84l.94-.31A19.42,19.42,0,0,1,550.42,88.17Zm9.92.44h-7.86v1.25h-1V77.43c-.12.23-.5.82-1.13,1.76l-.85-.63a28.79,28.79,0,0,0,3.63-8l.93.32a32.9,32.9,0,0,1-1.33,3.81h3.53a20.42,20.42,0,0,0-1.17-3.52l.89-.36a20.76,20.76,0,0,1,1.27,3.88h2.89v1.08h-3.39v2.91h3v1.1h-3V83h3v1.11h-3v3.43h3.62Zm-4.64-9.92V75.78h-3.22v2.91Zm0,4.29V79.79h-3.22V83Zm0,4.54V84.09h-3.22v3.43Z"/><path class="cls-5" d="M1450.7,29.4A47.44,47.44,0,1,0,1411.19,114c4.45,1.11,8.32,1.35,12.68,3.13,13.15,5.36,13,19.89-12.69,40.16,44-17.87,68.8-65.56,57.78-101.61A51.05,51.05,0,0,0,1450.7,29.4Z"/><path class="cls-31" d="M1452.48,29.19A47.34,47.34,0,1,0,1413,113.32c4.45,1.11,8.57,1.21,12.72,3.42,12.91,6.88,11.12,22.94-14.55,40.51,44-17.87,70.58-65.77,59.56-101.82a51,51,0,0,0-18.26-26.24Z"/><path class="cls-32" d="M1386.45,56.65A41,41,0,1,1,1421,103.29a41,41,0,0,1-34.56-46.64Z"/><path class="cls-33" d="M1386.37,56.92a41,41,0,1,1,34.51,46.56,41,41,0,0,1-34.51-46.56Z"/><path class="cls-34" d="M1386.29,57.19a40.91,40.91,0,1,1,34.45,46.47,40.91,40.91,0,0,1-34.45-46.47Z"/><path class="cls-35" d="M1386.22,57.46a40.83,40.83,0,1,1,34.38,46.39,40.83,40.83,0,0,1-34.38-46.39Z"/><path class="cls-36" d="M1386.14,57.72A40.76,40.76,0,1,1,1420.47,104a40.76,40.76,0,0,1-34.33-46.31Z"/><path class="cls-37" d="M1386.07,58a40.69,40.69,0,1,1,34.26,46.23A40.68,40.68,0,0,1,1386.07,58Z"/><path class="cls-38" d="M1386,58.26a40.62,40.62,0,1,1,34.2,46.15A40.61,40.61,0,0,1,1386,58.26Z"/><path class="cls-39" d="M1385.92,58.53a40.54,40.54,0,1,1,34.14,46.06,40.54,40.54,0,0,1-34.14-46.06Z"/><path class="cls-40" d="M1385.84,58.8a40.47,40.47,0,1,1,34.08,46,40.47,40.47,0,0,1-34.08-46Z"/><path class="cls-41" d="M1385.77,59.06a40.39,40.39,0,1,1,34,45.9,40.38,40.38,0,0,1-34-45.9Z"/><path class="cls-42" d="M1385.69,59.33a40.32,40.32,0,1,1,34,45.82,40.32,40.32,0,0,1-34-45.82Z"/><path class="cls-43" d="M1385.62,59.6a40.25,40.25,0,1,1,33.89,45.73,40.24,40.24,0,0,1-33.89-45.73Z"/><path class="cls-44" d="M1385.54,59.87a40.18,40.18,0,1,1,33.83,45.65,40.17,40.17,0,0,1-33.83-45.65Z"/><path class="cls-45" d="M1385.46,60.14a40.11,40.11,0,1,1,33.77,45.56,40.11,40.11,0,0,1-33.77-45.56Z"/><path class="cls-46" d="M1385.39,60.4a40,40,0,1,1,33.71,45.49,40,40,0,0,1-33.71-45.49Z"/><path class="cls-47" d="M1385.31,60.67a40,40,0,1,1,33.65,45.4,40,40,0,0,1-33.65-45.4Z"/><path class="cls-48" d="M1385.24,60.94a39.88,39.88,0,1,1,33.58,45.32,39.88,39.88,0,0,1-33.58-45.32Z"/><path class="cls-49" d="M1385.16,61.21a39.81,39.81,0,1,1,33.53,45.23,39.83,39.83,0,0,1-33.53-45.23Z"/><path class="cls-50" d="M1385.09,61.48a39.74,39.74,0,1,1,33.46,45.15,39.73,39.73,0,0,1-33.46-45.15Z"/><path class="cls-51" d="M1385,61.74a39.67,39.67,0,1,1,33.4,45.08A39.67,39.67,0,0,1,1385,61.74Z"/><path class="cls-52" d="M1384.94,62a39.6,39.6,0,1,1,33.34,45,39.58,39.58,0,0,1-33.34-45Z"/><path class="cls-28" d="M1384.86,62.28a39.53,39.53,0,1,1,33.28,44.91,39.52,39.52,0,0,1-33.28-44.91Z"/><path class="cls-29" d="M1384.86,62.28a39.53,39.53,0,1,1,33.28,44.91,39.52,39.52,0,0,1-33.28-44.91Z"/><path class="cls-29" d="M1386.34,62.5a38,38,0,1,1,32,43.21,38,38,0,0,1-32-43.21Z"/><path class="cls-30" d="M1422.65,57.92c0,.69-.13,1.56-.28,2.63a6.85,6.85,0,0,1-.47,2,1.91,1.91,0,0,1-.7.68,1.85,1.85,0,0,1-.94.27h-3l-.39-1.17c.91,0,1.64.08,2.18.08a10,10,0,0,0,1.44-.07c.3-.05.53-.31.68-.77a13.28,13.28,0,0,0,.36-2.55h-7.58q-1.35,3.21-6.6,4.59l-.59-1q4.59-1,6-3.55h-6.09V57.92h6.51a6.18,6.18,0,0,0,.31-1.11h1a6.43,6.43,0,0,1-.24,1.11Zm-.47-2.37a1.62,1.62,0,0,1-.45,1.24q-.45.42-2.7.33l-.39-1.09a9.66,9.66,0,0,0,1.26.08A2.69,2.69,0,0,0,1421,56a.52.52,0,0,0,.18-.46v-.89h-5.78v1.62h-1V54.64H1409V57h-1V48.61h5.8a21.16,21.16,0,0,0-2.68-1.46l.55-.81a20.92,20.92,0,0,1,3.43,1.93,50.51,50.51,0,0,0,4.56-2.44h-12.3v-1h14.27v1q-2.69,1.58-5.09,2.78h5.64Zm-7.8-4.47V49.64H1409v1.44Zm0,2.55V52.11H1409v1.52Zm6.78-2.55V49.64h-5.78v1.44Zm0,2.55V52.11h-5.78v1.52Z"/><path class="cls-30" d="M1433.38,49.57h-1.53V63.46h-1V59.87c-1.84.61-4,1.21-6.43,1.81l-.28-1.13,1.55-.35V49.57h-1.55V48.5h4.25V45.81h-3.53V44.73h8.06v1.08h-3.48V48.5h4Zm-2.56,2.4v-2.4h-4.12V52Zm0,3.64V53.1h-4.12v2.51Zm0,3V56.72h-4.12v3.19C1428.14,59.52,1429.52,59.1,1430.82,58.66Zm10.61,3.87-.67,1a12.58,12.58,0,0,1-3.79-3.8,15.21,15.21,0,0,1-3.74,3.74l-.68-1a11.78,11.78,0,0,0,3.82-3.75,19.2,19.2,0,0,1-1.64-5.6l1-.35a18.14,18.14,0,0,0,1.25,4.79,22.13,22.13,0,0,0,1.6-8.71h-2.85a26.73,26.73,0,0,1-2,4.89l-.81-.68a27.29,27.29,0,0,0,2.87-9.1l1,.31c-.27,1.45-.51,2.59-.74,3.41h5.26v1.17h-1.66q-.23,6.38-2.05,9.85A11.37,11.37,0,0,0,1441.43,62.53Z"/><path class="cls-30" d="M1412,80.52a19.21,19.21,0,0,1-2.22,1V88a2.45,2.45,0,0,1-.34,1.3c-.22.37-.74.56-1.54.56a8,8,0,0,1-1-.06l-.32-1.07,1.58,0a.73.73,0,0,0,.6-.61V82c-.79.37-1.58.71-2.38,1l-.38-1.1c1.12-.4,2-.77,2.76-1.09V75.7h-2.52V74.54h2.52v-4h1v4h2V75.7h-2v4.62c.64-.28,1.29-.59,2-.92Zm4.5-.42a14.87,14.87,0,0,1-1,5.93,11.07,11.07,0,0,1-2.91,4l-.77-.82a10.42,10.42,0,0,0,3.56-7.84,26.35,26.35,0,0,1-3.31,3l-.67-1a34.07,34.07,0,0,0,4.13-3.68V70.53h1Zm-1.82-2.49-1,.53a27.68,27.68,0,0,0-1.82-4.5l1-.55A26.68,26.68,0,0,1,1414.71,77.61Zm8.81,8.15a5.88,5.88,0,0,1-.69,3,2,2,0,0,1-1.64.79,5.12,5.12,0,0,1-2.35-.36,1.73,1.73,0,0,1-.6-1.58V70.53h1v5.89a19.13,19.13,0,0,0,3.13-3l.76.95a34.13,34.13,0,0,1-3.89,3.58v1.86a24.75,24.75,0,0,1,4.07,3.35l-.68,1a23,23,0,0,0-3.39-3v6.59c0,.48.5.72,1.49.72a1.52,1.52,0,0,0,1.31-.48,6.46,6.46,0,0,0,.46-2.63Z"/><path class="cls-30" d="M1434.31,86.71h-4.17v3.15h-1V86.71h-4.6v-1h4.6V84h-3.68V76.62h8.32V84h-3.65v1.71h4.17ZM1429,75.32h-4V71.06h4Zm-1-1V72.15H1426v2.16Zm1.07,5.37v-2h-2.68v2Zm0,3.21V80.76h-2.68v2.13Zm3.63-3.21v-2h-2.64v2Zm0,3.21V80.76h-2.64v2.13Zm1.51-7.57h-4V71.06h4Zm-1-1V72.17h-2.09v2.14Zm8.54,11.61a11.66,11.66,0,0,1-.89,3,1.42,1.42,0,0,1-1.23.88q-1.38,0-2.29-3.89a22.68,22.68,0,0,1-3.35,3.33l-.74-.8a21.26,21.26,0,0,0,3.84-3.87,51.64,51.64,0,0,1-.55-6.57c-.37,0-1,.1-1.94.17l-.08-1.09a14.93,14.93,0,0,0,1.95-.21l0-6.32h1v6.22c.83-.06,2.16-.19,4-.4l.09,1.11-4,.38a47.25,47.25,0,0,0,.38,5.45,21,21,0,0,0,2.29-4.65l.88.53a28.78,28.78,0,0,1-3,5.65,17.41,17.41,0,0,0,.51,2.07,5.22,5.22,0,0,0,.57,1.32c.19.26.33.38.45.38a.46.46,0,0,0,.25-.08,4.19,4.19,0,0,0,.43-1.07,13.09,13.09,0,0,0,.53-2.35Zm-.69-11.27-.86.6a14.88,14.88,0,0,0-1.8-3l.81-.57A14.81,14.81,0,0,1,1441.17,74.65Z"/><path class="cls-5" d="M1972.42,29.4a47.44,47.44,0,1,0-39.5,84.56c4.45,1.11,8.31,1.35,12.68,3.13,13.14,5.36,13,19.89-12.69,40.16,44-17.87,68.8-65.56,57.77-101.61a51,51,0,0,0-18.26-26.24Z"/><path class="cls-53" d="M1974.2,29.19a47.34,47.34,0,1,0-39.46,84.13c4.44,1.11,8.56,1.21,12.72,3.42,12.9,6.88,11.12,22.94-14.55,40.51,44-17.87,70.58-65.77,59.56-101.82a51,51,0,0,0-18.27-26.24Z"/><path class="cls-54" d="M1908.17,56.65a41.05,41.05,0,1,1,34.57,46.64,41.06,41.06,0,0,1-34.57-46.64Z"/><path class="cls-55" d="M1908.1,56.92a41,41,0,1,1,34.5,46.56,41,41,0,0,1-34.5-46.56Z"/><path class="cls-56" d="M1908,57.19a40.9,40.9,0,1,1,34.45,46.47A40.91,40.91,0,0,1,1908,57.19Z"/><path class="cls-57" d="M1908,57.46a40.83,40.83,0,1,1,34.38,46.39A40.82,40.82,0,0,1,1908,57.46Z"/><path class="cls-58" d="M1907.87,57.72A40.76,40.76,0,1,1,1942.19,104a40.75,40.75,0,0,1-34.32-46.31Z"/><path class="cls-59" d="M1907.79,58a40.69,40.69,0,1,1,34.27,46.23A40.69,40.69,0,0,1,1907.79,58Z"/><path class="cls-60" d="M1907.72,58.26a40.62,40.62,0,1,1,34.2,46.15,40.61,40.61,0,0,1-34.2-46.15Z"/><path class="cls-61" d="M1907.64,58.53a40.55,40.55,0,1,1,34.14,46.06,40.55,40.55,0,0,1-34.14-46.06Z"/><path class="cls-62" d="M1907.57,58.8a40.47,40.47,0,1,1,34.08,46,40.47,40.47,0,0,1-34.08-46Z"/><path class="cls-63" d="M1907.49,59.06a40.4,40.4,0,1,1,34,45.9,40.39,40.39,0,0,1-34-45.9Z"/><path class="cls-64" d="M1907.42,59.33a40.32,40.32,0,1,1,33.95,45.82,40.31,40.31,0,0,1-33.95-45.82Z"/><path class="cls-65" d="M1907.34,59.6a40.25,40.25,0,1,1,33.89,45.73,40.24,40.24,0,0,1-33.89-45.73Z"/><path class="cls-66" d="M1907.27,59.87a40.18,40.18,0,1,1,33.83,45.65,40.16,40.16,0,0,1-33.83-45.65Z"/><path class="cls-67" d="M1907.19,60.14A40.11,40.11,0,1,1,1941,105.7a40.11,40.11,0,0,1-33.77-45.56Z"/><path class="cls-68" d="M1907.12,60.4a40,40,0,1,1,33.7,45.49,40,40,0,0,1-33.7-45.49Z"/><path class="cls-69" d="M1907,60.67a40,40,0,1,1,33.65,45.4A40,40,0,0,1,1907,60.67Z"/><path class="cls-70" d="M1907,60.94a39.89,39.89,0,1,1,33.59,45.32A39.89,39.89,0,0,1,1907,60.94Z"/><path class="cls-71" d="M1906.89,61.21a39.81,39.81,0,1,1,33.52,45.23,39.82,39.82,0,0,1-33.52-45.23Z"/><path class="cls-72" d="M1906.81,61.48a39.74,39.74,0,1,1,33.47,45.15,39.74,39.74,0,0,1-33.47-45.15Z"/><path class="cls-73" d="M1906.74,61.74a39.67,39.67,0,1,1,33.4,45.08,39.67,39.67,0,0,1-33.4-45.08Z"/><path class="cls-74" d="M1906.66,62A39.6,39.6,0,1,1,1940,107a39.6,39.6,0,0,1-33.34-45Z"/><path class="cls-28" d="M1906.59,62.28a39.52,39.52,0,1,1,33.28,44.91,39.52,39.52,0,0,1-33.28-44.91Z"/><path class="cls-75" d="M1906.59,62.28a39.52,39.52,0,1,1,33.28,44.91,39.52,39.52,0,0,1-33.28-44.91Z"/><path class="cls-29" d="M1908.06,62.5a38,38,0,1,1,32,43.21,38,38,0,0,1-32-43.21Z"/><path class="cls-30" d="M1938.46,48.72h-1.35v2.52h-3.43v1.3h3.44v3.38h-3.49a17.17,17.17,0,0,1-1,1.65H1935a4.14,4.14,0,0,0,.29-.79l1,.27a2.09,2.09,0,0,1-.14.52h2.1v1h-2.51A7.15,7.15,0,0,1,1934,61c1.13.57,2.08,1.09,2.86,1.57l-.65.82a27.66,27.66,0,0,0-3.11-1.67,10.82,10.82,0,0,1-4.71,1.67l-.37-1a11.58,11.58,0,0,0,3.93-1.15,27.28,27.28,0,0,0-2.64-1.09c.34-.41.77-.94,1.27-1.58h-2.74v-1h3.51c.41-.57.76-1.12,1.07-1.65h-3.17V52.54h3.48v-1.3h-3.48V48.72h-1.41v-1h1.41V45.38h3.48v-1.2h1v1.2h3.43V47.7h1.35Zm-5.76-1V46.34h-2.49V47.7Zm0,2.54V48.72h-2.49v1.52Zm0,4.68V53.54h-2.48v1.38Zm1.86,3.63h-2.67c-.15.21-.44.61-.87,1.17a18.43,18.43,0,0,1,1.89.77A5.58,5.58,0,0,0,1934.56,58.55Zm1.57-10.85V46.34h-2.45V47.7Zm0,2.54V48.72h-2.45v1.52Zm0,4.68V53.54h-2.45v1.38Zm8.95-6.13h-.91q-.21,6.9-2.09,10.65a11.77,11.77,0,0,0,3,3.15l-.58.91a10.89,10.89,0,0,1-3-3.12,15.91,15.91,0,0,1-3.4,3.12l-.6-.91a15.53,15.53,0,0,0,3.41-3.17,19.16,19.16,0,0,1-1.66-6.18l.93-.35a20,20,0,0,0,1.4,5.46,15,15,0,0,0,1.31-4.52,46.8,46.8,0,0,0,.41-5h-2.7a17.44,17.44,0,0,1-2.15,4.35l-.78-.65a23.37,23.37,0,0,0,3.05-8.39l.95.19a28.22,28.22,0,0,1-.76,3.41h4.26Z"/><path class="cls-30" d="M1951.56,44.59c-.25.67-.59,1.47-1,2.41l-.65,1.39v15h-1.06V50.52a29.63,29.63,0,0,1-2.19,3.34l-.66-1.09a31.52,31.52,0,0,0,4.52-8.6Zm12,18.32h-12.75V61.77h4a74.33,74.33,0,0,0-2.22-11.84l.69-.42h-2.22V48.37H1957a22.08,22.08,0,0,0-1.19-3.88l1-.38a31.52,31.52,0,0,1,1.31,4.26h5.17v1.14h-2l.63.27a82.71,82.71,0,0,1-2.35,12h4Zm-2.76-13.4h-7.15A106.15,106.15,0,0,1,1956,61.77h2.56A71.59,71.59,0,0,0,1960.84,49.51Z"/><path class="cls-30" d="M1944.18,86.45H1937V90h-1v-3.5h-7.16V80.71H1936V78.2h-6.35V72.69H1936V70.53h1v2.16h6.23V78.2H1937v2.51h7.16ZM1936,85.33V81.8h-6.17v3.53Zm0-8.2V73.81h-5.32v3.32Zm6.24,0V73.81H1937v3.32Zm.91,8.2V81.8H1937v3.53Z"/><path class="cls-30" d="M1963,88.36l-.33,1.11h-7.24q-4.71,0-6.8-2.45a16.61,16.61,0,0,1-2.38,3l-.78-.76a13,13,0,0,0,3.92-7.13h-3.35v-1q1.51-1.91,3.18-4.47h-3.49V75.49h4.68V76.6q-1,1.5-3,4.4h3.07v1.11a17.28,17.28,0,0,1-1.33,4q2,2.26,6,2.27ZM1949.83,74l-.76.79a15,15,0,0,0-2.84-3.24l.71-.79A19.56,19.56,0,0,1,1949.83,74Zm13.07,11.11h-5.18V87.5h-1V85.06h-5.2V84h5.2V82.26h-4.39V75.12h4.39V73.4h-5V72.34h5V70.6h1v1.74h5V73.4h-5v1.72h4.43v7.14h-4.43V84h5.18Zm-6.22-7V76.22h-3.37V78.1Zm0,3.11v-2h-3.37v2Zm4.46-3.11V76.22h-3.42V78.1Zm0,3.11v-2h-3.42v2Z"/><path class="cls-5" d="M1159,299.86a47.44,47.44,0,1,0,39.5-84.57c-4.44-1.11-8.31-1.35-12.67-3.13-13.15-5.36-13-19.89,12.68-40.16-44,17.88-68.8,65.56-57.77,101.61A51.06,51.06,0,0,0,1159,299.86Z"/><path class="cls-76" d="M1157.19,300.07a47.34,47.34,0,1,0,39.46-84.13c-4.44-1.12-8.56-1.21-12.72-3.43-12.9-6.88-11.12-22.94,14.55-40.51-44,17.88-70.58,65.77-59.56,101.82a51.14,51.14,0,0,0,18.27,26.25Z"/><path class="cls-77" d="M1223.22,272.6A41.05,41.05,0,1,1,1188.65,226a41.05,41.05,0,0,1,34.57,46.64Z"/><path class="cls-78" d="M1223.29,272.33a41,41,0,1,1-34.5-46.56,41,41,0,0,1,34.5,46.56Z"/><path class="cls-79" d="M1223.37,272.07a40.91,40.91,0,1,1-34.45-46.48,40.91,40.91,0,0,1,34.45,46.48Z"/><path class="cls-80" d="M1223.44,271.8a40.83,40.83,0,1,1-34.38-46.4,40.82,40.82,0,0,1,34.38,46.4Z"/><path class="cls-81" d="M1223.52,271.53a40.76,40.76,0,1,1-34.32-46.31,40.75,40.75,0,0,1,34.32,46.31Z"/><path class="cls-82" d="M1223.6,271.26A40.69,40.69,0,1,1,1189.34,225a40.68,40.68,0,0,1,34.26,46.23Z"/><path class="cls-83" d="M1223.67,271a40.61,40.61,0,1,1-34.2-46.14,40.6,40.6,0,0,1,34.2,46.14Z"/><path class="cls-84" d="M1223.75,270.72a40.54,40.54,0,1,1-34.14-46.06,40.54,40.54,0,0,1,34.14,46.06Z"/><path class="cls-85" d="M1223.82,270.46a40.47,40.47,0,1,1-34.07-46,40.45,40.45,0,0,1,34.07,46Z"/><path class="cls-86" d="M1223.9,270.19a40.4,40.4,0,1,1-34-45.9,40.38,40.38,0,0,1,34,45.9Z"/><path class="cls-87" d="M1224,269.92a40.32,40.32,0,1,1-34-45.81,40.32,40.32,0,0,1,34,45.81Z"/><path class="cls-88" d="M1224.05,269.65a40.25,40.25,0,1,1-33.89-45.73,40.25,40.25,0,0,1,33.89,45.73Z"/><path class="cls-89" d="M1224.12,269.38a40.18,40.18,0,1,1-33.83-45.65,40.17,40.17,0,0,1,33.83,45.65Z"/><path class="cls-90" d="M1224.2,269.12a40.11,40.11,0,1,1-33.77-45.57,40.1,40.1,0,0,1,33.77,45.57Z"/><path class="cls-91" d="M1224.28,268.85a40,40,0,1,1-33.71-45.49,40,40,0,0,1,33.71,45.49Z"/><path class="cls-92" d="M1224.35,268.58a40,40,0,1,1-33.65-45.4,40,40,0,0,1,33.65,45.4Z"/><path class="cls-93" d="M1224.43,268.31A39.89,39.89,0,1,1,1190.84,223a39.89,39.89,0,0,1,33.59,45.32Z"/><path class="cls-94" d="M1224.5,268A39.81,39.81,0,1,1,1191,222.81,39.8,39.8,0,0,1,1224.5,268Z"/><path class="cls-95" d="M1224.58,267.78a39.74,39.74,0,1,1-33.47-45.16,39.74,39.74,0,0,1,33.47,45.16Z"/><path class="cls-96" d="M1224.65,267.51a39.67,39.67,0,1,1-33.4-45.07,39.66,39.66,0,0,1,33.4,45.07Z"/><path class="cls-97" d="M1224.73,267.24a39.6,39.6,0,1,1-33.34-45,39.6,39.6,0,0,1,33.34,45Z"/><path class="cls-28" d="M1224.8,267a39.52,39.52,0,1,1-33.28-44.9A39.51,39.51,0,0,1,1224.8,267Z"/><path class="cls-29" d="M1224.8,267a39.52,39.52,0,1,1-33.28-44.9A39.51,39.51,0,0,1,1224.8,267Z"/><path class="cls-29" d="M1223.33,266.75a38,38,0,1,1-32-43.21,38,38,0,0,1,32,43.21Z"/><path class="cls-30" d="M1172.91,237.05c-.14.58-.38,1.39-.71,2.42l-.51,1.53v15.06h-1V243.62q-1,2-1.74,3.33l-.68-1.06a32.75,32.75,0,0,0,3.67-9.19Zm4.29,13.27a20.66,20.66,0,0,1-3.88,5l-.71-.79a21.42,21.42,0,0,0,3.77-4.92Zm8.42-2.38h-5.85v8.16h-1v-8.16h-6.07v-1.13h6.07V244.2h-4.53v-6.79h10.06v6.79h-4.5v2.61h5.85Zm-2.38-4.87v-4.63h-8v4.63Zm2.52,11.31-.73.82a28.23,28.23,0,0,0-3.82-4.92l.8-.84A32.66,32.66,0,0,1,1185.76,254.38Z"/><path class="cls-30" d="M1194.45,237.7a30.23,30.23,0,0,1-6.11,1.77v4.86c1.43-.51,2.84-1.09,4.23-1.72a8.29,8.29,0,0,0-.8-1.41l.82-.6a16.74,16.74,0,0,1,1.76,3.44l-.95.56a4.75,4.75,0,0,0-.42-1q-3.68,1.64-5.57,2.31l-.48-1a1.13,1.13,0,0,0,.4-.89v-5.53a21.5,21.5,0,0,0,6.43-1.74Zm7.26,18.38h-1v-1h-11.25v1h-1.07v-9.33h13.35Zm-7.2-5.82v-2.38h-5.08v2.38Zm0,3.72v-2.65h-5.08V254Zm8.29-16.28c0,1.67,0,3.17-.13,4.51a6.92,6.92,0,0,1-.4,2.39,2.17,2.17,0,0,1-.72.65,9.24,9.24,0,0,1-3.08.27l-.37-1.24c.49,0,.94.06,1.37.06a4.48,4.48,0,0,0,1.58-.17.83.83,0,0,0,.44-.6c.06-.29.12-.86.19-1.69s.09-1.86.07-3.06H1199a10.18,10.18,0,0,1-3.92,7l-.79-.9a8.16,8.16,0,0,0,3.59-6.12h-2.63V237.7Zm-2.12,12.56v-2.38h-5.1v2.38Zm0,3.72v-2.65h-5.1V254Z"/><path class="cls-30" d="M1172,263.39c-.14.67-.35,1.5-.62,2.49l-.41,1.38v15.21h-1.06V270.35a28.94,28.94,0,0,1-1.53,3.15l-.55-1.19a36.13,36.13,0,0,0,3.14-9.25Zm13.28,15h-2.87v2.23A2.14,2.14,0,0,1,1182,282c-.26.34-.86.52-1.81.52a7.25,7.25,0,0,1-1.14-.08l-.55-1.07q.9.09,1.56.09a2.72,2.72,0,0,0,1-.11.38.38,0,0,0,.2-.36v-2.53h-9.46v-1h9.46v-1.3h1.09v1.3h2.87Zm.06-2.54-.69.71c-.2-.3-.46-.67-.79-1.11l-11.6.69-.17-1,5.75-.33v-1.52h-4.77v-6.09h4.77v-1.52h-5.54v-1h5.54v-1.65h1v1.65h5.89v1h-5.89v1.52h5v6.09h-.7A16.2,16.2,0,0,1,1185.36,275.88Zm-7.4,5-.74.87a26.78,26.78,0,0,0-3.5-2.12l.72-.86A26,26,0,0,1,1178,280.86Zm-.1-11.08v-1.57h-3.72v1.57Zm0,2.55v-1.6h-3.72v1.6Zm5-2.55v-1.57h-3.94v1.57Zm0,2.55v-1.6h-3.94v1.6Zm.13,2.21a6.61,6.61,0,0,0-.88-.88l.36-.33h-3.55v1.43C1180.22,274.66,1181.57,274.58,1183,274.54Z"/><path class="cls-30" d="M1188.48,277.21a25.2,25.2,0,0,1-1.2,5.17l-.94-.38a22.58,22.58,0,0,0,1.17-5.06Zm4.78-1.37-.91.35a10.82,10.82,0,0,0-.32-1.28,47.28,47.28,0,0,1-5.24,1.52l-.29-1a34.27,34.27,0,0,0,3.9-5.44c-1,.24-2.21.45-3.5.64l-.26-1a24.09,24.09,0,0,0,3.27-6.48l.93.38a23.42,23.42,0,0,1-2.9,5.9,21,21,0,0,0,3.12-.63,13.88,13.88,0,0,0,.8-1.66l.91.44a34.45,34.45,0,0,1-4.55,7.43,23.48,23.48,0,0,0,3.49-1.1c-.13-.43-.3-.89-.49-1.37l.89-.42A21.9,21.9,0,0,1,1193.26,275.84Zm-2.34,5.62-1,.22a18.16,18.16,0,0,0-.64-4.5l1-.17A32.43,32.43,0,0,1,1190.92,281.46Zm2.26-1.75-.93.34a20.8,20.8,0,0,0-.79-3.13l.91-.31A20.85,20.85,0,0,1,1193.18,279.71Zm10.38-12.95h-6.08a28.08,28.08,0,0,1-2.65,5A50.12,50.12,0,0,0,1201,271a18.28,18.28,0,0,0-1.48-2.05l.88-.61a29,29,0,0,1,2.91,4.6l-.83.68a12.09,12.09,0,0,0-.91-1.64l-1.84.32v8.22q0,.48.45.48h1.41a.57.57,0,0,0,.45-.19,3.21,3.21,0,0,0,.3-1.34c.08-.77.13-1.64.14-2.61l1,.4a17.21,17.21,0,0,1-.3,3.39,1.87,1.87,0,0,1-.74,1.19,3.53,3.53,0,0,1-1.66.28,2.94,2.94,0,0,1-1.61-.31,1.37,1.37,0,0,1-.44-1.18v-8.19q-1.65.21-2,.21,0,6.64-3.69,9.81l-.69-.79a9.57,9.57,0,0,0,2.48-3.47,14.17,14.17,0,0,0,.89-5.44,18.14,18.14,0,0,1-2.18.14l-.22-1a18.8,18.8,0,0,0,3.08-5.13H1193v-1.08h3.81c.23-.56.54-1.43.93-2.6l1,.33a24.08,24.08,0,0,1-.83,2.27h5.64Z"/><path class="cls-5" d="M1467.56,299.86a47.44,47.44,0,1,0,39.5-84.57c-4.45-1.11-8.32-1.35-12.68-3.13-13.14-5.36-13-19.89,12.69-40.16-44,17.88-68.8,65.56-57.78,101.61a51.14,51.14,0,0,0,18.27,26.25Z"/><path class="cls-98" d="M1465.77,300.07a47.34,47.34,0,1,0,39.47-84.13c-4.44-1.12-8.56-1.21-12.72-3.43-12.9-6.88-11.12-22.94,14.55-40.51-44,17.88-70.58,65.77-59.56,101.82a51.12,51.12,0,0,0,18.26,26.25Z"/><path class="cls-99" d="M1531.81,272.6A41.05,41.05,0,1,1,1497.24,226a41.06,41.06,0,0,1,34.57,46.64Z"/><path class="cls-100" d="M1531.88,272.33a41,41,0,1,1-34.5-46.56,41,41,0,0,1,34.5,46.56Z"/><path class="cls-101" d="M1532,272.07a40.91,40.91,0,1,1-34.45-46.48A40.91,40.91,0,0,1,1532,272.07Z"/><path class="cls-102" d="M1532,271.8a40.83,40.83,0,1,1-34.38-46.4A40.82,40.82,0,0,1,1532,271.8Z"/><path class="cls-103" d="M1532.11,271.53a40.76,40.76,0,1,1-34.32-46.31,40.75,40.75,0,0,1,34.32,46.31Z"/><path class="cls-104" d="M1532.18,271.26A40.69,40.69,0,1,1,1497.92,225a40.67,40.67,0,0,1,34.26,46.23Z"/><path class="cls-105" d="M1532.26,271a40.62,40.62,0,1,1-34.2-46.14,40.61,40.61,0,0,1,34.2,46.14Z"/><path class="cls-106" d="M1532.34,270.72a40.55,40.55,0,1,1-34.14-46.06,40.54,40.54,0,0,1,34.14,46.06Z"/><path class="cls-107" d="M1532.41,270.46a40.47,40.47,0,1,1-34.08-46,40.46,40.46,0,0,1,34.08,46Z"/><path class="cls-108" d="M1532.49,270.19a40.4,40.4,0,1,1-34-45.9,40.38,40.38,0,0,1,34,45.9Z"/><path class="cls-109" d="M1532.56,269.92a40.32,40.32,0,1,1-34-45.81,40.32,40.32,0,0,1,34,45.81Z"/><path class="cls-110" d="M1532.64,269.65a40.25,40.25,0,1,1-33.9-45.73,40.25,40.25,0,0,1,33.9,45.73Z"/><path class="cls-111" d="M1532.71,269.38a40.18,40.18,0,1,1-33.83-45.65,40.17,40.17,0,0,1,33.83,45.65Z"/><path class="cls-112" d="M1532.79,269.12A40.11,40.11,0,1,1,1499,223.55a40.1,40.1,0,0,1,33.77,45.57Z"/><path class="cls-113" d="M1532.86,268.85a40,40,0,1,1-33.71-45.49,40,40,0,0,1,33.71,45.49Z"/><path class="cls-114" d="M1532.94,268.58a40,40,0,1,1-33.65-45.4,40,40,0,0,1,33.65,45.4Z"/><path class="cls-115" d="M1533,268.31A39.88,39.88,0,1,1,1499.43,223,39.88,39.88,0,0,1,1533,268.31Z"/><path class="cls-116" d="M1533.09,268a39.81,39.81,0,1,1-33.53-45.23A39.81,39.81,0,0,1,1533.09,268Z"/><path class="cls-117" d="M1533.17,267.78a39.74,39.74,0,1,1-33.47-45.16,39.74,39.74,0,0,1,33.47,45.16Z"/><path class="cls-118" d="M1533.24,267.51a39.67,39.67,0,1,1-33.4-45.07,39.67,39.67,0,0,1,33.4,45.07Z"/><path class="cls-119" d="M1533.32,267.24a39.6,39.6,0,1,1-33.34-45,39.6,39.6,0,0,1,33.34,45Z"/><path class="cls-28" d="M1533.39,267a39.52,39.52,0,1,1-33.28-44.9,39.51,39.51,0,0,1,33.28,44.9Z"/><path class="cls-29" d="M1533.39,267a39.52,39.52,0,1,1-33.28-44.9,39.51,39.51,0,0,1,33.28,44.9Z"/><path class="cls-29" d="M1531.92,266.75a38,38,0,1,1-32-43.21,38,38,0,0,1,32,43.21Z"/><path class="cls-30" d="M1482.41,240.08h-5.86V239h2.54a9.07,9.07,0,0,0-.81-2.07l.93-.4a13,13,0,0,1,1,2.47h2.21Zm-.42,3.21h-5v-1.15h5Zm0,3.14h-5v-1.11h5Zm-.32,8.94h-1v-1.2h-2.53v1.72h-1v-7.38h4.54Zm-1-2.27v-3.46h-2.53v3.46Zm13.1-1.43a13.46,13.46,0,0,1-.61,3.14c-.28.75-.68,1.13-1.2,1.13-.94,0-1.65-1.27-2.14-3.81a19.55,19.55,0,0,1-2.92,3.28l-.69-.88a17.41,17.41,0,0,0,3.35-3.85c-.36-2.91-.6-6-.71-9.38h-4.39v2.78h3.2c0,2.1,0,3.78,0,5a13.06,13.06,0,0,1-.15,2.31,1.24,1.24,0,0,1-.49.7,2.21,2.21,0,0,1-1.24.27,3.57,3.57,0,0,1-.65-.06l-.24-1.12c.19,0,.59,0,1.21,0,.32,0,.5-.29.54-.88s.06-2.31,0-5.2h-2.21a37.49,37.49,0,0,1-1.18,10.62l-1-.51a35.42,35.42,0,0,0,1.17-9.92v-5.15h5.36c0-.61,0-1.74,0-3.42h1l0,3.42h3.94v1.09h-3.89a69.05,69.05,0,0,0,.56,7.72,29.88,29.88,0,0,0,2-5.68l.93.59a31.94,31.94,0,0,1-2.7,6.92,14.46,14.46,0,0,0,.56,2.57,6.29,6.29,0,0,0,.43,1.1.33.33,0,0,0,.27.14.32.32,0,0,0,.27-.14,5.12,5.12,0,0,0,.32-1.26c.15-.76.25-1.47.32-2.14Zm-.54-12.45-.92.61a10.07,10.07,0,0,0-1.25-2.18l.76-.57A8.79,8.79,0,0,1,1493.21,239.22Z"/><path class="cls-30" d="M1498.49,244a46.65,46.65,0,0,1-2.78,9.48l-1-.76a33.4,33.4,0,0,0,2.67-9.09Zm9.78,5.69a32.18,32.18,0,0,1-.35,3.48,4.94,4.94,0,0,1-.52,1.81,1.49,1.49,0,0,1-.81.58,9.78,9.78,0,0,1-2.35.17c-.92,0-1.68,0-2.29-.07a2,2,0,0,1-1.32-.49,1.63,1.63,0,0,1-.4-1.19V241.79h1.07v11.9a.94.94,0,0,0,.17.54.69.69,0,0,0,.33.28,13.6,13.6,0,0,0,1.49.05h2.58a.87.87,0,0,0,.6-.28,4.1,4.1,0,0,0,.49-1.92,22.13,22.13,0,0,0,.17-3.06Zm-1.85-7.1-.89.79a23.9,23.9,0,0,0-4.47-6l.82-.82A28.42,28.42,0,0,1,1506.42,242.63Zm5.69,9.61-1.11.44a35.88,35.88,0,0,0-3-8.37l1-.64A53.21,53.21,0,0,1,1512.11,252.24Z"/><path class="cls-30" d="M1493.46,274a40.17,40.17,0,0,1-.21,4.15,15.93,15.93,0,0,1-.41,2.62,2.72,2.72,0,0,1-.59,1,2.26,2.26,0,0,1-1,.6,8.13,8.13,0,0,1-2.09.19l-.4-1.26c.3,0,.91.05,1.84.05a1.36,1.36,0,0,0,.83-.25,1.26,1.26,0,0,0,.5-.67,13.59,13.59,0,0,0,.32-1.84c.11-.93.19-2.08.22-3.46h-12.18a25.82,25.82,0,0,1-3.11,3.42l-.6-1.08a19,19,0,0,0,6-9.94h-5.28v-1.15h5.51c.3-1.46.49-2.56.58-3.3l1,.24q-.15,1.21-.51,3.06h7.3c-.19,1.24-.43,2.52-.7,3.84h2a36.88,36.88,0,0,1-.6,3.79Zm-12-8.62-.91.62a16.61,16.61,0,0,0-1.67-2.27l.89-.62A15,15,0,0,1,1481.42,265.37Zm.51,11.46a22.27,22.27,0,0,1-2.12,5.32l-1-.57a21.59,21.59,0,0,0,2.14-5Zm9.31-5.51h-8.83A22.16,22.16,0,0,1,1481,274h9.8C1491,273,1491.13,272.11,1491.24,271.32Zm-1.27-3.81h-6.31a23.65,23.65,0,0,1-.82,2.69h6.59C1489.6,269.43,1489.78,268.54,1490,267.51Zm-5.16,14.32-1.1.23a23.19,23.19,0,0,0-.51-5.27l1-.24A37.88,37.88,0,0,1,1484.81,281.83Zm3.16-1.16-1,.41a22.79,22.79,0,0,0-1.09-4.34l1-.35A34.79,34.79,0,0,1,1488,280.67Zm2.83-1.21-.94.48a18.87,18.87,0,0,0-1.3-3.37l.89-.48A21.09,21.09,0,0,1,1490.8,279.46Z"/><path class="cls-30" d="M1512.14,278.28l-.72.93a23.17,23.17,0,0,1-7.4-11.15v9.42h4.32v1.14H1504v3.94h-1.1v-3.94h-4.42v-1.14h4.42v-9.42a26.44,26.44,0,0,1-3,6.19,23.39,23.39,0,0,1-4.64,4.89l-.67-1a20.62,20.62,0,0,0,7.15-10.11h-6.68v-1.14h7.83v-3.78h1.1v3.78h7.61v1.14h-6.46A20.78,20.78,0,0,0,1512.14,278.28Z"/><path class="cls-120" d="M1935.3,162.05a3.68,3.68,0,1,1-3.68-3.68,3.68,3.68,0,0,1,3.68,3.68Z"/><path class="cls-120" d="M1511.15,162.05a3.68,3.68,0,1,1-3.68-3.68,3.68,3.68,0,0,1,3.68,3.68Z"/><path class="cls-120" d="M1416,162.05a3.68,3.68,0,1,1-3.68-3.68,3.68,3.68,0,0,1,3.68,3.68Z"/><path class="cls-120" d="M1203.19,162.05a3.68,3.68,0,1,1-3.68-3.68,3.68,3.68,0,0,1,3.68,3.68Z"/><path class="cls-120" d="M531.41,162.05a3.68,3.68,0,1,1-3.68-3.68,3.68,3.68,0,0,1,3.68,3.68Z"/><path class="cls-30" d="M812.35,254.71H809.6v1.08h-1.12v-1.08h-5.37v-.9h5.37v-1.19h1.12v1.19h2.75Zm10.27,17.08H803.11v-.88h19.51Zm-.2-7.41H803.51v-.92h18.91Zm-.27-7.09H803.53v-.86h18.62Zm-2,5.19H805.59v-4.22h14.58Zm0,7.36H805.59v-4.43h14.58ZM812.33,260v-.92h-5.65V260Zm0,1.74v-.93h-5.65v.93Zm0,5.46v-.92h-5.65v.92Zm0,1.79v-1h-5.65v1Zm10.27-14.27h-5.22v1.08h-1.15v-1.08h-2.87v-.9h2.87v-1.19h1.15v1.19h5.22ZM819.06,260v-.92h-5.62V260Zm0,1.74v-.93h-5.62v.93Zm0,5.43v-.89h-5.62v.89Zm0,1.82v-1h-5.62v1Z"/><path class="cls-30" d="M845.27,270.85l-.4,1.11h-7.41a12.32,12.32,0,0,1-4.69-.76,8.74,8.74,0,0,1-3.27-2.48,17.88,17.88,0,0,1-3.24,3.5l-.88-.86a13.13,13.13,0,0,0,4.81-6.85l1.15.29a11.68,11.68,0,0,1-1.21,2.89,7.25,7.25,0,0,0,4.92,3v-7.14h-9.51v-1.13h19.58v1.13h-8.9v2.87h7.66v1.12h-7.66v3.24c.66,0,1.4.07,2.22.07Zm-3-10.2H828.47v-7.46h13.81ZM841,256.28v-2H829.68v2Zm0,3.26v-2.08H829.68v2.08Z"/><path class="cls-30" d="M867.59,261h-6.78a38.87,38.87,0,0,1-5.92,3.71v.73h8.84v1.14h-8.84v3.47a.73.73,0,0,0,.3.6,1,1,0,0,0,.69.24h8a1.65,1.65,0,0,0,1-.42c.36-.27.6-1.29.72-3l1.14.71a7.32,7.32,0,0,1-.94,3.19,2.73,2.73,0,0,1-2.21.73h-7.95a1.75,1.75,0,0,1-1.4-.58,2.15,2.15,0,0,1-.51-1.48v-4.73q-2.41,1.14-5.13,2.21l-.6-1.14A45.75,45.75,0,0,0,858.82,261H848.06v-1.16h7.87v-3.26h-6.36v-1.22h6.36v-2.7h1.19v2.7h5.48v1.22h-5.48v3.26h3.3a32.15,32.15,0,0,0,5.37-5.89l1,.74a57,57,0,0,1-4.6,5.15h5.39Z"/><path class="cls-30" d="M878.27,271.86h-1.13v-1.94h-4.85v2.39h-1.14V256.37h2.08a21.14,21.14,0,0,0,1.6-3.86l1.12.23a39.14,39.14,0,0,1-1.52,3.63h3.84Zm-1.13-9.53V257.5h-4.85v4.83Zm0,6.45v-5.32h-4.85v5.32Zm12.39-12.39q-.13,5.06-.49,9.39a23.53,23.53,0,0,1-.72,5.1,2.32,2.32,0,0,1-.93,1.09,4.73,4.73,0,0,1-2.14.32l-1.81,0-.36-1.14q.92,0,2,0c.67,0,1.09,0,1.28,0a1.06,1.06,0,0,0,.59-.28,1.51,1.51,0,0,0,.44-.6,19.64,19.64,0,0,0,.35-2.59c.14-1.49.26-3.13.36-4.93s.16-3.54.21-5.23h-5.86a31.16,31.16,0,0,1-2.72,4.45l-.93-.65a24,24,0,0,0,4.19-8.64l1.14.3c-.37,1.2-.78,2.34-1.23,3.43Zm-4.14,10.08-.94.67a23.87,23.87,0,0,0-3.26-5.24l1-.62A21.82,21.82,0,0,1,885.39,266.47Z"/><path class="cls-30" d="M901.51,262.29h-3.68v2.87H901v1.08H897.7a8.78,8.78,0,0,1-3.07,6l-.83-.88a7.29,7.29,0,0,0,2.76-5.14h-3.21v-1.08h3.3v-2.87H893v-1.1h2.33a36.41,36.41,0,0,0-1.09-4l.85-.65h-1.8v-1.09H897a12.54,12.54,0,0,0-.88-2.62l1.06-.43a19.33,19.33,0,0,1,1,3.05h3.06v1.09h-1.54l.75.62a29,29,0,0,1-1.22,4h2.33Zm-2.16-5.73h-4.11a33.31,33.31,0,0,1,1.26,4.63H898A32.28,32.28,0,0,0,899.35,256.56Zm13.26,13.12-.67.95a14.55,14.55,0,0,1-4.57-5.9v7.49H906.3v-7.37a13.91,13.91,0,0,1-5.49,5.84l-.62-.92a13.27,13.27,0,0,0,5.08-5.37h-3v-5.93h4v-2.32h-4.07v-1.1h4.07v-2.39h1.07v2.39h5v1.1h-5v2.3h4v5.95h-3A13.72,13.72,0,0,0,912.61,269.68Zm-6.31-6.36v-3.8h-2.88v3.8Zm4,0v-3.8h-2.92v3.8Z"/><path class="cls-30" d="M924.89,264.56a1.26,1.26,0,0,1-.81-1.09,1,1,0,0,1,.27-.65,1,1,0,0,1,.78-.34c.7,0,1,.47,1,1.39a2.89,2.89,0,0,1-1.32,2.18l-.48-.36A2,2,0,0,0,924.89,264.56Z"/><path class="cls-30" d="M946.7,256.13h-8.79V255H942a18,18,0,0,0-1-2l1-.51A14.31,14.31,0,0,1,943.2,255h3.5Zm-.76,3.33h-7.19v-1.15h7.19Zm0,3.12h-7.19v-1.11h7.19Zm-.16,9.38h-1.16v-1.35h-4.46v1.72H939v-7.51h6.83Zm-1.16-2.49V266h-4.46v3.5Zm12.85-2.12a13.18,13.18,0,0,1-.35,3.39,1.66,1.66,0,0,1-1,1,13.07,13.07,0,0,1-3.45.27,18.57,18.57,0,0,1-3.61-.18,1.53,1.53,0,0,1-.78-.63,1.77,1.77,0,0,1-.26-.91v-9.89h7.44V254.8h-7.91v-1.16h9.07v8h-7.44v8.56a.6.6,0,0,0,.34.58,12.18,12.18,0,0,0,2.71.15,28.05,28.05,0,0,0,3.21-.1c.41-.07.66-.45.74-1.13a21.13,21.13,0,0,0,.1-2.89Z"/><path class="cls-30" d="M971,254.11h-1.84v18.27H968v-4.61a65.35,65.35,0,0,1-7.23,2l-.43-1.1,2-.4V254.11h-2V253H971Zm-3,3.48v-3.48h-4.44v3.48Zm0,4.76v-3.59h-4.44v3.59Zm0,4.23V263.5h-4.44v4.43Q965.4,267.45,968,266.58Zm12,4.86-.79.92a25.8,25.8,0,0,1-4-4.09,23.1,23.1,0,0,1-4.33,4.11l-.79-.85a22.86,22.86,0,0,0,4.4-4.25,25.49,25.49,0,0,1-3.33-11.22h-.71v-1.15h8.65a23.78,23.78,0,0,1-3.17,12.28,11.39,11.39,0,0,0,1.77,2.2A17.31,17.31,0,0,0,980,271.44Zm-2.07-15.38h-5.51a21.88,21.88,0,0,0,2.83,10.09A22.63,22.63,0,0,0,977.88,256.06Z"/><path class="cls-30" d="M992.15,270.82a1.48,1.48,0,0,1-.38,1,1.44,1.44,0,0,1-1.07.43q-.68,0-1.44,0c-.41,0-.8,0-1.16,0l-.42-1.2c.58.06,1.52.08,2.81.08a.43.43,0,0,0,.34-.17.61.61,0,0,0,.16-.38v-3.26h-5.11a12,12,0,0,1-2.16,5.12l-.9-.81c1.43-1.87,2.14-4.58,2.14-8.11v-5h7.19Zm10.21-14.2H982.84V255.5h19.52ZM991,266.24v-2.76h-4.87c0,.58,0,1.5-.13,2.76Zm0-3.93v-2.58h-4.87v2.58Zm0-7.62-1.13.47a13.64,13.64,0,0,0-2.25-2.07l1.24-.49A14.21,14.21,0,0,1,991,254.69Zm6.87-1.54a10.3,10.3,0,0,1-2.2,2l-1.2-.61a12.58,12.58,0,0,0,2.36-1.93Zm-1.68,15.4h-1.13v-9.63h1.13Zm4.44,2.12a1.72,1.72,0,0,1-.3,1,1.28,1.28,0,0,1-.75.51,10.16,10.16,0,0,1-1.73.1c-.49,0-1,0-1.58-.05l-.42-1.23,3.08.11c.37,0,.56-.19.56-.64V258.38h1.14Z"/><path class="cls-30" d="M1024.87,260.4h-7.46a29.88,29.88,0,0,1-3.84,2.63h8.71v9.25h-1.16v-1.16h-10.07v1.16h-1.17v-7.46a38.18,38.18,0,0,1-3.88,1.42l-.66-1.06a33.31,33.31,0,0,0,10.16-4.78h-10.1v-1.12h8.39v-3.22h-6.29v-1.13h6.29v-2.38h1.2v2.38h4.54v1.13H1015v3.22h2a46.17,46.17,0,0,0,5.57-5.72l.88.7a45.37,45.37,0,0,1-4.7,5h6.11Zm-3.75,6.13v-2.38h-9.73l-.34.13v2.25Zm0,3.44v-2.31h-10.07V270Z"/><path class="cls-30" d="M1035.55,267.37c-1,1.27-2,2.41-2.92,3.41l-.63-1.23a1.16,1.16,0,0,0,.45-.9V262h-1.62q0,6.8-2.14,10.14l-.83-.83q1.82-3.3,1.82-9.31h-1.87v-1.07h3.33v-8.22h1.17v8.22h3.15V262h-1.86v5.92c.37-.43.92-1.09,1.63-2Zm-5.25-8.5-1.09.56a37.87,37.87,0,0,0-1.21-5l1-.45A36.52,36.52,0,0,1,1030.3,258.87Zm5-4.36a28.26,28.26,0,0,1-1.06,4.84l-1-.48a23.86,23.86,0,0,0,1-4.78Zm12.11,15.06h-5.3v2.84h-1.13v-2.84h-5.43v-1.06h5.43v-1.82h-4.4v-7.17h4.4v-1.66h-2.85v-1h2.85v-1.48h1.13v1.48H1045v1h-2.92v1.66h4.45v7.17h-4.45v1.82h5.3Zm-.3-12.18h-1.16v-3h-8.7v3h-1.12V253.3h11Zm-6.13,5.09v-1.91h-3.28v1.91Zm0,3.15v-2.08h-3.28v2.08Zm4.46-3.15v-1.91h-3.33v1.91Zm0,3.15v-2.08h-3.33v2.08Z"/><path class="cls-30" d="M1053,262.26l-1.14.65a20.88,20.88,0,0,0-1.61-5.5l1-.68A37,37,0,0,1,1053,262.26Zm4.63-5.55a24.33,24.33,0,0,1-2.86,4.52c0,1.52-.08,2.66-.16,3.42a16.44,16.44,0,0,1,2.57,3.71l-.84.81a16.94,16.94,0,0,0-1.88-3.09,13.16,13.16,0,0,1-3.08,6.16l-1-.67a13.19,13.19,0,0,0,2.24-3.34,10.66,10.66,0,0,0,.9-3.38c.11-1.15.17-3,.17-5.46v-6.77h1.1v6.92a18.21,18.21,0,0,0,1.91-3.66Zm12.27,15.08h-12.93v-1.1h6V268h-4.87v-1.1h4.87v-2.36h-5.39v-1.1h11.87v1.1h-5.3v2.36h4.76V268h-4.76v2.65h5.77Zm-1.12-10.06h-10.46v-7h3.38a11,11,0,0,0,.85-2.27l1.13.31a14.55,14.55,0,0,1-.86,2h6Zm-1.15-4.12v-1.75h-8.16v1.75Zm0,3v-1.89h-8.16v1.89Z"/><path class="cls-30" d="M1075.25,267a21.53,21.53,0,0,1-1.48,5.13l-1-.52a26.13,26.13,0,0,0,1.44-4.86Zm5.27-1.63-1,.39c-.08-.42-.16-.77-.23-1-2.21.61-4.22,1.09-6,1.42l-.41-1a24.49,24.49,0,0,0,4.48-5.39c-1.25.24-2.58.45-4,.65l-.26-1a21.94,21.94,0,0,0,3.91-6.73l1.11.3a26.27,26.27,0,0,1-3.36,6.18c.93-.11,2-.29,3.3-.52a21.86,21.86,0,0,0,1.45-2.6l1.1.43a38.94,38.94,0,0,1-5.67,8.22c1.31-.26,2.65-.58,4-1a8.49,8.49,0,0,0-.65-1.57l1-.4A14.93,14.93,0,0,1,1080.52,265.33Zm-2.52,6.13-1.1.22a24.62,24.62,0,0,0-.43-4.72l1-.2A18.55,18.55,0,0,1,1078,271.46Zm3-1.82-1,.38a18.32,18.32,0,0,0-1-3.19l.94-.38A15,15,0,0,1,1081,269.64Zm3.24-6-1,.47a27.67,27.67,0,0,0-2.81-4.38,31,31,0,0,0,2.49-4.14l1,.41a22.93,22.93,0,0,1-2.21,3.73A24.29,24.29,0,0,1,1084.28,263.64Zm8,8.17h-11.6v-1.12h5.19v-4.58h-4.57V265h10.42v1.15h-4.65v4.58h5.21Zm-.27-17.44h-11.31v-1.12h11.31Zm-3.78,9.13-1,.56a28.88,28.88,0,0,0-2.72-4.24,25.58,25.58,0,0,0,2.37-4l1.14.36a29.47,29.47,0,0,1-2.22,3.65A33.93,33.93,0,0,1,1088.27,263.5Zm4,.05-1,.54a27.45,27.45,0,0,0-2.77-4.21,27.86,27.86,0,0,0,2.43-4.16l1.09.41a33.28,33.28,0,0,1-2.15,3.67A34.06,34.06,0,0,1,1092.26,263.55Z"/><path class="cls-30" d="M1096.84,265.37a32.82,32.82,0,0,1-.61,5.45l-1.06-.24a28.15,28.15,0,0,0,.71-5.31Zm6.5-11h-2.55v2.16h2.12v1.06h-2.12v2.1h2.12v1.11h-2.12V263h2.12c0,1.25,0,2.26,0,3,0,1.59,0,2.86-.14,3.82a4.1,4.1,0,0,1-.48,1.86,1.53,1.53,0,0,1-.85.55,9.47,9.47,0,0,1-1.85.12l-.34-1.15c.28,0,.73,0,1.35,0a1,1,0,0,0,1-.61,17.41,17.41,0,0,0,.28-4.38c0-.81,0-1.54-.05-2.17h-5.52V253.23h7Zm-4.95,16.21-.92.13c0-.7,0-1.39,0-2.05,0-1.17,0-2.22-.13-3.14l.86-.13q.18,3.15.18,4Q1098.42,270,1098.39,270.54Zm1.26-14.07v-2.14h-2.18v2.14Zm0,3.18v-2.08h-2.18v2.08Zm0,3.34v-2.23h-2.18V263Zm.47,6.65-.9.13a24.48,24.48,0,0,0-.47-4.38l.84-.18A34.33,34.33,0,0,1,1100.12,269.64Zm1.4-1.2-.77.19a29.47,29.47,0,0,0-.67-3.51l.71-.18A27.27,27.27,0,0,1,1101.52,268.44Zm13.36-10.38-.58,1a15.62,15.62,0,0,1-5.44-4.77,20.19,20.19,0,0,1-5.1,4.68l-.7-.94a16.68,16.68,0,0,0,5.54-5.45l1.14.36c0,.11-.11.25-.2.41A15.5,15.5,0,0,0,1114.88,258.06Zm-6.24,12.16-.81.83a12.41,12.41,0,0,0-1.66-1.9,17,17,0,0,1-2.12,3.18l-.92-.63a15.37,15.37,0,0,0,3-5.51l1.07.37c-.22.64-.41,1.15-.56,1.52A19,19,0,0,1,1108.64,270.22Zm-.3-4.56h-4.29v-5.35h4.29Zm-1.07-1.06v-3.23h-2.16v3.23Zm4.54-5.87h-6v-1.07h6Zm3,12.8-.83.78a16,16,0,0,0-2.73-2.86,17.26,17.26,0,0,1-2.06,3l-.92-.7a15.35,15.35,0,0,0,3.13-5.64l1.1.38c-.22.62-.48,1.27-.78,1.93A19.89,19.89,0,0,1,1114.86,271.53Zm-1-5.87h-4.33v-5.35h4.33Zm-1-1.06v-3.23h-2.23v3.23Z"/><path class="cls-30" d="M1572.14,260.1a43.59,43.59,0,0,1-3.15,9.67l-1.1-.77a31,31,0,0,0,3-9.27Zm11.08,5.81a28,28,0,0,1-.39,3.55,4.83,4.83,0,0,1-.59,1.85,1.79,1.79,0,0,1-.91.59,12.94,12.94,0,0,1-2.67.16c-1,0-1.91,0-2.6-.07a2.37,2.37,0,0,1-1.49-.49,1.58,1.58,0,0,1-.45-1.21V257.81h1.21V270a.94.94,0,0,0,.19.55.7.7,0,0,0,.37.28,16,16,0,0,0,1.69.06h2.92a1,1,0,0,0,.68-.29,3.79,3.79,0,0,0,.56-2,21.71,21.71,0,0,0,.2-3.12Zm-2.09-7.25-1,.82a24.71,24.71,0,0,0-5.06-6.12l.92-.83A29.64,29.64,0,0,1,1581.13,258.66Zm6.45,9.8-1.26.45a33.9,33.9,0,0,0-3.46-8.53l1.1-.65A50.9,50.9,0,0,1,1587.58,268.46Z"/><path class="cls-30" d="M1610.21,270.78l-.45,1.2h-8.26c-2.45,0-4.23-.7-5.36-2.1a49.92,49.92,0,0,1-4.72,2.45l-.76-1.06a43.81,43.81,0,0,0,10-6,34.3,34.3,0,0,0,6.67-7.78h-15.6v-1.24h8.59a13.21,13.21,0,0,0-1.75-3.17l1.25-.47a18.07,18.07,0,0,1,1.82,3.64h7.15v1.24a34.13,34.13,0,0,1-11.66,11.77,5.5,5.5,0,0,0,4.34,1.53Z"/><path class="cls-30" d="M1632.73,268.06l-.82.94a23.59,23.59,0,0,1-8.39-11.37v9.61h4.9v1.16h-4.9v4h-1.24v-4h-5v-1.16h5v-9.61a25.79,25.79,0,0,1-3.4,6.31,24.82,24.82,0,0,1-5.25,5l-.77-1q6.18-4.49,8.12-10.32h-7.58v-1.16h8.88v-3.85h1.24v3.85h8.63v1.16h-7.32A21.24,21.24,0,0,0,1632.73,268.06Z"/><path class="cls-30" d="M1637.72,257.63a27.66,27.66,0,0,1-1.14,5.45l-1.15-.32a27.35,27.35,0,0,0,1.11-5.28Zm4.76,2.08-.73.86a19.38,19.38,0,0,0-1.8-1.88v13.57h-1.18V252.62H1640v4.56A24.17,24.17,0,0,1,1642.48,259.71ZM1655,271.79h-12.83v-1.16h6.27v-5.87h-5.19v-1.15h5.19v-5h-3.26a18.09,18.09,0,0,1-2,3.84l-1-.6a22.79,22.79,0,0,0,2.92-7.82l1.16.25a21.51,21.51,0,0,1-.75,3.15h2.85V252.7h1.24v4.76h4.94v1.18h-4.94v5h4.42v1.15h-4.42v5.87H1655Z"/><path class="cls-30" d="M1667.37,264.56a1.26,1.26,0,0,1-.81-1.09,1,1,0,0,1,.28-.65,1,1,0,0,1,.78-.34c.7,0,1.05.47,1.05,1.39a2.88,2.88,0,0,1-1.33,2.18l-.47-.36A2,2,0,0,0,1667.37,264.56Z"/><path class="cls-30" d="M1687.08,256.06h-6.64v-1.13h2.89a8.44,8.44,0,0,0-.92-2.1l1-.41a11.77,11.77,0,0,1,1.12,2.51h2.5Zm-.47,3.29h-5.67v-1.18h5.67Zm0,3.19h-5.67v-1.13h5.67Zm-.36,9.12h-1.15v-1.22h-2.88v1.76h-1.12v-7.53h5.15Zm-1.15-2.32v-3.52h-2.88v3.52Zm14.84-1.46a11.92,11.92,0,0,1-.7,3.21c-.31.77-.76,1.15-1.36,1.15q-1.59,0-2.42-3.88a20.41,20.41,0,0,1-3.31,3.34l-.78-.9a17.93,17.93,0,0,0,3.8-3.93c-.41-3-.68-6.15-.81-9.55h-5v2.83H1693c0,2.14,0,3.85,0,5.14a12,12,0,0,1-.17,2.36,1.24,1.24,0,0,1-.56.71,2.71,2.71,0,0,1-1.4.27,6,6,0,0,1-.73-.05l-.28-1.15c.22,0,.68,0,1.37,0,.37,0,.57-.3.62-.89s.06-2.37,0-5.32h-2.5q0,7.11-1.34,10.84l-1.11-.52a32.58,32.58,0,0,0,1.33-10.12V256.2h6.07c0-.62,0-1.78,0-3.48h1.12l.07,3.48h4.46v1.12h-4.41a64.78,64.78,0,0,0,.63,7.86,28,28,0,0,0,2.23-5.79l1,.6a30.75,30.75,0,0,1-3.06,7.06,13.36,13.36,0,0,0,.64,2.62,6.6,6.6,0,0,0,.48,1.13.43.43,0,0,0,.62,0,4.87,4.87,0,0,0,.36-1.29,21.64,21.64,0,0,0,.36-2.19Zm-.61-12.69-1,.62a10.31,10.31,0,0,0-1.42-2.23l.86-.58A9.34,9.34,0,0,1,1699.33,255.19Z"/><path class="cls-30" d="M1708.56,253.07c-.21.68-.53,1.52-.94,2.51L1707,257v15.38h-1.14V259.26a30,30,0,0,1-2.52,3.5l-.61-1.08a26.1,26.1,0,0,0,4.74-9Zm13.83,3.36h-13.85v-1.16h6.3a8.83,8.83,0,0,0-1-2.2l1.1-.43a12,12,0,0,1,1.11,2.63h6.35Zm-1.06,3.28h-11.91V258.6h11.91Zm0,3.39h-11.91V262h11.91Zm-.36,9.33h-1.12v-1.07h-9v1.07h-1.16v-7H1721Zm-1.12-2.21v-3.71h-9v3.71Z"/><path class="cls-30" d="M1745.1,268.06l-.82.94a23.58,23.58,0,0,1-8.38-11.37v9.61h4.89v1.16h-4.89v4h-1.24v-4h-5v-1.16h5v-9.61a25.79,25.79,0,0,1-3.4,6.31,25.32,25.32,0,0,1-5.25,5l-.77-1q6.16-4.49,8.11-10.32h-7.57v-1.16h8.88v-3.85h1.24v3.85h8.62v1.16h-7.32A21.24,21.24,0,0,0,1745.1,268.06Z"/><path class="cls-30" d="M1767.47,258.24l-.6,1.17a28.73,28.73,0,0,1-5.94-2.54v1h-6.76v-1.1a34.78,34.78,0,0,1-5.87,2.63l-.65-1.05a23.87,23.87,0,0,0,10-5.81l1.15.52a3.11,3.11,0,0,1-.49.53A20.47,20.47,0,0,0,1767.47,258.24Zm-15.51,8a20.36,20.36,0,0,1-3.07,5l-1-.74a17.37,17.37,0,0,0,3-4.77Zm13-5.33q-3.21,3.23-10.74,4.25l-.66-1.16q6.39-.6,9.71-3.09h-13.08v-1.18h14.77Zm-2,6.86a11.49,11.49,0,0,1-.6,3.07,1.65,1.65,0,0,1-1.4,1.1q-1,.12-5.76.12a1.62,1.62,0,0,1-1.24-.5,1.85,1.85,0,0,1-.47-1.3v-4.42h1.15V270a.8.8,0,0,0,.92.89c2.44,0,4,0,4.66-.07s1.07-.32,1.2-.82a18.13,18.13,0,0,0,.39-2.46Zm-2.31-11.06a23.59,23.59,0,0,1-3.11-2.34,23.13,23.13,0,0,1-3.24,2.34Zm-.75,11.8-1.06.51a21.87,21.87,0,0,0-2.09-3.3l1-.54A19.54,19.54,0,0,1,1759.9,268.49Zm7.35,1.95-1.15.61a26.41,26.41,0,0,0-3-5.19l1-.63A28.51,28.51,0,0,1,1767.25,270.44Z"/><path class="cls-121" d="M626,80.89h-6.63V94.08h-1.15V75H626Zm-1.12-3.5V76.06h-5.51v1.33Zm0,2.45v-1.4h-5.51v1.4ZM626.7,87l-.91.45-.32-.63-4.63.61-.29-.92a17.23,17.23,0,0,0,2.81-2.11l-2.56.35-.3-.89a11.59,11.59,0,0,0,3-2.68l1.08.5a16.63,16.63,0,0,1-2.1,2l2-.3a6.83,6.83,0,0,0,1.1-1.07l1,.47a44.41,44.41,0,0,1-4,3.58l2.46-.34a4.13,4.13,0,0,0-.45-.69l.93-.41A13,13,0,0,1,626.7,87ZM626,89a4.92,4.92,0,0,1-.89,3.24,5.37,5.37,0,0,1-3,1.5l-.73-1c2-.41,3.1-1.16,3.35-2.27h-3.48V87.86h1.08v1.65h2.47a5.3,5.3,0,0,0,0-.79v-1H626Zm7.93-2.12-.87.56c-.23-.35-.39-.59-.48-.71l-5.27.47-.24-.88a12.72,12.72,0,0,0,2.64-1.93l-2.57.24-.26-.82a8.71,8.71,0,0,0,2.85-2.63l1,.47a15,15,0,0,1-1.91,1.91l2-.2c.18-.15.5-.46,1-.92l1,.45a30.49,30.49,0,0,1-3.57,3.2l2.74-.24a2.73,2.73,0,0,0-.61-.74l.92-.52A15.5,15.5,0,0,1,633.92,86.89Zm-1.52,3.63h-3.67v3.09h-1.08v-5.9h1.08v1.8h2.6V87.86h1.07Zm3.43,2.24a1.28,1.28,0,0,1-1.28,1.34c-1.17,0-1.88,0-2.13,0l-.49-1.16c.48,0,1,.06,1.43.06a3.58,3.58,0,0,0,1.17-.1.41.41,0,0,0,.18-.39V80.89H628V75h7.8Zm-1.12-15.37V76.06h-5.48v1.33Zm0,2.45v-1.4h-5.48v1.4Z"/><path class="cls-121" d="M645,86.4a52.71,52.71,0,0,1-4.37,7.76l-.94-.84A38.13,38.13,0,0,0,644,85.65Zm-.21-3.78-.74.9A36.7,36.7,0,0,0,640,80.69l.69-.94A24.72,24.72,0,0,1,644.8,82.62Zm.54-5.21-.88.9a24.45,24.45,0,0,0-3.91-3l.73-.93A26.14,26.14,0,0,1,645.34,77.41Zm13.91,16.13H644.89V92.38h6.86V86h-5.24V84.79h5.24V79.37H646V78.2h6a15.18,15.18,0,0,0-1.46-3.53l1.18-.3a19.19,19.19,0,0,1,1.48,3.83h5.94v1.17h-6.17v5.42h5.38V86h-5.38v6.43h6.34Z"/><path class="cls-121" d="M681.77,83.68H665.26v2.23c0,3.82-.78,6.58-2.32,8.29l-.81-.81a8.37,8.37,0,0,0,1.46-2.84,11.33,11.33,0,0,0,.51-3.27V82.56h17.67Zm-.56-6.2h-3.43a11.17,11.17,0,0,1-2.42,2.16,42.48,42.48,0,0,1,4.8,1.5l-.64.92A42,42,0,0,0,674,80.35a21.9,21.9,0,0,1-8,1.57l-.39-1a32.08,32.08,0,0,0,6.56-1c-1.76-.4-3.51-.74-5.27-1l.52-.92c2.33.37,4.47.8,6.4,1.29a9.54,9.54,0,0,0,2.41-1.78H663.37v-1.1h8.43a6.87,6.87,0,0,0-1-1.56l1-.47a9.58,9.58,0,0,1,1.19,2h8.14Zm.36,16.06H665.43V92.47h7.74V90.35h-5.49v-1.1h5.49v-2h-4.82a11,11,0,0,1-1.74,1.86l-.71-.94a12.13,12.13,0,0,0,2.94-3.86l1.09.35a15.09,15.09,0,0,1-.83,1.51h4.07V84.36h1.12V86.2h6.18v1.08h-6.18v2H680v1.1h-5.7v2.12h7.28Z"/><path class="cls-121" d="M704.25,88.44h-9.12v5.72h-1.2V88.44h-9.24V87.32h9.24V85.48h-8.25V84.42h8.25V82.67h-8.72v-1.1h5.87a9.54,9.54,0,0,0-1.26-1.75l.85-.54h-6V78.15h7.42V74.51h1.15v3.64h2.54V74.51h1.12v3.64h7.28v1.13h-5.85l.82.56a8,8,0,0,1-1.12,1.73h5.68v1.1h-8.6v1.75h8.06v1.06h-8.06v1.84h9.12Zm-12.32,1.71a23.67,23.67,0,0,1-6.43,3.44l-.74-1a21.58,21.58,0,0,0,6.32-3.22Zm-2.11-13.08-1,.58a15.41,15.41,0,0,0-2.21-2.26l1-.7A17.86,17.86,0,0,1,689.82,77.07Zm8.25,2.21H691a19.66,19.66,0,0,1,1.48,2.29h4.22A9.8,9.8,0,0,0,698.07,79.28Zm6.2,13.59-.67.93A42.64,42.64,0,0,0,697,90.24l.67-.9A40.27,40.27,0,0,1,704.27,92.87Zm-1.82-17.62a10.93,10.93,0,0,1-2.27,2.34l-1-.58a14.73,14.73,0,0,0,2.25-2.28Z"/><path class="cls-121" d="M713.62,92.36c0,1.17-.67,1.75-2,1.75l-.77,0-.36-1.14h1.35a.62.62,0,0,0,.43-.19.57.57,0,0,0,.21-.41V85.43c-.85,1-1.74,2-2.66,2.9l-.63-.69a24.29,24.29,0,0,1-1,6.61l-1.07-.9a19.4,19.4,0,0,0,1-5.69q.13-3.39.13-6.21V75h5.47Zm-1.16-10.85-.64.64a19.56,19.56,0,0,0-2.51-2.25v1.42c0,2.82,0,4.82-.11,6a34.62,34.62,0,0,0,3.26-3.6Zm0-.35v-5h-3.15v3.49l.58-.66A21.48,21.48,0,0,1,712.46,81.16Zm12.82-5.77a25.46,25.46,0,0,1-8.49,2.09v7.08a25.76,25.76,0,0,1-1.62,9.54l-1.08-.53a23.93,23.93,0,0,0,1.55-8.95V76.49a23.92,23.92,0,0,0,8.83-2Zm.34,3.82a25.88,25.88,0,0,1-6.15,1.89V92.36q1.41-.69,2.64-1.44l.34,1.08a37.86,37.86,0,0,1-4.11,2.16l-.45-1a1.31,1.31,0,0,0,.4-1.08v-12a21,21,0,0,0,6.61-1.84Zm1.1,14.18-.9.86Q722,90.16,721.4,82.67l1.12-.28a25.74,25.74,0,0,0,.49,3.43,25.35,25.35,0,0,0,2.66-2.9l.88.65a25.6,25.6,0,0,1-3.26,3.48A14,14,0,0,0,726.72,93.39Z"/><path class="cls-121" d="M740.45,75.41a27.22,27.22,0,0,1-4.53.83V78h4.47v1.08h-4.47v1.65H740v6.54h-4.1v1.59H740v1.06h-4.1v2.26c1.31-.11,2.68-.28,4.1-.51v1.1q-6,.8-10.21,1.23l-.28-1.14q2.46-.18,5.28-.51V89.91h-4.16V88.85h4.16V87.26h-4.13V80.72h4.13V79.07h-4.92V78h4.92V76.4c-1.24.1-2.63.16-4.16.16l-.37-1a37,37,0,0,0,9.57-1Zm-5.64,8V81.83h-3v1.56Zm0,2.79V84.47h-3v1.71Zm4.09-2.79V81.83h-3v1.56Zm0,2.79V84.47h-3v1.71Zm9.31-7.29q0,5-.16,9a30.43,30.43,0,0,1-.38,4.75,1.9,1.9,0,0,1-.82,1.06,4.67,4.67,0,0,1-2.22.36c-.3,0-.57,0-.8,0l-.38-1.16c.83,0,1.56,0,2.17,0a1.13,1.13,0,0,0,.77-.32,1.49,1.49,0,0,0,.38-1l.21-4.32q.15-3.63.15-7.28h-2.36a29.11,29.11,0,0,1-3.42,14.21l-1-.49q3.18-5.43,3.33-13.72l-2.41,0V78.92l2.45,0,.08-4.4h1.12c0,1.83-.07,3.3-.11,4.4Z"/><path class="cls-121" d="M761.54,86.33a1.24,1.24,0,0,1-.81-1.08,1,1,0,0,1,.28-.66.94.94,0,0,1,.77-.33c.71,0,1.06.46,1.06,1.38a2.89,2.89,0,0,1-1.33,2.19l-.47-.37A2,2,0,0,0,761.54,86.33Z"/><path class="cls-121" d="M781.94,76.87h-2.78a32.37,32.37,0,0,1-1.51,5h3.55v9.62h-1.12v-.87H778v1.88h-1.13V83.61a19,19,0,0,1-1.6,2.61l-.79-.81A22.25,22.25,0,0,0,778,76.87h-3V75.74h7Zm-1.86,12.7V83H778v6.54Zm14,4H781.56V92.47h4V79.37h-3.8V78.29h12.08v1.08h-4v13.1h4.25Zm-9.8-4.63-1.1.43a39,39,0,0,0-1.11-7.1l1-.43A40.18,40.18,0,0,1,784.33,88.91Zm1.88-11.84-1,.54a17.49,17.49,0,0,0-1.71-2.69l1-.5A11.59,11.59,0,0,1,786.21,77.07Zm2.57,15.4V79.37h-2.09v13.1ZM792,74.82a13.43,13.43,0,0,1-2,2.77L789,77a16.11,16.11,0,0,0,2-2.66Zm1.66,7.29A36.55,36.55,0,0,1,792,89.25l-1-.53a35.07,35.07,0,0,0,1.6-7.08Z"/><path class="cls-121" d="M803.34,84.53l-2.18,1v7.08c0,1-.73,1.58-2.18,1.58l-1.21,0-.32-1.2a8.56,8.56,0,0,0,1.12.06,2.9,2.9,0,0,0,1.23-.16.52.52,0,0,0,.24-.46V86l-2.95,1.16L796.8,86q2.19-.78,3.24-1.23V79.58H797V78.49H800V74.56h1.12v3.93h1.5v1.09h-1.5v4.66a15.94,15.94,0,0,0,2-.87Zm13.17-3.77H803.09V79.68H807a19.37,19.37,0,0,0-.81-2h-2.1V76.6h5.17c-.34-.64-.62-1.14-.85-1.5l1-.52a12.13,12.13,0,0,1,1,2H816v1.08h-2.51a14.67,14.67,0,0,1-.82,2h3.86Zm0,12.87H803.11V92.56h6.16V90.82h-5.66V89.75h5.66V88.22H804.4V82h10.92v6.26h-4.88v1.53H816v1.07h-5.58v1.74h6Zm-7.22-9.12V83h-3.75v1.5Zm0,2.68V85.54h-3.75v1.65Zm3.06-9.51h-4.9c.22.57.46,1.24.72,2h3.3A18.53,18.53,0,0,0,812.33,77.68Zm1.82,6.83V83h-3.71v1.5Zm0,2.68V85.54h-3.71v1.65Z"/><path class="cls-121" d="M837.86,94.1h-1.21v-1H820.83V85.5H822v6.39h6.78V83.25h-7V75.86H823v6.23h5.79V74.44h1.14v7.65h5.72V75.86h1.19v7.39H830v8.64h6.67V85.48h1.21Z"/><path class="cls-121" d="M849.15,91.55q-4.64,1.68-6.81,2.29l-.45-1.12a7.18,7.18,0,0,0,1-.3V83.77H844v8.31a10.19,10.19,0,0,0,1.51-.47V82h-2.66V75.21h5.4V82h-1.6v3.09h2.05v1.13h-2.05v5a19.65,19.65,0,0,0,2.5-.9Zm-2.09-10.7V76.38h-3v4.47ZM861.66,82l-.73.94a9.65,9.65,0,0,1-4.68-5.06h-1.82a12.75,12.75,0,0,1-4.61,5l-1-.82a12,12,0,0,0,4.22-4.16h-3.69V76.73h4.25a14.08,14.08,0,0,0,.7-2.29l1.16.25a13.84,13.84,0,0,1-.58,2h6.29v1.11H857.5A8.67,8.67,0,0,0,861.66,82ZM861,85.59h-7.37l-.74,2.29h6.7a20.33,20.33,0,0,1-.5,4.16,2.88,2.88,0,0,1-1,1.75,5.6,5.6,0,0,1-2.6.39c-.64,0-1.35,0-2.14-.08l-.3-1.18c1,0,2.31.06,3.86.06a.92.92,0,0,0,.84-.57,13.24,13.24,0,0,0,.58-3.4h-7l1-3.42h-2.71v-1.1H861Zm-2.87-3.26h-5.69v-1.1h5.69Z"/><path class="cls-121" d="M873.82,79.11,873,80a18.68,18.68,0,0,0-3.48-3.46,20.35,20.35,0,0,1-4.4,5.34l-.66-1a20.09,20.09,0,0,0,4.9-6.49l1.14.34c-.18.4-.32.67-.4.81A19.34,19.34,0,0,1,873.82,79.11Zm-.49,6a9.72,9.72,0,0,1-.86,2.21A21.54,21.54,0,0,1,870.23,91a26.58,26.58,0,0,1,2.06,2.34l-.89.73a28.17,28.17,0,0,0-5.49-5.3l.81-.79c.79.6,1.68,1.34,2.68,2.23a16.1,16.1,0,0,0,2.72-5.13H864.9V84h8.43Zm-.74-3.37h-5.51V80.58h5.51Zm11.48-5.57h-4.42c-.35,1.35-.58,2.22-.71,2.61H883v11h-5.26l.71.65a20.18,20.18,0,0,1-4.29,3.72l-.81-.89a17.36,17.36,0,0,0,4.14-3.48h-2.68v-11h2.89a21.58,21.58,0,0,0,.69-2.61H873.8V75.07h10.27Zm-2.21,5.68v-2H876v2Zm0,3.24V82.9H876v2.17Zm0,3.51V86.13H876v2.45Zm2.32,4.66-.74.84a25.86,25.86,0,0,0-3.86-3l.74-.85A21.87,21.87,0,0,1,884.18,93.24Z"/><path class="cls-121" d="M892.77,89.48c-2,1.06-3.87,2-5.59,2.67L886.79,91a20.29,20.29,0,0,0,2.6-1.2V81.14h-2.21V80h2.21V74.42h1.13V80h1.93v1.13h-1.93V89.3a20.15,20.15,0,0,0,2.09-1Zm13.8.27a12.37,12.37,0,0,1-.8,3.23,1.52,1.52,0,0,1-1.37,1q-1.46,0-2.81-3.5a18,18,0,0,1-4.24,3.64l-.82-1a14.27,14.27,0,0,0,4.61-4.06,52.28,52.28,0,0,1-1.07-10.32h-7.68V77.65h7.66c0-.66,0-1.34,0-2,0-.47,0-.88,0-1.23h1.13c0,1.67,0,2.76,0,3.26h5.12v1.11h-5.1a58.58,58.58,0,0,0,.78,8.88,24.28,24.28,0,0,0,2.32-6.58l1.13.28a28.76,28.76,0,0,1-3,8,7.23,7.23,0,0,0,.69,1.75,7,7,0,0,0,.78,1.25c.21.23.38.35.5.35a.38.38,0,0,0,.32-.18,4.61,4.61,0,0,0,.38-1.08,12.93,12.93,0,0,0,.39-2.17Zm-7-.24q-3.7,1.41-6.74,2.31l-.3-1.17c1.86-.51,4.16-1.27,6.9-2.3ZM898.37,87H893.6V81.1h4.77Zm-1.15-1.07V82.22h-2.47v3.71Zm8-9.46-.88.81a9.28,9.28,0,0,0-1.68-1.89l.86-.74A8,8,0,0,1,905.24,76.47Z"/><path class="cls-121" d="M916.66,80.82A25.25,25.25,0,0,1,914.75,84V94.06h-1.19V85.52a29.66,29.66,0,0,1-3.33,2.92l-.9-.87a16.51,16.51,0,0,0,6.18-7.15Zm2.09-3H916V80h-1.17V77.82h-5.4V76.71h5.4V74.33H916v2.38h2.74ZM929,89.12a10.42,10.42,0,0,1-.53,3.49,2.06,2.06,0,0,1-.94,1,12.43,12.43,0,0,1-3.42.25,11.49,11.49,0,0,1-3.82-.34,1.49,1.49,0,0,1-.61-1.43V80.61h1.19v3.84h7.77v1.07h-7.77V92a.55.55,0,0,0,.41.59,15.29,15.29,0,0,0,2.81.13,14.76,14.76,0,0,0,3-.15c.22-.11.4-.53.52-1.27a21.83,21.83,0,0,0,.26-2.63Zm.09-11.3h-5.32v2.34h-1.17V77.82h-2.9V76.71h2.9V74.33h1.17v2.38H929Z"/><path class="cls-121" d="M951.5,93.26l-.7,1Q943.17,90,941.63,83q-1.2,6.92-9,11.31l-.77-1a20.26,20.26,0,0,0,5.57-4.32,11.91,11.91,0,0,0,3-6.44,54.12,54.12,0,0,0,.52-8.11h1.23l-.06,3.46a17.36,17.36,0,0,0,1,6.08,34.47,34.47,0,0,0,6.25-6.45l1,.83a39.89,39.89,0,0,1-6.84,6.78A16.89,16.89,0,0,0,951.5,93.26Zm-13-9-1,.7a28.33,28.33,0,0,0-4.59-6.54l1-.67A29.91,29.91,0,0,1,938.55,84.26Z"/><path class="cls-121" d="M1108.37,93.09l-.8,1a20.82,20.82,0,0,1-5.79-5.36,21.49,21.49,0,0,1-3.23-7.55q-1.36,7.89-9.18,12.84l-.77-1a24.7,24.7,0,0,0,3.83-3,19.3,19.3,0,0,0,3-3.72,16.13,16.13,0,0,0,1.86-5.39H1089V79.71h8.56a46.32,46.32,0,0,0,.39-5.47h1.28c-.07,2-.21,3.79-.43,5.47H1108v1.16h-8.33a20.48,20.48,0,0,0,3.33,7.55A19.2,19.2,0,0,0,1108.37,93.09Z"/><path class="cls-121" d="M1117.3,92.58a1.54,1.54,0,0,1-.21.86,1,1,0,0,1-.48.45,4.3,4.3,0,0,1-1.33.12,5.78,5.78,0,0,1-.63,0l-.38-1.17c.26,0,.79,0,1.59,0,.22,0,.34-.14.34-.42V85.55q-2,2.22-2.61,2.88l-.59-.72a22.13,22.13,0,0,1-1,6.36l-.94-.74a25.57,25.57,0,0,0,.88-6.81V74.88h5.37Zm-1.1-11.77V76H1113v3.13l.38-.52A16.44,16.44,0,0,1,1116.2,80.81Zm0,.31-.45.7a20.2,20.2,0,0,0-2.72-2.24v7.75a33.7,33.7,0,0,0,3.17-3.51Zm14.54-2.06h-3.11V80.5a.36.36,0,0,0,.15.25.41.41,0,0,0,.26.12h2.42v1h-2.62a1.26,1.26,0,0,1-.88-.36,1.14,1.14,0,0,1-.38-.85V79.06h-2.09a5.24,5.24,0,0,1-2.67,3.37l-.77-.86a3.75,3.75,0,0,0,2.29-2.51h-3v5.09q0,6.67-1.58,9.88l-1-.66a18.85,18.85,0,0,0,1.42-8.11V79a4.64,4.64,0,0,1-.74.5l-.72-.87a10.43,10.43,0,0,0,4.27-4.43l1,.36a2.84,2.84,0,0,1-.45.83h5.79v1.1c-.47.56-1,1.07-1.45,1.55h3.75Zm-3.82-2.61h-5a12.54,12.54,0,0,1-1.51,1.55h4.93A15.42,15.42,0,0,0,1126.92,76.45Zm3.67,7.76H1121V83.14h4a13.21,13.21,0,0,0-.62-1.52l1.09-.36a11.27,11.27,0,0,1,.67,1.88h4.46Zm-.75,9.82h-1.12V93h-5.85v1h-1.12V89.4h8.09Zm0-7.76h-8.07v-1h8.07Zm0,2h-8.07v-1h8.07ZM1128.72,92v-1.5h-5.85V92Z"/><path class="cls-121" d="M1152.2,81.08H1151V77.65h-15.34v3.41h-1.18V76.65h8.26V74.24h1.16v2.41h8.27Zm-.06,5.35H1137a1.38,1.38,0,0,1-1-.38,1.28,1.28,0,0,1-.38-1V82h1.13v1.33h13.82v1h-13.82v.75c0,.32.15.48.43.48h15Zm-1.6,7.5h-1.17V93h-12.09v.9h-1.14V87.8h14.4Zm-10.49-18.17-1.2.37a22.08,22.08,0,0,0-1.79-1.44l1.12-.47A9.69,9.69,0,0,1,1140.05,75.76Zm9.32,14.16V88.74h-12.09v1.18Zm0,2.19V90.84h-12.09v1.27Zm-.34-10h-11.3V78.94H1149Zm-1-.92V79.88h-9.17v1.29Zm1.82-6.45a11,11,0,0,1-1.84,1.46l-1.15-.54a10.75,10.75,0,0,0,1.82-1.42Z"/><path class="cls-121" d="M1163.1,77.87h-6.95v-1.1h3.07a14.83,14.83,0,0,0-.9-2.25l1.07-.36a16.5,16.5,0,0,1,1.06,2.61h2.65Zm-.47,3.23h-6V80h6Zm0,3.22h-6V83.24h6Zm-.29,9.14h-1.13V92.34h-3.12V94h-1.21V86.52h5.46Zm-1.13-2.24V87.64h-3.12v3.58Zm9-.9q-3.39,1.31-6.65,2.32l-.34-1.13c1-.3,2-.6,2.87-.93v-7h-2.25V82.5h5.73v1.09h-2.36v6.57c.85-.28,1.81-.63,2.89-1.06Zm5.56-.66Q1175,94,1173.64,94a1.33,1.33,0,0,1-1.11-.77,17.07,17.07,0,0,1-1.16-3.58,54.32,54.32,0,0,1-.92-10.06h-6.6V78.45h6.58c0-1.38,0-2.77,0-4.18h1.14v4.18h3.92v1.13h-3.87a49.58,49.58,0,0,0,.91,10.24c.52,1.93.88,2.89,1.1,2.89s.27-.29.5-.89a14.67,14.67,0,0,0,.62-2.85Zm-.45-12.61-.88.62a15,15,0,0,0-1.77-2.32l.83-.61A9.63,9.63,0,0,1,1175.33,77.05Z"/><path class="cls-121" d="M1188.06,86.23a1.26,1.26,0,0,1-.81-1.09,1,1,0,0,1,.27-.65,1,1,0,0,1,.78-.34c.7,0,1,.46,1,1.39a2.88,2.88,0,0,1-1.33,2.18l-.47-.36A2,2,0,0,0,1188.06,86.23Z"/><path class="cls-121" d="M1203.25,88.7a24.06,24.06,0,0,1-1.2,5.21l-1.08-.35a25.47,25.47,0,0,0,1.27-5.08Zm5.66-1.59-1,.38-.37-1.11c-2.62.71-4.62,1.2-6,1.46l-.28-.94a62.36,62.36,0,0,0,4.27-5.52c-.92.17-2.25.36-4,.58l-.14-1a25.23,25.23,0,0,0,4.16-6.71l1,.5a28.84,28.84,0,0,1-3.55,5.93c1.4-.14,2.47-.28,3.19-.42a21.69,21.69,0,0,0,1.26-2.09l1.08.54a50.53,50.53,0,0,1-5.66,7.7,37.6,37.6,0,0,0,4.2-1,8.5,8.5,0,0,0-.67-1.53l.92-.36A18.55,18.55,0,0,1,1208.91,87.11Zm-2.64,6.13-1.12.13a25.12,25.12,0,0,0-.6-4.54l1.06-.26A28.19,28.19,0,0,1,1206.27,93.24Zm2.77-2-1.08.27a17.07,17.07,0,0,0-.81-3.1l1-.32A19.45,19.45,0,0,1,1209,91.24Zm11.51-13.91h-3l.88.62c-.34,1-.72,1.88-1.12,2.77h2.88v3.41h-1.12V81.82h-3.92V85h4.2v5.58a1.38,1.38,0,0,1-.47,1q-.46.47-2.7.36l-.35-1h1.37a1.57,1.57,0,0,0,.83-.15.45.45,0,0,0,.2-.41V86.07h-3.08v7.86H1214V86.07h-3v6.18h-1.15V85H1214V81.82h-3.9v2.33H1209V80.72h3.06c-.15-.41-.56-1.33-1.24-2.77l.86-.62h-3v-1.1h5.11a5.31,5.31,0,0,0-.55-1.69l1.06-.38a14.19,14.19,0,0,1,.63,2.07h5.59Zm-3.24,0h-5.48a23.22,23.22,0,0,1,1.41,3.39h2.83A19.9,19.9,0,0,0,1217.31,77.33Z"/><path class="cls-121" d="M1243.27,92.41l-.22,1.15q-1.12,0-8.07,0-5.71,0-8.12-2.48a16.66,16.66,0,0,1-2.6,3l-.88-.79a13.33,13.33,0,0,0,4.38-7.18H1224v-1q1.54-1.86,3.49-4.59h-3.92V79.28H1229v1.18q-1,1.38-3.37,4.53H1229V86.1a18.27,18.27,0,0,1-1.6,4.06,7,7,0,0,0,2.5,1.59,10.73,10.73,0,0,0,2.84.61q1.48.11,6,.11C1241,92.47,1242.52,92.45,1243.27,92.41Zm-15.08-14.72-.88.78a18.24,18.24,0,0,0-3.3-3.33l.81-.83A15.38,15.38,0,0,1,1228.19,77.69Zm14.82,5h-13.27v-1.1h6.19V78.4h-3.62c-.68,1-1.15,1.74-1.42,2.1l-1-.62a15.91,15.91,0,0,0,2.77-5.25l1.1.25a15.2,15.2,0,0,1-.93,2.43h3.07v-3h1.14v3h4.85V78.4h-4.85v3.24H1243Zm-1.35,7.31h-10.23V84.66h10.23Zm-1.18-1.1V85.8h-7.88V89Z"/><path class="cls-121" d="M1250.22,89.19A29.05,29.05,0,0,1,1247,94l-.92-.71a23.44,23.44,0,0,0,3.15-4.59Zm15.41-1.37H1246.1V86.7h3.34V82.86h-2.89V81.71h2.89V79h1.14v2.73h2.89V79h1.16v2.73h2.92V79h1.12v2.73h3V79h1.1v2.73h2.42v1.15h-2.42V86.7h2.87Zm-.79-9.78h-15.36a14.47,14.47,0,0,1-2.29,2l-.9-.81a22.48,22.48,0,0,0,4.89-4.93l1.15.43q-.81,1.11-1.8,2.25h14.31Zm-11.37,8.66V82.86h-2.89V86.7Zm.9,7-1.14.22a21.86,21.86,0,0,0-.7-4.91l1.13-.25A23.18,23.18,0,0,1,1254.37,93.73Zm3.18-7V82.86h-2.92V86.7Zm2.47,6.88-1.1.42a29.32,29.32,0,0,0-1.76-4.85l1.08-.41A28,28,0,0,1,1260,93.58Zm1.64-6.88V82.86h-3V86.7Zm3.95,6.74-1,.54a24.73,24.73,0,0,0-2.77-4.75l1.08-.53A28.66,28.66,0,0,1,1265.61,93.44Z"/><path class="cls-121" d="M1273.72,81.17a9.5,9.5,0,0,1,2,5.29,2.92,2.92,0,0,1-.79,2.17c-.53.51-1.58.74-3.15.67l-.48-1.18c.38,0,.75,0,1.13,0a2.56,2.56,0,0,0,1.67-.39,1.94,1.94,0,0,0,.43-1.47,7.68,7.68,0,0,0-2-4.86c.47-1.25,1.06-3,1.78-5.42h-3.53V93.93h-1.15V74.88h5.8V76A47.86,47.86,0,0,1,1273.72,81.17Zm13.08,2.61h-8.15v8.71a24.54,24.54,0,0,0,3.66-1.35l.09,1.24a35.83,35.83,0,0,1-4.65,1.6l-.54-1.15a.88.88,0,0,0,.24-.62V74.84h9.35Zm-1.23-5.15V76h-6.92v2.63Zm0,4V79.78h-6.92v2.85Zm3,10.46-.82,1a14.15,14.15,0,0,1-6.35-8.39l1.1-.47a14.36,14.36,0,0,0,1.12,2.83,17.74,17.74,0,0,0,3.44-2.94l.9.76a24.8,24.8,0,0,1-3.77,3.15A11.13,11.13,0,0,0,1288.54,93.09Z"/><path class="cls-121" d="M1310.52,75.91H1308V92.43a1.31,1.31,0,0,1-.53,1.12,2.06,2.06,0,0,1-1.25.38l-4,0-.43-1.25c.93.07,2.38.11,4.35.11a.62.62,0,0,0,.71-.68V75.91H1291V74.78h19.56Zm-7.62,12.85h-9.49V79.67h9.49Zm-1.17-1.16V80.85h-7.15V87.6Z"/><path class="cls-121" d="M1324,80.18l-.93.75a11.15,11.15,0,0,0-.85-1.35c-2.72.39-5.51.65-8.39.8l-.42-1a13,13,0,0,0,3.62-5.08l1.16.3a19.12,19.12,0,0,1-2.94,4.59q3.52-.28,6.22-.65a16.63,16.63,0,0,0-1.89-2.12l1-.65A17.35,17.35,0,0,1,1324,80.18Zm-1.46,12.5a1.22,1.22,0,0,1-.42.94,1.46,1.46,0,0,1-.91.43c-.33,0-1,0-2.14,0l-.47-1.13,1.05,0a7.7,7.7,0,0,0,1.4-.08.37.37,0,0,0,.31-.4V88.86c-2.15,1-3.92,1.7-5.3,2.17l-.51-.75a13,13,0,0,1-1.07,3.77l-1-.59a14.67,14.67,0,0,0,1-5.37v-6h8.06Zm-1.18-5.08V83.17h-5.68v1.6a30.48,30.48,0,0,1,4.87,1.33l-.54,1a34.66,34.66,0,0,0-4.33-1.2v2.18c0,.63,0,1.25-.09,1.85A51.39,51.39,0,0,0,1321.37,87.6Zm11.69,2.56a7.41,7.41,0,0,1-.47,2.48,2,2,0,0,1-.85,1,5,5,0,0,1-1.83.23l-3.37,0a1.72,1.72,0,0,1-1.22-.43,1.54,1.54,0,0,1-.46-1.16V83.8H1326v3.26h6.46v1.08H1326v4c0,.43.27.65.81.65,2.29,0,3.59,0,3.91-.05a1.09,1.09,0,0,0,.77-.45,6.52,6.52,0,0,0,.45-2.42Zm-.24-7.28h-6.54a1.3,1.3,0,0,1-1-.44,1.51,1.51,0,0,1-.39-1v-7H1326v2.81h6.43v1.07H1326v2.94c0,.36.2.54.61.54h6.21Z"/><path class="cls-121" d="M1338.21,79.3a28.34,28.34,0,0,1-1.15,5.45l-1.15-.32a27.35,27.35,0,0,0,1.11-5.28Zm4.76,2.08-.74.86a19.38,19.38,0,0,0-1.8-1.88V93.93h-1.17V74.29h1.17v4.56A24.25,24.25,0,0,1,1343,81.38Zm12.48,12.08h-12.83V92.3h6.26V86.43h-5.19V85.28h5.19v-5h-3.26a18.09,18.09,0,0,1-1.95,3.84l-1-.6a22.77,22.77,0,0,0,2.91-7.82l1.17.25a22.8,22.8,0,0,1-.76,3.15h2.85V74.36h1.24v4.77h4.94v1.18h-4.94v5h4.43v1.15h-4.43V92.3h5.33Z"/><path class="cls-121" d="M1556.39,79h-1.52v2.57H1551v1.33h3.9v3.45h-4a16.72,16.72,0,0,1-1.16,1.67h2.75a3.87,3.87,0,0,0,.33-.8l1.12.28a1.75,1.75,0,0,1-.16.52h2.38v1h-2.84a7.69,7.69,0,0,1-2,2.53c1.28.58,2.36,1.11,3.24,1.6l-.74.83a32.88,32.88,0,0,0-3.52-1.7A13.18,13.18,0,0,1,1545,94l-.42-1.06a14.06,14.06,0,0,0,4.45-1.17,31.43,31.43,0,0,0-3-1.11c.39-.42.88-1,1.45-1.62h-3.11V88h4c.47-.58.87-1.14,1.22-1.67h-3.6V82.87h3.95V81.54h-3.95V79h-1.59v-1h1.59V75.56h3.95V74.34H1551v1.22h3.89v2.37h1.52Zm-6.52-1V76.54H1547v1.39Zm0,2.59V79H1547v1.55Zm0,4.78V83.89h-2.82V85.3ZM1552,89h-3q-.26.33-1,1.2c.65.2,1.36.46,2.14.78A5.87,5.87,0,0,0,1552,89Zm1.78-11.06V76.54H1551v1.39Zm0,2.59V79H1551v1.55Zm0,4.78V83.89H1551V85.3ZM1563.9,79h-1q-.24,7-2.37,10.86a13,13,0,0,0,3.35,3.22l-.65.92a11.7,11.7,0,0,1-3.46-3.18,17.6,17.6,0,0,1-3.85,3.18l-.68-.92a16.85,16.85,0,0,0,3.86-3.24,18.1,18.1,0,0,1-1.88-6.3l1.06-.36a18.9,18.9,0,0,0,1.58,5.58,14.34,14.34,0,0,0,1.49-4.62,44.39,44.39,0,0,0,.46-5.14h-3.06a17.07,17.07,0,0,1-2.44,4.43l-.89-.66q2.17-2.81,3.46-8.55l1.09.19a28.28,28.28,0,0,1-.87,3.48h4.83Z"/><path class="cls-121" d="M1572.79,74.76c-.29.68-.67,1.5-1.15,2.46l-.74,1.41V94h-1.2V80.81a30.61,30.61,0,0,1-2.49,3.4l-.74-1.11a31.25,31.25,0,0,0,5.12-8.77Zm13.64,18.68H1572V92.27h4.54A68.92,68.92,0,0,0,1574,80.2l.78-.42h-2.52V78.61h6.67a19.68,19.68,0,0,0-1.35-4l1.13-.38a29.9,29.9,0,0,1,1.49,4.34h5.86v1.17h-2.26l.71.27a77.13,77.13,0,0,1-2.66,12.22h4.57Zm-3.13-13.66h-8.11a97.67,97.67,0,0,1,2.57,12.49h2.9A67,67,0,0,0,1583.3,79.78Z"/><path class="cls-121" d="M1595.8,74.58c-.29.82-.73,1.87-1.33,3.18l-.9,1.91V94h-1.2V81.77a26.55,26.55,0,0,1-2.32,3.13l-.81-.94a32,32,0,0,0,5.38-9.72ZM1609,88.76a13.52,13.52,0,0,1-.34,3.15c-.22,1-.66,1.52-1.31,1.66a37.52,37.52,0,0,1-5.34.21l-1.8,0a1.63,1.63,0,0,1-1.19-.49,1.77,1.77,0,0,1-.43-1.25V74.27h1.24v7.62h8.74v1.19h-8.74V92a.68.68,0,0,0,.16.41.48.48,0,0,0,.36.2h1.49a40.1,40.1,0,0,0,5.2-.17c.45-.12.71-1.5.77-4.13Z"/><path class="cls-121" d="M1619.63,90.88h-3v3h-1.11v-3h-3.69V89.75h3.69V87.67h-2.77V79.24h2.77V77.39h-3.37v-1h3.37v-2h1.11v2h3v1h-3v1.85h2.81v8.43h-2.81v2.08h3Zm-4.12-8.07V80.29h-1.66v2.52Zm0,3.8v-2.7h-1.66v2.7Zm2.77-3.8V80.29h-1.66v2.52Zm0,3.8v-2.7h-1.66v2.7Zm13,.43-.84.69a5.5,5.5,0,0,0-.58-.9q-4.35.42-9.13.64l-.31-1c2-.06,3.54-.11,4.56-.16V84.66H1621V78.45h3.93V76.92h-4.4v-1h4.4V74.36h1.17v1.51h4.63v1h-4.63v1.53h4v6.21h-.76A13.54,13.54,0,0,1,1631.23,87Zm.08,2.6h-2.59v2.79a1.45,1.45,0,0,1-.38,1.06,1.23,1.23,0,0,1-.71.43c-.22,0-.92,0-2.09,0l-.34-1c1.08,0,1.69,0,1.84,0a.68.68,0,0,0,.4-.21.52.52,0,0,0,.19-.37V89.64h-7.19v-1h7.19v-.86h1.09v.86h2.59Zm-7.23,2.9-.94.61a10.13,10.13,0,0,0-1.8-2.23l.84-.6A9.14,9.14,0,0,1,1624.08,92.54Zm.85-11.59V79.48h-2.81V81Zm0,2.64V81.94h-2.81v1.65Zm4-2.64V79.48h-2.83V81Zm0,2.64V81.94h-2.83v1.65Zm.16,1.07h-3v1.5c1-.06,1.93-.16,2.92-.27-.32-.36-.52-.59-.63-.69Z"/><path class="cls-121" d="M1653.77,93.48h-19.54V92.36h9.24V89.19h-7.78v-1.1h7.78V85.73h1.17v2.36h7.62v1.1h-7.62v3.17h9.13Zm-7.58-12.61H1643V86h-1.15V80.87h-3a7.81,7.81,0,0,1-3.22,5.68l-.94-.79a7.05,7.05,0,0,0,3-4.89h-3.3V79.73h3.36c.08-1.34.11-2.57.11-3.66H1635V75h10.86v1.1H1643v3.66h3.21Zm-4.36-1.14V76.07H1639c0,.88,0,2.1-.13,3.66Zm7,3.22h-1.14V75.44h1.14Zm3.9,1.84a1.56,1.56,0,0,1-.36,1,1.73,1.73,0,0,1-.82.53,8.7,8.7,0,0,1-1.69.11l-1.63,0-.5-1.23c.76.06,1.46.1,2.11.1a6.6,6.6,0,0,0,1.17-.06.66.66,0,0,0,.41-.35,1.4,1.4,0,0,0,.15-.66v-9.8h1.16Z"/><path class="cls-121" d="M1675.05,87.26h-7.92V94H1666V87.26h-8V78.32h8v-4h1.18v4h7.92Zm-9.1-1.21V79.51h-6.77v6.54Zm7.89,0V79.51h-6.71v6.54Z"/><path class="cls-121" d="M1688.65,86.23a1.26,1.26,0,0,1-.81-1.09,1,1,0,0,1,.28-.65,1,1,0,0,1,.78-.34c.7,0,1,.46,1,1.39a2.88,2.88,0,0,1-1.33,2.18l-.47-.36A2.07,2.07,0,0,0,1688.65,86.23Z"/><path class="cls-121" d="M1720.76,78.18a15.29,15.29,0,0,1-1.26,4l-1.07-.37a13.28,13.28,0,0,0,.87-2.49h-8.4v1.78l5.73-.43,0,1.1-5.77.38v1a.58.58,0,0,0,.2.45.69.69,0,0,0,.42.17h7.83v1.07h-8.16a1.26,1.26,0,0,1-1.44-1.41V82.24l-3.87.28-.09-1.12,4-.25V79.3h-5v4.83q0,6.57-2.07,10.05l-1-.62a15.12,15.12,0,0,0,1.58-4.4,29.46,29.46,0,0,0,.38-5V78.18h6.83V74.47h1.17v1.21h8.61v1.09h-8.61v1.41Zm.41,15.3H1705V92.36h5.72V90.43h-3.92v-3.6h1.2v2.43h2.72V85.87h1.16v6.49h2.25V85.87h1.17v3.39H1718V86.81h1.15v3.62h-3.89v1.93h5.89Z"/><path class="cls-121" d="M1729.53,79.39h-1.82v3.82c.63-.4,1.11-.72,1.44-1l.11,1.24c-.82.58-1.34.93-1.55,1.06v7.91c0,1-.64,1.56-1.93,1.56l-1.15,0-.35-1.15c.86,0,1.48,0,1.85,0s.47-.19.47-.56v-7.1c-.59.34-1.29.71-2.08,1.12l-.39-1.06c1.07-.54,1.89-1,2.47-1.37V79.39h-2.28v-1.1h2.28v-4h1.11v4h1.82Zm6.27,7.94h-2.66a5.3,5.3,0,0,1-.2,1,20.16,20.16,0,0,1,2,2.23l-.78.75a21.35,21.35,0,0,0-1.63-1.8,10.41,10.41,0,0,1-3.39,4.53l-.81-.76a8.84,8.84,0,0,0,3.62-5.91h-2.76v-1h2.89q.07-1,.12-2.61h-1.1a16.18,16.18,0,0,1-1.31,1.75l-.92-.6a11,11,0,0,0,2.23-3.82l1,.34a7.42,7.42,0,0,1-.41,1.27h3.81v1.06h-2.16c0,.85,0,1.71-.11,2.61h2.56Zm.19-6.74h-3.86a1.49,1.49,0,0,1-1.16-.46,1.58,1.58,0,0,1-.43-1.15V74.33h1.1V76h4.07v1.07h-4.07V79q0,.57.66.57H1736Zm7.85,11.84-.19,1.13c-.41,0-.81,0-1.18,0q-4,0-5.52-2.68a13.26,13.26,0,0,1-2.23,3.18l-.85-.71c1.91-1.71,2.86-4.32,2.83-7.84h1.12a23.12,23.12,0,0,1-.42,4,3.78,3.78,0,0,0,1.75,2.16V82.41h-2.84v-1h4.19a21.74,21.74,0,0,0-3.48-3.24l.75-.79c.82.66,1.42,1.16,1.8,1.51A21.49,21.49,0,0,0,1742,76h-5.3v-1h6.57v1a20.1,20.1,0,0,1-3,3.64,13.16,13.16,0,0,1,1,1.18l-.58.62h2.81a15.8,15.8,0,0,1-1,3.84l-.94-.49a13.53,13.53,0,0,0,.63-2.34h-2v4.08H1743v1.07h-2.68v4.58A10.13,10.13,0,0,0,1743.84,92.43Z"/><path class="cls-121" d="M1766.14,81h-3.55v7.19h-7.8V81h-4.43V92.27h15v1.19H1749.2V81h-2.7V79.86h2.7V75h1.16v4.83h4.43v-5.5H1756v5.5h5.44v-5.5h1.19v5.5h3.55Zm-4.74,6V81H1756v6Z"/><path class="cls-121" d="M1774.93,74.65c-.22.59-.53,1.33-.94,2.22l-.62,1.31V94h-1.2V80.5a24,24,0,0,1-2.57,3.71l-.67-1.11a32.56,32.56,0,0,0,4.83-8.86ZM1788.66,81l-8,.8a20.3,20.3,0,0,0,1.16,6.5,8.38,8.38,0,0,0,2.34,3.6A4.32,4.32,0,0,0,1786,93a.48.48,0,0,0,.39-.18,7.16,7.16,0,0,0,.46-1.62,12.88,12.88,0,0,0,.33-2.86l1.21.52a19.69,19.69,0,0,1-.5,3.18,4.07,4.07,0,0,1-.76,1.76,1.41,1.41,0,0,1-1,.38,4.77,4.77,0,0,1-2.75-1.39,9.66,9.66,0,0,1-2.68-4.09,22.93,22.93,0,0,1-1.27-6.78l-4.81.5-.11-1.22,4.83-.47c-.12-2-.17-3.66-.17-5,0-.47,0-.93,0-1.37h1.18c0,2.44,0,4.52.17,6.26l8-.79Zm-1.91-2.63-1,.6a16.26,16.26,0,0,0-3.06-3.46l1-.62A11.94,11.94,0,0,1,1786.75,78.34Z"/><path class="cls-121" d="M1801.09,92.19l-1.08.45a16.29,16.29,0,0,0-.8-2.27c-2.22.9-4.43,1.73-6.62,2.51l-.54-1.21a1.09,1.09,0,0,0,.28-.75V74.86h8v9.91h-6.81v6.45a48.1,48.1,0,0,0,5.29-1.94c-.47-1-.9-1.91-1.28-2.62l1-.48A32.64,32.64,0,0,1,1801.09,92.19Zm-2-13.08V76h-5.64v3.09Zm0,4.48V80.27h-5.64v3.32Zm11.19,6.54a1.35,1.35,0,0,1-.54,1.27,5.25,5.25,0,0,1-2.32.33c-.46,0-1,0-1.54,0l-.36-1.21c1.24.07,2.22.1,2.94.1.46,0,.68-.21.68-.64V76h-5.12v18h-1.18V74.86h7.44Z"/><path class="cls-121" d="M1820.31,93.91h-1.17V85H1817q-.23,6.15-1.87,8.66l-1-.7c1.16-1.85,1.73-4.5,1.73-8h-1.71V83.91h5V81h-3.93V75.44h1.18v4.42h2.75V74.31h1.17Zm12.31-16.54q-3.28,5.19-10.72,7l-.77-1.08a17.54,17.54,0,0,0,6.8-2.65,23.79,23.79,0,0,0-4.1-2.54c-.6.41-1.2.78-1.8,1.12l-.9-.9a15.11,15.11,0,0,0,5.51-4.2l1.1.53a10.77,10.77,0,0,1-1.38,1.54h6.26Zm1.06,8.92h-2.63v6a1.37,1.37,0,0,1-.62,1.31,5.66,5.66,0,0,1-2.5.36c-.4,0-.81,0-1.24,0l-.41-1.2c.94,0,1.68.06,2.24.06a2.55,2.55,0,0,0,1.13-.15.5.5,0,0,0,.23-.43V86.29h-8.49V85.13h8.49V82.39h1.17v2.74h2.63Zm-11.8-4.87,0-1.09a25.18,25.18,0,0,0,3.58-.3l0,1.07A29.39,29.39,0,0,1,1821.88,81.42Zm4.52,9.5-1,.7a21.22,21.22,0,0,0-2.89-3.84l.92-.67A19.22,19.22,0,0,1,1826.4,90.92Zm4.79-13.55H1825l-.08,0a44.91,44.91,0,0,1,3.94,2.49A14.06,14.06,0,0,0,1831.19,77.37Z"/><path class="cls-121" d="M1845.28,82.67h-6.65V93.93h-1.18V74.86h7.83Zm-1.18-4.51V76h-5.47v2.18Zm0,3.39V79.24h-5.47v2.31Zm6.24,9.27h-8.23V84.6h8.23Zm-1.13-1.16V85.78h-5.93v3.88Zm5.82,2.57a1.7,1.7,0,0,1-.53,1.37,3.39,3.39,0,0,1-2.07.45c-.27,0-.63,0-1.08,0l-.45-1.15,1.28,0a4.31,4.31,0,0,0,1.4-.14.62.62,0,0,0,.3-.62V82.67h-6.56V74.86H1855Zm-1.15-14.07V76h-5.41v2.18Zm0,3.39V79.24h-5.41v2.31Z"/><path class="cls-121" d="M1878.52,81H1875v7.19h-7.79V81h-4.43V92.27h15v1.19h-16.18V81h-2.7V79.86h2.7V75h1.17v4.83h4.43v-5.5h1.16v5.5h5.45v-5.5H1875v5.5h3.56Zm-4.74,6V81h-5.45v6Z"/></g></g></svg>