<svg xmlns="http://www.w3.org/2000/svg" xmlns:xlink="http://www.w3.org/1999/xlink" viewBox="0 0 400 400"><defs><style>.cls-1,.cls-45{fill:none;}.cls-2{isolation:isolate;}.cls-3{fill:#231815;}.cls-4{fill:#ad181c;}.cls-5{fill:#20325b;}.cls-101,.cls-102,.cls-104,.cls-19,.cls-20,.cls-27,.cls-35,.cls-36,.cls-38,.cls-39,.cls-40,.cls-6,.cls-79,.cls-80,.cls-81,.cls-84,.cls-86,.cls-88,.cls-98{mix-blend-mode:overlay;}.cls-6{fill:url(#未命名漸層_77);}.cls-7{fill:#fcfaeb;}.cls-8{clip-path:url(#clip-path);}.cls-9{fill:#223860;}.cls-10{fill:#a82728;}.cls-11{fill:#6f2a41;}.cls-12,.cls-15,.cls-17,.cls-18,.cls-21,.cls-22,.cls-41,.cls-42,.cls-50,.cls-82,.cls-83,.cls-85,.cls-89{mix-blend-mode:darken;}.cls-13{fill:url(#未命名漸層_13);}.cls-14{fill:#6c1319;}.cls-15{fill:url(#未命名漸層_13-2);}.cls-16{fill:#162142;}.cls-17{fill:url(#未命名漸層_13-3);}.cls-18{fill:url(#未命名漸層_13-4);}.cls-19{fill:url(#未命名漸層_46);}.cls-20{fill:url(#未命名漸層_77-2);}.cls-21{fill:url(#未命名漸層_13-5);}.cls-22{fill:url(#未命名漸層_13-6);}.cls-23{fill:#f4ac88;}.cls-100,.cls-107,.cls-24,.cls-25,.cls-30,.cls-32,.cls-48,.cls-87,.cls-96,.cls-97,.cls-99{mix-blend-mode:multiply;}.cls-24{fill:url(#未命名漸層_41);}.cls-25{fill:url(#未命名漸層_41-2);}.cls-26{fill:#37190b;}.cls-27{fill:url(#未命名漸層_77-3);}.cls-28,.cls-59{fill:#fff;}.cls-28{opacity:0.61;}.cls-29{fill:#714b22;}.cls-30{fill:url(#未命名漸層_41-3);}.cls-31{fill:#ef8a5b;}.cls-32{fill:url(#未命名漸層_41-4);}.cls-33{fill:#61361a;}.cls-34{fill:#e9592f;}.cls-35{fill:url(#未命名漸層_46-2);}.cls-36{fill:url(#未命名漸層_46-3);}.cls-37{fill:url(#未命名漸層_41-5);}.cls-38{fill:url(#未命名漸層_46-4);}.cls-39{fill:url(#未命名漸層_77-4);}.cls-40{fill:url(#未命名漸層_46-5);}.cls-41{fill:url(#未命名漸層_13-7);}.cls-42{fill:url(#未命名漸層_13-8);}.cls-43{fill:#e7decd;}.cls-44{fill:url(#未命名漸層_103);}.cls-45{stroke:#c8bb9b;stroke-miterlimit:10;stroke-width:0.43px;}.cls-46{fill:#d60050;}.cls-47{fill:#f1eae1;}.cls-48{fill:url(#未命名漸層_98);}.cls-49{fill:#fff8ef;}.cls-50{fill:url(#未命名漸層_118);}.cls-51{fill:#516080;}.cls-52{fill:#c7b4b4;}.cls-53{fill:#f7eeee;}.cls-54{fill:#f1a2a9;}.cls-55{fill:#756765;}.cls-56{fill:#fff697;}.cls-57{fill:#cad1a7;}.cls-58{fill:#e2b647;}.cls-60{fill:#2ca6e0;}.cls-61{fill:#5d667a;}.cls-62{fill:url(#未命名漸層_21);}.cls-63{fill:url(#未命名漸層_21-2);}.cls-64{fill:url(#未命名漸層_35);}.cls-65{fill:#fbf8f1;}.cls-66{fill:url(#未命名漸層_35-2);}.cls-67{fill:url(#未命名漸層_35-3);}.cls-68{fill:#ede9e3;}.cls-69{fill:#009fe8;}.cls-70{fill:url(#未命名漸層_21-3);}.cls-71{fill:url(#未命名漸層_21-4);}.cls-72{fill:#d3d062;}.cls-73{fill:url(#未命名漸層_21-5);}.cls-74{fill:#68554e;}.cls-75{fill:#d14b63;}.cls-76{fill:#86b7c5;}.cls-77{fill:#036eb7;}.cls-78{fill:#173275;}.cls-79{fill:url(#未命名漸層_46-6);}.cls-80{fill:url(#未命名漸層_46-7);}.cls-81{fill:url(#未命名漸層_46-8);}.cls-82{fill:url(#未命名漸層_83);}.cls-83{fill:#c8c9ca;}.cls-84{fill:url(#未命名漸層_46-9);}.cls-85{fill:url(#未命名漸層_83-2);}.cls-86{fill:url(#未命名漸層_46-10);}.cls-87{opacity:0.47;fill:url(#未命名漸層_41-6);}.cls-88{fill:url(#未命名漸層_46-12);}.cls-89{fill:url(#未命名漸層_13-9);}.cls-90{fill:#686d70;}.cls-91{fill:#4d5357;}.cls-92{fill:#383839;}.cls-93{fill:url(#未命名漸層_3);}.cls-94{fill:#e3eff5;}.cls-95{clip-path:url(#clip-path-2);}.cls-96{fill:url(#未命名漸層_41-7);}.cls-97{fill:url(#未命名漸層_41-8);}.cls-98{fill:url(#未命名漸層_77-6);}.cls-99{fill:url(#未命名漸層_41-9);}.cls-100{fill:url(#未命名漸層_41-10);}.cls-101{fill:url(#未命名漸層_46-13);}.cls-102{fill:url(#未命名漸層_46-14);}.cls-103{fill:url(#未命名漸層_41-11);}.cls-104{fill:url(#未命名漸層_46-15);}.cls-105{opacity:0.4;}.cls-106{fill:#f5fafd;}.cls-107{opacity:0.7;fill:url(#未命名漸層_41-12);}</style><linearGradient id="未命名漸層_77" x1="249.16" y1="41.83" x2="249.16" y2="78.11" gradientUnits="userSpaceOnUse"><stop offset="0" stop-color="#fff"/><stop offset="0.09" stop-color="#f8f8f9" stop-opacity="0.94"/><stop offset="0.27" stop-color="#e7e7e7" stop-opacity="0.79"/><stop offset="0.52" stop-color="#ccc" stop-opacity="0.54"/><stop offset="0.82" stop-color="#a6a6a6" stop-opacity="0.21"/><stop offset="1" stop-color="#8e8e8f" stop-opacity="0"/></linearGradient><clipPath id="clip-path"><path class="cls-1" d="M256,76.41A338.76,338.76,0,0,0,258,126.15c1.49,13,3.93,26.41,11.68,37.11l-2.92,8.56-15.35-7.88c-14.72-25.29-15.16-56.83-6.38-85.21,0,0,2-4,4.93-3.88A19.27,19.27,0,0,1,256,76.41Z"/></clipPath><linearGradient id="未命名漸層_13" x1="247.73" y1="120.53" x2="269.03" y2="188.39" gradientUnits="userSpaceOnUse"><stop offset="0" stop-color="#8e8e8f"/><stop offset="0.46" stop-color="#cacaca"/><stop offset="0.82" stop-color="#f0f0f0"/><stop offset="1" stop-color="#fff"/></linearGradient><linearGradient id="未命名漸層_13-2" x1="249.32" y1="69.31" x2="250.82" y2="92" xlink:href="#未命名漸層_13"/><linearGradient id="未命名漸層_13-3" x1="277.56" y1="117.57" x2="286.26" y2="185.11" xlink:href="#未命名漸層_13"/><linearGradient id="未命名漸層_13-4" x1="303.82" y1="82.28" x2="327.26" y2="151.9" xlink:href="#未命名漸層_13"/><linearGradient id="未命名漸層_46" x1="346.95" y1="96.01" x2="307.15" y2="116.6" gradientUnits="userSpaceOnUse"><stop offset="0" stop-color="#8e8e8f" stop-opacity="0"/><stop offset="0.18" stop-color="#a6a6a6" stop-opacity="0.21"/><stop offset="0.48" stop-color="#ccc" stop-opacity="0.54"/><stop offset="0.73" stop-color="#e7e7e7" stop-opacity="0.79"/><stop offset="0.91" stop-color="#f8f8f9" stop-opacity="0.94"/><stop offset="1" stop-color="#fff"/></linearGradient><linearGradient id="未命名漸層_77-2" x1="187.12" y1="73.08" x2="206.82" y2="73.08" xlink:href="#未命名漸層_77"/><linearGradient id="未命名漸層_13-5" x1="240.18" y1="156.27" x2="221.43" y2="66.97" xlink:href="#未命名漸層_13"/><linearGradient id="未命名漸層_13-6" x1="265.8" y1="125.08" x2="272.81" y2="87.71" xlink:href="#未命名漸層_13"/><linearGradient id="未命名漸層_41" x1="222.38" y1="42.51" x2="228.95" y2="42.51" gradientUnits="userSpaceOnUse"><stop offset="0.01" stop-color="#e9592f"/><stop offset="0.65" stop-color="#f1926c"/><stop offset="1" stop-color="#f4ac88"/></linearGradient><linearGradient id="未命名漸層_41-2" x1="224.21" y1="25.02" x2="233.57" y2="25.02" xlink:href="#未命名漸層_41"/><linearGradient id="未命名漸層_77-3" x1="222" y1="27.34" x2="226.56" y2="27.34" xlink:href="#未命名漸層_77"/><linearGradient id="未命名漸層_41-3" x1="244.94" y1="30.99" x2="265.93" y2="30.99" xlink:href="#未命名漸層_41"/><linearGradient id="未命名漸層_41-4" x1="244.15" y1="56.49" x2="251.24" y2="56.49" xlink:href="#未命名漸層_41"/><linearGradient id="未命名漸層_46-2" x1="435.22" y1="291.21" x2="484.26" y2="258.02" gradientTransform="translate(55.49 -484.06) rotate(38.06)" xlink:href="#未命名漸層_46"/><linearGradient id="未命名漸層_46-3" x1="438.43" y1="295.18" x2="487.76" y2="261.8" gradientTransform="translate(55.49 -484.06) rotate(38.06)" xlink:href="#未命名漸層_46"/><linearGradient id="未命名漸層_41-5" x1="256.65" y1="66.53" x2="245.03" y2="51.32" xlink:href="#未命名漸層_41"/><linearGradient id="未命名漸層_46-4" x1="253.9" y1="49.23" x2="261.48" y2="49.23" xlink:href="#未命名漸層_46"/><linearGradient id="未命名漸層_77-4" x1="299.05" y1="65.42" x2="326.3" y2="65.42" xlink:href="#未命名漸層_77"/><linearGradient id="未命名漸層_46-5" x1="326.68" y1="149.77" x2="321.51" y2="180.51" xlink:href="#未命名漸層_46"/><linearGradient id="未命名漸層_13-7" x1="192.78" y1="97.15" x2="188.84" y2="141.99" xlink:href="#未命名漸層_13"/><linearGradient id="未命名漸層_13-8" x1="231.54" y1="131.48" x2="224.81" y2="158.03" xlink:href="#未命名漸層_13"/><linearGradient id="未命名漸層_103" x1="167.63" y1="220.72" x2="332.47" y2="220.72" gradientUnits="userSpaceOnUse"><stop offset="0" stop-color="#fff"/><stop offset="0.08" stop-color="#faf6f0"/><stop offset="0.23" stop-color="#ecdeca"/><stop offset="0.43" stop-color="#d6b88c"/><stop offset="0.47" stop-color="#d2b180"/><stop offset="1" stop-color="#fff"/></linearGradient><linearGradient id="未命名漸層_98" x1="162.64" y1="189.28" x2="253.61" y2="189.28" gradientUnits="userSpaceOnUse"><stop offset="0" stop-color="#fff"/><stop offset="0.17" stop-color="#faf6f0"/><stop offset="0.49" stop-color="#ecdeca"/><stop offset="0.92" stop-color="#d6b88c"/><stop offset="1" stop-color="#d2b180"/></linearGradient><linearGradient id="未命名漸層_118" x1="258.21" y1="158.17" x2="251.68" y2="201.38" gradientUnits="userSpaceOnUse"><stop offset="0" stop-color="#e4d0b2"/><stop offset="0.41" stop-color="#e9dac2"/><stop offset="1" stop-color="#fff"/></linearGradient><linearGradient id="未命名漸層_21" x1="270.28" y1="156.35" x2="266.12" y2="173.81" gradientUnits="userSpaceOnUse"><stop offset="0.39" stop-color="#b2bc6b"/><stop offset="0.71" stop-color="#8aa872"/><stop offset="1" stop-color="#629478"/></linearGradient><linearGradient id="未命名漸層_21-2" x1="313.24" y1="160.22" x2="303.89" y2="165.65" xlink:href="#未命名漸層_21"/><linearGradient id="未命名漸層_35" x1="298.02" y1="146.71" x2="307.8" y2="146.71" gradientUnits="userSpaceOnUse"><stop offset="0.39" stop-color="#d68324"/><stop offset="0.72" stop-color="#c35b23"/><stop offset="1" stop-color="#b23623"/></linearGradient><linearGradient id="未命名漸層_35-2" x1="275.88" y1="165.34" x2="292.28" y2="165.34" xlink:href="#未命名漸層_35"/><linearGradient id="未命名漸層_35-3" x1="276.49" y1="147.62" x2="298.55" y2="147.62" xlink:href="#未命名漸層_35"/><linearGradient id="未命名漸層_21-3" x1="208.18" y1="160.22" x2="198.82" y2="165.65" xlink:href="#未命名漸層_21"/><linearGradient id="未命名漸層_21-4" x1="201.86" y1="164.6" x2="192.51" y2="170.04" xlink:href="#未命名漸層_21"/><linearGradient id="未命名漸層_21-5" x1="258.95" y1="174.43" x2="240.72" y2="185.01" xlink:href="#未命名漸層_21"/><linearGradient id="未命名漸層_46-6" x1="193.08" y1="334.92" x2="204.48" y2="334.92" xlink:href="#未命名漸層_46"/><linearGradient id="未命名漸層_46-7" x1="204.15" y1="313.54" x2="200.47" y2="325.63" xlink:href="#未命名漸層_46"/><linearGradient id="未命名漸層_46-8" x1="209.98" y1="290.11" x2="235.99" y2="290.11" xlink:href="#未命名漸層_46"/><linearGradient id="未命名漸層_83" x1="186.55" y1="270.74" x2="234.46" y2="249.04" gradientUnits="userSpaceOnUse"><stop offset="0" stop-color="#fff"/><stop offset="0.18" stop-color="#f0f0f0"/><stop offset="0.54" stop-color="#cacaca"/><stop offset="1" stop-color="#8e8e8f"/></linearGradient><linearGradient id="未命名漸層_46-9" x1="286.22" y1="379.45" x2="307.58" y2="379.45" xlink:href="#未命名漸層_46"/><linearGradient id="未命名漸層_83-2" x1="233.35" y1="285.38" x2="292.52" y2="285.38" xlink:href="#未命名漸層_83"/><linearGradient id="未命名漸層_46-10" x1="286.37" y1="263.23" x2="270.63" y2="298.53" xlink:href="#未命名漸層_46"/><linearGradient id="未命名漸層_41-6" x1="318.17" y1="213.4" x2="318.41" y2="196.23" xlink:href="#未命名漸層_41"/><linearGradient id="未命名漸層_46-12" x1="188.31" y1="112.95" x2="205.63" y2="156.67" xlink:href="#未命名漸層_46"/><linearGradient id="未命名漸層_13-9" x1="191.79" y1="160.12" x2="209.11" y2="203.84" xlink:href="#未命名漸層_13"/><linearGradient id="未命名漸層_3" x1="274.98" y1="111.71" x2="299.78" y2="138.13" gradientTransform="matrix(0.95, 0.32, -0.32, 0.95, -8.02, -165.78)" gradientUnits="userSpaceOnUse"><stop offset="0" stop-color="#8e8e8f"/><stop offset="0.4" stop-color="#fff"/><stop offset="0.51" stop-color="#f0f0f0"/><stop offset="0.72" stop-color="#cacaca"/><stop offset="1" stop-color="#8e8e8f"/></linearGradient><clipPath id="clip-path-2"><circle class="cls-1" cx="224.96" cy="49.34" r="15.04"/></clipPath><linearGradient id="未命名漸層_41-7" x1="190.7" y1="-4.86" x2="198.62" y2="-4.86" gradientTransform="translate(27.7 81.66) rotate(-9.67)" xlink:href="#未命名漸層_41"/><linearGradient id="未命名漸層_41-8" x1="192.9" y1="-25.94" x2="204.18" y2="-25.94" gradientTransform="translate(27.7 81.66) rotate(-9.67)" xlink:href="#未命名漸層_41"/><linearGradient id="未命名漸層_77-6" x1="190.24" y1="-23.14" x2="195.73" y2="-23.14" gradientTransform="translate(27.7 81.66) rotate(-9.67)" xlink:href="#未命名漸層_77"/><linearGradient id="未命名漸層_41-9" x1="217.88" y1="-18.74" x2="243.17" y2="-18.74" gradientTransform="translate(27.7 81.66) rotate(-9.67)" xlink:href="#未命名漸層_41"/><linearGradient id="未命名漸層_41-10" x1="216.92" y1="11.98" x2="225.47" y2="11.98" gradientTransform="translate(27.7 81.66) rotate(-9.67)" xlink:href="#未命名漸層_41"/><linearGradient id="未命名漸層_46-13" x1="376.81" y1="269.25" x2="435.9" y2="229.26" gradientTransform="translate(1.09 -404.84) rotate(28.39)" xlink:href="#未命名漸層_46"/><linearGradient id="未命名漸層_46-14" x1="380.68" y1="274.03" x2="440.11" y2="233.82" gradientTransform="translate(1.09 -404.84) rotate(28.39)" xlink:href="#未命名漸層_46"/><linearGradient id="未命名漸層_41-11" x1="231.99" y1="24.08" x2="217.99" y2="5.75" gradientTransform="translate(27.7 81.66) rotate(-9.67)" xlink:href="#未命名漸層_41"/><linearGradient id="未命名漸層_46-15" x1="228.68" y1="3.24" x2="237.81" y2="3.24" gradientTransform="translate(27.7 81.66) rotate(-9.67)" xlink:href="#未命名漸層_46"/><linearGradient id="未命名漸層_41-12" x1="319.99" y1="186.32" x2="334.88" y2="186.32" gradientTransform="matrix(0.88, 0.48, -0.48, 0.88, 17.4, -234.28)" xlink:href="#未命名漸層_41"/></defs><g class="cls-2"><g id="圖層_1" data-name="圖層 1"><path class="cls-3" d="M20.46,179.93a36.19,36.19,0,0,1-4.7,6.65c-.07.07-.33.34-.46.34a.14.14,0,0,1-.13-.14,3.16,3.16,0,0,1,.29-.66c.37-.76.67-1.59,1-2.35.43-1.06.82-2.12,1.19-3.21a56.45,56.45,0,0,0,2.22-8.71,9.54,9.54,0,0,0,0-1.69c0-.16,0-.23.2-.23a15.94,15.94,0,0,1,3,1.06c.27.1,1.33.5,1.33.89s-.83.63-1.1.73A36.52,36.52,0,0,1,20.46,179.93Zm8.84,9.9a13,13,0,0,1-.13,2.28c-.53,1.53-2.88,1.73-4.2,1.89-.34-1.85-.63-2.32-2.35-3.14-.17-.1-.73-.3-.73-.53s.1-.14.2-.14a5.46,5.46,0,0,1,.69.1,13.89,13.89,0,0,0,2.35.27c.8,0,1.36-.23,1.36-1.13V165a4.15,4.15,0,0,0-.3-1.55.88.88,0,0,1-.1-.3c0-.17.13-.23.27-.23A18.12,18.12,0,0,1,30,164a.39.39,0,0,1,.2.3c0,.26-.73.76-.9.89ZM32,170.92c.07,0,.26.17.3.17,3.47,2.88,7.38,8.64,7.38,13.34,0,1.13-.33,2.58-1.72,2.58s-1.82-1.39-1.92-2.61l-.17-1.85a25.06,25.06,0,0,0-2.22-7.89,26.21,26.21,0,0,0-1.45-2.84,2.5,2.5,0,0,1-.43-.73C31.79,171,31.92,170.92,32,170.92Z"/><path class="cls-3" d="M49.1,174.43H47l-.53.43-1-1.75c.6,0,1.23.13,1.82.13H49.1v-4.4a16.94,16.94,0,0,0-.2-2.25c0-.4-.33-.87-.33-1.13s0-.2.19-.2a7.21,7.21,0,0,1,1.53.43c.36.1,2.28.6,2.28,1,0,.26-.76.83-1,1v5.56h.23c.14-.2.83-1.19,1.16-1.19a5.36,5.36,0,0,1,1.89,2c0,.23-.23.33-.43.33H51.61v8.65c.8-.1,2.15-.57,2.68-.57.1,0,.27,0,.27.13s-.8.6-.89.7c-2.16,1.36-4.21,2.78-6.26,4.3l-1.76-3.57a20.43,20.43,0,0,0,3.45-.47Zm12.54-3.81c-.09-1.72-.16-3.47-.36-5.19a8.56,8.56,0,0,0-.33-1.66,1.77,1.77,0,0,1-.23-.59c0-.17.16-.2.33-.2.46,0,3.71,1,3.71,1.32s-.67.93-.83,1.09c.1,1.76.16,3.48.23,5.23h2.62c.16-.19.92-1.25,1.29-1.25s.66.33.89.49,1.49,1.16,1.49,1.59-.26.37-.53.37H64.16a48.42,48.42,0,0,0,1.16,9.4,22,22,0,0,0,1.06-4.8h.13c.57,0,3.45,1.16,3.45,1.59s-.67.5-.9.56a42.81,42.81,0,0,1-2.68,6.56,13.55,13.55,0,0,0,1.46,3c.1.17.56.87.72.87.5,0,1.16-2.82,1.43-2.82s.23.13.23.3c-.13,1.29-.46,2.61-.46,3.91a5.75,5.75,0,0,0,.26,1.65c.13.33.66,1.26.66,1.43s-.29.43-.53.43c-2.25,0-4.66-4.38-5.43-6.16a21.19,21.19,0,0,1-5.39,4.5c-.17.07-.53.33-.7.33-.1-.2,0-.3,0-.33,1-1.13,1.92-2.25,2.78-3.44a26.55,26.55,0,0,0,2.28-3.71,39.34,39.34,0,0,1-1.22-5.07l-.37-2.51c0,1.65-.13,3.27-.2,4.93-.1,2-.33,4.63-2,5.89a6.5,6.5,0,0,1-2,.9c-.07-.63-.27-1.89-.8-2.29l-.79-.63a13.11,13.11,0,0,1-.67,1.49,17.23,17.23,0,0,1-3.14,4c-.6.49-1.19,1-1.79,1.45-.13.1-.73.63-.89.63s-.07-.13-.07-.16a.44.44,0,0,1,0-.2,19.47,19.47,0,0,0,3.68-6,23.63,23.63,0,0,0,1-3.35,56.37,56.37,0,0,0,.72-10.79,18.61,18.61,0,0,0-.16-3c-.07-.33-.37-.86-.37-1.09a.34.34,0,0,1,.34-.23,19.56,19.56,0,0,1,3.84,1.48ZM57.9,186.09a1.17,1.17,0,0,0,1.13-.73c.63-1.66.69-6.29.76-8.05h-2A31,31,0,0,1,56.51,186C56.94,186,57.44,186.09,57.9,186.09Zm1.49-9.84c.07-.06.7-.92.83-.92a20.15,20.15,0,0,1,1.92,1.29,2.53,2.53,0,0,1-.2.46s-.06-.13-.06-.16a2.73,2.73,0,0,1,0-.57c-.06-.86-.06-1.69-.06-2.55v-1.92H58.33l-.43.53-.06,3.84Zm5.93-12.18a5.41,5.41,0,0,1,1.13.43c.26.1.53.3.79.43,1,.56,2,1.29,2,2.55a1.64,1.64,0,0,1-1.46,1.75,1.36,1.36,0,0,1-1.12-.62,3.42,3.42,0,0,1-.23-1,5,5,0,0,0-1.26-3.14.54.54,0,0,1-.17-.3C65,164.07,65.22,164.07,65.32,164.07Z"/><path class="cls-3" d="M76.11,191a4.36,4.36,0,0,1,.27-.79,32.67,32.67,0,0,0,1.42-5,7.93,7.93,0,0,0,.27-1.49c0-.17,0-.3,0-.43s0-.2.14-.2a14.72,14.72,0,0,1,2.48.93c.2.09.73.33.73.62s-.53.57-.76.67a24.75,24.75,0,0,1-3.78,5.33c-.1.13-.43.56-.59.56S76.11,191.09,76.11,191Zm2.39-8.91-.6.44-1.12-1.73a19,19,0,0,0,2,.2h3v-1.39a7.65,7.65,0,0,0-.2-1.89H78l-.59.43-1.13-1.72a19.16,19.16,0,0,0,2,.2h5.17a35,35,0,0,0,1.48-5.2c.07-.3.07-.79.17-1.06.63,0,2.38,1.1,2.88,1.43a.75.75,0,0,1,.33.56c0,.33-.69.43-.93.46-1,1.29-2,2.59-3,3.81h2.22c.13-.16,1-1.39,1.39-1.39a.9.9,0,0,1,.59.4c.2.23,1.36,1.46,1.36,1.79s-.4.29-.56.29h-5.1c.23.14.76.4.76.67s-.5.53-.66.63v2h1.49c.1-.1,1.19-1.42,1.46-1.42s.49.33.59.46,1.39,1.36,1.39,1.79c0,.2-.16.26-.33.26h-4.6v6.43a23.86,23.86,0,0,0,.3,3.74l-3.22,1a27.08,27.08,0,0,0,.34-4.27v-6.86Zm9-14.47c.2,0,.53.37.7.5s1.32,1.29,1.32,1.72a.33.33,0,0,1-.33.33h-11l-.6.4-1.12-1.69c.63,0,1.32.17,2,.17H86C86.08,169,87.17,167.64,87.5,167.64Zm-9,3.05A7.81,7.81,0,0,1,80.88,172a2.71,2.71,0,0,1,1.19,1.46,4.12,4.12,0,0,1,.17,1.09A1.33,1.33,0,0,1,81,175.92c-1.79,0-1.09-2.78-1.89-4a5.73,5.73,0,0,1-.69-1.16C78.4,170.72,78.47,170.69,78.53,170.69ZM80,162.74a11.81,11.81,0,0,1,1.83.73c1.52.67,2.65,1.66,2.65,3.45a1.31,1.31,0,0,1-1.33,1.32,1.48,1.48,0,0,1-1.16-.56c-.63-.86-.46-2.35-1.09-3.28-.33-.46-.66-.86-1-1.29,0-.07-.13-.13-.13-.2S79.86,162.74,80,162.74Zm5.43,21.33a8.84,8.84,0,0,1,1.69,1.12,3.12,3.12,0,0,1,1.39,2.55,1.33,1.33,0,0,1-1.22,1.43,1.31,1.31,0,0,1-1.16-.73c-.13-.33-.16-2.29-.36-3-.07-.3-.5-1.13-.5-1.26S85.35,184.07,85.38,184.07Zm13-8.41c.17-.2,1.13-1.43,1.46-1.43a6.19,6.19,0,0,1,2,2.22.36.36,0,0,1-.37.37H98.89l-.53.63v11.88c0,1.23.14,2.52.2,3.74a9.79,9.79,0,0,1-3,.77c.06-1.33.23-2.69.23-4,.07-4.34,0-8.68,0-13H93.3c-.17,5,.13,10.06-3.61,14a14.76,14.76,0,0,1-2.88,2.48,1.86,1.86,0,0,1-.66.36c-.07,0-.17,0-.17-.13s1.66-2,1.89-2.28a10.54,10.54,0,0,0,1.52-3.38c1.09-3.61,1.13-7.75,1.13-11.49v-5.73a19.2,19.2,0,0,0-.14-3.71,2.86,2.86,0,0,0-.29-1,.79.79,0,0,1-.17-.46c0-.17,0-.27.2-.27a15.7,15.7,0,0,1,3.58,1.26c1.42-.56,2.41-1,3.8-1.72a4.73,4.73,0,0,0,.86-.53.85.85,0,0,1,.37-.23c.16,0,.26.29.36.39s1.82,2.55,1.82,3.08c0,.13-.19.2-.33.2a7.64,7.64,0,0,1-.82-.1c-.3,0-.57-.06-.83-.06-1.72,0-3.45.13-5.13.19l-.4.53c0,2.45,0,4.9-.07,7.39Z"/><path class="cls-3" d="M108.37,188.87V166.29a12.68,12.68,0,0,0,0-1.63c-.06-.33-.33-1-.33-1.22s.13-.26.3-.26a14,14,0,0,1,3.08,1.58H115c.16-.19.73-1.06,1-1.06a6.21,6.21,0,0,1,2.52,1.66c0,.33-.53.7-.76.86v5.56c0,.86.1,1.76.13,2.62a12.62,12.62,0,0,1-2.71.73l.1-1.76h-4.41v15.76c0,1.23.1,2.49.17,3.71a17.33,17.33,0,0,1-2.92.73C108.2,192,108.37,190.39,108.37,188.87ZM115.29,166h-4.18l-.23.29v2.29h4.41Zm0,6.25V169.7h-4.41v2.51ZM114,178l-.66.39-1.19-1.72a20.31,20.31,0,0,0,2,.2h9.67c.13-.13,1-1.13,1.29-1.13a5.59,5.59,0,0,1,2,2,.28.28,0,0,1-.26.24h-3l-.3.49v7.85l.73-.1c.07-.07,1-1.39,1.26-1.39s2.22,1.49,2.22,2c0,.16-.27.26-.43.29l-3.78.37v2c0,.76.07,1.56.1,2.32a11.35,11.35,0,0,1-2.81.7c.07-.93.2-1.92.2-2.85v-2l-7.29.7-.63.46-1.68-1.59a19.4,19.4,0,0,0,3.24-.1V178Zm7.06,2.15V178h-3.61l-.33.43v1.72Zm0,3.11v-2h-3.94v2Zm0,3.31v-2.22h-3.94v2.55Zm7.61-22.91a8.91,8.91,0,0,1,2.06,1.09c.23.13.79.5.79.83s-.63.73-.93.89v24.44a4.8,4.8,0,0,1-.33,1.92c-.33.79-2.61,1.13-3.34,1.23-.27-1.36-.53-1.93-1.86-2.46-.16-.06-1.12-.33-1.12-.56a.19.19,0,0,1,.26-.16c.8.06,1.59.2,2.42.2,1,0,1.32-.2,1.32-1.26V173.54h-4.6v.93c-.89.19-1.75.53-2.65.63,0-1,.14-1.93.14-2.85v-6.06c0-.4,0-.8,0-1.16s-.34-.86-.34-1.09.14-.2.27-.2a9.29,9.29,0,0,1,2.78,1.16h4.14C127.77,164.7,128.3,163.64,128.66,163.64Zm-.73,5v-2.55h-4.2l-.4.3v2.25Zm0,3.71V169.8h-4.6v2.55Z"/><rect class="cls-4" x="12.18" y="213.06" width="125.55" height="10.19"/><rect class="cls-4" x="134.61" y="213.06" width="255.29" height="10.19"/><path class="cls-5" d="M222.16,51.24s26.39-19.76,54.15-6.06,8.3,23.43,8.3,23.43L216,80.39l-8.87-11.21Z"/><path class="cls-6" d="M222.16,51.24s26.39-19.76,54.15-6.06,8.3,23.43,8.3,23.43L216,80.39l-8.87-11.21Z"/><path class="cls-7" d="M230.91,68a29,29,0,0,0,3.58,5.91c1.57,2,5.4,6,8,6.33-.06-.65-.14-1.33-.21-2a19.23,19.23,0,0,0,8.28,1.19,9.84,9.84,0,0,0,6.92-4,19.54,19.54,0,0,1,.59,2.78c2.72-2.55,5.3-7.71,7-12.55h0c-3.85,18.95-5.1,37.84-6.55,56.79a123.38,123.38,0,0,0-.52,16.85,34.49,34.49,0,0,1-.19,4.61c-.5,5.45-1.73,13.83-2.74,21.73l-.63-.08c-1.58-2.27-5.66-8.39-9.05-13.85a75.59,75.59,0,0,1-4.9-8.71c-9.28-23.25-9.53-49.43-9.62-75Z"/><g class="cls-8"><polygon class="cls-9" points="276.83 73.39 231.96 99 231.96 82.03 276.83 57.47 276.83 73.39"/><polygon class="cls-10" points="276.83 89.31 231.96 115.98 231.96 99 276.83 73.39 276.83 89.31"/><polygon class="cls-11" points="276.83 105.22 231.96 132.96 231.96 115.98 276.83 89.31 276.83 105.22"/><polygon class="cls-9" points="277.34 169.37 232.47 194.99 232.47 178.01 277.34 153.45 277.34 169.37"/><polygon class="cls-10" points="277.34 185.29 232.47 211.97 232.47 194.99 277.34 169.37 277.34 185.29"/><polygon class="cls-11" points="277.34 201.21 232.47 228.94 232.47 211.97 277.34 185.29 277.34 201.21"/><polygon class="cls-9" points="276.83 121.14 231.96 149.94 231.96 132.96 276.83 105.22 276.83 121.14"/><polygon class="cls-10" points="276.83 137.06 231.96 166.91 231.96 149.94 276.83 121.14 276.83 137.06"/><polygon class="cls-11" points="276.83 152.97 231.96 183.89 231.96 166.91 276.83 137.06 276.83 152.97"/></g><g class="cls-12"><path class="cls-13" d="M256.53,109.78c-5.37,8.41-11.25,13.76-17.17,12.26a92.87,92.87,0,0,0,12,41.9l15.35,7.88,2.92-8.56c-7.75-10.7-10.19-24.07-11.68-37.11Q257.06,118,256.53,109.78Z"/></g><path class="cls-14" d="M249.15,64a10.3,10.3,0,0,0,1.49-.6h0a4.63,4.63,0,0,1,2.21,1.87,42.52,42.52,0,0,1,4.62,10.09,9.84,9.84,0,0,1-6.92,4,19.23,19.23,0,0,1-8.28-1.19c-.46-4.44-.92-10-.19-14A13.06,13.06,0,0,0,249.15,64Z"/><path class="cls-15" d="M249.15,64a10.3,10.3,0,0,0,1.49-.6h0a4.63,4.63,0,0,1,2.21,1.87,42.52,42.52,0,0,1,4.62,10.09,9.84,9.84,0,0,1-6.92,4,19.23,19.23,0,0,1-8.28-1.19c-.46-4.44-.92-10-.19-14A13.06,13.06,0,0,0,249.15,64Z"/><path class="cls-7" d="M244.63,63.78c-.74,4-1.36,15.13-2.15,16.45-2.59-.29-6.42-4.31-8-6.33A29,29,0,0,1,230.91,68a23,23,0,0,1-1-2.88c-.06-.22-.1-.44-.15-.65l0,0c-2.24-5.66-.52-18.63-.52-18.63l7.67-3.26Z"/><path class="cls-5" d="M230.89,68c.09,25.53.34,51.71,9.62,75a75.59,75.59,0,0,0,4.9,8.71c-11.1-13.67-22.11-38.2-25.82-55.37-.69-3.2-1-5.21-2.92-7.93a.1.1,0,0,1,0,0c2.7-7.32,6.42-13.73,12.33-18.8C229.61,69,230.24,68.49,230.89,68Z"/><path class="cls-16" d="M333.81,151.62a11.3,11.3,0,0,1,1.71,5c.31,3.3-.61,6.62-1.66,9.81-2.52,7.64-4.11,15.52-8.14,22.54a1.58,1.58,0,0,0-.67-.23c-3.71-.65-6.28-2.69-10.05-2.37.31-6-.66-12.61-.87-18.66a35,35,0,0,1,1.92-14c-4.14-6.08-7.15-16.47-9.39-23.45q-3.21-9.95-6.42-19.94c-.41,1.36-.83,2.7-1.25,4q-4,13-8.09,25.83c-.09.29-.19.59-.29.89a11.76,11.76,0,0,0,.64,3.92c1.49,5.32,3.2,11,7.59,14.53,6.88,4.18-3,14.15-11.58,18.44-10.49,5.28-23.17,1.57-33.36,7.27-.74-3,.08-11.06,1.19-19.68,1-7.9,2.24-16.28,2.74-21.73,3.41-20.08,15.14-42.14,23.9-60.21,1.26-2.59,2.65-5.27,5-7a170.61,170.61,0,0,0-19.9-10.4c4-.93,9.21-2.51,13-.91a48.65,48.65,0,0,0-3.54-19.57q13.65,3.65,27.61,6c3.62.62,7.49.39,9.51,3.33,12.17,20.36,21.57,41.48,23.2,64.61A91.39,91.39,0,0,1,333.81,151.62Z"/><path class="cls-17" d="M280.19,117.79c-12.51,7.43-20,22.08-20,36.63a51.63,51.63,0,0,0,8.11,27.24c6.46-.56,13.07-.68,19-3.66,8.54-4.29,18.46-14.25,11.58-18.44-4.39-3.57-6.1-9.21-7.59-14.53a11.66,11.66,0,0,1-.64-3.91c.1-.3.2-.6.29-.9q4-12.87,8.09-25.83c.16-.52.33-1.06.49-1.59A36.72,36.72,0,0,0,280.19,117.79Z"/><path class="cls-18" d="M333.81,151.62a91.39,91.39,0,0,0,2.82-31.85c-1.63-23.13-11-44.25-23.2-64.61A5.79,5.79,0,0,0,310.58,53a123.44,123.44,0,0,0-9.85,58.9q3,9.21,5.93,18.39c2.24,7,5.25,17.37,9.39,23.45a35,35,0,0,0-1.92,14c.21,6.05,1.18,12.65.87,18.66,3.77-.32,6.34,1.72,10.05,2.37a1.58,1.58,0,0,1,.67.23c4-7,5.62-14.9,8.14-22.54,1.05-3.19,2-6.51,1.66-9.81A11.3,11.3,0,0,0,333.81,151.62Z"/><path class="cls-19" d="M317.54,112.42c3.61,11.11,10.21,20.94,18.38,29.36a96.64,96.64,0,0,0,.72-22c-1.27-17.85-7.16-34.5-15.37-50.53C313.9,81.94,313,98.27,317.54,112.42Z"/><path class="cls-7" d="M259.76,40.34l4.23.75a29.93,29.93,0,0,1,3,17.49,42,42,0,0,1-1.9,7,.36.36,0,0,1,0,.09c-1.72,4.84-4.54,11.3-7.25,13.86-.11-.89-2-8.78-5.78-12.73-.58-.61-3.15-3.36-4-3.6h0Z"/><path class="cls-20" d="M206.82,60.27a118.2,118.2,0,0,0-10,7.57c-2.58,2.19-5,4.48-7.34,6.86q-1.37,5.58-2.32,11.19a29.76,29.76,0,0,0,5.09-2.36,30.14,30.14,0,0,0,8.32-7.18c.38-.48.74-1,1.09-1.46a29.29,29.29,0,0,0,2.46-4.28,4.16,4.16,0,0,0,1.13-.9l.42-2.51-.26.17A29.76,29.76,0,0,0,206.82,60.27Z"/><path class="cls-16" d="M255.09,165.6l-.63-.08c-1.58-2.27-5.66-8.39-9.05-13.85-11.1-13.67-22.11-38.2-25.82-55.37-.69-3.2-1-5.21-2.92-7.93a.1.1,0,0,1,0,0c2.7-7.32,6.42-13.73,12.33-18.8h0A67.67,67.67,0,0,0,216.73,73a44.72,44.72,0,0,1,5.43-21.74,133,133,0,0,0-25.38,16.6c-2.58,2.19-5,4.48-7.34,6.86A146.26,146.26,0,0,0,187.08,135c5.11,10.9,9.89,12.7,23.2,6.75a76.16,76.16,0,0,0,12.15,20.77l-.19.13c-3.47,8.58-14.22,13.14-17.21,21.81,15.35-7.35,33.57-6.72,48.87.84C253.16,182.26,254,174.22,255.09,165.6Z"/><path class="cls-5" d="M258.54,122.41c1.45-19,2.7-37.84,6.55-56.79h0a.36.36,0,0,0,0-.09h0c.57.24,1.15.48,1.73.74a170.61,170.61,0,0,1,19.9,10.4c-2.38,1.72-3.77,4.4-5,7-8.76,18.07-20.49,40.13-23.9,60.21a34.49,34.49,0,0,0,.19-4.61A123.38,123.38,0,0,1,258.54,122.41Z"/><path class="cls-21" d="M230.89,68c.09,25.53.34,51.71,9.62,75a75.59,75.59,0,0,0,4.9,8.71c-11.1-13.67-22.11-38.2-25.82-55.37-.69-3.2-1-5.21-2.92-7.93a.1.1,0,0,1,0,0c2.7-7.32,6.42-13.73,12.33-18.8C229.61,69,230.24,68.49,230.89,68Z"/><path class="cls-22" d="M258.54,122.41c1.45-19,2.7-37.84,6.55-56.79h0a.36.36,0,0,0,0-.09h0c.57.24,1.15.48,1.73.74a170.61,170.61,0,0,1,19.9,10.4c-2.38,1.72-3.77,4.4-5,7-8.76,18.07-20.49,40.13-23.9,60.21a34.49,34.49,0,0,0,.19-4.61A123.38,123.38,0,0,1,258.54,122.41Z"/><path class="cls-16" d="M333.81,151.62a11.3,11.3,0,0,1,1.71,5c.31,3.3-.61,6.62-1.66,9.81-2.52,7.64-4.11,15.52-8.14,22.54a1.58,1.58,0,0,0-.67-.23c-3.71-.65-6.28-2.69-10.05-2.37.31-6-.66-12.61-.87-18.66a35,35,0,0,1,1.92-14Z"/><path class="cls-23" d="M230.69,46.92a5.47,5.47,0,0,1-4.89.52,6.86,6.86,0,0,1-3.18-4.07,3.8,3.8,0,0,1-.23-1.53,3.09,3.09,0,0,1,1.1-2.08,3.23,3.23,0,0,1,4.82.61c.48,1.37,1,2.83,1.46,4.47.23.55.48,1.1.72,1.63h0C230.56,46.63,230.63,46.77,230.69,46.92Z"/><path class="cls-24" d="M223.88,44.55a3.09,3.09,0,0,1,1.1-2.08,3.16,3.16,0,0,1,4-.21c-.22-.65-.43-1.28-.64-1.89a3.23,3.23,0,0,0-4.82-.61,3.09,3.09,0,0,0-1.1,2.08,3.78,3.78,0,0,0,.23,1.53,7.69,7.69,0,0,0,1.49,2.7A4.1,4.1,0,0,1,223.88,44.55Z"/><path class="cls-23" d="M225.87,18.71c.28,3.76,1.93,7.31,3.47,10.7,1.26,2.35,4.36,3.07,6.78,2.41s4.46-2.38,6.47-4,4.15-3.23,6.62-3.61a10.85,10.85,0,0,1,3,0,7.35,7.35,0,0,1,.92.75c2,1.83,3.14,4,4.69,6.31.28,1,.52,2.05.71,3.09.31,1.67,1.48,3.57,1.55,5.28a38.52,38.52,0,0,1,0,4.43,36.89,36.89,0,0,1-2.57,11.15,17.65,17.65,0,0,1-7.63,8.31,10.18,10.18,0,0,1-1.21.55,9.51,9.51,0,0,1-5.71.15,11,11,0,0,1-2.29-.88A17.63,17.63,0,0,1,234.18,58a5.77,5.77,0,0,1-1-1.65c-.72-1.72-.8-3.76-1.22-5.74-.06-.26-.12-.52-.2-.78a29.09,29.09,0,0,0-3.12-6.39l-.2-.36h0c-1.12-2.48-1-3.56-.79-6.32a6.46,6.46,0,0,1,.44-2.28c.32-.68.58-1.16,1.26-1.2-.07,0,.19.14,0,0A11.77,11.77,0,0,1,227,29.09a30.23,30.23,0,0,1-1.69-9.38C225.46,19.38,225.66,19,225.87,18.71Z"/><path class="cls-25" d="M229.34,33.28s.85-1.08,3.66-1.36-5.74-15.17-5.74-15.17-2.88,3.27-3,5C223.58,32.41,229.34,33.28,229.34,33.28Z"/><path class="cls-26" d="M226.24,38.1c-1.16-2.72-2.32-5.06-3.91-8.09a1.63,1.63,0,0,1-.17-1.69c.72-2.07,1.18-5.13,3.12-8.61A30.23,30.23,0,0,0,227,29.09a11.77,11.77,0,0,0,2.42,4.19h0c-.68,0-.94.52-1.26,1.2a6.46,6.46,0,0,0-.44,2.28c-.2,2.76-.33,3.84.79,6.32-.25-.44-.49-.88-.72-1.33C227.2,40.41,226.72,39.22,226.24,38.1Z"/><path class="cls-27" d="M225.28,19.71c-1.94,3.48-2.4,6.54-3.12,8.61a1.63,1.63,0,0,0,.17,1.69c1,1.83,1.76,3.4,2.51,5a38.33,38.33,0,0,0,1.72-7.24A27.63,27.63,0,0,1,225.28,19.71Z"/><path class="cls-26" d="M247.61,9.68a10,10,0,0,1,5.2,3.36c.16.18.32.38.47.58a21.38,21.38,0,0,1,3.34,8.9,4.35,4.35,0,0,0-3.86-1.7,7.28,7.28,0,0,1,2.87,3.7c.05.12,0,.42-.15.45a24,24,0,0,0-3.26-.73,10.85,10.85,0,0,0-3,0c-2.47.38-4.62,2-6.62,3.61s-4,3.34-6.47,4-5.52-.06-6.78-2.41c-1.54-3.39-3.19-6.94-3.47-10.7a25.51,25.51,0,0,1,5.71-6.28A15.8,15.8,0,0,1,240.4,8.6,13.18,13.18,0,0,1,247.61,9.68Z"/><path class="cls-28" d="M249.58,17.36c2,2.35.17,4.71-2.48,5.26-2.2.46-4.46-.63-6.67-.5a10,10,0,0,0-9,7.82c-.1.4-.73.29-.63-.12a10.32,10.32,0,0,1,10.72-8.33l1.37.17q4,1.21,6.11-3.94c-.27-.31.26-.67.53-.36Z"/><path class="cls-29" d="M258.72,21a51,51,0,0,1,.94,12.07,5,5,0,0,0-1.12,1.33c-.19-1-.43-2.07-.71-3.09-1.55-2.28-2.69-4.48-4.69-6.31a7.35,7.35,0,0,0-.92-.75,24,24,0,0,1,3.26.73c.12,0,.2-.33.15-.45a7.28,7.28,0,0,0-2.87-3.7,4.35,4.35,0,0,1,3.86,1.7,21.38,21.38,0,0,0-3.34-8.9c-.15-.2-.31-.4-.47-.58h0c1.19.82,3.64,3.5,4.78,4.39C258,17.75,258.65,20.54,258.72,21Z"/><path class="cls-23" d="M263.37,39a6.13,6.13,0,0,1-4.92,1.89h0a64.32,64.32,0,0,0-.72-7.75,8,8,0,0,1,1.4-2.05,11.14,11.14,0,0,1,1.11-1A4.14,4.14,0,0,1,263.38,29a3.13,3.13,0,0,1,2.46,2.57,5.69,5.69,0,0,1,.06,1.54A9.49,9.49,0,0,1,263.37,39Z"/><path class="cls-30" d="M265.84,31.61A3.13,3.13,0,0,0,263.38,29a4.14,4.14,0,0,0-3.15,1.12,11.14,11.14,0,0,0-1.11,1,7.34,7.34,0,0,0-1,1.33c-.09-.39-.19-.77-.29-1.15-1.55-2.28-2.69-4.48-4.69-6.31a7.35,7.35,0,0,0-.92-.75,9.32,9.32,0,0,0-7.28,1.8,17.53,17.53,0,0,1,1.73.44c5.19,1.65,9.38,5.7,12.34,11.37-.09-1.08-.24-2.15-.43-3.21a6.76,6.76,0,0,1,.54-.64,12.62,12.62,0,0,1,1.11-1,4.17,4.17,0,0,1,3.15-1.11,3.07,3.07,0,0,1,2.38,2.28,9.14,9.14,0,0,0,.14-1.05A5.69,5.69,0,0,0,265.84,31.61Z"/><path class="cls-31" d="M240.3,39.13s3.5,6.72,2.37,11.63,0,5,0,5,3.77-1.77,3.62-2.53S243.76,41.72,240.3,39.13Z"/><ellipse class="cls-26" cx="236.86" cy="46.63" rx="1.28" ry="2.18" transform="matrix(0.98, -0.21, 0.21, 0.98, -4.53, 49.75)"/><ellipse class="cls-26" cx="249.84" cy="43.08" rx="1.31" ry="2.25" transform="translate(-3.52 52.35) rotate(-11.88)"/><path class="cls-32" d="M247.83,58.68a3,3,0,0,1-3.2,0c-.23-.15-.58-.53-.46-.83s.51-.24.75-.2c1.7.25,2.85-.84,4-1.92a8.19,8.19,0,0,0,.93-1.24c.3-.42.68-.87,1.12-.42a1.5,1.5,0,0,1,.23,1.27,5.92,5.92,0,0,1-2.72,3.1C248.25,58.51,248,58.58,247.83,58.68Z"/><path class="cls-33" d="M231,40.67c0-.52.92-1.5,1.53-1.61a6,6,0,0,1,3.52.22c.33.15,1,.91.83,1.49s-.84.51-1.29.51c-.84,0-1.29-.41-2.36-.32C232.28,41.11,231,41.83,231,40.67Z"/><path class="cls-33" d="M248.52,35.62a3.63,3.63,0,0,0-3.43,1.52c-.14.2-.53.47-.75.29s-.11-.75,0-1a4.11,4.11,0,0,1,4.21-2.71,26.36,26.36,0,0,1,3.64,1c.46.13,1,.37.76,1-.12.29-.76.46-1.15.42C250.59,36,249.39,35.63,248.52,35.62Z"/><path class="cls-34" d="M245.32,54a12.66,12.66,0,0,1-2.32.78c1.26-5.28.47-11.55-2.91-15.86a43.42,43.42,0,0,1,1.74,12.21c0,.64-.7,4.31-.31,4.65,1.15,1,4.33-1,4.73-2.5l-.93.72C245,54.15,245.66,53.8,245.32,54Z"/><path class="cls-35" d="M254.86,21.26l-1.06-.8c-7.56-5.89-14.77-7.37-21.62-5.3a24.22,24.22,0,0,0-3.62,1.76,7.93,7.93,0,0,1,2.32-2.72,18.15,18.15,0,0,1,12.37-4.14c1.43,1,2.83,2.13,4.17,3.25a41.1,41.1,0,0,1,5.75,5.75c.38.49.77,1,1.16,1.46l0,.05Z"/><path class="cls-36" d="M228.39,19.61a31.2,31.2,0,0,1,14.81,0,34.07,34.07,0,0,1,11.64,5.05,5.2,5.2,0,0,0,1,.4c-2.15-1.67-4.21-3.52-6.47-5-7.9-5.06-16-4.73-20.58-1.36C228.52,18.87,228.51,19.3,228.39,19.61Z"/><path class="cls-37" d="M243.11,62.31c-5.07,0-8.38-3-10.48-7.66a9.43,9.43,0,0,0,.48,1.59,5.59,5.59,0,0,0,1,1.64,17.37,17.37,0,0,0,6.38,5.38,11.84,11.84,0,0,0,2.27.88,9.24,9.24,0,0,0,5.65-.16,8.5,8.5,0,0,0,1.19-.54,17.59,17.59,0,0,0,7.55-8.31A36.25,36.25,0,0,0,259,48.78C256.08,56.89,250.44,62.31,243.11,62.31Z"/><path class="cls-26" d="M261.69,49.77l-1.57-9.21-1.78-1.66c.37,3,1,9.1,0,12.34-2.08,4.73-2.5,8.3-9.15,11.66-6.33,3.21-12.91-2.78-12.77-2.53l0,0A8.1,8.1,0,0,0,241,64.1a35.18,35.18,0,0,1,4.88,2c2.75.05,9.12-3.51,10.77-5.73C257.83,56.91,261.78,50.75,261.69,49.77Z"/><path class="cls-38" d="M261.48,48.56l-1.36-8-1.78-1.66c.37,3,1,9.1,0,12.34-1.41,3.21-2.07,5.88-4.41,8.32A17.26,17.26,0,0,0,261.48,48.56Z"/><path class="cls-39" d="M326.3,79.89a216.76,216.76,0,0,0-12.86-24.71c-2-2.94-5.89-2.72-9.52-3.34-1.63-.28-3.25-.58-4.87-.89A49.37,49.37,0,0,0,326.3,79.89Z"/><path class="cls-40" d="M333.81,151.62a11.3,11.3,0,0,1,1.71,5c.31,3.3-.61,6.62-1.66,9.81-2.52,7.64-4.11,15.52-8.14,22.54a1.58,1.58,0,0,0-.67-.23c-3.71-.65-6.28-2.69-10.05-2.37.31-6-.66-12.61-.87-18.66a35,35,0,0,1,1.92-14Z"/><path class="cls-41" d="M186,93.59A142.16,142.16,0,0,0,187.08,135c4.56-10.52,8.55-20.91,12.31-31.69A119,119,0,0,0,186,93.59Z"/><path class="cls-42" d="M213.33,117.05a136.63,136.63,0,0,1-3.05,24.68,76.16,76.16,0,0,0,12.15,20.77l-.19.13c-3.47,8.58-14.22,13.14-17.21,21.81a55,55,0,0,1,35.9-3.73A118.61,118.61,0,0,0,223,130,116,116,0,0,0,213.33,117.05Z"/><path class="cls-43" d="M332.47,220.27C326,210,315.38,202.69,303.78,199.11s-24.42-3.56-36.45-1.09c-4.49.92-8.53,6-12.9,4.59-35.54-11.52-67,5-67,5-10,7.11-14,15.3-19.83,25.53a21.36,21.36,0,0,1,15.14,12c.09-.14.18-.27.26-.42,3.34-7.15,8.55-11.57,15-16.07,15.94-11.05,34.43-16,53.7-18.17a85,85,0,0,1,45.54,3.3c8.8,3.05,19.16,10.57,25.43,18.52A30.4,30.4,0,0,1,332.47,220.27Z"/><path class="cls-44" d="M332.47,220.27C326,210,315.38,202.69,303.78,199.11s-24.42-3.56-36.45-1.09c-4.49.92-8.53,6-12.9,4.59-35.54-11.52-67,5-67,5-10,7.11-14,15.3-19.83,25.53a21.36,21.36,0,0,1,15.14,12c.09-.14.18-.27.26-.42,3.34-7.15,8.55-11.57,15-16.07,15.94-11.05,34.43-16,53.7-18.17a85,85,0,0,1,45.54,3.3c8.8,3.05,19.16,10.57,25.43,18.52A30.4,30.4,0,0,1,332.47,220.27Z"/><path class="cls-45" d="M170.62,231.86s39-37.65,75.22-31.69"/><path class="cls-45" d="M173.1,233.44s33.86-35.3,74.22-31.63"/><path class="cls-45" d="M175.57,235s28.74-32.95,73.24-31.56"/><path class="cls-45" d="M178.05,236.59s23.61-30.6,72.24-31.51"/><path class="cls-45" d="M180.52,238.16s18.49-28.25,71.25-31.44"/><path class="cls-45" d="M329.85,218.83s-33.05-30.41-73-20.31"/><path class="cls-45" d="M328.4,221.24s-27.4-29.63-71.68-21.55"/><path class="cls-45" d="M326.94,223.65s-21.73-28.85-70.35-22.79"/><path class="cls-45" d="M325.49,226.07s-16.08-28.09-69-24"/><path class="cls-45" d="M324,228.48s-10.42-27.31-67.7-25.28"/><path class="cls-46" d="M182.69,245.67c3.34-7.15,8.89-12.48,15.38-17,15.94-11.05,34.43-16,53.7-18.17a85,85,0,0,1,45.54,3.3c8.8,3.05,19.76,11.68,26,19.62l1.76-3.1c-6.27-7.94-19-17.27-27.79-20.33a85,85,0,0,0-45.54-3.29c-19.27,2.19-37.76,7.12-53.7,18.17-6.49,4.49-14.21,11-17.55,18.15Z"/><path class="cls-47" d="M251.74,204.88c-32-3.26-62,3.53-89.1,20.88,7.33-16.66,15.8-33.37,24.36-49.44l66.61-5Z"/><path class="cls-48" d="M187,176.32q-4.94,9.27-9.77,18.77c4.6,5.22,13.26,10.5,29.61,12.17a141.66,141.66,0,0,1,44.9-2.38l1.87-33.59Z"/><path class="cls-49" d="M331.85,162.78l-.51-6.43c-23.54-6.11-54.49-3.72-76.25,7.13-16.81-9.91-42.29-15.13-61.27-10.6-4,6.91-8.18,13.89-12.31,20.92-6.51,11.07-13,22.24-18.79,33.42,28.5-11.82,59.64-11.73,89-2.34l.4-.12a111.15,111.15,0,0,1,17.38-4,114.56,114.56,0,0,1,66.15,9.94Z"/><path class="cls-50" d="M255.09,163.48c-16.81-9.91-42.29-15.13-61.27-10.6-4,6.91-8.18,13.89-12.31,20.92a28.94,28.94,0,0,0,5.05,1.45c10.44,1.92,21.14-.57,31.75-.62s22.56,3.41,27.28,12.91c2,4,2.44,8.61,4,12.79a16.52,16.52,0,0,0,2.52,4.43,111.15,111.15,0,0,1,17.38-4c.48-.72.94-1.44,1.38-2.14,13.14-20.66,36.66-33.82,61-35.83l-.51-6.43C307.8,150.24,276.85,152.63,255.09,163.48Z"/><polygon class="cls-51" points="204.2 114.28 203.64 110.69 215.96 104.7 232.71 106.91 231.88 111.15 204.2 114.28"/><path class="cls-52" d="M216,108.89c0,.62-1.21,64.41-1.21,64.41s13.33-.4,15.33-.55c0-.59,3.49-62.25,3.49-62.25S220.27,109.42,216,108.89Z"/><path class="cls-53" d="M216,108.89c-3.41,1.53-12.7,5.39-12.7,5.39s3.39,44.43,3.82,55.81c0,.89.15,2.66.15,2.66s5.69.55,8.09.55C215.58,155.07,215.61,133.65,216,108.89Z"/><path class="cls-51" d="M212,119.81c0,1.23.07,2.28,0,3.32,0,.19-.41.5-.66.52-1.12.08-2.26.08-3.39.1-.12,0-.37,0-.37-.1a11,11,0,0,1-.29-2.28c0-.26.49-.62.88-.73C209.29,120.33,210.49,120.12,212,119.81Z"/><path class="cls-54" d="M211.87,124.54a26.88,26.88,0,0,1,0,2.84c0,.16-.67.39-1,.4-1.11,0-2.87.26-3.19-.11-.56-.63-.26-1.65-.23-2.51,0-.13.47-.32.76-.35C209.36,124.69,210.57,124.63,211.87,124.54Z"/><path class="cls-55" d="M212,115.37c0,1,.07,1.9,0,2.8a.91.91,0,0,1-.57.63c-1.27.34-2.58.62-3.88.92C206.59,117.22,207.54,116.28,212,115.37Z"/><path class="cls-51" d="M211.72,162.48l.05,2.54c-3.15.31-3.88-.13-3.32-2a1.2,1.2,0,0,1,.87-.49A23.4,23.4,0,0,1,211.72,162.48Z"/><path class="cls-51" d="M212.12,167.07c-.14.39-.16,1.05-.46,1.1a5.75,5.75,0,0,1-2.63,0,2.92,2.92,0,0,1-.51-2c0-.11.69-.24,1.07-.36a1,1,0,0,1,.24,0C212.15,165.82,211.89,165.58,212.12,167.07Z"/><path class="cls-55" d="M211.82,128.74a6.24,6.24,0,0,1,.09.8c-.19,2.53.72,2.12-3.34,2.11-.33,0-.72-.4-1-.65-.12-.1,0-.31,0-.47-.08-1.55-.08-1.55,2.1-1.63C210.3,128.87,211,128.8,211.82,128.74Z"/><path class="cls-51" d="M208.48,171a9.5,9.5,0,0,1,0-1.5c0-.17.34-.33.57-.46a1.84,1.84,0,0,1,.57-.09c2.27-.16,3,.36,2.37,1.69a1.09,1.09,0,0,1-.72.35C210.38,171,209.51,171,208.48,171Z"/><path class="cls-55" d="M211.69,135.84c0,.37,0,.65,0,.92,0,1.71,0,1.68-2.51,1.63-1,0-1.42-.24-1.42-1,0-2-.31-1.55,2.64-1.62C210.77,135.79,211.13,135.82,211.69,135.84Z"/><path class="cls-55" d="M211.61,159.7l0,2a4.93,4.93,0,0,1-.53.08c-2.79.13-3.26-.24-2.51-2.05Z"/><path class="cls-56" d="M211.46,139.21l.06,2.64a13.06,13.06,0,0,1-3.39-.56c-.44-.21-.45-1.56,0-1.71A13.65,13.65,0,0,1,211.46,139.21Z"/><path class="cls-51" d="M211.66,132.58c.38,2.12-.81,2.8-3.46,2.15a.83.83,0,0,1-.5-.47c-.44-1.46-.17-1.67,2-1.68C210.34,132.57,211,132.58,211.66,132.58Z"/><path class="cls-51" d="M211.36,148.19l0,1.11,0,1.36c-1.12,0-2.48.14-3-.19a1.31,1.31,0,0,1-.08-1.8C208.82,148.28,210.17,148.35,211.36,148.19Z"/><path class="cls-55" d="M209.77,144.57c-1.73,0-1.73,0-1.75-1.14s.06-1,2.12-1c1,0,1.46.12,1.41.87C211.47,144.58,211.54,144.58,209.77,144.57Z"/><path class="cls-55" d="M211.33,145.28l0,2.34a12.59,12.59,0,0,1-3-.38c-.37-.15-.43-1.32-.07-1.49A13.05,13.05,0,0,1,211.33,145.28Z"/><path class="cls-56" d="M208.49,158.54c0-.22-.08-.39-.1-.57-.09-1.3.41-1.61,2.49-1.47.23,0,.45.22.66.35,0,0,0,.1,0,.16C211.84,158.59,211.56,158.74,208.49,158.54Z"/><path class="cls-55" d="M209.9,155.85c-1.15.17-1.66-.09-1.61-.91.07-1.05,0-1,2.14-1.05,1.56,0,.92.69,1.06,1.14C211.77,155.89,210.94,156,209.9,155.85Z"/><path class="cls-54" d="M211.3,151.3l0,1.91a22,22,0,0,1-2.94-.29c-.2,0-.28-1,0-1.12A21.32,21.32,0,0,1,211.3,151.3Z"/><path class="cls-51" d="M222.3,163.89l-.09,5H220l0-5.22Z"/><path class="cls-51" d="M227,165c0-1-.31-1.1-2.49-.88,0,1.3-.05,2.62-.11,3.92,0,1.11,0,1.15,2.46,1C226.91,167.68,227,166.35,227,165Z"/><path class="cls-56" d="M224.2,114.56c0-1.59,0-1.63-2.88-1.56a8.53,8.53,0,0,0-.12,1c0,1.82,0,3.62,0,5.39,0,1.32.19,1.39,2.86,1.16C224.11,118.63,224.15,116.61,224.2,114.56Z"/><path class="cls-51" d="M227.54,151.85c0-.16-.64-.39-1.06-.45-.67-.1-1.16,0-1.17.51,0,1-.12,2-.17,3s0,1.7-.07,2.57l2.32.11C227.46,155.61,227.55,153.74,227.54,151.85Z"/><path class="cls-51" d="M220.68,144.58c-.06,1.72-.09,3.41-.16,5.09,0,.43,0,.75,1.08.77s1.21-.33,1.22-.8c.05-1.59.13-3.2.19-4.83,0-1.07,0-1.1-2.19-.9A4.67,4.67,0,0,0,220.68,144.58Z"/><path class="cls-54" d="M227.92,147.2c0-.86,0-1.73.11-2.6,0-.5-.22-.75-1.2-.75s-1.15.24-1.16.7c-.07,1.76-.14,3.51-.25,5.23,0,.45.18.66,1.08.67s1.23-.21,1.23-.7c0-.84.05-1.69.08-2.55Z"/><path class="cls-56" d="M222.73,152.11c0-.43,0-.73-1.09-.75s-1.2.32-1.21.79c0,1.4-.11,2.79-.15,4.16,0,1.07,0,1.07,2.36.94C222.67,155.54,222.69,153.83,222.73,152.11Z"/><path class="cls-51" d="M226.65,120.11c0,.65.46.81,1.43.81s1.19-.35,1.23-.84c.11-1.57.27-3.15.37-4.74s.1-1.65-2.84-1.77C226.78,115.79,226.74,118,226.65,120.11Z"/><path class="cls-56" d="M228.29,137.45c0-.18-.7-.46-1.13-.49s-1,.27-1.06.43c-.13,1.85-.16,3.68-.21,5.54h2.26C228.21,141.08,228.31,139.28,228.29,137.45Z"/><path class="cls-51" d="M220.73,141.88c0,1.11.22,1.21,2.27.94l.11-5.86h-2.33C220.77,138.7,220.75,140.3,220.73,141.88Z"/><path class="cls-51" d="M224.75,162.25c0,1.05.1,1.12,2.26.94l.16-4.75h-2.31C224.82,159.77,224.8,161,224.75,162.25Z"/><path class="cls-51" d="M222.41,158.32c-2.15-.17-2.16-.17-2.21.86s-.08,1.87-.11,2.8.12,1.05,2.24.92Z"/><path class="cls-51" d="M226.17,135.07c0,1,.08,1.1,2.16.86l.23-6.4h-2.23C226.28,131.43,226.23,133.26,226.17,135.07Z"/><path class="cls-54" d="M223.37,129.91c0-.2-.73-.49-1.18-.53-.29,0-1,.34-1,.53-.1,2-.09,3.94-.11,5.93l2.2.11C223.35,133.85,223.42,131.89,223.37,129.91Z"/><path class="cls-51" d="M229,122.59c0-.56-.24-.8-1.18-.83s-1.18.32-1.19.83c0,1.66-.07,3.3-.12,4.92,0,1.08.07,1.14,2.26.92C228.88,126.53,228.92,124.57,229,122.59Z"/><path class="cls-51" d="M221.32,122.78c0,1.45,0,2.89,0,4.31,0,.41.07.82.11,1.3.93-.12,2.08.32,2.11-.62.06-1.94.08-3.91.12-6C221.47,121.61,221.31,121.7,221.32,122.78Z"/><polygon class="cls-53" points="216.05 106.69 203.26 112.23 202.59 109.73 216.05 103.92 216.05 106.69"/><polygon class="cls-52" points="216.05 106.69 233.57 108.65 233.92 105.56 216.05 103.92 216.05 106.69"/><path class="cls-57" d="M240.3,182.11c-.39,0-11.44.6-11.85.61,0-.23-.09-.37-.11-.52-.19-2.51-.38-5.08-.59-7.68-.46-5.59-1-11.39-1.44-17.42-.53-6.68-1.06-13.66-1.63-20.95a4.76,4.76,0,0,0-.33-1.66c-.34-.73.05-1,.8-1.28,3.72-1.24,9.32-1.77,13-3Z"/><path class="cls-53" d="M238.14,130.21c.38,9.82.73,19,1.09,27.59q.5,12.3,1,23.33c2,.15,18.15-1.07,19.29-1.45.38-13.51.81-28.41,1.28-44.84Z"/><path class="cls-58" d="M227.6,156.67a2.21,2.21,0,0,0,.46.05l8.91-1.8c.83-.16.93-.56.9-1.1-.22-4.95-.42-10-.65-15.31a6.62,6.62,0,0,0-.2-1l-10.83,2.7C226.74,146,226.92,151.45,227.6,156.67Z"/><path class="cls-59" d="M228.24,155.94c-.35-2.9-.56-5.85-.79-9-.14-2-.29-4.07-.48-6.18l9.51-2.37s0,.07,0,.11q.13,3.21.26,6.35.19,4.56.39,9a1,1,0,0,1,0,.26h0a1.57,1.57,0,0,1-.32.1l-5.58,1.13Z"/><path class="cls-60" d="M247.16,135.89c1.83.38,3.43.66,5,1a1.73,1.73,0,0,1,.58,2.41,1.2,1.2,0,0,1-.88.15c-1.18-.2-2.39-.44-3.62-.71-1.08-.24-1.24-.45-1.23-1.49C247,136.91,247.07,136.53,247.16,135.89Z"/><path class="cls-61" d="M251.2,141c-.6-.09-1.21-.18-1.82-.24s-1.43-.12-2.11-.17c-.67,2.06-.46,2.4,1.44,2.61.72.08,1.42.16,2.12.22s1.24.06,1.91.1C253.11,141.41,253,141.26,251.2,141Z"/><path class="cls-61" d="M247.06,146c-.06,1.27.15,1.48,1.45,1.55,1.13.05,2.24.13,3.33.13a1.44,1.44,0,0,0,1-.28,1.39,1.39,0,0,0-.74-2.08c-.85-.1-1.72-.13-2.61-.18l-2.19-.08A6.36,6.36,0,0,0,247.06,146Z"/><path class="cls-61" d="M257.22,159.1c.14-1.27,0-1.57-1.08-1.63s-2-.08-3.07-.05-1.12.21-1.15,1.47a8.72,8.72,0,0,0,.13,1.19l4.89.09A7.35,7.35,0,0,0,257.22,159.1Z"/><path class="cls-23" d="M255.62,155.45c1.86.08,2-.15,1.93-2.56a2,2,0,0,0-.1-.32,8.18,8.18,0,0,0-5.2,0l0,2.64C253.46,155.32,254.54,155.41,255.62,155.45Z"/><path class="cls-61" d="M256.48,169.52l.1-2.23a22.33,22.33,0,0,0-4.68-.14l0,2.21A18.39,18.39,0,0,0,256.48,169.52Z"/><path class="cls-61" d="M252,162.29v2.19a10.21,10.21,0,0,0,4.81.2l.09-2.19A45.55,45.55,0,0,0,252,162.29Z"/><path class="cls-61" d="M243.26,152.48c-.43,0-.57.42-.55,1s.26,1,.74,1c1.46.16,2.92.32,4.38.44a3.39,3.39,0,0,0,.9-.17l0-2.44A23.75,23.75,0,0,0,243.26,152.48Z"/><path class="cls-23" d="M248.81,162.18c-2,0-3.84,0-5.69.07l.11,1.73,5.51.52Z"/><path class="cls-61" d="M248.34,167.1c-1.48,0-3,0-4.43.09-.35,0-.55.26-.54.71a.75.75,0,0,0,.68.82c1.46.15,2.92.27,4.38.39.1,0,.19-.12.32-.21a6.85,6.85,0,0,0,0-.79c0-.27-.06-.55-.09-.81C248.56,167.22,248.45,167.1,248.34,167.1Z"/><path class="cls-61" d="M243.85,159.41c1.33.18,2.66.29,4,.4a4.62,4.62,0,0,0,.92-.13l0-2.19-5.62.16C243,159.15,243,159.29,243.85,159.41Z"/><path class="cls-61" d="M234.16,162a1.2,1.2,0,0,0,.48-.92,16.16,16.16,0,0,0-.17-2.19,20.76,20.76,0,0,0-3.49,1.28c-.17.08-.29.55-.3.88a18.67,18.67,0,0,0,.15,1.9C232,162.6,233.09,162.35,234.16,162Z"/><path class="cls-61" d="M232.12,174.17c-.29.05-.45.33-.39.85s.12,1,.2,1.68a10.5,10.5,0,0,0,3.48-.31c.19,0,.35-.47.37-.8a16.87,16.87,0,0,0-.16-2Z"/><path class="cls-60" d="M234.66,166.48c.38-.14.45-1.21.21-2s-.61-.61-1-.51c-.71.19-1.41.4-2.08.62-1,.33-1.07.6-.65,2.75A14.6,14.6,0,0,0,234.66,166.48Z"/><path class="cls-61" d="M235,171.28c.17,0,.36-.41.36-.69a19.87,19.87,0,0,0-.22-2.05c-1.29.28-2.41.49-3.48.79-.17,0-.31.48-.33.79a14.4,14.4,0,0,0,.14,1.77C232.72,171.68,233.85,171.52,235,171.28Z"/><path class="cls-62" d="M266.91,178.09a7.2,7.2,0,0,1-4.68-1.47,3.35,3.35,0,0,1-1.32-2.43,2.88,2.88,0,0,1,.56-1.92,8.29,8.29,0,0,1,.73-.84c.12-.12.18-.21,0-.34a2.65,2.65,0,0,1-1-2.55,3.75,3.75,0,0,1,1.41-2.67.5.5,0,0,0,.08-.73,2.41,2.41,0,0,1-.36-2.08,3.84,3.84,0,0,1,1.57-2.43.82.82,0,0,0,.41-.79,2.18,2.18,0,0,1,.57-1.73,1.29,1.29,0,0,0,.16-.4c.24-.71.47-1.42.74-2.11a2.41,2.41,0,0,1,.48-.71.77.77,0,0,1,1.36.14,10.42,10.42,0,0,1,.57,1.53,4.81,4.81,0,0,1,.13.66,1.77,1.77,0,0,0,.27.8,3.38,3.38,0,0,1,.56,2.1.45.45,0,0,0,.13.32,2.65,2.65,0,0,1,1.44,2.11,4.05,4.05,0,0,1-.55,2.84.43.43,0,0,0,.14.66,3.57,3.57,0,0,1,1.23,4.37c-.12.33-.26.65-.39,1a.35.35,0,0,0,.09.45,3.32,3.32,0,0,1,1,2.11,3,3,0,0,1-.68,2.07,5.55,5.55,0,0,1-3.38,1.9C267.72,178,267.2,178.06,266.91,178.09Z"/><path class="cls-63" d="M305,157.07a2.22,2.22,0,0,1,1.65.93,8.4,8.4,0,0,1,1.5,2.91c.28.84.46,1.72.72,2.57.15.46.41.88.59,1.32a5.85,5.85,0,0,1-1.1,6.24,4.25,4.25,0,0,1-6.09.1,5.88,5.88,0,0,1-1.45-2.29,1.21,1.21,0,0,0-.09-.2l-.25-1.38a.68.68,0,0,0,0-.14,6.5,6.5,0,0,1,.56-2.88,4.14,4.14,0,0,0,.28-.84,19.67,19.67,0,0,1,1.06-3.61,4.64,4.64,0,0,1,2.1-2.64Z"/><path class="cls-64" d="M298.55,140.53a141.73,141.73,0,0,0,9.25,10.85,8.22,8.22,0,0,0-1.67,1.51c-.28-.3-.56-.62-.83-.94a60.12,60.12,0,0,1-7.16-10.38l-.12-.1Z"/><path class="cls-65" d="M277.54,176.15l.1.09c.11,1.46.28,3.19.38,4.56l-2.56-.71c-.12-1.35-.25-2.75-.38-4.18a1.63,1.63,0,0,1,1.1-.32A2.23,2.23,0,0,1,277.54,176.15Z"/><path class="cls-57" d="M298.34,179.71h0l-3.59.57c.18-2.73.48-5.61.94-8.65a3,3,0,0,1,2.14-.78,2.87,2.87,0,0,1,1.18.31h0A49.53,49.53,0,0,0,298.34,179.71Z"/><path class="cls-66" d="M279,162a44.08,44.08,0,0,0,6-1l6.15,4.82,1.2.94-.08,0c-2.72.82-9.53,2.4-10.15,2.81a32.62,32.62,0,0,0-6.17-7.41h0C277,162.17,278,162.1,279,162Z"/><path class="cls-67" d="M298.55,140.53l-.53.94c-2.45,4.35-4.62,8.44-6.69,12.27h0c-.23.42-.46.85-.69,1.26l-12.39-1.94-1.76-.27c2.46-3.84,5-7.94,7.7-12.57C289.15,140.31,293.5,140.2,298.55,140.53Z"/><path class="cls-57" d="M282.05,169.63c.53,4.67.74,8.73,1.33,12.69-.71-.2-3-.86-5.36-1.52-.1-1.37-.27-3.1-.38-4.56l-.1-.09a2.23,2.23,0,0,0-1.36-.56,1.63,1.63,0,0,0-1.1.32c.13,1.43.26,2.83.38,4.18-1.7-.47-3.12-.84-3.62-.92-.78-4.13-1.4-8.07-2.11-12.92,2-1.33,4-2.6,6.15-4A32.62,32.62,0,0,1,282.05,169.63Z"/><path class="cls-57" d="M290.64,155c.23-.41.46-.84.69-1.26-.27,4.18-.35,8.45-.24,12.1h0L284.93,161a44.08,44.08,0,0,1-6,1c-.29-2.83-.53-5.8-.71-8.93Z"/><path class="cls-68" d="M283.38,182.32c-.59-4-.8-8-1.33-12.69.62-.41,7.43-2,10.15-2.81l.08,0-1.2-.94h0c-.11-3.65,0-7.92.24-12.1h0c2.07-3.83,4.24-7.92,6.69-12.27l.12.1A60.12,60.12,0,0,0,305.3,152c-.59,5.36-3,22.75-3.28,27.06-.63.18-2,.42-3.68.71h0a49.53,49.53,0,0,1,.69-8.53h0a2.87,2.87,0,0,0-1.18-.31,3,3,0,0,0-2.14.78c-.46,3-.76,5.92-.94,8.65C290.36,181,285.38,181.74,283.38,182.32Z"/><path class="cls-51" d="M301.66,152.21c0-.1-.65-.25-1.06-.29-.67-.06-1.16,0-1.18.33,0,.65-.12,1.28-.17,1.91s0,1.1-.07,1.66l2.32.07C301.57,154.64,301.66,153.43,301.66,152.21Z"/><path class="cls-69" d="M296.85,152.38c0-.28-.05-.47-1.1-.48s-1.2.21-1.21.5c0,.91-.1,1.8-.14,2.69,0,.68,0,.68,2.35.6C296.78,154.59,296.8,153.49,296.85,152.38Z"/><path class="cls-51" d="M296.87,157.37c0-.11-.65-.26-1.07-.29-.67-.07-1.15,0-1.17.33,0,.64-.12,1.27-.17,1.91s0,1.09-.07,1.65l2.32.07C296.78,159.79,296.87,158.59,296.87,157.37Z"/><path class="cls-54" d="M301.65,157.62c0-.28,0-.47-1.1-.48s-1.2.2-1.21.5c0,.91-.1,1.8-.14,2.68,0,.69,0,.69,2.35.61C301.58,159.83,301.6,158.73,301.65,157.62Z"/><path class="cls-51" d="M296.87,162.2c0-.1-.65-.25-1.06-.29-.67-.06-1.16,0-1.17.34,0,.64-.13,1.27-.17,1.91s-.05,1.09-.08,1.65l2.32.07C296.78,164.63,296.88,163.42,296.87,162.2Z"/><path class="cls-51" d="M275.5,168.8c0-.14-.92-.35-1.47-.4-.82-.08-1.34,0-1.28.38.11.68.15,1.27.22,1.81s.14,1.31.21,1.68c.67.17,1.21-.18,2.16.06C275.4,171.37,275.51,170.24,275.5,168.8Z"/><path class="cls-54" d="M279.24,172.66c.06-.95.17-2.08.16-3.52,0-.14-.92-.35-1.47-.4-.82-.08-1.34,0-1.28.38.11.67.15,1.27.23,1.81s.13,1.3.2,1.68Z"/><path class="cls-51" d="M301.65,162.46c0-.28,0-.48-1.09-.48s-1.2.2-1.21.5c0,.9-.11,1.8-.15,2.68,0,.69,0,.69,2.35.61C301.58,164.66,301.6,163.57,301.65,162.46Z"/><path class="cls-70" d="M199.9,157.07a2.22,2.22,0,0,1,1.65.93,8.4,8.4,0,0,1,1.5,2.91c.28.84.46,1.72.73,2.57.14.46.4.88.58,1.32a5.85,5.85,0,0,1-1.09,6.24,4.25,4.25,0,0,1-6.09.1,5.66,5.66,0,0,1-1.45-2.29l-.09-.2-.25-1.38c0-.05,0-.09,0-.14a6.36,6.36,0,0,1,.56-2.88,4.12,4.12,0,0,0,.27-.84,19.67,19.67,0,0,1,1.06-3.61,4.62,4.62,0,0,1,2.11-2.64Z"/><path class="cls-71" d="M193.59,161.45a2.26,2.26,0,0,1,1.65.93,8.49,8.49,0,0,1,1.5,2.91c.28.85.46,1.73.73,2.58.14.45.4.87.58,1.32a5.87,5.87,0,0,1-1.09,6.24,4.25,4.25,0,0,1-6.09.09,5.66,5.66,0,0,1-1.46-2.29,1.67,1.67,0,0,0-.08-.2l-.25-1.38s0-.09,0-.13a6.21,6.21,0,0,1,.56-2.88,4.2,4.2,0,0,0,.27-.85,19.67,19.67,0,0,1,1.06-3.61,4.62,4.62,0,0,1,2.11-2.64Z"/><path class="cls-72" d="M256.61,185.09a4.92,4.92,0,0,1-4.66-2.73,4,4,0,0,1,.77-4.5,3.07,3.07,0,0,0,.53-.67.86.86,0,0,0-.08-.92,3.63,3.63,0,0,1,2.67-5.58,3.69,3.69,0,0,1,3.48,5.7,1.77,1.77,0,0,0-.21,1.09c0,.09.1.19.18.26a4.54,4.54,0,0,1,1.52,2.63,4,4,0,0,1-2.18,4.21A4.79,4.79,0,0,1,256.61,185.09Z"/><path class="cls-73" d="M233.28,187.32c.38.12,9.3.34,9.57.36a24.16,24.16,0,0,0,8.25-.76,16.78,16.78,0,0,0,2.12-.65,1.78,1.78,0,0,0,.73-2.89,3.43,3.43,0,0,0-1.55-1.1,4.19,4.19,0,0,0-3.33.09l.13.11c.3-.37.62-.74.91-1.12a2.12,2.12,0,0,0-.24-3.12,5,5,0,0,0-1.46-.87,9.68,9.68,0,0,0-5.56-.32,7.41,7.41,0,0,0-4.75,2.59s-.07,0-.09,0a2,2,0,0,0-1.93-.43A5.31,5.31,0,0,0,234,181s-2.67,3.19-2.15,5.72C232,187.27,233.28,187.32,233.28,187.32Z"/><path class="cls-65" d="M303.92,190.08c-.09.85-.5,1.56-.91,1.59s-.69-.65-.6-1.52.51-1.6.94-1.61S304,189.23,303.92,190.08Z"/><path class="cls-56" d="M289.24,186.64l-.81,1a2.08,2.08,0,0,1-1.86.66c-.55-.07-1.12-.17-1.46-.24a2.65,2.65,0,0,1-.71-.19,1.76,1.76,0,0,1-.49-.39l-.94-1C284.2,186.53,288.14,186.62,289.24,186.64Z"/><path class="cls-74" d="M280.59,190.66a2.32,2.32,0,0,1-1.84,1.56,4.12,4.12,0,0,1-2.85-.33,2.56,2.56,0,0,1-1.39-1.83l6.08.59Z"/><path class="cls-26" d="M302.37,186.61l-3.45-.07.15-2.86c.51,0,1,.09,1.49.16a1.9,1.9,0,0,1,.72.23,1.94,1.94,0,0,1,.55.68A2.76,2.76,0,0,1,302.37,186.61Z"/><path class="cls-65" d="M292.91,190.28c0,1.1-.57,2.06-1.34,2.16s-1.45-.74-1.49-1.87.59-2.14,1.39-2.2S292.89,189.17,292.91,190.28Z"/><path class="cls-56" d="M298.38,187.41a1.44,1.44,0,0,1-.05.46,8,8,0,0,0-1.53.14c0-.17,0-.32.05-.48A6.63,6.63,0,0,1,298.38,187.41Z"/><path class="cls-26" d="M298.11,183.61l-.3,2.88-5.56-.17a6.74,6.74,0,0,1,2.54-2.35,5.79,5.79,0,0,1,2.33-.37C297.45,183.59,297.79,183.6,298.11,183.61Z"/><path class="cls-56" d="M278.37,185.73l-1.41.82a2.73,2.73,0,0,1-.71.32,3.89,3.89,0,0,1-.92.08,13.28,13.28,0,0,1-2.44,0c.07-.14.15-.27.23-.41a4.56,4.56,0,0,1,.82-1.07,3.39,3.39,0,0,1,.53-.38C275.91,185.28,277,185.49,278.37,185.73Z"/><path class="cls-75" d="M274.51,190.06l-2.17-.21a3.46,3.46,0,0,1,.55-2.94,13.28,13.28,0,0,0,2.44,0,3.89,3.89,0,0,0,.92-.08,2.73,2.73,0,0,0,.71-.32l1.41-.82c-1.35-.24-2.46-.45-3.9-.68a8.85,8.85,0,0,1,1.39-.65c.43-.17.86-.33,1.3-.47l0,0c4.77.73,9.2,1.43,13.14,1.94a8.17,8.17,0,0,1,3-2.6,2.55,2.55,0,0,1,.83-.32v0q-3.94-.65-8.5-1.08l1.12-.37a26,26,0,0,1,7,0,49,49,0,0,1,5.92,1.23,7.42,7.42,0,0,1,2.8,1.12,14.05,14.05,0,0,0,2.38,3.38,4.35,4.35,0,0,1,.26,2.18,3,3,0,0,1-.41,1.28l-.34,0c0-.13,0-.28,0-.42.11-1.39-.32-2.51-1-2.48s-1.3,1.23-1.4,2.66c0,.17,0,.34,0,.49l-1.19.06-7.29.39a5.47,5.47,0,0,0,.11-.85c.06-1.87-.87-3.38-2.13-3.34s-2.29,1.7-2.32,3.67c0,.22-.15.42-.12.62h0l-1.09-.1-7.4-.73Zm27.58-2.24a1.74,1.74,0,0,0,.06-.45,5.94,5.94,0,0,0-1.39.12c0,.16,0,.3-.05.45A7.22,7.22,0,0,1,302.09,187.82Zm-3.17-1.28,3.45.07a2.76,2.76,0,0,0-.54-1.86,1.94,1.94,0,0,0-.55-.68,1.9,1.9,0,0,0-.72-.23c-.48-.07-1-.12-1.49-.16Zm-.59,1.33a1.44,1.44,0,0,0,.05-.46,6.63,6.63,0,0,0-1.53.12c0,.16,0,.31-.05.48A8,8,0,0,1,298.33,187.87Zm-.52-1.38.3-2.88c-.32,0-.66,0-1,0a5.79,5.79,0,0,0-2.33.37,6.74,6.74,0,0,0-2.54,2.35Zm-9.38,1.16.81-1c-1.1,0-5-.11-6.27-.11l.94,1a1.76,1.76,0,0,0,.49.39,2.65,2.65,0,0,0,.71.19c.34.07.91.17,1.46.24A2.08,2.08,0,0,0,288.43,187.65Z"/><path class="cls-26" d="M285.65,181.86q4.56.44,8.5,1.08v0a2.55,2.55,0,0,0-.83.32,8.17,8.17,0,0,0-3,2.6c-3.94-.51-8.37-1.21-13.14-1.94l0,0a9.27,9.27,0,0,1,4.57-.42A21.9,21.9,0,0,1,285.65,181.86Z"/><path class="cls-56" d="M302.15,187.37a1.74,1.74,0,0,1-.06.45,7.22,7.22,0,0,0-1.38.12c0-.15,0-.29.05-.45A5.94,5.94,0,0,1,302.15,187.37Z"/><path class="cls-74" d="M303.92,190.08c.1-.85-.16-1.55-.57-1.54s-.85.74-.94,1.61.18,1.55.6,1.52S303.83,190.93,303.92,190.08Zm-.49-2.3c.66,0,1.09,1.09,1,2.48,0,.14,0,.29,0,.42a2.22,2.22,0,0,1-1.9,2c-.88.09-1.57-.53-1.65-1.68h0l1.19-.06c0-.15,0-.32,0-.49C302.13,189,302.77,187.81,303.43,187.78Z"/><path class="cls-74" d="M289.08,191.48c0-.2.12-.4.12-.62,0-2,1-3.63,2.32-3.67s2.19,1.47,2.13,3.34a5.47,5.47,0,0,1-.11.85,3.13,3.13,0,0,1-2.69,2.38,2.62,2.62,0,0,1-2.86-2.38l1.09.1Zm2.49,1c.77-.1,1.37-1.06,1.34-2.16s-.66-2-1.44-1.91-1.43,1-1.39,2.2S290.79,192.53,291.57,192.44Z"/><path class="cls-76" d="M201,187c-.34,0-.67,0-1,0s-.39,0-.32-.39c.21-1,.43-2,.64-3l0-.14c0-.08,0-.14-.1-.15h-.11c-.33,0-.34-.05-.32-.39s0-.23.26-.26c.59-.08.48,0,.49-.52l.12-7.22c0-.27,0-.53,0-.8s0-.26-.17-.32a.46.46,0,0,1-.23-.18.42.42,0,0,1-.11-.29.65.65,0,0,0-.06-.39l-.76-2.22c0-.14-.1-.26-.26-.31s-.18-.16,0-.27c.39-.27.79-.53,1.19-.79a.2.2,0,0,0,.1-.3.58.58,0,0,1,.21-.66.6.6,0,0,1,.94.61c-.08.21,0,.29.16.39l1,.7c.23.15.23.23,0,.44a.44.44,0,0,0-.1.19c-.26.73-.51,1.46-.76,2.19a.92.92,0,0,0-.1.52c0,.08-.07.21-.14.28a.36.36,0,0,0-.14.3l0,8.1c0,.1,0,.2,0,.3s.06.18.19.17a1.83,1.83,0,0,1,.33,0c.15,0,.21.07.19.23a2.53,2.53,0,0,1-.07.48.28.28,0,0,1-.16.19c-.15,0-.14.11-.13.22,0,.4.09.81.15,1.22.08.59.17,1.19.25,1.79,0,.2,0,.27-.26.27s-.71,0-1.07,0Z"/><path class="cls-56" d="M201.15,170.48c-.6,0-1,0-1.47,0-.14,0-.18,0-.13.18.28.72.55,1.44.82,2.17a.2.2,0,0,0,.22.16c.3,0,.6,0,.9,0a.22.22,0,0,0,.23-.18l.73-2.08c.05-.13,0-.18-.13-.19Z"/><path class="cls-76" d="M214.78,181.08h-1c-.35,0-.39-.06-.32-.39.21-1,.42-2,.64-3l0-.13c0-.09,0-.14-.1-.15h-.11c-.33,0-.34-.06-.33-.39s0-.23.26-.26c.6-.08.49-.05.5-.53l.12-7.22c0-.26,0-.53,0-.79s0-.26-.17-.32a.53.53,0,0,1-.24-.18.43.43,0,0,1-.1-.29.64.64,0,0,0-.06-.39c-.26-.74-.51-1.48-.77-2.23-.05-.14-.09-.25-.26-.31s-.17-.15,0-.26c.39-.27.78-.54,1.18-.79a.22.22,0,0,0,.11-.31.56.56,0,0,1,.21-.65.57.57,0,0,1,.66,0,.56.56,0,0,1,.27.64c-.07.21,0,.29.16.38l1.05.7c.22.15.23.24,0,.44a1.14,1.14,0,0,0-.1.19l-.75,2.2a.84.84,0,0,0-.1.52.39.39,0,0,1-.15.27.4.4,0,0,0-.13.31q0,4.05,0,8.1c0,.1,0,.2,0,.3s.06.17.18.16l.33,0c.16,0,.21.08.2.23a3.85,3.85,0,0,1-.07.49c0,.07-.1.17-.16.18s-.14.12-.13.22c0,.41.09.82.14,1.22.08.6.17,1.19.25,1.79,0,.2,0,.27-.26.28Z"/><path class="cls-56" d="M214.9,164.58h-1.48c-.14,0-.17,0-.12.17.28.72.55,1.45.81,2.17a.21.21,0,0,0,.22.16h.9a.22.22,0,0,0,.24-.17c.24-.7.48-1.39.73-2.09,0-.13,0-.18-.13-.18Z"/><path class="cls-76" d="M307.65,180.48h-1c-.35,0-.39-.06-.32-.39.21-1,.42-2,.64-3l0-.13c0-.09,0-.15-.1-.16h-.11c-.33,0-.34,0-.32-.39s0-.22.26-.26c.59-.07.48,0,.49-.52l.12-7.22c0-.27,0-.53,0-.8s0-.25-.17-.31a.72.72,0,0,1-.24-.18.44.44,0,0,1-.1-.29.68.68,0,0,0-.06-.4l-.77-2.22a.38.38,0,0,0-.26-.31c-.17-.06-.17-.16,0-.27.39-.26.78-.53,1.18-.78.13-.09.17-.16.11-.31a.58.58,0,0,1,.21-.66.6.6,0,0,1,.93.61c-.07.21,0,.29.16.39.36.23.7.47,1.05.7s.23.23,0,.44a.85.85,0,0,0-.1.19l-.75,2.2a.83.83,0,0,0-.1.52.44.44,0,0,1-.14.27.37.37,0,0,0-.14.31l0,8.09v.3c0,.14.06.18.19.17l.32,0c.16,0,.22.07.2.23a2.76,2.76,0,0,1-.07.49c0,.07-.1.17-.16.18s-.14.12-.13.22c.05.41.09.81.14,1.22.08.6.17,1.19.26,1.79,0,.2,0,.27-.26.28Z"/><path class="cls-56" d="M307.77,164h-1.48c-.14,0-.17,0-.12.18.28.72.55,1.45.82,2.17a.2.2,0,0,0,.21.16h.9a.22.22,0,0,0,.24-.17c.24-.7.48-1.4.73-2.09,0-.13,0-.18-.13-.18Z"/><path class="cls-77" d="M222.55,182.69c0-.38-.79-.32-.79-.32s0-.05,0-.09.05-.14.07-.21c1.13-1.19-.31-2.22-1.08-2.26a3.22,3.22,0,0,0-1.26.35c-.61.43-.91-1.92-.88-2,.18-.65-.47-.52-.47-.52l-.39,0a.19.19,0,0,0-.17.16.38.38,0,0,0,.11.33.48.48,0,0,1,.14.22c.2.79.4,1.57.57,2.35a10.82,10.82,0,0,1,.24,2,8.41,8.41,0,0,1-.33,2.42c-.07.29-.11.21.19.33a.58.58,0,0,0,.56-.1c.1-.06.1-.15,0-.19s-.06,0-.05-.07c0-.24.07-.48.1-.73a2.78,2.78,0,0,1,.46-1.21.38.38,0,0,1,.27-.17,2.11,2.11,0,0,1,.35,0,.9.9,0,0,1,.6.29,2.6,2.6,0,0,1,.62.9,4.39,4.39,0,0,1,.21,1.88,1.63,1.63,0,0,1-.07.3s0,.07,0,.08l.21.07a.63.63,0,0,0,.53-.16.12.12,0,0,0,0-.18.1.1,0,0,1-.05-.08c.14-2.17-.77-3-.77-3h.11S222.59,183.06,222.55,182.69Zm-2.22-.21a1,1,0,0,1-1.18-.9,1.24,1.24,0,0,1,1.21-1.12,1,1,0,0,1,1.11.9A1.26,1.26,0,0,1,220.33,182.48Z"/><path class="cls-77" d="M205.72,183.8l12.37-1.41,3.95.33s.12.14.11.19-.2.22-.2.22l-13.62,1.57Z"/><path class="cls-77" d="M204.44,178.74a15.79,15.79,0,0,1,.84,3.31c-.05.77,0,1.26,0,1.26L218.53,182s-.16-3.53-.88-4.28Z"/><path class="cls-77" d="M209.15,184.55c-.06-.47-.91-.5-.91-.5a.13.13,0,0,1,0-.12,1.09,1.09,0,0,1,.07-.24c1.25-1.3-.39-2.64-1.21-2.74a2.79,2.79,0,0,0-1.26.31c-.59.42-.88-2.12-.86-2.22.16-.68-.43-.55-.43-.55s-.24,0-.35.06a.18.18,0,0,0-.15.16.39.39,0,0,0,.1.34.57.57,0,0,1,.12.23c.18.84.37,1.68.52,2.52A13.22,13.22,0,0,1,205,184a10.86,10.86,0,0,1-.3,2.66c-.07.3-.11.21.18.41a.48.48,0,0,0,.55,0c.1,0,.09-.15,0-.22a.12.12,0,0,1,0-.09c0-.27.07-.54.1-.81a3,3,0,0,1,.44-1.31.32.32,0,0,1,.27-.16l.36,0a1.12,1.12,0,0,1,.63.43,3.86,3.86,0,0,1,.69,1.19,6.3,6.3,0,0,1,.28,2.36,2.17,2.17,0,0,1-.07.35.17.17,0,0,0,0,.12l.25.14A.57.57,0,0,0,209,189a.14.14,0,0,0,0-.21.2.2,0,0,1-.06-.12,5.54,5.54,0,0,0-1-3.85l.13,0S209.21,185,209.15,184.55ZM206.7,184a1.16,1.16,0,1,1,0-2.31,1.16,1.16,0,1,1,0,2.31Z"/><path class="cls-33" d="M202.7,336.74c.89-2.35,2.76-3.4,4.65-4.87-.58.92-1.16,1.84-1.75,2.75-1.15,1.78-2.48,3.63-4.34,4.51A5.74,5.74,0,0,0,202.7,336.74Z"/><path class="cls-26" d="M201.26,339.13a4.27,4.27,0,0,1-4.45,1.1,6.17,6.17,0,0,1-3.73-5.52,17.35,17.35,0,0,1,.24-2.32,15,15,0,0,0,.12-1.75,2.29,2.29,0,0,0,.23.17h0c1.81,1.31,6.19,3.84,9,5.92A5.74,5.74,0,0,1,201.26,339.13Z"/><path class="cls-26" d="M202.7,336.74c-2.84-2.08-7.22-4.61-9-5.92h0a1.73,1.73,0,0,0,.59-1.1,19.51,19.51,0,0,0,.37-6.6,5.09,5.09,0,0,1-.88-1.2,35.23,35.23,0,0,1,4.2-6.32c2.05-2.7,4.43-5.44,6.72-7.94a1.62,1.62,0,0,1,.69-.85,1,1,0,0,1,1.35.15,1.33,1.33,0,0,1,.19.56c.12.61.24,1.23.35,1.85.3,1.64.61,3.27.92,4.91a41.72,41.72,0,0,1,.45,15.5c-.41.7-.83,1.4-1.27,2.09h0C205.46,333.34,203.59,334.39,202.7,336.74Z"/><path class="cls-33" d="M211.36,305.6c3.09,1.26,4.7,3.85,6.53,6a150.06,150.06,0,0,1-9.27,18.12,41.72,41.72,0,0,0-.45-15.5c-.31-1.64-.62-3.27-.92-4.91C208.83,307.38,210.18,307.53,211.36,305.6Z"/><path class="cls-78" d="M232.87,242.92c-8.58,20.21-18,40.87-22.89,62.27,5.35,1.3,6.77,6.23,10.14,8.73,15.17-22.65,29.48-48.87,44.92-69.78,4-5.47,8-11.19,10-17.67a66.2,66.2,0,0,0,2.82-23.34,49.4,49.4,0,0,0-5.31-8.4,9.31,9.31,0,0,0-7-3.12c-5.84.64-7.68,4.48-13.42,6.82-9.12,15.28-15.6,27.45-19.24,44.86"/><path class="cls-79" d="M201.65,332a19,19,0,0,0-7.32-2.62c0,.12,0,.23-.07.34a1.73,1.73,0,0,1-.59,1.1,2.29,2.29,0,0,1-.23-.17,15,15,0,0,1-.12,1.75,17.35,17.35,0,0,0-.24,2.32,6.17,6.17,0,0,0,3.73,5.52,4.27,4.27,0,0,0,4.45-1.1,5.74,5.74,0,0,0,1.44-2.39,6.88,6.88,0,0,1,1.78-2.6A18.51,18.51,0,0,0,201.65,332Z"/><path class="cls-80" d="M209.14,322.84a53.05,53.05,0,0,0-1-8.57c-.31-1.64-.62-3.27-.92-4.91-.11-.62-.23-1.24-.35-1.85a1.33,1.33,0,0,0-.19-.56,1,1,0,0,0-1.35-.15,1.62,1.62,0,0,0-.69.85c-2.29,2.5-4.67,5.24-6.72,7.94a36.26,36.26,0,0,0-4.13,6.19,23.38,23.38,0,0,0,2.62,1A22.41,22.41,0,0,0,209.14,322.84Z"/><path class="cls-81" d="M229.06,283.06c-3.68-4.82-5.48-10.68-6.08-16.76C217.77,279,213,292,210,305.19c5.35,1.3,6.77,6.23,10.14,8.73,5.37-8,10.63-16.48,15.87-25A22,22,0,0,1,229.06,283.06Z"/><path class="cls-82" d="M256,210.47a22.19,22.19,0,0,1-5.47-9.3c-8.27,14-14.2,25.76-17.62,42.12l-.06-.37c-3.28,7.72-6.67,15.51-9.89,23.38.6,6.08,2.4,11.94,6.08,16.76a22,22,0,0,0,6.93,5.86c9.57-15.55,19.08-31.27,29.05-44.78,4-5.47,8-11.19,10-17.67a60.09,60.09,0,0,0,2.28-10.27l-.53.14A22.58,22.58,0,0,1,256,210.47Z"/><path class="cls-83" d="M277.88,203.13a49.4,49.4,0,0,0-5.31-8.4,9.31,9.31,0,0,0-7-3.12c-5.84.64-7.68,4.48-13.42,6.82l-1.62,2.74a22.19,22.19,0,0,0,5.47,9.3,22.58,22.58,0,0,0,20.79,5.87l.53-.14A75.46,75.46,0,0,0,277.88,203.13Z"/><path class="cls-26" d="M309.92,374.22a4.68,4.68,0,0,1,1,5,9.3,9.3,0,0,1-2,2.91,72.65,72.65,0,0,1-10.78,9.42,4.43,4.43,0,0,1-1.81.91,1.74,1.74,0,0,1-1.84-.73c0-.36,0-.71,0-1.06.07-3.9.25-7.76.69-11.63a4.61,4.61,0,0,1,1.05-2.9,4.71,4.71,0,0,1,2.85-1c2.87-.31,5.68-.64,8.54-.82C308.35,374.28,309.14,374.25,309.92,374.22Z"/><path class="cls-33" d="M297.52,369.57a80.39,80.39,0,0,0,10.06,4.76c-2.86.18-5.67.51-8.54.82a4.71,4.71,0,0,0-2.85,1,4.61,4.61,0,0,0-1.05,2.9c-.44,3.87-.62,7.73-.69,11.63h0c-4.34-7.11-8.79-13.91-11.41-21.82a16.14,16.14,0,0,0,2.58-.34,10.45,10.45,0,0,0,2.41-1,17,17,0,0,0,3.69-2.26C293.1,367.13,295.49,368.34,297.52,369.57Z"/><path class="cls-78" d="M234.87,207.62a174.55,174.55,0,0,0,11,87.82c2.06,5.1,4.35,10.11,6.65,15.11,8.38,18.26,18.76,40.52,27.13,58.78,2-.56,4-.31,6-.79a10.9,10.9,0,0,0,2.41-1c1.51-.8,3.86-1.82,4.51-3.41C282,341.87,282.39,314.77,281,290.23c-.57-10.28-.83-20.71-3.86-30.55-3.12-10.17-9.07-19.24-13.13-29.08a83.45,83.45,0,0,1-5.61-21.18c-.29-2.21-.56-4.61-2.1-6.22-2.34-2.44-6.3-1.89-9.6-1.15C241.94,203.12,238.13,204,234.87,207.62Z"/><path class="cls-84" d="M295.27,368.23a11.58,11.58,0,0,0-3.33,1.12,12.41,12.41,0,0,0-5.72,7.13c2.41,4.87,5.33,9.46,8.22,14.19h0c.07-3.9.25-7.76.69-11.63a4.61,4.61,0,0,1,1.05-2.9,4.71,4.71,0,0,1,2.85-1c2.87-.31,5.68-.64,8.54-.82a80.39,80.39,0,0,1-10.06-4.76C296.79,369.13,296,368.69,295.27,368.23Z"/><path class="cls-85" d="M234.87,207.62a174.55,174.55,0,0,0,11,87.82c2.06,5.1,4.35,10.11,6.65,15.11,8.38,18.26,18.76,40.52,27.13,58.78,2-.56,4-.31,6-.79a10.9,10.9,0,0,0,2.41-1c1.51-.8,3.86-1.82,4.51-3.41C282,341.87,282.39,314.77,281,290.23c-.57-10.28-.83-20.71-3.86-30.55-3.12-10.17-9.07-19.24-13.13-29.08a83.45,83.45,0,0,1-5.61-21.18c-.29-2.21-.56-4.61-2.1-6.22-2.34-2.44-6.3-1.89-9.6-1.15C241.94,203.12,238.13,204,234.87,207.62Z"/><path class="cls-86" d="M257.82,269.52c-2.46,14.54,1.75,29.71,9.62,42.17a91,91,0,0,0,16.2,18.89c-1.65-13.42-1.88-27.25-2.61-40.35-.57-10.28-.83-20.71-3.86-30.55a97.89,97.89,0,0,0-6.4-15A45.71,45.71,0,0,0,257.82,269.52Z"/><path class="cls-83" d="M248.41,225.57a23,23,0,0,0,12.07-5.6,82.23,82.23,0,0,1-2.05-10.55c-.29-2.21-.56-4.61-2.1-6.22-2.34-2.44-6.3-1.89-9.6-1.15-4.79,1.07-8.6,1.91-11.86,5.57-.65,4.86-1.07,9.75-1.3,14.65A23.28,23.28,0,0,0,248.41,225.57Z"/><path class="cls-16" d="M333.81,151.62a11.3,11.3,0,0,1,1.71,5c.31,3.3-.61,6.62-1.66,9.81-2.52,7.64-4.11,15.52-8.14,22.54a1.58,1.58,0,0,0-.67-.23c-3.71-.65-6.28-2.69-10.05-2.37.31-6-.66-12.61-.87-18.66a35,35,0,0,1,1.92-14Z"/><path class="cls-23" d="M328.21,202.1c-.95,3.82-4.08,6.94-6.56,10.11a14.64,14.64,0,0,1-3.1-.33,2.67,2.67,0,0,1-1,1.13A21.48,21.48,0,0,1,307,208.9c.72-2.94,1.71-4.74,2.2-7.72a23.32,23.32,0,0,0-.42-3.33,23.57,23.57,0,0,0-4.78,7.72l-1.65-3.76c2.69-6.06,6.64-11.93,12.62-15.42,3.77-.32,6.34,1.72,10.05,2.37a1.58,1.58,0,0,1,.67.23,1.26,1.26,0,0,1,.4.61,14,14,0,0,1,.6,3.08C327.11,195.92,327.91,198.85,328.21,202.1Z"/><path class="cls-87" d="M327,204.76a25.33,25.33,0,0,0-5.28-2.82,23.55,23.55,0,0,0-10.49-1.59c.06.47.11,1,.14,1.43-.39,2.83-1.22,4.54-1.8,7.33a17.72,17.72,0,0,0,9.08,3.92,2.44,2.44,0,0,0,.86-1.08,12,12,0,0,0,2.67.32C323.83,209.85,325.84,207.47,327,204.76Z"/><path class="cls-16" d="M333.81,151.62a11.3,11.3,0,0,1,1.71,5c.31,3.3-.61,6.62-1.66,9.81-2.52,7.64-4.11,15.52-8.14,22.54a1.58,1.58,0,0,0-.67-.23c-3.71-.65-6.28-2.69-10.05-2.37.31-6-.66-12.61-.87-18.66a35,35,0,0,1,1.92-14Z"/><path class="cls-40" d="M333.81,151.62a11.3,11.3,0,0,1,1.71,5c.31,3.3-.61,6.62-1.66,9.81-2.52,7.64-4.11,15.52-8.14,22.54a1.58,1.58,0,0,0-.67-.23c-3.71-.65-6.28-2.69-10.05-2.37.31-6-.66-12.61-.87-18.66a35,35,0,0,1,1.92-14Z"/><path class="cls-16" d="M187.08,135c5.77-13.32,12.58-28.35,17.22-42.31,0,0,8.37,7.92,8.49,7.92,0,14.92.77,26.92-2.51,41.14a82.07,82.07,0,0,1-4.83,14.75,23.71,23.71,0,0,1-3.7,6.26c-1.61,1.83-6.12,4.82-8.62,5.24-3,.67-7.45-1.32-8.35-4.16-1.57-5-3-10.15-2.36-15.3.49-4.14,2.24-8,3.94-11.88Z"/><path class="cls-88" d="M199.54,103.29c-3.77,10.78-7.76,21.17-12.32,31.69-.23.55-.47,1.11-.72,1.66-1.7,3.85-3.44,7.74-3.94,11.88-.61,5.15.79,10.33,2.36,15.3.9,2.84,5.31,4.83,8.36,4.16,2.5-.42,7-3.41,8.61-5.24a23.71,23.71,0,0,0,3.7-6.26,81.28,81.28,0,0,0,4.83-14.75,136.63,136.63,0,0,0,3.05-24.68A119.1,119.1,0,0,0,199.54,103.29Z"/><path class="cls-89" d="M187.51,151.81a12.74,12.74,0,0,0-5.13,1.39,49.73,49.73,0,0,0,2.4,10.62c.9,2.84,5.3,4.83,8.35,4.16,2.2-.37,6-2.72,7.91-4.53a12.54,12.54,0,0,0-1.25-4.45A13.35,13.35,0,0,0,187.51,151.81Z"/><path class="cls-20" d="M206.82,60.27a118.2,118.2,0,0,0-10,7.57c-2.58,2.19-5,4.48-7.34,6.86q-1.37,5.58-2.32,11.19a29.76,29.76,0,0,0,5.09-2.36,30.14,30.14,0,0,0,8.32-7.18c.38-.48.74-1,1.09-1.46a29.29,29.29,0,0,0,2.46-4.28,4.16,4.16,0,0,0,1.13-.9l.42-2.51-.26.17A29.76,29.76,0,0,0,206.82,60.27Z"/><path class="cls-90" d="M214.17,61.33h4.16a0,0,0,0,1,0,0V86.06a2.07,2.07,0,0,1-2.07,2.07h0a2.07,2.07,0,0,1-2.07-2.07V61.33a0,0,0,0,1,0,0Z" transform="translate(35.95 -66.12) rotate(18.93)"/><path class="cls-91" d="M217.13,65.74a17.38,17.38,0,0,0,1.93.8,16.2,16.2,0,0,0,2,.55l9-26.23-3.94-1.35Z"/><circle class="cls-90" cx="224.96" cy="49.34" r="17.28"/><circle class="cls-92" cx="224.96" cy="49.34" r="16.02"/><circle class="cls-93" cx="224.96" cy="49.34" r="15.83"/><circle class="cls-90" cx="224.96" cy="49.34" r="15.24"/><circle class="cls-94" cx="224.96" cy="49.34" r="15.04"/><g class="cls-95"><path class="cls-23" d="M225.64,48.39c-1.45,1.29-3.88,2.17-5.7,1.6a8.17,8.17,0,0,1-4.6-4.19,4.52,4.52,0,0,1-.59-1.77,3.69,3.69,0,0,1,.89-2.69,3.88,3.88,0,0,1,5.84-.25c.85,1.53,1.71,3.17,2.65,5,.38.61.78,1.21,1.18,1.8h0Z"/><path class="cls-96" d="M217.07,47a3.72,3.72,0,0,1,.89-2.69,3.8,3.8,0,0,1,4.67-1c-.39-.73-.77-1.44-1.15-2.12a3.88,3.88,0,0,0-5.84.25,3.69,3.69,0,0,0-.89,2.69,4.52,4.52,0,0,0,.59,1.77,9.24,9.24,0,0,0,2.32,2.91A4.7,4.7,0,0,1,217.07,47Z"/><path class="cls-23" d="M214.2,15.85c1.09,4.42,3.78,8.3,6.29,12,2,2.54,5.8,2.77,8.54,1.5s4.82-3.74,6.87-6.07,4.28-4.68,7.15-5.62a12.93,12.93,0,0,1,3.56-.58,8.17,8.17,0,0,1,1.26.71c2.74,1.76,4.54,4.14,6.84,6.54.54,1.15,1,2.33,1.47,3.53.71,1.92,2.48,3.94,2.91,5.95a45.1,45.1,0,0,1,.83,5.27,44.12,44.12,0,0,1-.79,13.77,21.3,21.3,0,0,1-7.38,11.42,10.89,10.89,0,0,1-1.32.89,11.46,11.46,0,0,1-6.75,1.34,14.47,14.47,0,0,1-2.9-.58A21.25,21.25,0,0,1,232,60.85a7.1,7.1,0,0,1-1.54-1.75c-1.2-1.9-1.7-4.31-2.6-6.57-.13-.3-.25-.6-.4-.89a35.47,35.47,0,0,0-5-7l-.31-.38h0c-1.83-2.73-1.9-4-2.23-7.35a8,8,0,0,1,.08-2.8c.23-.87.44-1.5,1.25-1.68-.09.06.25.13.06,0A13.87,13.87,0,0,1,217.61,28a36.77,36.77,0,0,1-3.91-10.8C213.85,16.74,214,16.29,214.2,15.85Z"/><path class="cls-97" d="M221.28,32.46s.78-1.45,4.07-2.36-9.89-16.86-9.89-16.86-2.76,4.47-2.54,6.59C214.25,32.6,221.28,32.46,221.28,32.46Z"/><path class="cls-26" d="M218.57,38.81c-1.93-3-3.78-5.54-6.28-8.81a2.43,2.43,0,0,1-.59-1.12,2.49,2.49,0,0,1,0-.86c.44-2.6.37-6.33,2-10.86A36.77,36.77,0,0,0,217.61,28a13.87,13.87,0,0,0,3.73,4.48l-.06,0c-.81.18-1,.81-1.25,1.68a8,8,0,0,0-.08,2.8c.33,3.32.4,4.62,2.23,7.35-.39-.47-.77-.95-1.13-1.44C220.18,41.36,219.37,40.05,218.57,38.81Z"/><path class="cls-98" d="M213.7,17.16c-1.59,4.53-1.52,8.26-2,10.86a2.49,2.49,0,0,0,0,.86,2.43,2.43,0,0,0,.59,1.12c1.51,2,2.78,3.68,4,5.38a46.18,46.18,0,0,0,.58-9A33.53,33.53,0,0,1,213.7,17.16Z"/><path class="cls-26" d="M238.19.73a12.06,12.06,0,0,1,6.86,2.94c.23.19.46.39.68.6,2.66,2.54,4.49,6.32,5.77,9.89a5.24,5.24,0,0,0-4.93-1.24,8.79,8.79,0,0,1,4.16,3.82c.08.13,0,.5-.09.56a28.41,28.41,0,0,0-4-.21,12.93,12.93,0,0,0-3.56.58c-2.87.94-5.1,3.29-7.15,5.62s-4.12,4.79-6.87,6.07-6.57,1-8.54-1.5c-2.51-3.71-5.2-7.59-6.29-12a31.17,31.17,0,0,1,5.51-8.61A19,19,0,0,1,229.42.91C232.87.1,235-.12,238.19.73Z"/><path class="cls-28" d="M242.09,9.46c2.81,2.39,1.16,5.55-1.88,6.75-2.52,1-5.42.15-8,.75a12.09,12.09,0,0,0-9.05,11.1c0,.5-.81.49-.77,0a12.41,12.41,0,0,1,11-12.07l1.65-.07q5,.64,6.46-5.92c-.38-.32.18-.85.56-.53Z"/><path class="cls-29" d="M253.68,11.91c1.71,5,3,8.86,3.56,14.15a6.4,6.4,0,0,0-1.06,1.81c-.43-1.2-.93-2.38-1.47-3.53-2.3-2.4-4.1-4.78-6.84-6.54a8.17,8.17,0,0,0-1.26-.71,28.41,28.41,0,0,1,4,.21c.13-.06.17-.43.09-.56a8.79,8.79,0,0,0-4.16-3.82,5.24,5.24,0,0,1,4.93,1.24c-1.28-3.57-3.11-7.35-5.77-9.89-.22-.21-.45-.41-.68-.6h0c1.57.73,5,3.42,6.56,4.24C252.17,8.21,253.51,11.4,253.68,11.91Z"/><path class="cls-23" d="M262.86,32.4a7.38,7.38,0,0,1-5.46,3.24h0a76.26,76.26,0,0,0-2.42-9,9.3,9.3,0,0,1,1.25-2.72,12.77,12.77,0,0,1,1.12-1.37,5,5,0,0,1,3.52-2,3.79,3.79,0,0,1,3.44,2.56,7.05,7.05,0,0,1,.39,1.81A11.53,11.53,0,0,1,262.86,32.4Z"/><path class="cls-99" d="M264.29,23.09a3.79,3.79,0,0,0-3.44-2.56,5,5,0,0,0-3.52,2,12.77,12.77,0,0,0-1.12,1.37,8.27,8.27,0,0,0-.92,1.78c-.19-.44-.38-.88-.58-1.31-2.3-2.4-4.1-4.78-6.84-6.54a8.17,8.17,0,0,0-1.26-.71,12.93,12.93,0,0,0-3.56.58,12.81,12.81,0,0,0-4.71,3,19.47,19.47,0,0,1,2.14.17c6.5.9,12.29,4.87,17,11-.33-1.27-.72-2.51-1.16-3.73a6.83,6.83,0,0,1,.51-.87,15.76,15.76,0,0,1,1.12-1.37,5,5,0,0,1,3.52-2,3.73,3.73,0,0,1,3.29,2.23c0-.42,0-.85,0-1.28A7.05,7.05,0,0,0,264.29,23.09Z"/><path class="cls-31" d="M235.47,37.19s5.52,7.28,5.17,13.34,1,6,1,6,4.11-2.86,3.78-3.73S240.11,39.56,235.47,37.19Z"/><ellipse class="cls-26" cx="232.91" cy="46.79" rx="1.54" ry="2.63" transform="translate(-0.91 88.82) rotate(-21.55)"/><ellipse class="cls-26" cx="247.6" cy="39.95" rx="1.58" ry="2.71" transform="translate(2.63 93.74) rotate(-21.55)"/><path class="cls-100" d="M248.38,58.88a3.57,3.57,0,0,1-3.81.61c-.3-.14-.8-.52-.72-.9s.56-.38.85-.39c2.07,0,3.21-1.57,4.34-3.08a9.65,9.65,0,0,0,.86-1.66c.26-.56.63-1.17,1.24-.73a1.78,1.78,0,0,1,.53,1.46,7.11,7.11,0,0,1-2.61,4.24C248.84,58.6,248.59,58.73,248.38,58.88Z"/><path class="cls-33" d="M224.69,40.91a2.8,2.8,0,0,1,1.49-2.22,7.17,7.17,0,0,1,4.23-.45c.43.11,1.35.88,1.28,1.6s-.89.77-1.42.87c-1,.17-1.62-.23-2.87.1C226.35,41.17,225,42.27,224.69,40.91Z"/><path class="cls-33" d="M244.53,31.35c-1.79.29-3.06.93-3.77,2.5-.12.27-.53.67-.83.5s-.29-.86-.22-1.23a5,5,0,0,1,4.46-4.07,33.09,33.09,0,0,1,4.51.39c.56.06,1.28.23,1.11,1.08-.08.38-.81.7-1.28.74C247.06,31.37,245.57,31.19,244.53,31.35Z"/><path class="cls-34" d="M244.44,53.81a14.44,14.44,0,0,1-2.6,1.39c.43-6.52-1.77-13.81-6.67-18.24a52,52,0,0,1,4.54,14.15c.13.76,0,5.26.58,5.58,1.57,1,5-2,5.11-3.92l-1,1Z"/><path class="cls-101" d="M249.15,13l-1.41-.74c-10.18-5.47-19-5.77-26.76-1.91A27.8,27.8,0,0,0,217,13.18a9.46,9.46,0,0,1,2.21-3.69A21.82,21.82,0,0,1,233.1,2.07c1.9.92,3.78,1.95,5.61,3a49,49,0,0,1,8,5.66l1.67,1.49s0,0,.06.06C248.68,12.54,248.92,12.77,249.15,13Z"/><path class="cls-102" d="M217.38,16.41a37.68,37.68,0,0,1,17.58-3A41.06,41.06,0,0,1,249.81,17a6.28,6.28,0,0,0,1.23.28c-2.89-1.55-5.71-3.33-8.69-4.59-10.4-4.41-19.9-2.4-24.71,2.55C217.38,15.51,217.46,16,217.38,16.41Z"/><path class="cls-103" d="M243.51,64.16c-6,1-10.56-1.84-14-7a11.52,11.52,0,0,0,.9,1.79,6.93,6.93,0,0,0,1.53,1.76,21,21,0,0,0,8.67,5.09,12.82,12.82,0,0,0,2.87.58,11.18,11.18,0,0,0,6.67-1.32,10,10,0,0,0,1.31-.89,21.17,21.17,0,0,0,7.29-11.4,43.72,43.72,0,0,0,.95-7.92C257.82,55.09,252.21,62.67,243.51,64.16Z"/><path class="cls-26" d="M263,45.5,259.3,34.88l-2.44-1.61c1,3.47,3,10.61,2.46,14.66-1.52,6-1.29,10.36-8.51,15.7-6.87,5.1-15.89-.68-15.68-.42l0,0a9.77,9.77,0,0,0,6.16,3.47,42.14,42.14,0,0,1,6.2,1.39c3.29-.5,10.13-6,11.64-9C259.89,54.76,263.34,46.65,263,45.5Z"/><path class="cls-104" d="M262.54,44.1l-3.24-9.22-2.44-1.61c1,3.47,3,10.61,2.46,14.66-1,4.09-1.27,7.4-3.56,10.77C259.11,55.7,262,51.09,262.54,44.1Z"/></g><g class="cls-105"><path class="cls-106" d="M239.37,45.05a14.13,14.13,0,0,0-.57-1.58L213.41,59a14.69,14.69,0,0,0,1.14,1.23Z"/><path class="cls-106" d="M209.94,48.52a15.06,15.06,0,0,0,2.88,9.71L238.4,42.6a14.92,14.92,0,0,0-7.32-7Z"/></g><path class="cls-23" d="M214.86,94.51c-.54,3-.56,3.58-2.06,6.33-3.87-1.86-6.66-3.64-8.06-7.65l.14,0c-1.56-5.82-3.2-11.56-4.42-17.46a26.85,26.85,0,0,0,12.21-8.56L217,69.48a6.19,6.19,0,0,0,3.66,1.08l-1.57,2a4.74,4.74,0,0,1-4.33-.66,17.56,17.56,0,0,1-3.64,4.38,37.73,37.73,0,0,1,9.08-.51c.65,1.23,1.12,2.67,1.77,3.9a5.07,5.07,0,0,1,.56,1.4,4.17,4.17,0,0,1,0,1.32,51.09,51.09,0,0,1-2.79,11.45C218.74,94,216.6,94.19,214.86,94.51Z"/><path class="cls-107" d="M214.75,95.14c0-.2.07-.41.11-.63,1.74-.32,3.88-.52,4.88-.67a51.09,51.09,0,0,0,2.79-11.45,4.17,4.17,0,0,0,0-1.32,2.29,2.29,0,0,0-.09-.28c-4.66-1.54-9-1.87-12.05-1C209.4,86,210.94,91.84,214.75,95.14Z"/></g></g></svg>