<?xml version="1.0" encoding="utf-8"?>
<!-- Generator: Adobe Illustrator 24.1.1, SVG Export Plug-In . SVG Version: 6.00 Build 0)  -->
<svg version="1.1" id="圖層_2_1_" xmlns="http://www.w3.org/2000/svg" xmlns:xlink="http://www.w3.org/1999/xlink" x="0px"
	 y="0px" viewBox="0 0 120 120" style="enable-background:new 0 0 120 120;" xml:space="preserve">
<style type="text/css">
	.st0{fill:#AD181C;}
	.st1{fill:#231815;}
</style>
<g>
	<polygon class="st0" points="12.2,20.9 12.2,37.8 59.7,65.2 107.2,37.8 107.2,20.9 59.7,48.3 	"/>
	<polygon class="st0" points="59.7,32.3 12.2,4.9 12.2,15.3 59.7,42.7 107.2,15.3 107.2,4.9 	"/>
</g>
<g>
	<g>
		<path class="st1" d="M44.8,90.5V92H30.4v4.4c4.8,2.6,8.8,5.3,12.2,7.8l-0.9,1.3c-3.7-2.7-7.5-5.1-11.3-7.2V116h-1.6V92H17.9v-1.5
			H44.8z"/>
		<path class="st1" d="M74.4,100.2v1.6H48v-1.6H74.4z"/>
		<path class="st1" d="M84.5,109.8c-1.5,2.2-3.4,4.1-5.8,5.9l-1.1-1c2.3-1.6,4.3-3.4,5.8-5.5L84.5,109.8z M92.1,90.4v18.1H79.9V90.4
			H92.1z M90.7,95.8v-4.1h-9.4v4.1H90.7z M90.7,101.5v-4.6h-9.4v4.6H90.7z M90.7,107.2v-4.6h-9.4v4.6H90.7z M93.7,114l-1,1.2
			c-1.7-2-3.4-3.7-5.2-5l0.8-0.9C90.3,110.6,92.1,112.2,93.7,114z M97.4,91.9v17.3H96V91.9H97.4z M102.9,88.8v24.3
			c0,1.6-1.1,2.3-3.3,2.3c-1,0-1.9-0.2-2.8-0.5l-0.1-1.4c1,0.4,2,0.6,2.9,0.6c1.2,0,1.9-0.5,1.9-1.4V88.8H102.9z"/>
	</g>
</g>
</svg>
