<svg xmlns="http://www.w3.org/2000/svg" xmlns:xlink="http://www.w3.org/1999/xlink" viewBox="0 0 230 460"><defs><style>.cls-1,.cls-43{fill:none;}.cls-2{isolation:isolate;}.cls-3{fill:#21335b;}.cls-100,.cls-102,.cls-17,.cls-18,.cls-25,.cls-33,.cls-34,.cls-36,.cls-37,.cls-38,.cls-4,.cls-77,.cls-78,.cls-79,.cls-82,.cls-84,.cls-86,.cls-96,.cls-99{mix-blend-mode:overlay;}.cls-4{fill:url(#未命名漸層_77);}.cls-5{fill:#fdfbec;}.cls-6{clip-path:url(#clip-path);}.cls-7{fill:#233861;}.cls-8{fill:#a92728;}.cls-9{fill:#6e2a41;}.cls-10,.cls-13,.cls-15,.cls-16,.cls-19,.cls-20,.cls-39,.cls-40,.cls-48,.cls-80,.cls-81,.cls-83,.cls-87{mix-blend-mode:darken;}.cls-11{fill:url(#未命名漸層_13);}.cls-12{fill:#6d1319;}.cls-13{fill:url(#未命名漸層_13-2);}.cls-14{fill:#162142;}.cls-15{fill:url(#未命名漸層_13-3);}.cls-16{fill:url(#未命名漸層_13-4);}.cls-17{fill:url(#未命名漸層_46);}.cls-18{fill:url(#未命名漸層_77-2);}.cls-19{fill:url(#未命名漸層_13-5);}.cls-20{fill:url(#未命名漸層_13-6);}.cls-21{fill:#f4ad89;}.cls-105,.cls-22,.cls-23,.cls-28,.cls-30,.cls-46,.cls-85,.cls-94,.cls-95,.cls-97,.cls-98{mix-blend-mode:multiply;}.cls-22{fill:url(#未命名漸層_41);}.cls-23{fill:url(#未命名漸層_41-2);}.cls-24{fill:#37190b;}.cls-25{fill:url(#未命名漸層_77-3);}.cls-26,.cls-57{fill:#fff;}.cls-26{opacity:0.61;}.cls-27{fill:#714b22;}.cls-28{fill:url(#未命名漸層_41-3);}.cls-29{fill:#f08b5c;}.cls-30{fill:url(#未命名漸層_41-4);}.cls-31{fill:#61361a;}.cls-32{fill:#eb592f;}.cls-33{fill:url(#未命名漸層_46-2);}.cls-34{fill:url(#未命名漸層_46-3);}.cls-35{fill:url(#未命名漸層_41-5);}.cls-36{fill:url(#未命名漸層_46-4);}.cls-37{fill:url(#未命名漸層_77-4);}.cls-38{fill:url(#未命名漸層_46-5);}.cls-39{fill:url(#未命名漸層_13-7);}.cls-40{fill:url(#未命名漸層_13-8);}.cls-41{fill:#e8dece;}.cls-42{fill:url(#未命名漸層_103);}.cls-43{stroke:#c9bc9c;stroke-miterlimit:10;stroke-width:0.5px;}.cls-44{fill:#d70051;}.cls-45{fill:#f1eae1;}.cls-46{fill:url(#未命名漸層_98);}.cls-47{fill:#fff9f0;}.cls-48{fill:url(#未命名漸層_118);}.cls-49{fill:#526180;}.cls-50{fill:#c8b5b5;}.cls-51{fill:#f7eeee;}.cls-52{fill:#f2a3aa;}.cls-53{fill:#756665;}.cls-54{fill:#fff799;}.cls-55{fill:#cbd1a8;}.cls-56{fill:#e2b648;}.cls-58{fill:#2ea7e0;}.cls-59{fill:#5e667a;}.cls-60{fill:url(#未命名漸層_21);}.cls-61{fill:url(#未命名漸層_21-2);}.cls-62{fill:url(#未命名漸層_35);}.cls-63{fill:#fbf9f2;}.cls-64{fill:url(#未命名漸層_35-2);}.cls-65{fill:url(#未命名漸層_35-3);}.cls-66{fill:#ede9e4;}.cls-67{fill:#00a0e9;}.cls-68{fill:url(#未命名漸層_21-3);}.cls-69{fill:url(#未命名漸層_21-4);}.cls-70{fill:#d3d162;}.cls-71{fill:url(#未命名漸層_21-5);}.cls-72{fill:#68554e;}.cls-73{fill:#d24c63;}.cls-74{fill:#86b8c6;}.cls-75{fill:#036eb8;}.cls-76{fill:#173275;}.cls-77{fill:url(#未命名漸層_46-6);}.cls-78{fill:url(#未命名漸層_46-7);}.cls-79{fill:url(#未命名漸層_46-8);}.cls-80{fill:url(#未命名漸層_83);}.cls-81{fill:#c9caca;}.cls-82{fill:url(#未命名漸層_46-9);}.cls-83{fill:url(#未命名漸層_83-2);}.cls-84{fill:url(#未命名漸層_46-10);}.cls-85{opacity:0.47;fill:url(#未命名漸層_41-6);}.cls-86{fill:url(#未命名漸層_46-12);}.cls-87{fill:url(#未命名漸層_13-9);}.cls-88{fill:#686d71;}.cls-89{fill:#4d5357;}.cls-90{fill:#38383a;}.cls-91{fill:url(#未命名漸層_3);}.cls-92{fill:#e3eff6;}.cls-93{clip-path:url(#clip-path-2);}.cls-94{fill:url(#未命名漸層_41-7);}.cls-95{fill:url(#未命名漸層_41-8);}.cls-96{fill:url(#未命名漸層_77-6);}.cls-97{fill:url(#未命名漸層_41-9);}.cls-98{fill:url(#未命名漸層_41-10);}.cls-99{fill:url(#未命名漸層_46-13);}.cls-100{fill:url(#未命名漸層_46-14);}.cls-101{fill:url(#未命名漸層_41-11);}.cls-102{fill:url(#未命名漸層_46-15);}.cls-103{opacity:0.4;}.cls-104{fill:#f5fbfe;}.cls-105{opacity:0.7;fill:url(#未命名漸層_41-12);}</style><linearGradient id="未命名漸層_77" x1="110.87" y1="45.07" x2="110.87" y2="87.75" gradientUnits="userSpaceOnUse"><stop offset="0" stop-color="#fff"/><stop offset="0.09" stop-color="#f9f9f9" stop-opacity="0.94"/><stop offset="0.27" stop-color="#e7e7e8" stop-opacity="0.79"/><stop offset="0.52" stop-color="#ccc" stop-opacity="0.54"/><stop offset="0.82" stop-color="#a6a6a7" stop-opacity="0.21"/><stop offset="1" stop-color="#8f8f90" stop-opacity="0"/></linearGradient><clipPath id="clip-path"><path class="cls-1" d="M119,85.75a397.09,397.09,0,0,0,2.28,58.52c1.74,15.34,4.62,31.06,13.73,43.64L131.54,198l-18-9.27C96.17,159,95.65,121.86,106,88.47c0,0,2.37-4.68,5.79-4.55A22.81,22.81,0,0,1,119,85.75Z"/></clipPath><linearGradient id="未命名漸層_13" x1="109.19" y1="137.65" x2="134.25" y2="217.48" gradientUnits="userSpaceOnUse"><stop offset="0" stop-color="#8f8f90"/><stop offset="0.46" stop-color="#cacaca"/><stop offset="0.81" stop-color="#f0f0f0"/><stop offset="1" stop-color="#fff"/></linearGradient><linearGradient id="未命名漸層_13-2" x1="111.06" y1="77.39" x2="112.82" y2="104.09" xlink:href="#未命名漸層_13"/><linearGradient id="未命名漸層_13-3" x1="144.29" y1="134.17" x2="154.51" y2="213.62" xlink:href="#未命名漸層_13"/><linearGradient id="未命名漸層_13-4" x1="175.17" y1="92.65" x2="202.75" y2="174.55" xlink:href="#未命名漸層_13"/><linearGradient id="未命名漸層_46" x1="225.92" y1="108.81" x2="179.09" y2="133.03" gradientUnits="userSpaceOnUse"><stop offset="0" stop-color="#8f8f90" stop-opacity="0"/><stop offset="0.18" stop-color="#a6a6a7" stop-opacity="0.21"/><stop offset="0.48" stop-color="#ccc" stop-opacity="0.54"/><stop offset="0.73" stop-color="#e7e7e8" stop-opacity="0.79"/><stop offset="0.91" stop-color="#f9f9f9" stop-opacity="0.94"/><stop offset="1" stop-color="#fff"/></linearGradient><linearGradient id="未命名漸層_77-2" x1="37.89" y1="81.83" x2="61.06" y2="81.83" xlink:href="#未命名漸層_77"/><linearGradient id="未命名漸層_13-5" x1="100.31" y1="179.69" x2="78.25" y2="74.64" xlink:href="#未命名漸層_13"/><linearGradient id="未命名漸層_13-6" x1="130.45" y1="143" x2="138.69" y2="99.05" xlink:href="#未命名漸層_13"/><linearGradient id="未命名漸層_41" x1="79.37" y1="45.86" x2="87.1" y2="45.86" gradientUnits="userSpaceOnUse"><stop offset="0.01" stop-color="#eb592f"/><stop offset="0.66" stop-color="#f1936d"/><stop offset="1" stop-color="#f4ad89"/></linearGradient><linearGradient id="未命名漸層_41-2" x1="81.52" y1="25.29" x2="92.53" y2="25.29" xlink:href="#未命名漸層_41"/><linearGradient id="未命名漸層_77-3" x1="78.92" y1="28.02" x2="84.28" y2="28.02" xlink:href="#未命名漸層_77"/><linearGradient id="未命名漸層_41-3" x1="105.91" y1="32.31" x2="130.6" y2="32.31" xlink:href="#未命名漸層_41"/><linearGradient id="未命名漸層_41-4" x1="104.97" y1="62.31" x2="113.32" y2="62.31" xlink:href="#未命名漸層_41"/><linearGradient id="未命名漸層_46-2" x1="130.65" y1="586.53" x2="188.35" y2="547.49" gradientTransform="translate(333.68 -530.56) rotate(38.06)" xlink:href="#未命名漸層_46"/><linearGradient id="未命名漸層_46-3" x1="134.43" y1="591.2" x2="192.46" y2="551.94" gradientTransform="translate(333.68 -530.56) rotate(38.06)" xlink:href="#未命名漸層_46"/><linearGradient id="未命名漸層_41-5" x1="119.68" y1="74.12" x2="106.02" y2="56.23" xlink:href="#未命名漸層_41"/><linearGradient id="未命名漸層_46-4" x1="116.45" y1="53.77" x2="125.37" y2="53.77" xlink:href="#未命名漸層_46"/><linearGradient id="未命名漸層_77-4" x1="169.56" y1="72.82" x2="201.62" y2="72.82" xlink:href="#未命名漸層_77"/><linearGradient id="未命名漸層_46-5" x1="202.07" y1="172.05" x2="195.98" y2="208.21" xlink:href="#未命名漸層_46"/><linearGradient id="未命名漸層_13-7" x1="44.55" y1="110.15" x2="39.91" y2="162.89" xlink:href="#未命名漸層_13"/><linearGradient id="未命名漸層_13-8" x1="90.14" y1="150.53" x2="82.23" y2="181.76" xlink:href="#未命名漸層_13"/><linearGradient id="未命名漸層_103" x1="14.96" y1="255.51" x2="208.87" y2="255.51" gradientUnits="userSpaceOnUse"><stop offset="0" stop-color="#fff"/><stop offset="0.08" stop-color="#faf6f0"/><stop offset="0.23" stop-color="#eddfca"/><stop offset="0.43" stop-color="#d7b98c"/><stop offset="0.47" stop-color="#d3b280"/><stop offset="1" stop-color="#fff"/></linearGradient><linearGradient id="未命名漸層_98" x1="9.09" y1="218.52" x2="116.11" y2="218.52" gradientUnits="userSpaceOnUse"><stop offset="0" stop-color="#fff"/><stop offset="0.17" stop-color="#faf6f0"/><stop offset="0.49" stop-color="#eddfca"/><stop offset="0.92" stop-color="#d7b98c"/><stop offset="1" stop-color="#d3b280"/></linearGradient><linearGradient id="未命名漸層_118" x1="121.52" y1="181.92" x2="113.84" y2="232.77" gradientUnits="userSpaceOnUse"><stop offset="0" stop-color="#e5d1b3"/><stop offset="0.41" stop-color="#eadbc2"/><stop offset="1" stop-color="#fff"/></linearGradient><linearGradient id="未命名漸層_21" x1="135.72" y1="179.78" x2="130.83" y2="200.32" gradientUnits="userSpaceOnUse"><stop offset="0.39" stop-color="#b3bd6b"/><stop offset="0.71" stop-color="#8ba972"/><stop offset="1" stop-color="#639578"/></linearGradient><linearGradient id="未命名漸層_21-2" x1="186.26" y1="184.34" x2="175.25" y2="190.73" xlink:href="#未命名漸層_21"/><linearGradient id="未命名漸層_35" x1="168.35" y1="168.45" x2="179.86" y2="168.45" gradientUnits="userSpaceOnUse"><stop offset="0.39" stop-color="#d78425"/><stop offset="0.72" stop-color="#c45c23"/><stop offset="1" stop-color="#b33722"/></linearGradient><linearGradient id="未命名漸層_35-2" x1="142.31" y1="190.36" x2="161.6" y2="190.36" xlink:href="#未命名漸層_35"/><linearGradient id="未命名漸層_35-3" x1="143.03" y1="169.52" x2="168.98" y2="169.52" xlink:href="#未命名漸層_35"/><linearGradient id="未命名漸層_21-3" x1="62.66" y1="184.34" x2="51.65" y2="190.73" xlink:href="#未命名漸層_21"/><linearGradient id="未命名漸層_21-4" x1="55.23" y1="189.5" x2="44.23" y2="195.89" xlink:href="#未命名漸層_21"/><linearGradient id="未命名漸層_21-5" x1="122.39" y1="201.05" x2="100.95" y2="213.5" xlink:href="#未命名漸層_21"/><linearGradient id="未命名漸層_46-6" x1="44.9" y1="389.85" x2="58.31" y2="389.85" xlink:href="#未命名漸層_46"/><linearGradient id="未命名漸層_46-7" x1="57.92" y1="364.71" x2="53.59" y2="378.93" xlink:href="#未命名漸層_46"/><linearGradient id="未命名漸層_46-8" x1="64.78" y1="337.15" x2="95.38" y2="337.15" xlink:href="#未命名漸層_46"/><linearGradient id="未命名漸層_83" x1="37.22" y1="314.35" x2="93.58" y2="288.82" gradientUnits="userSpaceOnUse"><stop offset="0" stop-color="#fff"/><stop offset="0.19" stop-color="#f0f0f0"/><stop offset="0.54" stop-color="#cacaca"/><stop offset="1" stop-color="#8f8f90"/></linearGradient><linearGradient id="未命名漸層_46-9" x1="154.47" y1="442.24" x2="179.59" y2="442.24" xlink:href="#未命名漸層_46"/><linearGradient id="未命名漸層_83-2" x1="92.27" y1="331.58" x2="161.88" y2="331.58" xlink:href="#未命名漸層_83"/><linearGradient id="未命名漸層_46-10" x1="154.64" y1="305.52" x2="136.12" y2="347.05" xlink:href="#未命名漸層_46"/><linearGradient id="未命名漸層_41-6" x1="192.06" y1="246.9" x2="192.34" y2="226.71" xlink:href="#未命名漸層_41"/><linearGradient id="未命名漸層_46-12" x1="39.29" y1="128.74" x2="59.66" y2="180.17" xlink:href="#未命名漸層_46"/><linearGradient id="未命名漸層_13-9" x1="43.39" y1="184.23" x2="63.75" y2="235.66" xlink:href="#未命名漸層_13"/><linearGradient id="未命名漸層_3" x1="26.81" y1="246.98" x2="55.98" y2="278.06" gradientTransform="matrix(0.95, 0.32, -0.32, 0.95, 126.45, -212.23)" gradientUnits="userSpaceOnUse"><stop offset="0" stop-color="#8f8f90"/><stop offset="0.4" stop-color="#fff"/><stop offset="0.52" stop-color="#f0f0f0"/><stop offset="0.73" stop-color="#cacaca"/><stop offset="1" stop-color="#8f8f90"/></linearGradient><clipPath id="clip-path-2"><circle class="cls-1" cx="82.4" cy="53.9" r="17.7"/></clipPath><linearGradient id="未命名漸層_41-7" x1="114.55" y1="-54.68" x2="123.87" y2="-54.68" gradientTransform="translate(-33.2 121.75) rotate(-9.67)" xlink:href="#未命名漸層_41"/><linearGradient id="未命名漸層_41-8" x1="117.14" y1="-79.48" x2="130.41" y2="-79.48" gradientTransform="translate(-33.2 121.75) rotate(-9.67)" xlink:href="#未命名漸層_41"/><linearGradient id="未命名漸層_77-6" x1="114.02" y1="-76.18" x2="120.47" y2="-76.18" gradientTransform="translate(-33.2 121.75) rotate(-9.67)" xlink:href="#未命名漸層_77"/><linearGradient id="未命名漸層_41-9" x1="146.53" y1="-71.01" x2="176.27" y2="-71.01" gradientTransform="translate(-33.2 121.75) rotate(-9.67)" xlink:href="#未命名漸層_41"/><linearGradient id="未命名漸層_41-10" x1="145.4" y1="-34.87" x2="155.46" y2="-34.87" gradientTransform="translate(-33.2 121.75) rotate(-9.67)" xlink:href="#未命名漸層_41"/><linearGradient id="未命名漸層_46-13" x1="91.35" y1="480.73" x2="160.87" y2="433.69" gradientTransform="translate(206.61 -457.33) rotate(28.39)" xlink:href="#未命名漸層_46"/><linearGradient id="未命名漸層_46-14" x1="95.9" y1="486.36" x2="165.82" y2="439.05" gradientTransform="translate(206.61 -457.33) rotate(28.39)" xlink:href="#未命名漸層_46"/><linearGradient id="未命名漸層_41-11" x1="163.12" y1="-20.64" x2="146.66" y2="-42.2" gradientTransform="translate(-33.2 121.75) rotate(-9.67)" xlink:href="#未命名漸層_41"/><linearGradient id="未命名漸層_46-15" x1="159.23" y1="-45.16" x2="169.98" y2="-45.16" gradientTransform="translate(-33.2 121.75) rotate(-9.67)" xlink:href="#未命名漸層_46"/><linearGradient id="未命名漸層_41-12" x1="40.49" y1="410.73" x2="58.01" y2="410.73" gradientTransform="matrix(0.88, 0.48, -0.48, 0.88, 224.88, -286.76)" xlink:href="#未命名漸層_41"/></defs><g class="cls-2"><g id="圖層_1" data-name="圖層 1"><path class="cls-3" d="M79.11,56.14s31-23.25,63.69-7.13,9.78,27.57,9.78,27.57L71.81,90.43,61.38,77.24Z"/><path class="cls-4" d="M79.11,56.14s31-23.25,63.69-7.13,9.78,27.57,9.78,27.57L71.81,90.43,61.38,77.24Z"/><path class="cls-5" d="M89.41,75.84a33.19,33.19,0,0,0,4.21,7c1.84,2.37,6.34,7.1,9.39,7.44-.07-.76-.16-1.56-.25-2.4,3,1,6.54,1.83,9.74,1.4a11.58,11.58,0,0,0,8.15-4.69,22.34,22.34,0,0,1,.7,3.27c3.19-3,6.23-9.08,8.25-14.76h0c-4.53,22.29-6,44.51-7.7,66.8a144.57,144.57,0,0,0-.62,19.83,39,39,0,0,1-.22,5.41c-.58,6.42-2,16.28-3.22,25.57l-.75-.09c-1.85-2.67-6.66-9.87-10.64-16.3A88.38,88.38,0,0,1,100.7,164c-10.92-27.36-11.22-58.15-11.32-88.19Z"/><g class="cls-6"><polygon class="cls-7" points="143.42 82.19 90.63 112.33 90.63 92.36 143.42 63.47 143.42 82.19"/><polygon class="cls-8" points="143.42 100.92 90.63 132.3 90.63 112.33 143.42 82.19 143.42 100.92"/><polygon class="cls-9" points="143.42 119.64 90.63 152.27 90.63 132.3 143.42 100.92 143.42 119.64"/><polygon class="cls-7" points="144.02 195.11 91.23 225.24 91.23 205.27 144.02 176.38 144.02 195.11"/><polygon class="cls-8" points="144.02 213.83 91.23 245.21 91.23 225.24 144.02 195.11 144.02 213.83"/><polygon class="cls-9" points="144.02 232.56 91.23 265.19 91.23 245.21 144.02 213.83 144.02 232.56"/><polygon class="cls-7" points="143.42 138.37 90.63 172.25 90.63 152.27 143.42 119.64 143.42 138.37"/><polygon class="cls-8" points="143.42 157.09 90.63 192.22 90.63 172.25 143.42 138.37 143.42 157.09"/><polygon class="cls-9" points="143.42 175.81 90.63 212.19 90.63 192.22 143.42 157.09 143.42 175.81"/></g><g class="cls-10"><path class="cls-11" d="M119.54,125c-6.31,9.89-13.23,16.18-20.2,14.42.94,17.35,5.4,34.26,14.15,49.29l18,9.27L135,187.91c-9.11-12.58-12-28.3-13.73-43.64C120.51,137.88,120,131.45,119.54,125Z"/></g><path class="cls-12" d="M110.86,71.18a13.61,13.61,0,0,0,1.75-.71h0a5.42,5.42,0,0,1,2.6,2.2,50.15,50.15,0,0,1,5.44,11.87,11.58,11.58,0,0,1-8.15,4.69c-3.2.43-6.69-.39-9.74-1.4-.54-5.22-1.08-11.76-.21-16.45A15.52,15.52,0,0,0,110.86,71.18Z"/><path class="cls-13" d="M110.86,71.18a13.61,13.61,0,0,0,1.75-.71h0a5.42,5.42,0,0,1,2.6,2.2,50.15,50.15,0,0,1,5.44,11.87,11.58,11.58,0,0,1-8.15,4.69c-3.2.43-6.69-.39-9.74-1.4-.54-5.22-1.08-11.76-.21-16.45A15.52,15.52,0,0,0,110.86,71.18Z"/><path class="cls-5" d="M105.54,70.89c-.87,4.69-1.59,17.8-2.53,19.35-3.05-.34-7.55-5.07-9.39-7.44a33.19,33.19,0,0,1-4.21-7,24.92,24.92,0,0,1-1.21-3.39c-.07-.25-.13-.51-.19-.76a.17.17,0,0,1,0,0c-2.64-6.65-.61-21.91-.61-21.91l9-3.84Z"/><path class="cls-3" d="M89.38,75.85c.1,30,.4,60.83,11.32,88.19a88.38,88.38,0,0,0,5.76,10.24c-13.06-16.07-26-44.94-30.38-65.14-.81-3.76-1.19-6.12-3.43-9.32,0,0,0,0,0,0,3.17-8.61,7.55-16.14,14.51-22.12C87.88,77,88.61,76.43,89.38,75.85Z"/><path class="cls-14" d="M210.45,174.23a13,13,0,0,1,2,5.9c.37,3.89-.71,7.79-2,11.54-3,9-4.84,18.26-9.57,26.51a2,2,0,0,0-.8-.27c-4.36-.76-7.38-3.16-11.81-2.78.36-7.07-.78-14.84-1-21.95-.2-5.52.22-11.26,2.26-16.45-4.87-7.16-8.41-19.37-11-27.58q-3.78-11.7-7.56-23.46c-.49,1.59-1,3.18-1.47,4.75q-4.77,15.24-9.52,30.38c-.11.35-.22.7-.34,1.06a14,14,0,0,0,.75,4.6c1.76,6.26,3.77,12.89,8.93,17.09,8.1,4.93-3.57,16.65-13.61,21.7-12.35,6.21-27.26,1.85-39.26,8.55-.86-3.55.1-13,1.41-23.15,1.19-9.29,2.64-19.15,3.22-25.57,4-23.61,17.81-49.56,28.12-70.83,1.48-3,3.12-6.19,5.92-8.22a201.42,201.42,0,0,0-23.42-12.23c4.74-1.09,10.83-3,15.28-1.07a57,57,0,0,0-4.17-23q16.08,4.27,32.49,7.1c4.26.73,8.81.46,11.19,3.92,14.31,24,25.37,48.8,27.3,76A107.55,107.55,0,0,1,210.45,174.23Z"/><path class="cls-15" d="M147.37,134.43c-14.71,8.74-23.5,26-23.55,43.09a60.78,60.78,0,0,0,9.54,32c7.61-.65,15.38-.8,22.34-4.3,10-5,21.71-16.77,13.61-21.69-5.16-4.21-7.17-10.84-8.93-17.1a14,14,0,0,1-.75-4.6c.12-.35.23-.71.34-1.05q4.74-15.15,9.52-30.39l.58-1.87A43.18,43.18,0,0,0,147.37,134.43Z"/><path class="cls-16" d="M210.45,174.23a107.55,107.55,0,0,0,3.33-37.47c-1.93-27.21-13-52-27.3-76a6.84,6.84,0,0,0-3.36-2.53,145.19,145.19,0,0,0-11.58,69.28q3.5,10.84,7,21.65c2.63,8.21,6.17,20.42,11,27.58-2,5.19-2.46,10.93-2.26,16.45.24,7.11,1.39,14.88,1,21.95,4.43-.38,7.45,2,11.81,2.78a2,2,0,0,1,.8.27c4.73-8.25,6.61-17.52,9.57-26.51,1.24-3.75,2.32-7.65,2-11.54A13,13,0,0,0,210.45,174.23Z"/><path class="cls-17" d="M191.31,128.11c4.25,13.06,12,24.63,21.62,34.54a112.77,112.77,0,0,0,.85-25.9c-1.49-21-8.42-40.58-18.08-59.43C187,92.26,185.92,111.47,191.31,128.11Z"/><path class="cls-5" d="M123.34,43.32l5,.88a35.11,35.11,0,0,1,3.57,20.58,49.72,49.72,0,0,1-2.23,8.16l-.05.12c-2,5.68-5.34,13.29-8.53,16.29-.13-1-2.39-10.32-6.8-15-.69-.73-3.71-4-4.7-4.24h0Z"/><path class="cls-18" d="M61.06,66.77a140.77,140.77,0,0,0-11.81,8.9c-3,2.58-5.93,5.26-8.63,8.06Q39,90.3,37.89,96.9A35.17,35.17,0,0,0,53.66,85.67c.45-.56.88-1.12,1.29-1.71a33.53,33.53,0,0,0,2.89-5,5.06,5.06,0,0,0,1.33-1l.5-3-.31.19A35,35,0,0,0,61.06,66.77Z"/><path class="cls-14" d="M117.85,190.67l-.75-.09c-1.85-2.67-6.66-9.87-10.64-16.3-13.06-16.07-26-44.94-30.38-65.14-.81-3.76-1.19-6.12-3.43-9.32,0,0,0,0,0,0,3.17-8.61,7.55-16.14,14.51-22.12h0a81.57,81.57,0,0,0-14.44,4.06,52.53,52.53,0,0,1,6.39-25.57A156.55,156.55,0,0,0,49.25,75.67c-3,2.58-5.93,5.27-8.63,8.06a171.93,171.93,0,0,0-2.78,70.92c6,12.82,11.64,14.94,27.29,7.93A89.63,89.63,0,0,0,79.42,187l-.22.16C75.12,197.27,62.47,202.64,59,212.83c18.05-8.64,39.49-7.9,57.48,1C115.58,210.27,116.54,200.81,117.85,190.67Z"/><path class="cls-3" d="M121.91,139.86c1.7-22.29,3.17-44.51,7.7-66.8h0l.05-.12h0l2,.88a201.42,201.42,0,0,1,23.42,12.23c-2.8,2-4.44,5.17-5.92,8.22-10.31,21.27-24.11,47.22-28.12,70.83a39,39,0,0,0,.22-5.41A144.57,144.57,0,0,1,121.91,139.86Z"/><path class="cls-19" d="M89.38,75.85c.1,30,.4,60.83,11.32,88.19a88.38,88.38,0,0,0,5.76,10.24c-13.06-16.07-26-44.94-30.38-65.14-.81-3.76-1.19-6.12-3.43-9.32,0,0,0,0,0,0,3.17-8.61,7.55-16.14,14.51-22.12C87.88,77,88.61,76.43,89.38,75.85Z"/><path class="cls-20" d="M121.91,139.86c1.7-22.29,3.17-44.51,7.7-66.8h0l.05-.12h0l2,.88a201.42,201.42,0,0,1,23.42,12.23c-2.8,2-4.44,5.17-5.92,8.22-10.31,21.27-24.11,47.22-28.12,70.83a39,39,0,0,0,.22-5.41A144.57,144.57,0,0,1,121.91,139.86Z"/><path class="cls-14" d="M210.45,174.23a13,13,0,0,1,2,5.9c.37,3.89-.71,7.79-2,11.54-3,9-4.84,18.26-9.57,26.51a2,2,0,0,0-.8-.27c-4.36-.76-7.38-3.16-11.81-2.78.36-7.07-.78-14.84-1-21.95-.2-5.52.22-11.26,2.26-16.45Z"/><path class="cls-21" d="M89.15,51.06a6.4,6.4,0,0,1-5.76.6,8,8,0,0,1-3.74-4.78,4.75,4.75,0,0,1-.27-1.8,3.62,3.62,0,0,1,1.29-2.45,3.79,3.79,0,0,1,5.67.72c.56,1.61,1.13,3.33,1.73,5.26.26.64.55,1.29.84,1.92h0Z"/><path class="cls-22" d="M81.14,48.26a3.6,3.6,0,0,1,1.29-2.44,3.71,3.71,0,0,1,4.67-.24c-.26-.77-.51-1.52-.76-2.23a3.79,3.79,0,0,0-5.67-.72,3.62,3.62,0,0,0-1.29,2.45,4.75,4.75,0,0,0,.27,1.8,9,9,0,0,0,1.76,3.18A4.38,4.38,0,0,1,81.14,48.26Z"/><path class="cls-21" d="M83.47,17.87c.33,4.42,2.27,8.6,4.09,12.58,1.48,2.77,5.12,3.62,8,2.85s5.25-2.81,7.61-4.72,4.88-3.8,7.8-4.23a12.28,12.28,0,0,1,3.53,0,9.21,9.21,0,0,1,1.09.89c2.35,2.15,3.69,4.73,5.51,7.42.33,1.2.61,2.41.83,3.64.37,2,1.75,4.2,1.83,6.2a45.23,45.23,0,0,1-.06,5.21,43.39,43.39,0,0,1-3,13.12,20.77,20.77,0,0,1-9,9.78,10.09,10.09,0,0,1-1.42.64,11,11,0,0,1-6.72.18,12.75,12.75,0,0,1-2.69-1,20.81,20.81,0,0,1-7.59-6.32,6.72,6.72,0,0,1-1.19-1.94c-.85-2-.94-4.43-1.43-6.75-.07-.31-.14-.62-.24-.92A34.22,34.22,0,0,0,86.72,47l-.24-.42h0c-1.31-2.92-1.16-4.19-.93-7.43a7.53,7.53,0,0,1,.53-2.68c.37-.81.68-1.38,1.48-1.42-.09,0,.22.17.06,0a13.68,13.68,0,0,1-2.85-4.92,35.59,35.59,0,0,1-2-11C83,18.66,83.23,18.26,83.47,17.87Z"/><path class="cls-23" d="M87.56,35s1-1.27,4.3-1.6-6.75-17.85-6.75-17.85-3.39,3.85-3.53,5.93C80.77,34,87.56,35,87.56,35Z"/><path class="cls-24" d="M83.91,40.68c-1.36-3.2-2.73-6-4.6-9.51A2.51,2.51,0,0,1,78.92,30a2.39,2.39,0,0,1,.19-.82c.85-2.43,1.39-6,3.67-10.13a35.59,35.59,0,0,0,2,11A13.68,13.68,0,0,0,87.62,35h-.06c-.8,0-1.11.61-1.48,1.42a7.53,7.53,0,0,0-.53,2.68c-.23,3.24-.38,4.51.93,7.43-.29-.51-.58-1-.84-1.56C85,43.4,84.48,42,83.91,40.68Z"/><path class="cls-25" d="M82.78,19c-2.28,4.1-2.82,7.7-3.67,10.13a2.39,2.39,0,0,0-.19.82,2.51,2.51,0,0,0,.39,1.18c1.13,2.15,2.07,4,3,5.83a45.14,45.14,0,0,0,2-8.52A32.66,32.66,0,0,1,82.78,19Z"/><path class="cls-24" d="M109,7.25a11.72,11.72,0,0,1,6.12,3.95c.19.22.38.45.56.68,2.14,2.89,3.29,6.83,3.93,10.47a5.12,5.12,0,0,0-4.54-2,8.68,8.68,0,0,1,3.38,4.36c.05.14,0,.49-.19.52a28.72,28.72,0,0,0-3.83-.86,12.28,12.28,0,0,0-3.53,0c-2.92.43-5.44,2.32-7.8,4.23s-4.76,3.93-7.61,4.72-6.49-.08-8-2.85c-1.82-4-3.76-8.16-4.09-12.58a30.08,30.08,0,0,1,6.72-7.39A18.54,18.54,0,0,1,100.57,6C104,5.77,106.1,5.9,109,7.25Z"/><path class="cls-26" d="M111.36,16.29c2.31,2.76.21,5.53-2.91,6.18-2.59.54-5.25-.74-7.84-.59a11.81,11.81,0,0,0-10.54,9.2c-.12.47-.86.34-.74-.14a12.13,12.13,0,0,1,12.61-9.8l1.61.2q4.67,1.44,7.19-4.63c-.31-.37.31-.79.62-.42Z"/><path class="cls-27" d="M122.11,20.55c.82,5.12,1.43,9,1.11,14.2a6.19,6.19,0,0,0-1.32,1.57c-.22-1.23-.5-2.44-.83-3.64-1.82-2.69-3.16-5.27-5.51-7.42a9.21,9.21,0,0,0-1.09-.89,28.72,28.72,0,0,1,3.83.86c.14,0,.24-.38.19-.52a8.68,8.68,0,0,0-3.38-4.36,5.12,5.12,0,0,1,4.54,2c-.64-3.64-1.79-7.58-3.93-10.47-.18-.23-.37-.46-.56-.68h0c1.39,1,4.28,4.12,5.62,5.16C121.27,16.74,122,20,122.11,20.55Z"/><path class="cls-21" d="M127.59,41.78A7.2,7.2,0,0,1,121.8,44h0a74.66,74.66,0,0,0-.85-9.12,9.48,9.48,0,0,1,1.65-2.41,15.53,15.53,0,0,1,1.3-1.14A4.94,4.94,0,0,1,127.6,30a3.67,3.67,0,0,1,2.89,3,6.89,6.89,0,0,1,.08,1.81A11.23,11.23,0,0,1,127.59,41.78Z"/><path class="cls-28" d="M130.49,33a3.67,3.67,0,0,0-2.89-3,4.94,4.94,0,0,0-3.71,1.31,15.53,15.53,0,0,0-1.3,1.14A8.39,8.39,0,0,0,121.41,34c-.11-.45-.22-.9-.34-1.35-1.82-2.69-3.16-5.27-5.51-7.42a9.21,9.21,0,0,0-1.09-.89,11.08,11.08,0,0,0-8.56,2.13,20.78,20.78,0,0,1,2,.51c6.11,1.94,11,6.7,14.52,13.38q-.17-1.91-.51-3.78a6.65,6.65,0,0,1,.64-.75,13.91,13.91,0,0,1,1.3-1.14,4.9,4.9,0,0,1,3.71-1.31,3.61,3.61,0,0,1,2.8,2.69c.07-.41.14-.83.17-1.25A6.89,6.89,0,0,0,130.49,33Z"/><path class="cls-29" d="M100.44,41.89s4.12,7.91,2.8,13.69,0,5.91,0,5.91,4.43-2.09,4.26-3S104.52,44.94,100.44,41.89Z"/><ellipse class="cls-24" cx="96.4" cy="50.71" rx="1.5" ry="2.57" transform="translate(-8.37 20.93) rotate(-11.88)"/><ellipse class="cls-24" cx="111.67" cy="46.54" rx="1.55" ry="2.64" transform="translate(-7.19 23.98) rotate(-11.88)"/><path class="cls-30" d="M109.31,64.89a3.52,3.52,0,0,1-3.77,0c-.26-.19-.68-.63-.54-1s.6-.27.88-.23c2,.29,3.35-1,4.69-2.26a9,9,0,0,0,1.09-1.46c.35-.49.8-1,1.32-.49a1.77,1.77,0,0,1,.27,1.49A6.94,6.94,0,0,1,110,64.56C109.8,64.69,109.54,64.78,109.31,64.89Z"/><path class="cls-31" d="M89.46,43.71c0-.62,1.08-1.77,1.8-1.9a7,7,0,0,1,4.14.26c.39.17,1.16,1.07,1,1.75s-1,.6-1.52.6c-1,0-1.52-.48-2.78-.37C91,44.22,89.54,45.07,89.46,43.71Z"/><path class="cls-31" d="M110.12,37.76c-1.77,0-3.1.39-4,1.79-.16.23-.62.55-.88.34s-.13-.88,0-1.22a4.82,4.82,0,0,1,5-3.18,28.54,28.54,0,0,1,4.27,1.11c.54.15,1.21.43.9,1.22-.14.35-.89.54-1.35.5C112.55,38.19,111.15,37.77,110.12,37.76Z"/><path class="cls-32" d="M106.35,59.36a13.89,13.89,0,0,1-2.73.91c1.48-6.2.56-13.58-3.42-18.65a51.23,51.23,0,0,1,2,14.36c0,.75-.82,5.07-.36,5.47,1.35,1.17,5.09-1.15,5.56-2.94l-1.1.85C105.94,59.56,106.75,59.15,106.35,59.36Z"/><path class="cls-33" d="M117.57,20.87c-.4-.32-.82-.63-1.23-.94C107.44,13,99,11.25,90.9,13.7a27.45,27.45,0,0,0-4.26,2.06,9.26,9.26,0,0,1,2.73-3.19A21.29,21.29,0,0,1,103.92,7.7c1.68,1.2,3.32,2.5,4.91,3.82a48.51,48.51,0,0,1,6.76,6.76c.45.58.91,1.15,1.37,1.72,0,0,0,0,0,.06C117.2,20.34,117.39,20.6,117.57,20.87Z"/><path class="cls-34" d="M86.44,18.93a36.8,36.8,0,0,1,17.42-.05,39.94,39.94,0,0,1,13.69,5.94,6.67,6.67,0,0,0,1.14.47c-2.53-2-5-4.14-7.61-5.84-9.29-6-18.76-5.57-24.2-1.61C86.59,18.06,86.58,18.56,86.44,18.93Z"/><path class="cls-35" d="M103.76,69.17c-6,0-9.87-3.5-12.34-9A11.89,11.89,0,0,0,92,62,7,7,0,0,0,93.17,64a20.57,20.57,0,0,0,7.51,6.33,13.15,13.15,0,0,0,2.67,1,10.94,10.94,0,0,0,6.65-.18,10.39,10.39,0,0,0,1.4-.64,20.66,20.66,0,0,0,8.88-9.78,42.53,42.53,0,0,0,2.22-7.47C119,62.79,112.37,69.17,103.76,69.17Z"/><path class="cls-24" d="M125.61,54.41l-1.85-10.84-2.08-2c.42,3.51,1.18,10.71-.05,14.52-2.45,5.56-2.94,9.76-10.76,13.72-7.45,3.77-15.18-3.27-15-3l0,0a9.63,9.63,0,0,0,5.37,4.35A39.41,39.41,0,0,1,107,73.62c3.25.06,10.73-4.13,12.68-6.74C121.07,62.81,125.72,55.57,125.61,54.41Z"/><path class="cls-36" d="M125.37,53l-1.61-9.41-2.08-2c.42,3.51,1.18,10.71-.05,14.52-1.66,3.77-2.42,6.91-5.18,9.78A20.34,20.34,0,0,0,125.37,53Z"/><path class="cls-37" d="M201.62,89.84a255.26,255.26,0,0,0-15.13-29.07c-2.38-3.46-6.93-3.19-11.2-3.92-1.91-.33-3.82-.69-5.73-1.05a58.05,58.05,0,0,0,32.06,34Z"/><path class="cls-38" d="M210.45,174.23a13,13,0,0,1,2,5.9c.37,3.89-.71,7.79-2,11.54-3,9-4.84,18.26-9.57,26.51a2,2,0,0,0-.8-.27c-4.36-.76-7.38-3.16-11.81-2.78.36-7.07-.78-14.84-1-21.95-.2-5.52.22-11.26,2.26-16.45Z"/><path class="cls-39" d="M36.59,106a167,167,0,0,0,1.25,48.7c5.36-12.38,10.06-24.6,14.48-37.28A141,141,0,0,0,36.59,106Z"/><path class="cls-40" d="M68.72,133.55a159.71,159.71,0,0,1-3.59,29A89.63,89.63,0,0,0,79.42,187l-.22.16C75.12,197.27,62.47,202.64,59,212.83a64.75,64.75,0,0,1,42.24-4.39,139.9,139.9,0,0,0-21.12-59.66A137.22,137.22,0,0,0,68.72,133.55Z"/><path class="cls-41" d="M208.87,255c-7.62-12-20.1-20.68-33.74-24.89-13.81-4.25-28.73-4.19-42.89-1.29-5.28,1.09-10,7.07-15.16,5.41-41.82-13.56-78.79,5.88-78.79,5.88-11.82,8.37-16.45,18-23.33,30a25.14,25.14,0,0,1,17.81,14.16c.1-.16.21-.31.31-.49,3.92-8.41,10.06-13.61,17.69-18.9,18.75-13,40.5-18.79,63.17-21.38a100,100,0,0,1,53.57,3.88c10.35,3.59,22.55,12.45,29.92,21.79A35.91,35.91,0,0,1,208.87,255Z"/><path class="cls-42" d="M208.87,255c-7.62-12-20.1-20.68-33.74-24.89-13.81-4.25-28.73-4.19-42.89-1.29-5.28,1.09-10,7.07-15.16,5.41-41.82-13.56-78.79,5.88-78.79,5.88-11.82,8.37-16.45,18-23.33,30a25.14,25.14,0,0,1,17.81,14.16c.1-.16.21-.31.31-.49,3.92-8.41,10.06-13.61,17.69-18.9,18.75-13,40.5-18.79,63.17-21.38a100,100,0,0,1,53.57,3.88c10.35,3.59,22.55,12.45,29.92,21.79A35.91,35.91,0,0,1,208.87,255Z"/><path class="cls-43" d="M18.48,268.62S64.34,224.33,107,231.34"/><path class="cls-43" d="M21.39,270.48s39.84-41.54,87.32-37.21"/><path class="cls-43" d="M24.3,272.33s33.81-38.77,86.16-37.14"/><path class="cls-43" d="M27.22,274.18s27.78-36,85-37.06"/><path class="cls-43" d="M30.13,276s21.75-33.23,83.81-37"/><path class="cls-43" d="M205.79,253.28s-38.88-35.76-85.88-23.88"/><path class="cls-43" d="M204.08,256.12s-32.22-34.85-84.32-25.34"/><path class="cls-43" d="M202.37,259S176.8,225,119.61,232.15"/><path class="cls-43" d="M200.66,261.8s-18.91-33-81.2-28.27"/><path class="cls-43" d="M199,264.64s-12.26-32.13-79.65-29.74"/><path class="cls-44" d="M32.68,284.86c3.93-8.41,10.46-14.68,18.09-20,18.75-13,40.5-18.79,63.17-21.38a100,100,0,0,1,53.57,3.88c10.35,3.59,23.25,13.74,30.62,23.08l2.07-3.64c-7.37-9.34-22.34-20.32-32.69-23.91A100,100,0,0,0,113.94,239c-22.67,2.58-44.42,8.38-63.17,21.38-7.63,5.28-16.71,12.94-20.64,21.36Z"/><path class="cls-45" d="M113.91,236.88c-37.62-3.83-73,4.15-104.82,24.56,8.63-19.6,18.59-39.25,28.66-58.15l78.36-5.93Z"/><path class="cls-46" d="M37.75,203.29c-3.87,7.26-7.72,14.63-11.49,22.07,5.4,6.15,15.6,12.36,34.82,14.32a166.3,166.3,0,0,1,52.83-2.8l2.2-39.52Z"/><path class="cls-47" d="M208.15,187.35l-.61-7.56c-27.68-7.19-64.09-4.37-89.69,8.38-19.78-11.65-49.75-17.79-72.08-12.46-4.73,8.13-9.62,16.34-14.48,24.6-7.65,13-15.25,26.17-22.11,39.32,33.53-13.9,70.16-13.8,104.73-2.75l.47-.14A131.38,131.38,0,0,1,134.82,232a134.85,134.85,0,0,1,77.82,11.69Z"/><path class="cls-48" d="M117.85,188.17c-19.78-11.65-49.75-17.79-72.08-12.46-4.73,8.13-9.62,16.34-14.48,24.6A32.84,32.84,0,0,0,37.23,202c12.28,2.27,24.87-.67,37.35-.72s26.54,4,32.1,15.18c2.34,4.72,2.86,10.13,4.74,15.05a19.41,19.41,0,0,0,3,5.21A131.38,131.38,0,0,1,134.82,232c.56-.85,1.11-1.7,1.63-2.52,15.45-24.3,43.12-39.78,71.7-42.15l-.61-7.56C179.86,172.6,143.45,175.42,117.85,188.17Z"/><polygon class="cls-49" points="57.98 130.3 57.33 126.08 71.81 119.02 91.52 121.63 90.54 126.62 57.98 130.3"/><path class="cls-50" d="M71.81,124c0,.73-1.42,75.77-1.42,75.77s15.68-.47,18-.65c0-.7,4.11-73.23,4.11-73.23S76.89,124.58,71.81,124Z"/><path class="cls-51" d="M71.81,124c-4,1.8-14.94,6.34-14.94,6.34s4,52.26,4.5,65.65c0,1.05.18,3.13.18,3.13s6.69.65,9.52.65C71.37,178.28,71.4,153.09,71.81,124Z"/><path class="cls-49" d="M67.1,136.8c0,1.45.08,2.69,0,3.91,0,.22-.47.58-.77.61-1.32.09-2.66.1-4,.12-.15,0-.43-.07-.44-.12a13.66,13.66,0,0,1-.34-2.68c0-.31.58-.74,1-.86C64,137.41,65.38,137.17,67.1,136.8Z"/><path class="cls-52" d="M67,142.37a31,31,0,0,1,0,3.34c0,.19-.78.46-1.22.47-1.3,0-3.38.3-3.76-.13-.65-.74-.3-1.94-.26-3,0-.15.55-.38.89-.42C64.05,142.55,65.47,142.47,67,142.37Z"/><path class="cls-53" d="M67.1,131.58c0,1.18.08,2.24,0,3.29a1,1,0,0,1-.67.74c-1.5.41-3,.73-4.56,1.09C60.79,133.76,61.91,132.65,67.1,131.58Z"/><path class="cls-49" d="M66.82,187l.06,3c-3.7.36-4.55-.16-3.9-2.39.07-.24.63-.54,1-.58C64.85,186.93,65.74,187,66.82,187Z"/><path class="cls-49" d="M67.3,192.4c-.17.45-.19,1.23-.55,1.29-1,.17-2.8.28-3.08,0a3.4,3.4,0,0,1-.6-2.34c0-.13.8-.28,1.25-.42a1.31,1.31,0,0,1,.28,0C67.34,190.93,67,190.65,67.3,192.4Z"/><path class="cls-53" d="M66.94,147.31a5.77,5.77,0,0,1,.11.94c-.22,3,.85,2.49-3.92,2.48-.4,0-.85-.46-1.2-.76-.13-.12,0-.37,0-.56-.09-1.82-.09-1.81,2.48-1.91C65.16,147.47,66,147.38,66.94,147.31Z"/><path class="cls-49" d="M63,197a11.81,11.81,0,0,1,0-1.77c0-.19.4-.39.68-.54a2.08,2.08,0,0,1,.66-.1c2.67-.19,3.54.42,2.79,2a1.21,1.21,0,0,1-.85.41C65.26,197,64.23,197,63,197Z"/><path class="cls-53" d="M66.8,155.66c0,.44,0,.76,0,1.08,0,2,0,2-3,1.92-1.21,0-1.67-.28-1.67-1.14,0-2.35-.36-1.82,3.11-1.91C65.71,155.6,66.13,155.64,66.8,155.66Z"/><path class="cls-53" d="M66.7,183.72l0,2.33c-.27,0-.45.08-.63.09-3.28.15-3.83-.28-3-2.42Z"/><path class="cls-54" d="M66.53,159.63l.06,3.11c-1.51-.22-3-.19-4-.66-.53-.26-.53-1.84-.07-2A16.31,16.31,0,0,1,66.53,159.63Z"/><path class="cls-49" d="M66.76,151.82c.44,2.5-1,3.3-4.08,2.53a.93.93,0,0,1-.58-.55c-.52-1.71-.21-2,2.36-2Z"/><path class="cls-49" d="M66.4,170.19l0,1.3,0,1.61c-1.32-.06-2.91.16-3.48-.23a1.54,1.54,0,0,1-.09-2.12C63.41,170.3,65,170.38,66.4,170.19Z"/><path class="cls-53" d="M64.54,165.94c-2,0-2,0-2.07-1.35,0-1.17.07-1.19,2.5-1.21,1.14,0,1.71.14,1.66,1C66.53,165.94,66.61,166,64.54,165.94Z"/><path class="cls-53" d="M66.37,166.77l0,2.75a15.6,15.6,0,0,1-3.56-.45c-.45-.18-.52-1.56-.09-1.75A14.59,14.59,0,0,1,66.37,166.77Z"/><path class="cls-54" d="M63,182.36c0-.25-.1-.46-.12-.67-.11-1.53.49-1.89,2.93-1.73.27,0,.53.27.77.42,0,0,0,.12,0,.18C67,182.43,66.64,182.6,63,182.36Z"/><path class="cls-53" d="M64.69,179.2c-1.36.2-2-.1-1.89-1.07.08-1.23,0-1.2,2.51-1.24,1.84,0,1.08.82,1.25,1.34C66.88,179.24,65.91,179.32,64.69,179.2Z"/><path class="cls-52" d="M66.33,173.85l0,2.24a24.59,24.59,0,0,1-3.46-.34c-.23-.05-.33-1.22,0-1.31A22,22,0,0,1,66.33,173.85Z"/><path class="cls-49" d="M79.27,188.65l-.1,5.94H76.52l0-6.15Z"/><path class="cls-49" d="M84.81,190c0-1.13-.37-1.3-2.93-1,0,1.53,0,3.08-.12,4.61-.06,1.31,0,1.36,2.88,1.16C84.7,193.12,84.75,191.56,84.81,190Z"/><path class="cls-54" d="M81.51,130.63c0-1.87,0-1.92-3.39-1.84A9.53,9.53,0,0,0,78,130c0,2.14,0,4.26,0,6.35,0,1.54.23,1.63,3.37,1.36C81.41,135.42,81.45,133,81.51,130.63Z"/><path class="cls-49" d="M85.44,174.49c0-.19-.76-.46-1.25-.53-.79-.11-1.36.06-1.38.61,0,1.17-.14,2.33-.2,3.49,0,1,0,2-.08,3l2.73.13C85.34,178.92,85.45,176.72,85.44,174.49Z"/><path class="cls-49" d="M77.37,165.94c-.07,2-.11,4-.19,6,0,.5,0,.89,1.27.9s1.43-.38,1.44-.94c0-1.87.15-3.76.22-5.67,0-1.26-.06-1.3-2.57-1.06A4,4,0,0,0,77.37,165.94Z"/><path class="cls-52" d="M85.89,169c0-1,0-2,.12-3.06,0-.59-.26-.88-1.41-.89s-1.35.29-1.37.82q-.11,3.12-.28,6.16c0,.52.21.78,1.26.79s1.46-.25,1.45-.82c0-1,.06-2,.09-3Z"/><path class="cls-54" d="M79.78,174.8c0-.51-.06-.86-1.28-.88s-1.42.38-1.43.92c0,1.66-.12,3.29-.17,4.91,0,1.25,0,1.25,2.77,1.1C79.7,178.83,79.73,176.83,79.78,174.8Z"/><path class="cls-49" d="M84.39,137.16c0,.76.54,1,1.68,1s1.41-.41,1.45-1c.13-1.84.31-3.7.44-5.58s.11-1.93-3.34-2.07C84.54,132.07,84.49,134.63,84.39,137.16Z"/><path class="cls-54" d="M86.32,157.56c0-.22-.83-.54-1.33-.58s-1.24.32-1.25.5c-.15,2.18-.18,4.34-.24,6.52h2.65C86.23,161.83,86.35,159.7,86.32,157.56Z"/><path class="cls-49" d="M77.43,162.77c0,1.31.26,1.42,2.67,1.1l.13-6.89H77.49C77.47,159,77.45,160.91,77.43,162.77Z"/><path class="cls-49" d="M82.16,186.73c0,1.23.11,1.31,2.65,1.11l.19-5.59H82.28C82.24,183.81,82.22,185.28,82.16,186.73Z"/><path class="cls-49" d="M79.4,182.1c-2.53-.19-2.54-.19-2.6,1s-.09,2.21-.13,3.3.15,1.24,2.64,1.08Z"/><path class="cls-49" d="M83.83,154.75c0,1.23.09,1.29,2.54,1l.27-7.53H84C84,150.47,83.89,152.62,83.83,154.75Z"/><path class="cls-52" d="M80.53,148.68c0-.23-.86-.57-1.39-.62-.34,0-1.13.4-1.14.62-.11,2.34-.11,4.64-.13,7l2.59.13C80.51,153.32,80.59,151,80.53,148.68Z"/><path class="cls-49" d="M87.2,140.07c0-.66-.28-.94-1.38-1-1.26,0-1.4.37-1.4,1,0,2-.09,3.88-.15,5.79,0,1.27.09,1.34,2.66,1.09C87,144.71,87.06,142.41,87.2,140.07Z"/><path class="cls-49" d="M78.12,140.29c0,1.71-.05,3.4-.06,5.08,0,.48.08,1,.13,1.52,1.1-.14,2.45.38,2.48-.72.07-2.29.1-4.61.14-7C78.3,138.92,78.11,139,78.12,140.29Z"/><polygon class="cls-51" points="71.92 121.36 56.88 127.89 56.08 124.94 71.92 118.11 71.92 121.36"/><polygon class="cls-50" points="71.92 121.36 92.53 123.67 92.94 120.03 71.92 118.11 71.92 121.36"/><path class="cls-55" d="M100.44,210.09c-.45,0-13.45.71-13.93.72-.06-.28-.11-.44-.13-.61-.23-3-.45-6-.7-9-.54-6.57-1.12-13.39-1.69-20.49-.63-7.86-1.24-16.07-1.92-24.64a5.51,5.51,0,0,0-.38-2c-.41-.86,0-1.2.94-1.5,4.37-1.46,11-2.08,15.28-3.54Z"/><path class="cls-51" d="M97.91,149c.45,11.56.86,22.31,1.27,32.46q.6,14.47,1.16,27.45c2.4.17,21.36-1.26,22.69-1.7.46-15.9,1-33.42,1.51-52.76Z"/><path class="cls-56" d="M85.51,180.16a2.78,2.78,0,0,0,.54.07c3.52-.71,7-1.43,10.48-2.12,1-.2,1.09-.66,1.06-1.3-.26-5.82-.5-11.82-.76-18a8.29,8.29,0,0,0-.24-1.13l-12.74,3.17C84.5,167.62,84.71,174,85.51,180.16Z"/><path class="cls-57" d="M86.27,179.31c-.42-3.41-.67-6.88-.93-10.54-.17-2.36-.35-4.8-.57-7.27L96,158.7a.62.62,0,0,1,0,.13q.16,3.79.32,7.47.22,5.37.45,10.55a1.5,1.5,0,0,1,0,.31h0a1.41,1.41,0,0,1-.37.11c-2.18.43-4.37.88-6.57,1.33Z"/><path class="cls-58" d="M108.52,155.72c2.15.44,4,.78,5.82,1.22.91.22,1.37,2.27.68,2.84a1.44,1.44,0,0,1-1,.17c-1.39-.23-2.81-.51-4.26-.83-1.27-.28-1.46-.53-1.44-1.76A13.87,13.87,0,0,1,108.52,155.72Z"/><path class="cls-59" d="M113.27,161.73c-.71-.1-1.42-.21-2.15-.28s-1.67-.14-2.47-.2c-.79,2.42-.54,2.82,1.69,3.07.84.09,1.67.19,2.49.25s1.47.08,2.26.12C115.52,162.21,115.41,162,113.27,161.73Z"/><path class="cls-59" d="M108.4,167.6c-.07,1.49.18,1.75,1.7,1.82,1.34.07,2.65.15,3.93.16a1.71,1.71,0,0,0,1.15-.34,1.63,1.63,0,0,0-.87-2.44c-1-.12-2-.15-3.08-.21l-2.56-.1A6.43,6.43,0,0,0,108.4,167.6Z"/><path class="cls-59" d="M120.35,183c.17-1.49,0-1.85-1.26-1.92s-2.42-.09-3.62,0-1.31.25-1.35,1.72a12.25,12.25,0,0,0,.15,1.4l5.76.12A10.73,10.73,0,0,0,120.35,183Z"/><path class="cls-21" d="M118.47,178.73c2.19.09,2.39-.18,2.27-3a1.23,1.23,0,0,0-.12-.37,9.53,9.53,0,0,0-6.11,0l0,3.1C115.93,178.58,117.2,178.68,118.47,178.73Z"/><path class="cls-59" d="M119.48,195.28l.12-2.63a26.86,26.86,0,0,0-5.51-.16v2.61C116,195.23,117.71,195.61,119.48,195.28Z"/><path class="cls-59" d="M114.15,186.78v2.58a12.09,12.09,0,0,0,5.66.23l.11-2.57A51.7,51.7,0,0,0,114.15,186.78Z"/><path class="cls-59" d="M103.93,175.23c-.5,0-.66.49-.64,1.12s.3,1.16.86,1.22c1.72.2,3.43.38,5.16.53a3.76,3.76,0,0,0,1-.21l0-2.87C108.09,174.66,106,175.11,103.93,175.23Z"/><path class="cls-21" d="M110.46,186.65c-2.38,0-4.52,0-6.7.08l.13,2,6.49.62Z"/><path class="cls-59" d="M109.91,192.43c-1.75,0-3.49,0-5.21.12-.41,0-.65.29-.63.82s.32.92.79,1c1.71.18,3.43.32,5.15.46.12,0,.23-.15.38-.25,0-.3.06-.62,0-.93s-.08-.64-.12-1C110.16,192.57,110,192.43,109.91,192.43Z"/><path class="cls-59" d="M104.63,183.39c1.56.21,3.13.34,4.69.47a4.9,4.9,0,0,0,1.08-.15l-.05-2.58-6.62.19C103.57,183.08,103.63,183.25,104.63,183.39Z"/><path class="cls-59" d="M93.23,186.41c.26-.09.53-.64.56-1.08a21.11,21.11,0,0,0-.2-2.58,25.1,25.1,0,0,0-4.11,1.51c-.19.09-.34.64-.35,1a21.11,21.11,0,0,0,.18,2.24C90.71,187.14,92,186.85,93.23,186.41Z"/><path class="cls-59" d="M90.82,200.75c-.34.06-.52.39-.46,1s.15,1.23.24,2a12.23,12.23,0,0,0,4.09-.37c.23-.05.42-.55.44-.94a19.75,19.75,0,0,0-.19-2.35C93.35,200.33,92.06,200.53,90.82,200.75Z"/><path class="cls-58" d="M93.82,191.7c.44-.16.52-1.41.24-2.39s-.72-.72-1.11-.61c-.84.23-1.66.47-2.46.74-1.17.38-1.26.7-.75,3.23A16.83,16.83,0,0,0,93.82,191.7Z"/><path class="cls-59" d="M94.2,197.35c.2,0,.42-.48.42-.81,0-.68-.14-1.41-.25-2.41-1.52.33-2.84.58-4.1.93-.2.05-.36.56-.38.93a16.22,16.22,0,0,0,.16,2.08C91.53,197.82,92.86,197.64,94.2,197.35Z"/><path class="cls-60" d="M131.76,205.36a8.43,8.43,0,0,1-5.51-1.73,3.94,3.94,0,0,1-1.56-2.86,3.43,3.43,0,0,1,.66-2.25,9.06,9.06,0,0,1,.87-1c.13-.14.21-.25,0-.4a3.13,3.13,0,0,1-1.17-3,4.42,4.42,0,0,1,1.66-3.14.6.6,0,0,0,.09-.86,2.89,2.89,0,0,1-.43-2.45,4.5,4.5,0,0,1,1.86-2.85,1,1,0,0,0,.47-.94,2.59,2.59,0,0,1,.67-2,1.21,1.21,0,0,0,.19-.48c.29-.82.56-1.66.88-2.47a2.63,2.63,0,0,1,.56-.84.9.9,0,0,1,1.6.17,12.13,12.13,0,0,1,.68,1.8,5,5,0,0,1,.14.77,2.21,2.21,0,0,0,.33.95,4,4,0,0,1,.66,2.46.48.48,0,0,0,.15.38,3.11,3.11,0,0,1,1.68,2.48,4.67,4.67,0,0,1-.64,3.34.51.51,0,0,0,.16.78,4.18,4.18,0,0,1,1.45,5.13c-.14.39-.3.78-.46,1.16a.43.43,0,0,0,.11.54,3.81,3.81,0,0,1,1.21,2.47,3.45,3.45,0,0,1-.8,2.44,6.57,6.57,0,0,1-4,2.24A13.32,13.32,0,0,1,131.76,205.36Z"/><path class="cls-61" d="M176.53,180.63a2.66,2.66,0,0,1,1.94,1.1,10,10,0,0,1,1.76,3.42c.33,1,.54,2,.85,3,.17.53.48,1,.69,1.55a6.88,6.88,0,0,1-1.29,7.34,5,5,0,0,1-7.16.11,6.7,6.7,0,0,1-1.71-2.69l-.1-.24-.3-1.62a.76.76,0,0,0,0-.16,7.42,7.42,0,0,1,.65-3.38,5.1,5.1,0,0,0,.33-1,23,23,0,0,1,1.25-4.24,5.35,5.35,0,0,1,2.47-3.11Z"/><path class="cls-62" d="M169,161.18a164.41,164.41,0,0,0,10.88,12.76,9.74,9.74,0,0,0-2,1.78l-1-1.11a70.86,70.86,0,0,1-8.42-12.21l-.14-.12Z"/><path class="cls-63" d="M144.26,203.08l.11.1c.14,1.72.33,3.76.46,5.37l-3-.84c-.14-1.59-.3-3.23-.44-4.91a1.92,1.92,0,0,1,1.29-.38A2.71,2.71,0,0,1,144.26,203.08Z"/><path class="cls-55" d="M168.73,207.27h0l-4.23.67c.21-3.21.57-6.6,1.11-10.17a3.5,3.5,0,0,1,2.51-.92,3.32,3.32,0,0,1,1.4.37h0A58.48,58.48,0,0,0,168.73,207.27Z"/><path class="cls-64" d="M145.92,186.43a52.07,52.07,0,0,0,7-1.12l7.23,5.66,1.42,1.11-.09,0c-3.21,1-11.22,2.82-11.95,3.32a38.46,38.46,0,0,0-7.25-8.73h0C143.56,186.63,144.75,186.55,145.92,186.43Z"/><path class="cls-65" d="M169,161.18l-.63,1.1c-2.88,5.12-5.43,9.93-7.87,14.44h0l-.81,1.49-14.58-2.28-2.06-.32c2.88-4.53,5.92-9.35,9.05-14.79C157.91,160.92,163,160.8,169,161.18Z"/><path class="cls-55" d="M149.56,195.42c.63,5.49.88,10.26,1.57,14.92l-6.3-1.79c-.13-1.61-.32-3.65-.46-5.37l-.11-.1a2.71,2.71,0,0,0-1.6-.66,1.92,1.92,0,0,0-1.29.38c.14,1.68.3,3.32.44,4.91-2-.54-3.67-1-4.26-1.08-.92-4.85-1.64-9.49-2.48-15.19,2.4-1.57,4.69-3.06,7.24-4.75A38.46,38.46,0,0,1,149.56,195.42Z"/><path class="cls-55" d="M159.67,178.22l.81-1.49c-.32,4.92-.41,9.94-.29,14.23h0L153,185.31a52.07,52.07,0,0,1-7,1.12c-.34-3.33-.62-6.82-.83-10.49Z"/><path class="cls-66" d="M151.13,210.34c-.69-4.66-.94-9.43-1.57-14.92.73-.5,8.74-2.35,11.95-3.32l.09,0L160.18,191h0c-.12-4.29,0-9.31.29-14.23h0c2.44-4.51,5-9.32,7.87-14.44l.14.12a70.86,70.86,0,0,0,8.42,12.21c-.69,6.31-3.52,26.76-3.85,31.83-.75.22-2.33.5-4.33.84h0a58.48,58.48,0,0,1,.8-10h0a3.32,3.32,0,0,0-1.4-.37,3.5,3.5,0,0,0-2.51.92c-.54,3.57-.9,7-1.11,10.17C159.34,208.76,153.48,209.66,151.13,210.34Z"/><path class="cls-49" d="M172.63,174.92c0-.12-.76-.29-1.25-.34-.79-.07-1.36,0-1.38.39,0,.75-.14,1.5-.2,2.25s-.06,1.28-.08,1.94l2.73.09C172.53,177.77,172.64,176.36,172.63,174.92Z"/><path class="cls-67" d="M167,175.12c0-.33-.06-.56-1.29-.57s-1.41.25-1.42.6c0,1.06-.13,2.11-.17,3.15,0,.81,0,.81,2.76.71C166.89,177.72,166.91,176.43,167,175.12Z"/><path class="cls-49" d="M167,181c0-.12-.76-.29-1.25-.34-.79-.07-1.36,0-1.38.39,0,.76-.14,1.51-.19,2.25s-.06,1.29-.09,1.94l2.73.09C166.89,183.83,167,182.42,167,181Z"/><path class="cls-52" d="M172.62,181.28c0-.33-.06-.56-1.29-.56s-1.41.24-1.42.59c0,1.06-.13,2.11-.18,3.15,0,.81,0,.81,2.77.71C172.54,183.88,172.56,182.59,172.62,181.28Z"/><path class="cls-49" d="M167,186.68c0-.13-.76-.3-1.25-.35-.79-.07-1.36,0-1.38.4,0,.75-.15,1.5-.2,2.24s-.06,1.29-.09,1.95l2.73.08C166.9,189.53,167,188.11,167,186.68Z"/><path class="cls-49" d="M141.86,194.44c0-.17-1.09-.41-1.73-.47-1-.1-1.58,0-1.51.44.13.8.17,1.5.27,2.13s.16,1.54.23,2c.8.19,1.43-.22,2.54.06C141.74,197.46,141.87,196.13,141.86,194.44Z"/><path class="cls-52" d="M146.26,199c.07-1.13.2-2.45.19-4.15,0-.16-1.09-.41-1.73-.47-1-.09-1.58,0-1.51.45.13.79.18,1.49.27,2.13s.16,1.53.24,2Z"/><path class="cls-49" d="M172.62,187c0-.33-.06-.55-1.29-.56s-1.41.24-1.42.59c0,1.06-.12,2.12-.17,3.16,0,.8,0,.8,2.77.7C172.54,189.57,172.57,188.28,172.62,187Z"/><path class="cls-68" d="M52.93,180.63a2.66,2.66,0,0,1,1.94,1.1,10,10,0,0,1,1.76,3.42c.33,1,.54,2,.85,3,.17.53.48,1,.69,1.55a6.88,6.88,0,0,1-1.29,7.34,5,5,0,0,1-7.16.11A6.7,6.7,0,0,1,48,194.49l-.1-.24-.3-1.62a.76.76,0,0,0,0-.16,7.42,7.42,0,0,1,.65-3.38,4.51,4.51,0,0,0,.33-1,23,23,0,0,1,1.25-4.24,5.39,5.39,0,0,1,2.47-3.11Z"/><path class="cls-69" d="M45.5,185.79a2.61,2.61,0,0,1,1.94,1.09,9.92,9.92,0,0,1,1.77,3.43c.32,1,.53,2,.85,3,.17.53.47,1,.69,1.55a6.9,6.9,0,0,1-1.29,7.34,5,5,0,0,1-7.17.11,6.67,6.67,0,0,1-1.7-2.69,2.56,2.56,0,0,0-.11-.24l-.29-1.62a.88.88,0,0,0,0-.16,7.61,7.61,0,0,1,.66-3.39,4.77,4.77,0,0,0,.32-1A23.28,23.28,0,0,1,42.44,189a5.47,5.47,0,0,1,2.48-3.11Z"/><path class="cls-70" d="M119.64,213.6a5.8,5.8,0,0,1-5.49-3.22,4.69,4.69,0,0,1,.91-5.29,3.6,3.6,0,0,0,.63-.78,1.06,1.06,0,0,0-.1-1.09,4.28,4.28,0,0,1,3.14-6.57,4.15,4.15,0,0,1,4.16,2.06,4.08,4.08,0,0,1-.07,4.65,2,2,0,0,0-.24,1.29c0,.1.12.22.21.3a5.36,5.36,0,0,1,1.79,3.1A4.64,4.64,0,0,1,122,213,5.62,5.62,0,0,1,119.64,213.6Z"/><path class="cls-71" d="M92.19,216.23c.45.13,10.94.39,11.26.42a28.59,28.59,0,0,0,9.7-.9,19.49,19.49,0,0,0,2.5-.76,2.1,2.1,0,0,0,.86-3.4,3.94,3.94,0,0,0-1.83-1.29,4.84,4.84,0,0,0-3.91.1l.14.13c.36-.44.73-.87,1.08-1.32a2.51,2.51,0,0,0-.28-3.68,6.08,6.08,0,0,0-1.72-1,11.49,11.49,0,0,0-6.54-.38,8.74,8.74,0,0,0-5.59,3.05s-.09,0-.1,0a2.37,2.37,0,0,0-2.28-.51A6.3,6.3,0,0,0,93,208.74s-3.14,3.75-2.53,6.73C90.64,216.16,92.19,216.23,92.19,216.23Z"/><path class="cls-63" d="M175.3,219.47c-.12,1-.6,1.84-1.09,1.87s-.81-.77-.7-1.79.61-1.88,1.11-1.89S175.41,218.46,175.3,219.47Z"/><path class="cls-54" d="M158,215.42l-1,1.18a2.39,2.39,0,0,1-2.19.78c-.64-.08-1.3-.19-1.71-.27a3.48,3.48,0,0,1-.83-.23,1.94,1.94,0,0,1-.58-.46l-1.11-1.13C152.09,215.3,156.72,215.39,158,215.42Z"/><path class="cls-72" d="M147.85,220.15a2.78,2.78,0,0,1-2.17,1.84,4.92,4.92,0,0,1-3.36-.39,3,3,0,0,1-1.63-2.16l7.16.7Z"/><path class="cls-24" d="M173.46,215.39l-4.05-.09.18-3.36c.6,0,1.18.1,1.75.19a2.23,2.23,0,0,1,.85.27,2.29,2.29,0,0,1,.64.8A3.18,3.18,0,0,1,173.46,215.39Z"/><path class="cls-63" d="M162.34,219.7c0,1.3-.67,2.43-1.57,2.54s-1.72-.86-1.76-2.2.69-2.51,1.63-2.59S162.32,218.39,162.34,219.7Z"/><path class="cls-54" d="M168.77,216.32a1.69,1.69,0,0,1-.06.55,10.12,10.12,0,0,0-1.8.16l.06-.56A8.47,8.47,0,0,1,168.77,216.32Z"/><path class="cls-24" d="M168.46,211.86l-.35,3.38-6.54-.2a7.75,7.75,0,0,1,3-2.76,7.13,7.13,0,0,1,2.74-.44C167.68,211.84,168.07,211.84,168.46,211.86Z"/><path class="cls-54" d="M145.24,214.35l-1.66,1a2.94,2.94,0,0,1-.84.38,5.35,5.35,0,0,1-1.08.1,15.3,15.3,0,0,1-2.87-.06c.08-.16.18-.31.27-.47a4.78,4.78,0,0,1,1-1.26,3.18,3.18,0,0,1,.62-.45C142.34,213.82,143.65,214.07,145.24,214.35Z"/><path class="cls-73" d="M140.69,219.44l-2.55-.25a4.06,4.06,0,0,1,.65-3.46,15.3,15.3,0,0,0,2.87.06,5.35,5.35,0,0,0,1.08-.1,2.94,2.94,0,0,0,.84-.38l1.66-1c-1.59-.28-2.9-.53-4.59-.8a10.61,10.61,0,0,1,1.63-.77c.51-.2,1-.38,1.53-.55l0,0c5.61.86,10.82,1.68,15.46,2.28a9.66,9.66,0,0,1,3.53-3.06,3.17,3.17,0,0,1,1-.38v0c-3.1-.5-6.43-.93-10-1.27l1.31-.44a30.66,30.66,0,0,1,8.24,0,59.06,59.06,0,0,1,7,1.44,9,9,0,0,1,3.29,1.32,16.44,16.44,0,0,0,2.8,4,5,5,0,0,1,.3,2.56,3.57,3.57,0,0,1-.48,1.51l-.4,0a4.07,4.07,0,0,0,0-.5c.13-1.64-.37-3-1.14-2.92s-1.53,1.45-1.65,3.13a5.75,5.75,0,0,0,0,.58l-1.4.07-8.59.46a6.18,6.18,0,0,0,.14-1c.07-2.2-1-4-2.51-3.93s-2.69,2-2.72,4.31c0,.26-.18.5-.15.74h0l-1.28-.13-8.7-.85Zm32.45-2.63a1.88,1.88,0,0,0,.07-.53,7.63,7.63,0,0,0-1.64.14l-.06.53A8.29,8.29,0,0,1,173.14,216.81Zm-3.73-1.51,4.05.09a3.18,3.18,0,0,0-.63-2.19,2.29,2.29,0,0,0-.64-.8,2.23,2.23,0,0,0-.85-.27c-.57-.09-1.15-.15-1.75-.19Zm-.7,1.57a1.69,1.69,0,0,0,.06-.55,8.47,8.47,0,0,0-1.8.15l-.06.56A10.12,10.12,0,0,1,168.71,216.87Zm-.6-1.63.35-3.38c-.39,0-.78,0-1.17,0a7.13,7.13,0,0,0-2.74.44,7.75,7.75,0,0,0-3,2.76Zm-11.05,1.36,1-1.18c-1.3,0-5.93-.12-7.38-.13l1.11,1.13a1.94,1.94,0,0,0,.58.46,3.48,3.48,0,0,0,.83.23c.41.08,1.07.19,1.71.27A2.39,2.39,0,0,0,157.06,216.6Z"/><path class="cls-24" d="M153.8,209.8c3.57.34,6.9.77,10,1.27v0a3.17,3.17,0,0,0-1,.38,9.66,9.66,0,0,0-3.53,3.06c-4.64-.6-9.85-1.42-15.46-2.28l0,0a11,11,0,0,1,5.38-.49A25.23,25.23,0,0,1,153.8,209.8Z"/><path class="cls-54" d="M173.21,216.28a1.88,1.88,0,0,1-.07.53,8.29,8.29,0,0,0-1.63.14l.06-.53A7.63,7.63,0,0,1,173.21,216.28Z"/><path class="cls-72" d="M175.3,219.47c.11-1-.19-1.82-.68-1.81s-1,.86-1.11,1.89.21,1.82.7,1.79S175.18,220.47,175.3,219.47Zm-.58-2.71c.77,0,1.27,1.28,1.14,2.92a4.07,4.07,0,0,1,0,.5,2.61,2.61,0,0,1-2.24,2.33c-1,.11-1.84-.62-1.93-2h0l1.4-.07a5.75,5.75,0,0,1,0-.58C173.19,218.21,173.93,216.8,174.72,216.76Z"/><path class="cls-72" d="M157.83,221.12c0-.24.14-.48.15-.74,0-2.31,1.2-4.26,2.72-4.31s2.58,1.73,2.51,3.93a6.18,6.18,0,0,1-.14,1,3.66,3.66,0,0,1-3.15,2.8,3.1,3.1,0,0,1-3.37-2.81l1.28.13Zm2.94,1.12c.9-.11,1.6-1.24,1.57-2.54s-.78-2.32-1.7-2.25S159,218.69,159,220,159.85,222.35,160.77,222.24Z"/><path class="cls-74" d="M54.25,215.83H53.06c-.41,0-.46-.06-.37-.45.24-1.17.5-2.33.75-3.49,0-.06,0-.11,0-.16s0-.17-.12-.18h-.13c-.39-.05-.4-.06-.38-.46s0-.27.3-.3c.7-.1.57-.06.58-.62.06-2.83.1-5.67.15-8.5q0-.47,0-.93c0-.18,0-.31-.2-.38a.56.56,0,0,1-.27-.21.52.52,0,0,1-.13-.34.72.72,0,0,0-.07-.46l-.9-2.61a.46.46,0,0,0-.3-.37c-.21-.07-.21-.18,0-.31.46-.32.92-.63,1.39-.93.16-.1.2-.18.13-.36a.66.66,0,0,1,.24-.77.68.68,0,0,1,.79,0,.66.66,0,0,1,.31.74c-.09.25,0,.35.19.46.42.27.82.55,1.23.82s.27.28.05.52a.65.65,0,0,0-.11.22c-.3.86-.6,1.73-.89,2.59a1,1,0,0,0-.12.61c0,.09-.08.24-.17.32a.46.46,0,0,0-.16.36l0,9.53c0,.12,0,.23,0,.35s.07.21.22.19l.38,0c.18,0,.25.09.23.27a2.7,2.7,0,0,1-.08.57c0,.09-.12.21-.19.22s-.16.14-.15.26c.06.48.11,1,.17,1.44.09.7.2,1.4.29,2.1,0,.24,0,.32-.3.33Z"/><path class="cls-54" d="M54.39,196.41H52.66c-.17,0-.21.05-.14.21.32.85.64,1.7.95,2.55a.24.24,0,0,0,.26.19c.35,0,.71,0,1.06,0a.26.26,0,0,0,.28-.21c.28-.82.57-1.63.85-2.45.06-.15,0-.21-.15-.22C55.25,196.46,54.73,196.43,54.39,196.41Z"/><path class="cls-74" d="M70.42,208.88H69.23c-.41,0-.46-.07-.37-.46l.75-3.49c0-.05,0-.1,0-.16s0-.16-.12-.18H69.4c-.39,0-.4-.06-.38-.46,0-.25,0-.26.31-.3.69-.09.56,0,.58-.62,0-2.83.09-5.66.14-8.49,0-.32,0-.63,0-.94s0-.3-.2-.37a.62.62,0,0,1-.27-.21.56.56,0,0,1-.13-.35.73.73,0,0,0-.07-.46l-.9-2.61a.49.49,0,0,0-.3-.37c-.21-.07-.21-.18,0-.31.46-.32.92-.63,1.39-.93.16-.1.2-.18.13-.36A.67.67,0,0,1,70,187a.7.7,0,0,1,1.1.72c-.09.25,0,.34.19.45l1.23.82c.27.18.28.28,0,.53a.57.57,0,0,0-.11.22c-.3.86-.6,1.72-.89,2.58a1,1,0,0,0-.12.61c0,.09-.08.24-.17.32a.46.46,0,0,0-.16.36l0,9.53c0,.12,0,.24,0,.35s.07.21.22.2a1.59,1.59,0,0,1,.38,0c.19,0,.25.08.23.27a2.8,2.8,0,0,1-.08.57c0,.08-.11.2-.19.22s-.16.13-.15.25c.06.48.11,1,.17,1.44.09.7.2,1.4.3,2.1,0,.24,0,.32-.31.33Z"/><path class="cls-54" d="M70.56,189.47H68.83c-.16,0-.21,0-.14.2.32.85.64,1.7,1,2.56a.23.23,0,0,0,.26.18H71a.26.26,0,0,0,.28-.2l.85-2.46c.06-.15,0-.21-.14-.21Z"/><path class="cls-74" d="M179.68,208.17c-.4,0-.8,0-1.19,0s-.46-.07-.38-.46l.75-3.49c0-.05,0-.1,0-.15s0-.17-.11-.18l-.13,0c-.4,0-.41-.06-.39-.45s0-.27.31-.31c.7-.09.57-.05.58-.62.05-2.83.09-5.66.14-8.49,0-.31,0-.63,0-.94s0-.3-.2-.37a.6.6,0,0,1-.28-.21c-.07-.1-.15-.24-.12-.34a.78.78,0,0,0-.07-.46c-.31-.88-.61-1.75-.9-2.62-.06-.16-.11-.3-.31-.37s-.21-.18,0-.31c.46-.32.93-.63,1.4-.93a.25.25,0,0,0,.12-.36.7.7,0,1,1,1.35-.05c-.09.25,0,.34.19.45l1.23.83c.26.17.27.27.05.52a.59.59,0,0,0-.12.22l-.89,2.58a1.15,1.15,0,0,0-.12.61c0,.1-.08.24-.17.33a.43.43,0,0,0-.16.35q0,4.77,0,9.53c0,.12,0,.24,0,.36s.07.2.22.19a2.48,2.48,0,0,1,.38,0c.19,0,.25.08.24.27a3.75,3.75,0,0,1-.09.57c0,.09-.11.21-.19.22s-.16.13-.15.25c.06.48.11,1,.17,1.44l.3,2.1c0,.24,0,.33-.31.33-.42,0-.83,0-1.25,0Z"/><path class="cls-54" d="M179.82,188.76h-1.74c-.16,0-.2,0-.14.2l1,2.56a.22.22,0,0,0,.25.18h1.06a.26.26,0,0,0,.28-.2c.28-.82.57-1.64.86-2.46.05-.15,0-.21-.15-.21Z"/><path class="cls-75" d="M79.57,210.77c0-.44-.93-.37-.93-.37s0-.07,0-.1a1.84,1.84,0,0,1,.09-.25c1.32-1.4-.37-2.62-1.28-2.66a4,4,0,0,0-1.47.41c-.73.5-1.08-2.27-1-2.38.2-.76-.56-.61-.56-.61l-.46.06a.21.21,0,0,0-.19.18.44.44,0,0,0,.13.4.63.63,0,0,1,.16.25c.23.94.47,1.86.66,2.77a12.07,12.07,0,0,1,.29,2.31,10.45,10.45,0,0,1-.38,2.85c-.09.33-.14.24.22.38a.7.7,0,0,0,.66-.12c.12-.07.12-.18,0-.22a.09.09,0,0,1-.07-.08c0-.29.09-.57.13-.86A3.23,3.23,0,0,1,76,211.3a.42.42,0,0,1,.32-.2,2.88,2.88,0,0,1,.41,0,1.06,1.06,0,0,1,.7.34,3,3,0,0,1,.73,1.06,5.17,5.17,0,0,1,.25,2.22c0,.11-.06.23-.08.34a.09.09,0,0,0,0,.1,1.21,1.21,0,0,0,.25.08.72.72,0,0,0,.62-.19c.08-.07.09-.16,0-.2a.17.17,0,0,1-.07-.1c.17-2.56-.9-3.51-.9-3.51h.13S79.62,211.21,79.57,210.77ZM77,210.52a1.14,1.14,0,0,1-1.39-1.05A1.48,1.48,0,0,1,77,208.15a1.12,1.12,0,0,1,1.31,1.06A1.48,1.48,0,0,1,77,210.52Z"/><path class="cls-75" d="M59.77,212.08l14.55-1.66,4.65.39s.14.16.13.23-.24.25-.24.25l-16,1.84Z"/><path class="cls-75" d="M58.26,206.12a18.69,18.69,0,0,1,1,3.9c-.06.91,0,1.49,0,1.49L74.84,210s-.19-4.15-1-5Z"/><path class="cls-75" d="M63.8,213c-.07-.55-1.07-.59-1.07-.59a.15.15,0,0,1,0-.13c0-.1.06-.19.09-.29,1.47-1.53-.46-3.11-1.43-3.22a3.21,3.21,0,0,0-1.48.37c-.69.49-1-2.5-1-2.62.19-.8-.51-.64-.51-.64s-.27,0-.41.06a.21.21,0,0,0-.17.19.48.48,0,0,0,.11.41.76.76,0,0,1,.15.26c.21,1,.43,2,.61,3a16.85,16.85,0,0,1,.28,2.56,12.2,12.2,0,0,1-.35,3.12c-.09.36-.13.25.21.48a.56.56,0,0,0,.64,0,.13.13,0,0,0,0-.25s-.07-.08-.06-.11c0-.32.08-.64.11-1A3.5,3.5,0,0,1,60,213a.36.36,0,0,1,.32-.18,2.85,2.85,0,0,1,.41,0,1.31,1.31,0,0,1,.74.51,4.56,4.56,0,0,1,.81,1.39,7.34,7.34,0,0,1,.34,2.79c0,.13-.06.27-.08.41a.14.14,0,0,0,.05.13,1.31,1.31,0,0,0,.28.17.69.69,0,0,0,.72-.06.19.19,0,0,0,0-.26.25.25,0,0,1-.08-.14c.12-3.17-1.12-4.52-1.12-4.52l.15,0S63.87,213.51,63.8,213Zm-2.88-.69a1.36,1.36,0,1,1,1.41-1.36A1.38,1.38,0,0,1,60.92,212.27Z"/><path class="cls-31" d="M56.21,392c1-2.77,3.25-4,5.47-5.73-.67,1.08-1.35,2.16-2.06,3.24-1.35,2.09-2.91,4.26-5.1,5.3A6.79,6.79,0,0,0,56.21,392Z"/><path class="cls-24" d="M54.52,394.81a5,5,0,0,1-5.23,1.3,7.26,7.26,0,0,1-4.39-6.5,20,20,0,0,1,.28-2.73,18.13,18.13,0,0,0,.14-2.06c.08.07.18.13.27.2h0c2.13,1.55,7.28,4.52,10.62,7A6.79,6.79,0,0,1,54.52,394.81Z"/><path class="cls-24" d="M56.21,392c-3.34-2.45-8.49-5.42-10.62-7h0a2,2,0,0,0,.7-1.29,23,23,0,0,0,.43-7.76,5.94,5.94,0,0,1-1-1.42,40.66,40.66,0,0,1,4.94-7.43c2.41-3.18,5.2-6.4,7.91-9.34a1.83,1.83,0,0,1,.81-1,1.16,1.16,0,0,1,1.58.17,1.62,1.62,0,0,1,.23.66c.14.72.27,1.45.4,2.17.37,1.93.73,3.85,1.09,5.78,1.15,6.08,1.66,12.2.53,18.24q-.72,1.23-1.5,2.46h0C59.46,388,57.26,389.23,56.21,392Z"/><path class="cls-31" d="M66.41,355.36c3.63,1.48,5.53,4.54,7.67,7.12a177.52,177.52,0,0,1-10.9,21.32c1.13-6,.62-12.16-.53-18.24-.36-1.93-.72-3.85-1.09-5.78C63.42,357.46,65,357.64,66.41,355.36Z"/><path class="cls-76" d="M91.71,281.62c-10.09,23.79-21.13,48.08-26.93,73.26,6.29,1.53,8,7.33,11.93,10.28,17.84-26.65,34.68-57.5,52.85-82.1,4.75-6.44,9.35-13.16,11.78-20.78a77.92,77.92,0,0,0,3.32-27.46,57.66,57.66,0,0,0-6.25-9.88,11,11,0,0,0-8.21-3.68c-6.87.76-9,5.28-15.79,8-10.72,18-18.35,32.28-22.63,52.77"/><path class="cls-77" d="M55,386.41a22.36,22.36,0,0,0-8.63-3.08c0,.13,0,.26-.07.4a2,2,0,0,1-.7,1.29c-.09-.07-.19-.13-.27-.2a16.08,16.08,0,0,1-.14,2.06,20,20,0,0,0-.28,2.73,7.26,7.26,0,0,0,4.39,6.5,5,5,0,0,0,5.23-1.3A6.73,6.73,0,0,0,56.21,392a8.18,8.18,0,0,1,2.1-3.06A22.56,22.56,0,0,0,55,386.41Z"/><path class="cls-78" d="M63.79,375.64a61.87,61.87,0,0,0-1.14-10.08c-.36-1.93-.72-3.85-1.09-5.78-.13-.72-.26-1.45-.4-2.17a1.62,1.62,0,0,0-.23-.66,1.16,1.16,0,0,0-1.58-.17,1.83,1.83,0,0,0-.81,1c-2.71,2.94-5.5,6.16-7.91,9.34a42.35,42.35,0,0,0-4.86,7.28,27.59,27.59,0,0,0,3.08,1.12A26.2,26.2,0,0,0,63.79,375.64Z"/><path class="cls-79" d="M87.23,328.84c-4.33-5.66-6.45-12.55-7.16-19.7-6.12,15-11.71,30.18-15.29,45.74,6.29,1.53,8,7.33,11.93,10.28,6.32-9.44,12.5-19.39,18.67-29.41A25.89,25.89,0,0,1,87.23,328.84Z"/><path class="cls-80" d="M119,243.45a26.07,26.07,0,0,1-6.45-10.94c-9.72,16.51-16.69,30.31-20.72,49.56l-.07-.45c-3.86,9.09-7.85,18.26-11.64,27.52.71,7.15,2.83,14,7.16,19.7a25.89,25.89,0,0,0,8.15,6.91c11.26-18.3,22.44-36.8,34.18-52.69,4.75-6.44,9.35-13.16,11.78-20.78A70.46,70.46,0,0,0,144,250.19l-.62.17A26.5,26.5,0,0,1,119,243.45Z"/><path class="cls-81" d="M144.66,234.82a57.66,57.66,0,0,0-6.25-9.88,11,11,0,0,0-8.21-3.68c-6.87.76-9,5.28-15.79,8l-1.91,3.21A26.07,26.07,0,0,0,119,243.45a26.5,26.5,0,0,0,24.45,6.91l.62-.17A87.92,87.92,0,0,0,144.66,234.82Z"/><path class="cls-24" d="M182.35,436.09a5.52,5.52,0,0,1,1.17,5.88,11,11,0,0,1-2.41,3.42,85.71,85.71,0,0,1-12.68,11.09,5.15,5.15,0,0,1-2.13,1.06,2.07,2.07,0,0,1-2.17-.85c0-.42,0-.83,0-1.25.08-4.58.29-9.12.82-13.68a5.47,5.47,0,0,1,1.22-3.41,5.55,5.55,0,0,1,3.36-1.16c3.37-.38,6.69-.76,10-1C180.51,436.16,181.43,436.12,182.35,436.09Z"/><path class="cls-31" d="M167.76,430.62a94.72,94.72,0,0,0,11.83,5.6c-3.35.21-6.67.59-10,1a5.55,5.55,0,0,0-3.36,1.16,5.47,5.47,0,0,0-1.22,3.41c-.53,4.56-.74,9.1-.82,13.68h0c-5.1-8.36-10.33-16.37-13.42-25.67a18.34,18.34,0,0,0,3-.4,12.41,12.41,0,0,0,2.83-1.22,19.68,19.68,0,0,0,4.35-2.67C162.56,427.75,165.37,429.17,167.76,430.62Z"/><path class="cls-76" d="M94.06,240.1a205.24,205.24,0,0,0,13,103.31c2.41,6,5.11,11.9,7.81,17.78,9.86,21.48,22.07,47.67,31.92,69.15,2.3-.67,4.68-.37,7-.94a12.38,12.38,0,0,0,2.83-1.21c1.78-.95,4.55-2.15,5.31-4-12.36-26.14-11.91-58-13.52-86.89-.67-12.09-1-24.36-4.53-35.93-3.68-12-10.67-22.63-15.45-34.21a98.64,98.64,0,0,1-6.61-24.92c-.33-2.6-.65-5.42-2.47-7.32-2.75-2.87-7.41-2.22-11.29-1.35C102.38,234.81,97.89,235.79,94.06,240.1Z"/><path class="cls-82" d="M165.11,429a13.74,13.74,0,0,0-3.92,1.32,14.62,14.62,0,0,0-6.72,8.39c2.84,5.72,6.27,11.13,9.66,16.69h0c.08-4.58.29-9.12.82-13.68a5.47,5.47,0,0,1,1.22-3.41,5.55,5.55,0,0,1,3.36-1.16c3.37-.38,6.69-.76,10-1a94.72,94.72,0,0,1-11.83-5.6C166.91,430.1,166,429.59,165.11,429Z"/><path class="cls-83" d="M94.06,240.1a205.24,205.24,0,0,0,13,103.31c2.41,6,5.11,11.9,7.81,17.78,9.86,21.48,22.07,47.67,31.92,69.15,2.3-.67,4.68-.37,7-.94a12.38,12.38,0,0,0,2.83-1.21c1.78-.95,4.55-2.15,5.31-4-12.36-26.14-11.91-58-13.52-86.89-.67-12.09-1-24.36-4.53-35.93-3.68-12-10.67-22.63-15.45-34.21a98.64,98.64,0,0,1-6.61-24.92c-.33-2.6-.65-5.42-2.47-7.32-2.75-2.87-7.41-2.22-11.29-1.35C102.38,234.81,97.89,235.79,94.06,240.1Z"/><path class="cls-84" d="M121.06,312.93c-2.9,17.1,2,34.94,11.31,49.6a107.31,107.31,0,0,0,19.07,22.22c-1.95-15.79-2.22-32.06-3.08-47.47-.67-12.09-1-24.36-4.53-35.93a114.79,114.79,0,0,0-7.54-17.7A53.79,53.79,0,0,0,121.06,312.93Z"/><path class="cls-81" d="M110,261.22a27.11,27.11,0,0,0,14.2-6.59,98.9,98.9,0,0,1-2.42-12.41c-.33-2.6-.65-5.42-2.47-7.32-2.75-2.87-7.41-2.22-11.29-1.35-5.63,1.26-10.12,2.24-14,6.55-.77,5.72-1.26,11.47-1.53,17.23A27.37,27.37,0,0,0,110,261.22Z"/><path class="cls-14" d="M210.45,174.23a13,13,0,0,1,2,5.9c.37,3.89-.71,7.79-2,11.54-3,9-4.84,18.26-9.57,26.51a2,2,0,0,0-.8-.27c-4.36-.76-7.38-3.16-11.81-2.78.36-7.07-.78-14.84-1-21.95-.2-5.52.22-11.26,2.26-16.45Z"/><path class="cls-21" d="M203.87,233.61c-1.13,4.49-4.81,8.16-7.72,11.89a17.07,17.07,0,0,1-3.65-.39,3.24,3.24,0,0,1-1.19,1.34A25.34,25.34,0,0,1,179,241.61c.84-3.46,2-5.57,2.59-9.08a28.58,28.58,0,0,0-.5-3.92,27.69,27.69,0,0,0-5.62,9.09l-1.94-4.44c3.16-7.12,7.81-14,14.85-18.13,4.43-.38,7.45,2,11.81,2.78a2,2,0,0,1,.8.27,1.52,1.52,0,0,1,.46.73,15.28,15.28,0,0,1,.71,3.62C202.57,226.34,203.51,229.79,203.87,233.61Z"/><path class="cls-85" d="M202.42,236.74a29.75,29.75,0,0,0-6.22-3.32,27.57,27.57,0,0,0-12.33-1.87c.06.56.12,1.12.16,1.68-.46,3.33-1.44,5.34-2.12,8.63a20.87,20.87,0,0,0,10.69,4.61,2.84,2.84,0,0,0,1-1.28,13.31,13.31,0,0,0,3.15.38C198.71,242.73,201.08,239.93,202.42,236.74Z"/><path class="cls-14" d="M210.45,174.23a13,13,0,0,1,2,5.9c.37,3.89-.71,7.79-2,11.54-3,9-4.84,18.26-9.57,26.51a2,2,0,0,0-.8-.27c-4.36-.76-7.38-3.16-11.81-2.78.36-7.07-.78-14.84-1-21.95-.2-5.52.22-11.26,2.26-16.45Z"/><path class="cls-38" d="M210.45,174.23a13,13,0,0,1,2,5.9c.37,3.89-.71,7.79-2,11.54-3,9-4.84,18.26-9.57,26.51a2,2,0,0,0-.8-.27c-4.36-.76-7.38-3.16-11.81-2.78.36-7.07-.78-14.84-1-21.95-.2-5.52.22-11.26,2.26-16.45Z"/><path class="cls-14" d="M37.84,154.65C44.63,139,52.64,121.3,58.1,104.88c0,0,9.84,9.32,10,9.31,0,17.55.9,31.67-3,48.39a96,96,0,0,1-5.68,17.36,27.67,27.67,0,0,1-4.36,7.36C53.2,189.46,47.9,193,45,193.46c-3.59.8-8.77-1.55-9.82-4.88-1.85-5.85-3.5-11.94-2.78-18,.58-4.87,2.63-9.45,4.63-14C37.28,156,37.56,155.3,37.84,154.65Z"/><path class="cls-86" d="M52.49,117.37c-4.42,12.68-9.12,24.9-14.48,37.28-.28.65-.56,1.31-.85,2-2,4.52-4,9.1-4.63,14-.72,6.06.92,12.15,2.78,18,1,3.33,6.23,5.68,9.82,4.88,2.94-.49,8.24-4,10.13-6.16a27.67,27.67,0,0,0,4.36-7.36,96,96,0,0,0,5.68-17.36,159.71,159.71,0,0,0,3.59-29A140.8,140.8,0,0,0,52.49,117.37Z"/><path class="cls-87" d="M38.34,174.45a14.89,14.89,0,0,0-6,1.63,58.53,58.53,0,0,0,2.82,12.5c1,3.33,6.23,5.68,9.82,4.88,2.59-.43,7-3.2,9.31-5.32a15,15,0,0,0-1.48-5.24A15.68,15.68,0,0,0,38.34,174.45Z"/><path class="cls-18" d="M61.06,66.77a140.77,140.77,0,0,0-11.81,8.9c-3,2.58-5.93,5.26-8.63,8.06Q39,90.3,37.89,96.9A35.17,35.17,0,0,0,53.66,85.67c.45-.56.88-1.12,1.29-1.71a33.53,33.53,0,0,0,2.89-5,5.06,5.06,0,0,0,1.33-1l.5-3-.31.19A35,35,0,0,0,61.06,66.77Z"/><path class="cls-88" d="M69.71,68H74.6a0,0,0,0,1,0,0V97.1a2.44,2.44,0,0,1-2.44,2.44h0a2.44,2.44,0,0,1-2.44-2.44V68A0,0,0,0,1,69.71,68Z" transform="translate(31.08 -18.88) rotate(18.93)"/><path class="cls-89" d="M73.19,73.2a21.59,21.59,0,0,0,2.27.93,20.18,20.18,0,0,0,2.36.65L88.41,43.93l-4.63-1.59Z"/><circle class="cls-88" cx="82.4" cy="53.9" r="20.33"/><circle class="cls-90" cx="82.4" cy="53.9" r="18.85"/><circle class="cls-91" cx="82.4" cy="53.9" r="18.62"/><circle class="cls-88" cx="82.4" cy="53.9" r="17.93"/><circle class="cls-92" cx="82.4" cy="53.9" r="17.7"/><g class="cls-93"><path class="cls-21" d="M83.21,52.78c-1.71,1.52-4.57,2.55-6.72,1.89a9.72,9.72,0,0,1-5.41-4.93,5.74,5.74,0,0,1-.69-2.08,4.38,4.38,0,0,1,1-3.17,4.58,4.58,0,0,1,6.88-.3c1,1.81,2,3.73,3.12,5.91.44.71.92,1.41,1.39,2.1v0Z"/><path class="cls-94" d="M73.12,51.09a4.39,4.39,0,0,1,1-3.17,4.48,4.48,0,0,1,5.49-1.23c-.46-.86-.9-1.69-1.35-2.5a4.58,4.58,0,0,0-6.88.3,4.38,4.38,0,0,0-1,3.17,5.74,5.74,0,0,0,.69,2.08,10.86,10.86,0,0,0,2.73,3.42A5.75,5.75,0,0,1,73.12,51.09Z"/><path class="cls-21" d="M69.75,14.51c1.28,5.19,4.44,9.76,7.4,14.12,2.31,3,6.81,3.26,10,1.77s5.67-4.4,8.08-7.14,5-5.5,8.41-6.61a14.76,14.76,0,0,1,4.2-.68,8.53,8.53,0,0,1,1.47.83c3.23,2.07,5.34,4.87,8.05,7.69.64,1.36,1.22,2.74,1.73,4.16.83,2.25,2.92,4.63,3.42,7a54,54,0,0,1,1,6.2A52,52,0,0,1,122.6,58a25,25,0,0,1-8.69,13.44,12,12,0,0,1-1.55,1,13.4,13.4,0,0,1-7.94,1.58,16.1,16.1,0,0,1-3.41-.68,25,25,0,0,1-10.29-6,8.23,8.23,0,0,1-1.81-2.06c-1.42-2.23-2-5.07-3.06-7.72-.15-.36-.3-.71-.47-1-1.46-3.06-3.74-5.58-5.88-8.19L79.13,48h0c-2.15-3.21-2.23-4.74-2.62-8.64A9.3,9.3,0,0,1,76.6,36c.28-1,.53-1.77,1.47-2-.1.06.29.15.07,0a16.76,16.76,0,0,1-4.38-5.28,42.76,42.76,0,0,1-4.6-12.7C69.33,15.55,69.53,15,69.75,14.51Z"/><path class="cls-95" d="M78.07,34.05s.92-1.71,4.79-2.78S71.22,11.44,71.22,11.44s-3.24,5.26-3,7.75C69.81,34.21,78.07,34.05,78.07,34.05Z"/><path class="cls-24" d="M74.89,41.52C72.62,38,70.44,35,67.5,31.15a2.84,2.84,0,0,1-.7-1.31,2.92,2.92,0,0,1,0-1c.52-3.06.43-7.44,2.31-12.77a42.76,42.76,0,0,0,4.6,12.7A16.76,16.76,0,0,0,78.14,34a.08.08,0,0,0-.07,0c-.94.21-1.19,1-1.47,2a9.3,9.3,0,0,0-.09,3.29c.39,3.9.47,5.43,2.62,8.64-.45-.56-.9-1.12-1.32-1.69C76.78,44.52,75.82,43,74.89,41.52Z"/><path class="cls-96" d="M69.16,16c-1.88,5.34-1.79,9.72-2.31,12.78a2.92,2.92,0,0,0,0,1,2.84,2.84,0,0,0,.7,1.31c1.77,2.32,3.27,4.33,4.68,6.33A54.51,54.51,0,0,0,72.86,27,39,39,0,0,1,69.16,16Z"/><path class="cls-24" d="M98-3.28A14.17,14.17,0,0,1,106,.17c.28.23.55.46.8.71,3.14,3,5.29,7.44,6.79,11.63a6.19,6.19,0,0,0-5.8-1.46,10.41,10.41,0,0,1,4.9,4.5c.09.16,0,.59-.11.66a32.38,32.38,0,0,0-4.73-.24,14.76,14.76,0,0,0-4.2.68c-3.37,1.11-6,3.86-8.41,6.61s-4.85,5.63-8.08,7.14-7.73,1.22-10-1.77c-3-4.36-6.12-8.93-7.4-14.12A36.4,36.4,0,0,1,76.23,4.38C79.36.83,83.16-2,87.64-3.07,91.71-4,94.21-4.28,98-3.28Z"/><path class="cls-26" d="M102.55,7c3.3,2.81,1.37,6.53-2.21,7.93-3,1.17-6.37.19-9.43.89-6.12,1.41-10.22,7-10.65,13.06,0,.59-1,.57-.91,0A15.21,15.21,0,0,1,85,17.77a14,14,0,0,1,7.4-3.11l2-.08q5.82.75,7.6-7c-.45-.38.21-1,.65-.63Z"/><path class="cls-27" d="M116.19,9.87c2,5.92,3.52,10.43,4.19,16.64a7.32,7.32,0,0,0-1.25,2.14c-.51-1.42-1.09-2.8-1.73-4.16-2.71-2.82-4.82-5.62-8.05-7.69a8.53,8.53,0,0,0-1.47-.83,32.38,32.38,0,0,1,4.73.24c.16-.07.2-.5.11-.66a10.41,10.41,0,0,0-4.9-4.5,6.19,6.19,0,0,1,5.8,1.46C112.12,8.32,110,3.87,106.83.88c-.25-.25-.52-.48-.8-.71h0c1.84.87,5.91,4,7.71,5C114.41,5.52,116,9.27,116.19,9.87Z"/><path class="cls-21" d="M127,34a8.69,8.69,0,0,1-6.43,3.81h0a92.7,92.7,0,0,0-2.85-10.65,10.7,10.7,0,0,1,1.47-3.2,14.73,14.73,0,0,1,1.31-1.61A5.9,5.9,0,0,1,124.62,20a4.46,4.46,0,0,1,4,3,8.26,8.26,0,0,1,.45,2.13A13.49,13.49,0,0,1,127,34Z"/><path class="cls-97" d="M128.67,23a4.46,4.46,0,0,0-4-3,5.9,5.9,0,0,0-4.14,2.32,14.73,14.73,0,0,0-1.31,1.61A10,10,0,0,0,118.08,26c-.22-.52-.44-1-.68-1.54-2.71-2.82-4.82-5.62-8.05-7.69a8.53,8.53,0,0,0-1.47-.83,14.76,14.76,0,0,0-4.2.68,15,15,0,0,0-5.54,3.57,23.76,23.76,0,0,1,2.52.2c7.65,1.06,14.46,5.73,20,12.95-.39-1.49-.85-2.95-1.37-4.39a11.45,11.45,0,0,1,.61-1,18.62,18.62,0,0,1,1.31-1.61A5.92,5.92,0,0,1,125.31,24a4.34,4.34,0,0,1,3.86,2.62,12.77,12.77,0,0,0,0-1.51A8.26,8.26,0,0,0,128.67,23Z"/><path class="cls-29" d="M94.77,39.61s6.49,8.56,6.08,15.69,1.15,7,1.15,7,4.84-3.37,4.45-4.39S100.23,42.4,94.77,39.61Z"/><ellipse class="cls-24" cx="91.75" cy="50.9" rx="1.81" ry="3.09" transform="translate(-12.28 37.26) rotate(-21.55)"/><ellipse class="cls-24" cx="109.04" cy="42.86" rx="1.86" ry="3.18" transform="translate(-8.12 43.05) rotate(-21.55)"/><path class="cls-98" d="M110,65.13a4.18,4.18,0,0,1-4.48.71c-.35-.16-.94-.61-.84-1.06s.65-.44,1-.45c2.44-.06,3.79-1.85,5.12-3.63a12.33,12.33,0,0,0,1-2c.31-.66.74-1.38,1.46-.86a2.13,2.13,0,0,1,.63,1.72,8.39,8.39,0,0,1-3.07,5C110.5,64.79,110.2,65,110,65.13Z"/><path class="cls-31" d="M82.09,44c-.17-.73.93-2.32,1.75-2.62a8.5,8.5,0,0,1,5-.53c.51.13,1.59,1,1.52,1.88s-1.06.92-1.69,1c-1.16.19-1.89-.27-3.37.12C84,44.29,82.47,45.59,82.09,44Z"/><path class="cls-31" d="M105.42,32.74c-2.1.34-3.59,1.1-4.43,2.94-.15.32-.63.79-1,.59s-.35-1-.27-1.44A5.83,5.83,0,0,1,105,30a36.69,36.69,0,0,1,5.3.45c.67.07,1.52.28,1.31,1.27-.09.45-1,.83-1.5.87C108.4,32.76,106.65,32.55,105.42,32.74Z"/><path class="cls-32" d="M105.32,59.17a17.6,17.6,0,0,1-3.06,1.63c.51-7.67-2.08-16.25-7.84-21.46A61.06,61.06,0,0,1,99.76,56c.14.9,0,6.19.68,6.57,1.84,1.12,5.82-2.4,6-4.61l-1.13,1.23C104.87,59.49,105.76,58.83,105.32,59.17Z"/><path class="cls-99" d="M110.86,11.17l-1.66-.86c-12-6.43-22.4-6.79-31.48-2.25a32.75,32.75,0,0,0-4.64,3.31A11.41,11.41,0,0,1,75.68,7C79.75,2.63,84.71-.8,92-1.71c2.24,1.09,4.46,2.3,6.61,3.55A58,58,0,0,1,108,8.5c.66.6,1.32,1.18,2,1.76,0,0,0,0,.06.07C110.31,10.62,110.59,10.89,110.86,11.17Z"/><path class="cls-100" d="M73.49,15.17a44.33,44.33,0,0,1,20.67-3.58,48.31,48.31,0,0,1,17.48,4.28,7.72,7.72,0,0,0,1.44.33c-3.4-1.82-6.72-3.92-10.22-5.4C90.62,5.61,79.45,8,73.79,13.79,73.48,14.1,73.58,14.7,73.49,15.17Z"/><path class="cls-101" d="M104.23,71.33c-7.09,1.21-12.43-2.16-16.48-8.21a13.28,13.28,0,0,0,1,2.1,8.23,8.23,0,0,0,1.8,2.07,24.73,24.73,0,0,0,10.2,6,15.16,15.16,0,0,0,3.37.68A13.15,13.15,0,0,0,112,72.4a12.58,12.58,0,0,0,1.54-1A25,25,0,0,0,122.14,58a51.82,51.82,0,0,0,1.12-9.32C121.05,60.67,114.46,69.59,104.23,71.33Z"/><path class="cls-24" d="M127.19,49.39l-4.39-12.5L119.93,35c1.22,4.09,3.57,12.48,2.89,17.25-1.78,7.1-1.52,12.19-10,18.48-8.09,6-18.7-.81-18.46-.5l0,0a11.53,11.53,0,0,0,7.25,4.08A50.48,50.48,0,0,1,109,76c3.86-.58,11.9-7.08,13.69-10.57C123.5,60.28,127.56,50.73,127.19,49.39Z"/><path class="cls-102" d="M126.62,47.74,122.8,36.89,119.93,35c1.22,4.09,3.57,12.48,2.89,17.25-1.21,4.82-1.49,8.71-4.18,12.67C122.58,61.38,126,56,126.62,47.74Z"/></g><g class="cls-103"><path class="cls-104" d="M99.35,48.85A19.32,19.32,0,0,0,98.69,47L68.81,65.25a18.27,18.27,0,0,0,1.35,1.44Z"/><path class="cls-104" d="M64.73,52.94a17.72,17.72,0,0,0,3.39,11.42L98.21,46a17.58,17.58,0,0,0-8.6-8.23Z"/></g><path class="cls-21" d="M70.52,107c-.64,3.52-.65,4.21-2.42,7.44-4.56-2.19-7.84-4.27-9.49-9l.18,0C56.94,98.6,55,91.84,53.58,84.9A31.58,31.58,0,0,0,68,74.83l5.12,2.76a7.26,7.26,0,0,0,4.31,1.28l-1.85,2.35a5.6,5.6,0,0,1-5.09-.77,20.91,20.91,0,0,1-4.29,5.15A44.92,44.92,0,0,1,76.84,85c.77,1.45,1.32,3.14,2.08,4.59a5.94,5.94,0,0,1,.66,1.65,5.1,5.1,0,0,1,0,1.56,59.23,59.23,0,0,1-3.28,13.46C75.09,106.42,72.57,106.67,70.52,107Z"/><path class="cls-105" d="M70.39,107.78c0-.23.08-.48.13-.74,2-.37,4.57-.62,5.74-.79a59.23,59.23,0,0,0,3.28-13.46,5.1,5.1,0,0,0,0-1.56c0-.11-.07-.22-.1-.33C74,89.09,68.91,88.7,65.3,89.76,64.1,97.07,65.91,103.9,70.39,107.78Z"/></g></g></svg>