<?xml version="1.0" encoding="utf-8"?>
<!-- Generator: Adobe Illustrator 24.1.1, SVG Export Plug-In . SVG Version: 6.00 Build 0)  -->
<svg version="1.1" id="圖層_1" xmlns="http://www.w3.org/2000/svg" xmlns:xlink="http://www.w3.org/1999/xlink" x="0px" y="0px"
	 viewBox="0 0 120 120" style="enable-background:new 0 0 120 120;" xml:space="preserve">
<style type="text/css">
	.st0{fill:#AD181C;}
	.st1{fill:#231815;}
</style>
<g>
	<polygon class="st0" points="107.1,49.6 107.1,32.7 59.6,5.3 12.1,32.7 12.1,49.6 59.6,22.1 	"/>
	<polygon class="st0" points="59.6,38.2 107.1,65.6 107.1,55.1 59.6,27.7 12.1,55.1 12.1,65.6 	"/>
</g>
<g>
	<g>
		<path class="st1" d="M26.1,88.9v8.5h12.5v1.5H26.1v14.5h14.8v1.5H13.4v-1.5h11.1V88.9H26.1z"/>
		<path class="st1" d="M70.3,100.6v1.6H43.9v-1.6H70.3z"/>
		<path class="st1" d="M80.4,110.2c-1.5,2.2-3.4,4.1-5.8,5.9l-1.1-1c2.3-1.6,4.3-3.4,5.8-5.5L80.4,110.2z M88,90.8v18.1H75.8V90.8
			H88z M86.6,96.2v-4.1h-9.4v4.1H86.6z M86.6,101.9v-4.6h-9.4v4.6H86.6z M86.6,107.7v-4.6h-9.4v4.6H86.6z M89.6,114.5l-1,1.2
			c-1.7-2-3.4-3.7-5.2-5l0.8-0.9C86.2,111,88,112.6,89.6,114.5z M93.3,92.3v17.3h-1.4V92.3H93.3z M98.8,89.3v24.3
			c0,1.6-1.1,2.3-3.3,2.3c-1,0-1.9-0.2-2.8-0.5l-0.1-1.4c1,0.4,2,0.6,2.9,0.6c1.2,0,1.9-0.5,1.9-1.4V89.3H98.8z"/>
	</g>
</g>
</svg>
