<svg xmlns="http://www.w3.org/2000/svg" xmlns:xlink="http://www.w3.org/1999/xlink" viewBox="0 0 1050 400"><defs><style>.cls-1,.cls-3,.cls-47{fill:none;}.cls-2{isolation:isolate;}.cls-3{stroke:#211513;}.cls-3,.cls-47{stroke-miterlimit:10;}.cls-4{fill:#cf121b;}.cls-5{fill:#231815;}.cls-6{fill:#ad181c;}.cls-7{fill:#20325b;}.cls-100,.cls-103,.cls-104,.cls-106,.cls-21,.cls-22,.cls-29,.cls-37,.cls-38,.cls-40,.cls-41,.cls-42,.cls-8,.cls-81,.cls-82,.cls-83,.cls-86,.cls-88,.cls-90{mix-blend-mode:overlay;}.cls-8{fill:url(#未命名漸層_77);}.cls-9{fill:#fcfaeb;}.cls-10{clip-path:url(#clip-path);}.cls-11{fill:#223860;}.cls-12{fill:#a82728;}.cls-13{fill:#6f2a41;}.cls-14,.cls-17,.cls-19,.cls-20,.cls-23,.cls-24,.cls-43,.cls-44,.cls-52,.cls-84,.cls-85,.cls-87,.cls-91{mix-blend-mode:darken;}.cls-15{fill:url(#未命名漸層_13);}.cls-16{fill:#6c1319;}.cls-17{fill:url(#未命名漸層_13-2);}.cls-18{fill:#162142;}.cls-19{fill:url(#未命名漸層_13-3);}.cls-20{fill:url(#未命名漸層_13-4);}.cls-21{fill:url(#未命名漸層_46);}.cls-22{fill:url(#未命名漸層_77-2);}.cls-23{fill:url(#未命名漸層_13-5);}.cls-24{fill:url(#未命名漸層_13-6);}.cls-25{fill:#f4ac88;}.cls-101,.cls-102,.cls-109,.cls-26,.cls-27,.cls-32,.cls-34,.cls-50,.cls-89,.cls-98,.cls-99{mix-blend-mode:multiply;}.cls-26{fill:url(#未命名漸層_41);}.cls-27{fill:url(#未命名漸層_41-2);}.cls-28{fill:#37190b;}.cls-29{fill:url(#未命名漸層_77-3);}.cls-30,.cls-61{fill:#fff;}.cls-30{opacity:0.61;}.cls-31{fill:#714b22;}.cls-32{fill:url(#未命名漸層_41-3);}.cls-33{fill:#ef8a5b;}.cls-34{fill:url(#未命名漸層_41-4);}.cls-35{fill:#61361a;}.cls-36{fill:#e9592f;}.cls-37{fill:url(#未命名漸層_46-2);}.cls-38{fill:url(#未命名漸層_46-3);}.cls-39{fill:url(#未命名漸層_41-5);}.cls-40{fill:url(#未命名漸層_46-4);}.cls-41{fill:url(#未命名漸層_77-4);}.cls-42{fill:url(#未命名漸層_46-5);}.cls-43{fill:url(#未命名漸層_13-7);}.cls-44{fill:url(#未命名漸層_13-8);}.cls-45{fill:#e7decd;}.cls-46{fill:url(#未命名漸層_103);}.cls-47{stroke:#c8bb9b;stroke-width:0.43px;}.cls-48{fill:#d60050;}.cls-49{fill:#f1eae1;}.cls-50{fill:url(#未命名漸層_98);}.cls-51{fill:#fff8ef;}.cls-52{fill:url(#未命名漸層_118);}.cls-53{fill:#516080;}.cls-54{fill:#c7b4b4;}.cls-55{fill:#f7eeee;}.cls-56{fill:#f1a2a9;}.cls-57{fill:#756765;}.cls-58{fill:#fff697;}.cls-59{fill:#cad1a7;}.cls-60{fill:#e2b647;}.cls-62{fill:#2ca6e0;}.cls-63{fill:#5d667a;}.cls-64{fill:url(#未命名漸層_21);}.cls-65{fill:url(#未命名漸層_21-2);}.cls-66{fill:url(#未命名漸層_35);}.cls-67{fill:#fbf8f1;}.cls-68{fill:url(#未命名漸層_35-2);}.cls-69{fill:url(#未命名漸層_35-3);}.cls-70{fill:#ede9e3;}.cls-71{fill:#009fe8;}.cls-72{fill:url(#未命名漸層_21-3);}.cls-73{fill:url(#未命名漸層_21-4);}.cls-74{fill:#d3d062;}.cls-75{fill:url(#未命名漸層_21-5);}.cls-76{fill:#68554e;}.cls-77{fill:#d14b63;}.cls-78{fill:#86b7c5;}.cls-79{fill:#036eb7;}.cls-80{fill:#173275;}.cls-81{fill:url(#未命名漸層_46-6);}.cls-82{fill:url(#未命名漸層_46-7);}.cls-83{fill:url(#未命名漸層_46-8);}.cls-84{fill:url(#未命名漸層_83);}.cls-85{fill:#c8c9ca;}.cls-86{fill:url(#未命名漸層_46-9);}.cls-87{fill:url(#未命名漸層_83-2);}.cls-88{fill:url(#未命名漸層_46-10);}.cls-89{opacity:0.47;fill:url(#未命名漸層_41-6);}.cls-90{fill:url(#未命名漸層_46-12);}.cls-91{fill:url(#未命名漸層_13-9);}.cls-92{fill:#686d70;}.cls-93{fill:#4d5357;}.cls-94{fill:#383839;}.cls-95{fill:url(#未命名漸層_3);}.cls-96{fill:#e3eff5;}.cls-97{clip-path:url(#clip-path-2);}.cls-98{fill:url(#未命名漸層_41-7);}.cls-99{fill:url(#未命名漸層_41-8);}.cls-100{fill:url(#未命名漸層_77-6);}.cls-101{fill:url(#未命名漸層_41-9);}.cls-102{fill:url(#未命名漸層_41-10);}.cls-103{fill:url(#未命名漸層_46-13);}.cls-104{fill:url(#未命名漸層_46-14);}.cls-105{fill:url(#未命名漸層_41-11);}.cls-106{fill:url(#未命名漸層_46-15);}.cls-107{opacity:0.4;}.cls-108{fill:#f5fafd;}.cls-109{opacity:0.7;fill:url(#未命名漸層_41-12);}</style><linearGradient id="未命名漸層_77" x1="449.79" y1="39.39" x2="449.79" y2="75.68" gradientUnits="userSpaceOnUse"><stop offset="0" stop-color="#fff"/><stop offset="0.09" stop-color="#f8f8f9" stop-opacity="0.94"/><stop offset="0.27" stop-color="#e7e7e7" stop-opacity="0.79"/><stop offset="0.52" stop-color="#ccc" stop-opacity="0.54"/><stop offset="0.82" stop-color="#a6a6a6" stop-opacity="0.21"/><stop offset="1" stop-color="#8e8e8f" stop-opacity="0"/></linearGradient><clipPath id="clip-path"><path class="cls-1" d="M456.66,74a336.12,336.12,0,0,0,1.94,49.74c1.48,13,3.92,26.4,11.67,37.1l-2.92,8.57L452,161.5c-14.73-25.29-15.17-56.83-6.39-85.21,0,0,2-4,4.93-3.87A19.28,19.28,0,0,1,456.66,74Z"/></clipPath><linearGradient id="未命名漸層_13" x1="448.35" y1="118.09" x2="469.65" y2="185.95" gradientUnits="userSpaceOnUse"><stop offset="0" stop-color="#8e8e8f"/><stop offset="0.46" stop-color="#cacaca"/><stop offset="0.82" stop-color="#f0f0f0"/><stop offset="1" stop-color="#fff"/></linearGradient><linearGradient id="未命名漸層_13-2" x1="449.95" y1="66.87" x2="451.44" y2="89.57" xlink:href="#未命名漸層_13"/><linearGradient id="未命名漸層_13-3" x1="478.19" y1="115.14" x2="486.88" y2="182.67" xlink:href="#未命名漸層_13"/><linearGradient id="未命名漸層_13-4" x1="504.44" y1="79.84" x2="527.89" y2="149.46" xlink:href="#未命名漸層_13"/><linearGradient id="未命名漸層_46" x1="547.58" y1="93.58" x2="507.78" y2="114.16" gradientUnits="userSpaceOnUse"><stop offset="0" stop-color="#8e8e8f" stop-opacity="0"/><stop offset="0.18" stop-color="#a6a6a6" stop-opacity="0.21"/><stop offset="0.48" stop-color="#ccc" stop-opacity="0.54"/><stop offset="0.73" stop-color="#e7e7e7" stop-opacity="0.79"/><stop offset="0.91" stop-color="#f8f8f9" stop-opacity="0.94"/><stop offset="1" stop-color="#fff"/></linearGradient><linearGradient id="未命名漸層_77-2" x1="387.75" y1="70.65" x2="407.44" y2="70.65" xlink:href="#未命名漸層_77"/><linearGradient id="未命名漸層_13-5" x1="440.8" y1="153.83" x2="422.05" y2="64.53" xlink:href="#未命名漸層_13"/><linearGradient id="未命名漸層_13-6" x1="466.43" y1="122.64" x2="473.43" y2="85.28" xlink:href="#未命名漸層_13"/><linearGradient id="未命名漸層_41" x1="423" y1="40.07" x2="429.57" y2="40.07" gradientUnits="userSpaceOnUse"><stop offset="0.01" stop-color="#e9592f"/><stop offset="0.65" stop-color="#f1926c"/><stop offset="1" stop-color="#f4ac88"/></linearGradient><linearGradient id="未命名漸層_41-2" x1="424.83" y1="22.58" x2="434.2" y2="22.58" xlink:href="#未命名漸層_41"/><linearGradient id="未命名漸層_77-3" x1="422.63" y1="24.9" x2="427.18" y2="24.9" xlink:href="#未命名漸層_77"/><linearGradient id="未命名漸層_41-3" x1="445.56" y1="28.55" x2="466.55" y2="28.55" xlink:href="#未命名漸層_41"/><linearGradient id="未命名漸層_41-4" x1="444.77" y1="54.05" x2="451.86" y2="54.05" xlink:href="#未命名漸層_41"/><linearGradient id="未命名漸層_46-2" x1="395.77" y1="358.04" x2="444.82" y2="324.86" gradientTransform="translate(328.38 -514.79) rotate(38.06)" xlink:href="#未命名漸層_46"/><linearGradient id="未命名漸層_46-3" x1="398.98" y1="362.01" x2="448.31" y2="328.64" gradientTransform="translate(328.38 -514.79) rotate(38.06)" xlink:href="#未命名漸層_46"/><linearGradient id="未命名漸層_41-5" x1="457.27" y1="64.09" x2="445.66" y2="48.88" xlink:href="#未命名漸層_41"/><linearGradient id="未命名漸層_46-4" x1="454.53" y1="46.79" x2="462.11" y2="46.79" xlink:href="#未命名漸層_46"/><linearGradient id="未命名漸層_77-4" x1="499.67" y1="62.98" x2="526.92" y2="62.98" xlink:href="#未命名漸層_77"/><linearGradient id="未命名漸層_46-5" x1="527.31" y1="147.34" x2="522.13" y2="178.07" xlink:href="#未命名漸層_46"/><linearGradient id="未命名漸層_13-7" x1="393.41" y1="94.72" x2="389.47" y2="139.55" xlink:href="#未命名漸層_13"/><linearGradient id="未命名漸層_13-8" x1="432.16" y1="129.04" x2="425.44" y2="155.59" xlink:href="#未命名漸層_13"/><linearGradient id="未命名漸層_103" x1="368.26" y1="218.28" x2="533.09" y2="218.28" gradientUnits="userSpaceOnUse"><stop offset="0" stop-color="#fff"/><stop offset="0.08" stop-color="#faf6f0"/><stop offset="0.23" stop-color="#ecdeca"/><stop offset="0.43" stop-color="#d6b88c"/><stop offset="0.47" stop-color="#d2b180"/><stop offset="1" stop-color="#fff"/></linearGradient><linearGradient id="未命名漸層_98" x1="363.26" y1="186.84" x2="454.24" y2="186.84" gradientUnits="userSpaceOnUse"><stop offset="0" stop-color="#fff"/><stop offset="0.17" stop-color="#faf6f0"/><stop offset="0.49" stop-color="#ecdeca"/><stop offset="0.92" stop-color="#d6b88c"/><stop offset="1" stop-color="#d2b180"/></linearGradient><linearGradient id="未命名漸層_118" x1="458.83" y1="155.73" x2="452.31" y2="198.95" gradientUnits="userSpaceOnUse"><stop offset="0" stop-color="#e4d0b2"/><stop offset="0.41" stop-color="#e9dac2"/><stop offset="1" stop-color="#fff"/></linearGradient><linearGradient id="未命名漸層_21" x1="470.9" y1="153.91" x2="466.75" y2="171.37" gradientUnits="userSpaceOnUse"><stop offset="0.39" stop-color="#b2bc6b"/><stop offset="0.71" stop-color="#8aa872"/><stop offset="1" stop-color="#629478"/></linearGradient><linearGradient id="未命名漸層_21-2" x1="513.87" y1="157.78" x2="504.51" y2="163.22" xlink:href="#未命名漸層_21"/><linearGradient id="未命名漸層_35" x1="498.65" y1="144.28" x2="508.42" y2="144.28" gradientUnits="userSpaceOnUse"><stop offset="0.39" stop-color="#d68324"/><stop offset="0.72" stop-color="#c35b23"/><stop offset="1" stop-color="#b23623"/></linearGradient><linearGradient id="未命名漸層_35-2" x1="476.51" y1="162.9" x2="492.9" y2="162.9" xlink:href="#未命名漸層_35"/><linearGradient id="未命名漸層_35-3" x1="477.12" y1="145.19" x2="499.18" y2="145.19" xlink:href="#未命名漸層_35"/><linearGradient id="未命名漸層_21-3" x1="408.8" y1="157.78" x2="399.44" y2="163.22" xlink:href="#未命名漸層_21"/><linearGradient id="未命名漸層_21-4" x1="402.49" y1="162.17" x2="393.13" y2="167.6" xlink:href="#未命名漸層_21"/><linearGradient id="未命名漸層_21-5" x1="459.57" y1="171.99" x2="441.35" y2="182.57" xlink:href="#未命名漸層_21"/><linearGradient id="未命名漸層_46-6" x1="393.71" y1="332.48" x2="405.1" y2="332.48" xlink:href="#未命名漸層_46"/><linearGradient id="未命名漸層_46-7" x1="404.77" y1="311.1" x2="401.09" y2="323.19" xlink:href="#未命名漸層_46"/><linearGradient id="未命名漸層_46-8" x1="410.6" y1="287.68" x2="436.62" y2="287.68" xlink:href="#未命名漸層_46"/><linearGradient id="未命名漸層_83" x1="387.18" y1="268.3" x2="435.09" y2="246.6" gradientUnits="userSpaceOnUse"><stop offset="0" stop-color="#fff"/><stop offset="0.18" stop-color="#f0f0f0"/><stop offset="0.54" stop-color="#cacaca"/><stop offset="1" stop-color="#8e8e8f"/></linearGradient><linearGradient id="未命名漸層_46-9" x1="486.85" y1="377.01" x2="508.2" y2="377.01" xlink:href="#未命名漸層_46"/><linearGradient id="未命名漸層_83-2" x1="433.98" y1="282.94" x2="493.14" y2="282.94" xlink:href="#未命名漸層_83"/><linearGradient id="未命名漸層_46-10" x1="486.99" y1="260.8" x2="471.25" y2="296.09" xlink:href="#未命名漸層_46"/><linearGradient id="未命名漸層_41-6" x1="518.8" y1="210.96" x2="519.04" y2="193.8" xlink:href="#未命名漸層_41"/><linearGradient id="未命名漸層_46-12" x1="388.94" y1="110.52" x2="406.25" y2="154.24" xlink:href="#未命名漸層_46"/><linearGradient id="未命名漸層_13-9" x1="392.42" y1="157.69" x2="409.73" y2="201.41" xlink:href="#未命名漸層_13"/><linearGradient id="未命名漸層_3" x1="350.39" y1="123.6" x2="375.19" y2="150.02" gradientTransform="matrix(0.95, 0.32, -0.32, 0.95, 125.13, -203.94)" gradientUnits="userSpaceOnUse"><stop offset="0" stop-color="#8e8e8f"/><stop offset="0.4" stop-color="#fff"/><stop offset="0.51" stop-color="#f0f0f0"/><stop offset="0.72" stop-color="#cacaca"/><stop offset="1" stop-color="#8e8e8f"/></linearGradient><clipPath id="clip-path-2"><circle class="cls-1" cx="425.58" cy="46.91" r="15.04"/></clipPath><linearGradient id="未命名漸層_41-7" x1="455.32" y1="1.44" x2="463.24" y2="1.44" gradientTransform="translate(-33.59 117.46) rotate(-9.67)" xlink:href="#未命名漸層_41"/><linearGradient id="未命名漸層_41-8" x1="457.52" y1="-19.64" x2="468.81" y2="-19.64" gradientTransform="translate(-33.59 117.46) rotate(-9.67)" xlink:href="#未命名漸層_41"/><linearGradient id="未命名漸層_77-6" x1="454.87" y1="-16.84" x2="460.36" y2="-16.84" gradientTransform="translate(-33.59 117.46) rotate(-9.67)" xlink:href="#未命名漸層_77"/><linearGradient id="未命名漸層_41-9" x1="482.5" y1="-12.44" x2="507.79" y2="-12.44" gradientTransform="translate(-33.59 117.46) rotate(-9.67)" xlink:href="#未命名漸層_41"/><linearGradient id="未命名漸層_41-10" x1="481.55" y1="18.28" x2="490.09" y2="18.28" gradientTransform="translate(-33.59 117.46) rotate(-9.67)" xlink:href="#未命名漸層_41"/><linearGradient id="未命名漸層_46-13" x1="393.13" y1="303.5" x2="452.23" y2="263.52" gradientTransform="translate(203.64 -445.18) rotate(28.39)" xlink:href="#未命名漸層_46"/><linearGradient id="未命名漸層_46-14" x1="397" y1="308.29" x2="456.44" y2="268.07" gradientTransform="translate(203.64 -445.18) rotate(28.39)" xlink:href="#未命名漸層_46"/><linearGradient id="未命名漸層_41-11" x1="496.61" y1="30.38" x2="482.62" y2="12.05" gradientTransform="translate(-33.59 117.46) rotate(-9.67)" xlink:href="#未命名漸層_41"/><linearGradient id="未命名漸層_46-15" x1="493.3" y1="9.54" x2="502.44" y2="9.54" gradientTransform="translate(-33.59 117.46) rotate(-9.67)" xlink:href="#未命名漸層_46"/><linearGradient id="未命名漸層_41-12" x1="334.75" y1="221.33" x2="349.65" y2="221.33" gradientTransform="matrix(0.88, 0.48, -0.48, 0.88, 221.85, -274.51)" xlink:href="#未命名漸層_41"/></defs><g class="cls-2"><g id="圖層_1" data-name="圖層 1"><line class="cls-3" x1="3.74" y1="290" x2="1046.47" y2="290"/><path class="cls-4" d="M20.36,265a32.71,32.71,0,0,1-4.08,5.77c-.06.06-.29.29-.41.29a.12.12,0,0,1-.11-.11,2.47,2.47,0,0,1,.26-.58c.31-.66.57-1.38.86-2,.37-.92.72-1.84,1-2.78A48.17,48.17,0,0,0,19.84,258a9,9,0,0,0,0-1.47c0-.14,0-.2.17-.2a13.83,13.83,0,0,1,2.64.92c.23.09,1.15.43,1.15.78s-.72.54-.94.63A33,33,0,0,1,20.36,265ZM28,273.61a10.65,10.65,0,0,1-.12,2c-.46,1.32-2.5,1.5-3.65,1.64-.29-1.61-.54-2-2-2.73-.14-.09-.63-.26-.63-.46s.09-.11.17-.11a3.94,3.94,0,0,1,.6.08,12.37,12.37,0,0,0,2.05.23c.69,0,1.17-.2,1.17-1V252a3.71,3.71,0,0,0-.25-1.35.67.67,0,0,1-.09-.26c0-.14.11-.2.23-.2a15.69,15.69,0,0,1,3.16.95.32.32,0,0,1,.17.26c0,.23-.63.66-.77.77Zm2.35-16.41c.06,0,.23.15.26.15,3,2.5,6.41,7.5,6.41,11.58,0,1-.29,2.24-1.5,2.24S34,270,33.89,268.9l-.15-1.61a21.75,21.75,0,0,0-1.92-6.84A22.21,22.21,0,0,0,30.55,258c-.08-.12-.37-.49-.37-.63S30.3,257.2,30.38,257.2Z"/><path class="cls-4" d="M47.34,260.25H45.53l-.46.37-.89-1.52c.51,0,1.06.12,1.58.12h1.58v-3.83a16,16,0,0,0-.17-1.95c0-.34-.29-.75-.29-1s0-.17.17-.17a6.42,6.42,0,0,1,1.32.37c.32.09,2,.52,2,.9,0,.22-.66.71-.83.83v4.83h.2c.12-.18.72-1,1-1A4.68,4.68,0,0,1,52.36,260c0,.2-.2.29-.37.29H49.52v7.5c.69-.09,1.87-.49,2.33-.49.09,0,.23,0,.23.12s-.69.51-.78.6c-1.86,1.18-3.65,2.41-5.43,3.73l-1.52-3.1a18,18,0,0,0,3-.4ZM58.23,257c-.09-1.5-.15-3-.32-4.52a7.25,7.25,0,0,0-.29-1.43,1.93,1.93,0,0,1-.2-.52c0-.14.15-.17.29-.17.4,0,3.22.89,3.22,1.15s-.58.8-.72.95c.08,1.52.14,3,.2,4.54h2.27c.14-.18.8-1.1,1.12-1.1s.57.29.78.43,1.29,1,1.29,1.38-.23.32-.46.32h-5a41.11,41.11,0,0,0,1,8.16,19.32,19.32,0,0,0,.92-4.17h.11c.49,0,3,1,3,1.38s-.58.43-.78.49a36.91,36.91,0,0,1-2.32,5.69,11.27,11.27,0,0,0,1.26,2.64c.09.15.49.75.63.75.43,0,1-2.44,1.24-2.44s.2.11.2.26a32.61,32.61,0,0,0-.4,3.39,4.6,4.6,0,0,0,.23,1.43c.11.29.57,1.1.57,1.24s-.26.37-.46.37c-2,0-4-3.79-4.71-5.34a18.71,18.71,0,0,1-4.68,3.91c-.15.05-.46.28-.61.28-.08-.17,0-.25,0-.28.83-1,1.67-2,2.41-3a23.63,23.63,0,0,0,2-3.22,34,34,0,0,1-1.07-4.4L58.66,263c0,1.44-.12,2.85-.17,4.28-.09,1.73-.29,4-1.79,5.12a5.6,5.6,0,0,1-1.69.77c-.06-.54-.23-1.64-.69-2l-.69-.55a12.34,12.34,0,0,1-.58,1.3,14.79,14.79,0,0,1-2.72,3.44c-.52.44-1,.87-1.56,1.27-.11.08-.63.54-.77.54s-.06-.11-.06-.14a.34.34,0,0,1,0-.17,17,17,0,0,0,3.19-5.17,20.41,20.41,0,0,0,.89-2.91,48.79,48.79,0,0,0,.63-9.36,16.07,16.07,0,0,0-.14-2.59c-.06-.29-.32-.75-.32-1a.29.29,0,0,1,.29-.2,16.56,16.56,0,0,1,3.33,1.3ZM55,270.36a1,1,0,0,0,1-.63c.54-1.44.6-5.46.66-7H54.84a27.4,27.4,0,0,1-1.07,7.5C54.15,270.28,54.58,270.36,55,270.36Zm1.29-8.53c.06-.06.61-.8.72-.8a19.49,19.49,0,0,1,1.67,1.12c0,.05-.15.4-.17.4s-.06-.12-.06-.15a2.58,2.58,0,0,1,0-.48c-.06-.75-.06-1.47-.06-2.22V258h-3l-.37.46-.06,3.33Zm5.15-10.57a4.65,4.65,0,0,1,1,.37c.23.09.46.26.69.37.84.49,1.76,1.12,1.76,2.22a1.44,1.44,0,0,1-1.27,1.52,1.2,1.2,0,0,1-1-.55,3.14,3.14,0,0,1-.2-.83,4.23,4.23,0,0,0-1.09-2.73.45.45,0,0,1-.14-.26C61.16,251.26,61.33,251.26,61.42,251.26Z"/><path class="cls-4" d="M72.8,274.64A3.64,3.64,0,0,1,73,274a28.92,28.92,0,0,0,1.23-4.34,6.57,6.57,0,0,0,.23-1.3c0-.14,0-.25,0-.37s0-.17.12-.17a13,13,0,0,1,2.15.8c.18.09.64.29.64.55s-.46.49-.67.57a20.71,20.71,0,0,1-3.27,4.63c-.09.11-.37.49-.52.49A.17.17,0,0,1,72.8,274.64Zm2.07-7.72-.52.37-1-1.49c.55.05,1.18.17,1.73.17h2.61v-1.21a6.58,6.58,0,0,0-.17-1.64H74.46l-.51.38L73,262a16.88,16.88,0,0,0,1.73.17h4.48a30.56,30.56,0,0,0,1.29-4.51c.06-.25.06-.69.14-.92a7.9,7.9,0,0,1,2.5,1.24.65.65,0,0,1,.29.49c0,.29-.6.37-.8.4-.87,1.12-1.76,2.24-2.65,3.3h1.93c.11-.14.89-1.2,1.2-1.2a.8.8,0,0,1,.52.34c.17.2,1.18,1.27,1.18,1.55s-.34.26-.49.26H79.87c.2.12.66.35.66.58s-.43.46-.58.54V266h1.3c.08-.09,1-1.24,1.26-1.24s.43.29.52.4,1.2,1.18,1.2,1.56c0,.17-.14.23-.28.23H80v5.57a21.34,21.34,0,0,0,.26,3.25l-2.79.83a22.81,22.81,0,0,0,.29-3.71v-5.94Zm7.81-12.56c.18,0,.46.32.6.43s1.16,1.12,1.16,1.49a.29.29,0,0,1-.29.29H74.61l-.52.35-1-1.47c.55,0,1.15.14,1.73.14h6.55C81.45,255.54,82.39,254.36,82.68,254.36ZM74.9,257a7.12,7.12,0,0,1,2,1.12,2.34,2.34,0,0,1,1,1.27,3.41,3.41,0,0,1,.14.95,1.15,1.15,0,0,1-1.09,1.2c-1.55,0-1-2.41-1.64-3.45a5.41,5.41,0,0,1-.6-1C74.78,257,74.84,257,74.9,257Zm1.23-6.89a9.62,9.62,0,0,1,1.58.63,3.19,3.19,0,0,1,2.3,3,1.14,1.14,0,0,1-1.15,1.15,1.28,1.28,0,0,1-1-.49c-.55-.75-.41-2-1-2.85-.29-.4-.58-.74-.89-1.12,0,0-.12-.11-.12-.17S76,250.11,76.13,250.11Zm4.71,18.5a7.38,7.38,0,0,1,1.47,1,2.68,2.68,0,0,1,1.21,2.21A1.17,1.17,0,0,1,82.45,273a1.11,1.11,0,0,1-1-.64c-.12-.28-.15-2-.32-2.58-.06-.26-.43-1-.43-1.09S80.81,268.61,80.84,268.61Zm11.27-7.3c.14-.17,1-1.23,1.26-1.23A5.32,5.32,0,0,1,95.09,262a.3.3,0,0,1-.31.32H92.57l-.46.54v10.32c0,1.06.11,2.18.17,3.25a8.74,8.74,0,0,1-2.65.66c.06-1.15.21-2.33.21-3.48,0-3.76,0-7.53,0-11.29H87.71c-.14,4.37.12,8.73-3.13,12.18a12.81,12.81,0,0,1-2.5,2.16,1.72,1.72,0,0,1-.58.31s-.14,0-.14-.11,1.44-1.76,1.64-2a9,9,0,0,0,1.32-2.93,35.13,35.13,0,0,0,1-10v-5a17.39,17.39,0,0,0-.12-3.22,2.42,2.42,0,0,0-.26-.86.72.72,0,0,1-.14-.4c0-.14,0-.23.17-.23a13.73,13.73,0,0,1,3.1,1.09c1.24-.49,2.1-.89,3.31-1.49a4.44,4.44,0,0,0,.75-.46.69.69,0,0,1,.31-.2c.15,0,.23.26.32.34a14.15,14.15,0,0,1,1.58,2.67c0,.12-.17.18-.29.18a5.9,5.9,0,0,1-.72-.09,6.37,6.37,0,0,0-.71-.06c-1.5,0-3,.12-4.46.18l-.34.46c0,2.12,0,4.25-.06,6.4Z"/><path class="cls-4" d="M103.09,272.78v-19.6a13.27,13.27,0,0,0,0-1.41,9,9,0,0,1-.29-1.06c0-.17.11-.23.26-.23a11.69,11.69,0,0,1,2.67,1.38h3.13c.14-.17.63-.92.89-.92a5.34,5.34,0,0,1,2.19,1.44c0,.28-.46.6-.66.74V258c0,.75.08,1.52.11,2.27a10.54,10.54,0,0,1-2.36.63l.09-1.52h-3.82V273c0,1.06.09,2.15.14,3.21a15.63,15.63,0,0,1-2.53.64C102.94,275.51,103.09,274.1,103.09,272.78Zm6-19.89h-3.62l-.2.26v2h3.82Zm0,5.43v-2.18h-3.82v2.18Zm-1.12,5-.58.35-1-1.5c.58.06,1.21.18,1.78.18h8.39c.12-.12.89-1,1.12-1a4.92,4.92,0,0,1,1.76,1.75c0,.12-.15.2-.23.2h-2.65l-.26.44v6.8l.64-.08c0-.06.89-1.21,1.09-1.21s1.92,1.29,1.92,1.73c0,.14-.23.23-.37.25l-3.28.32v1.7c0,.66.06,1.35.09,2a9.9,9.9,0,0,1-2.44.6c0-.8.17-1.67.17-2.47v-1.7l-6.32.61-.55.4-1.46-1.38a17.53,17.53,0,0,0,2.81-.09v-7.93Zm6.12,1.87v-1.87H111l-.29.38v1.49Zm0,2.7v-1.72h-3.42v1.72Zm0,2.88v-1.93h-3.42v2.21Zm6.61-19.89a7.69,7.69,0,0,1,1.78,1c.2.12.69.43.69.72s-.55.63-.81.78v21.2a4.25,4.25,0,0,1-.28,1.67c-.29.69-2.27,1-2.9,1.06-.23-1.18-.47-1.67-1.61-2.13-.15-.05-1-.28-1-.49s.11-.17.23-.14c.69.06,1.38.17,2.1.17s1.15-.17,1.15-1.09V259.47h-4v.81a20.71,20.71,0,0,1-2.3.54c0-.83.12-1.66.12-2.47V253.1c0-.35,0-.69,0-1s-.29-.75-.29-1,.12-.17.23-.17a8,8,0,0,1,2.41,1h3.6C119.92,251.8,120.38,250.88,120.7,250.88Zm-.63,4.34V253h-3.65l-.35.26v1.95Zm0,3.22v-2.21h-4v2.21Z"/><path class="cls-5" d="M8.82,164.8v-.13H8.34a59.45,59.45,0,0,1,3.38-20,52.49,52.49,0,0,1,9.19-16.29,51.72,51.72,0,0,1,6.23-6.24,35.35,35.35,0,0,1,7.19-4.71,35,35,0,0,1,16.57-4.07,28.89,28.89,0,0,1,11.85,2.41h.12a.65.65,0,0,0,.49.26l.12.13c.56.25,1.1.51,1.63.76s1.07.55,1.63.89Q73,121,76.66,121a9.48,9.48,0,0,0,5.44-1.27,6.49,6.49,0,0,0,2.78-4.45h.85v37h-.85a65.68,65.68,0,0,0-1.75-8.91,64.19,64.19,0,0,0-2.72-7.9,46.13,46.13,0,0,0-3.57-6.42,39.88,39.88,0,0,0-4.29-5.41,31.16,31.16,0,0,0-10.16-7.13,30,30,0,0,0-9.68-2.29,20.83,20.83,0,0,0-12.09,3.94A35.63,35.63,0,0,0,30.71,129,60.17,60.17,0,0,0,24,145.14a75.16,75.16,0,0,0-2.48,19.66,72,72,0,0,0,4.05,24.7q4,11.19,10.58,17.94A32.39,32.39,0,0,0,42.07,212a34.31,34.31,0,0,0,4.84,2.36,12.3,12.3,0,0,0,2.84.7,25.18,25.18,0,0,0,3,.19,43.62,43.62,0,0,0,4.9-.77,25.9,25.9,0,0,0,4.78-1.52,29.84,29.84,0,0,0,10-7.13,27.19,27.19,0,0,0,4.29-5.28,56.69,56.69,0,0,0,3.45-6.43A48.59,48.59,0,0,0,83,186.19c.72-2.8,1.33-5.77,1.81-8.91l.85.12a60.62,60.62,0,0,1-4.72,17.06A42.1,42.1,0,0,1,73,206.55a33.84,33.84,0,0,1-10.4,7.13A28.07,28.07,0,0,1,50.9,216.1,35.14,35.14,0,0,1,34.33,212a42.75,42.75,0,0,1-13.42-10.95,52.49,52.49,0,0,1-9.19-16.29,59.56,59.56,0,0,1-3.38-20Z"/><path class="cls-5" d="M102.6,214.51a9.19,9.19,0,0,0,4.53-1.85,7.65,7.65,0,0,0,2.42-3.82,23.48,23.48,0,0,0,.72-6.49v-75q0-7-2.35-9.61t-8.41-3H95.64V114h42.08v.64h0v.13h-4.83q-5.44.63-7.56,3.18c-1.41,1.7-2.12,4.79-2.12,9.29v75.23a25.44,25.44,0,0,0,.55,5.85,8.19,8.19,0,0,0,1.81,3.7,7.78,7.78,0,0,0,3.39,2.1,19.13,19.13,0,0,0,5.14.82h3.75v.89H95.64V215A45.71,45.71,0,0,0,102.6,214.51Z"/><path class="cls-5" d="M228.78,140.36v-.25c-.65-2.63-1.37-5.37-2.18-8.21a29.7,29.7,0,0,0-3.56-8,20.36,20.36,0,0,0-6.41-6.24,23.25,23.25,0,0,0-10.58-3H205q-5.33.51-7.44,3.12c-1.41,1.74-2.12,4.81-2.12,9.23v75.22A26.35,26.35,0,0,0,196,208a8.23,8.23,0,0,0,1.81,3.75,7.68,7.68,0,0,0,3.33,2.1,18,18,0,0,0,5.08.83h3.75v.89H167.83v-.89a45.57,45.57,0,0,0,7-.45,8.81,8.81,0,0,0,4.47-1.84,7.89,7.89,0,0,0,2.36-3.82,23.53,23.53,0,0,0,.72-6.49v-75a26.21,26.21,0,0,0-.54-5.85,8.2,8.2,0,0,0-1.81-3.69,7.32,7.32,0,0,0-3.33-2,24.62,24.62,0,0,0-5.08-.89h-.72a22.76,22.76,0,0,0-10.52,3,21.12,21.12,0,0,0-6.41,6.24,28.4,28.4,0,0,0-3.63,8c-.81,2.84-1.49,5.58-2.06,8.21v.25h-.84V113.63h82.23v26.73Z"/><path class="cls-5" d="M292.51,172.18v30.43q0,7,2.41,9.67t8.59,2.67h3.75v1h-42.2v-1a44.46,44.46,0,0,0,6.89-.44,9.58,9.58,0,0,0,4.47-1.78,7.33,7.33,0,0,0,2.42-3.82,23.65,23.65,0,0,0,.73-6.43v-30.3q-6.06-11.7-10.22-19.79t-7-13.43q-2.79-5.34-4.3-8.27c-1-1.95-1.75-3.42-2.24-4.39l-.9-1.85a2.41,2.41,0,0,0-.3-.51,15.07,15.07,0,0,0-4.24-5.09,18.86,18.86,0,0,0-5.07-2.8,22.85,22.85,0,0,0-4.6-1.15,27,27,0,0,0-2.9-.25v-.76h37.6v.76H273.4c-.89.08-1.9.23-3,.44a7.75,7.75,0,0,0-2.91,1.15,4.07,4.07,0,0,0-1.63,2.29c-.28,1,0,2.27.91,3.88L292,171.29l18.62-35.77a50.56,50.56,0,0,0,3.69-8.78,17,17,0,0,0,.85-5.85,6.33,6.33,0,0,0-1.15-3.5,6.13,6.13,0,0,0-2.24-1.79,8.25,8.25,0,0,0-2.54-.7c-.84-.08-1.51-.12-2-.12v-.89h32.41v.89h-.49a23.84,23.84,0,0,0-4.35.7,28,28,0,0,0-7.13,2.86,40.78,40.78,0,0,0-8.35,6.24,39.25,39.25,0,0,0-7.86,10.94Z"/><path class="cls-5" d="M723.36,114v.89h-1.81a30,30,0,0,0-5.14.58,21.38,21.38,0,0,0-6.23,2.16,15.33,15.33,0,0,0-5.26,4.65,13.47,13.47,0,0,0-2.24,8.14v85.41h-1l-71.1-93.68V199.3a13.73,13.73,0,0,0,2.24,8.27,15.33,15.33,0,0,0,5.26,4.65,21.28,21.28,0,0,0,6.23,2.16,30.82,30.82,0,0,0,5.14.57h1.81v.89H609V215h1.82a30.93,30.93,0,0,0,5.14-.57,21.48,21.48,0,0,0,6.23-2.16,15.52,15.52,0,0,0,5.26-4.65c1.49-2,2.23-4.79,2.23-8.27V126.87q0-3.06-.12-5.28a7.74,7.74,0,0,0-1.08-3.76,5.62,5.62,0,0,0-3.21-2.23,23.12,23.12,0,0,0-6.47-.7H615V114h25.88l60.82,79.56V130.43a13.47,13.47,0,0,0-2.23-8.14,15.42,15.42,0,0,0-5.26-4.65,21.48,21.48,0,0,0-6.23-2.16,30.07,30.07,0,0,0-5.14-.58H681V114h42.32Z"/><path class="cls-5" d="M792.41,213.68a28.3,28.3,0,0,0,7.07-3.31,26.34,26.34,0,0,0,5.38-4.64,38.75,38.75,0,0,0,4-5.42,45.11,45.11,0,0,0,5.44-14.76h.84l-3.5,30.29H731.7V215a45.71,45.71,0,0,0,7-.44,9.19,9.19,0,0,0,4.53-1.85,7.58,7.58,0,0,0,2.42-3.82,23.43,23.43,0,0,0,.73-6.49V128.91a6.65,6.65,0,0,0-.06-.77,3.91,3.91,0,0,1-.07-.76q0-7-2.35-9.61t-8.41-3h-3.87V114h76.67v26.73h-.85v-.12c-.64-2.8-1.39-5.73-2.23-8.79a26.71,26.71,0,0,0-3.93-8.33,20.81,20.81,0,0,0-7.26-6.24q-4.59-2.49-12.09-2.48H759.15v49.77h17.3c3.46-.09,6.18-.91,8.16-2.49a16.37,16.37,0,0,0,4.47-5.28,17.53,17.53,0,0,0,1.88-5.6,33.57,33.57,0,0,0,.36-3.56v-.38h.85v35.51h-.85v-.38a36.72,36.72,0,0,0-.36-3.69,17.48,17.48,0,0,0-1.94-5.8,15.83,15.83,0,0,0-4.65-5.28q-3.09-2.29-8.53-2.29H759.15v34.88a14.11,14.11,0,0,1,.13,2.29,26.09,26.09,0,0,0,.54,5.85,8.29,8.29,0,0,0,1.81,3.7,7.87,7.87,0,0,0,3.33,2.1A18.4,18.4,0,0,0,770,215h13.42A29.32,29.32,0,0,0,792.41,213.68Z"/><path class="cls-5" d="M954.45,114.78h-.61a19.46,19.46,0,0,0-3.32.44,16.78,16.78,0,0,0-4.9,2,19.42,19.42,0,0,0-5.14,4.52,22.2,22.2,0,0,0-3.93,8.21l-23.94,85.67h-.85l-23.94-84.65-23.46,84.65h-1L839.21,129.8l-.49-1.66a30.83,30.83,0,0,0-3.08-7.7,11.24,11.24,0,0,0-3.51-3.75,9,9,0,0,0-3.93-1.34q-2.06-.19-4.35-.57h-.12v-.89h39.66v.89H863c-2.1,0-4.07.06-5.93.19a7.88,7.88,0,0,0-4.47,1.52,6.21,6.21,0,0,0-2.06,4.33q-.36,3,1.33,8.59l17.78,63.65,17.77-63.65a1.31,1.31,0,0,1-.24-.7,1.32,1.32,0,0,0-.12-.57,31.22,31.22,0,0,0-3.08-7.7,11.24,11.24,0,0,0-3.51-3.75,9.1,9.1,0,0,0-4-1.34q-2.12-.19-4.29-.57h-.12v-.89h39.66v.89h-.36c-2.1,0-4,0-5.87.12a7.85,7.85,0,0,0-4.47,1.47,6.1,6.1,0,0,0-2.12,4.33c-.24,2,.2,4.9,1.33,8.71l17.78,63.65,18.38-66.19c.73-2.8.58-5-.42-6.56a10,10,0,0,0-4-3.62,16,16,0,0,0-5.26-1.6,38.59,38.59,0,0,0-3.93-.31H922v-.89h32.41Z"/><path class="cls-5" d="M963.15,183.51h1a32.71,32.71,0,0,0,.6,5.92,48.13,48.13,0,0,0,1.7,6.49,38.75,38.75,0,0,0,2.66,6.18,17.42,17.42,0,0,0,3.51,4.71,28.68,28.68,0,0,0,19,7.63h1.09a32,32,0,0,0,10.28-2.16,20,20,0,0,0,8.22-7.26,19.65,19.65,0,0,0,3.2-10.11,20.4,20.4,0,0,0-2.84-10.82q-3-5.42-9.91-9.23l-15.24-8.28a44.53,44.53,0,0,1-12.09-9,30.42,30.42,0,0,1-6.35-10.06,23.1,23.1,0,0,1-1.39-10.24,24.68,24.68,0,0,1,2.9-9.55,27.47,27.47,0,0,1,6.47-7.89,32.53,32.53,0,0,1,9.25-5.48A21.4,21.4,0,0,1,990,113a32.25,32.25,0,0,1,5-.38,28,28,0,0,1,10.88,2.17c1.29.51,2.66,1,4.11,1.52a15.67,15.67,0,0,0,4.35.89,8.4,8.4,0,0,0,4.12-.76,7.89,7.89,0,0,0,3.38-3.44h.85v27.63h-1a21.29,21.29,0,0,0-.79-5.6,32,32,0,0,0-2.11-5.67,35.94,35.94,0,0,0-3-5.09,31,31,0,0,0-3.39-4,24.19,24.19,0,0,0-8-5A26.24,26.24,0,0,0,995,113.5a28.32,28.32,0,0,0-4.18.32,23.93,23.93,0,0,0-4,1,17.3,17.3,0,0,0-8.64,6.11,13.51,13.51,0,0,0-2.54,9.67q.54,5.48,5.38,11.65T996,154.49L1010,162a35.56,35.56,0,0,1,10.52,8.72,27.23,27.23,0,0,1,5.32,10.5,23.82,23.82,0,0,1-4.9,21.07,32.86,32.86,0,0,1-10.09,8A45.35,45.35,0,0,1,995.68,215h.24c-.64.09-1.23.15-1.75.19s-1.07.07-1.63.07h-1.21A26.43,26.43,0,0,1,980.81,213v0a6.77,6.77,0,0,1-1.21-.51,21.44,21.44,0,0,0-8-2,9.79,9.79,0,0,0-4.66,1,5.28,5.28,0,0,0-2.24,2.29c-.4.89-.64,1.47-.72,1.72v.13h-.85Z"/><rect class="cls-6" x="335.23" y="210.62" width="255.29" height="10.19"/><path class="cls-7" d="M422.79,48.8s26.38-19.76,54.14-6,8.31,23.43,8.31,23.43L416.58,78l-8.87-11.22Z"/><path class="cls-8" d="M422.79,48.8s26.38-19.76,54.14-6,8.31,23.43,8.31,23.43L416.58,78l-8.87-11.22Z"/><path class="cls-9" d="M431.54,65.55a28.06,28.06,0,0,0,3.58,5.91c1.56,2,5.39,6,8,6.33-.07-.65-.14-1.33-.22-2a19.12,19.12,0,0,0,8.28,1.19,9.82,9.82,0,0,0,6.92-4,18.18,18.18,0,0,1,.6,2.79c2.71-2.56,5.3-7.72,7-12.55h0c-3.86,19-5.1,37.84-6.55,56.78a121.9,121.9,0,0,0-.53,16.86,32.73,32.73,0,0,1-.19,4.6c-.49,5.45-1.72,13.84-2.74,21.73l-.63-.07c-1.57-2.27-5.66-8.39-9.05-13.86a74.51,74.51,0,0,1-4.89-8.7c-9.29-23.26-9.54-49.43-9.62-75Z"/><g class="cls-10"><polygon class="cls-11" points="477.45 70.95 432.58 96.57 432.58 79.59 477.45 55.03 477.45 70.95"/><polygon class="cls-12" points="477.45 86.87 432.58 113.55 432.58 96.57 477.45 70.95 477.45 86.87"/><polygon class="cls-13" points="477.45 102.78 432.58 130.52 432.58 113.55 477.45 86.87 477.45 102.78"/><polygon class="cls-11" points="477.96 166.93 433.09 192.55 433.09 175.57 477.96 151.02 477.96 166.93"/><polygon class="cls-12" points="477.96 182.85 433.09 209.53 433.09 192.55 477.96 166.93 477.96 182.85"/><polygon class="cls-13" points="477.96 198.77 433.09 226.51 433.09 209.53 477.96 182.85 477.96 198.77"/><polygon class="cls-11" points="477.45 118.7 432.58 147.5 432.58 130.52 477.45 102.78 477.45 118.7"/><polygon class="cls-12" points="477.45 134.62 432.58 164.48 432.58 147.5 477.45 118.7 477.45 134.62"/><polygon class="cls-13" points="477.45 150.54 432.58 181.46 432.58 164.48 477.45 134.62 477.45 150.54"/></g><g class="cls-14"><path class="cls-15" d="M457.16,107.35c-5.37,8.4-11.25,13.75-17.18,12.26.8,14.75,4.59,29.12,12,41.89l15.34,7.89,2.92-8.57c-7.75-10.7-10.19-24.06-11.67-37.1C458,118.29,457.51,112.83,457.16,107.35Z"/></g><path class="cls-16" d="M449.77,61.59a11.58,11.58,0,0,0,1.49-.6h0a4.64,4.64,0,0,1,2.22,1.86A43.27,43.27,0,0,1,458.09,73a9.82,9.82,0,0,1-6.92,4,19.12,19.12,0,0,1-8.28-1.19c-.46-4.44-.92-10-.18-14A13.12,13.12,0,0,0,449.77,61.59Z"/><path class="cls-17" d="M449.77,61.59a11.58,11.58,0,0,0,1.49-.6h0a4.64,4.64,0,0,1,2.22,1.86A43.27,43.27,0,0,1,458.09,73a9.82,9.82,0,0,1-6.92,4,19.12,19.12,0,0,1-8.28-1.19c-.46-4.44-.92-10-.18-14A13.12,13.12,0,0,0,449.77,61.59Z"/><path class="cls-9" d="M445.25,61.35c-.73,4-1.35,15.12-2.14,16.44-2.6-.29-6.43-4.31-8-6.33a28.06,28.06,0,0,1-3.58-5.91,21.49,21.49,0,0,1-1-2.88c-.06-.22-.11-.43-.16-.65l0,0c-2.24-5.65-.52-18.63-.52-18.63l7.68-3.26Z"/><path class="cls-7" d="M431.52,65.56c.08,25.54.33,51.71,9.62,75a74.51,74.51,0,0,0,4.89,8.7c-11.1-13.66-22.1-38.2-25.82-55.37-.69-3.2-1-5.2-2.92-7.93v0c2.7-7.31,6.42-13.72,12.34-18.8C430.24,66.56,430.86,66.05,431.52,65.56Z"/><path class="cls-18" d="M534.44,149.19a11.13,11.13,0,0,1,1.7,5c.31,3.31-.61,6.63-1.65,9.81-2.52,7.65-4.12,15.52-8.14,22.54a1.57,1.57,0,0,0-.68-.23c-3.71-.65-6.27-2.69-10-2.36.3-6-.67-12.62-.88-18.66a34.9,34.9,0,0,1,1.92-14c-4.13-6.09-7.15-16.47-9.38-23.45q-3.21-9.95-6.43-19.94c-.41,1.35-.83,2.7-1.25,4q-4,13-8.09,25.83c-.09.29-.18.6-.29.9a11.91,11.91,0,0,0,.64,3.91c1.5,5.32,3.2,11,7.59,14.53,6.88,4.19-3,14.15-11.57,18.44-10.49,5.28-23.17,1.58-33.37,7.28-.74-3,.09-11.06,1.19-19.69,1-7.89,2.25-16.28,2.74-21.73,3.41-20.07,15.14-42.13,23.91-60.21,1.25-2.59,2.65-5.27,5-7a170.68,170.68,0,0,0-19.91-10.39c4-.94,9.21-2.52,13-.91a48.5,48.5,0,0,0-3.54-19.58q13.65,3.65,27.61,6c3.63.62,7.5.39,9.52,3.34,12.16,20.36,21.56,41.47,23.2,64.6A91.47,91.47,0,0,1,534.44,149.19Z"/><path class="cls-19" d="M480.81,115.36c-12.51,7.43-20,22.07-20,36.62a51.59,51.59,0,0,0,8.1,27.25c6.47-.56,13.08-.69,19-3.66,8.53-4.3,18.45-14.26,11.57-18.44-4.39-3.58-6.09-9.21-7.59-14.53a12,12,0,0,1-.64-3.92c.11-.3.2-.6.29-.89q4-12.89,8.09-25.83c.17-.53.33-1.06.5-1.59A36.57,36.57,0,0,0,480.81,115.36Z"/><path class="cls-20" d="M534.44,149.19a91.47,91.47,0,0,0,2.82-31.86c-1.64-23.13-11-44.24-23.2-64.6a5.74,5.74,0,0,0-2.86-2.15,123.5,123.5,0,0,0-9.84,58.89q3,9.21,5.93,18.4c2.23,7,5.25,17.36,9.38,23.45a34.9,34.9,0,0,0-1.92,14c.21,6,1.18,12.65.88,18.66,3.77-.33,6.33,1.71,10,2.36a1.57,1.57,0,0,1,.68.23c4-7,5.62-14.89,8.14-22.54,1-3.18,2-6.5,1.65-9.81A11.13,11.13,0,0,0,534.44,149.19Z"/><path class="cls-21" d="M518.17,110c3.6,11.11,10.2,20.94,18.37,29.36a96,96,0,0,0,.72-22C536,99.48,530.1,82.84,521.89,66.81,514.52,79.51,513.58,95.84,518.17,110Z"/><path class="cls-9" d="M460.38,37.91l4.23.75a29.76,29.76,0,0,1,3,17.49,41,41,0,0,1-1.9,6.94l0,.1C464,68,461.17,74.48,458.45,77c-.11-.89-2-8.78-5.77-12.72-.59-.62-3.16-3.37-4-3.61h0Z"/><path class="cls-22" d="M407.44,57.84a121.47,121.47,0,0,0-10,7.57,99.67,99.67,0,0,0-7.33,6.85q-1.36,5.58-2.32,11.2a30.06,30.06,0,0,0,5.08-2.37,29.69,29.69,0,0,0,8.32-7.18c.38-.48.75-1,1.1-1.46a29.29,29.29,0,0,0,2.46-4.28,4.48,4.48,0,0,0,1.13-.9l.42-2.5-.26.16A30.16,30.16,0,0,0,407.44,57.84Z"/><path class="cls-18" d="M455.71,163.16l-.63-.07c-1.57-2.27-5.66-8.39-9.05-13.86-11.1-13.66-22.1-38.2-25.82-55.37-.69-3.2-1-5.2-2.92-7.93v0c2.7-7.31,6.42-13.72,12.34-18.8h0a69.09,69.09,0,0,0-12.27,3.45,44.5,44.5,0,0,1,5.43-21.74A133.15,133.15,0,0,0,397.4,65.41a99.67,99.67,0,0,0-7.33,6.85,146.1,146.1,0,0,0-2.37,60.28c5.11,10.9,9.9,12.7,23.21,6.75a75.87,75.87,0,0,0,12.14,20.77l-.19.14c-3.47,8.57-14.22,13.14-17.21,21.8,15.35-7.34,33.57-6.71,48.87.85C453.78,179.83,454.61,171.79,455.71,163.16Z"/><path class="cls-7" d="M459.17,120c1.45-18.94,2.69-37.83,6.55-56.78h0l0-.1h0c.58.24,1.16.49,1.73.75a170.68,170.68,0,0,1,19.91,10.39c-2.38,1.72-3.78,4.4-5,7-8.77,18.08-20.5,40.14-23.91,60.21a32.73,32.73,0,0,0,.19-4.6A121.9,121.9,0,0,1,459.17,120Z"/><path class="cls-23" d="M431.52,65.56c.08,25.54.33,51.71,9.62,75a74.51,74.51,0,0,0,4.89,8.7c-11.1-13.66-22.1-38.2-25.82-55.37-.69-3.2-1-5.2-2.92-7.93v0c2.7-7.31,6.42-13.72,12.34-18.8C430.24,66.56,430.86,66.05,431.52,65.56Z"/><path class="cls-24" d="M459.17,120c1.45-18.94,2.69-37.83,6.55-56.78h0l0-.1h0c.58.24,1.16.49,1.73.75a170.68,170.68,0,0,1,19.91,10.39c-2.38,1.72-3.78,4.4-5,7-8.77,18.08-20.5,40.14-23.91,60.21a32.73,32.73,0,0,0,.19-4.6A121.9,121.9,0,0,1,459.17,120Z"/><path class="cls-18" d="M534.44,149.19a11.13,11.13,0,0,1,1.7,5c.31,3.31-.61,6.63-1.65,9.81-2.52,7.65-4.12,15.52-8.14,22.54a1.57,1.57,0,0,0-.68-.23c-3.71-.65-6.27-2.69-10-2.36.3-6-.67-12.62-.88-18.66a34.9,34.9,0,0,1,1.92-14Z"/><path class="cls-25" d="M431.32,44.48a5.41,5.41,0,0,1-4.89.52,6.82,6.82,0,0,1-3.18-4.07A3.93,3.93,0,0,1,423,39.4a3.11,3.11,0,0,1,1.1-2.08,3.23,3.23,0,0,1,4.82.61c.48,1.37,1,2.83,1.47,4.47.22.55.47,1.1.72,1.64h0C431.18,44.19,431.25,44.33,431.32,44.48Z"/><path class="cls-26" d="M424.51,42.11a3.07,3.07,0,0,1,1.1-2.08,3.15,3.15,0,0,1,4-.2c-.21-.66-.42-1.29-.64-1.9a3.23,3.23,0,0,0-4.82-.61A3.11,3.11,0,0,0,423,39.4a3.93,3.93,0,0,0,.24,1.53,7.82,7.82,0,0,0,1.49,2.71A3.78,3.78,0,0,1,424.51,42.11Z"/><path class="cls-25" d="M426.49,16.27c.28,3.76,1.93,7.32,3.48,10.7,1.25,2.35,4.35,3.07,6.78,2.42s4.45-2.39,6.46-4,4.15-3.23,6.63-3.6a10.4,10.4,0,0,1,3,0,6.71,6.71,0,0,1,.93.76c2,1.82,3.13,4,4.68,6.3a29.62,29.62,0,0,1,.71,3.1c.32,1.66,1.48,3.57,1.55,5.27a38.49,38.49,0,0,1,0,4.43,36.82,36.82,0,0,1-2.57,11.15,17.67,17.67,0,0,1-7.63,8.32,10,10,0,0,1-1.2.54,9.51,9.51,0,0,1-5.71.15,11.13,11.13,0,0,1-2.29-.87,17.6,17.6,0,0,1-6.45-5.38,5.9,5.9,0,0,1-1-1.65c-.72-1.72-.79-3.76-1.21-5.73-.06-.27-.12-.53-.2-.79A30,30,0,0,0,429.26,41l-.21-.36h0c-1.11-2.49-1-3.57-.79-6.32a6.43,6.43,0,0,1,.45-2.28c.31-.68.58-1.17,1.26-1.2-.08,0,.18.13,0,0a11.86,11.86,0,0,1-2.43-4.19,30.47,30.47,0,0,1-1.69-9.38C426.08,16.94,426.28,16.6,426.49,16.27Z"/><path class="cls-27" d="M430,30.85s.84-1.08,3.66-1.37-5.75-15.17-5.75-15.17-2.88,3.27-3,5C424.2,30,430,30.85,430,30.85Z"/><path class="cls-28" d="M426.87,35.66c-1.16-2.72-2.32-5.06-3.91-8.08a2,2,0,0,1-.33-1,2.14,2.14,0,0,1,.15-.7c.73-2.07,1.19-5.12,3.12-8.61a30.47,30.47,0,0,0,1.69,9.38A11.86,11.86,0,0,0,430,30.84h0c-.68,0-1,.52-1.26,1.2a6.43,6.43,0,0,0-.45,2.28c-.19,2.75-.32,3.83.79,6.32-.24-.44-.49-.89-.71-1.34C427.83,38,427.35,36.78,426.87,35.66Z"/><path class="cls-29" d="M425.9,17.27c-1.93,3.49-2.39,6.54-3.12,8.61a2.14,2.14,0,0,0-.15.7,2,2,0,0,0,.33,1c1,1.82,1.76,3.4,2.5,5a38.25,38.25,0,0,0,1.72-7.25A27.57,27.57,0,0,1,425.9,17.27Z"/><path class="cls-28" d="M448.23,7.24a10,10,0,0,1,5.2,3.36,6.75,6.75,0,0,1,.47.59,21.3,21.3,0,0,1,3.35,8.89,4.36,4.36,0,0,0-3.86-1.7,7.36,7.36,0,0,1,2.87,3.71c0,.12,0,.41-.16.44a23.36,23.36,0,0,0-3.26-.73,10.4,10.4,0,0,0-3,0c-2.48.37-4.62,2-6.63,3.6s-4,3.34-6.46,4S431.22,29.32,430,27c-1.55-3.38-3.2-6.94-3.48-10.7A25.89,25.89,0,0,1,432.2,10,15.83,15.83,0,0,1,441,6.16,13.23,13.23,0,0,1,448.23,7.24Z"/><path class="cls-30" d="M450.2,14.93c2,2.34.18,4.7-2.48,5.26-2.2.46-4.45-.63-6.66-.51a10.06,10.06,0,0,0-9,7.83c-.1.4-.73.28-.63-.12a10.71,10.71,0,0,1,5.21-7,10.46,10.46,0,0,1,3.25-1.17,10.77,10.77,0,0,1,2.27-.11l1.36.17q4,1.21,6.11-3.94c-.26-.32.27-.68.53-.36Z"/><path class="cls-31" d="M459.34,18.55a50.54,50.54,0,0,1,.94,12.07A5.27,5.27,0,0,0,459.16,32a29.62,29.62,0,0,0-.71-3.1c-1.55-2.28-2.68-4.48-4.68-6.3a6.71,6.71,0,0,0-.93-.76,23.36,23.36,0,0,1,3.26.73c.12,0,.2-.32.16-.44a7.36,7.36,0,0,0-2.87-3.71,4.36,4.36,0,0,1,3.86,1.7,21.3,21.3,0,0,0-3.35-8.89,6.75,6.75,0,0,0-.47-.59h0c1.18.82,3.63,3.51,4.77,4.39C458.62,15.31,459.27,18.1,459.34,18.55Z"/><path class="cls-25" d="M464,36.59a6.12,6.12,0,0,1-4.93,1.89h0a66.05,66.05,0,0,0-.72-7.74,7.42,7.42,0,0,1,1.4-2,9.85,9.85,0,0,1,1.1-1A4.19,4.19,0,0,1,464,26.6a3.12,3.12,0,0,1,2.45,2.57,5.31,5.31,0,0,1,.07,1.54A9.54,9.54,0,0,1,464,36.59Z"/><path class="cls-32" d="M466.46,29.17A3.12,3.12,0,0,0,464,26.6a4.19,4.19,0,0,0-3.16,1.12,9.85,9.85,0,0,0-1.1,1,7,7,0,0,0-1,1.32c-.09-.38-.18-.77-.29-1.15-1.55-2.28-2.68-4.48-4.68-6.3a6.71,6.71,0,0,0-.93-.76,10.4,10.4,0,0,0-3,0,10.6,10.6,0,0,0-4.28,1.83,15.12,15.12,0,0,1,1.73.44c5.2,1.64,9.38,5.69,12.34,11.37-.09-1.08-.24-2.16-.43-3.22a6.53,6.53,0,0,1,.55-.63,9.85,9.85,0,0,1,1.1-1A4.19,4.19,0,0,1,464,29.48a3.08,3.08,0,0,1,2.37,2.29,9.32,9.32,0,0,0,.15-1.06A5.31,5.31,0,0,0,466.46,29.17Z"/><path class="cls-33" d="M440.92,36.69s3.5,6.73,2.37,11.64,0,5,0,5,3.76-1.77,3.61-2.53S444.39,39.28,440.92,36.69Z"/><ellipse class="cls-28" cx="437.49" cy="44.19" rx="1.28" ry="2.18" transform="translate(0.27 91) rotate(-11.88)"/><ellipse class="cls-28" cx="450.46" cy="40.65" rx="1.31" ry="2.25" transform="translate(1.28 93.59) rotate(-11.88)"/><path class="cls-34" d="M448.46,56.24a3,3,0,0,1-3.21,0c-.22-.16-.57-.54-.46-.84s.51-.23.75-.2c1.7.25,2.85-.83,4-1.92a7.87,7.87,0,0,0,.93-1.24c.29-.42.67-.87,1.11-.42a1.5,1.5,0,0,1,.24,1.27,5.86,5.86,0,0,1-2.73,3.1C448.87,56.07,448.65,56.15,448.46,56.24Z"/><path class="cls-35" d="M431.58,38.24c0-.53.92-1.51,1.53-1.62a6.06,6.06,0,0,1,3.52.22c.34.15,1,.92.83,1.49s-.84.51-1.29.51c-.83,0-1.29-.4-2.36-.31C432.9,38.68,431.66,39.39,431.58,38.24Z"/><path class="cls-35" d="M449.14,33.18a3.65,3.65,0,0,0-3.43,1.52c-.14.2-.53.47-.74.29s-.12-.74,0-1a4.11,4.11,0,0,1,4.22-2.71,26.18,26.18,0,0,1,3.63.94c.46.13,1,.37.76,1-.11.3-.75.46-1.14.43C451.21,33.55,450,33.19,449.14,33.18Z"/><path class="cls-36" d="M445.94,51.54a11.73,11.73,0,0,1-2.32.78c1.26-5.28.48-11.55-2.91-15.86a43.47,43.47,0,0,1,1.74,12.21c0,.64-.69,4.31-.3,4.65,1.14,1,4.33-1,4.72-2.5l-.93.72Z"/><path class="cls-37" d="M455.48,18.82c-.34-.27-.7-.53-1.05-.79-7.56-5.9-14.78-7.38-21.62-5.3a22.92,22.92,0,0,0-3.63,1.75,8,8,0,0,1,2.33-2.71,18.13,18.13,0,0,1,12.36-4.15c1.43,1,2.83,2.13,4.18,3.26a41.5,41.5,0,0,1,5.74,5.74c.39.5.78,1,1.17,1.46,0,0,0,0,0,.06C455.17,18.37,455.33,18.59,455.48,18.82Z"/><path class="cls-38" d="M429,17.17a31.42,31.42,0,0,1,14.8,0,34.19,34.19,0,0,1,11.65,5.05,5.4,5.4,0,0,0,1,.4c-2.15-1.67-4.21-3.52-6.47-5-7.89-5.06-15.94-4.73-20.57-1.36C429.14,16.43,429.14,16.86,429,17.17Z"/><path class="cls-39" d="M443.74,59.88c-5.08,0-8.39-3-10.49-7.67a11.3,11.3,0,0,0,.48,1.59,6,6,0,0,0,1,1.65,17.5,17.5,0,0,0,6.38,5.37,10.66,10.66,0,0,0,2.27.88,9.31,9.31,0,0,0,5.65-.15,9.89,9.89,0,0,0,1.19-.55,17.61,17.61,0,0,0,7.56-8.31,37.13,37.13,0,0,0,1.88-6.35C456.71,54.45,451.06,59.88,443.74,59.88Z"/><path class="cls-28" d="M462.31,47.33l-1.57-9.21s-1.12-1-1.77-1.66c.36,3,1,9.11,0,12.34-2.08,4.73-2.5,8.3-9.14,11.67-6.34,3.21-12.91-2.78-12.78-2.54l0,0a8.21,8.21,0,0,0,4.56,3.7,33.43,33.43,0,0,1,4.88,2c2.76.05,9.12-3.51,10.78-5.73C458.45,54.48,462.41,48.32,462.31,47.33Z"/><path class="cls-40" d="M462.11,46.12l-1.37-8s-1.12-1-1.77-1.66c.36,3,1,9.11,0,12.34-1.41,3.21-2.06,5.88-4.4,8.32A17.33,17.33,0,0,0,462.11,46.12Z"/><path class="cls-41" d="M526.92,77.45a215.16,215.16,0,0,0-12.86-24.71c-2-2.94-5.89-2.71-9.52-3.33-1.62-.28-3.24-.59-4.87-.9a49.38,49.38,0,0,0,27.25,28.94Z"/><path class="cls-42" d="M534.44,149.19a11.13,11.13,0,0,1,1.7,5c.31,3.31-.61,6.63-1.65,9.81-2.52,7.65-4.12,15.52-8.14,22.54a1.57,1.57,0,0,0-.68-.23c-3.71-.65-6.27-2.69-10-2.36.3-6-.67-12.62-.88-18.66a34.9,34.9,0,0,1,1.92-14Z"/><path class="cls-43" d="M386.64,91.15a141.81,141.81,0,0,0,1.06,41.39c4.56-10.52,8.55-20.91,12.32-31.68A119.06,119.06,0,0,0,386.64,91.15Z"/><path class="cls-44" d="M414,114.61a136.52,136.52,0,0,1-3,24.68,75.87,75.87,0,0,0,12.14,20.77l-.19.14c-3.47,8.57-14.22,13.14-17.21,21.8a55.1,55.1,0,0,1,35.91-3.73,118.88,118.88,0,0,0-17.95-50.72A117,117,0,0,0,414,114.61Z"/><path class="cls-45" d="M533.09,217.83c-6.48-10.25-17.09-17.58-28.69-21.15S480,193.11,468,195.58c-4.49.92-8.53,6-12.89,4.59-35.55-11.52-67,5-67,5-10,7.11-14,15.3-19.83,25.53a21.37,21.37,0,0,1,15.13,12c.09-.14.18-.27.26-.42,3.34-7.15,8.56-11.57,15-16.07,15.95-11,34.43-16,53.7-18.17a85,85,0,0,1,45.54,3.3c8.8,3.05,19.17,10.58,25.44,18.52A30.47,30.47,0,0,1,533.09,217.83Z"/><path class="cls-46" d="M533.09,217.83c-6.48-10.25-17.09-17.58-28.69-21.15S480,193.11,468,195.58c-4.49.92-8.53,6-12.89,4.59-35.55-11.52-67,5-67,5-10,7.11-14,15.3-19.83,25.53a21.37,21.37,0,0,1,15.13,12c.09-.14.18-.27.26-.42,3.34-7.15,8.56-11.57,15-16.07,15.95-11,34.43-16,53.7-18.17a85,85,0,0,1,45.54,3.3c8.8,3.05,19.17,10.58,25.44,18.52A30.47,30.47,0,0,1,533.09,217.83Z"/><path class="cls-47" d="M371.24,229.43s39-37.66,75.23-31.69"/><path class="cls-47" d="M373.72,231s33.86-35.3,74.23-31.63"/><path class="cls-47" d="M376.2,232.58s28.74-33,73.23-31.57"/><path class="cls-47" d="M378.67,234.15s23.62-30.6,72.24-31.5"/><path class="cls-47" d="M381.15,235.73s18.49-28.25,71.24-31.45"/><path class="cls-47" d="M530.47,216.39s-33.05-30.4-73-20.3"/><path class="cls-47" d="M529,218.8s-27.39-29.63-71.68-21.54"/><path class="cls-47" d="M527.57,221.22s-21.74-28.86-70.36-22.79"/><path class="cls-47" d="M526.11,223.63s-16.08-28.08-69-24"/><path class="cls-47" d="M524.66,226.05S514.24,198.73,457,200.76"/><path class="cls-48" d="M383.32,243.23c3.34-7.15,8.89-12.48,15.37-17,15.95-11,34.43-16,53.7-18.17a85,85,0,0,1,45.54,3.3c8.8,3.05,19.76,11.68,26,19.62l1.76-3.1c-6.27-7.94-19-17.27-27.79-20.32a85,85,0,0,0-45.54-3.3c-19.27,2.2-37.75,7.12-53.7,18.17-6.48,4.5-14.2,11-17.54,18.16Z"/><path class="cls-49" d="M452.37,202.45c-32-3.26-62.05,3.52-89.11,20.87,7.34-16.66,15.8-33.37,24.36-49.43l66.62-5Z"/><path class="cls-50" d="M387.62,173.89c-3.29,6.17-6.56,12.44-9.76,18.76,4.59,5.23,13.26,10.51,29.6,12.18a141.12,141.12,0,0,1,44.91-2.38l1.87-33.6Z"/><path class="cls-51" d="M532.47,160.34l-.51-6.42c-23.53-6.11-54.48-3.72-76.25,7.12-16.81-9.91-42.28-15.13-61.26-10.6-4,6.92-8.18,13.9-12.31,20.92-6.51,11.07-13,22.25-18.8,33.42,28.5-11.81,59.64-11.73,89-2.33l.39-.13a112.82,112.82,0,0,1,17.38-4,114.71,114.71,0,0,1,66.15,9.94Z"/><path class="cls-52" d="M455.71,161c-16.81-9.91-42.28-15.13-61.26-10.6-4,6.92-8.18,13.9-12.31,20.92a27.08,27.08,0,0,0,5.05,1.45c10.43,1.93,21.13-.57,31.74-.61s22.56,3.4,27.29,12.91c2,4,2.43,8.6,4,12.79a16.59,16.59,0,0,0,2.51,4.42,112.82,112.82,0,0,1,17.38-4c.48-.72.94-1.44,1.39-2.14,13.13-20.66,36.65-33.81,60.94-35.83l-.51-6.42C508.43,147.81,477.48,150.2,455.71,161Z"/><polygon class="cls-53" points="404.82 111.84 404.27 108.25 416.58 102.26 433.33 104.47 432.5 108.72 404.82 111.84"/><path class="cls-54" d="M416.58,106.46c0,.62-1.21,64.41-1.21,64.41s13.33-.4,15.33-.56c0-.59,3.49-62.25,3.49-62.25S420.9,107,416.58,106.46Z"/><path class="cls-55" d="M416.58,106.46c-3.41,1.53-12.7,5.39-12.7,5.39s3.39,44.42,3.82,55.8c0,.89.16,2.66.16,2.66s5.68.56,8.09.56C416.2,152.63,416.24,131.22,416.58,106.46Z"/><path class="cls-53" d="M412.58,117.37c0,1.23.07,2.29,0,3.33,0,.18-.4.49-.66.51-1.12.08-2.25.08-3.38.11-.13,0-.37-.06-.38-.1a11.86,11.86,0,0,1-.29-2.29c0-.26.5-.62.88-.73C409.91,117.89,411.11,117.68,412.58,117.37Z"/><path class="cls-56" d="M412.49,122.1a24.61,24.61,0,0,1,0,2.85c0,.16-.66.39-1,.4-1.11,0-2.88.25-3.2-.11-.56-.63-.25-1.65-.22-2.51,0-.13.47-.33.75-.36C410,122.26,411.19,122.19,412.49,122.1Z"/><path class="cls-57" d="M412.57,112.93c0,1,.07,1.91,0,2.8a.87.87,0,0,1-.57.63c-1.27.35-2.58.62-3.87.92C407.21,114.79,408.17,113.85,412.57,112.93Z"/><path class="cls-53" d="M412.34,160l.05,2.55c-3.15.3-3.87-.14-3.31-2,.05-.2.53-.45.86-.49C410.66,160,411.42,160,412.34,160Z"/><path class="cls-53" d="M412.75,164.64c-.15.38-.16,1-.47,1.09a5.59,5.59,0,0,1-2.62,0,2.84,2.84,0,0,1-.51-2c0-.12.68-.25,1.06-.36a.92.92,0,0,1,.24,0C412.78,163.38,412.51,163.14,412.75,164.64Z"/><path class="cls-57" d="M412.44,126.3a4.83,4.83,0,0,1,.09.8c-.18,2.53.73,2.12-3.33,2.11-.34,0-.72-.39-1-.64-.12-.11,0-.32-.05-.48-.07-1.55-.07-1.54,2.1-1.63C410.93,126.44,411.61,126.37,412.44,126.3Z"/><path class="cls-53" d="M409.11,168.55a9.72,9.72,0,0,1,0-1.51c0-.16.34-.33.58-.46a1.54,1.54,0,0,1,.56-.08c2.27-.16,3,.35,2.38,1.68a1.08,1.08,0,0,1-.73.35C411,168.58,410.13,168.55,409.11,168.55Z"/><path class="cls-57" d="M412.32,133.41c0,.37,0,.64,0,.91,0,1.72,0,1.69-2.51,1.64-1,0-1.42-.24-1.42-1,0-2-.3-1.55,2.64-1.63C411.4,133.35,411.76,133.39,412.32,133.41Z"/><path class="cls-57" d="M412.24,157.26l0,2a4.72,4.72,0,0,1-.54.07c-2.79.13-3.25-.24-2.51-2.05Z"/><path class="cls-58" d="M412.09,136.78l.05,2.64a13.33,13.33,0,0,1-3.38-.56c-.45-.22-.45-1.57-.06-1.72A14.21,14.21,0,0,1,412.09,136.78Z"/><path class="cls-53" d="M412.28,130.14c.38,2.13-.8,2.8-3.46,2.15a.81.81,0,0,1-.5-.47c-.43-1.45-.17-1.66,2-1.68Z"/><path class="cls-53" d="M412,145.75l0,1.11,0,1.37c-1.12,0-2.48.14-3-.2a1.31,1.31,0,0,1-.07-1.8C409.44,145.85,410.79,145.91,412,145.75Z"/><path class="cls-57" d="M410.4,142.14c-1.73,0-1.73,0-1.76-1.15s.06-1,2.12-1c1,0,1.46.12,1.42.88C412.09,142.14,412.16,142.15,410.4,142.14Z"/><path class="cls-57" d="M412,142.84l.05,2.34a12.51,12.51,0,0,1-3-.38c-.38-.15-.44-1.32-.07-1.49A13,13,0,0,1,412,142.84Z"/><path class="cls-58" d="M409.12,156.1a4.58,4.58,0,0,1-.1-.57c-.1-1.3.41-1.61,2.48-1.47.24,0,.45.23.66.35,0,0,0,.11,0,.16C412.46,156.16,412.19,156.3,409.12,156.1Z"/><path class="cls-57" d="M410.53,153.41c-1.16.17-1.67-.08-1.61-.91.07-1.05,0-1,2.14-1.05,1.56,0,.91.7,1.05,1.14C412.39,153.45,411.57,153.52,410.53,153.41Z"/><path class="cls-56" d="M411.93,148.87l0,1.9a21.85,21.85,0,0,1-2.94-.29c-.2,0-.29-1,0-1.11A18.47,18.47,0,0,1,411.93,148.87Z"/><path class="cls-53" d="M422.92,161.45l-.08,5h-2.26l0-5.22Z"/><path class="cls-53" d="M427.63,162.57c0-1-.31-1.1-2.49-.87,0,1.29,0,2.61-.1,3.91-.06,1.11,0,1.15,2.45,1C427.54,165.25,427.58,163.92,427.63,162.57Z"/><path class="cls-58" d="M424.82,112.12c0-1.58,0-1.63-2.87-1.56a7.07,7.07,0,0,0-.13,1c0,1.82,0,3.62,0,5.4,0,1.31.2,1.38,2.87,1.15C424.74,116.19,424.77,114.17,424.82,112.12Z"/><path class="cls-53" d="M428.17,149.41c0-.16-.65-.39-1.06-.45-.67-.1-1.16,0-1.18.52,0,1-.12,2-.17,3s0,1.7-.07,2.57l2.32.12C428.08,153.18,428.17,151.31,428.17,149.41Z"/><path class="cls-53" d="M421.3,142.14c-.06,1.72-.09,3.42-.15,5.09,0,.43,0,.76,1.08.77s1.21-.32,1.22-.8c0-1.59.13-3.2.18-4.82,0-1.07-.05-1.1-2.18-.9A3.71,3.71,0,0,0,421.3,142.14Z"/><path class="cls-56" d="M428.55,144.77c0-.87,0-1.73.1-2.6,0-.51-.22-.75-1.2-.76s-1.14.25-1.16.7c-.06,1.77-.14,3.51-.24,5.24,0,.44.17.65,1.07.66s1.24-.21,1.23-.69c0-.85,0-1.7.08-2.55Z"/><path class="cls-58" d="M423.36,149.67c0-.43-.05-.73-1.1-.74s-1.2.32-1.21.78c0,1.4-.1,2.79-.14,4.17,0,1.06,0,1.06,2.35.93C423.29,153.1,423.31,151.4,423.36,149.67Z"/><path class="cls-53" d="M427.27,117.68c0,.64.46.8,1.43.81s1.2-.35,1.23-.85c.12-1.57.27-3.14.38-4.74s.09-1.64-2.84-1.76C427.41,113.35,427.36,115.53,427.27,117.68Z"/><path class="cls-58" d="M428.92,135c0-.18-.71-.45-1.14-.48s-1,.26-1.06.42c-.13,1.85-.15,3.69-.21,5.54h2.26C428.84,138.64,428.94,136.84,428.92,135Z"/><path class="cls-53" d="M421.36,139.45c0,1.11.22,1.21,2.27.93l.1-5.85h-2.32C421.39,136.26,421.37,137.86,421.36,139.45Z"/><path class="cls-53" d="M425.38,159.81c0,1.05.1,1.12,2.25.95l.17-4.75h-2.32C425.45,157.33,425.43,158.58,425.38,159.81Z"/><path class="cls-53" d="M423,155.88c-2.15-.17-2.16-.16-2.21.86s-.08,1.87-.11,2.8.13,1.05,2.24.92Z"/><path class="cls-53" d="M426.79,132.63c0,1.05.09,1.1,2.17.86l.23-6.4H427C426.9,129,426.85,130.82,426.79,132.63Z"/><path class="cls-56" d="M424,127.47c0-.19-.73-.49-1.18-.52-.29,0-1,.33-1,.52-.09,2-.09,3.94-.11,5.93l2.21.11C424,131.41,424,129.45,424,127.47Z"/><path class="cls-53" d="M429.67,120.15c0-.56-.25-.79-1.18-.83s-1.19.32-1.19.83c0,1.66-.08,3.3-.13,4.92,0,1.08.08,1.14,2.26.93C429.5,124.09,429.54,122.14,429.67,120.15Z"/><path class="cls-53" d="M421.94,120.34c0,1.45,0,2.89,0,4.31a12.72,12.72,0,0,0,.1,1.3c.94-.12,2.09.32,2.12-.61.05-2,.08-3.92.11-6C422.1,119.18,421.94,119.26,421.94,120.34Z"/><polygon class="cls-55" points="416.68 104.25 403.88 109.8 403.21 107.29 416.68 101.48 416.68 104.25"/><polygon class="cls-54" points="416.68 104.25 434.19 106.21 434.55 103.12 416.68 101.48 416.68 104.25"/><path class="cls-59" d="M440.92,179.67c-.38,0-11.44.6-11.84.61a4.43,4.43,0,0,1-.11-.51c-.2-2.52-.39-5.08-.6-7.69q-.69-8.37-1.44-17.42c-.53-6.68-1.05-13.66-1.63-20.95a4.58,4.58,0,0,0-.32-1.66c-.35-.73,0-1,.8-1.27,3.71-1.25,9.32-1.77,13-3Z"/><path class="cls-55" d="M438.76,127.77c.39,9.83.74,19,1.09,27.59q.5,12.31,1,23.33c2,.15,18.16-1.07,19.29-1.44.39-13.52.81-28.41,1.28-44.85Z"/><path class="cls-60" d="M428.23,154.23a2.42,2.42,0,0,0,.45.06c3-.61,6-1.22,8.91-1.8.84-.17.93-.57.91-1.11q-.33-7.41-.65-15.31a7.12,7.12,0,0,0-.21-1l-10.83,2.7C427.36,143.57,427.55,149,428.23,154.23Z"/><path class="cls-61" d="M428.87,153.51c-.36-2.9-.57-5.85-.79-9-.15-2-.29-4.08-.49-6.19l9.52-2.37s0,.08,0,.11c.09,2.15.18,4.26.27,6.35.13,3,.25,6,.38,9a.73.73,0,0,1,0,.27h0a1.12,1.12,0,0,1-.31.09l-5.59,1.13Z"/><path class="cls-62" d="M447.78,133.46c1.84.37,3.43.65,5,1a1.73,1.73,0,0,1,.58,2.41,1.19,1.19,0,0,1-.88.15c-1.18-.2-2.38-.44-3.62-.71-1.07-.23-1.24-.44-1.22-1.49A11.92,11.92,0,0,1,447.78,133.46Z"/><path class="cls-63" d="M451.82,138.56c-.6-.09-1.2-.17-1.82-.24s-1.42-.11-2.11-.17c-.67,2.06-.45,2.41,1.44,2.62.72.07,1.43.16,2.12.21s1.25.07,1.92.1C453.74,139,453.64,138.82,451.82,138.56Z"/><path class="cls-63" d="M447.68,143.56c-.05,1.26.16,1.48,1.45,1.54,1.14.06,2.25.13,3.34.14a1.46,1.46,0,0,0,1-.29,1.4,1.4,0,0,0-.74-2.08c-.85-.1-1.73-.13-2.62-.17-.7,0-1.41-.06-2.18-.09A6.68,6.68,0,0,0,447.68,143.56Z"/><path class="cls-63" d="M457.84,156.66c.15-1.27,0-1.57-1.07-1.63s-2-.08-3.08-.05-1.11.22-1.14,1.47a10.16,10.16,0,0,0,.12,1.19l4.9.1A7.41,7.41,0,0,0,457.84,156.66Z"/><path class="cls-25" d="M456.24,153c1.86.08,2-.15,1.93-2.55a.92.92,0,0,0-.1-.32,8.08,8.08,0,0,0-5.19,0l0,2.63C454.08,152.89,455.16,153,456.24,153Z"/><path class="cls-63" d="M457.1,167.08l.1-2.23a22.29,22.29,0,0,0-4.68-.14v2.22A17.84,17.84,0,0,0,457.1,167.08Z"/><path class="cls-63" d="M452.57,159.85v2.2a10.34,10.34,0,0,0,4.81.19l.1-2.18A43.33,43.33,0,0,0,452.57,159.85Z"/><path class="cls-63" d="M443.88,150c-.42,0-.56.42-.54,1s.26,1,.73,1q2.19.25,4.38.45a3.34,3.34,0,0,0,.9-.18l0-2.44A23.85,23.85,0,0,0,443.88,150Z"/><path class="cls-25" d="M449.44,159.74c-2,0-3.84,0-5.7.07l.11,1.73,5.52.52Z"/><path class="cls-63" d="M449,164.66c-1.48,0-3,.05-4.42.1-.35,0-.56.25-.54.7s.27.78.67.82c1.46.15,2.92.28,4.39.39.09,0,.19-.12.32-.21,0-.25,0-.52,0-.79s-.06-.54-.09-.81C449.18,164.78,449.07,164.66,449,164.66Z"/><path class="cls-63" d="M444.48,157c1.32.18,2.66.29,4,.4a3.8,3.8,0,0,0,.91-.12l0-2.19-5.63.16C443.58,156.71,443.63,156.86,444.48,157Z"/><path class="cls-63" d="M434.79,159.54a1.17,1.17,0,0,0,.47-.91,16.41,16.41,0,0,0-.17-2.2,21.07,21.07,0,0,0-3.49,1.29c-.16.07-.29.54-.3.87a18.47,18.47,0,0,0,.15,1.9C432.65,160.16,433.72,159.91,434.79,159.54Z"/><path class="cls-63" d="M432.74,171.74c-.29,0-.44.32-.39.84s.13,1,.21,1.68A10,10,0,0,0,436,174c.19,0,.35-.46.37-.8a15.08,15.08,0,0,0-.16-2C434.89,171.38,433.8,171.55,432.74,171.74Z"/><path class="cls-62" d="M435.29,164c.38-.14.44-1.2.21-2s-.62-.61-.95-.52c-.71.2-1.41.4-2.09.62-1,.33-1.07.6-.64,2.76A14.73,14.73,0,0,0,435.29,164Z"/><path class="cls-63" d="M435.62,168.84c.17,0,.35-.4.35-.69,0-.57-.12-1.19-.21-2.05-1.29.28-2.42.5-3.49.79-.17.05-.31.48-.33.8a14.71,14.71,0,0,0,.15,1.76C433.34,169.25,434.47,169.08,435.62,168.84Z"/><path class="cls-64" d="M467.54,175.65a7.14,7.14,0,0,1-4.68-1.47,3.34,3.34,0,0,1-1.33-2.43,3,3,0,0,1,.56-1.92,8.28,8.28,0,0,1,.74-.83c.11-.12.18-.22,0-.34a2.66,2.66,0,0,1-1-2.56,3.77,3.77,0,0,1,1.41-2.67.5.5,0,0,0,.07-.73,2.48,2.48,0,0,1-.36-2.08,3.83,3.83,0,0,1,1.58-2.42.83.83,0,0,0,.4-.8,2.2,2.2,0,0,1,.57-1.72,1.35,1.35,0,0,0,.16-.41c.25-.7.47-1.41.74-2.1a2.36,2.36,0,0,1,.49-.72.76.76,0,0,1,1.35.15,9.66,9.66,0,0,1,.58,1.53,3.55,3.55,0,0,1,.12.65,2,2,0,0,0,.28.81,3.47,3.47,0,0,1,.56,2.09.38.38,0,0,0,.13.32,2.64,2.64,0,0,1,1.43,2.11,4,4,0,0,1-.55,2.84.43.43,0,0,0,.14.66,3.56,3.56,0,0,1,1.23,4.37c-.12.33-.25.66-.39,1a.38.38,0,0,0,.09.46,3.22,3.22,0,0,1,1,2.1,2.89,2.89,0,0,1-.68,2.07,5.46,5.46,0,0,1-3.38,1.9A11.07,11.07,0,0,1,467.54,175.65Z"/><path class="cls-65" d="M505.59,154.63a2.26,2.26,0,0,1,1.65.93,8.49,8.49,0,0,1,1.5,2.91c.28.85.46,1.73.73,2.58.14.45.4.87.58,1.32a5.85,5.85,0,0,1-1.09,6.24,4.25,4.25,0,0,1-6.09.09,5.53,5.53,0,0,1-1.45-2.29l-.09-.2-.25-1.38s0-.09,0-.13a6.34,6.34,0,0,1,.56-2.88,4.2,4.2,0,0,0,.27-.85,19.67,19.67,0,0,1,1.06-3.61,4.62,4.62,0,0,1,2.11-2.64Z"/><path class="cls-66" d="M499.18,138.1a141.46,141.46,0,0,0,9.24,10.84,8.52,8.52,0,0,0-1.67,1.52l-.83-1a60.68,60.68,0,0,1-7.16-10.38l-.11-.1C498.82,138.72,499,138.41,499.18,138.1Z"/><path class="cls-67" d="M478.17,173.72l.09.08c.12,1.46.28,3.2.39,4.56l-2.57-.71c-.12-1.35-.25-2.75-.37-4.18a1.65,1.65,0,0,1,1.09-.32A2.36,2.36,0,0,1,478.17,173.72Z"/><path class="cls-59" d="M499,177.28h0l-3.59.57q.25-4.09.94-8.64a3,3,0,0,1,2.13-.78,2.77,2.77,0,0,1,1.19.31h0A48.62,48.62,0,0,0,499,177.28Z"/><path class="cls-68" d="M479.58,159.56a44,44,0,0,0,6-.95l6.15,4.81,1.2.94-.07,0c-2.73.83-9.54,2.4-10.16,2.82a32.62,32.62,0,0,0-6.16-7.42h0C477.57,159.73,478.58,159.66,479.58,159.56Z"/><path class="cls-69" d="M499.18,138.1c-.18.31-.36.62-.53.93-2.46,4.35-4.62,8.44-6.7,12.28h0l-.69,1.27-12.39-1.94-1.75-.27c2.45-3.85,5-8,7.69-12.57C489.77,137.88,494.12,137.77,499.18,138.1Z"/><path class="cls-59" d="M482.67,167.2c.54,4.67.75,8.73,1.34,12.69l-5.36-1.53c-.11-1.36-.27-3.1-.39-4.56l-.09-.08a2.36,2.36,0,0,0-1.37-.57,1.65,1.65,0,0,0-1.09.32c.12,1.43.25,2.83.37,4.18-1.69-.46-3.12-.84-3.62-.92-.78-4.13-1.39-8.07-2.11-12.91,2-1.34,4-2.6,6.16-4A32.62,32.62,0,0,1,482.67,167.2Z"/><path class="cls-59" d="M491.26,152.58l.69-1.27c-.27,4.19-.35,8.45-.24,12.1h0l-6.15-4.81a44,44,0,0,1-6,.95q-.43-4.25-.71-8.92Z"/><path class="cls-70" d="M484,179.89c-.59-4-.8-8-1.34-12.69.62-.42,7.43-2,10.16-2.82l.07,0-1.2-.94h0c-.11-3.65,0-7.91.24-12.1h0c2.08-3.84,4.24-7.93,6.7-12.28l.11.1a60.68,60.68,0,0,0,7.16,10.38c-.59,5.37-3,22.75-3.27,27.06-.64.18-2,.43-3.68.71h0a48.62,48.62,0,0,1,.68-8.54h0a2.77,2.77,0,0,0-1.19-.31,3,3,0,0,0-2.13.78q-.69,4.54-.94,8.64C491,178.54,486,179.3,484,179.89Z"/><path class="cls-53" d="M502.28,149.78c0-.11-.64-.26-1.06-.29-.67-.07-1.16,0-1.17.33,0,.64-.13,1.28-.17,1.91s-.05,1.09-.07,1.65l2.32.07C502.2,152.2,502.29,151,502.28,149.78Z"/><path class="cls-71" d="M497.47,149.94c0-.27-.05-.47-1.09-.48s-1.2.21-1.21.51c0,.9-.11,1.8-.15,2.68,0,.68,0,.68,2.35.6C497.4,152.15,497.42,151.05,497.47,149.94Z"/><path class="cls-53" d="M497.49,154.93c0-.1-.65-.25-1.06-.29-.67-.06-1.16,0-1.17.33,0,.64-.13,1.28-.17,1.91s0,1.09-.08,1.65l2.32.08C497.4,157.35,497.5,156.15,497.49,154.93Z"/><path class="cls-56" d="M502.27,155.18c0-.28,0-.47-1.09-.48s-1.2.21-1.21.51c0,.9-.11,1.79-.15,2.68,0,.68,0,.68,2.35.6C502.2,157.39,502.22,156.29,502.27,155.18Z"/><path class="cls-53" d="M497.49,159.77c0-.1-.64-.25-1.06-.29-.67-.06-1.16,0-1.17.33,0,.64-.12,1.28-.17,1.91s0,1.09-.07,1.65l2.32.08C497.41,162.19,497.5,161,497.49,159.77Z"/><path class="cls-53" d="M476.12,166.36c0-.13-.92-.34-1.47-.39-.82-.08-1.34,0-1.28.37.11.68.15,1.28.23,1.81s.14,1.31.2,1.68c.68.17,1.21-.18,2.16.06C476,168.93,476.13,167.81,476.12,166.36Z"/><path class="cls-56" d="M479.86,170.23c.07-1,.18-2.09.17-3.53,0-.14-.92-.35-1.47-.4-.83-.08-1.34,0-1.29.38.12.68.15,1.27.23,1.81s.14,1.31.21,1.68Z"/><path class="cls-53" d="M502.28,160c0-.28,0-.47-1.1-.48s-1.2.21-1.21.5c0,.91-.1,1.8-.15,2.69,0,.68,0,.68,2.36.6C502.21,162.23,502.23,161.13,502.28,160Z"/><path class="cls-72" d="M400.53,154.63a2.26,2.26,0,0,1,1.65.93,8.49,8.49,0,0,1,1.5,2.91c.27.85.45,1.73.72,2.58.15.45.4.87.59,1.32a5.87,5.87,0,0,1-1.1,6.24,4.25,4.25,0,0,1-6.09.09,5.74,5.74,0,0,1-1.45-2.29,1.76,1.76,0,0,0-.09-.2l-.25-1.38a.59.59,0,0,0,0-.13,6.47,6.47,0,0,1,.56-2.88,5,5,0,0,0,.28-.85,18.92,18.92,0,0,1,1.06-3.61,4.56,4.56,0,0,1,2.1-2.64Z"/><path class="cls-73" d="M394.22,159a2.25,2.25,0,0,1,1.65.94,8.44,8.44,0,0,1,1.5,2.9c.27.85.45,1.73.72,2.58.15.46.4.87.59,1.32a5.87,5.87,0,0,1-1.1,6.24,4.26,4.26,0,0,1-6.09.1A5.77,5.77,0,0,1,390,170.8l-.09-.21-.25-1.37a.68.68,0,0,0,0-.14,6.36,6.36,0,0,1,.56-2.88,4.32,4.32,0,0,0,.27-.84,19.7,19.7,0,0,1,1.07-3.61,4.58,4.58,0,0,1,2.1-2.65Z"/><path class="cls-74" d="M457.24,182.65a4.94,4.94,0,0,1-4.67-2.73,4,4,0,0,1,.78-4.5,3.13,3.13,0,0,0,.53-.67.9.9,0,0,0-.08-.92,3.63,3.63,0,0,1,2.67-5.58A3.52,3.52,0,0,1,460,170a3.46,3.46,0,0,1-.06,3.95,1.79,1.79,0,0,0-.21,1.1.56.56,0,0,0,.18.26,4.48,4.48,0,0,1,1.52,2.63,3.91,3.91,0,0,1-2.18,4.2A4.57,4.57,0,0,1,457.24,182.65Z"/><path class="cls-75" d="M433.91,184.89c.37.11,9.3.33,9.57.35a24.1,24.1,0,0,0,8.24-.76,18.73,18.73,0,0,0,2.13-.64,1.79,1.79,0,0,0,.73-2.89,3.36,3.36,0,0,0-1.56-1.1,4.13,4.13,0,0,0-3.32.08l.12.12c.31-.38.62-.75.92-1.13a2.13,2.13,0,0,0-.25-3.12,5.09,5.09,0,0,0-1.45-.87,9.88,9.88,0,0,0-5.57-.32,7.41,7.41,0,0,0-4.74,2.59.1.1,0,0,1-.09,0,2,2,0,0,0-1.94-.44,5.38,5.38,0,0,0-2.12,1.75s-2.66,3.19-2.14,5.72C432.59,184.84,433.91,184.89,433.91,184.89Z"/><path class="cls-67" d="M504.55,187.65c-.1.85-.51,1.56-.92,1.58s-.69-.65-.6-1.52.52-1.59.94-1.6S504.64,186.79,504.55,187.65Z"/><path class="cls-58" d="M489.86,184.2l-.81,1a2.08,2.08,0,0,1-1.86.66c-.55-.07-1.11-.17-1.46-.23a3.08,3.08,0,0,1-.71-.2,1.59,1.59,0,0,1-.49-.39l-.94-1C484.82,184.1,488.76,184.18,489.86,184.2Z"/><path class="cls-76" d="M481.22,188.22a2.35,2.35,0,0,1-1.85,1.56,4.13,4.13,0,0,1-2.85-.32,2.62,2.62,0,0,1-1.39-1.84l6.09.6Z"/><path class="cls-28" d="M503,184.17l-3.45-.07.16-2.85a14.45,14.45,0,0,1,1.49.16,2,2,0,0,1,.72.22,2,2,0,0,1,.55.68A2.76,2.76,0,0,1,503,184.17Z"/><path class="cls-67" d="M493.54,187.84c0,1.1-.57,2.06-1.34,2.16s-1.46-.73-1.5-1.87.59-2.14,1.39-2.2S493.52,186.73,493.54,187.84Z"/><path class="cls-58" d="M499,185a1.51,1.51,0,0,1-.05.47,8,8,0,0,0-1.53.13c0-.16,0-.31.05-.48A7.23,7.23,0,0,1,499,185Z"/><path class="cls-28" d="M498.74,181.18l-.3,2.87-5.56-.17a6.64,6.64,0,0,1,2.53-2.35,6.22,6.22,0,0,1,2.33-.37C498.08,181.16,498.41,181.16,498.74,181.18Z"/><path class="cls-58" d="M479,183.29l-1.41.82a2.89,2.89,0,0,1-.71.32,4.63,4.63,0,0,1-.92.09,14.35,14.35,0,0,1-2.45-.05l.24-.4a3.37,3.37,0,0,1,1.35-1.46Z"/><path class="cls-77" d="M475.13,187.62l-2.16-.21a3.46,3.46,0,0,1,.54-2.94,14.35,14.35,0,0,0,2.45.05,4.63,4.63,0,0,0,.92-.09,2.89,2.89,0,0,0,.71-.32l1.41-.82-3.9-.68a8.85,8.85,0,0,1,1.39-.65c.43-.17.86-.33,1.3-.47v0c4.77.73,9.2,1.42,13.14,1.93a8.2,8.2,0,0,1,3-2.6,2.7,2.7,0,0,1,.83-.32v0c-2.63-.43-5.46-.8-8.49-1.09l1.11-.37a26,26,0,0,1,7,0,50.76,50.76,0,0,1,5.93,1.23,7.79,7.79,0,0,1,2.79,1.12,13.87,13.87,0,0,0,2.39,3.39,4.19,4.19,0,0,1,.25,2.17,3.05,3.05,0,0,1-.41,1.29l-.34,0a2.9,2.9,0,0,0,0-.43c.11-1.39-.32-2.5-1-2.48s-1.3,1.23-1.4,2.67a3.92,3.92,0,0,0,0,.48l-1.19.07-7.3.38a4.48,4.48,0,0,0,.11-.85c.07-1.87-.87-3.37-2.13-3.34s-2.28,1.7-2.31,3.67c0,.22-.15.43-.13.62h0l-1.09-.11-7.39-.72Zm27.59-2.24a1.32,1.32,0,0,0,0-.44,6,6,0,0,0-1.39.11c0,.16,0,.3-.05.46A7.34,7.34,0,0,1,502.72,185.38Zm-3.18-1.28,3.45.07a2.76,2.76,0,0,0-.53-1.86,2,2,0,0,0-.55-.68,2,2,0,0,0-.72-.22,14.45,14.45,0,0,0-1.49-.16Zm-.59,1.34A1.51,1.51,0,0,0,499,185a7.23,7.23,0,0,0-1.53.12c0,.17,0,.32-.05.48A8,8,0,0,1,499,185.44Zm-.51-1.39.3-2.87c-.33,0-.66,0-1,0a6.22,6.22,0,0,0-2.33.37,6.64,6.64,0,0,0-2.53,2.35Zm-9.39,1.16.81-1c-1.1,0-5-.1-6.27-.11l.94,1a1.59,1.59,0,0,0,.49.39,3.08,3.08,0,0,0,.71.2c.35.06.91.16,1.46.23A2.08,2.08,0,0,0,489.05,185.21Z"/><path class="cls-28" d="M486.28,179.42c3,.29,5.86.66,8.49,1.09v0a2.7,2.7,0,0,0-.83.32,8.2,8.2,0,0,0-3,2.6c-3.94-.51-8.37-1.2-13.14-1.93v0a9.26,9.26,0,0,1,4.57-.42A21.9,21.9,0,0,1,486.28,179.42Z"/><path class="cls-58" d="M502.77,184.94a1.32,1.32,0,0,1,0,.44,7.34,7.34,0,0,0-1.39.13c0-.16,0-.3.05-.46A6,6,0,0,1,502.77,184.94Z"/><path class="cls-76" d="M504.55,187.65c.09-.86-.16-1.55-.58-1.54s-.84.73-.94,1.6.18,1.55.6,1.52S504.45,188.5,504.55,187.65Zm-.49-2.31c.65,0,1.08,1.09,1,2.48a2.9,2.9,0,0,1,0,.43,2.2,2.2,0,0,1-1.9,2c-.88.1-1.56-.52-1.64-1.67h0l1.19-.07a3.92,3.92,0,0,1,0-.48C502.76,186.57,503.39,185.37,504.06,185.34Z"/><path class="cls-76" d="M489.7,189c0-.19.12-.4.13-.62,0-2,1-3.63,2.31-3.67s2.2,1.47,2.13,3.34a4.48,4.48,0,0,1-.11.85,3.13,3.13,0,0,1-2.68,2.39,2.64,2.64,0,0,1-2.87-2.39l1.09.11Zm2.5,1c.77-.1,1.36-1.06,1.34-2.16s-.67-2-1.45-1.91-1.43,1-1.39,2.2S491.42,190.1,492.2,190Z"/><path class="cls-78" d="M401.66,184.55h-1c-.34,0-.39-.06-.32-.39.21-1,.43-2,.64-3l0-.13c0-.09,0-.15-.1-.15h-.11c-.33,0-.35-.06-.33-.39s0-.23.26-.26c.6-.08.49-.05.49-.53.05-2.41.08-4.81.12-7.22,0-.27,0-.53,0-.79s0-.26-.17-.32a.53.53,0,0,1-.24-.18.43.43,0,0,1-.1-.29.72.72,0,0,0-.06-.39c-.26-.74-.52-1.48-.77-2.23,0-.14-.09-.26-.26-.31s-.17-.15,0-.27c.39-.26.78-.53,1.18-.78a.23.23,0,0,0,.11-.31.58.58,0,0,1,.21-.66.57.57,0,0,1,.66,0,.56.56,0,0,1,.27.63c-.07.22,0,.3.16.39l1,.7c.22.15.23.23,0,.44a.44.44,0,0,0-.1.19l-.75,2.2a.91.91,0,0,0-.11.52c0,.08-.06.2-.14.27a.4.4,0,0,0-.13.31c0,2.7,0,5.4,0,8.09,0,.11,0,.21,0,.31s.06.17.18.16l.33,0c.16,0,.21.07.2.23a2.78,2.78,0,0,1-.08.49c0,.07-.09.17-.15.18s-.14.12-.13.22c.05.41.09.82.14,1.22.08.6.17,1.19.25,1.79,0,.2,0,.27-.26.28Z"/><path class="cls-58" d="M401.77,168.05H400.3c-.14,0-.17,0-.12.17.28.72.55,1.45.81,2.17a.21.21,0,0,0,.22.16h.9a.22.22,0,0,0,.24-.17c.24-.7.48-1.4.73-2.09,0-.13,0-.18-.13-.18Z"/><path class="cls-78" d="M415.4,178.64c-.34,0-.67,0-1,0s-.39-.06-.32-.39c.21-1,.43-2,.64-3l0-.14c0-.08,0-.14-.1-.15h-.1c-.34,0-.35-.05-.33-.39s0-.23.26-.26c.59-.08.48,0,.49-.52l.12-7.23c0-.26,0-.53,0-.79s0-.26-.17-.32a.46.46,0,0,1-.23-.18.42.42,0,0,1-.11-.29.58.58,0,0,0-.06-.39l-.76-2.22a.44.44,0,0,0-.26-.32c-.18-.05-.18-.15,0-.26.39-.27.79-.53,1.19-.79a.22.22,0,0,0,.11-.31.54.54,0,0,1,.2-.65.6.6,0,0,1,.94.61c-.08.21,0,.29.16.39.35.22.69.46,1,.69s.24.24.05.45a.44.44,0,0,0-.1.19c-.26.73-.51,1.46-.76,2.19a.92.92,0,0,0-.1.52c0,.08-.07.21-.14.28a.36.36,0,0,0-.14.3l0,8.1c0,.1,0,.2,0,.3s.06.18.19.17a1.22,1.22,0,0,1,.33,0c.15,0,.21.07.19.23a2.65,2.65,0,0,1-.07.48c0,.08-.09.18-.16.19s-.14.11-.13.21c.05.41.09.82.15,1.23.08.59.17,1.19.25,1.78,0,.21,0,.28-.26.28s-.71,0-1.07,0Z"/><path class="cls-58" d="M415.52,162.14h-1.47c-.14,0-.18,0-.12.18l.81,2.17a.19.19,0,0,0,.22.15h.9a.24.24,0,0,0,.24-.18c.23-.7.48-1.39.72-2.09.05-.13,0-.17-.12-.18Z"/><path class="cls-78" d="M508.27,178h-1c-.35,0-.39-.06-.32-.39.21-1,.43-2,.64-3,0,0,0-.08,0-.13a.11.11,0,0,0-.1-.15h-.11c-.34,0-.35,0-.33-.39s0-.23.26-.26c.59-.08.48-.05.49-.53.05-2.4.08-4.81.12-7.22,0-.26,0-.53,0-.79s0-.26-.17-.32a.46.46,0,0,1-.23-.18.44.44,0,0,1-.11-.29.57.57,0,0,0-.06-.39l-.76-2.22c0-.14-.09-.26-.26-.32s-.18-.15,0-.26c.4-.27.79-.54,1.19-.79a.22.22,0,0,0,.11-.31.56.56,0,0,1,.2-.65.59.59,0,0,1,.67,0,.58.58,0,0,1,.27.64c-.08.21,0,.29.16.38l1,.7c.23.15.24.24.05.45a.46.46,0,0,0-.1.18c-.25.73-.51,1.47-.75,2.2a.92.92,0,0,0-.11.52c0,.08-.07.2-.14.27a.41.41,0,0,0-.14.31l0,8.1c0,.1,0,.2,0,.3s.05.18.18.16l.33,0c.15,0,.21.08.2.23a3.85,3.85,0,0,1-.08.49.31.31,0,0,1-.16.19c-.15,0-.14.11-.12.21,0,.41.09.82.14,1.22.08.6.17,1.2.25,1.79,0,.2,0,.28-.26.28Z"/><path class="cls-58" d="M508.39,161.54h-1.47c-.14,0-.18,0-.12.17l.81,2.18a.19.19,0,0,0,.22.15h.9a.23.23,0,0,0,.24-.17l.72-2.09c.05-.13,0-.18-.12-.18Z"/><path class="cls-79" d="M423.18,180.25c-.05-.37-.8-.31-.8-.31a.09.09,0,0,1,0-.09.86.86,0,0,1,.07-.21c1.12-1.19-.31-2.23-1.08-2.26a3.22,3.22,0,0,0-1.26.35c-.61.42-.91-1.93-.89-2,.18-.64-.46-.52-.46-.52s-.27,0-.4.06a.17.17,0,0,0-.16.15.35.35,0,0,0,.11.33.59.59,0,0,1,.14.22c.2.8.4,1.58.56,2.35a10.2,10.2,0,0,1,.24,2,8.85,8.85,0,0,1-.32,2.42c-.08.28-.12.21.19.33a.62.62,0,0,0,.56-.11c.1-.06.1-.15,0-.19a.09.09,0,0,1,0-.07c0-.24.07-.48.11-.72a2.55,2.55,0,0,1,.46-1.22.36.36,0,0,1,.27-.17,2,2,0,0,1,.35,0,.87.87,0,0,1,.59.28,2.55,2.55,0,0,1,.62.9,4.29,4.29,0,0,1,.22,1.89c0,.09-.05.19-.07.29a.09.09,0,0,0,0,.09,1.05,1.05,0,0,0,.21.06.59.59,0,0,0,.53-.16c.06-.06.07-.14,0-.17a.13.13,0,0,1-.05-.09c.14-2.17-.77-3-.77-3h.11S423.22,180.63,423.18,180.25ZM421,180a1,1,0,0,1-1.18-.89A1.25,1.25,0,0,1,421,178a1,1,0,0,1,1.11.91A1.25,1.25,0,0,1,421,180Z"/><path class="cls-79" d="M406.34,181.36,418.71,180l4,.33s.11.14.11.2-.21.21-.21.21L409,182.26Z"/><path class="cls-79" d="M405.06,176.3a15.35,15.35,0,0,1,.84,3.31c0,.77,0,1.26,0,1.26l13.3-1.28s-.17-3.53-.89-4.29Z"/><path class="cls-79" d="M409.77,182.11c-.06-.46-.9-.5-.9-.5a.11.11,0,0,1-.05-.11,1.82,1.82,0,0,1,.07-.25c1.26-1.3-.39-2.64-1.21-2.74a2.8,2.8,0,0,0-1.26.32c-.59.42-.88-2.12-.86-2.23.17-.68-.43-.54-.43-.54l-.35.05a.19.19,0,0,0-.15.16.45.45,0,0,0,.1.35.71.71,0,0,1,.13.22c.18.84.36,1.68.52,2.52a13.33,13.33,0,0,1,.23,2.18,10.31,10.31,0,0,1-.29,2.65c-.08.31-.11.21.18.41a.48.48,0,0,0,.54,0,.12.12,0,0,0,0-.22s-.06-.06-.05-.09c0-.28.06-.55.09-.82a3,3,0,0,1,.45-1.31.29.29,0,0,1,.27-.15,2,2,0,0,1,.35,0,1.11,1.11,0,0,1,.63.43,4,4,0,0,1,.69,1.19,6.31,6.31,0,0,1,.29,2.36c0,.12-.06.24-.07.35a.13.13,0,0,0,0,.12l.24.14a.58.58,0,0,0,.61,0,.16.16,0,0,0,0-.22.15.15,0,0,1-.07-.12,5.49,5.49,0,0,0-.95-3.84l.12,0S409.83,182.58,409.77,182.11Zm-2.44-.58a1.16,1.16,0,1,1,1.19-1.16A1.18,1.18,0,0,1,407.33,181.53Z"/><path class="cls-35" d="M403.32,334.3c.89-2.35,2.76-3.4,4.65-4.87-.57.92-1.15,1.84-1.75,2.76-1.15,1.78-2.48,3.62-4.34,4.5A5.74,5.74,0,0,0,403.32,334.3Z"/><path class="cls-28" d="M401.88,336.69a4.28,4.28,0,0,1-4.44,1.11,6.14,6.14,0,0,1-3.73-5.53A16,16,0,0,1,394,330a14.78,14.78,0,0,0,.11-1.74l.24.17h0c1.81,1.32,6.19,3.84,9,5.92A5.74,5.74,0,0,1,401.88,336.69Z"/><path class="cls-28" d="M403.32,334.3c-2.84-2.08-7.22-4.6-9-5.92h0a1.83,1.83,0,0,0,.59-1.1,19.79,19.79,0,0,0,.36-6.6,5.27,5.27,0,0,1-.87-1.2,34.9,34.9,0,0,1,4.19-6.33c2.06-2.69,4.43-5.43,6.73-7.93a1.6,1.6,0,0,1,.69-.86,1,1,0,0,1,1.34.15,1.21,1.21,0,0,1,.19.56c.12.62.24,1.23.35,1.85l.93,4.91a42.15,42.15,0,0,1,.45,15.5c-.42.7-.84,1.4-1.28,2.1h0C406.08,330.9,404.21,332,403.32,334.3Z"/><path class="cls-35" d="M412,303.16c3.08,1.26,4.7,3.86,6.52,6a151.45,151.45,0,0,1-9.26,18.12,42.15,42.15,0,0,0-.45-15.5l-.93-4.91C409.45,304.94,410.8,305.1,412,303.16Z"/><path class="cls-80" d="M433.5,240.48c-8.58,20.22-18,40.87-22.9,62.27,5.35,1.3,6.78,6.23,10.15,8.74,15.16-22.66,29.47-48.88,44.92-69.79,4-5.47,7.95-11.18,10-17.67a65.94,65.94,0,0,0,2.82-23.33,48.3,48.3,0,0,0-5.31-8.4,9.33,9.33,0,0,0-7-3.13c-5.85.64-7.68,4.48-13.42,6.83-9.12,15.27-15.6,27.44-19.24,44.86"/><path class="cls-81" d="M402.28,329.55a19,19,0,0,0-7.33-2.61l-.06.34a1.83,1.83,0,0,1-.59,1.1l-.24-.17A14.78,14.78,0,0,1,394,330a16,16,0,0,0-.24,2.32,6.14,6.14,0,0,0,3.73,5.53,4.28,4.28,0,0,0,4.44-1.11,5.74,5.74,0,0,0,1.44-2.39,6.77,6.77,0,0,1,1.78-2.59A18.49,18.49,0,0,0,402.28,329.55Z"/><path class="cls-82" d="M409.76,320.4a54.31,54.31,0,0,0-1-8.57l-.93-4.91c-.11-.62-.23-1.23-.35-1.85a1.21,1.21,0,0,0-.19-.56,1,1,0,0,0-1.34-.15,1.6,1.6,0,0,0-.69.86c-2.3,2.5-4.67,5.24-6.73,7.93a36,36,0,0,0-4.13,6.2,27.32,27.32,0,0,0,2.62.95A22.32,22.32,0,0,0,409.76,320.4Z"/><path class="cls-83" d="M429.69,280.62c-3.68-4.82-5.48-10.68-6.09-16.75-5.2,12.72-10,25.66-13,38.88,5.35,1.3,6.78,6.23,10.15,8.74,5.36-8,10.62-16.49,15.87-25A22,22,0,0,1,429.69,280.62Z"/><path class="cls-84" d="M456.65,208a22.19,22.19,0,0,1-5.48-9.3c-8.27,14-14.19,25.77-17.61,42.13l-.06-.38c-3.28,7.73-6.68,15.51-9.9,23.39.61,6.07,2.41,11.93,6.09,16.75a22,22,0,0,0,6.93,5.87c9.56-15.55,19.07-31.28,29.05-44.79,4-5.47,7.95-11.18,10-17.67A58.75,58.75,0,0,0,478,213.76l-.53.15A22.57,22.57,0,0,1,456.65,208Z"/><path class="cls-85" d="M478.5,200.7a48.3,48.3,0,0,0-5.31-8.4,9.33,9.33,0,0,0-7-3.13c-5.85.64-7.68,4.48-13.42,6.83-.56.92-1.1,1.83-1.63,2.73a22.19,22.19,0,0,0,5.48,9.3,22.57,22.57,0,0,0,20.78,5.88l.53-.15A73.38,73.38,0,0,0,478.5,200.7Z"/><path class="cls-28" d="M510.55,371.78a4.71,4.71,0,0,1,1,5,9.38,9.38,0,0,1-2.05,2.91,73.3,73.3,0,0,1-10.78,9.43,4.35,4.35,0,0,1-1.81.9,1.76,1.76,0,0,1-1.84-.72c0-.36,0-.71,0-1.07.07-3.89.24-7.75.69-11.63a3.53,3.53,0,0,1,3.89-3.88c2.87-.32,5.69-.64,8.54-.82C509,371.84,509.76,371.81,510.55,371.78Z"/><path class="cls-35" d="M498.14,367.13a80.45,80.45,0,0,0,10.06,4.77c-2.85.18-5.67.5-8.54.82a3.53,3.53,0,0,0-3.89,3.88c-.45,3.88-.62,7.74-.69,11.63h0c-4.34-7.1-8.79-13.91-11.41-21.82a14.82,14.82,0,0,0,2.58-.34,10.27,10.27,0,0,0,2.41-1,16.86,16.86,0,0,0,3.7-2.26C493.72,364.7,496.11,365.9,498.14,367.13Z"/><path class="cls-80" d="M435.49,205.19a174.4,174.4,0,0,0,11,87.81c2.05,5.11,4.35,10.11,6.64,15.12,8.38,18.26,18.76,40.52,27.14,58.78,2-.57,4-.32,5.94-.8a10.48,10.48,0,0,0,2.41-1c1.52-.81,3.87-1.83,4.51-3.42-10.51-22.22-10.12-49.32-11.49-73.86-.57-10.27-.83-20.71-3.85-30.54-3.13-10.18-9.07-19.24-13.13-29.08A83.69,83.69,0,0,1,459.05,207c-.28-2.22-.55-4.62-2.1-6.23-2.34-2.43-6.3-1.88-9.6-1.15C442.57,200.68,438.75,201.52,435.49,205.19Z"/><path class="cls-86" d="M495.89,365.79a11.81,11.81,0,0,0-3.33,1.13,12.38,12.38,0,0,0-5.71,7.12c2.41,4.87,5.33,9.47,8.21,14.19h0c.07-3.89.24-7.75.69-11.63a3.53,3.53,0,0,1,3.89-3.88c2.87-.32,5.69-.64,8.54-.82a80.45,80.45,0,0,1-10.06-4.77C497.42,366.69,496.65,366.26,495.89,365.79Z"/><path class="cls-87" d="M435.49,205.19a174.4,174.4,0,0,0,11,87.81c2.05,5.11,4.35,10.11,6.64,15.12,8.38,18.26,18.76,40.52,27.14,58.78,2-.57,4-.32,5.94-.8a10.48,10.48,0,0,0,2.41-1c1.52-.81,3.87-1.83,4.51-3.42-10.51-22.22-10.12-49.32-11.49-73.86-.57-10.27-.83-20.71-3.85-30.54-3.13-10.18-9.07-19.24-13.13-29.08A83.69,83.69,0,0,1,459.05,207c-.28-2.22-.55-4.62-2.1-6.23-2.34-2.43-6.3-1.88-9.6-1.15C442.57,200.68,438.75,201.52,435.49,205.19Z"/><path class="cls-88" d="M458.44,267.09c-2.46,14.54,1.75,29.7,9.62,42.17a91.36,91.36,0,0,0,16.21,18.89c-1.66-13.43-1.89-27.26-2.62-40.36-.57-10.27-.83-20.71-3.85-30.54a97.63,97.63,0,0,0-6.41-15.05A45.74,45.74,0,0,0,458.44,267.09Z"/><path class="cls-85" d="M449,223.13a22.93,22.93,0,0,0,12.06-5.6A86,86,0,0,1,459.05,207c-.28-2.22-.55-4.62-2.1-6.23-2.34-2.43-6.3-1.88-9.6-1.15-4.78,1.07-8.6,1.91-11.86,5.58-.65,4.86-1.07,9.74-1.3,14.64A23.23,23.23,0,0,0,449,223.13Z"/><path class="cls-18" d="M534.44,149.19a11.13,11.13,0,0,1,1.7,5c.31,3.31-.61,6.63-1.65,9.81-2.52,7.65-4.12,15.52-8.14,22.54a1.57,1.57,0,0,0-.68-.23c-3.71-.65-6.27-2.69-10-2.36.3-6-.67-12.62-.88-18.66a34.9,34.9,0,0,1,1.92-14Z"/><path class="cls-25" d="M528.84,199.66c-1,3.82-4.09,7-6.56,10.12a15.35,15.35,0,0,1-3.11-.34,2.69,2.69,0,0,1-1,1.14,21.41,21.41,0,0,1-10.5-4.12c.71-2.94,1.71-4.73,2.2-7.71a24.8,24.8,0,0,0-.43-3.34,23.48,23.48,0,0,0-4.77,7.73L503,199.37c2.7-6.05,6.65-11.92,12.63-15.41,3.77-.33,6.33,1.71,10,2.36a1.57,1.57,0,0,1,.68.23,1.34,1.34,0,0,1,.39.62,13.78,13.78,0,0,1,.61,3.08C527.73,193.48,528.54,196.42,528.84,199.66Z"/><path class="cls-89" d="M527.6,202.33a24.84,24.84,0,0,0-5.28-2.82,23.54,23.54,0,0,0-10.49-1.6c.06.48.11,1,.14,1.44-.39,2.82-1.22,4.53-1.8,7.33a17.8,17.8,0,0,0,9.08,3.92,2.47,2.47,0,0,0,.86-1.09,11.41,11.41,0,0,0,2.67.32C524.45,207.42,526.47,205,527.6,202.33Z"/><path class="cls-18" d="M534.44,149.19a11.13,11.13,0,0,1,1.7,5c.31,3.31-.61,6.63-1.65,9.81-2.52,7.65-4.12,15.52-8.14,22.54a1.57,1.57,0,0,0-.68-.23c-3.71-.65-6.27-2.69-10-2.36.3-6-.67-12.62-.88-18.66a34.9,34.9,0,0,1,1.92-14Z"/><path class="cls-42" d="M534.44,149.19a11.13,11.13,0,0,1,1.7,5c.31,3.31-.61,6.63-1.65,9.81-2.52,7.65-4.12,15.52-8.14,22.54a1.57,1.57,0,0,0-.68-.23c-3.71-.65-6.27-2.69-10-2.36.3-6-.67-12.62-.88-18.66a34.9,34.9,0,0,1,1.92-14Z"/><path class="cls-18" d="M387.7,132.54c5.78-13.32,12.58-28.35,17.22-42.3,0,0,8.37,7.92,8.5,7.91,0,14.92.77,26.92-2.51,41.14A82.1,82.1,0,0,1,406.07,154a23.55,23.55,0,0,1-3.7,6.26c-1.61,1.84-6.11,4.82-8.61,5.24-3.05.67-7.46-1.32-8.36-4.16-1.57-5-3-10.14-2.36-15.3.5-4.13,2.24-8,3.94-11.87C387.23,133.66,387.47,133.09,387.7,132.54Z"/><path class="cls-90" d="M400.16,100.86c-3.76,10.77-7.75,21.16-12.31,31.68-.24.55-.48,1.12-.73,1.67-1.69,3.85-3.44,7.74-3.93,11.87-.61,5.16.79,10.33,2.36,15.3.9,2.84,5.3,4.83,8.35,4.16,2.5-.42,7-3.4,8.62-5.24a23.55,23.55,0,0,0,3.7-6.26,82.87,82.87,0,0,0,4.83-14.75,136.52,136.52,0,0,0,3.05-24.68A119.09,119.09,0,0,0,400.16,100.86Z"/><path class="cls-91" d="M388.13,149.37a12.86,12.86,0,0,0-5.12,1.39,49.57,49.57,0,0,0,2.39,10.62c.9,2.84,5.31,4.83,8.36,4.16,2.2-.37,5.94-2.72,7.91-4.53a12.61,12.61,0,0,0-1.26-4.45A13.34,13.34,0,0,0,388.13,149.37Z"/><path class="cls-22" d="M407.44,57.84a121.47,121.47,0,0,0-10,7.57,99.67,99.67,0,0,0-7.33,6.85q-1.36,5.58-2.32,11.2a30.06,30.06,0,0,0,5.08-2.37,29.69,29.69,0,0,0,8.32-7.18c.38-.48.75-1,1.1-1.46a29.29,29.29,0,0,0,2.46-4.28,4.48,4.48,0,0,0,1.13-.9l.42-2.5-.26.16A30.16,30.16,0,0,0,407.44,57.84Z"/><path class="cls-92" d="M414.79,58.89H419a0,0,0,0,1,0,0V83.63a2.07,2.07,0,0,1-2.07,2.07h0a2.07,2.07,0,0,1-2.07-2.07V58.89a0,0,0,0,1,0,0Z" transform="translate(46.01 -131.35) rotate(18.93)"/><path class="cls-93" d="M417.76,63.3a18,18,0,0,0,1.92.8,16.69,16.69,0,0,0,2,.55l9-26.23-3.94-1.35Z"/><circle class="cls-92" cx="425.58" cy="46.91" r="17.28"/><circle class="cls-94" cx="425.58" cy="46.91" r="16.02"/><circle class="cls-95" cx="425.58" cy="46.91" r="15.83"/><circle class="cls-92" cx="425.58" cy="46.91" r="15.24"/><circle class="cls-96" cx="425.58" cy="46.91" r="15.04"/><g class="cls-97"><path class="cls-25" d="M426.27,46c-1.46,1.29-3.88,2.17-5.71,1.6a8.25,8.25,0,0,1-4.6-4.18,5,5,0,0,1-.59-1.77,3.75,3.75,0,0,1,.89-2.7,3.89,3.89,0,0,1,5.85-.25c.84,1.53,1.71,3.17,2.64,5,.38.6.79,1.2,1.19,1.79h0Z"/><path class="cls-98" d="M417.7,44.51a3.69,3.69,0,0,1,.88-2.69,3.81,3.81,0,0,1,4.67-1c-.38-.73-.77-1.44-1.14-2.12a3.89,3.89,0,0,0-5.85.25,3.75,3.75,0,0,0-.89,2.7,5,5,0,0,0,.59,1.77,9.63,9.63,0,0,0,2.32,2.91A4.8,4.8,0,0,1,417.7,44.51Z"/><path class="cls-25" d="M414.83,13.42c1.09,4.41,3.77,8.3,6.29,12,2,2.54,5.79,2.77,8.54,1.5s4.81-3.73,6.86-6.07,4.28-4.67,7.15-5.62a12.57,12.57,0,0,1,3.57-.57,7.67,7.67,0,0,1,1.25.7c2.75,1.77,4.54,4.15,6.84,6.54a37.7,37.7,0,0,1,1.47,3.54c.71,1.91,2.49,3.94,2.91,5.95a47,47,0,0,1,.84,5.27,44.38,44.38,0,0,1-.8,13.76,21.19,21.19,0,0,1-7.38,11.42,10.16,10.16,0,0,1-1.32.89,11.37,11.37,0,0,1-6.75,1.34,13.31,13.31,0,0,1-2.9-.58,21.21,21.21,0,0,1-8.74-5.08,7,7,0,0,1-1.55-1.75c-1.2-1.9-1.7-4.31-2.6-6.56a9.1,9.1,0,0,0-.4-.9,35,35,0,0,0-5-7l-.31-.38h0c-1.83-2.72-1.89-4-2.22-7.34a7.73,7.73,0,0,1,.07-2.8c.24-.88.45-1.51,1.25-1.68-.08,0,.25.12.06,0a14.19,14.19,0,0,1-3.72-4.48,36.17,36.17,0,0,1-3.91-10.81C414.47,14.3,414.65,13.86,414.83,13.42Z"/><path class="cls-99" d="M421.9,30s.79-1.46,4.07-2.36-9.89-16.86-9.89-16.86-2.76,4.47-2.54,6.59C414.88,30.16,421.9,30,421.9,30Z"/><path class="cls-28" d="M419.2,36.38c-1.93-3-3.78-5.55-6.29-8.82a2.45,2.45,0,0,1-.59-1.11,2.48,2.48,0,0,1,0-.86c.45-2.61.37-6.33,2-10.87a36.17,36.17,0,0,0,3.91,10.81A14.19,14.19,0,0,0,422,30a.07.07,0,0,0-.06,0c-.8.17-1,.8-1.25,1.68a7.73,7.73,0,0,0-.07,2.8c.33,3.31.39,4.62,2.22,7.34-.38-.47-.77-1-1.12-1.43C420.8,38.93,420,37.61,419.2,36.38Z"/><path class="cls-100" d="M414.33,14.72c-1.6,4.54-1.52,8.26-2,10.86a2.55,2.55,0,0,0,0,.87,2.45,2.45,0,0,0,.59,1.11c1.51,2,2.79,3.68,4,5.39a45.5,45.5,0,0,0,.58-9A33.19,33.19,0,0,1,414.33,14.72Z"/><path class="cls-28" d="M438.82-1.7a12,12,0,0,1,6.85,2.93c.24.19.46.39.68.6,2.67,2.54,4.5,6.32,5.77,9.89a5.24,5.24,0,0,0-4.93-1.24,8.91,8.91,0,0,1,4.17,3.82c.08.14,0,.5-.1.56a26.87,26.87,0,0,0-4-.2,12.57,12.57,0,0,0-3.57.57c-2.87.95-5.09,3.29-7.15,5.62s-4.12,4.79-6.86,6.07-6.57,1-8.54-1.5c-2.52-3.7-5.2-7.59-6.29-12a30.43,30.43,0,0,1,5.51-8.61A18.94,18.94,0,0,1,430-1.53C433.5-2.33,435.62-2.56,438.82-1.7Z"/><path class="cls-30" d="M442.71,7c2.81,2.39,1.16,5.55-1.88,6.75-2.51,1-5.42.16-8,.75a12.11,12.11,0,0,0-9.06,11.11c0,.49-.81.48-.77,0a12.9,12.9,0,0,1,4.76-9.42A11.84,11.84,0,0,1,434,13.55l1.66-.08q4.95.64,6.46-5.91c-.38-.32.18-.86.55-.54Z"/><path class="cls-31" d="M454.3,9.48c1.71,5,3,8.86,3.57,14.14a6.12,6.12,0,0,0-1.07,1.82,37.7,37.7,0,0,0-1.47-3.54c-2.3-2.39-4.09-4.77-6.84-6.54a7.67,7.67,0,0,0-1.25-.7,26.87,26.87,0,0,1,4,.2c.14-.06.18-.42.1-.56a8.91,8.91,0,0,0-4.17-3.82,5.24,5.24,0,0,1,4.93,1.24c-1.27-3.57-3.1-7.35-5.77-9.89-.22-.21-.44-.41-.68-.6h0c1.57.73,5,3.43,6.56,4.25C452.79,5.78,454.13,9,454.3,9.48Z"/><path class="cls-25" d="M463.48,30A7.36,7.36,0,0,1,458,33.2h0a78.39,78.39,0,0,0-2.42-9.06,9.17,9.17,0,0,1,1.25-2.72A15.21,15.21,0,0,1,458,20.06a5,5,0,0,1,3.52-2,3.75,3.75,0,0,1,3.44,2.55,6.65,6.65,0,0,1,.39,1.82A11.49,11.49,0,0,1,463.48,30Z"/><path class="cls-101" d="M464.91,20.65a3.75,3.75,0,0,0-3.44-2.55,5,5,0,0,0-3.52,2,15.21,15.21,0,0,0-1.11,1.37,8.78,8.78,0,0,0-.93,1.78c-.19-.44-.37-.88-.58-1.31-2.3-2.39-4.09-4.77-6.84-6.54a7.67,7.67,0,0,0-1.25-.7,12.57,12.57,0,0,0-3.57.57,12.94,12.94,0,0,0-4.71,3c.71,0,1.43.07,2.14.17,6.51.91,12.29,4.87,17,11-.33-1.26-.72-2.51-1.16-3.73a9.52,9.52,0,0,1,.52-.87,15.21,15.21,0,0,1,1.11-1.37,5.07,5.07,0,0,1,3.53-2,3.73,3.73,0,0,1,3.28,2.24,10.88,10.88,0,0,0,0-1.28A6.65,6.65,0,0,0,464.91,20.65Z"/><path class="cls-33" d="M436.1,34.75s5.52,7.28,5.17,13.34,1,6,1,6,4.12-2.86,3.78-3.73S440.74,37.13,436.1,34.75Z"/><ellipse class="cls-28" cx="433.53" cy="44.36" rx="1.54" ry="2.63" transform="translate(14.01 162.34) rotate(-21.55)"/><ellipse class="cls-28" cx="448.23" cy="37.52" rx="1.58" ry="2.71" transform="translate(17.55 167.26) rotate(-21.55)"/><path class="cls-102" d="M449,56.45a3.57,3.57,0,0,1-3.81.6c-.3-.14-.79-.51-.71-.9s.55-.38.84-.38c2.07-.05,3.22-1.57,4.35-3.09a10,10,0,0,0,.85-1.66c.27-.56.63-1.17,1.24-.73a1.84,1.84,0,0,1,.54,1.47A7.11,7.11,0,0,1,449.69,56C449.46,56.16,449.22,56.29,449,56.45Z"/><path class="cls-35" d="M425.32,38.48c-.15-.62.79-2,1.48-2.23A7.27,7.27,0,0,1,431,35.8c.43.11,1.36.89,1.29,1.6s-.9.78-1.43.87c-1,.17-1.61-.23-2.87.1C427,38.73,425.64,39.84,425.32,38.48Z"/><path class="cls-35" d="M445.15,28.92a4.4,4.4,0,0,0-3.77,2.5c-.12.26-.53.67-.82.49s-.29-.86-.23-1.22a5,5,0,0,1,4.46-4.07,31.31,31.31,0,0,1,4.51.38c.57.06,1.29.24,1.11,1.08-.08.38-.81.7-1.27.74C447.68,28.93,446.19,28.75,445.15,28.92Z"/><path class="cls-36" d="M445.07,51.38a15.82,15.82,0,0,1-2.6,1.39c.42-6.52-1.78-13.81-6.67-18.25a52.11,52.11,0,0,1,4.54,14.15c.12.76.05,5.26.58,5.58,1.56,1,4.94-2,5.1-3.92l-.95,1.05C444.68,51.65,445.44,51.09,445.07,51.38Z"/><path class="cls-103" d="M449.77,10.58c-.46-.25-.94-.49-1.41-.73-10.17-5.47-19-5.77-26.75-1.92a28.79,28.79,0,0,0-3.95,2.82,9.55,9.55,0,0,1,2.21-3.7A21.85,21.85,0,0,1,433.72-.37c1.9.92,3.79,2,5.61,3a48.75,48.75,0,0,1,8,5.66L449,9.81l.05.06C449.31,10.11,449.54,10.34,449.77,10.58Z"/><path class="cls-104" d="M418,14a37.77,37.77,0,0,1,17.57-3.05,41,41,0,0,1,14.85,3.64,6.45,6.45,0,0,0,1.23.28c-2.89-1.54-5.71-3.32-8.69-4.59-10.4-4.41-19.89-2.39-24.71,2.55C418,13.07,418.08,13.58,418,14Z"/><path class="cls-105" d="M444.13,61.72c-6,1-10.56-1.83-14-7a11.94,11.94,0,0,0,.89,1.79,7.06,7.06,0,0,0,1.53,1.75,21,21,0,0,0,8.67,5.09,13.68,13.68,0,0,0,2.87.59,11.14,11.14,0,0,0,6.68-1.33,10.77,10.77,0,0,0,1.31-.89,21.21,21.21,0,0,0,7.28-11.4,43.62,43.62,0,0,0,.95-7.92C458.44,52.65,452.83,60.24,444.13,61.72Z"/><path class="cls-28" d="M463.66,43.06l-3.73-10.62-2.45-1.61c1,3.47,3,10.61,2.46,14.66-1.52,6-1.29,10.36-8.5,15.71-6.88,5.09-15.9-.69-15.69-.43l0,0A9.84,9.84,0,0,0,442,64.28a40.82,40.82,0,0,1,6.2,1.38c3.28-.49,10.12-6,11.64-9C460.52,52.33,464,44.21,463.66,43.06Z"/><path class="cls-106" d="M463.17,41.67l-3.24-9.23-2.45-1.61c1,3.47,3,10.61,2.46,14.66-1,4.1-1.26,7.4-3.55,10.77A20.83,20.83,0,0,0,463.17,41.67Z"/></g><g class="cls-107"><path class="cls-108" d="M440,42.61a14.82,14.82,0,0,0-.56-1.58L414,56.55a16.46,16.46,0,0,0,1.15,1.22Z"/><path class="cls-108" d="M410.56,46.09a15,15,0,0,0,2.89,9.7L439,40.17a15,15,0,0,0-7.32-7Z"/></g><path class="cls-25" d="M415.48,92.07c-.54,3-.55,3.59-2.06,6.33-3.87-1.86-6.66-3.63-8.06-7.65l.15,0c-1.57-5.81-3.21-11.55-4.42-17.46a26.75,26.75,0,0,0,12.21-8.56L417.65,67a6.18,6.18,0,0,0,3.67,1.09l-1.58,2a4.78,4.78,0,0,1-4.33-.66,17.93,17.93,0,0,1-3.64,4.38,37.79,37.79,0,0,1,9.09-.52c.65,1.24,1.11,2.67,1.76,3.9a4.89,4.89,0,0,1,.56,1.4,4.23,4.23,0,0,1,0,1.33,50.58,50.58,0,0,1-2.78,11.44C419.37,91.55,417.23,91.76,415.48,92.07Z"/><path class="cls-109" d="M415.37,92.7c0-.2.07-.4.11-.63,1.75-.31,3.89-.52,4.89-.67A50.58,50.58,0,0,0,423.15,80a4.23,4.23,0,0,0,0-1.33c0-.09-.06-.18-.08-.28-4.67-1.54-9-1.87-12.05-1C410,83.6,411.56,89.41,415.37,92.7Z"/></g></g></svg>