<svg xmlns="http://www.w3.org/2000/svg" xmlns:xlink="http://www.w3.org/1999/xlink" viewBox="0 0 1050 400"><defs><style>.cls-1,.cls-3,.cls-47{fill:none;}.cls-2{isolation:isolate;}.cls-3{stroke:#211513;}.cls-3,.cls-47{stroke-miterlimit:10;}.cls-4{fill:#cf121b;}.cls-5{fill:#231815;}.cls-6{fill:#ad181c;}.cls-7{fill:#20325b;}.cls-100,.cls-103,.cls-104,.cls-106,.cls-21,.cls-22,.cls-29,.cls-37,.cls-38,.cls-40,.cls-41,.cls-42,.cls-8,.cls-81,.cls-82,.cls-83,.cls-86,.cls-88,.cls-90{mix-blend-mode:overlay;}.cls-8{fill:url(#未命名漸層_77);}.cls-9{fill:#fcfaeb;}.cls-10{clip-path:url(#clip-path);}.cls-11{fill:#223860;}.cls-12{fill:#a82728;}.cls-13{fill:#6f2a41;}.cls-14,.cls-17,.cls-19,.cls-20,.cls-23,.cls-24,.cls-43,.cls-44,.cls-52,.cls-84,.cls-85,.cls-87,.cls-91{mix-blend-mode:darken;}.cls-15{fill:url(#未命名漸層_13);}.cls-16{fill:#6c1319;}.cls-17{fill:url(#未命名漸層_13-2);}.cls-18{fill:#162142;}.cls-19{fill:url(#未命名漸層_13-3);}.cls-20{fill:url(#未命名漸層_13-4);}.cls-21{fill:url(#未命名漸層_46);}.cls-22{fill:url(#未命名漸層_77-2);}.cls-23{fill:url(#未命名漸層_13-5);}.cls-24{fill:url(#未命名漸層_13-6);}.cls-25{fill:#f4ac88;}.cls-101,.cls-102,.cls-109,.cls-26,.cls-27,.cls-32,.cls-34,.cls-50,.cls-89,.cls-98,.cls-99{mix-blend-mode:multiply;}.cls-26{fill:url(#未命名漸層_41);}.cls-27{fill:url(#未命名漸層_41-2);}.cls-28{fill:#37190b;}.cls-29{fill:url(#未命名漸層_77-3);}.cls-30,.cls-61{fill:#fff;}.cls-30{opacity:0.61;}.cls-31{fill:#714b22;}.cls-32{fill:url(#未命名漸層_41-3);}.cls-33{fill:#ef8a5b;}.cls-34{fill:url(#未命名漸層_41-4);}.cls-35{fill:#61361a;}.cls-36{fill:#e9592f;}.cls-37{fill:url(#未命名漸層_46-2);}.cls-38{fill:url(#未命名漸層_46-3);}.cls-39{fill:url(#未命名漸層_41-5);}.cls-40{fill:url(#未命名漸層_46-4);}.cls-41{fill:url(#未命名漸層_77-4);}.cls-42{fill:url(#未命名漸層_46-5);}.cls-43{fill:url(#未命名漸層_13-7);}.cls-44{fill:url(#未命名漸層_13-8);}.cls-45{fill:#e7decd;}.cls-46{fill:url(#未命名漸層_103);}.cls-47{stroke:#c8bb9b;stroke-width:0.43px;}.cls-48{fill:#d60050;}.cls-49{fill:#f1eae1;}.cls-50{fill:url(#未命名漸層_98);}.cls-51{fill:#fff8ef;}.cls-52{fill:url(#未命名漸層_118);}.cls-53{fill:#516080;}.cls-54{fill:#c7b4b4;}.cls-55{fill:#f7eeee;}.cls-56{fill:#f1a2a9;}.cls-57{fill:#756765;}.cls-58{fill:#fff697;}.cls-59{fill:#cad1a7;}.cls-60{fill:#e2b647;}.cls-62{fill:#2ca6e0;}.cls-63{fill:#5d667a;}.cls-64{fill:url(#未命名漸層_21);}.cls-65{fill:url(#未命名漸層_21-2);}.cls-66{fill:url(#未命名漸層_35);}.cls-67{fill:#fbf8f1;}.cls-68{fill:url(#未命名漸層_35-2);}.cls-69{fill:url(#未命名漸層_35-3);}.cls-70{fill:#ede9e3;}.cls-71{fill:#009fe8;}.cls-72{fill:url(#未命名漸層_21-3);}.cls-73{fill:url(#未命名漸層_21-4);}.cls-74{fill:#d3d062;}.cls-75{fill:url(#未命名漸層_21-5);}.cls-76{fill:#68554e;}.cls-77{fill:#d14b63;}.cls-78{fill:#86b7c5;}.cls-79{fill:#036eb7;}.cls-80{fill:#173275;}.cls-81{fill:url(#未命名漸層_46-6);}.cls-82{fill:url(#未命名漸層_46-7);}.cls-83{fill:url(#未命名漸層_46-8);}.cls-84{fill:url(#未命名漸層_83);}.cls-85{fill:#c8c9ca;}.cls-86{fill:url(#未命名漸層_46-9);}.cls-87{fill:url(#未命名漸層_83-2);}.cls-88{fill:url(#未命名漸層_46-10);}.cls-89{opacity:0.47;fill:url(#未命名漸層_41-6);}.cls-90{fill:url(#未命名漸層_46-12);}.cls-91{fill:url(#未命名漸層_13-9);}.cls-92{fill:#686d70;}.cls-93{fill:#4d5357;}.cls-94{fill:#383839;}.cls-95{fill:url(#未命名漸層_3);}.cls-96{fill:#e3eff5;}.cls-97{clip-path:url(#clip-path-2);}.cls-98{fill:url(#未命名漸層_41-7);}.cls-99{fill:url(#未命名漸層_41-8);}.cls-100{fill:url(#未命名漸層_77-6);}.cls-101{fill:url(#未命名漸層_41-9);}.cls-102{fill:url(#未命名漸層_41-10);}.cls-103{fill:url(#未命名漸層_46-13);}.cls-104{fill:url(#未命名漸層_46-14);}.cls-105{fill:url(#未命名漸層_41-11);}.cls-106{fill:url(#未命名漸層_46-15);}.cls-107{opacity:0.4;}.cls-108{fill:#f5fafd;}.cls-109{opacity:0.7;fill:url(#未命名漸層_41-12);}</style><linearGradient id="未命名漸層_77" x1="449.79" y1="43.23" x2="449.79" y2="79.51" gradientUnits="userSpaceOnUse"><stop offset="0" stop-color="#fff"/><stop offset="0.09" stop-color="#f8f8f9" stop-opacity="0.94"/><stop offset="0.27" stop-color="#e7e7e7" stop-opacity="0.79"/><stop offset="0.52" stop-color="#ccc" stop-opacity="0.54"/><stop offset="0.82" stop-color="#a6a6a6" stop-opacity="0.21"/><stop offset="1" stop-color="#8e8e8f" stop-opacity="0"/></linearGradient><clipPath id="clip-path"><path class="cls-1" d="M456.66,77.81a337.44,337.44,0,0,0,1.94,49.74c1.48,13,3.93,26.41,11.68,37.1l-2.93,8.57L452,165.34c-14.72-25.29-15.16-56.83-6.38-85.21,0,0,2-4,4.93-3.88A19.27,19.27,0,0,1,456.66,77.81Z"/></clipPath><linearGradient id="未命名漸層_13" x1="448.36" y1="121.92" x2="469.66" y2="189.79" gradientUnits="userSpaceOnUse"><stop offset="0" stop-color="#8e8e8f"/><stop offset="0.46" stop-color="#cacaca"/><stop offset="0.82" stop-color="#f0f0f0"/><stop offset="1" stop-color="#fff"/></linearGradient><linearGradient id="未命名漸層_13-2" x1="449.95" y1="70.7" x2="451.44" y2="93.4" xlink:href="#未命名漸層_13"/><linearGradient id="未命名漸層_13-3" x1="478.19" y1="118.97" x2="486.89" y2="186.51" xlink:href="#未命名漸層_13"/><linearGradient id="未命名漸層_13-4" x1="504.45" y1="83.68" x2="527.89" y2="153.3" xlink:href="#未命名漸層_13"/><linearGradient id="未命名漸層_46" x1="547.58" y1="97.41" x2="507.78" y2="118" gradientUnits="userSpaceOnUse"><stop offset="0" stop-color="#8e8e8f" stop-opacity="0"/><stop offset="0.18" stop-color="#a6a6a6" stop-opacity="0.21"/><stop offset="0.48" stop-color="#ccc" stop-opacity="0.54"/><stop offset="0.73" stop-color="#e7e7e7" stop-opacity="0.79"/><stop offset="0.91" stop-color="#f8f8f9" stop-opacity="0.94"/><stop offset="1" stop-color="#fff"/></linearGradient><linearGradient id="未命名漸層_77-2" x1="387.75" y1="74.48" x2="407.45" y2="74.48" xlink:href="#未命名漸層_77"/><linearGradient id="未命名漸層_13-5" x1="440.81" y1="157.66" x2="422.05" y2="68.37" xlink:href="#未命名漸層_13"/><linearGradient id="未命名漸層_13-6" x1="466.43" y1="126.48" x2="473.44" y2="89.11" xlink:href="#未命名漸層_13"/><linearGradient id="未命名漸層_41" x1="423.01" y1="43.91" x2="429.58" y2="43.91" gradientUnits="userSpaceOnUse"><stop offset="0.01" stop-color="#e9592f"/><stop offset="0.65" stop-color="#f1926c"/><stop offset="1" stop-color="#f4ac88"/></linearGradient><linearGradient id="未命名漸層_41-2" x1="424.84" y1="26.41" x2="434.2" y2="26.41" xlink:href="#未命名漸層_41"/><linearGradient id="未命名漸層_77-3" x1="422.63" y1="28.74" x2="427.19" y2="28.74" xlink:href="#未命名漸層_77"/><linearGradient id="未命名漸層_41-3" x1="445.57" y1="32.38" x2="466.55" y2="32.38" xlink:href="#未命名漸層_41"/><linearGradient id="未命名漸層_41-4" x1="444.77" y1="57.88" x2="451.87" y2="57.88" xlink:href="#未命名漸層_41"/><linearGradient id="未命名漸層_46-2" x1="663.16" y1="368.99" x2="712.2" y2="335.8" gradientTransform="translate(124.61 -684.42) rotate(38.06)" xlink:href="#未命名漸層_46"/><linearGradient id="未命名漸層_46-3" x1="666.37" y1="372.96" x2="715.7" y2="339.58" gradientTransform="translate(124.61 -684.42) rotate(38.06)" xlink:href="#未命名漸層_46"/><linearGradient id="未命名漸層_41-5" x1="457.28" y1="67.93" x2="445.66" y2="52.71" xlink:href="#未命名漸層_41"/><linearGradient id="未命名漸層_46-4" x1="454.53" y1="50.63" x2="462.11" y2="50.63" xlink:href="#未命名漸層_46"/><linearGradient id="未命名漸層_77-4" x1="499.68" y1="66.82" x2="526.93" y2="66.82" xlink:href="#未命名漸層_77"/><linearGradient id="未命名漸層_46-5" x1="527.31" y1="151.17" x2="522.13" y2="181.9" xlink:href="#未命名漸層_46"/><linearGradient id="未命名漸層_13-7" x1="393.41" y1="98.55" x2="389.47" y2="143.39" xlink:href="#未命名漸層_13"/><linearGradient id="未命名漸層_13-8" x1="432.16" y1="132.88" x2="425.44" y2="159.43" xlink:href="#未命名漸層_13"/><linearGradient id="未命名漸層_103" x1="368.26" y1="222.12" x2="533.1" y2="222.12" gradientUnits="userSpaceOnUse"><stop offset="0" stop-color="#fff"/><stop offset="0.08" stop-color="#faf6f0"/><stop offset="0.23" stop-color="#ecdeca"/><stop offset="0.43" stop-color="#d6b88c"/><stop offset="0.47" stop-color="#d2b180"/><stop offset="1" stop-color="#fff"/></linearGradient><linearGradient id="未命名漸層_98" x1="363.27" y1="190.68" x2="454.24" y2="190.68" gradientUnits="userSpaceOnUse"><stop offset="0" stop-color="#fff"/><stop offset="0.17" stop-color="#faf6f0"/><stop offset="0.49" stop-color="#ecdeca"/><stop offset="0.92" stop-color="#d6b88c"/><stop offset="1" stop-color="#d2b180"/></linearGradient><linearGradient id="未命名漸層_118" x1="458.84" y1="159.57" x2="452.31" y2="202.78" gradientUnits="userSpaceOnUse"><stop offset="0" stop-color="#e4d0b2"/><stop offset="0.41" stop-color="#e9dac2"/><stop offset="1" stop-color="#fff"/></linearGradient><linearGradient id="未命名漸層_21" x1="470.91" y1="157.75" x2="466.75" y2="175.21" gradientUnits="userSpaceOnUse"><stop offset="0.39" stop-color="#b2bc6b"/><stop offset="0.71" stop-color="#8aa872"/><stop offset="1" stop-color="#629478"/></linearGradient><linearGradient id="未命名漸層_21-2" x1="513.87" y1="161.62" x2="504.51" y2="167.05" xlink:href="#未命名漸層_21"/><linearGradient id="未命名漸層_35" x1="498.65" y1="148.11" x2="508.43" y2="148.11" gradientUnits="userSpaceOnUse"><stop offset="0.39" stop-color="#d68324"/><stop offset="0.72" stop-color="#c35b23"/><stop offset="1" stop-color="#b23623"/></linearGradient><linearGradient id="未命名漸層_35-2" x1="476.51" y1="166.74" x2="492.91" y2="166.74" xlink:href="#未命名漸層_35"/><linearGradient id="未命名漸層_35-3" x1="477.12" y1="149.02" x2="499.18" y2="149.02" xlink:href="#未命名漸層_35"/><linearGradient id="未命名漸層_21-3" x1="408.8" y1="161.62" x2="399.45" y2="167.05" xlink:href="#未命名漸層_21"/><linearGradient id="未命名漸層_21-4" x1="402.49" y1="166" x2="393.14" y2="171.44" xlink:href="#未命名漸層_21"/><linearGradient id="未命名漸層_21-5" x1="459.58" y1="175.83" x2="441.35" y2="186.41" xlink:href="#未命名漸層_21"/><linearGradient id="未命名漸層_46-6" x1="393.71" y1="336.31" x2="405.11" y2="336.31" xlink:href="#未命名漸層_46"/><linearGradient id="未命名漸層_46-7" x1="404.78" y1="314.94" x2="401.1" y2="327.03" xlink:href="#未命名漸層_46"/><linearGradient id="未命名漸層_46-8" x1="410.61" y1="291.51" x2="436.62" y2="291.51" xlink:href="#未命名漸層_46"/><linearGradient id="未命名漸層_83" x1="387.18" y1="272.14" x2="435.09" y2="250.43" gradientUnits="userSpaceOnUse"><stop offset="0" stop-color="#fff"/><stop offset="0.18" stop-color="#f0f0f0"/><stop offset="0.54" stop-color="#cacaca"/><stop offset="1" stop-color="#8e8e8f"/></linearGradient><linearGradient id="未命名漸層_46-9" x1="486.85" y1="380.84" x2="508.2" y2="380.84" xlink:href="#未命名漸層_46"/><linearGradient id="未命名漸層_83-2" x1="433.98" y1="286.78" x2="493.14" y2="286.78" xlink:href="#未命名漸層_83"/><linearGradient id="未命名漸層_46-10" x1="486.99" y1="264.63" x2="471.25" y2="299.93" xlink:href="#未命名漸層_46"/><linearGradient id="未命名漸層_41-6" x1="518.8" y1="214.8" x2="519.04" y2="197.63" xlink:href="#未命名漸層_41"/><linearGradient id="未命名漸層_46-12" x1="388.94" y1="114.35" x2="406.25" y2="158.07" xlink:href="#未命名漸層_46"/><linearGradient id="未命名漸層_13-9" x1="392.42" y1="161.52" x2="409.74" y2="205.24" xlink:href="#未命名漸層_13"/><linearGradient id="未命名漸層_3" x1="482.79" y1="153.38" x2="507.59" y2="179.8" gradientTransform="matrix(0.95, 0.32, -0.32, 0.95, 9.56, -271.23)" gradientUnits="userSpaceOnUse"><stop offset="0" stop-color="#8e8e8f"/><stop offset="0.4" stop-color="#fff"/><stop offset="0.51" stop-color="#f0f0f0"/><stop offset="0.72" stop-color="#cacaca"/><stop offset="1" stop-color="#8e8e8f"/></linearGradient><clipPath id="clip-path-2"><circle class="cls-1" cx="425.58" cy="50.74" r="15.04"/></clipPath><linearGradient id="未命名漸層_41-7" x1="392.86" y1="-24.37" x2="400.78" y2="-24.37" gradientTransform="translate(32.32 136.25) rotate(-9.67)" xlink:href="#未命名漸層_41"/><linearGradient id="未命名漸層_41-8" x1="395.06" y1="-45.45" x2="406.34" y2="-45.45" gradientTransform="translate(32.32 136.25) rotate(-9.67)" xlink:href="#未命名漸層_41"/><linearGradient id="未命名漸層_77-6" x1="392.4" y1="-42.65" x2="397.89" y2="-42.65" gradientTransform="translate(32.32 136.25) rotate(-9.67)" xlink:href="#未命名漸層_77"/><linearGradient id="未命名漸層_41-9" x1="420.04" y1="-38.26" x2="445.33" y2="-38.26" gradientTransform="translate(32.32 136.25) rotate(-9.67)" xlink:href="#未命名漸層_41"/><linearGradient id="未命名漸層_41-10" x1="419.09" y1="-7.53" x2="427.63" y2="-7.53" gradientTransform="translate(32.32 136.25) rotate(-9.67)" xlink:href="#未命名漸層_41"/><linearGradient id="未命名漸層_46-13" x1="593.06" y1="329.62" x2="652.15" y2="289.63" gradientTransform="translate(40.18 -559.38) rotate(28.39)" xlink:href="#未命名漸層_46"/><linearGradient id="未命名漸層_46-14" x1="596.93" y1="334.4" x2="656.36" y2="294.19" gradientTransform="translate(40.18 -559.38) rotate(28.39)" xlink:href="#未命名漸層_46"/><linearGradient id="未命名漸層_41-11" x1="434.15" y1="4.57" x2="420.15" y2="-13.76" gradientTransform="translate(32.32 136.25) rotate(-9.67)" xlink:href="#未命名漸層_41"/><linearGradient id="未命名漸層_46-15" x1="430.84" y1="-16.28" x2="439.97" y2="-16.28" gradientTransform="translate(32.32 136.25) rotate(-9.67)" xlink:href="#未命名漸層_46"/><linearGradient id="未命名漸層_41-12" x1="536.51" y1="247.18" x2="551.41" y2="247.18" gradientTransform="matrix(0.88, 0.48, -0.48, 0.88, 57.2, -390.1)" xlink:href="#未命名漸層_41"/></defs><g class="cls-2"><g id="圖層_1" data-name="圖層 1"><line class="cls-3" x1="3.74" y1="293.84" x2="1046.47" y2="293.84"/><path class="cls-4" d="M15.33,278.48a3.72,3.72,0,0,1,.23-.69,28.62,28.62,0,0,0,1.24-4.34,7.28,7.28,0,0,0,.23-1.29c0-.14,0-.26,0-.37s0-.18.11-.18a12.65,12.65,0,0,1,2.16.81c.17.08.63.28.63.54s-.46.49-.66.58A21,21,0,0,1,16,278.16c-.08.12-.37.49-.51.49S15.33,278.54,15.33,278.48Zm2.07-7.73-.52.37-1-1.49a16.42,16.42,0,0,0,1.72.17h2.61v-1.2a6.06,6.06,0,0,0-.17-1.64H17l-.52.37-1-1.49a16.88,16.88,0,0,0,1.73.17h4.48A30.91,30.91,0,0,0,23,261.5a8.41,8.41,0,0,1,.15-.92,7.9,7.9,0,0,1,2.5,1.24.65.65,0,0,1,.28.48c0,.29-.6.38-.8.41-.86,1.12-1.75,2.24-2.65,3.3h1.93c.12-.14.89-1.21,1.21-1.21a.76.76,0,0,1,.51.35c.18.2,1.18,1.26,1.18,1.55s-.34.26-.49.26H22.4c.2.11.66.34.66.57s-.43.46-.58.55v1.72h1.3c.08-.08,1-1.23,1.26-1.23s.43.28.52.4,1.21,1.18,1.21,1.55c0,.17-.15.23-.29.23h-4v5.58a21.11,21.11,0,0,0,.26,3.24L20,280.4a23.94,23.94,0,0,0,.28-3.7v-5.95Zm7.81-12.56c.18,0,.46.32.61.44S27,259.75,27,260.12a.3.3,0,0,1-.29.29H17.14l-.52.34-1-1.46c.54,0,1.15.14,1.72.14h6.55C24,259.37,24.93,258.19,25.21,258.19Zm-7.78,2.65a6.76,6.76,0,0,1,2,1.12,2.35,2.35,0,0,1,1,1.26,3.55,3.55,0,0,1,.15.95,1.16,1.16,0,0,1-1.1,1.21c-1.55,0-.94-2.42-1.63-3.45a4.77,4.77,0,0,1-.61-1C17.31,260.87,17.37,260.84,17.43,260.84Zm1.23-6.9a10.6,10.6,0,0,1,1.58.63,3.19,3.19,0,0,1,2.3,3,1.14,1.14,0,0,1-1.15,1.15,1.25,1.25,0,0,1-1-.49c-.55-.74-.41-2-.95-2.84-.29-.4-.58-.75-.89-1.12,0-.06-.12-.12-.12-.17S18.58,253.94,18.66,253.94Zm4.72,18.51a7.71,7.71,0,0,1,1.46,1,2.71,2.71,0,0,1,1.21,2.22A1.15,1.15,0,0,1,25,276.87a1.12,1.12,0,0,1-1-.63c-.12-.29-.14-2-.32-2.59-.05-.26-.43-1-.43-1.09S23.35,272.45,23.38,272.45Zm11.26-7.3c.14-.17,1-1.24,1.26-1.24a5.29,5.29,0,0,1,1.73,1.93.3.3,0,0,1-.32.31H35.1l-.46.55V277c0,1.07.11,2.19.17,3.25a8.47,8.47,0,0,1-2.64.66c.06-1.15.2-2.33.2-3.47.06-3.77,0-7.53,0-11.3H30.24c-.14,4.37.12,8.74-3.13,12.19a12.76,12.76,0,0,1-2.5,2.15,1.55,1.55,0,0,1-.57.32c-.06,0-.15,0-.15-.12s1.44-1.75,1.64-2a9.13,9.13,0,0,0,1.32-2.93,35.13,35.13,0,0,0,1-10v-5a16.5,16.5,0,0,0-.12-3.22,2.34,2.34,0,0,0-.25-.86.68.68,0,0,1-.15-.4c0-.15,0-.23.17-.23a13.17,13.17,0,0,1,3.11,1.09,36,36,0,0,0,3.3-1.5,3.44,3.44,0,0,0,.75-.46c.06,0,.23-.2.31-.2s.24.26.32.35a13.64,13.64,0,0,1,1.58,2.67c0,.11-.17.17-.29.17s-.48-.06-.71-.08a6.35,6.35,0,0,0-.72-.06c-1.5,0-3,.11-4.46.17l-.34.46c0,2.13,0,4.25-.06,6.41Z"/><path class="cls-4" d="M45.62,276.61V257a11.06,11.06,0,0,0,0-1.41,9.56,9.56,0,0,1-.29-1.06c0-.18.12-.23.26-.23a11.69,11.69,0,0,1,2.67,1.38h3.13c.15-.18.64-.92.89-.92a5.43,5.43,0,0,1,2.19,1.43c0,.29-.46.61-.66.75v4.83c0,.74.08,1.52.11,2.27a11.63,11.63,0,0,1-2.35.63l.08-1.52H47.8v13.67c0,1.07.09,2.16.14,3.22a14.75,14.75,0,0,1-2.52.63C45.47,279.34,45.62,277.93,45.62,276.61Zm6-19.88H48l-.2.26v2h3.82Zm0,5.43V260H47.8v2.18Zm-1.12,5-.57.34-1-1.49c.58.06,1.21.17,1.78.17h8.39c.12-.11.89-1,1.13-1A4.89,4.89,0,0,1,61.94,267c0,.11-.15.2-.23.2H59.06l-.25.43v6.81l.63-.09c.06-.05.89-1.2,1.09-1.2s1.92,1.29,1.92,1.72c0,.14-.22.23-.37.26l-3.27.32v1.69c0,.66,0,1.35.08,2a9.81,9.81,0,0,1-2.44.61c.06-.81.17-1.67.17-2.48v-1.69l-6.32.6-.54.4-1.47-1.37a20.3,20.3,0,0,0,2.82-.09v-7.93ZM56.62,269v-1.87H53.49l-.29.37V269Zm0,2.7V270H53.2v1.73Zm0,2.87v-1.92H53.2v2.21Zm6.61-19.88a7.33,7.33,0,0,1,1.78.95c.2.11.69.43.69.71s-.54.64-.8.78v21.2a4.27,4.27,0,0,1-.29,1.67c-.29.69-2.27,1-2.9,1.06-.23-1.17-.46-1.66-1.61-2.12-.15-.06-1-.29-1-.49s.12-.17.23-.14c.69.05,1.38.17,2.1.17s1.15-.17,1.15-1.09V263.31h-4v.8a21.89,21.89,0,0,1-2.3.55c0-.83.11-1.67.11-2.47v-5.26c0-.34,0-.69,0-1s-.29-.75-.29-1,.12-.18.23-.18a7.94,7.94,0,0,1,2.42,1h3.59C62.45,255.64,62.91,254.72,63.23,254.72Zm-.63,4.34v-2.22H59l-.34.26v2Zm0,3.22v-2.22h-4v2.22Z"/><path class="cls-4" d="M75.47,269l.64,0a24.75,24.75,0,0,0,3-.12,10.35,10.35,0,0,0-.75-2,.59.59,0,0,1-.09-.2c.41-.11,1.55.92,1.78,1.09a3,3,0,0,1,1.27,2.16c0,.69-.12,1.75-1,1.75s-1-1.35-1.12-2.07a34.13,34.13,0,0,0-5.2,1.9l-.86-2.56a11.32,11.32,0,0,0,1.21-.6c.8-.49,2.7-3.68,3.13-4.69-1.32.46-2.62,1-3.88,1.58l-.72-2.41a3.15,3.15,0,0,0,.89-.52c.72-.63,2.3-4.71,2.67-5.86a6.68,6.68,0,0,0,.44-1.69c0-.09,0-.41.14-.41.4,0,3,1.56,3,2,0,.2-.81.46-.95.48-1.38,2.19-2.56,4-4.11,6h.75c.71,0,1.43,0,2.15-.06.35-.69.78-1.64,1.06-2.36.09-.17.23-1,.41-1a14.07,14.07,0,0,1,2.5,1.75c.14.18.2.23.2.43s-.87.41-1,.46C79.18,264.43,77.37,266.7,75.47,269Zm-.83,4a7.1,7.1,0,0,1,.86,3.51c0,1-.34,2.38-1.55,2.38-.75,0-1.12-.23-1.12-1a2.34,2.34,0,0,1,.49-1.44,10.07,10.07,0,0,0,.66-1.26,3.84,3.84,0,0,0,.34-1.58c0-.18-.14-.78.12-.78C74.53,272.82,74.58,272.91,74.64,273Zm1.78-.57c.32,0,1.07,1.09,1.24,1.32a3.6,3.6,0,0,1,.72,2.16c0,.66-.38,1.49-1.12,1.49s-.87-.55-.87-1.12.18-1.32.18-2a4.32,4.32,0,0,0-.12-1.24,1.43,1.43,0,0,1-.14-.52A.12.12,0,0,1,76.42,272.39Zm3.16,0a3.44,3.44,0,0,1,1.47,2.44A1.16,1.16,0,0,1,80,276a.77.77,0,0,1-.61-.2c-.37-.41-.31-2.24-.57-2.93-.09-.29-.55-1.1-.55-1.24C78.66,271.61,79.35,272.16,79.58,272.36Zm3.54,3.36c0,1-.43,2.85-1.73,2.85-.63,0-1.23-.23-1.23-.95s1.12-1.75,1.55-2.42a4.28,4.28,0,0,0,.4-1.46c0-.12,0-.81.2-.81C82.86,272.93,83.12,275.29,83.12,275.72Zm3.56-17.58h4.14c.11-.15.72-1,1-1a6,6,0,0,1,2.13,1.61c0,.26-.6.66-.8.8v8.91c0,.69.08,1.44.11,2.13a20.85,20.85,0,0,1-2.24.63l.09-1.35H84.67v.86a11.46,11.46,0,0,1-2.24.63c0-.8.17-1.66.17-2.47V258.8a3,3,0,0,0-.09-.75c0-.23-.25-.66-.25-.83s0-.17.11-.17a9.09,9.09,0,0,1,2.3,1.06l.8,0a11.88,11.88,0,0,0,1-3.45c0-.14,0-.6.17-.6.44,0,2.76,1.17,2.76,1.52s-.66.49-.86.54C87.89,256.82,87.31,257.51,86.68,258.14Zm-.49,19.68c0,.77.61.66,1.18.66.32,0,.63,0,.95,0,1.38,0,1.64-1.27,1.89-2.36l.38-1.55c0-.09.08-.26.23-.26s.14.17.14.26c0,.6,0,1.21,0,1.84,0,1.06.32,1.35,1.09,2-.11.32-.25.66-.4,1-.57,1.32-2.9,1.2-4.11,1.2-1.46,0-3.44.06-3.44-1.92l0-5.32a5.26,5.26,0,0,0-.15-1.2.37.37,0,0,1-.08-.21c0-.11,0-.14.14-.14.46,0,2.9.66,2.9,1.21,0,.26-.49.51-.66.63Zm4.89-18.56-4.2-.06c.37.14,1.87.8,1.87,1.18,0,.14-.52.34-.6.37l-.41.63h1c.09-.11.58-.66.75-.66a4,4,0,0,1,1.49,1.47c0,.2-.43.4-.57.49-.38.86-.72,1.66-1.15,2.47a3.37,3.37,0,0,1,1,2,.87.87,0,0,1-.83,1c-.75,0-1.06-1.13-1.29-1.7a19.68,19.68,0,0,1-2.33,1.75,4.56,4.56,0,0,1-.75.4.16.16,0,0,1-.14-.17c0-.14.57-.69.66-.77a13.77,13.77,0,0,0,1.87-2.56,2.83,2.83,0,0,0-1.12-1.18c-.18.23-1.18,1.55-1.41,1.55s-.12-.05-.12-.11a.67.67,0,0,1,.09-.26c.37-.89.66-1.75.95-2.67a12.86,12.86,0,0,0,.66-3.25H85l-.29.26v9.42h6.41ZM88,264.2a18.2,18.2,0,0,0,.69-1.78H87.2l-.72,1.18A12.88,12.88,0,0,1,88,264.2Zm-1.09,6.41c.32,0,.81.43,1,.63A4.48,4.48,0,0,1,89.5,274a1.37,1.37,0,0,1-1.41,1.52c-.55,0-.72-.58-.72-1s0-.77,0-1.17a6.12,6.12,0,0,0-.2-1.61c-.09-.26-.49-.89-.49-1S86.8,270.61,86.88,270.61Zm4.4,1.78a.75.75,0,0,1,.4.17c1.44.83,3.13,2.27,3.13,4.08a1.35,1.35,0,0,1-1.26,1.5,1,1,0,0,1-.64-.21,1.19,1.19,0,0,1-.34-.74c-.26-2.1-.32-2.85-1.49-4.6A.18.18,0,0,1,91.28,272.39Z"/><path class="cls-4" d="M115.5,275.06a.67.67,0,0,1,.29.46c0,.2-.29.4-.43.49v2a1.79,1.79,0,0,0,.08.66.61.61,0,0,0,.41.26,30.25,30.25,0,0,0,3.65.12,1.31,1.31,0,0,0,.77-.23,1.42,1.42,0,0,0,.49-.69,27.31,27.31,0,0,0,.72-2.65c0-.14.06-.31.2-.31s.17.23.17.34a9.28,9.28,0,0,0,.06,1.58,2.25,2.25,0,0,0,1.41,1.61,5.37,5.37,0,0,1-.43,1.09c-.69,1.3-2.91,1.12-4.17,1.12-1,0-4.37.12-5.09-.51a1.57,1.57,0,0,1-.43-1.21v-4.11h-3.07c.29.14,1.69.75,1.69,1.18,0,.26-.6.31-.77.31-1.44,2-2.39,3.34-4.86,3.85a24.12,24.12,0,0,1-4,.55c-.09,0-.29,0-.29-.14s.2-.23.35-.29A16.4,16.4,0,0,0,104,280a6.73,6.73,0,0,0,4.57-4.91h-.67v.6a17,17,0,0,1-2.41.64c.06-.89.15-1.79.15-2.68v-4.28a11,11,0,0,0,0-1.29,7,7,0,0,1-.29-.83.19.19,0,0,1,.17-.2c.32,0,2.44.86,2.82,1h8c.12-.11.89-1,1.07-1a1.91,1.91,0,0,1,.66.31c.26.17,1.58.89,1.58,1.21s-.55.6-.69.72a45.92,45.92,0,0,0,.17,5.63,15.6,15.6,0,0,1-2.44.83l.06-.66ZM102.83,256.3a3.82,3.82,0,0,0,0-.83,4.22,4.22,0,0,1-.23-.75c0-.12,0-.17.17-.17a10,10,0,0,1,2.48.92h4.13c.06-.06,1-1.24,1.32-1.24s1.41,1.35,1.5,1.47a.86.86,0,0,1,.29.48c0,.15-.15.23-.29.23H109l-.23.26v2.07h.26c.08-.09.71-1,.94-1a8.8,8.8,0,0,1,1.61,1.06c.15.09.35.26.35.43s-.61.63-.75.75v1.58c0,.43.06.89.09,1.29a8.33,8.33,0,0,1-2,.55l.08-.52h-.31l-.29.23v2.44h.92c.11-.11.72-.86,1-.86S112,266,112,266.24a.27.27,0,0,1-.29.26h-6.58c-.06.09-.6,1.15-.89,1.15a6.32,6.32,0,0,1-2.16-1.38c0-.2.64-.66.75-.78Zm4.14,2.44v-2.33h-1.75l-.29.38v1.95Zm2.41,3.16v-2.21h-4.45v2.21Zm-2.44,3.62v-2.67h-2v2.67Zm9.83,4.66V269h-8.51l-.32.2v1Zm0,1.92v-1h-8.83v1Zm0,2v-1.06h-8.83v1.06ZM113,261l1,.4h5.46c.14-.2.63-1,1-1s1.9,1.09,1.9,1.38-.52.69-.72.83v2c0,.6.09,1.21.12,1.81a10.82,10.82,0,0,1-2,.4l.06-.6H114v.29a18.23,18.23,0,0,1-1.9.54c.06-.74.14-1.55.14-2.3v-2.93c-.08.09-.45.46-.57.46s-.11,0-.11-.08a5.48,5.48,0,0,1,.43-1.09,28.22,28.22,0,0,0,1.89-7,.42.42,0,0,1,0-.2.22.22,0,0,1,.15,0c.4,0,2.78,1,2.78,1.24s-.49.49-.63.57l-.49.69H120c0-.05,1.15-1.35,1.38-1.35a5.94,5.94,0,0,1,1.87,2.07c0,.17-.26.23-.4.23h-7.62C114.53,258.25,113.78,260.15,113,261Zm2,4.28v-2.93h-.83l-.17.12v2.81Zm1.12-6.15h3.54a7.75,7.75,0,0,1,1.18-.89c.17,0,1.78,1.3,1.78,1.61s-.32.29-.52.29h-5.72l-.37.31L114.9,259C115.16,259,115.88,259.14,116.13,259.14Zm1.3,6.15v-2.93h-1l-.17.17v2.76Zm2.38,0v-2.93H119l-.23.29v2.64Z"/><path class="cls-5" d="M8.82,168.64v-.13H8.34a59.79,59.79,0,0,1,3.39-20A51.11,51.11,0,0,1,27.14,126a35.8,35.8,0,0,1,7.2-4.7,35,35,0,0,1,16.56-4.08,28.91,28.91,0,0,1,11.86,2.42h.12a.67.67,0,0,0,.48.25l.12.13c.56.26,1.11.51,1.63.77s1.07.55,1.64.89q6.28,3.18,9.91,3.18a9.48,9.48,0,0,0,5.44-1.27,6.55,6.55,0,0,0,2.79-4.46h.84v37h-.84a65.66,65.66,0,0,0-1.76-8.91,61.87,61.87,0,0,0-2.72-7.89,46.83,46.83,0,0,0-3.57-6.43,40.51,40.51,0,0,0-4.29-5.41,31.21,31.21,0,0,0-10.16-7.13,30.3,30.3,0,0,0-9.67-2.29,20.8,20.8,0,0,0-12.09,4,35.66,35.66,0,0,0-9.92,10.82A60.43,60.43,0,0,0,24,149a75.66,75.66,0,0,0-2.48,19.67,72.17,72.17,0,0,0,4.05,24.69q4,11.21,10.58,17.95a32.88,32.88,0,0,0,5.93,4.52,33.55,33.55,0,0,0,4.83,2.35,11.89,11.89,0,0,0,2.85.7,23,23,0,0,0,3,.19,44.37,44.37,0,0,0,4.9-.76,26.9,26.9,0,0,0,4.77-1.53,29.84,29.84,0,0,0,10-7.13,26.61,26.61,0,0,0,4.29-5.28,55.84,55.84,0,0,0,3.45-6.43A47.66,47.66,0,0,0,83,190a88.13,88.13,0,0,0,1.81-8.91l.85.13a60.55,60.55,0,0,1-4.72,17A41.61,41.61,0,0,1,73,210.39a34,34,0,0,1-10.4,7.13,28,28,0,0,1-11.73,2.41,35,35,0,0,1-16.56-4.07,42.26,42.26,0,0,1-13.42-11,52.29,52.29,0,0,1-9.19-16.29,59.79,59.79,0,0,1-3.39-20Z"/><path class="cls-5" d="M102.6,218.34a9.19,9.19,0,0,0,4.53-1.84,7.63,7.63,0,0,0,2.42-3.82,23.1,23.1,0,0,0,.73-6.49v-75c0-4.66-.79-7.87-2.36-9.61s-4.37-2.73-8.4-3H95.65v-.76h42.08v.63h0v.13h-4.84q-5.44.65-7.56,3.18t-2.11,9.3v75.22a26.25,26.25,0,0,0,.54,5.86,8.2,8.2,0,0,0,1.81,3.69A7.66,7.66,0,0,0,129,218a19.1,19.1,0,0,0,5.14.83h3.75v.89H95.65v-.89A45.43,45.43,0,0,0,102.6,218.34Z"/><path class="cls-5" d="M228.78,144.2v-.26c-.64-2.63-1.37-5.36-2.17-8.21a30,30,0,0,0-3.57-7.95,20.25,20.25,0,0,0-6.41-6.24,23.09,23.09,0,0,0-10.58-3.06H205c-3.55.34-6,1.39-7.43,3.12s-2.12,4.82-2.12,9.23v75.23a26.38,26.38,0,0,0,.54,5.79,8.33,8.33,0,0,0,1.82,3.76,7.77,7.77,0,0,0,3.32,2.1,18.4,18.4,0,0,0,5.08.82h3.75v.9H167.84v-.9a45.48,45.48,0,0,0,6.95-.44,8.85,8.85,0,0,0,4.48-1.85,7.83,7.83,0,0,0,2.35-3.82,23.05,23.05,0,0,0,.73-6.49V131a25.6,25.6,0,0,0-.55-5.86,8.2,8.2,0,0,0-1.81-3.69,7.3,7.3,0,0,0-3.33-2,24.58,24.58,0,0,0-5.07-.9h-.73a22.68,22.68,0,0,0-10.52,3.06,21.12,21.12,0,0,0-6.41,6.24,28.92,28.92,0,0,0-3.63,7.95c-.8,2.85-1.49,5.58-2.05,8.21v.26h-.85V117.47h82.23V144.2Z"/><path class="cls-5" d="M292.51,176v30.42q0,7,2.42,9.68t8.58,2.67h3.75v1h-42.2v-1a44.14,44.14,0,0,0,6.89-.45,9.47,9.47,0,0,0,4.48-1.78,7.38,7.38,0,0,0,2.42-3.82,23.6,23.6,0,0,0,.72-6.43V176l-10.22-19.79q-4.17-8.08-7-13.43c-1.86-3.57-3.29-6.32-4.29-8.28s-1.76-3.41-2.24-4.39l-.91-1.84a2,2,0,0,0-.3-.51,15.16,15.16,0,0,0-4.23-5.09,19.11,19.11,0,0,0-5.08-2.81,22.61,22.61,0,0,0-4.6-1.14,27.85,27.85,0,0,0-2.9-.26v-.76h37.61v.76H273.4c-.88.09-1.89.24-3,.45a7.33,7.33,0,0,0-2.9,1.15,4,4,0,0,0-1.63,2.29c-.29,1,0,2.27.9,3.88L292,175.13l18.62-35.77a52.88,52.88,0,0,0,3.69-8.78,17.28,17.28,0,0,0,.84-5.86,6.28,6.28,0,0,0-1.15-3.5,6.07,6.07,0,0,0-2.23-1.78,8.12,8.12,0,0,0-2.54-.7c-.85-.08-1.51-.13-2-.13v-.89h32.41v.89h-.48a24.72,24.72,0,0,0-4.36.7,28.2,28.2,0,0,0-7.13,2.87,41.31,41.31,0,0,0-8.34,6.23,39.27,39.27,0,0,0-7.87,11Z"/><path class="cls-5" d="M723.36,117.85v.89h-1.81a30.93,30.93,0,0,0-5.14.57,21.51,21.51,0,0,0-6.23,2.17,15.39,15.39,0,0,0-5.26,4.64,13.5,13.5,0,0,0-2.23,8.15v85.41h-1L630.61,126v77.14a13.76,13.76,0,0,0,2.24,8.28,15.5,15.5,0,0,0,5.26,4.64,21.71,21.71,0,0,0,6.23,2.17,30.82,30.82,0,0,0,5.14.57h1.81v.89H609v-.89h1.81a30.93,30.93,0,0,0,5.14-.57,21.71,21.71,0,0,0,6.23-2.17,15.5,15.5,0,0,0,5.26-4.64,13.76,13.76,0,0,0,2.24-8.28V130.7q0-3-.12-5.28a7.84,7.84,0,0,0-1.09-3.75,5.62,5.62,0,0,0-3.21-2.23,22.71,22.71,0,0,0-6.47-.7H615v-.89h25.87l60.83,79.55V134.27a13.5,13.5,0,0,0-2.24-8.15,15.3,15.3,0,0,0-5.26-4.64,21.41,21.41,0,0,0-6.23-2.17,30.83,30.83,0,0,0-5.13-.57H681v-.89h42.32Z"/><path class="cls-5" d="M792.41,217.52a28.54,28.54,0,0,0,7.08-3.31,27,27,0,0,0,5.38-4.65,37.81,37.81,0,0,0,4-5.41,45,45,0,0,0,5.44-14.77h.85l-3.51,30.3H731.71v-.89a45.34,45.34,0,0,0,6.95-.45,9.15,9.15,0,0,0,4.53-1.84,7.63,7.63,0,0,0,2.42-3.82,23.1,23.1,0,0,0,.73-6.49V132.74a4.87,4.87,0,0,0-.06-.76,5,5,0,0,1-.06-.77c0-4.66-.79-7.87-2.36-9.61s-4.37-2.73-8.4-3h-3.87v-.76h76.66v26.73h-.84v-.13c-.65-2.8-1.39-5.73-2.24-8.78a26.66,26.66,0,0,0-3.93-8.34,20.83,20.83,0,0,0-7.26-6.24q-4.59-2.48-12.09-2.48H759.16v49.77h17.29q5.2-.12,8.16-2.48a16.38,16.38,0,0,0,4.48-5.28A17.5,17.5,0,0,0,791,155a33.68,33.68,0,0,0,.36-3.57v-.38h.85v35.51h-.85v-.38q0-.88-.36-3.69a17.4,17.4,0,0,0-1.93-5.79,15.66,15.66,0,0,0-4.66-5.28q-3.09-2.3-8.52-2.29H759.16V204a14.55,14.55,0,0,1,.12,2.29,26.25,26.25,0,0,0,.54,5.86,8.21,8.21,0,0,0,1.82,3.69A7.59,7.59,0,0,0,765,218a18.43,18.43,0,0,0,5.08.83h13.42A29.32,29.32,0,0,0,792.41,217.52Z"/><path class="cls-5" d="M954.45,118.61h-.6a18.69,18.69,0,0,0-3.33.45,16.62,16.62,0,0,0-4.9,2,19.57,19.57,0,0,0-5.14,4.52,22.05,22.05,0,0,0-3.93,8.21l-23.94,85.67h-.84l-23.95-84.65-23.46,84.65h-1l-24.18-85.8-.48-1.65a31,31,0,0,0-3.09-7.7,11.47,11.47,0,0,0-3.5-3.76,9.21,9.21,0,0,0-3.93-1.34c-1.38-.12-2.83-.31-4.36-.57h-.12v-.89h39.66v.89H863c-2.09,0-4.07.07-5.92.19a8,8,0,0,0-4.48,1.53,6.17,6.17,0,0,0-2,4.33c-.24,2,.2,4.86,1.33,8.59l17.77,63.65,17.78-63.65a1.33,1.33,0,0,1-.24-.7,1.32,1.32,0,0,0-.12-.57,31,31,0,0,0-3.09-7.7,11.27,11.27,0,0,0-3.5-3.76,9.23,9.23,0,0,0-4-1.34c-1.42-.12-2.85-.31-4.3-.57h-.12v-.89h39.67v.89h-.37c-2.1,0-4,0-5.86.13a7.77,7.77,0,0,0-4.48,1.46,6.07,6.07,0,0,0-2.11,4.33c-.25,2,.2,4.9,1.33,8.72l17.77,63.65,18.38-66.2q1.1-4.2-.42-6.55a10.14,10.14,0,0,0-4-3.63,15.67,15.67,0,0,0-5.26-1.59,39.18,39.18,0,0,0-3.93-.32H922v-.89h32.41Z"/><path class="cls-5" d="M963.16,187.35h1a32.07,32.07,0,0,0,.61,5.92,47,47,0,0,0,1.69,6.49,40,40,0,0,0,2.66,6.17,17.68,17.68,0,0,0,3.51,4.71,28.62,28.62,0,0,0,19,7.64h1.09a31.9,31.9,0,0,0,10.28-2.16,20,20,0,0,0,8.22-7.26,19.6,19.6,0,0,0,3.21-10.12,20.61,20.61,0,0,0-2.84-10.82q-3-5.4-9.92-9.23l-15.24-8.27a45,45,0,0,1-12.09-9,30.58,30.58,0,0,1-6.35-10.06,23.29,23.29,0,0,1-1.39-10.25,24.69,24.69,0,0,1,2.9-9.54,27.68,27.68,0,0,1,6.47-7.9,32.55,32.55,0,0,1,9.26-5.47,20.48,20.48,0,0,1,4.83-1.4,32.34,32.34,0,0,1,5-.38,28.05,28.05,0,0,1,10.88,2.16q1.93.77,4.11,1.53a15.82,15.82,0,0,0,4.36.89,8.48,8.48,0,0,0,4.11-.76,7.84,7.84,0,0,0,3.38-3.44h.85v27.62h-1a21.78,21.78,0,0,0-.79-5.6,31.89,31.89,0,0,0-2.12-5.66,35.13,35.13,0,0,0-3-5.1,31.61,31.61,0,0,0-3.39-4,24.16,24.16,0,0,0-8-5,26,26,0,0,0-9.43-1.72,28.29,28.29,0,0,0-4.17.32,24.92,24.92,0,0,0-4,1,17.38,17.38,0,0,0-8.65,6.11,13.54,13.54,0,0,0-2.54,9.68q.54,5.47,5.38,11.64t15.12,12.29l13.9,7.51a35.29,35.29,0,0,1,10.52,8.72,27.12,27.12,0,0,1,5.33,10.5,23.8,23.8,0,0,1-4.9,21.06,32.88,32.88,0,0,1-10.1,8,45.6,45.6,0,0,1-15.11,4.65h.24c-.65.08-1.23.15-1.76.19s-1.06.06-1.63.06h-1.21a26.63,26.63,0,0,1-10.52-2.16v0a9.19,9.19,0,0,1-1.21-.51,21.2,21.2,0,0,0-8-2,9.63,9.63,0,0,0-4.65,1,5.17,5.17,0,0,0-2.24,2.29,18.57,18.57,0,0,0-.73,1.72v.12h-.84Z"/><rect class="cls-6" x="335.24" y="214.46" width="255.29" height="10.19"/><path class="cls-7" d="M422.79,52.64s26.38-19.77,54.14-6.06S485.24,70,485.24,70L416.59,81.79l-8.88-11.21Z"/><path class="cls-8" d="M422.79,52.64s26.38-19.77,54.14-6.06S485.24,70,485.24,70L416.59,81.79l-8.88-11.21Z"/><path class="cls-9" d="M431.54,69.39a28.58,28.58,0,0,0,3.58,5.91c1.57,2,5.4,6,8,6.33-.07-.65-.14-1.33-.22-2a19.3,19.3,0,0,0,8.29,1.19,9.88,9.88,0,0,0,6.92-4,19.54,19.54,0,0,1,.59,2.78c2.71-2.55,5.3-7.71,7-12.55h0c-3.85,19-5.1,37.84-6.55,56.79a123.38,123.38,0,0,0-.52,16.85,36.29,36.29,0,0,1-.19,4.61c-.5,5.45-1.73,13.83-2.74,21.73l-.64-.08c-1.57-2.27-5.66-8.39-9-13.85a75.59,75.59,0,0,1-4.9-8.71c-9.28-23.25-9.53-49.43-9.62-75Z"/><g class="cls-10"><polygon class="cls-11" points="477.45 74.79 432.58 100.4 432.58 83.43 477.45 58.87 477.45 74.79"/><polygon class="cls-12" points="477.45 90.7 432.58 117.38 432.58 100.4 477.45 74.79 477.45 90.7"/><polygon class="cls-13" points="477.45 106.62 432.58 134.36 432.58 117.38 477.45 90.7 477.45 106.62"/><polygon class="cls-11" points="477.97 170.77 433.1 196.39 433.1 179.41 477.97 154.85 477.97 170.77"/><polygon class="cls-12" points="477.97 186.69 433.1 213.36 433.1 196.39 477.97 170.77 477.97 186.69"/><polygon class="cls-13" points="477.97 202.6 433.1 230.34 433.1 213.36 477.97 186.69 477.97 202.6"/><polygon class="cls-11" points="477.45 122.54 432.58 151.34 432.58 134.36 477.45 106.62 477.45 122.54"/><polygon class="cls-12" points="477.45 138.46 432.58 168.31 432.58 151.34 477.45 122.54 477.45 138.46"/><polygon class="cls-13" points="477.45 154.37 432.58 185.29 432.58 168.31 477.45 138.46 477.45 154.37"/></g><g class="cls-14"><path class="cls-15" d="M457.16,111.18c-5.37,8.41-11.25,13.76-17.17,12.26.8,14.75,4.58,29.12,12,41.9l15.34,7.88,2.93-8.57c-7.75-10.69-10.2-24.06-11.68-37.1C458,122.12,457.51,116.66,457.16,111.18Z"/></g><path class="cls-16" d="M449.78,65.42a10.3,10.3,0,0,0,1.49-.6h0a4.63,4.63,0,0,1,2.21,1.87,42.52,42.52,0,0,1,4.62,10.09,9.88,9.88,0,0,1-6.92,4,19.3,19.3,0,0,1-8.29-1.19c-.45-4.44-.91-10-.18-14A13.06,13.06,0,0,0,449.78,65.42Z"/><path class="cls-17" d="M449.78,65.42a10.3,10.3,0,0,0,1.49-.6h0a4.63,4.63,0,0,1,2.21,1.87,42.52,42.52,0,0,1,4.62,10.09,9.88,9.88,0,0,1-6.92,4,19.3,19.3,0,0,1-8.29-1.19c-.45-4.44-.91-10-.18-14A13.06,13.06,0,0,0,449.78,65.42Z"/><path class="cls-9" d="M445.26,65.18c-.74,4-1.36,15.13-2.15,16.45-2.59-.29-6.42-4.31-8-6.33a28.58,28.58,0,0,1-3.58-5.91,23,23,0,0,1-1-2.88c-.06-.22-.1-.44-.16-.66v0c-2.24-5.65-.52-18.62-.52-18.62l7.67-3.26Z"/><path class="cls-7" d="M431.52,69.4c.09,25.53.34,51.71,9.62,75a75.59,75.59,0,0,0,4.9,8.71c-11.1-13.67-22.11-38.2-25.82-55.37-.69-3.2-1-5.21-2.92-7.93v0C420,82.42,423.72,76,429.64,70.94,430.24,70.39,430.87,69.89,431.52,69.4Z"/><path class="cls-18" d="M534.44,153a11.3,11.3,0,0,1,1.71,5c.31,3.3-.61,6.62-1.66,9.81-2.52,7.64-4.12,15.52-8.14,22.53a1.71,1.71,0,0,0-.67-.22c-3.71-.65-6.28-2.69-10-2.37.31-6-.66-12.61-.88-18.66a35.11,35.11,0,0,1,1.93-14c-4.14-6.09-7.15-16.47-9.39-23.45q-3.21-9.94-6.43-19.94c-.41,1.36-.82,2.7-1.24,4q-4.06,13-8.09,25.83c-.1.29-.19.59-.29.89a11.65,11.65,0,0,0,.63,3.91c1.5,5.33,3.21,11,7.59,14.54,6.89,4.18-3,14.14-11.57,18.44-10.49,5.28-23.17,1.57-33.37,7.27-.73-3,.09-11.06,1.2-19.68,1-7.9,2.24-16.28,2.74-21.73,3.41-20.08,15.14-42.14,23.9-60.21,1.26-2.6,2.65-5.27,5-7a171.41,171.41,0,0,0-19.9-10.4c4-.93,9.2-2.51,13-.91a48.45,48.45,0,0,0-3.54-19.57q13.67,3.64,27.62,6c3.62.63,7.49.4,9.51,3.34,12.17,20.36,21.57,41.48,23.2,64.61A91.43,91.43,0,0,1,534.44,153Z"/><path class="cls-19" d="M480.82,119.19c-12.51,7.43-20,22.08-20,36.63a51.66,51.66,0,0,0,8.11,27.24c6.46-.56,13.07-.68,19-3.66,8.54-4.29,18.46-14.25,11.57-18.44-4.38-3.57-6.09-9.21-7.59-14.53a11.65,11.65,0,0,1-.63-3.91c.1-.3.19-.6.29-.9q4-12.87,8.09-25.83c.16-.52.32-1.06.49-1.59A36.72,36.72,0,0,0,480.82,119.19Z"/><path class="cls-20" d="M534.44,153a91.43,91.43,0,0,0,2.82-31.85c-1.63-23.13-11-44.25-23.2-64.61a5.78,5.78,0,0,0-2.85-2.15,123.42,123.42,0,0,0-9.85,58.89l5.93,18.4c2.24,7,5.25,17.36,9.39,23.45a35.11,35.11,0,0,0-1.93,14c.22,6.05,1.19,12.65.88,18.66,3.77-.32,6.34,1.72,10,2.37a1.71,1.71,0,0,1,.67.22c4-7,5.62-14.89,8.14-22.53,1-3.19,2-6.51,1.66-9.81A11.3,11.3,0,0,0,534.44,153Z"/><path class="cls-21" d="M518.17,113.82c3.61,11.11,10.21,20.94,18.37,29.36a96.12,96.12,0,0,0,.73-22c-1.27-17.84-7.16-34.49-15.37-50.52C514.53,83.34,513.58,99.67,518.17,113.82Z"/><path class="cls-9" d="M460.39,41.74l4.22.75a29.86,29.86,0,0,1,3,17.49,42.66,42.66,0,0,1-1.9,6.94.3.3,0,0,1,0,.1c-1.72,4.84-4.54,11.3-7.25,13.86-.11-.89-2-8.79-5.78-12.73-.59-.62-3.15-3.36-4-3.6h0Z"/><path class="cls-22" d="M407.45,61.67a118.2,118.2,0,0,0-10,7.57c-2.58,2.19-5,4.48-7.34,6.86q-1.36,5.58-2.32,11.19a29.76,29.76,0,0,0,5.09-2.36,30.14,30.14,0,0,0,8.32-7.18c.37-.48.74-1,1.09-1.46A29.29,29.29,0,0,0,404.71,72a4.16,4.16,0,0,0,1.13-.9l.42-2.51a2.26,2.26,0,0,1-.26.16A29.58,29.58,0,0,0,407.45,61.67Z"/><path class="cls-18" d="M455.72,167l-.64-.08c-1.57-2.27-5.66-8.39-9-13.85-11.1-13.67-22.11-38.2-25.82-55.37-.69-3.2-1-5.21-2.92-7.93v0C420,82.42,423.72,76,429.64,70.94h0a67.44,67.44,0,0,0-12.27,3.45,44.61,44.61,0,0,1,5.43-21.74,133,133,0,0,0-25.38,16.6c-2.58,2.19-5,4.48-7.34,6.86a146.09,146.09,0,0,0-2.36,60.28c5.11,10.9,9.89,12.7,23.2,6.74a76.06,76.06,0,0,0,12.15,20.78l-.19.13c-3.47,8.58-14.22,13.14-17.21,21.81,15.35-7.35,33.57-6.72,48.86.84C453.79,183.66,454.61,175.62,455.72,167Z"/><path class="cls-7" d="M459.17,123.81c1.45-19,2.7-37.84,6.55-56.79h0a.3.3,0,0,0,0-.1h0l1.73.75a171.41,171.41,0,0,1,19.9,10.4c-2.38,1.72-3.77,4.39-5,7-8.76,18.07-20.49,40.13-23.9,60.21a36.29,36.29,0,0,0,.19-4.61A123.38,123.38,0,0,1,459.17,123.81Z"/><path class="cls-23" d="M431.52,69.4c.09,25.53.34,51.71,9.62,75a75.59,75.59,0,0,0,4.9,8.71c-11.1-13.67-22.11-38.2-25.82-55.37-.69-3.2-1-5.21-2.92-7.93v0C420,82.42,423.72,76,429.64,70.94,430.24,70.39,430.87,69.89,431.52,69.4Z"/><path class="cls-24" d="M459.17,123.81c1.45-19,2.7-37.84,6.55-56.79h0a.3.3,0,0,0,0-.1h0l1.73.75a171.41,171.41,0,0,1,19.9,10.4c-2.38,1.72-3.77,4.39-5,7-8.76,18.07-20.49,40.13-23.9,60.21a36.29,36.29,0,0,0,.19-4.61A123.38,123.38,0,0,1,459.17,123.81Z"/><path class="cls-18" d="M534.44,153a11.3,11.3,0,0,1,1.71,5c.31,3.3-.61,6.62-1.66,9.81-2.52,7.64-4.12,15.52-8.14,22.53a1.71,1.71,0,0,0-.67-.22c-3.71-.65-6.28-2.69-10-2.37.31-6-.66-12.61-.88-18.66a35.11,35.11,0,0,1,1.93-14Z"/><path class="cls-25" d="M431.32,48.32a5.47,5.47,0,0,1-4.89.52,6.86,6.86,0,0,1-3.18-4.07,3.8,3.8,0,0,1-.23-1.53,3,3,0,0,1,1.1-2.08,3.22,3.22,0,0,1,4.82.61c.48,1.37.95,2.83,1.46,4.47.23.55.47,1.09.72,1.63h0C431.19,48,431.26,48.17,431.32,48.32Z"/><path class="cls-26" d="M424.51,46a3.07,3.07,0,0,1,1.1-2.08,3.16,3.16,0,0,1,4-.21c-.22-.65-.43-1.28-.64-1.89a3.22,3.22,0,0,0-4.82-.61,3,3,0,0,0-1.1,2.08,3.8,3.8,0,0,0,.23,1.53,7.69,7.69,0,0,0,1.49,2.7A4.1,4.1,0,0,1,424.51,46Z"/><path class="cls-25" d="M426.5,20.11c.28,3.76,1.93,7.31,3.47,10.7,1.26,2.35,4.35,3.07,6.78,2.41s4.46-2.38,6.46-4,4.16-3.23,6.63-3.61a10.77,10.77,0,0,1,3,0,6.78,6.78,0,0,1,.93.75c2,1.83,3.14,4,4.69,6.3.28,1,.52,2.06.71,3.1.31,1.67,1.48,3.57,1.55,5.28a38.32,38.32,0,0,1-.06,4.42,36.58,36.58,0,0,1-2.56,11.16A17.67,17.67,0,0,1,450.46,65a8.13,8.13,0,0,1-1.2.54,9.43,9.43,0,0,1-5.71.16,10.62,10.62,0,0,1-2.29-.88,17.48,17.48,0,0,1-6.45-5.38,5.85,5.85,0,0,1-1-1.64C433.08,56,433,54,432.58,52c-.06-.26-.12-.52-.2-.78a29.09,29.09,0,0,0-3.12-6.39c-.07-.13-.14-.24-.2-.36h0c-1.12-2.48-1-3.56-.8-6.32a6.7,6.7,0,0,1,.45-2.28c.32-.68.58-1.17,1.26-1.2-.07,0,.19.14,0,0a11.73,11.73,0,0,1-2.42-4.18,30.25,30.25,0,0,1-1.69-9.39C426.09,20.78,426.29,20.44,426.5,20.11Z"/><path class="cls-27" d="M430,34.68s.84-1.08,3.66-1.36-5.74-15.17-5.74-15.17-2.88,3.27-3,5C424.2,33.81,430,34.68,430,34.68Z"/><path class="cls-28" d="M426.87,39.5c-1.16-2.73-2.32-5.06-3.91-8.09a2,2,0,0,1-.33-1,1.88,1.88,0,0,1,.16-.7c.72-2.07,1.18-5.13,3.12-8.62a30.25,30.25,0,0,0,1.69,9.39A11.73,11.73,0,0,0,430,34.67h0c-.68,0-.94.52-1.26,1.2a6.7,6.7,0,0,0-.45,2.28c-.19,2.76-.32,3.84.8,6.32-.25-.44-.5-.88-.72-1.33C427.83,41.81,427.35,40.62,426.87,39.5Z"/><path class="cls-29" d="M425.91,21.1c-1.94,3.49-2.4,6.55-3.12,8.62a1.88,1.88,0,0,0-.16.7,2,2,0,0,0,.33,1c1,1.83,1.76,3.4,2.5,5a37.6,37.6,0,0,0,1.73-7.24A27.65,27.65,0,0,1,425.91,21.1Z"/><path class="cls-28" d="M448.23,11.08a10,10,0,0,1,5.2,3.36,6.71,6.71,0,0,1,.48.58,21.51,21.51,0,0,1,3.34,8.9,4.36,4.36,0,0,0-3.86-1.7,7.33,7.33,0,0,1,2.87,3.7c.05.12,0,.42-.15.45a22.43,22.43,0,0,0-3.27-.73,10.77,10.77,0,0,0-3,0c-2.47.38-4.62,2-6.63,3.61s-4,3.34-6.46,4-5.52-.06-6.78-2.41c-1.54-3.39-3.19-6.94-3.47-10.7a25.34,25.34,0,0,1,5.71-6.28A15.7,15.7,0,0,1,441,10,13.13,13.13,0,0,1,448.23,11.08Z"/><path class="cls-30" d="M450.2,18.76c2,2.35.18,4.71-2.47,5.26-2.2.46-4.46-.63-6.67-.5a10,10,0,0,0-8.95,7.82c-.1.4-.73.28-.63-.12A10.55,10.55,0,0,1,439.93,23a10.15,10.15,0,0,1,2.27-.12l1.37.17q3.94,1.22,6.11-3.94c-.27-.31.26-.67.52-.36Z"/><path class="cls-31" d="M459.35,22.39a51,51,0,0,1,.94,12.07,5,5,0,0,0-1.12,1.33c-.19-1-.43-2.07-.71-3.1-1.55-2.27-2.69-4.47-4.69-6.3a6.78,6.78,0,0,0-.93-.75,22.43,22.43,0,0,1,3.27.73c.12,0,.2-.33.15-.45a7.33,7.33,0,0,0-2.87-3.7,4.36,4.36,0,0,1,3.86,1.7,21.51,21.51,0,0,0-3.34-8.9,6.71,6.71,0,0,0-.48-.58h0c1.18.82,3.64,3.5,4.78,4.38C458.63,19.15,459.28,21.94,459.35,22.39Z"/><path class="cls-25" d="M464,40.43a6.13,6.13,0,0,1-4.92,1.89h0a64.32,64.32,0,0,0-.72-7.75,8,8,0,0,1,1.4-2,14,14,0,0,1,1.1-1A4.2,4.2,0,0,1,464,30.44,3.13,3.13,0,0,1,466.47,33a5.69,5.69,0,0,1,.06,1.54A9.54,9.54,0,0,1,464,40.43Z"/><path class="cls-32" d="M466.47,33A3.13,3.13,0,0,0,464,30.44a4.2,4.2,0,0,0-3.16,1.11,14,14,0,0,0-1.1,1,7.34,7.34,0,0,0-1,1.33c-.09-.39-.19-.77-.29-1.16-1.55-2.27-2.69-4.47-4.69-6.3a6.78,6.78,0,0,0-.93-.75,9.29,9.29,0,0,0-7.27,1.8c.58.12,1.15.26,1.73.44,5.19,1.65,9.37,5.7,12.34,11.37-.1-1.08-.24-2.15-.43-3.21a6.76,6.76,0,0,1,.54-.64,14,14,0,0,1,1.1-1A4.2,4.2,0,0,1,464,33.32a3.07,3.07,0,0,1,2.38,2.28c.06-.35.11-.7.14-1.05A5.69,5.69,0,0,0,466.47,33Z"/><path class="cls-33" d="M440.93,40.53s3.5,6.72,2.37,11.63,0,5,0,5,3.77-1.76,3.62-2.52S444.39,43.12,440.93,40.53Z"/><ellipse class="cls-28" cx="437.49" cy="48.03" rx="1.28" ry="2.18" transform="translate(-0.52 91.08) rotate(-11.88)"/><ellipse class="cls-28" cx="450.46" cy="44.48" rx="1.31" ry="2.25" transform="translate(0.49 93.67) rotate(-11.88)"/><path class="cls-34" d="M448.46,60.08a3,3,0,0,1-3.2,0c-.23-.15-.58-.53-.46-.83s.51-.24.74-.2c1.7.25,2.85-.84,4-1.92a8.91,8.91,0,0,0,.93-1.24c.3-.42.68-.87,1.12-.42a1.5,1.5,0,0,1,.23,1.27,5.9,5.9,0,0,1-2.73,3.1C448.88,59.91,448.66,60,448.46,60.08Z"/><path class="cls-35" d="M431.59,42.07c0-.52.92-1.5,1.52-1.61a5.89,5.89,0,0,1,3.52.22c.34.15,1,.91.84,1.49s-.84.51-1.29.51c-.84,0-1.29-.41-2.36-.32C432.91,42.51,431.66,43.23,431.59,42.07Z"/><path class="cls-35" d="M449.15,37a3.64,3.64,0,0,0-3.43,1.51c-.14.21-.53.48-.75.3s-.12-.75,0-1a4.11,4.11,0,0,1,4.21-2.71,25,25,0,0,1,3.64,1c.46.13,1,.37.76,1-.12.29-.76.46-1.15.42C451.22,37.38,450,37,449.15,37Z"/><path class="cls-36" d="M446,55.38a12.76,12.76,0,0,1-2.33.78c1.26-5.28.48-11.55-2.91-15.86a43.07,43.07,0,0,1,1.75,12.21c0,.64-.7,4.31-.31,4.65,1.15,1,4.33-1,4.73-2.5l-.93.72C445.59,55.55,446.29,55.2,446,55.38Z"/><path class="cls-37" d="M455.48,22.66c-.34-.27-.7-.54-1.05-.8-7.56-5.89-14.77-7.38-21.62-5.3a24.22,24.22,0,0,0-3.62,1.76,7.93,7.93,0,0,1,2.32-2.72,18.13,18.13,0,0,1,12.37-4.14c1.43,1,2.82,2.13,4.17,3.25a41.1,41.1,0,0,1,5.75,5.75c.38.49.77,1,1.16,1.46l0,0Q455.26,22.32,455.48,22.66Z"/><path class="cls-38" d="M429,21a31.2,31.2,0,0,1,14.81,0A34.15,34.15,0,0,1,455.47,26a5.17,5.17,0,0,0,1,.39c-2.15-1.66-4.21-3.51-6.47-5-7.9-5.06-16-4.74-20.58-1.36C429.15,20.27,429.14,20.7,429,21Z"/><path class="cls-39" d="M443.74,63.71c-5.07,0-8.38-3-10.48-7.66a9.43,9.43,0,0,0,.48,1.59,5.59,5.59,0,0,0,1,1.64,17.46,17.46,0,0,0,6.38,5.38,11.76,11.76,0,0,0,2.26.88,9.24,9.24,0,0,0,5.65-.16,8.13,8.13,0,0,0,1.2-.54,17.61,17.61,0,0,0,7.55-8.32,35.89,35.89,0,0,0,1.88-6.34C456.71,58.29,451.06,63.71,443.74,63.71Z"/><path class="cls-28" d="M462.32,51.17,460.75,42,459,40.3c.37,3,1,9.1,0,12.34-2.09,4.73-2.5,8.29-9.15,11.66-6.33,3.21-12.91-2.78-12.78-2.53l0,0a8.15,8.15,0,0,0,4.57,3.7,35.18,35.18,0,0,1,4.88,2c2.75,0,9.12-3.51,10.77-5.73C458.46,58.31,462.41,52.15,462.32,51.17Z"/><path class="cls-40" d="M462.11,50l-1.36-8L459,40.3c.37,3,1,9.1,0,12.34-1.42,3.21-2.07,5.88-4.41,8.32A17.3,17.3,0,0,0,462.11,50Z"/><path class="cls-41" d="M526.93,81.29a216.76,216.76,0,0,0-12.86-24.71c-2-2.95-5.9-2.72-9.52-3.34-1.63-.28-3.25-.59-4.87-.89a49.37,49.37,0,0,0,27.25,28.94Z"/><path class="cls-42" d="M534.44,153a11.3,11.3,0,0,1,1.71,5c.31,3.3-.61,6.62-1.66,9.81-2.52,7.64-4.12,15.52-8.14,22.53a1.71,1.71,0,0,0-.67-.22c-3.71-.65-6.28-2.69-10-2.37.31-6-.66-12.61-.88-18.66a35.11,35.11,0,0,1,1.93-14Z"/><path class="cls-43" d="M386.64,95a142.16,142.16,0,0,0,1.07,41.39c4.56-10.52,8.55-20.91,12.31-31.69A119,119,0,0,0,386.64,95Z"/><path class="cls-44" d="M414,118.44a136.41,136.41,0,0,1-3,24.68,76.06,76.06,0,0,0,12.15,20.78l-.19.13c-3.47,8.58-14.22,13.14-17.21,21.81a55.06,55.06,0,0,1,35.9-3.74,118.88,118.88,0,0,0-17.95-50.71A117.31,117.31,0,0,0,414,118.44Z"/><path class="cls-45" d="M533.1,221.67c-6.49-10.25-17.09-17.58-28.69-21.16S480,196.94,468,199.41c-4.5.93-8.53,6-12.9,4.6-35.54-11.52-67,5-67,5-10,7.11-14,15.3-19.83,25.53a21.38,21.38,0,0,1,15.14,12c.08-.14.17-.27.26-.42,3.34-7.15,8.55-11.58,15-16.07,15.94-11.05,34.43-16,53.7-18.17a85,85,0,0,1,45.54,3.3c8.79,3.05,19.16,10.57,25.43,18.52A30.4,30.4,0,0,1,533.1,221.67Z"/><path class="cls-46" d="M533.1,221.67c-6.49-10.25-17.09-17.58-28.69-21.16S480,196.94,468,199.41c-4.5.93-8.53,6-12.9,4.6-35.54-11.52-67,5-67,5-10,7.11-14,15.3-19.83,25.53a21.38,21.38,0,0,1,15.14,12c.08-.14.17-.27.26-.42,3.34-7.15,8.55-11.58,15-16.07,15.94-11.05,34.43-16,53.7-18.17a85,85,0,0,1,45.54,3.3c8.79,3.05,19.16,10.57,25.43,18.52A30.4,30.4,0,0,1,533.1,221.67Z"/><path class="cls-47" d="M371.25,233.26s39-37.65,75.22-31.69"/><path class="cls-47" d="M373.72,234.84s33.87-35.31,74.23-31.63"/><path class="cls-47" d="M376.2,236.41s28.74-32.95,73.23-31.56"/><path class="cls-47" d="M378.68,238s23.61-30.6,72.24-31.51"/><path class="cls-47" d="M381.15,239.56s18.49-28.25,71.25-31.44"/><path class="cls-47" d="M530.48,220.22s-33.05-30.4-73-20.3"/><path class="cls-47" d="M529,222.64S501.63,193,457.34,201.09"/><path class="cls-47" d="M527.57,225.05s-21.74-28.85-70.36-22.79"/><path class="cls-47" d="M526.12,227.47s-16.08-28.09-69-24"/><path class="cls-47" d="M524.66,229.88S514.24,202.57,457,204.6"/><path class="cls-48" d="M383.32,247.07c3.34-7.15,8.89-12.49,15.38-17,15.94-11.05,34.43-16,53.7-18.17a85,85,0,0,1,45.54,3.3c8.79,3.05,19.76,11.67,26,19.62l1.75-3.1c-6.26-7.94-19-17.27-27.78-20.33a85,85,0,0,0-45.54-3.29c-19.27,2.19-37.76,7.12-53.7,18.17-6.49,4.49-14.21,11-17.55,18.15Z"/><path class="cls-49" d="M452.37,206.28c-32-3.26-62.05,3.53-89.1,20.88,7.33-16.66,15.8-33.37,24.36-49.44l66.61-5Z"/><path class="cls-50" d="M387.63,177.72q-4.94,9.27-9.77,18.77c4.59,5.22,13.26,10.5,29.61,12.17a141.36,141.36,0,0,1,44.9-2.38l1.87-33.59Z"/><path class="cls-51" d="M532.48,164.17l-.52-6.42c-23.53-6.11-54.48-3.72-76.24,7.13-16.81-9.91-42.29-15.13-61.27-10.6-4,6.91-8.18,13.89-12.31,20.92-6.51,11.07-13,22.24-18.8,33.42,28.51-11.82,59.64-11.73,89-2.34l.4-.12a110,110,0,0,1,17.38-4,114.52,114.52,0,0,1,66.14,9.94Z"/><path class="cls-52" d="M455.72,164.88c-16.81-9.91-42.29-15.13-61.27-10.6-4,6.91-8.18,13.89-12.31,20.92a28.69,28.69,0,0,0,5.05,1.45c10.44,1.92,21.14-.57,31.75-.62s22.56,3.41,27.28,12.91c2,4,2.43,8.61,4,12.79a16.68,16.68,0,0,0,2.52,4.43,110,110,0,0,1,17.38-4c.47-.72.94-1.44,1.38-2.14,13.13-20.66,36.66-33.82,61-35.84l-.52-6.42C508.43,151.64,477.48,154,455.72,164.88Z"/><polygon class="cls-53" points="404.83 115.68 404.27 112.09 416.58 106.09 433.33 108.31 432.5 112.55 404.83 115.68"/><path class="cls-54" d="M416.59,110.29c0,.62-1.21,64.41-1.21,64.41s13.33-.4,15.33-.55c0-.6,3.49-62.25,3.49-62.25S420.9,110.82,416.59,110.29Z"/><path class="cls-55" d="M416.59,110.29c-3.42,1.53-12.7,5.39-12.7,5.39s3.39,44.43,3.82,55.81c0,.89.15,2.65.15,2.65s5.69.56,8.09.56C416.21,156.47,416.24,135.05,416.59,110.29Z"/><path class="cls-53" d="M412.58,121.21c0,1.23.07,2.28,0,3.32,0,.19-.4.5-.65.51-1.12.09-2.26.09-3.39.11-.13,0-.37-.06-.38-.1a11.75,11.75,0,0,1-.28-2.28c0-.26.49-.63.88-.73C409.92,121.73,411.12,121.52,412.58,121.21Z"/><path class="cls-56" d="M412.5,125.94c0,1,.08,1.94,0,2.84,0,.16-.67.39-1,.4-1.11,0-2.87.25-3.2-.11-.55-.63-.25-1.65-.22-2.51,0-.13.47-.32.76-.35C410,126.09,411.2,126,412.5,125.94Z"/><path class="cls-57" d="M412.58,116.77c0,1,.07,1.9,0,2.8a.91.91,0,0,1-.57.63c-1.27.34-2.58.62-3.88.92C407.21,118.62,408.17,117.68,412.58,116.77Z"/><path class="cls-53" d="M412.34,163.87l.06,2.55c-3.15.31-3.88-.13-3.32-2a1.2,1.2,0,0,1,.87-.49A23,23,0,0,1,412.34,163.87Z"/><path class="cls-53" d="M412.75,168.47c-.15.38-.16,1.05-.46,1.1a5.75,5.75,0,0,1-2.63,0,2.87,2.87,0,0,1-.51-2c0-.12.69-.24,1.06-.36a1,1,0,0,1,.25,0C412.78,167.22,412.52,167,412.75,168.47Z"/><path class="cls-57" d="M412.44,130.14a3.87,3.87,0,0,1,.09.8c-.18,2.53.73,2.12-3.33,2.11-.33,0-.72-.4-1-.65-.12-.1,0-.31,0-.47-.08-1.55-.08-1.55,2.1-1.63C410.93,130.27,411.61,130.2,412.44,130.14Z"/><path class="cls-53" d="M409.11,172.38a8.44,8.44,0,0,1,0-1.5c0-.17.33-.33.57-.46a1.84,1.84,0,0,1,.57-.09c2.26-.16,3,.36,2.37,1.69a1.09,1.09,0,0,1-.72.35C411,172.41,410.14,172.38,409.11,172.38Z"/><path class="cls-57" d="M412.32,137.24c0,.37,0,.65,0,.92,0,1.71,0,1.68-2.51,1.63-1,0-1.43-.24-1.42-1,0-2-.31-1.55,2.64-1.62C411.4,137.19,411.76,137.22,412.32,137.24Z"/><path class="cls-57" d="M412.24,161.1l0,2a5.07,5.07,0,0,1-.54.08c-2.78.13-3.25-.24-2.5-2.05Z"/><path class="cls-58" d="M412.09,140.61l.05,2.64a12.9,12.9,0,0,1-3.38-.56c-.45-.22-.45-1.56-.06-1.71A13.74,13.74,0,0,1,412.09,140.61Z"/><path class="cls-53" d="M412.29,134c.38,2.12-.81,2.8-3.46,2.14a.77.77,0,0,1-.5-.46c-.44-1.46-.18-1.67,2-1.68Z"/><path class="cls-53" d="M412,149.59l0,1.11,0,1.36c-1.11-.05-2.47.14-2.95-.19a1.32,1.32,0,0,1-.08-1.81C409.45,149.68,410.8,149.75,412,149.59Z"/><path class="cls-57" d="M410.4,146c-1.73,0-1.73,0-1.75-1.14s.06-1,2.12-1c1,0,1.46.12,1.41.87C412.1,146,412.16,146,410.4,146Z"/><path class="cls-57" d="M412,146.68,412,149a12.53,12.53,0,0,1-3-.38c-.37-.16-.44-1.33-.07-1.49A12.55,12.55,0,0,1,412,146.68Z"/><path class="cls-58" d="M409.12,159.94a5.32,5.32,0,0,1-.1-.57c-.09-1.3.41-1.61,2.49-1.47.23,0,.45.22.66.35,0,0,0,.1,0,.16C412.47,160,412.19,160.14,409.12,159.94Z"/><path class="cls-57" d="M410.53,157.25c-1.15.17-1.67-.09-1.61-.91.07-1.05,0-1,2.14-1.05,1.56,0,.91.69,1.06,1.13C412.4,157.29,411.57,157.35,410.53,157.25Z"/><path class="cls-56" d="M411.93,152.7l0,1.91a21.85,21.85,0,0,1-2.94-.29c-.2,0-.29-1,0-1.12A19.91,19.91,0,0,1,411.93,152.7Z"/><path class="cls-53" d="M422.93,165.28l-.09,5.05h-2.25l0-5.23Z"/><path class="cls-53" d="M427.63,166.41c0-1-.31-1.1-2.48-.88,0,1.3,0,2.62-.11,3.92-.05,1.11,0,1.15,2.45,1C427.54,169.08,427.59,167.75,427.63,166.41Z"/><path class="cls-58" d="M424.83,116c0-1.59,0-1.63-2.88-1.56a8.53,8.53,0,0,0-.12,1c0,1.82,0,3.61,0,5.39,0,1.32.19,1.39,2.86,1.16C424.74,120,424.78,118,424.83,116Z"/><path class="cls-53" d="M428.17,153.25c0-.16-.64-.39-1.06-.45-.67-.1-1.16,0-1.17.51,0,1-.13,2-.17,3s0,1.7-.07,2.57L428,159C428.09,157,428.18,155.14,428.17,153.25Z"/><path class="cls-53" d="M421.31,146c-.06,1.71-.1,3.41-.16,5.09,0,.43,0,.75,1.08.76s1.21-.32,1.22-.79c0-1.59.13-3.2.19-4.83,0-1.07-.05-1.1-2.19-.9A4.67,4.67,0,0,0,421.31,146Z"/><path class="cls-56" d="M428.55,148.6c0-.86,0-1.73.11-2.6,0-.5-.23-.75-1.2-.75s-1.15.24-1.17.69c-.06,1.77-.13,3.52-.24,5.24,0,.44.18.66,1.08.67s1.23-.21,1.23-.7c0-.84.05-1.69.08-2.55Z"/><path class="cls-58" d="M423.36,153.51c0-.43-.05-.74-1.09-.75s-1.2.32-1.21.79c0,1.4-.11,2.79-.15,4.16,0,1.06,0,1.06,2.35.94C423.29,156.94,423.31,155.23,423.36,153.51Z"/><path class="cls-53" d="M427.27,121.51c0,.65.46.81,1.44.81s1.19-.35,1.23-.85c.11-1.56.27-3.14.37-4.74s.1-1.64-2.84-1.76C427.41,117.19,427.36,119.36,427.27,121.51Z"/><path class="cls-58" d="M428.92,138.85c0-.18-.71-.46-1.14-.49s-1,.27-1.06.43c-.12,1.85-.15,3.68-.2,5.54h2.25C428.84,142.48,428.94,140.68,428.92,138.85Z"/><path class="cls-53" d="M421.36,143.28c0,1.11.22,1.21,2.27.94l.11-5.86h-2.33C421.39,140.1,421.38,141.7,421.36,143.28Z"/><path class="cls-53" d="M425.38,163.65c0,1,.1,1.12,2.25.94l.17-4.75h-2.31C425.45,161.17,425.43,162.41,425.38,163.65Z"/><path class="cls-53" d="M423,159.72c-2.16-.17-2.16-.17-2.21.86s-.08,1.87-.12,2.79.13,1.06,2.25.93Z"/><path class="cls-53" d="M426.8,136.46c0,1,.08,1.1,2.16.87l.23-6.4H427C426.9,132.82,426.86,134.66,426.8,136.46Z"/><path class="cls-56" d="M424,131.31c0-.2-.74-.49-1.18-.53s-1,.33-1,.53c-.09,2-.08,3.94-.11,5.93l2.21.11C424,135.25,424.05,133.29,424,131.31Z"/><path class="cls-53" d="M429.67,124c0-.56-.25-.8-1.18-.83s-1.18.32-1.19.83c0,1.66-.07,3.3-.12,4.92,0,1.08.07,1.13,2.25.92C429.5,127.93,429.55,126,429.67,124Z"/><path class="cls-53" d="M422,124.18c0,1.45-.05,2.89-.05,4.31a12.48,12.48,0,0,0,.11,1.29c.93-.11,2.08.33,2.11-.61.06-1.94.08-3.91.12-6C422.1,123,421.94,123.1,422,124.18Z"/><polygon class="cls-55" points="416.68 108.09 403.89 113.63 403.22 111.13 416.68 105.32 416.68 108.09"/><polygon class="cls-54" points="416.68 108.09 434.2 110.05 434.55 106.95 416.68 105.32 416.68 108.09"/><path class="cls-59" d="M440.92,183.51c-.38,0-11.43.6-11.84.61a5,5,0,0,1-.11-.52c-.2-2.51-.38-5.08-.6-7.68-.45-5.59-.95-11.39-1.43-17.43-.54-6.67-1.06-13.65-1.63-20.94a4.76,4.76,0,0,0-.33-1.66c-.35-.73,0-1,.8-1.28,3.71-1.24,9.32-1.77,13-3Z"/><path class="cls-55" d="M438.77,131.6c.38,9.83.73,19,1.08,27.6q.51,12.3,1,23.33c2,.15,18.15-1.07,19.29-1.45.38-13.51.81-28.41,1.28-44.84Z"/><path class="cls-60" d="M428.23,158.06a1.81,1.81,0,0,0,.46.06l8.9-1.8c.84-.16.94-.56.91-1.11-.22-4.94-.42-10-.65-15.3a7,7,0,0,0-.2-1l-10.83,2.71C427.37,147.4,427.55,152.84,428.23,158.06Z"/><path class="cls-61" d="M428.87,157.34c-.35-2.9-.56-5.85-.79-9-.14-2-.29-4.08-.48-6.18l9.51-2.37a.41.41,0,0,1,0,.11c.1,2.14.18,4.26.27,6.35.13,3,.25,6,.39,9a.71.71,0,0,1,0,.26h0a1.1,1.1,0,0,1-.31.1l-5.58,1.13Z"/><path class="cls-62" d="M447.79,137.29c1.83.38,3.43.66,4.95,1a1.74,1.74,0,0,1,.58,2.41,1.25,1.25,0,0,1-.88.15c-1.18-.2-2.39-.44-3.63-.71-1.07-.24-1.23-.45-1.22-1.5A12.7,12.7,0,0,1,447.79,137.29Z"/><path class="cls-63" d="M451.82,142.4c-.59-.09-1.2-.18-1.82-.24s-1.42-.12-2.1-.17c-.68,2-.46,2.4,1.44,2.61.71.08,1.42.16,2.12.22s1.24.06,1.91.09C453.74,142.81,453.64,142.66,451.82,142.4Z"/><path class="cls-63" d="M447.69,147.39c-.06,1.27.15,1.48,1.44,1.55,1.14.05,2.25.12,3.34.13a1.5,1.5,0,0,0,1-.28,1.39,1.39,0,0,0-.74-2.08c-.85-.11-1.73-.13-2.62-.18-.7,0-1.41-.05-2.18-.08A5.3,5.3,0,0,0,447.69,147.39Z"/><path class="cls-63" d="M457.85,160.5c.14-1.27,0-1.57-1.08-1.63s-2-.08-3.07-.05-1.12.21-1.15,1.46a8.68,8.68,0,0,0,.13,1.2l4.89.09A7.35,7.35,0,0,0,457.85,160.5Z"/><path class="cls-25" d="M456.25,156.85c1.86.08,2-.16,1.93-2.56a2,2,0,0,0-.1-.32,8.18,8.18,0,0,0-5.2,0l0,2.64C454.09,156.72,455.17,156.8,456.25,156.85Z"/><path class="cls-63" d="M457.1,170.91l.1-2.23a22.9,22.9,0,0,0-4.67-.13l0,2.21A17.84,17.84,0,0,0,457.1,170.91Z"/><path class="cls-63" d="M452.58,163.69l0,2.19a10.22,10.22,0,0,0,4.81.2l.1-2.19A45.65,45.65,0,0,0,452.58,163.69Z"/><path class="cls-63" d="M443.88,153.87c-.42,0-.56.42-.54,1s.26,1,.74,1c1.45.16,2.91.32,4.38.44a3.06,3.06,0,0,0,.9-.18l-.05-2.43A24.45,24.45,0,0,0,443.88,153.87Z"/><path class="cls-25" d="M449.44,163.58c-2,0-3.84,0-5.69.07l.11,1.73,5.51.52Z"/><path class="cls-63" d="M449,168.5c-1.49,0-3,0-4.43.09-.35,0-.55.25-.54.71a.75.75,0,0,0,.68.82c1.46.15,2.92.27,4.38.39.09,0,.19-.12.32-.21,0-.26.05-.53,0-.79a7.17,7.17,0,0,0-.1-.81C449.18,168.62,449.07,168.5,449,168.5Z"/><path class="cls-63" d="M444.48,160.81c1.33.18,2.66.29,4,.4a4.43,4.43,0,0,0,.91-.13l0-2.19-5.62.16C443.58,160.55,443.63,160.69,444.48,160.81Z"/><path class="cls-63" d="M434.79,163.38a1.23,1.23,0,0,0,.48-.92,18,18,0,0,0-.17-2.19,21.21,21.21,0,0,0-3.5,1.28c-.16.08-.28.55-.3.88,0,.51.08,1.06.16,1.9C432.65,164,433.72,163.75,434.79,163.38Z"/><path class="cls-63" d="M432.74,175.57c-.28.05-.44.33-.39.85s.13,1,.21,1.68a10.5,10.5,0,0,0,3.48-.31c.19,0,.35-.47.37-.8a16.87,16.87,0,0,0-.16-2C434.89,175.21,433.8,175.38,432.74,175.57Z"/><path class="cls-62" d="M435.29,167.87c.38-.14.45-1.2.21-2s-.61-.61-.95-.52c-.71.2-1.41.41-2.09.63-1,.33-1.07.6-.64,2.75A14.15,14.15,0,0,0,435.29,167.87Z"/><path class="cls-63" d="M435.62,172.68c.17,0,.35-.41.36-.69a19.87,19.87,0,0,0-.22-2.05c-1.29.28-2.41.49-3.49.79-.16.05-.3.47-.32.79a14.4,14.4,0,0,0,.14,1.77C433.35,173.08,434.48,172.92,435.62,172.68Z"/><path class="cls-64" d="M467.54,179.49a7.15,7.15,0,0,1-4.68-1.48,3.37,3.37,0,0,1-1.33-2.42,2.93,2.93,0,0,1,.57-1.92,8.29,8.29,0,0,1,.73-.84c.12-.12.18-.21,0-.34a2.65,2.65,0,0,1-1-2.55,3.75,3.75,0,0,1,1.41-2.67.5.5,0,0,0,.07-.73,2.44,2.44,0,0,1-.35-2.08,3.81,3.81,0,0,1,1.57-2.43.82.82,0,0,0,.41-.79,2.17,2.17,0,0,1,.56-1.73,1.08,1.08,0,0,0,.17-.41c.24-.7.47-1.41.74-2.1a2.12,2.12,0,0,1,.48-.71c.48-.5,1-.46,1.35.14a9.43,9.43,0,0,1,.58,1.53,3.65,3.65,0,0,1,.12.66,2,2,0,0,0,.28.8,3.38,3.38,0,0,1,.56,2.1c0,.11.05.28.13.32a2.63,2.63,0,0,1,1.43,2.1,4,4,0,0,1-.54,2.85.43.43,0,0,0,.14.66,3.56,3.56,0,0,1,1.23,4.36l-.39,1a.36.36,0,0,0,.08.45,3.26,3.26,0,0,1,1,2.11,2.91,2.91,0,0,1-.69,2.07,5.53,5.53,0,0,1-3.37,1.9C468.35,179.43,467.82,179.46,467.54,179.49Z"/><path class="cls-65" d="M505.6,158.46a2.27,2.27,0,0,1,1.65.94,8.44,8.44,0,0,1,1.5,2.9c.27.85.45,1.73.72,2.58.15.46.41.88.59,1.32a5.87,5.87,0,0,1-1.1,6.24,4.25,4.25,0,0,1-6.09.1,5.88,5.88,0,0,1-1.45-2.29,1.89,1.89,0,0,0-.09-.21l-.25-1.37a.68.68,0,0,0,0-.14,6.5,6.5,0,0,1,.56-2.88,4.87,4.87,0,0,0,.28-.84A18.92,18.92,0,0,1,503,161.2a4.61,4.61,0,0,1,2.1-2.65Z"/><path class="cls-66" d="M499.18,141.93a141.73,141.73,0,0,0,9.25,10.85,8.22,8.22,0,0,0-1.67,1.51c-.28-.3-.56-.62-.83-.94A59.57,59.57,0,0,1,498.77,143l-.12-.1Z"/><path class="cls-67" d="M478.17,177.55l.1.09c.11,1.45.28,3.19.38,4.56l-2.56-.71c-.12-1.36-.25-2.75-.38-4.18a1.61,1.61,0,0,1,1.1-.32A2.26,2.26,0,0,1,478.17,177.55Z"/><path class="cls-59" d="M499,181.11h0c-1.08.18-2.31.38-3.59.57q.25-4.08.94-8.64a3,3,0,0,1,2.14-.78,2.87,2.87,0,0,1,1.18.31h0A48.55,48.55,0,0,0,499,181.11Z"/><path class="cls-68" d="M479.58,163.4a44.47,44.47,0,0,0,6-1l6.15,4.82,1.2.94-.08,0c-2.73.82-9.53,2.39-10.16,2.81a32.57,32.57,0,0,0-6.16-7.41h0C477.58,163.57,478.58,163.5,479.58,163.4Z"/><path class="cls-69" d="M499.18,141.93l-.53.94c-2.45,4.35-4.62,8.44-6.69,12.27h0c-.24.42-.46.85-.69,1.26l-12.39-1.94-1.76-.27c2.46-3.84,5-7.95,7.7-12.57C489.77,141.71,494.12,141.6,499.18,141.93Z"/><path class="cls-59" d="M482.67,171c.54,4.67.75,8.73,1.34,12.69-.71-.2-3-.86-5.36-1.52-.1-1.37-.27-3.11-.38-4.56l-.1-.09a2.26,2.26,0,0,0-1.36-.56,1.61,1.61,0,0,0-1.1.32c.13,1.43.26,2.82.38,4.18-1.7-.47-3.12-.84-3.62-.92-.78-4.13-1.4-8.07-2.12-12.92,2-1.33,4-2.6,6.16-4A32.57,32.57,0,0,1,482.67,171Z"/><path class="cls-59" d="M491.27,156.41c.23-.41.45-.84.69-1.26-.28,4.18-.35,8.44-.25,12.1h0l-6.15-4.82a44.47,44.47,0,0,1-6,1c-.29-2.84-.53-5.8-.7-8.93Z"/><path class="cls-70" d="M484,183.72c-.59-4-.8-8-1.34-12.69.63-.42,7.43-2,10.16-2.81l.08,0-1.2-.94h0c-.1-3.66,0-7.92.25-12.1h0c2.07-3.83,4.24-7.92,6.69-12.27l.12.1a59.57,59.57,0,0,0,7.16,10.38c-.59,5.36-3,22.75-3.28,27.06-.63.18-2,.42-3.68.7h0a48.55,48.55,0,0,1,.69-8.53h0a2.87,2.87,0,0,0-1.18-.31,3,3,0,0,0-2.14.78q-.69,4.56-.94,8.64C491,182.37,486,183.14,484,183.72Z"/><path class="cls-53" d="M502.29,153.61c0-.1-.65-.25-1.07-.29-.67-.06-1.15,0-1.17.33,0,.64-.12,1.28-.17,1.91s-.05,1.1-.07,1.66l2.32.07C502.2,156,502.29,154.83,502.29,153.61Z"/><path class="cls-71" d="M497.48,153.78c0-.28-.05-.47-1.1-.48s-1.2.2-1.21.5c0,.91-.11,1.8-.15,2.69,0,.68,0,.68,2.36.6C497.41,156,497.43,154.89,497.48,153.78Z"/><path class="cls-53" d="M497.49,158.77c0-.11-.64-.26-1.06-.3-.67-.06-1.16,0-1.17.34,0,.64-.12,1.27-.17,1.91s0,1.09-.07,1.65l2.32.07C497.41,161.19,497.5,160,497.49,158.77Z"/><path class="cls-56" d="M502.28,159c0-.28,0-.48-1.1-.48s-1.2.2-1.21.5c0,.9-.11,1.8-.15,2.68,0,.69,0,.69,2.36.61C502.21,161.22,502.23,160.13,502.28,159Z"/><path class="cls-53" d="M497.5,163.6c0-.1-.65-.25-1.06-.29-.67-.06-1.16,0-1.18.34,0,.64-.12,1.27-.16,1.9s-.05,1.1-.08,1.66l2.32.07C497.41,166,497.51,164.82,497.5,163.6Z"/><path class="cls-53" d="M476.13,170.2c0-.14-.92-.35-1.47-.4-.83-.08-1.34,0-1.29.38.12.68.15,1.27.23,1.81s.14,1.3.21,1.68c.67.17,1.21-.18,2.15.06C476,172.77,476.14,171.64,476.13,170.2Z"/><path class="cls-56" d="M479.87,174.06c.06-1,.17-2.08.16-3.52,0-.14-.92-.35-1.47-.4-.82-.08-1.34,0-1.28.38.11.67.15,1.27.23,1.8s.13,1.31.2,1.69Z"/><path class="cls-53" d="M502.28,163.86c0-.28,0-.48-1.09-.48s-1.2.2-1.21.5c0,.9-.11,1.8-.15,2.68,0,.69,0,.69,2.35.6C502.21,166.06,502.23,165,502.28,163.86Z"/><path class="cls-72" d="M400.53,158.46a2.27,2.27,0,0,1,1.65.94,8.44,8.44,0,0,1,1.5,2.9c.28.85.46,1.73.73,2.58.14.46.4.88.58,1.32a5.85,5.85,0,0,1-1.1,6.24,4.25,4.25,0,0,1-6.09.1,5.88,5.88,0,0,1-1.45-2.29c0-.07-.06-.14-.08-.21l-.25-1.37a.66.66,0,0,0,0-.14,6.5,6.5,0,0,1,.56-2.88,3.61,3.61,0,0,0,.28-.84,19.67,19.67,0,0,1,1.06-3.61,4.67,4.67,0,0,1,2.11-2.65Z"/><path class="cls-73" d="M394.22,162.85a2.26,2.26,0,0,1,1.65.93,8.49,8.49,0,0,1,1.5,2.91c.28.85.46,1.73.73,2.58.14.45.4.87.58,1.31a5.86,5.86,0,0,1-1.1,6.25,4.25,4.25,0,0,1-6.09.09,5.74,5.74,0,0,1-1.45-2.29,1.76,1.76,0,0,0-.09-.2l-.25-1.38a.59.59,0,0,0,0-.13,6.47,6.47,0,0,1,.56-2.88,4.23,4.23,0,0,0,.28-.85,19.67,19.67,0,0,1,1.06-3.61,4.62,4.62,0,0,1,2.11-2.64Z"/><path class="cls-74" d="M457.24,186.49a4.94,4.94,0,0,1-4.66-2.73,4,4,0,0,1,.77-4.51,2.8,2.8,0,0,0,.53-.66.86.86,0,0,0-.08-.92,3.63,3.63,0,0,1,2.67-5.58,3.7,3.7,0,0,1,3.48,5.7,1.69,1.69,0,0,0-.21,1.09c0,.09.1.19.18.26a4.54,4.54,0,0,1,1.52,2.63,4,4,0,0,1-2.18,4.21A4.79,4.79,0,0,1,457.24,186.49Z"/><path class="cls-75" d="M433.91,188.72c.38.12,9.3.34,9.57.36a24.18,24.18,0,0,0,8.25-.76,17.3,17.3,0,0,0,2.12-.65,1.78,1.78,0,0,0,.73-2.89,3.33,3.33,0,0,0-1.56-1.1,4.17,4.17,0,0,0-3.32.09l.12.11c.31-.37.63-.74.92-1.12a2.13,2.13,0,0,0-.24-3.13,5.25,5.25,0,0,0-1.46-.86,9.68,9.68,0,0,0-5.56-.32,7.41,7.41,0,0,0-4.75,2.59s-.08,0-.09,0a2,2,0,0,0-1.94-.44,5.37,5.37,0,0,0-2.11,1.76s-2.67,3.19-2.15,5.72C432.59,188.67,433.91,188.72,433.91,188.72Z"/><path class="cls-67" d="M504.55,191.48c-.09.85-.5,1.56-.92,1.59s-.68-.65-.59-1.52.51-1.6.93-1.61S504.65,190.62,504.55,191.48Z"/><path class="cls-58" d="M489.87,188l-.82,1a2,2,0,0,1-1.86.67c-.54-.08-1.11-.17-1.45-.24a2.55,2.55,0,0,1-.71-.19,1.76,1.76,0,0,1-.49-.39l-.94-1C484.83,187.93,488.77,188,489.87,188Z"/><path class="cls-76" d="M481.22,192.06a2.35,2.35,0,0,1-1.85,1.56,4.13,4.13,0,0,1-2.85-.33,2.57,2.57,0,0,1-1.38-1.83l6.08.59Z"/><path class="cls-28" d="M503,188l-3.45-.07.15-2.86c.51,0,1,.09,1.49.16a1.74,1.74,0,0,1,.72.23,1.94,1.94,0,0,1,.55.68A2.74,2.74,0,0,1,503,188Z"/><path class="cls-67" d="M493.54,191.68c0,1.1-.57,2.06-1.34,2.15s-1.45-.73-1.49-1.86.58-2.14,1.38-2.21S493.52,190.56,493.54,191.68Z"/><path class="cls-58" d="M499,188.81a1.46,1.46,0,0,1-.06.46,7.89,7.89,0,0,0-1.52.14c0-.17,0-.32.05-.48A6.58,6.58,0,0,1,499,188.81Z"/><path class="cls-28" d="M498.74,185l-.3,2.88-5.56-.17a6.64,6.64,0,0,1,2.53-2.35,6,6,0,0,1,2.33-.38Z"/><path class="cls-58" d="M479,187.13l-1.41.81a2.45,2.45,0,0,1-.71.33,3.89,3.89,0,0,1-.92.08,13.26,13.26,0,0,1-2.44,0c.07-.14.15-.27.23-.41a3.57,3.57,0,0,1,1.35-1.46C476.54,186.68,477.65,186.89,479,187.13Z"/><path class="cls-77" d="M475.14,191.46l-2.17-.22a3.44,3.44,0,0,1,.55-2.93,13.26,13.26,0,0,0,2.44,0,3.89,3.89,0,0,0,.92-.08,2.45,2.45,0,0,0,.71-.33l1.41-.81c-1.35-.24-2.46-.45-3.9-.69a11.11,11.11,0,0,1,1.39-.65c.43-.16.86-.32,1.3-.46l0,0c4.77.73,9.19,1.43,13.14,1.94a8.09,8.09,0,0,1,3-2.6,2.83,2.83,0,0,1,.83-.33v0q-3.94-.65-8.5-1.08l1.12-.37a26,26,0,0,1,7,0,49,49,0,0,1,5.92,1.23,7.49,7.49,0,0,1,2.8,1.12,14.25,14.25,0,0,0,2.38,3.38,4.21,4.21,0,0,1,.25,2.18,3,3,0,0,1-.4,1.28l-.34,0c0-.13,0-.28,0-.42.11-1.39-.32-2.51-1-2.48s-1.3,1.23-1.4,2.66c0,.17,0,.34,0,.49l-1.19.06-7.3.39a5.61,5.61,0,0,0,.12-.85c.06-1.87-.88-3.38-2.13-3.34s-2.29,1.7-2.32,3.66c0,.23-.15.43-.12.63h0l-1.1-.11-7.39-.72Zm27.58-2.24a1.74,1.74,0,0,0,.06-.45,5.94,5.94,0,0,0-1.39.12l-.06.45A7.39,7.39,0,0,1,502.72,189.22Zm-3.17-1.28L503,188a2.74,2.74,0,0,0-.54-1.86,1.94,1.94,0,0,0-.55-.68,1.74,1.74,0,0,0-.72-.23c-.48-.07-1-.13-1.49-.16Zm-.6,1.33a1.46,1.46,0,0,0,.06-.46,6.58,6.58,0,0,0-1.53.12c0,.16,0,.31-.05.48A7.89,7.89,0,0,1,499,189.27Zm-.51-1.38.3-2.88-1,0a6,6,0,0,0-2.33.38,6.64,6.64,0,0,0-2.53,2.35ZM489.05,189l.82-1c-1.1,0-5-.11-6.27-.12l.94,1a1.76,1.76,0,0,0,.49.39,2.55,2.55,0,0,0,.71.19c.34.07.91.16,1.45.24A2,2,0,0,0,489.05,189Z"/><path class="cls-28" d="M486.28,183.26q4.56.44,8.5,1.08v0a2.83,2.83,0,0,0-.83.33,8.09,8.09,0,0,0-3,2.6c-3.95-.51-8.37-1.21-13.14-1.94l0,0a9.15,9.15,0,0,1,4.57-.42A21.9,21.9,0,0,1,486.28,183.26Z"/><path class="cls-58" d="M502.78,188.77a1.74,1.74,0,0,1-.06.45,7.39,7.39,0,0,0-1.39.12l.06-.45A5.94,5.94,0,0,1,502.78,188.77Z"/><path class="cls-76" d="M504.55,191.48c.1-.86-.16-1.55-.58-1.54s-.84.73-.93,1.61.17,1.55.59,1.52S504.46,192.33,504.55,191.48Zm-.49-2.3c.66,0,1.09,1.09,1,2.48,0,.14,0,.29,0,.42a2.22,2.22,0,0,1-1.9,2c-.89.09-1.57-.53-1.65-1.68h0l1.19-.06c0-.15,0-.32,0-.49C502.76,190.41,503.39,189.21,504.06,189.18Z"/><path class="cls-76" d="M489.71,192.88c0-.2.12-.4.12-.63,0-2,1-3.62,2.32-3.66s2.19,1.47,2.13,3.34a5.61,5.61,0,0,1-.12.85,3.12,3.12,0,0,1-2.68,2.38,2.64,2.64,0,0,1-2.87-2.39l1.1.11Zm2.49,1c.77-.09,1.37-1.05,1.34-2.15s-.66-2-1.45-1.92-1.42,1.06-1.38,2.21S491.42,193.93,492.2,193.83Z"/><path class="cls-78" d="M401.66,188.38h-1c-.35,0-.39,0-.32-.39.21-1,.42-2,.64-3l0-.14c0-.08,0-.14-.1-.15h-.11c-.33,0-.34,0-.32-.39s0-.23.26-.26c.59-.08.48,0,.49-.52l.12-7.23c0-.26,0-.52,0-.79s0-.26-.17-.32A.53.53,0,0,1,401,175a.46.46,0,0,1-.1-.29.65.65,0,0,0-.06-.39l-.77-2.22a.4.4,0,0,0-.26-.32c-.17,0-.17-.15,0-.26l1.18-.79a.21.21,0,0,0,.11-.31.56.56,0,0,1,.21-.65.6.6,0,0,1,.94.61c-.08.21,0,.29.16.39.35.22.69.46,1,.7s.23.23,0,.44a.56.56,0,0,0-.09.19c-.26.73-.51,1.46-.76,2.19a.92.92,0,0,0-.1.52c0,.08-.07.21-.14.28a.36.36,0,0,0-.14.3l0,8.1c0,.1,0,.2,0,.3s.06.18.19.17a1.17,1.17,0,0,1,.32,0c.16,0,.22.07.2.23a2.65,2.65,0,0,1-.07.48.28.28,0,0,1-.16.19c-.15,0-.14.11-.13.22.05.4.09.81.15,1.22.08.59.16,1.19.25,1.78,0,.21,0,.28-.26.28Z"/><path class="cls-58" d="M401.78,171.88H400.3c-.14,0-.17,0-.12.18.28.72.55,1.44.82,2.17a.2.2,0,0,0,.21.16c.3,0,.6,0,.9,0a.22.22,0,0,0,.24-.18c.24-.7.48-1.39.73-2.09.05-.12,0-.17-.13-.18Z"/><path class="cls-78" d="M415.41,182.48h-1c-.34,0-.39-.06-.32-.39.21-1,.43-2,.64-3l0-.13c0-.09,0-.15-.1-.15h-.11c-.33,0-.35-.06-.33-.39s0-.23.26-.26c.6-.08.49-.05.49-.53.05-2.41.08-4.81.13-7.22,0-.27,0-.53,0-.79s0-.26-.17-.32a.53.53,0,0,1-.24-.18.43.43,0,0,1-.1-.29.72.72,0,0,0-.06-.39c-.26-.74-.52-1.48-.77-2.23,0-.14-.09-.25-.26-.31s-.17-.15,0-.27c.39-.26.78-.53,1.18-.78a.23.23,0,0,0,.11-.31.58.58,0,0,1,.21-.66.59.59,0,0,1,.66,0,.56.56,0,0,1,.27.64c-.07.21,0,.29.16.38l1,.7c.22.15.23.23,0,.44a.44.44,0,0,0-.1.19l-.75,2.2a.92.92,0,0,0-.11.52c0,.08-.06.2-.14.27a.4.4,0,0,0-.13.31c0,2.7,0,5.4,0,8.1,0,.1,0,.2,0,.3s.06.17.18.16l.33,0c.16,0,.21.07.2.23a2.78,2.78,0,0,1-.08.49c0,.07-.09.17-.15.18s-.14.12-.13.22c.05.41.09.82.14,1.22.08.6.17,1.19.25,1.79,0,.2,0,.27-.26.28Z"/><path class="cls-58" d="M415.52,166h-1.47c-.14,0-.17,0-.12.17.28.72.55,1.45.81,2.17a.21.21,0,0,0,.22.16h.9a.22.22,0,0,0,.24-.17c.24-.7.48-1.4.73-2.09,0-.13,0-.18-.13-.18Z"/><path class="cls-78" d="M508.28,181.88h-1c-.34,0-.39-.05-.31-.38.21-1,.42-2,.64-3l0-.13c0-.09,0-.15-.1-.16h-.11c-.33,0-.35-.05-.33-.39s0-.23.26-.26c.6-.07.49,0,.5-.52l.12-7.22c0-.27,0-.53,0-.8s0-.26-.17-.31a.72.72,0,0,1-.24-.18.45.45,0,0,1-.1-.3.65.65,0,0,0-.06-.39c-.26-.74-.52-1.48-.77-2.22,0-.14-.09-.26-.26-.31s-.17-.16,0-.27l1.18-.79c.13-.08.17-.15.11-.3a.58.58,0,0,1,.21-.66.6.6,0,0,1,.93.61c-.07.21,0,.29.16.39l1,.7c.22.15.23.23,0,.44a.57.57,0,0,0-.1.19l-.75,2.2a.81.81,0,0,0-.1.51.41.41,0,0,1-.15.28.38.38,0,0,0-.13.3q0,4.05,0,8.1c0,.1,0,.2,0,.3s.06.18.18.17a1.83,1.83,0,0,1,.33,0c.16,0,.21.07.2.23a3.7,3.7,0,0,1-.07.48.28.28,0,0,1-.16.19c-.15,0-.14.12-.13.22.05.41.09.81.14,1.22.08.6.17,1.19.25,1.79,0,.2,0,.27-.26.27Z"/><path class="cls-58" d="M508.4,165.37h-1.48c-.14,0-.17,0-.12.18.28.72.55,1.45.81,2.17a.21.21,0,0,0,.22.16h.9a.23.23,0,0,0,.24-.18c.24-.69.48-1.39.73-2.08,0-.13,0-.18-.13-.19Z"/><path class="cls-79" d="M423.18,184.09c0-.38-.79-.32-.79-.32a.08.08,0,0,1,0-.09,1.72,1.72,0,0,1,.07-.21c1.13-1.19-.31-2.22-1.08-2.26a3.22,3.22,0,0,0-1.26.35c-.61.43-.91-1.93-.88-2,.18-.65-.47-.52-.47-.52l-.39,0a.19.19,0,0,0-.17.15.37.37,0,0,0,.11.34.59.59,0,0,1,.14.22c.2.79.4,1.57.56,2.35a10,10,0,0,1,.25,2,8.41,8.41,0,0,1-.33,2.42c-.08.29-.11.21.19.33a.58.58,0,0,0,.56-.1c.1-.07.1-.15,0-.19s-.06,0-.05-.07c0-.24.07-.49.1-.73a2.78,2.78,0,0,1,.46-1.21.33.33,0,0,1,.27-.17,2.11,2.11,0,0,1,.35,0,.93.93,0,0,1,.6.29,2.6,2.6,0,0,1,.62.9,4.39,4.39,0,0,1,.21,1.88c0,.1-.05.2-.07.3s0,.07,0,.08l.21.07a.65.65,0,0,0,.53-.16.13.13,0,0,0,0-.18.16.16,0,0,1-.06-.08c.15-2.17-.77-3-.77-3h.11S423.22,184.46,423.18,184.09Zm-2.23-.21a1,1,0,0,1-1.18-.9,1.27,1.27,0,0,1,1.21-1.13,1,1,0,0,1,1.12.91A1.27,1.27,0,0,1,421,183.88Z"/><path class="cls-79" d="M406.35,185.2l12.36-1.41,4,.33s.12.14.11.19-.2.22-.2.22L409,186.09Z"/><path class="cls-79" d="M405.07,180.13a16,16,0,0,1,.84,3.31c-.05.78,0,1.27,0,1.27l13.29-1.29s-.16-3.53-.88-4.28Z"/><path class="cls-79" d="M409.78,186c-.06-.47-.91-.5-.91-.5a.17.17,0,0,1-.05-.12,2.25,2.25,0,0,1,.08-.24c1.25-1.3-.39-2.65-1.21-2.74a2.87,2.87,0,0,0-1.27.31c-.58.42-.88-2.12-.85-2.22.16-.68-.43-.55-.43-.55l-.36.06a.17.17,0,0,0-.14.16.41.41,0,0,0,.1.34.72.72,0,0,1,.12.23c.18.84.37,1.68.52,2.52a14.41,14.41,0,0,1,.24,2.17,10.86,10.86,0,0,1-.3,2.66c-.07.3-.11.21.18.41a.48.48,0,0,0,.55,0c.1-.05.09-.15,0-.22a.12.12,0,0,1-.05-.09c0-.27.07-.54.1-.81a2.84,2.84,0,0,1,.44-1.31.3.3,0,0,1,.27-.16l.36,0a1.12,1.12,0,0,1,.63.43,4.07,4.07,0,0,1,.69,1.19,6.3,6.3,0,0,1,.28,2.36,2.17,2.17,0,0,1-.07.35.11.11,0,0,0,0,.11l.24.15a.56.56,0,0,0,.61-.06.14.14,0,0,0,0-.21.2.2,0,0,1-.06-.12,5.54,5.54,0,0,0-1-3.85l.13,0S409.84,186.42,409.78,186Zm-2.45-.59a1.16,1.16,0,1,1,1.19-1.15A1.17,1.17,0,0,1,407.33,185.36Z"/><path class="cls-35" d="M403.33,338.14c.89-2.35,2.76-3.4,4.64-4.87-.57.92-1.15,1.84-1.74,2.75-1.15,1.78-2.48,3.63-4.34,4.51A5.85,5.85,0,0,0,403.33,338.14Z"/><path class="cls-28" d="M401.89,340.53a4.27,4.27,0,0,1-4.45,1.1,6.15,6.15,0,0,1-3.73-5.52,17.18,17.18,0,0,1,.24-2.32,13.05,13.05,0,0,0,.11-1.75c.07.06.16.11.24.17h0c1.8,1.31,6.18,3.84,9,5.92A5.85,5.85,0,0,1,401.89,340.53Z"/><path class="cls-28" d="M403.33,338.14c-2.85-2.08-7.23-4.61-9-5.92h0a1.76,1.76,0,0,0,.59-1.1,19.78,19.78,0,0,0,.37-6.6,5.09,5.09,0,0,1-.88-1.2,34.88,34.88,0,0,1,4.2-6.32c2.05-2.7,4.42-5.44,6.72-7.94a1.58,1.58,0,0,1,.69-.85,1,1,0,0,1,1.35.14,1.6,1.6,0,0,1,.19.57c.12.61.23,1.23.34,1.84l.93,4.92a41.93,41.93,0,0,1,.45,15.5c-.41.7-.83,1.4-1.27,2.09h0C406.09,334.74,404.22,335.79,403.33,338.14Z"/><path class="cls-35" d="M412,307c3.09,1.26,4.7,3.85,6.53,6.05a153,153,0,0,1-9.27,18.12,41.93,41.93,0,0,0-.45-15.5l-.93-4.92C409.46,308.78,410.81,308.93,412,307Z"/><path class="cls-80" d="M433.5,244.32c-8.58,20.21-18,40.87-22.89,62.27,5.35,1.29,6.77,6.23,10.14,8.73,15.17-22.65,29.48-48.88,44.92-69.78,4-5.47,8-11.19,10-17.67a66.2,66.2,0,0,0,2.82-23.34,49.4,49.4,0,0,0-5.31-8.4,9.31,9.31,0,0,0-7-3.12c-5.84.64-7.68,4.48-13.42,6.82-9.12,15.28-15.6,27.45-19.24,44.86"/><path class="cls-81" d="M402.28,333.39a19,19,0,0,0-7.33-2.62,3.43,3.43,0,0,1-.06.34,1.76,1.76,0,0,1-.59,1.1c-.08-.06-.17-.11-.24-.17a13.05,13.05,0,0,1-.11,1.75,17.18,17.18,0,0,0-.24,2.32,6.15,6.15,0,0,0,3.73,5.52,4.27,4.27,0,0,0,4.45-1.1,5.85,5.85,0,0,0,1.44-2.39,6.8,6.8,0,0,1,1.78-2.6A19,19,0,0,0,402.28,333.39Z"/><path class="cls-82" d="M409.76,324.24a51.93,51.93,0,0,0-1-8.57l-.93-4.92c-.11-.61-.22-1.23-.34-1.84a1.6,1.6,0,0,0-.19-.57,1,1,0,0,0-1.35-.14,1.58,1.58,0,0,0-.69.85c-2.3,2.5-4.67,5.24-6.72,7.94a35.88,35.88,0,0,0-4.13,6.19,26.25,26.25,0,0,0,2.61,1A22.41,22.41,0,0,0,409.76,324.24Z"/><path class="cls-83" d="M429.69,284.46c-3.68-4.82-5.48-10.68-6.08-16.76-5.21,12.73-10,25.66-13,38.89,5.35,1.29,6.77,6.23,10.14,8.73,5.37-8,10.63-16.48,15.87-25A22,22,0,0,1,429.69,284.46Z"/><path class="cls-84" d="M456.65,211.87a22.19,22.19,0,0,1-5.47-9.3c-8.27,14-14.2,25.76-17.62,42.12l-.06-.37c-3.28,7.72-6.67,15.51-9.89,23.38.6,6.08,2.4,11.94,6.08,16.76a22,22,0,0,0,6.93,5.86c9.57-15.55,19.07-31.28,29.05-44.78,4-5.47,8-11.19,10-17.67A60.09,60.09,0,0,0,478,217.6l-.53.14A22.58,22.58,0,0,1,456.65,211.87Z"/><path class="cls-85" d="M478.51,204.53a49.4,49.4,0,0,0-5.31-8.4,9.31,9.31,0,0,0-7-3.12c-5.84.64-7.68,4.48-13.42,6.82l-1.62,2.74a22.19,22.19,0,0,0,5.47,9.3,22.58,22.58,0,0,0,20.79,5.87l.53-.14A75.46,75.46,0,0,0,478.51,204.53Z"/><path class="cls-28" d="M510.55,375.62a4.67,4.67,0,0,1,1,5,9.25,9.25,0,0,1-2.05,2.92A73.08,73.08,0,0,1,498.72,393a4.49,4.49,0,0,1-1.81.91,1.76,1.76,0,0,1-1.85-.73c0-.36,0-.71,0-1.07.07-3.89.25-7.75.69-11.62a3.54,3.54,0,0,1,3.9-3.89c2.86-.32,5.68-.64,8.53-.82C509,375.68,509.77,375.65,510.55,375.62Z"/><path class="cls-35" d="M498.15,371a80.26,80.26,0,0,0,10.05,4.76c-2.85.18-5.67.5-8.53.82a3.54,3.54,0,0,0-3.9,3.89c-.44,3.87-.62,7.73-.69,11.62h0c-4.33-7.1-8.78-13.9-11.4-21.81a16.14,16.14,0,0,0,2.58-.34,11.1,11.1,0,0,0,2.4-1,16.53,16.53,0,0,0,3.7-2.27C493.72,368.53,496.11,369.74,498.15,371Z"/><path class="cls-80" d="M435.5,209a174.55,174.55,0,0,0,11,87.82c2.06,5.1,4.35,10.11,6.65,15.11,8.37,18.26,18.75,40.52,27.13,58.78,2-.56,4-.31,6-.79a10.63,10.63,0,0,0,2.4-1c1.52-.81,3.87-1.82,4.51-3.41-10.5-22.22-10.12-49.32-11.48-73.86-.57-10.28-.83-20.71-3.86-30.55-3.13-10.17-9.07-19.24-13.13-29.08a83.45,83.45,0,0,1-5.61-21.18c-.29-2.21-.56-4.61-2.1-6.22-2.34-2.44-6.31-1.89-9.6-1.15C442.57,204.52,438.76,205.36,435.5,209Z"/><path class="cls-86" d="M495.9,369.63a11.75,11.75,0,0,0-3.34,1.12,12.43,12.43,0,0,0-5.71,7.13c2.41,4.87,5.33,9.46,8.21,14.18h0c.07-3.89.25-7.75.69-11.62a3.54,3.54,0,0,1,3.9-3.89c2.86-.32,5.68-.64,8.53-.82A80.26,80.26,0,0,1,498.15,371C497.42,370.53,496.65,370.09,495.9,369.63Z"/><path class="cls-87" d="M435.5,209a174.55,174.55,0,0,0,11,87.82c2.06,5.1,4.35,10.11,6.65,15.11,8.37,18.26,18.75,40.52,27.13,58.78,2-.56,4-.31,6-.79a10.63,10.63,0,0,0,2.4-1c1.52-.81,3.87-1.82,4.51-3.41-10.5-22.22-10.12-49.32-11.48-73.86-.57-10.28-.83-20.71-3.86-30.55-3.13-10.17-9.07-19.24-13.13-29.08a83.45,83.45,0,0,1-5.61-21.18c-.29-2.21-.56-4.61-2.1-6.22-2.34-2.44-6.31-1.89-9.6-1.15C442.57,204.52,438.76,205.36,435.5,209Z"/><path class="cls-88" d="M458.45,270.92c-2.46,14.54,1.74,29.71,9.62,42.17A91,91,0,0,0,484.27,332c-1.65-13.42-1.89-27.25-2.61-40.35-.57-10.28-.83-20.71-3.86-30.55a97.89,97.89,0,0,0-6.4-15A45.65,45.65,0,0,0,458.45,270.92Z"/><path class="cls-85" d="M449,227a22.9,22.9,0,0,0,12.07-5.61,81.75,81.75,0,0,1-2.05-10.54c-.29-2.21-.56-4.61-2.1-6.22-2.34-2.44-6.31-1.89-9.6-1.15-4.79,1.07-8.6,1.91-11.86,5.57-.65,4.86-1.07,9.75-1.31,14.65A23.31,23.31,0,0,0,449,227Z"/><path class="cls-18" d="M534.44,153a11.3,11.3,0,0,1,1.71,5c.31,3.3-.61,6.62-1.66,9.81-2.52,7.64-4.12,15.52-8.14,22.53a1.71,1.71,0,0,0-.67-.22c-3.71-.65-6.28-2.69-10-2.37.31-6-.66-12.61-.88-18.66a35.11,35.11,0,0,1,1.93-14Z"/><path class="cls-25" d="M528.84,203.5c-1,3.82-4.08,6.94-6.56,10.11a14.5,14.5,0,0,1-3.1-.33,2.69,2.69,0,0,1-1,1.13,21.44,21.44,0,0,1-10.5-4.11c.72-2.94,1.71-4.74,2.2-7.72a24.84,24.84,0,0,0-.42-3.33,23.47,23.47,0,0,0-4.78,7.72L503,203.21c2.69-6.06,6.64-11.93,12.62-15.42,3.77-.32,6.34,1.72,10,2.37a1.71,1.71,0,0,1,.67.22,1.31,1.31,0,0,1,.39.62,13.35,13.35,0,0,1,.61,3.08C527.74,197.32,528.54,200.25,528.84,203.5Z"/><path class="cls-89" d="M527.61,206.16a25.16,25.16,0,0,0-5.29-2.82,23.37,23.37,0,0,0-10.48-1.59c.06.47.1.95.13,1.43-.38,2.83-1.22,4.53-1.79,7.33a17.68,17.68,0,0,0,9.08,3.92,2.51,2.51,0,0,0,.86-1.08,11.89,11.89,0,0,0,2.67.32C524.45,211.25,526.47,208.87,527.61,206.16Z"/><path class="cls-18" d="M534.44,153a11.3,11.3,0,0,1,1.71,5c.31,3.3-.61,6.62-1.66,9.81-2.52,7.64-4.12,15.52-8.14,22.53a1.71,1.71,0,0,0-.67-.22c-3.71-.65-6.28-2.69-10-2.37.31-6-.66-12.61-.88-18.66a35.11,35.11,0,0,1,1.93-14Z"/><path class="cls-42" d="M534.44,153a11.3,11.3,0,0,1,1.71,5c.31,3.3-.61,6.62-1.66,9.81-2.52,7.64-4.12,15.52-8.14,22.53a1.71,1.71,0,0,0-.67-.22c-3.71-.65-6.28-2.69-10-2.37.31-6-.66-12.61-.88-18.66a35.11,35.11,0,0,1,1.93-14Z"/><path class="cls-18" d="M387.71,136.38c5.77-13.32,12.58-28.35,17.22-42.31,0,0,8.36,7.92,8.49,7.91,0,14.93.77,26.93-2.51,41.14a82.7,82.7,0,0,1-4.83,14.76,23.87,23.87,0,0,1-3.7,6.26c-1.62,1.83-6.12,4.82-8.62,5.23-3.05.68-7.45-1.31-8.35-4.15-1.57-5-3-10.15-2.36-15.3.49-4.14,2.24-8,3.93-11.88C387.23,137.49,387.47,136.93,387.71,136.38Z"/><path class="cls-90" d="M400.16,104.69c-3.76,10.78-7.75,21.17-12.31,31.69-.24.55-.47,1.11-.72,1.66-1.7,3.85-3.44,7.74-3.94,11.88-.61,5.15.79,10.33,2.36,15.3.9,2.84,5.31,4.83,8.35,4.15,2.51-.41,7-3.4,8.62-5.23a23.87,23.87,0,0,0,3.7-6.26,81.91,81.91,0,0,0,4.83-14.76,136.41,136.41,0,0,0,3.05-24.68A119.9,119.9,0,0,0,400.16,104.69Z"/><path class="cls-91" d="M388.13,153.21A12.74,12.74,0,0,0,383,154.6a49.73,49.73,0,0,0,2.4,10.62c.9,2.84,5.3,4.83,8.35,4.15,2.2-.36,5.94-2.72,7.91-4.53a12.76,12.76,0,0,0-1.25-4.44A13.36,13.36,0,0,0,388.13,153.21Z"/><path class="cls-22" d="M407.45,61.67a118.2,118.2,0,0,0-10,7.57c-2.58,2.19-5,4.48-7.34,6.86q-1.36,5.58-2.32,11.19a29.76,29.76,0,0,0,5.09-2.36,30.14,30.14,0,0,0,8.32-7.18c.37-.48.74-1,1.09-1.46A29.29,29.29,0,0,0,404.71,72a4.16,4.16,0,0,0,1.13-.9l.42-2.51a2.26,2.26,0,0,1-.26.16A29.58,29.58,0,0,0,407.45,61.67Z"/><path class="cls-92" d="M414.79,62.73H419a0,0,0,0,1,0,0V87.46a2.07,2.07,0,0,1-2.07,2.07h0a2.07,2.07,0,0,1-2.07-2.07V62.73A0,0,0,0,1,414.79,62.73Z" transform="translate(47.25 -131.14) rotate(18.93)"/><path class="cls-93" d="M417.76,67.14a17.38,17.38,0,0,0,1.93.8,17.57,17.57,0,0,0,2,.55l9-26.23-3.93-1.35Z"/><circle class="cls-92" cx="425.58" cy="50.74" r="17.28"/><circle class="cls-94" cx="425.58" cy="50.74" r="16.02"/><circle class="cls-95" cx="425.58" cy="50.74" r="15.83"/><circle class="cls-92" cx="425.58" cy="50.74" r="15.24"/><circle class="cls-96" cx="425.58" cy="50.74" r="15.04"/><g class="cls-97"><path class="cls-25" d="M426.27,49.79a6.57,6.57,0,0,1-5.71,1.6A8.24,8.24,0,0,1,416,47.2a4.68,4.68,0,0,1-.58-1.77,3.69,3.69,0,0,1,.88-2.69,3.89,3.89,0,0,1,5.85-.26c.85,1.54,1.71,3.18,2.65,5,.38.61.78,1.21,1.18,1.79v0C426.05,49.47,426.16,49.62,426.27,49.79Z"/><path class="cls-98" d="M417.7,48.35a3.75,3.75,0,0,1,.89-2.7,3.79,3.79,0,0,1,4.67-1c-.39-.73-.77-1.44-1.15-2.13a3.89,3.89,0,0,0-5.85.26,3.69,3.69,0,0,0-.88,2.69A4.68,4.68,0,0,0,416,47.2a9.39,9.39,0,0,0,2.32,2.91A4.69,4.69,0,0,1,417.7,48.35Z"/><path class="cls-25" d="M414.83,17.25c1.09,4.42,3.77,8.3,6.29,12,2,2.54,5.79,2.77,8.54,1.5s4.82-3.74,6.87-6.07,4.28-4.68,7.14-5.62a13,13,0,0,1,3.57-.58,7.82,7.82,0,0,1,1.26.71c2.74,1.76,4.53,4.14,6.84,6.54.54,1.15,1,2.33,1.47,3.53.71,1.91,2.48,3.94,2.91,5.95a47.31,47.31,0,0,1,.83,5.27,44.44,44.44,0,0,1-.79,13.77,21.3,21.3,0,0,1-7.38,11.42,11,11,0,0,1-1.33.89,11.43,11.43,0,0,1-6.75,1.34,14.38,14.38,0,0,1-2.89-.58,21.19,21.19,0,0,1-8.75-5.08,6.9,6.9,0,0,1-1.54-1.75c-1.2-1.9-1.71-4.31-2.6-6.57-.13-.3-.25-.6-.4-.89a35.47,35.47,0,0,0-5-7c-.11-.13-.21-.25-.31-.39h0c-1.82-2.72-1.89-4-2.22-7.34a7.74,7.74,0,0,1,.08-2.8c.23-.87.44-1.5,1.25-1.68-.09.06.25.13.06,0a14,14,0,0,1-3.73-4.48,36.77,36.77,0,0,1-3.91-10.8C414.48,18.14,414.65,17.69,414.83,17.25Z"/><path class="cls-99" d="M421.91,33.86s.78-1.45,4.07-2.36-9.89-16.86-9.89-16.86-2.77,4.47-2.54,6.59C414.88,34,421.91,33.86,421.91,33.86Z"/><path class="cls-28" d="M419.2,40.21c-1.93-3-3.78-5.54-6.28-8.81a2.55,2.55,0,0,1-.6-1.12,2.5,2.5,0,0,1,.05-.86c.44-2.6.37-6.33,2-10.86a36.77,36.77,0,0,0,3.91,10.8A14,14,0,0,0,422,33.84l-.06,0c-.81.18-1,.81-1.25,1.68a7.74,7.74,0,0,0-.08,2.8c.33,3.32.4,4.62,2.22,7.34-.38-.47-.76-1-1.12-1.43C420.81,42.76,420,41.44,419.2,40.21Z"/><path class="cls-100" d="M414.33,18.56c-1.59,4.53-1.52,8.26-2,10.86a2.5,2.5,0,0,0-.05.86,2.55,2.55,0,0,0,.6,1.12c1.51,2,2.78,3.68,4,5.38a46.17,46.17,0,0,0,.57-9A33.89,33.89,0,0,1,414.33,18.56Z"/><path class="cls-28" d="M438.82,2.13a12.06,12.06,0,0,1,6.86,2.94c.23.19.46.38.68.6,2.66,2.54,4.49,6.32,5.77,9.89a5.25,5.25,0,0,0-4.93-1.25,8.81,8.81,0,0,1,4.16,3.83c.08.13,0,.49-.1.56a26.8,26.8,0,0,0-4-.21,13,13,0,0,0-3.57.58c-2.86.94-5.09,3.29-7.14,5.62s-4.12,4.79-6.87,6.07-6.57,1-8.54-1.5c-2.52-3.71-5.2-7.59-6.29-12a31.17,31.17,0,0,1,5.51-8.61A19,19,0,0,1,430,2.31C433.5,1.5,435.62,1.28,438.82,2.13Z"/><path class="cls-30" d="M442.72,10.86c2.8,2.39,1.16,5.55-1.88,6.75-2.52,1-5.42.15-8,.75a12.08,12.08,0,0,0-9.05,11.1c0,.5-.81.49-.78,0A12.43,12.43,0,0,1,434,17.38l1.66-.07q4.95.64,6.46-5.92c-.38-.32.18-.85.56-.53Z"/><path class="cls-31" d="M454.31,13.31c1.7,5,3,8.86,3.56,14.15a6.4,6.4,0,0,0-1.06,1.81c-.44-1.2-.93-2.38-1.47-3.53-2.31-2.4-4.1-4.78-6.84-6.54a7.82,7.82,0,0,0-1.26-.71,26.8,26.8,0,0,1,4,.21c.14-.07.18-.43.1-.56a8.81,8.81,0,0,0-4.16-3.83,5.25,5.25,0,0,1,4.93,1.25C450.85,12,449,8.21,446.36,5.67c-.22-.22-.45-.41-.68-.6h0c1.57.73,5,3.42,6.55,4.24C452.8,9.61,454.14,12.8,454.31,13.31Z"/><path class="cls-25" d="M463.49,33.8A7.38,7.38,0,0,1,458,37h0a76.26,76.26,0,0,0-2.42-9,9.3,9.3,0,0,1,1.25-2.72A13.93,13.93,0,0,1,458,23.9a5.07,5.07,0,0,1,3.53-2,3.77,3.77,0,0,1,3.43,2.56,6.66,6.66,0,0,1,.39,1.81A11.47,11.47,0,0,1,463.49,33.8Z"/><path class="cls-101" d="M464.91,24.49a3.77,3.77,0,0,0-3.43-2.56,5.07,5.07,0,0,0-3.53,2,13.93,13.93,0,0,0-1.11,1.37,7.84,7.84,0,0,0-.92,1.78c-.19-.44-.38-.88-.58-1.31-2.31-2.4-4.1-4.78-6.84-6.54a7.82,7.82,0,0,0-1.26-.71,13,13,0,0,0-3.57.58,12.77,12.77,0,0,0-4.7,3,19.47,19.47,0,0,1,2.14.17c6.5.9,12.29,4.87,17,11q-.49-1.89-1.17-3.72a8.33,8.33,0,0,1,.52-.87,12.77,12.77,0,0,1,1.12-1.37,5,5,0,0,1,3.52-2,3.73,3.73,0,0,1,3.29,2.23c0-.42,0-.85-.05-1.28A6.66,6.66,0,0,0,464.91,24.49Z"/><path class="cls-33" d="M436.1,38.59s5.52,7.27,5.17,13.34,1,6,1,6S446.36,55,446,54.17,440.74,41,436.1,38.59Z"/><ellipse class="cls-28" cx="433.54" cy="48.19" rx="1.54" ry="2.63" transform="translate(12.6 162.61) rotate(-21.55)"/><ellipse class="cls-28" cx="448.23" cy="41.35" rx="1.58" ry="2.71" transform="translate(16.14 167.53) rotate(-21.55)"/><path class="cls-102" d="M449,60.28a3.59,3.59,0,0,1-3.82.61c-.29-.14-.79-.52-.71-.9s.56-.38.85-.39c2.07-.05,3.21-1.57,4.34-3.08a9.65,9.65,0,0,0,.86-1.66c.26-.57.62-1.18,1.24-.73a1.77,1.77,0,0,1,.53,1.46,7.06,7.06,0,0,1-2.61,4.23C449.47,60,449.22,60.13,449,60.28Z"/><path class="cls-35" d="M425.32,42.31a2.8,2.8,0,0,1,1.49-2.22,7.15,7.15,0,0,1,4.22-.46c.44.12,1.36.89,1.29,1.61s-.89.77-1.43.86c-1,.17-1.61-.22-2.86.11C427,42.57,425.64,43.67,425.32,42.31Z"/><path class="cls-35" d="M445.15,32.75c-1.78.29-3,.93-3.76,2.5-.13.27-.53.67-.83.5s-.29-.86-.22-1.23a5,5,0,0,1,4.45-4.07,31.33,31.33,0,0,1,4.51.39c.57.06,1.29.23,1.12,1.08-.08.38-.81.7-1.28.74C447.69,32.77,446.2,32.59,445.15,32.75Z"/><path class="cls-36" d="M445.07,55.21a14.44,14.44,0,0,1-2.6,1.39c.43-6.52-1.77-13.81-6.67-18.24a52,52,0,0,1,4.54,14.15c.13.76.05,5.26.58,5.58,1.57.95,4.95-2,5.11-3.92l-1,1C444.69,55.48,445.44,54.93,445.07,55.21Z"/><path class="cls-103" d="M449.78,14.42l-1.41-.74c-10.18-5.47-19.05-5.77-26.76-1.91a28.49,28.49,0,0,0-3.95,2.81,9.63,9.63,0,0,1,2.21-3.69,21.87,21.87,0,0,1,13.85-7.42c1.91.92,3.79,1.95,5.62,3a49.67,49.67,0,0,1,8,5.67L449,13.64s0,0,.06.06C449.31,13.94,449.55,14.17,449.78,14.42Z"/><path class="cls-104" d="M418,17.81a37.66,37.66,0,0,1,17.58-3,41.11,41.11,0,0,1,14.85,3.64,6.28,6.28,0,0,0,1.23.28c-2.9-1.55-5.71-3.33-8.69-4.59-10.41-4.41-19.9-2.4-24.72,2.54C418,16.91,418.09,17.42,418,17.81Z"/><path class="cls-105" d="M444.14,65.56c-6,1-10.56-1.84-14-7a11.52,11.52,0,0,0,.9,1.79,6.72,6.72,0,0,0,1.53,1.75,21,21,0,0,0,8.67,5.1,12.85,12.85,0,0,0,2.86.58,11.21,11.21,0,0,0,6.68-1.32,10.77,10.77,0,0,0,1.31-.89,21.21,21.21,0,0,0,7.29-11.4,43.72,43.72,0,0,0,.95-7.92C458.44,56.49,452.84,64.07,444.14,65.56Z"/><path class="cls-28" d="M463.66,46.9l-3.73-10.62s-1.54-1-2.44-1.62c1,3.47,3,10.61,2.45,14.67-1.51,6-1.29,10.36-8.5,15.7-6.87,5.1-15.9-.69-15.69-.42l0,0A9.82,9.82,0,0,0,442,68.11a42.14,42.14,0,0,1,6.2,1.39c3.29-.5,10.12-6,11.64-9C460.52,56.16,464,48.05,463.66,46.9Z"/><path class="cls-106" d="M463.17,45.5l-3.24-9.22s-1.54-1-2.44-1.62c1,3.47,3,10.61,2.45,14.67-1,4.09-1.26,7.4-3.55,10.77C459.74,57.1,462.67,52.49,463.17,45.5Z"/></g><g class="cls-107"><path class="cls-108" d="M440,46.45a14.13,14.13,0,0,0-.57-1.58L414,60.38a14.69,14.69,0,0,0,1.14,1.23Z"/><path class="cls-108" d="M410.57,49.92a15.06,15.06,0,0,0,2.88,9.71L439,44a15,15,0,0,0-7.32-7Z"/></g><path class="cls-25" d="M415.49,95.91c-.54,3-.56,3.58-2.06,6.32-3.87-1.86-6.67-3.63-8.06-7.64l.14,0c-1.57-5.82-3.2-11.56-4.42-17.46a26.85,26.85,0,0,0,12.21-8.56l4.35,2.35A6.24,6.24,0,0,0,421.32,72l-1.57,2a4.74,4.74,0,0,1-4.33-.66,17.56,17.56,0,0,1-3.64,4.38,37.23,37.23,0,0,1,9.08-.51c.65,1.23,1.12,2.67,1.77,3.9a5,5,0,0,1,.56,1.4,4.86,4.86,0,0,1,0,1.32,51.09,51.09,0,0,1-2.79,11.45C419.37,95.38,417.23,95.59,415.49,95.91Z"/><path class="cls-109" d="M415.37,96.54q.06-.3.12-.63c1.74-.32,3.88-.53,4.88-.67a51.09,51.09,0,0,0,2.79-11.45,4.86,4.86,0,0,0,0-1.32,2.29,2.29,0,0,0-.09-.28c-4.66-1.54-9-1.87-12.05-1C410,87.43,411.57,93.24,415.37,96.54Z"/></g></g></svg>