<?xml version="1.0" encoding="utf-8"?>
<!-- Generator: Adobe Illustrator 24.1.1, SVG Export Plug-In . SVG Version: 6.00 Build 0)  -->
<svg version="1.1" xmlns="http://www.w3.org/2000/svg" xmlns:xlink="http://www.w3.org/1999/xlink" x="0px" y="0px"
	 viewBox="0 0 1900 589.6" style="enable-background:new 0 0 1900 589.6;" xml:space="preserve">
<style type="text/css">
	.st0{fill:url(#SVGID_1_);}
	.st1{fill:url(#SVGID_2_);}
	.st2{fill:url(#SVGID_3_);}
	.st3{fill:#231815;}
</style>
<g id="圖層_1">
	
		<linearGradient id="SVGID_1_" gradientUnits="userSpaceOnUse" x1="947.65" y1="-395.9374" x2="947.65" y2="-223.2073" gradientTransform="matrix(1 0 0 -1 0 171.5511)">
		<stop  offset="0" style="stop-color:#FFFFFF"/>
		<stop  offset="1" style="stop-color:#231815"/>
	</linearGradient>
	<polygon class="st0" points="1876.7,695.4 18.6,695.4 78.7,373.7 1816.2,373.7 	"/>
	
		<linearGradient id="SVGID_2_" gradientUnits="userSpaceOnUse" x1="921.6161" y1="-222.7906" x2="1311.0962" y2="-979.1706" gradientTransform="matrix(1 0 0 -1 0 171.5511)">
		<stop  offset="4.000000e-02" style="stop-color:#B28146"/>
		<stop  offset="0.63" style="stop-color:#E0CDB2"/>
		<stop  offset="0.9" style="stop-color:#946134"/>
	</linearGradient>
	<polygon class="st1" points="1876.7,444.9 18.6,444.9 78.7,373.7 1816.9,373.7 	"/>
	
		<linearGradient id="SVGID_3_" gradientUnits="userSpaceOnUse" x1="18.6" y1="-308.599" x2="1876.7" y2="-308.599" gradientTransform="matrix(1 0 0 -1 0 171.5511)">
		<stop  offset="4.000000e-02" style="stop-color:#B28146"/>
		<stop  offset="0.63" style="stop-color:#E0CDB2"/>
		<stop  offset="0.9" style="stop-color:#946134"/>
	</linearGradient>
	<rect x="18.6" y="444.9" class="st2" width="1858.1" height="70.5"/>
</g>
<g id="圖層_2">
	<g>
		<path class="st3" d="M270.1,484c-1.3,2.2-2.7,4.4-4.5,6.3c-0.1,0.1-0.3,0.3-0.4,0.3c-0.1,0-0.1-0.1-0.1-0.1c0-0.1,0.2-0.5,0.3-0.6
			c0.3-0.7,0.6-1.5,0.9-2.2c0.4-1,0.8-2,1.1-3.1c0.9-2.7,1.6-5.4,2.1-8.3c0.1-0.5,0-1.1,0-1.6c0-0.2,0-0.2,0.2-0.2
			c0.5,0,2.4,0.8,2.9,1c0.3,0.1,1.3,0.5,1.3,0.8c0,0.3-0.8,0.6-1,0.7C272.1,479.3,271.3,481.9,270.1,484z M278.5,493.4
			c0,0.4,0,1.8-0.1,2.2c-0.5,1.4-2.7,1.6-4,1.8c-0.3-1.8-0.6-2.2-2.2-3c-0.2-0.1-0.7-0.3-0.7-0.5c0-0.1,0.1-0.1,0.2-0.1
			c0.2,0,0.4,0.1,0.7,0.1c0.8,0.1,1.5,0.3,2.2,0.3c0.8,0,1.3-0.2,1.3-1.1v-23.2c0-0.4-0.1-1.1-0.3-1.5c0-0.1-0.1-0.2-0.1-0.3
			c0-0.2,0.1-0.2,0.3-0.2c0.4,0,3.2,0.8,3.5,1c0.1,0.1,0.2,0.2,0.2,0.3c0,0.3-0.7,0.7-0.8,0.8V493.4z M281,475.4
			c0.1,0,0.3,0.2,0.3,0.2c3.3,2.7,7,8.2,7,12.7c0,1.1-0.3,2.5-1.6,2.5c-1.4,0-1.7-1.3-1.8-2.5l-0.2-1.8c-0.2-2.4-1.1-5.3-2.1-7.5
			c-0.4-0.9-0.8-1.9-1.4-2.7c-0.1-0.1-0.4-0.5-0.4-0.7C280.8,475.5,280.9,475.4,281,475.4z"/>
		<path class="st3" d="M303.7,472.9c0,0.4-0.3,1.1-0.4,1.6l-2,7.6c-0.5,2-1.4,4.8-1.4,6.8c0,1.2,0.3,2.3,0.7,3.4
			c0.2,0.5,0.3,1,0.3,1.5c0,0.9-0.5,1.6-1.5,1.6c-1.5,0-1.7-1.5-1.7-2.7v-1.9c0-0.6-0.2-1.2-0.4-1.8c-0.3-0.8-0.7-1-1.5-1.5
			c-0.1-0.1-0.2-0.1-0.2-0.3c0-0.3,1.3-0.2,1.8-0.4c0.5-0.3,2.5-5.3,2.8-6.2l3-7.9c0-0.1,0.1-0.2,0.2-0.2
			C303.6,472.6,303.7,472.7,303.7,472.9z M298.6,480.2c-1.5,0-1.4-2.4-1.9-3.4c-0.1-0.3-0.8-1.2-0.8-1.3c0-0.1,0.1-0.2,0.2-0.2
			c0.2,0,0.5,0.2,0.7,0.2c1.3,0.5,3.1,1.6,3.1,3.2C299.9,479.4,299.4,480.2,298.6,480.2z M300.6,473.4c-1.4,0-1.8-2.3-2.5-3.2
			c-0.2-0.3-0.4-0.5-0.7-0.7c-0.3-0.2-0.5-0.3-0.5-0.6c0-0.1,0.2-0.1,0.2-0.1c0.2,0,0.5,0.1,0.7,0.1c1.5,0.3,4.1,1.1,4.1,3
			C302,472.8,301.5,473.4,300.6,473.4z M303.9,479.7l-1-1.6c0.6,0,1.2,0.1,1.8,0.1h2.3V474h-1.5l-0.5,0.4l-1-1.6c1,0.1,2,0.2,3,0.2
			v-2.7c0-0.6,0-1.4-0.2-2c0-0.2-0.2-0.5-0.2-0.6c0-0.2,0.2-0.2,0.3-0.2c0.5,0,3.3,0.8,3.3,1.4c0,0.2-0.7,0.7-0.9,0.8v3.2h3
			c0-0.8,0.1-3-0.1-3.9c0-0.1-0.3-1-0.3-1.1c0-0.2,0.2-0.2,0.3-0.2c0.4,0,1.1,0.3,1.5,0.4c0.3,0.1,1.6,0.5,1.6,1
			c0,0.3-0.6,0.6-0.8,0.8v3h0.9c0.3-0.3,1.2-1.4,1.5-1.4c0.3,0,1.6,1.4,1.8,1.7c0.1,0.1,0.2,0.3,0.2,0.4c0,0.3-0.2,0.4-0.5,0.4h-4
			v4.2h1.6c0.3-0.3,1.2-1.3,1.5-1.3c0.3,0,1.6,1.4,1.9,1.7c0.1,0.1,0.2,0.3,0.2,0.4c0,0.3-0.3,0.4-0.5,0.4h-5.9
			c1,1.6,2.1,2.6,3.5,3.8c1.1,0.9,2.2,1.5,3.5,2.1c0.1,0.1,0.2,0.2,0.2,0.3c0,0.3-0.8,0.3-1,0.3c-0.8,0.1-1.5,0.5-2.1,1
			c-0.6-0.5-1.3-1.1-1.8-1.7c-1.9-2-2.2-3.2-3.1-5.8h-3.6c0.2,0.2,1.4,0.8,1.4,1.2c0,0.3-0.7,0.4-1,0.5c-0.8,0.8-1.5,1.6-2.3,2.4
			l2,0.9h3.2c0.2-0.2,0.8-0.8,1-0.8c0.3,0,2.4,1.4,2.4,1.6c0,0.3-0.4,0.5-0.6,0.7v3.4c0,0.5,0.1,1,0.1,1.5c-0.9,0.3-1.8,0.4-2.8,0.6
			l0.1-0.8h-3.9v3.3c0,0.2,0,0.4,0.2,0.6c0.2,0.2,2.2,0.2,2.6,0.2c0.8,0,3.1,0.1,3.7-0.2c0.3-0.2,0.6-0.4,0.8-0.8
			c0.5-0.9,0.8-2.7,1-3.6c0-0.1,0.1-0.2,0.2-0.2c0.3,0,0.2,1.4,0.2,1.7c0,1.6,0.1,2,1.6,2.7c-0.2,0.5-0.5,1-0.8,1.5
			c-0.8,1.2-4.2,1.1-5.5,1.1c-1.2,0-5.2,0.1-6-0.8c-0.3-0.3-0.3-0.8-0.3-1.2v-10.5c-1.3,1.1-2.6,2.1-4.1,3.1
			c-0.2,0.1-0.9,0.6-1.1,0.6c-0.1,0-0.2-0.1-0.2-0.2c0-0.2,0.8-0.9,0.9-1.1c1-1,1.8-2.2,2.7-3.3c0.8-1.1,2-2.7,2.5-4h-2.6
			L303.9,479.7z M312.4,489.4v-4h-3.6l-0.4,0.3v3.7H312.4z M312.3,478.2v-4.2h-3v4.2H312.3z"/>
		<path class="st3" d="M348.6,468.3c0.3,0,1.5,1.4,1.5,1.5c0.2,0.2,0.4,0.4,0.4,0.7c0,0.2-0.1,0.3-0.3,0.3h-17.9l-0.4,0.4v23.3h16.2
			c0.1-0.1,1.2-1.4,1.6-1.4c0.3,0,0.6,0.3,0.8,0.5c0.1,0.2,1.2,1.2,1.2,1.6c0,0.3-0.3,0.3-0.5,0.3h-19.1c-0.1,0.2-0.7,1.1-1.1,1.1
			c-0.3,0-2.4-1.7-2.4-2c0-0.3,0.9-1,1-1.1v-23.2c0-0.7-0.4-1.6-0.4-1.9c0-0.1,0.1-0.2,0.2-0.2c0.6,0,2.5,1,3.1,1.3h14.7
			C347.2,469.6,348.3,468.3,348.6,468.3z M338.8,482.3c0.2,0,0.4,0.2,0.5,0.3l1.4,0.9c0.1,0.1,0.3,0.2,0.3,0.4
			c0,0.3-0.5,0.7-0.8,0.9v5.2c0,0.5,0,1,0.1,1.6c-0.8,0.2-1.6,0.3-2.4,0.5l0.2-1.3h-2.2v1.3c-0.8,0.2-1.5,0.3-2.3,0.3
			c0.1-0.6,0.2-1.3,0.2-2v-5.9c0-0.4-0.1-1.1-0.3-1.4c-0.1-0.1-0.1-0.2-0.1-0.3c0-0.2,0.1-0.2,0.2-0.2c0.6,0,2.1,0.7,2.6,1h1.6
			C337.9,483.3,338.6,482.3,338.8,482.3z M344.1,472.2c0.2,0,0.5,0.3,0.7,0.3l1.3,1c0.1,0.1,0.3,0.3,0.3,0.5c0,0.3-0.6,0.7-0.8,0.8
			c0,1.5,0,3.1,0,4.6c0,0.4,0.1,0.9,0.1,1.3c-0.8,0.2-1.7,0.4-2.6,0.5l0.1-1.1h-4.6v0.9c-0.8,0.2-1.7,0.3-2.5,0.4
			c0.1-0.8,0.2-1.5,0.2-2.3v-5.1c0-0.4-0.1-0.9-0.2-1.3c-0.1-0.2-0.2-0.3-0.2-0.5c0-0.1,0.1-0.1,0.2-0.1c0.8,0,2.3,0.8,3,1.2h3.9
			C343,473.2,343.7,472.2,344.1,472.2z M338.1,489.5v-5.1h-2l-0.3,0.3v4.8H338.1z M343.2,479v-4.5h-4.1l-0.5,0.4v4.1H343.2z
			 M347.4,482.4c0.4,0,1.6,1,1.8,1.1c0.1,0.1,0.4,0.3,0.4,0.5c0,0.3-0.7,0.8-0.8,0.9v5.2c0,0.5,0,1,0.1,1.6
			c-0.8,0.2-1.7,0.3-2.5,0.4l0.1-1.3h-2.3l0,1c-0.8,0.2-1.6,0.3-2.4,0.3c0.1-0.6,0.2-1.2,0.2-1.7v-5.9c0-0.4-0.1-0.8-0.2-1.2
			c-0.1-0.2-0.2-0.5-0.2-0.7c0-0.2,0-0.2,0.2-0.2s0.3,0.1,0.5,0.1c0.8,0.3,1.5,0.5,2.3,0.9h1.7C346.3,483.5,347.1,482.4,347.4,482.4
			z M346.4,489.7v-5.1h-2l-0.3,0.3v4.8H346.4z"/>
		<path class="st3" d="M369.9,466.6h2.5v31.7h-2.5V466.6z"/>
		<path class="st3" d="M400.1,493.8h-12.3c0.1-1.1,0.4-2.1,0.9-3.1c0.8-1.4,1.9-2.6,3.1-3.8c1.5-1.5,3.1-3.4,4.2-5.3
			c1.1-1.8,1.8-3.6,1.7-5.7c0-1.2-0.2-2.6-1.3-3.4c-0.9-0.7-2.2-0.8-3.2-0.5c-1,0.3-2,1.3-2.3,2.4c-0.1,0.4,0,0.8,0.3,1
			c0.5,0.4,0.8,1,0.9,1.7c0.1,0.7,0,1.4-0.5,1.8c-0.5,0.5-1.1,0.7-1.8,0.5c-0.6-0.1-1.2-0.5-1.4-1.1c-0.4-0.8-0.4-1.7-0.2-2.6
			c0.3-1.4,1-3,2.2-3.9c1.4-1.1,3.2-1.6,5.1-1.3c1.7,0.2,3.4,1.2,4.2,2.8c0.7,1.3,0.9,2.8,0.8,4.3c-0.2,1.8-0.9,3.4-1.9,4.7
			c-1.7,2.3-4.2,4.7-6.7,7c-0.3,0.3-0.9,1-0.9,1.4h6.6c0.6,0,1.2-0.4,1.4-0.8c0.4-0.5,0.6-1.4,0.8-2.2c0-0.2,0.2-0.3,0.3-0.3h0.7
			c0.1,0,0.2,0.1,0.2,0.2L400.1,493.8z"/>
		<path class="st3" d="M403.4,484h7v2.5h-7V484z"/>
		<path class="st3" d="M423.6,492.8c-1.3,1-3.1,1.4-4.8,1.3c-1.7-0.1-3.3-0.7-4.4-2c-0.9-1.1-1.4-2.4-1.4-3.9c0-0.7,0.2-1.2,0.8-1.7
			c0.4-0.4,1-0.5,1.6-0.4c0.7,0.1,1.2,0.6,1.4,1.3c0.1,0.4,0.1,0.9-0.2,1.3c-0.3,0.4-0.5,0.8-0.6,1.3c-0.1,0.4-0.1,0.7,0.1,1.1
			c0.7,1.2,2,1.8,3.3,1.7c1-0.1,2-0.7,2.6-1.5c1.2-1.5,1.4-4.4,0.8-6.1c-0.4-1.2-1.2-2.1-2.4-2.5c-0.8-0.3-2-0.3-2.9-0.3
			c-0.2,0-0.3-0.1-0.3-0.3v-0.8c0-0.2,0.1-0.3,0.3-0.3c0.9,0,1.9-0.1,2.7-0.4c0.6-0.3,1.1-0.7,1.5-1.3c0.8-1.2,1-2.9,0.8-4.3
			c-0.2-1.1-0.6-2.1-1.5-2.7c-0.8-0.6-1.8-0.6-2.8-0.3c-0.8,0.3-1.5,0.8-2,1.6c-0.3,0.4-0.4,0.7-0.3,1.2c0,0.3,0.3,0.8,0.6,1
			c0.4,0.4,0.5,1,0.4,1.5c-0.1,0.6-0.4,1.2-1,1.4c-0.6,0.3-1.2,0.2-1.7-0.2c-0.5-0.4-0.8-1.2-0.8-1.9c0-1.3,0.4-2.5,1.1-3.6
			c0.8-1.1,1.9-2,3.2-2.3c1.6-0.4,3.5-0.3,4.8,0.4c1.2,0.7,2.1,1.9,2.5,3.2c0.4,1.4,0.3,3.3-0.3,4.6c-0.6,1.3-2,2.4-3.3,2.5
			c1.6,0.3,3.2,1.4,4,3c0.7,1.4,0.8,3.3,0.5,4.7C425.4,490.7,424.7,491.9,423.6,492.8z"/>
		<path class="st3" d="M454.3,485.3h-9.8c0.2,0.1,1.4,0.6,1.4,0.9c0,0.3-0.8,0.6-0.9,0.7c-0.2,0.5-0.5,1-0.6,1.5h4.8
			c0.2-0.2,0.8-1.1,1.2-1.1c0.3,0,2.1,1.4,2.4,1.7c0.1,0.1,0.4,0.3,0.4,0.5c0,0.3-1,0.8-1.1,0.9c-0.6,2.1-1.3,4-2.7,5.6
			c-0.6,0.6-1.2,1.1-2,1.4c-0.7,0.2-1.4,0.3-2,0.3c-0.1-0.9-0.1-1.4-0.6-2.1c-0.4-0.6-0.9-0.8-1.5-1.1c-0.1,0-0.1-0.1-0.1-0.1
			c0-0.1,0.2-0.2,0.3-0.2c0.5,0,1.4,0.3,2,0.3c0.3,0,0.7,0,1-0.1c0.6-0.2,1-0.6,1.3-1.1c0.8-1.4,1.1-2.1,1.5-3.6h-5.3
			c-0.4,0.8-0.9,1.6-1.4,2.1c-1.9,2.4-3.9,3.9-7.3,5.2c-0.2,0.1-1.3,0.4-1.4,0.4c-0.1,0-0.1-0.1-0.1-0.1c0-0.4,0.6-0.6,0.8-0.8
			c1.1-0.8,2.2-1.6,3.1-2.5c2.9-2.8,4.4-6,4.7-8.5h-3.9l-0.6,0.5l-0.8-1.4c-0.2,2.8-0.2,3.7-1.4,6.4c-0.8,1.8-2,3.3-3.5,4.5
			c-0.2,0.1-1,0.9-1.2,0.9c-0.1,0-0.1-0.1-0.1-0.1c0-0.2,0.3-0.7,0.4-0.9c0.8-1.4,1.4-2.7,1.9-4.2c1-3,1.1-6.2,1.1-9.3
			c0-1.9,0-3.7,0-5.5c0-1,0-2-0.1-2.9c-0.2-2.1,0-0.6-0.3-1.8c-0.1-0.3-0.4-1-0.5-1.4c-0.1-0.2,0.1-0.1,0.3-0.1l3.2,1.3
			c2.8-0.4,9.2-1.7,11.3-2.5c0.3-0.1,0.9-0.4,1.1-0.7c0,0,0.2-0.4,0.2-0.4c0.3,0,2.9,2.6,2.9,3c0,0.3-1.5,0.2-1.8,0.3
			c-0.5,0-1.4,0.3-2,0.4c-1.5,0.3-4.2,0.5-5.8,0.7c-2.4,0.3-4,0.3-6,0.3v2H449c0.2-0.2,0.9-1.3,1.2-1.3c0.2,0,3,1.7,3,1.9
			c0,0.3-0.8,0.7-1,0.8c0,0.8,0,0.9,0,1.7c0,0.9,0.1,1.9,0.2,2.8c-1,0.3-2,0.6-3,0.7l0.1-1.3h-12.6c-0.1,1.5-0.1,2.8,0,4.4
			c0.6,0.1,1.3,0.2,1.9,0.2h12c0.3-0.3,1.3-1.4,1.7-1.4c0.2,0,0.4,0.2,0.5,0.3c0.3,0.3,1.8,1.7,1.8,2
			C454.7,485.2,454.4,485.3,454.3,485.3z M449.4,475.2h-12.6c0,0.6,0-0.9,0,3.3h12.6V475.2z M444.6,484.1c-1.9,0-1.1-2.3-2.2-3.4
			c-0.1-0.1-0.6-0.5-0.6-0.7c0-0.1,0.1-0.1,0.2-0.1c0.7,0.2,1.4,0.3,2.1,0.5c1.2,0.3,2,0.9,2,2.2
			C446.1,483.4,445.3,484.1,444.6,484.1z"/>
		<path class="st3" d="M473,466.6h2.5v31.7H473V466.6z"/>
		<path class="st3" d="M503.5,477.9c0.8,0,2.5,1.1,2.5,2c0,0.5-0.7,0.9-1,1.2c-0.4,0.3-0.8,0.8-1.1,1.3c-0.6,0.8-1.1,1.7-1.6,2.7
			c-0.1,0.1-0.2,0.3-0.3,0.3c-0.1,0-0.2-0.2-0.2-0.3v-0.1l0.9-4.9h-1.7l-0.4,0.3v14.1c0,0.4-0.1,0.8-0.3,1.2
			c-0.3,0.5-0.6,0.6-1.1,0.8l-1.8,0.5c-0.3-1.3-0.4-1.8-1.6-2.4c-0.1-0.1-1-0.4-1-0.7c0-0.2,0.2-0.2,0.3-0.2c0.7,0,1.5,0.2,2.3,0.2
			c0.7,0,0.8-0.3,0.8-1v-12.8h-2.9l-0.6,0.4l-1.2-1.7c0.5,0.1,1.2,0.2,1.7,0.2h7.3C502.9,478.4,503.1,477.9,503.5,477.9z
			 M496.4,469.8h5.6c0.1-0.2,0.7-0.9,0.9-0.9c0.6,0,2.7,2.2,2.7,2.8c0,0.6-0.8,0.7-1.3,0.8c-0.4,0.1-2.3,1.5-2.7,1.9l-1.1,1.2
			c0.3,0.4,0.6,1,0.6,1.6c0,0.8-0.4,1.4-1.3,1.4c-0.4,0-0.8-0.1-1-0.5c-0.7-1-0.8-2.4-1.5-3.3c-0.2-0.2-0.3-0.4-0.5-0.6
			c-0.1-0.1-0.3-0.3-0.3-0.4c0-0.1,0.1-0.2,0.2-0.2c0.7,0,2.5,0.9,3.1,1.3c0.8-1.3,1.4-2.5,2-4h-5.6l-0.7,0.4l-1-1.7
			C495.2,469.7,495.8,469.8,496.4,469.8z M505,496.8c-0.2,0.1-0.8,0.4-0.9,0.4c-0.1,0-0.2-0.1-0.2-0.2c0-0.2,0.6-0.7,0.8-0.8
			c1-0.9,2-2,2.9-3.1c0.4-0.5,1-1.1,1.3-1.7c0.1-0.2,0.2-0.4,0.3-0.7c0,0,0.1-0.3,0.2-0.3c0.6,0,2.5,1.8,2.5,2.4
			c0,0.3-0.7,0.4-0.9,0.4C509.1,494.6,507.1,496,505,496.8z M507,471l-0.5,0.3l-1.3-1.6c0.6,0.1,1.2,0.2,1.8,0.2h7.4
			c0.2-0.2,0.9-1.3,1.3-1.3c0.3,0,0.6,0.3,0.8,0.5c0.2,0.3,1.3,1.2,1.3,1.6c0,0.2-0.1,0.3-0.3,0.3h-5.3c0.3,0.1,1.2,0.6,1.2,0.9
			c0,0.3-0.6,0.5-0.8,0.5c-0.5,0.9-0.9,1.9-1.4,2.9h2.3c0.1-0.2,0.7-1,0.9-1c0.4,0,2.4,1.4,2.4,1.8c0,0.2-0.4,0.5-0.6,0.6v10.5
			c0,1,0.1,2,0.1,3c-0.8,0.3-1.7,0.6-2.6,0.7l0.1-1.4h-5v1.3c-0.8,0.3-1.6,0.4-2.5,0.5c0.1-1.2,0.2-2.4,0.2-3.5v-10.4
			c0-0.5,0-1-0.1-1.5c0-0.3-0.1-0.6-0.2-0.9c-0.1-0.1-0.2-0.3-0.2-0.4c0-0.2,0.2-0.2,0.3-0.2c1,0,2.1,0.6,2.9,1.1h0.5
			c0.2-1.5,0.4-2.9,0.4-4.3H507z M513.6,476.4h-4.8l-0.3,0.3v2.8h5V476.4z M513.6,484v-3.4h-5v3.4H513.6z M513.6,488.3v-3.2h-5v3.2
			H513.6z M515.7,496.7c-0.6,0-1.2-0.5-1.4-1c-0.5-1.1-0.8-2.2-1.4-3.2c-0.3-0.4-0.5-0.9-0.8-1.2c-0.1-0.1-0.2-0.3-0.3-0.3
			c0-0.3,0-0.3,0.2-0.3c0.1,0,0.9,0.4,1.1,0.5c1.4,0.7,3.8,2.2,3.8,4.1C517,495.9,516.6,496.7,515.7,496.7z"/>
		<path class="st3" d="M532.8,473.9l0.4,0.3h12.2c0.2-0.2,1.1-1.3,1.5-1.3c0.3,0,0.7,0.3,0.8,0.6c0.2,0.2,1.3,1.2,1.3,1.5
			c0,0.3-0.3,0.3-0.5,0.3h-7.5l-0.3,0.4v2h3.2c0.2-0.2,1-1.2,1.4-1.2c0.2,0,0.4,0.2,0.6,0.4c0.2,0.3,1.2,1.2,1.2,1.5
			c0,0.2-0.2,0.3-0.3,0.3h-6.1v2.3h3c0.2-0.2,1.1-1.3,1.6-1.3c0.3,0,0.6,0.3,0.8,0.5c0.3,0.3,1.3,1.2,1.3,1.6c0,0.3-0.3,0.3-0.4,0.3
			h-6.2v2.4l4.6,0c0.2-0.2,1.3-1.4,1.7-1.4c0.3,0,0.7,0.4,0.8,0.6c0.2,0.2,1.4,1.2,1.4,1.6c0,0.3-0.3,0.3-0.5,0.3H533v0.6
			c-0.9,0.3-1.9,0.5-2.9,0.6c0.1-0.9,0.2-1.9,0.2-2.8v-7c-0.5,0.6-4.6,5-5.1,5c-0.1,0-0.2-0.1-0.2-0.2c0-0.1,0.5-0.8,0.6-1
			c1.3-1.9,2.4-3.9,3.5-5.9c0.8-1.4,1.6-2.9,2.2-4.4c0.3-0.8,0.6-1.6,0.7-2.5c0-0.2,0-0.3,0.3-0.3c0.6,0,3.8,1.2,3.8,1.7
			c0,0.4-0.6,0.5-0.9,0.6C534.4,471.3,533.6,472.6,532.8,473.9z M530.2,493.9v-4c0-0.6,0-1.5-0.2-2c-0.1-0.2-0.1-0.3-0.1-0.5
			s0.1-0.2,0.2-0.2c0.5,0,2.7,0.8,3.3,1.1h10c0.2-0.3,0.7-1.1,1.1-1.1c0.4,0,1.8,1,2,1.2c0.2,0.1,0.8,0.5,0.8,0.8
			c0,0.4-0.5,0.6-0.8,0.8v4c0,0.7,0.1,1.4,0.1,2c-1,0.4-2,0.7-3.1,0.9l0.1-1.7h-10.9v1c-0.9,0.3-1.9,0.5-2.8,0.7
			C530,495.9,530.2,494.9,530.2,493.9z M543.7,489.4h-10.5l-0.3,0.2v4.5h10.9V489.4z M533.3,475.3l-0.3,0.2v2.2h5.1v-2.4H533.3z
			 M538.1,481.1v-2.3H533v2.3H538.1z M538.1,484.6v-2.4H533v2.4H538.1z M540.9,473.1c-0.2,0.1-0.5,0.2-0.8,0.2
			c-1.5,0-1.5-1.9-1.7-2.9c-0.1-0.3-0.2-0.6-0.3-0.8c-0.2-0.5-0.3-0.8-0.7-1.1c-0.1-0.1-0.2-0.2-0.2-0.3c0.4-0.1,1.2,0.3,1.5,0.4
			c1.2,0.5,3.1,1.6,3.1,3.1C541.8,472.3,541.5,472.9,540.9,473.1z"/>
	</g>
	<g>
		<path class="st3" d="M817.1,484c-1.3,2.2-2.7,4.4-4.5,6.3c-0.1,0.1-0.3,0.3-0.4,0.3c-0.1,0-0.1-0.1-0.1-0.1c0-0.1,0.2-0.5,0.3-0.6
			c0.3-0.7,0.6-1.5,0.9-2.2c0.4-1,0.8-2,1.1-3.1c0.9-2.7,1.6-5.4,2.1-8.3c0.1-0.5,0-1.1,0-1.6c0-0.2,0-0.2,0.2-0.2
			c0.5,0,2.4,0.8,2.9,1c0.3,0.1,1.3,0.5,1.3,0.8c0,0.3-0.8,0.6-1,0.7C819.1,479.3,818.4,481.9,817.1,484z M825.5,493.4
			c0,0.4,0,1.8-0.1,2.2c-0.5,1.4-2.7,1.6-4,1.8c-0.3-1.8-0.6-2.2-2.2-3c-0.2-0.1-0.7-0.3-0.7-0.5c0-0.1,0.1-0.1,0.2-0.1
			c0.2,0,0.4,0.1,0.7,0.1c0.8,0.1,1.5,0.3,2.2,0.3c0.8,0,1.3-0.2,1.3-1.1v-23.2c0-0.4-0.1-1.1-0.3-1.5c0-0.1-0.1-0.2-0.1-0.3
			c0-0.2,0.1-0.2,0.3-0.2c0.4,0,3.2,0.8,3.5,1c0.1,0.1,0.2,0.2,0.2,0.3c0,0.3-0.7,0.7-0.8,0.8V493.4z M828.1,475.4
			c0.1,0,0.3,0.2,0.3,0.2c3.3,2.7,7,8.2,7,12.7c0,1.1-0.3,2.5-1.6,2.5c-1.4,0-1.7-1.3-1.8-2.5l-0.2-1.8c-0.2-2.4-1.1-5.3-2.1-7.5
			c-0.4-0.9-0.8-1.9-1.4-2.7c-0.1-0.1-0.4-0.5-0.4-0.7C827.9,475.5,828,475.4,828.1,475.4z"/>
		<path class="st3" d="M850.8,472.9c0,0.4-0.3,1.1-0.4,1.6l-2,7.6c-0.5,2-1.4,4.8-1.4,6.8c0,1.2,0.3,2.3,0.7,3.4
			c0.2,0.5,0.3,1,0.3,1.5c0,0.9-0.5,1.6-1.5,1.6c-1.5,0-1.7-1.5-1.7-2.7v-1.9c0-0.6-0.2-1.2-0.4-1.8c-0.3-0.8-0.7-1-1.5-1.5
			c-0.1-0.1-0.2-0.1-0.2-0.3c0-0.3,1.3-0.2,1.8-0.4c0.5-0.3,2.5-5.3,2.8-6.2l3-7.9c0-0.1,0.1-0.2,0.2-0.2
			C850.7,472.6,850.8,472.7,850.8,472.9z M845.7,480.2c-1.5,0-1.4-2.4-1.9-3.4c-0.1-0.3-0.8-1.2-0.8-1.3c0-0.1,0.1-0.2,0.2-0.2
			c0.2,0,0.5,0.2,0.7,0.2c1.3,0.5,3.1,1.6,3.1,3.2C846.9,479.4,846.5,480.2,845.7,480.2z M847.7,473.4c-1.4,0-1.8-2.3-2.5-3.2
			c-0.2-0.3-0.4-0.5-0.7-0.7c-0.3-0.2-0.5-0.3-0.5-0.6c0-0.1,0.2-0.1,0.2-0.1c0.2,0,0.5,0.1,0.7,0.1c1.5,0.3,4.1,1.1,4.1,3
			C849,472.8,848.6,473.4,847.7,473.4z M850.9,479.7l-1-1.6c0.6,0,1.2,0.1,1.8,0.1h2.3V474h-1.5l-0.5,0.4l-1-1.6c1,0.1,2,0.2,3,0.2
			v-2.7c0-0.6,0-1.4-0.2-2c0-0.2-0.2-0.5-0.2-0.6c0-0.2,0.2-0.2,0.3-0.2c0.5,0,3.3,0.8,3.3,1.4c0,0.2-0.7,0.7-0.9,0.8v3.2h3
			c0-0.8,0.1-3-0.1-3.9c0-0.1-0.3-1-0.3-1.1c0-0.2,0.2-0.2,0.3-0.2c0.4,0,1.1,0.3,1.5,0.4c0.3,0.1,1.6,0.5,1.6,1
			c0,0.3-0.6,0.6-0.8,0.8v3h0.9c0.3-0.3,1.2-1.4,1.5-1.4c0.3,0,1.6,1.4,1.8,1.7c0.1,0.1,0.2,0.3,0.2,0.4c0,0.3-0.2,0.4-0.5,0.4h-4
			v4.2h1.6c0.3-0.3,1.2-1.3,1.5-1.3c0.3,0,1.6,1.4,1.9,1.7c0.1,0.1,0.2,0.3,0.2,0.4c0,0.3-0.3,0.4-0.5,0.4h-5.9
			c1,1.6,2.1,2.6,3.5,3.8c1.1,0.9,2.2,1.5,3.5,2.1c0.1,0.1,0.2,0.2,0.2,0.3c0,0.3-0.8,0.3-1,0.3c-0.8,0.1-1.5,0.5-2.1,1
			c-0.6-0.5-1.3-1.1-1.8-1.7c-1.9-2-2.2-3.2-3.1-5.8H856c0.2,0.2,1.4,0.8,1.4,1.2c0,0.3-0.7,0.4-1,0.5c-0.8,0.8-1.5,1.6-2.3,2.4
			l2,0.9h3.2c0.2-0.2,0.8-0.8,1-0.8c0.3,0,2.4,1.4,2.4,1.6c0,0.3-0.4,0.5-0.6,0.7v3.4c0,0.5,0.1,1,0.1,1.5c-0.9,0.3-1.8,0.4-2.8,0.6
			l0.1-0.8h-3.9v3.3c0,0.2,0,0.4,0.2,0.6c0.2,0.2,2.2,0.2,2.6,0.2c0.8,0,3.1,0.1,3.7-0.2c0.3-0.2,0.6-0.4,0.8-0.8
			c0.5-0.9,0.8-2.7,1-3.6c0-0.1,0.1-0.2,0.2-0.2c0.3,0,0.2,1.4,0.2,1.7c0,1.6,0.1,2,1.6,2.7c-0.2,0.5-0.5,1-0.8,1.5
			c-0.8,1.2-4.2,1.1-5.5,1.1c-1.2,0-5.2,0.1-6-0.8c-0.3-0.3-0.3-0.8-0.3-1.2v-10.5c-1.3,1.1-2.6,2.1-4.1,3.1
			c-0.2,0.1-0.9,0.6-1.1,0.6c-0.1,0-0.2-0.1-0.2-0.2c0-0.2,0.8-0.9,0.9-1.1c1-1,1.8-2.2,2.7-3.3c0.8-1.1,2-2.7,2.5-4h-2.6
			L850.9,479.7z M859.5,489.4v-4h-3.6l-0.4,0.3v3.7H859.5z M859.4,478.2v-4.2h-3v4.2H859.4z"/>
		<path class="st3" d="M895.6,468.3c0.3,0,1.5,1.4,1.5,1.5c0.2,0.2,0.4,0.4,0.4,0.7c0,0.2-0.1,0.3-0.3,0.3h-17.9l-0.4,0.4v23.3h16.2
			c0.1-0.1,1.2-1.4,1.6-1.4c0.3,0,0.6,0.3,0.8,0.5c0.1,0.2,1.2,1.2,1.2,1.6c0,0.3-0.3,0.3-0.5,0.3h-19.1c-0.1,0.2-0.7,1.1-1.1,1.1
			c-0.3,0-2.4-1.7-2.4-2c0-0.3,0.9-1,1-1.1v-23.2c0-0.7-0.4-1.6-0.4-1.9c0-0.1,0.1-0.2,0.2-0.2c0.6,0,2.5,1,3.1,1.3h14.7
			C894.2,469.6,895.4,468.3,895.6,468.3z M885.9,482.3c0.2,0,0.4,0.2,0.5,0.3l1.4,0.9c0.1,0.1,0.3,0.2,0.3,0.4
			c0,0.3-0.5,0.7-0.8,0.9v5.2c0,0.5,0,1,0.1,1.6c-0.8,0.2-1.6,0.3-2.4,0.5l0.2-1.3h-2.2v1.3c-0.8,0.2-1.5,0.3-2.3,0.3
			c0.1-0.6,0.2-1.3,0.2-2v-5.9c0-0.4-0.1-1.1-0.3-1.4c-0.1-0.1-0.1-0.2-0.1-0.3c0-0.2,0.1-0.2,0.2-0.2c0.6,0,2.1,0.7,2.6,1h1.6
			C885,483.3,885.6,482.3,885.9,482.3z M891.1,472.2c0.2,0,0.5,0.3,0.7,0.3l1.3,1c0.1,0.1,0.3,0.3,0.3,0.5c0,0.3-0.6,0.7-0.8,0.8
			c0,1.5,0,3.1,0,4.6c0,0.4,0.1,0.9,0.1,1.3c-0.8,0.2-1.7,0.4-2.6,0.5l0.1-1.1h-4.6v0.9c-0.8,0.2-1.7,0.3-2.5,0.4
			c0.1-0.8,0.2-1.5,0.2-2.3v-5.1c0-0.4-0.1-0.9-0.2-1.3c-0.1-0.2-0.2-0.3-0.2-0.5c0-0.1,0.1-0.1,0.2-0.1c0.8,0,2.3,0.8,3,1.2h3.9
			C890.1,473.2,890.8,472.2,891.1,472.2z M885.1,489.5v-5.1h-2l-0.3,0.3v4.8H885.1z M890.2,479v-4.5h-4.1l-0.5,0.4v4.1H890.2z
			 M894.4,482.4c0.4,0,1.6,1,1.8,1.1c0.1,0.1,0.4,0.3,0.4,0.5c0,0.3-0.7,0.8-0.8,0.9v5.2c0,0.5,0,1,0.1,1.6
			c-0.8,0.2-1.7,0.3-2.5,0.4l0.1-1.3h-2.3l0,1c-0.8,0.2-1.6,0.3-2.4,0.3c0.1-0.6,0.2-1.2,0.2-1.7v-5.9c0-0.4-0.1-0.8-0.2-1.2
			c-0.1-0.2-0.2-0.5-0.2-0.7c0-0.2,0-0.2,0.2-0.2s0.3,0.1,0.5,0.1c0.8,0.3,1.5,0.5,2.3,0.9h1.7C893.3,483.5,894.1,482.4,894.4,482.4
			z M893.5,489.7v-5.1h-2l-0.3,0.3v4.8H893.5z"/>
		<path class="st3" d="M916.9,466.6h2.5v31.7h-2.5V466.6z"/>
		<path class="st3" d="M947.2,493.8h-12.3c0.1-1.1,0.4-2.1,0.9-3.1c0.8-1.4,1.9-2.6,3.1-3.8c1.5-1.5,3.1-3.4,4.2-5.3
			c1.1-1.8,1.8-3.6,1.7-5.7c0-1.2-0.2-2.6-1.3-3.4c-0.9-0.7-2.2-0.8-3.2-0.5c-1,0.3-2,1.3-2.3,2.4c-0.1,0.4,0,0.8,0.3,1
			c0.5,0.4,0.8,1,0.9,1.7c0.1,0.7,0,1.4-0.5,1.8c-0.5,0.5-1.1,0.7-1.8,0.5c-0.6-0.1-1.2-0.5-1.4-1.1c-0.4-0.8-0.4-1.7-0.2-2.6
			c0.3-1.4,1-3,2.2-3.9c1.4-1.1,3.2-1.6,5.1-1.3c1.7,0.2,3.4,1.2,4.2,2.8c0.7,1.3,0.9,2.8,0.8,4.3c-0.2,1.8-0.9,3.4-1.9,4.7
			c-1.7,2.3-4.2,4.7-6.7,7c-0.3,0.3-0.9,1-0.9,1.4h6.6c0.6,0,1.2-0.4,1.4-0.8c0.4-0.5,0.6-1.4,0.8-2.2c0-0.2,0.2-0.3,0.3-0.3h0.7
			c0.1,0,0.2,0.1,0.2,0.2L947.2,493.8z"/>
		<path class="st3" d="M950.5,484h7v2.5h-7V484z"/>
		<path class="st3" d="M970.6,492.8c-1.3,1-3.1,1.4-4.8,1.3c-1.7-0.1-3.3-0.7-4.4-2c-0.9-1.1-1.4-2.4-1.4-3.9c0-0.7,0.2-1.2,0.8-1.7
			c0.4-0.4,1-0.5,1.6-0.4c0.7,0.1,1.2,0.6,1.4,1.3c0.1,0.4,0.1,0.9-0.2,1.3c-0.3,0.4-0.5,0.8-0.6,1.3c-0.1,0.4-0.1,0.7,0.1,1.1
			c0.7,1.2,2,1.8,3.3,1.7c1-0.1,2-0.7,2.6-1.5c1.2-1.5,1.4-4.4,0.8-6.1c-0.4-1.2-1.2-2.1-2.4-2.5c-0.8-0.3-2-0.3-2.9-0.3
			c-0.2,0-0.3-0.1-0.3-0.3v-0.8c0-0.2,0.1-0.3,0.3-0.3c0.9,0,1.9-0.1,2.7-0.4c0.6-0.3,1.1-0.7,1.5-1.3c0.8-1.2,1-2.9,0.8-4.3
			c-0.2-1.1-0.6-2.1-1.5-2.7c-0.8-0.6-1.8-0.6-2.8-0.3c-0.8,0.3-1.5,0.8-2,1.6c-0.3,0.4-0.4,0.7-0.3,1.2c0,0.3,0.3,0.8,0.6,1
			c0.4,0.4,0.5,1,0.4,1.5c-0.1,0.6-0.4,1.2-1,1.4c-0.6,0.3-1.2,0.2-1.7-0.2c-0.5-0.4-0.8-1.2-0.8-1.9c0-1.3,0.4-2.5,1.1-3.6
			c0.8-1.1,1.9-2,3.2-2.3c1.6-0.4,3.5-0.3,4.8,0.4c1.2,0.7,2.1,1.9,2.5,3.2c0.4,1.4,0.3,3.3-0.3,4.6c-0.6,1.3-2,2.4-3.3,2.5
			c1.6,0.3,3.2,1.4,4,3c0.7,1.4,0.8,3.3,0.5,4.7C972.5,490.7,971.8,491.9,970.6,492.8z"/>
		<path class="st3" d="M1001.3,485.3h-9.8c0.2,0.1,1.4,0.6,1.4,0.9c0,0.3-0.8,0.6-0.9,0.7c-0.2,0.5-0.5,1-0.6,1.5h4.8
			c0.2-0.2,0.8-1.1,1.2-1.1c0.3,0,2.1,1.4,2.4,1.7c0.1,0.1,0.4,0.3,0.4,0.5c0,0.3-1,0.8-1.1,0.9c-0.6,2.1-1.3,4-2.7,5.6
			c-0.6,0.6-1.2,1.1-2,1.4c-0.7,0.2-1.4,0.3-2,0.3c-0.1-0.9-0.1-1.4-0.6-2.1c-0.4-0.6-0.9-0.8-1.5-1.1c-0.1,0-0.1-0.1-0.1-0.1
			c0-0.1,0.2-0.2,0.3-0.2c0.5,0,1.4,0.3,2,0.3c0.3,0,0.7,0,1-0.1c0.6-0.2,1-0.6,1.3-1.1c0.8-1.4,1.1-2.1,1.5-3.6h-5.3
			c-0.4,0.8-0.9,1.6-1.4,2.1c-1.9,2.4-3.9,3.9-7.3,5.2c-0.2,0.1-1.3,0.4-1.4,0.4c-0.1,0-0.1-0.1-0.1-0.1c0-0.4,0.6-0.6,0.8-0.8
			c1.1-0.8,2.2-1.6,3.1-2.5c2.9-2.8,4.4-6,4.7-8.5h-3.9l-0.6,0.5l-0.8-1.4c-0.2,2.8-0.2,3.7-1.4,6.4c-0.8,1.8-2,3.3-3.5,4.5
			c-0.2,0.1-1,0.9-1.2,0.9c-0.1,0-0.1-0.1-0.1-0.1c0-0.2,0.3-0.7,0.4-0.9c0.8-1.4,1.4-2.7,1.9-4.2c1-3,1.1-6.2,1.1-9.3
			c0-1.9,0-3.7,0-5.5c0-1,0-2-0.1-2.9c-0.2-2.1,0-0.6-0.3-1.8c-0.1-0.3-0.4-1-0.5-1.4c-0.1-0.2,0.1-0.1,0.3-0.1l3.2,1.3
			c2.8-0.4,9.2-1.7,11.3-2.5c0.3-0.1,0.9-0.4,1.1-0.7c0,0,0.2-0.4,0.2-0.4c0.3,0,2.9,2.6,2.9,3c0,0.3-1.5,0.2-1.8,0.3
			c-0.5,0-1.4,0.3-2,0.4c-1.5,0.3-4.2,0.5-5.8,0.7c-2.4,0.3-4,0.3-6,0.3v2h12.2c0.2-0.2,0.9-1.3,1.2-1.3c0.2,0,3,1.7,3,1.9
			c0,0.3-0.8,0.7-1,0.8c0,0.8,0,0.9,0,1.7c0,0.9,0.1,1.9,0.2,2.8c-1,0.3-2,0.6-3,0.7l0.1-1.3h-12.6c-0.1,1.5-0.1,2.8,0,4.4
			c0.6,0.1,1.3,0.2,1.9,0.2h12c0.3-0.3,1.3-1.4,1.7-1.4c0.2,0,0.4,0.2,0.5,0.3c0.3,0.3,1.8,1.7,1.8,2
			C1001.7,485.2,1001.5,485.3,1001.3,485.3z M996.5,475.2h-12.6c0,0.6,0-0.9,0,3.3h12.6V475.2z M991.6,484.1c-1.9,0-1.1-2.3-2.2-3.4
			c-0.1-0.1-0.6-0.5-0.6-0.7c0-0.1,0.1-0.1,0.2-0.1c0.7,0.2,1.4,0.3,2.1,0.5c1.2,0.3,2,0.9,2,2.2
			C993.1,483.4,992.4,484.1,991.6,484.1z"/>
		<path class="st3" d="M1020,466.6h2.5v31.7h-2.5V466.6z"/>
		<path class="st3" d="M1050.6,477.9c0.8,0,2.5,1.1,2.5,2c0,0.5-0.7,0.9-1,1.2c-0.4,0.3-0.8,0.8-1.1,1.3c-0.6,0.8-1.1,1.7-1.6,2.7
			c-0.1,0.1-0.2,0.3-0.3,0.3c-0.1,0-0.2-0.2-0.2-0.3v-0.1l0.9-4.9h-1.7l-0.4,0.3v14.1c0,0.4-0.1,0.8-0.3,1.2
			c-0.3,0.5-0.6,0.6-1.1,0.8l-1.8,0.5c-0.3-1.3-0.4-1.8-1.6-2.4c-0.1-0.1-1-0.4-1-0.7c0-0.2,0.2-0.2,0.3-0.2c0.7,0,1.5,0.2,2.3,0.2
			c0.7,0,0.8-0.3,0.8-1v-12.8h-2.9l-0.6,0.4l-1.2-1.7c0.5,0.1,1.2,0.2,1.7,0.2h7.3C1049.9,478.4,1050.1,477.9,1050.6,477.9z
			 M1043.5,469.8h5.6c0.1-0.2,0.7-0.9,0.9-0.9c0.6,0,2.7,2.2,2.7,2.8c0,0.6-0.8,0.7-1.3,0.8c-0.4,0.1-2.3,1.5-2.7,1.9l-1.1,1.2
			c0.3,0.4,0.6,1,0.6,1.6c0,0.8-0.4,1.4-1.3,1.4c-0.4,0-0.8-0.1-1-0.5c-0.7-1-0.8-2.4-1.5-3.3c-0.2-0.2-0.3-0.4-0.5-0.6
			c-0.1-0.1-0.3-0.3-0.3-0.4c0-0.1,0.1-0.2,0.2-0.2c0.7,0,2.5,0.9,3.1,1.3c0.8-1.3,1.4-2.5,2-4h-5.6l-0.7,0.4l-1-1.7
			C1042.3,469.7,1042.9,469.8,1043.5,469.8z M1052.1,496.8c-0.2,0.1-0.8,0.4-0.9,0.4c-0.1,0-0.2-0.1-0.2-0.2c0-0.2,0.6-0.7,0.8-0.8
			c1-0.9,2-2,2.9-3.1c0.4-0.5,1-1.1,1.3-1.7c0.1-0.2,0.2-0.4,0.3-0.7c0,0,0.1-0.3,0.2-0.3c0.6,0,2.5,1.8,2.5,2.4
			c0,0.3-0.7,0.4-0.9,0.4C1056.1,494.6,1054.2,496,1052.1,496.8z M1054,471l-0.5,0.3l-1.3-1.6c0.6,0.1,1.2,0.2,1.8,0.2h7.4
			c0.2-0.2,0.9-1.3,1.3-1.3c0.3,0,0.6,0.3,0.8,0.5c0.2,0.3,1.3,1.2,1.3,1.6c0,0.2-0.1,0.3-0.3,0.3h-5.3c0.3,0.1,1.2,0.6,1.2,0.9
			c0,0.3-0.6,0.5-0.8,0.5c-0.5,0.9-0.9,1.9-1.4,2.9h2.3c0.1-0.2,0.7-1,0.9-1c0.4,0,2.4,1.4,2.4,1.8c0,0.2-0.4,0.5-0.6,0.6v10.5
			c0,1,0.1,2,0.1,3c-0.8,0.3-1.7,0.6-2.6,0.7l0.1-1.4h-5v1.3c-0.8,0.3-1.6,0.4-2.5,0.5c0.1-1.2,0.2-2.4,0.2-3.5v-10.4
			c0-0.5,0-1-0.1-1.5c0-0.3-0.1-0.6-0.2-0.9c-0.1-0.1-0.2-0.3-0.2-0.4c0-0.2,0.2-0.2,0.3-0.2c1,0,2.1,0.6,2.9,1.1h0.5
			c0.2-1.5,0.4-2.9,0.4-4.3H1054z M1060.7,476.4h-4.8l-0.3,0.3v2.8h5V476.4z M1060.7,484v-3.4h-5v3.4H1060.7z M1060.7,488.3v-3.2h-5
			v3.2H1060.7z M1062.8,496.7c-0.6,0-1.2-0.5-1.4-1c-0.5-1.1-0.8-2.2-1.4-3.2c-0.3-0.4-0.5-0.9-0.8-1.2c-0.1-0.1-0.2-0.3-0.3-0.3
			c0-0.3,0-0.3,0.2-0.3c0.1,0,0.9,0.4,1.1,0.5c1.4,0.7,3.8,2.2,3.8,4.1C1064,495.9,1063.6,496.7,1062.8,496.7z"/>
		<path class="st3" d="M1079.8,473.9l0.4,0.3h12.2c0.2-0.2,1.1-1.3,1.5-1.3c0.3,0,0.7,0.3,0.8,0.6c0.2,0.2,1.3,1.2,1.3,1.5
			c0,0.3-0.3,0.3-0.5,0.3h-7.5l-0.3,0.4v2h3.2c0.2-0.2,1-1.2,1.4-1.2c0.2,0,0.4,0.2,0.6,0.4c0.2,0.3,1.2,1.2,1.2,1.5
			c0,0.2-0.2,0.3-0.3,0.3h-6.1v2.3h3c0.2-0.2,1.1-1.3,1.6-1.3c0.3,0,0.6,0.3,0.8,0.5c0.3,0.3,1.3,1.2,1.3,1.6c0,0.3-0.3,0.3-0.4,0.3
			h-6.2v2.4l4.6,0c0.2-0.2,1.3-1.4,1.7-1.4c0.3,0,0.7,0.4,0.8,0.6c0.2,0.2,1.4,1.2,1.4,1.6c0,0.3-0.3,0.3-0.5,0.3h-15.8v0.6
			c-0.9,0.3-1.9,0.5-2.9,0.6c0.1-0.9,0.2-1.9,0.2-2.8v-7c-0.5,0.6-4.6,5-5.1,5c-0.1,0-0.2-0.1-0.2-0.2c0-0.1,0.5-0.8,0.6-1
			c1.3-1.9,2.4-3.9,3.5-5.9c0.8-1.4,1.6-2.9,2.2-4.4c0.3-0.8,0.6-1.6,0.7-2.5c0-0.2,0-0.3,0.3-0.3c0.6,0,3.8,1.2,3.8,1.7
			c0,0.4-0.6,0.5-0.9,0.6C1081.4,471.3,1080.6,472.6,1079.8,473.9z M1077.2,493.9v-4c0-0.6,0-1.5-0.2-2c-0.1-0.2-0.1-0.3-0.1-0.5
			s0.1-0.2,0.2-0.2c0.5,0,2.7,0.8,3.3,1.1h10c0.2-0.3,0.7-1.1,1.1-1.1c0.4,0,1.8,1,2,1.2c0.2,0.1,0.8,0.5,0.8,0.8
			c0,0.4-0.5,0.6-0.8,0.8v4c0,0.7,0.1,1.4,0.1,2c-1,0.4-2,0.7-3.1,0.9l0.1-1.7h-10.9v1c-0.9,0.3-1.9,0.5-2.8,0.7
			C1077.1,495.9,1077.2,494.9,1077.2,493.9z M1090.7,489.4h-10.5l-0.3,0.2v4.5h10.9V489.4z M1080.3,475.3l-0.3,0.2v2.2h5.1v-2.4
			H1080.3z M1085.1,481.1v-2.3h-5.1v2.3H1085.1z M1085.1,484.6v-2.4h-5.1v2.4H1085.1z M1088,473.1c-0.2,0.1-0.5,0.2-0.8,0.2
			c-1.5,0-1.5-1.9-1.7-2.9c-0.1-0.3-0.2-0.6-0.3-0.8c-0.2-0.5-0.3-0.8-0.7-1.1c-0.1-0.1-0.2-0.2-0.2-0.3c0.4-0.1,1.2,0.3,1.5,0.4
			c1.2,0.5,3.1,1.6,3.1,3.1C1088.9,472.3,1088.6,472.9,1088,473.1z"/>
	</g>
	<g>
		<path class="st3" d="M1357.8,484c-1.3,2.2-2.7,4.4-4.5,6.3c-0.1,0.1-0.3,0.3-0.4,0.3c-0.1,0-0.1-0.1-0.1-0.1
			c0-0.1,0.2-0.5,0.3-0.6c0.3-0.7,0.6-1.5,0.9-2.2c0.4-1,0.8-2,1.1-3.1c0.9-2.7,1.6-5.4,2.1-8.3c0.1-0.5,0-1.1,0-1.6
			c0-0.2,0-0.2,0.2-0.2c0.5,0,2.4,0.8,2.9,1c0.3,0.1,1.3,0.5,1.3,0.8c0,0.3-0.8,0.6-1,0.7C1359.8,479.3,1359,481.9,1357.8,484z
			 M1366.2,493.4c0,0.4,0,1.8-0.1,2.2c-0.5,1.4-2.7,1.6-4,1.8c-0.3-1.8-0.6-2.2-2.2-3c-0.2-0.1-0.7-0.3-0.7-0.5
			c0-0.1,0.1-0.1,0.2-0.1c0.2,0,0.4,0.1,0.7,0.1c0.8,0.1,1.5,0.3,2.2,0.3c0.8,0,1.3-0.2,1.3-1.1v-23.2c0-0.4-0.1-1.1-0.3-1.5
			c0-0.1-0.1-0.2-0.1-0.3c0-0.2,0.1-0.2,0.3-0.2c0.4,0,3.2,0.8,3.5,1c0.1,0.1,0.2,0.2,0.2,0.3c0,0.3-0.7,0.7-0.8,0.8V493.4z
			 M1368.8,475.4c0.1,0,0.3,0.2,0.3,0.2c3.3,2.7,7,8.2,7,12.7c0,1.1-0.3,2.5-1.6,2.5c-1.4,0-1.7-1.3-1.8-2.5l-0.2-1.8
			c-0.2-2.4-1.1-5.3-2.1-7.5c-0.4-0.9-0.8-1.9-1.4-2.7c-0.1-0.1-0.4-0.5-0.4-0.7C1368.6,475.5,1368.7,475.4,1368.8,475.4z"/>
		<path class="st3" d="M1391.4,472.9c0,0.4-0.3,1.1-0.4,1.6l-1.9,7.6c-0.5,2-1.4,4.8-1.4,6.8c0,1.2,0.3,2.3,0.7,3.4
			c0.2,0.5,0.3,1,0.3,1.5c0,0.9-0.5,1.6-1.5,1.6c-1.5,0-1.7-1.5-1.7-2.7v-1.9c0-0.6-0.2-1.2-0.4-1.8c-0.3-0.8-0.7-1-1.5-1.5
			c-0.1-0.1-0.2-0.1-0.2-0.3c0-0.3,1.3-0.2,1.8-0.4c0.5-0.3,2.5-5.3,2.8-6.2l3-7.9c0-0.1,0.1-0.2,0.2-0.2
			C1391.4,472.6,1391.4,472.7,1391.4,472.9z M1386.3,480.2c-1.5,0-1.4-2.4-1.9-3.4c-0.1-0.3-0.8-1.2-0.8-1.3c0-0.1,0.1-0.2,0.2-0.2
			c0.2,0,0.5,0.2,0.7,0.2c1.3,0.5,3.1,1.6,3.1,3.2C1387.6,479.4,1387.1,480.2,1386.3,480.2z M1388.3,473.4c-1.4,0-1.8-2.3-2.5-3.2
			c-0.2-0.3-0.4-0.5-0.7-0.7c-0.3-0.2-0.5-0.3-0.5-0.6c0-0.1,0.2-0.1,0.2-0.1c0.2,0,0.5,0.1,0.7,0.1c1.5,0.3,4.1,1.1,4.1,3
			C1389.7,472.8,1389.2,473.4,1388.3,473.4z M1391.6,479.7l-1-1.6c0.6,0,1.2,0.1,1.8,0.1h2.3V474h-1.5l-0.5,0.4l-1-1.6
			c1,0.1,2,0.2,3,0.2v-2.7c0-0.6,0-1.4-0.2-2c0-0.2-0.2-0.5-0.2-0.6c0-0.2,0.2-0.2,0.3-0.2c0.5,0,3.3,0.8,3.3,1.4
			c0,0.2-0.7,0.7-0.9,0.8v3.2h3c0-0.8,0.1-3-0.1-3.9c0-0.1-0.3-1-0.3-1.1c0-0.2,0.2-0.2,0.3-0.2c0.4,0,1.1,0.3,1.5,0.4
			c0.3,0.1,1.6,0.5,1.6,1c0,0.3-0.6,0.6-0.8,0.8v3h0.9c0.3-0.3,1.2-1.4,1.5-1.4c0.3,0,1.6,1.4,1.8,1.7c0.1,0.1,0.2,0.3,0.2,0.4
			c0,0.3-0.2,0.4-0.5,0.4h-4v4.2h1.6c0.3-0.3,1.2-1.3,1.5-1.3s1.6,1.4,1.9,1.7c0.1,0.1,0.2,0.3,0.2,0.4c0,0.3-0.3,0.4-0.5,0.4h-5.9
			c1,1.6,2.1,2.6,3.5,3.8c1.1,0.9,2.2,1.5,3.5,2.1c0.1,0.1,0.2,0.2,0.2,0.3c0,0.3-0.8,0.3-1,0.3c-0.8,0.1-1.5,0.5-2.1,1
			c-0.6-0.5-1.3-1.1-1.8-1.7c-1.9-2-2.2-3.2-3.1-5.8h-3.6c0.2,0.2,1.4,0.8,1.4,1.2c0,0.3-0.7,0.4-1,0.5c-0.8,0.8-1.5,1.6-2.3,2.4
			l2,0.9h3.2c0.2-0.2,0.8-0.8,1-0.8c0.3,0,2.4,1.4,2.4,1.6c0,0.3-0.4,0.5-0.6,0.7v3.4c0,0.5,0.1,1,0.1,1.5c-0.9,0.3-1.8,0.4-2.8,0.6
			l0.1-0.8h-3.9v3.3c0,0.2,0,0.4,0.2,0.6c0.2,0.2,2.2,0.2,2.6,0.2c0.8,0,3.1,0.1,3.7-0.2c0.3-0.2,0.6-0.4,0.8-0.8
			c0.5-0.9,0.8-2.7,1-3.6c0-0.1,0.1-0.2,0.2-0.2c0.3,0,0.2,1.4,0.2,1.7c0,1.6,0.1,2,1.6,2.7c-0.2,0.5-0.5,1-0.8,1.5
			c-0.8,1.2-4.2,1.1-5.5,1.1c-1.2,0-5.2,0.1-6-0.8c-0.3-0.3-0.3-0.8-0.3-1.2v-10.5c-1.3,1.1-2.6,2.1-4.1,3.1
			c-0.2,0.1-0.9,0.6-1.1,0.6c-0.1,0-0.2-0.1-0.2-0.2c0-0.2,0.8-0.9,0.9-1.1c1-1,1.8-2.2,2.7-3.3c0.8-1.1,2-2.7,2.5-4h-2.6
			L1391.6,479.7z M1400.2,489.4v-4h-3.6l-0.4,0.3v3.7H1400.2z M1400.1,478.2v-4.2h-3v4.2H1400.1z"/>
		<path class="st3" d="M1436.3,468.3c0.3,0,1.5,1.4,1.5,1.5c0.2,0.2,0.4,0.4,0.4,0.7c0,0.2-0.1,0.3-0.3,0.3h-17.9l-0.4,0.4v23.3
			h16.2c0.1-0.1,1.2-1.4,1.6-1.4c0.3,0,0.6,0.3,0.8,0.5c0.1,0.2,1.2,1.2,1.2,1.6c0,0.3-0.3,0.3-0.5,0.3h-19.1
			c-0.1,0.2-0.7,1.1-1.1,1.1c-0.3,0-2.4-1.7-2.4-2c0-0.3,0.9-1,1-1.1v-23.2c0-0.7-0.4-1.6-0.4-1.9c0-0.1,0.1-0.2,0.2-0.2
			c0.6,0,2.5,1,3.1,1.3h14.7C1434.9,469.6,1436,468.3,1436.3,468.3z M1426.6,482.3c0.2,0,0.4,0.2,0.5,0.3l1.4,0.9
			c0.1,0.1,0.3,0.2,0.3,0.4c0,0.3-0.5,0.7-0.8,0.9v5.2c0,0.5,0,1,0.1,1.6c-0.8,0.2-1.6,0.3-2.4,0.5l0.2-1.3h-2.2v1.3
			c-0.8,0.2-1.5,0.3-2.3,0.3c0.1-0.6,0.2-1.3,0.2-2v-5.9c0-0.4-0.1-1.1-0.3-1.4c-0.1-0.1-0.1-0.2-0.1-0.3c0-0.2,0.1-0.2,0.2-0.2
			c0.6,0,2.1,0.7,2.6,1h1.6C1425.6,483.3,1426.3,482.3,1426.6,482.3z M1431.8,472.2c0.2,0,0.5,0.3,0.7,0.3l1.3,1
			c0.1,0.1,0.3,0.3,0.3,0.5c0,0.3-0.6,0.7-0.8,0.8c0,1.5,0,3.1,0,4.6c0,0.4,0.1,0.9,0.1,1.3c-0.8,0.2-1.7,0.4-2.6,0.5l0.1-1.1h-4.6
			v0.9c-0.8,0.2-1.7,0.3-2.5,0.4c0.1-0.8,0.2-1.5,0.2-2.3v-5.1c0-0.4-0.1-0.9-0.2-1.3c-0.1-0.2-0.2-0.3-0.2-0.5
			c0-0.1,0.1-0.1,0.2-0.1c0.8,0,2.3,0.8,3,1.2h3.9C1430.8,473.2,1431.4,472.2,1431.8,472.2z M1425.8,489.5v-5.1h-2l-0.3,0.3v4.8
			H1425.8z M1430.9,479v-4.5h-4.1l-0.5,0.4v4.1H1430.9z M1435.1,482.4c0.4,0,1.6,1,1.8,1.1c0.1,0.1,0.4,0.3,0.4,0.5
			c0,0.3-0.7,0.8-0.8,0.9v5.2c0,0.5,0,1,0.1,1.6c-0.8,0.2-1.7,0.3-2.5,0.4l0.1-1.3h-2.3l0,1c-0.8,0.2-1.6,0.3-2.4,0.3
			c0.1-0.6,0.2-1.2,0.2-1.7v-5.9c0-0.4-0.1-0.8-0.2-1.2c-0.1-0.2-0.2-0.5-0.2-0.7c0-0.2,0-0.2,0.2-0.2c0.2,0,0.3,0.1,0.5,0.1
			c0.8,0.3,1.5,0.5,2.3,0.9h1.7C1434,483.5,1434.8,482.4,1435.1,482.4z M1434.2,489.7v-5.1h-2l-0.3,0.3v4.8H1434.2z"/>
		<path class="st3" d="M1457.6,466.6h2.5v31.7h-2.5V466.6z"/>
		<path class="st3" d="M1487.9,493.8h-12.3c0.1-1.1,0.4-2.1,0.9-3.1c0.8-1.4,1.9-2.6,3.1-3.8c1.5-1.5,3.1-3.4,4.2-5.3
			c1.1-1.8,1.8-3.6,1.7-5.7c0-1.2-0.2-2.6-1.3-3.4c-0.9-0.7-2.2-0.8-3.2-0.5c-1,0.3-2,1.3-2.3,2.4c-0.1,0.4,0,0.8,0.3,1
			c0.5,0.4,0.8,1,0.9,1.7c0.1,0.7,0,1.4-0.5,1.8c-0.5,0.5-1.1,0.7-1.8,0.5c-0.6-0.1-1.2-0.5-1.4-1.1c-0.4-0.8-0.4-1.7-0.2-2.6
			c0.3-1.4,1-3,2.2-3.9c1.4-1.1,3.2-1.6,5.1-1.3c1.7,0.2,3.4,1.2,4.2,2.8c0.7,1.3,0.9,2.8,0.8,4.3c-0.2,1.8-0.9,3.4-1.9,4.7
			c-1.7,2.3-4.2,4.7-6.7,7c-0.3,0.3-0.9,1-0.9,1.4h6.6c0.6,0,1.2-0.4,1.4-0.8c0.4-0.5,0.6-1.4,0.8-2.2c0-0.2,0.2-0.3,0.3-0.3h0.7
			c0.1,0,0.2,0.1,0.2,0.2L1487.9,493.8z"/>
		<path class="st3" d="M1491.1,484h7v2.5h-7V484z"/>
		<path class="st3" d="M1511.3,492.8c-1.3,1-3.1,1.4-4.8,1.3c-1.7-0.1-3.3-0.7-4.4-2c-0.9-1.1-1.4-2.4-1.4-3.9
			c0-0.7,0.2-1.2,0.8-1.7c0.4-0.4,1-0.5,1.6-0.4c0.7,0.1,1.2,0.6,1.4,1.3c0.1,0.4,0.1,0.9-0.2,1.3c-0.3,0.4-0.5,0.8-0.6,1.3
			c-0.1,0.4-0.1,0.7,0.1,1.1c0.7,1.2,2,1.8,3.3,1.7c1-0.1,2-0.7,2.6-1.5c1.2-1.5,1.4-4.4,0.8-6.1c-0.4-1.2-1.2-2.1-2.4-2.5
			c-0.8-0.3-2-0.3-2.9-0.3c-0.2,0-0.3-0.1-0.3-0.3v-0.8c0-0.2,0.1-0.3,0.3-0.3c0.9,0,1.9-0.1,2.7-0.4c0.6-0.3,1.1-0.7,1.5-1.3
			c0.8-1.2,1-2.9,0.8-4.3c-0.2-1.1-0.6-2.1-1.5-2.7c-0.8-0.6-1.8-0.6-2.8-0.3c-0.8,0.3-1.5,0.8-2,1.6c-0.3,0.4-0.4,0.7-0.3,1.2
			c0,0.3,0.3,0.8,0.6,1c0.4,0.4,0.5,1,0.4,1.5c-0.1,0.6-0.4,1.2-1,1.4c-0.6,0.3-1.2,0.2-1.7-0.2c-0.5-0.4-0.8-1.2-0.8-1.9
			c0-1.3,0.4-2.5,1.1-3.6c0.8-1.1,1.9-2,3.2-2.3c1.6-0.4,3.5-0.3,4.8,0.4c1.2,0.7,2.1,1.9,2.5,3.2c0.4,1.4,0.3,3.3-0.3,4.6
			c-0.6,1.3-2,2.4-3.3,2.5c1.6,0.3,3.2,1.4,4,3c0.7,1.4,0.8,3.3,0.5,4.7C1513.2,490.7,1512.4,491.9,1511.3,492.8z"/>
		<path class="st3" d="M1542,485.3h-9.8c0.2,0.1,1.4,0.6,1.4,0.9c0,0.3-0.8,0.6-0.9,0.7c-0.2,0.5-0.5,1-0.6,1.5h4.8
			c0.2-0.2,0.8-1.1,1.2-1.1c0.3,0,2.1,1.4,2.4,1.7c0.1,0.1,0.4,0.3,0.4,0.5c0,0.3-1,0.8-1.1,0.9c-0.6,2.1-1.3,4-2.7,5.6
			c-0.6,0.6-1.2,1.1-2,1.4c-0.7,0.2-1.4,0.3-2,0.3c-0.1-0.9-0.1-1.4-0.6-2.1c-0.4-0.6-0.9-0.8-1.5-1.1c-0.1,0-0.1-0.1-0.1-0.1
			c0-0.1,0.2-0.2,0.3-0.2c0.5,0,1.4,0.3,2,0.3c0.3,0,0.7,0,1-0.1c0.6-0.2,1-0.6,1.3-1.1c0.8-1.4,1.1-2.1,1.5-3.6h-5.3
			c-0.4,0.8-0.9,1.6-1.4,2.1c-1.9,2.4-3.9,3.9-7.3,5.2c-0.2,0.1-1.3,0.4-1.4,0.4c-0.1,0-0.1-0.1-0.1-0.1c0-0.4,0.6-0.6,0.8-0.8
			c1.1-0.8,2.2-1.6,3.1-2.5c2.9-2.8,4.4-6,4.7-8.5h-3.9l-0.6,0.5l-0.8-1.4c-0.2,2.8-0.2,3.7-1.4,6.4c-0.8,1.8-2,3.3-3.5,4.5
			c-0.2,0.1-1,0.9-1.2,0.9c-0.1,0-0.1-0.1-0.1-0.1c0-0.2,0.3-0.7,0.4-0.9c0.8-1.4,1.4-2.7,1.9-4.2c1-3,1.1-6.2,1.1-9.3
			c0-1.9,0-3.7,0-5.5c0-1,0-2-0.1-2.9c-0.2-2.1,0-0.6-0.3-1.8c-0.1-0.3-0.4-1-0.5-1.4c-0.1-0.2,0.1-0.1,0.3-0.1l3.2,1.3
			c2.8-0.4,9.2-1.7,11.3-2.5c0.3-0.1,0.9-0.4,1.1-0.7c0,0,0.2-0.4,0.2-0.4c0.3,0,2.9,2.6,2.9,3c0,0.3-1.5,0.2-1.8,0.3
			c-0.5,0-1.4,0.3-2,0.4c-1.5,0.3-4.2,0.5-5.8,0.7c-2.4,0.3-4,0.3-6,0.3v2h12.2c0.2-0.2,0.9-1.3,1.2-1.3c0.2,0,3,1.7,3,1.9
			c0,0.3-0.8,0.7-1,0.8c0,0.8,0,0.9,0,1.7c0,0.9,0.1,1.9,0.2,2.8c-1,0.3-2,0.6-3,0.7l0.1-1.3h-12.6c-0.1,1.5-0.1,2.8,0,4.4
			c0.6,0.1,1.3,0.2,1.9,0.2h12c0.3-0.3,1.3-1.4,1.7-1.4c0.2,0,0.4,0.2,0.5,0.3c0.3,0.3,1.8,1.7,1.8,2
			C1542.4,485.2,1542.2,485.3,1542,485.3z M1537.2,475.2h-12.6c0,0.6,0-0.9,0,3.3h12.6V475.2z M1532.3,484.1c-1.9,0-1.1-2.3-2.2-3.4
			c-0.1-0.1-0.6-0.5-0.6-0.7c0-0.1,0.1-0.1,0.2-0.1c0.7,0.2,1.4,0.3,2.1,0.5c1.2,0.3,2,0.9,2,2.2
			C1533.8,483.4,1533.1,484.1,1532.3,484.1z"/>
		<path class="st3" d="M1560.7,466.6h2.5v31.7h-2.5V466.6z"/>
		<path class="st3" d="M1591.2,477.9c0.8,0,2.5,1.1,2.5,2c0,0.5-0.7,0.9-1,1.2c-0.4,0.3-0.8,0.8-1.1,1.3c-0.6,0.8-1.1,1.7-1.6,2.7
			c-0.1,0.1-0.2,0.3-0.3,0.3c-0.1,0-0.2-0.2-0.2-0.3v-0.1l0.9-4.9h-1.7l-0.4,0.3v14.1c0,0.4-0.1,0.8-0.3,1.2
			c-0.3,0.5-0.6,0.6-1.1,0.8l-1.8,0.5c-0.3-1.3-0.4-1.8-1.6-2.4c-0.1-0.1-1-0.4-1-0.7c0-0.2,0.2-0.2,0.3-0.2c0.7,0,1.5,0.2,2.3,0.2
			c0.7,0,0.8-0.3,0.8-1v-12.8h-2.9l-0.6,0.4l-1.2-1.7c0.5,0.1,1.2,0.2,1.7,0.2h7.3C1590.6,478.4,1590.8,477.9,1591.2,477.9z
			 M1584.1,469.8h5.6c0.1-0.2,0.7-0.9,0.9-0.9c0.6,0,2.7,2.2,2.7,2.8c0,0.6-0.8,0.7-1.3,0.8c-0.4,0.1-2.3,1.5-2.7,1.9l-1.1,1.2
			c0.3,0.4,0.6,1,0.6,1.6c0,0.8-0.4,1.4-1.3,1.4c-0.4,0-0.8-0.1-1-0.5c-0.7-1-0.8-2.4-1.5-3.3c-0.2-0.2-0.3-0.4-0.5-0.6
			c-0.1-0.1-0.3-0.3-0.3-0.4c0-0.1,0.1-0.2,0.2-0.2c0.7,0,2.5,0.9,3.1,1.3c0.8-1.3,1.4-2.5,2-4h-5.6l-0.7,0.4l-1-1.7
			C1582.9,469.7,1583.6,469.8,1584.1,469.8z M1592.7,496.8c-0.2,0.1-0.8,0.4-0.9,0.4c-0.1,0-0.2-0.1-0.2-0.2c0-0.2,0.6-0.7,0.8-0.8
			c1-0.9,2-2,2.9-3.1c0.4-0.5,1-1.1,1.3-1.7c0.1-0.2,0.2-0.4,0.3-0.7c0,0,0.1-0.3,0.2-0.3c0.6,0,2.5,1.8,2.5,2.4
			c0,0.3-0.7,0.4-0.9,0.4C1596.8,494.6,1594.9,496,1592.7,496.8z M1594.7,471l-0.5,0.3l-1.3-1.6c0.6,0.1,1.2,0.2,1.8,0.2h7.4
			c0.2-0.2,0.9-1.3,1.3-1.3c0.3,0,0.6,0.3,0.8,0.5c0.2,0.3,1.3,1.2,1.3,1.6c0,0.2-0.1,0.3-0.3,0.3h-5.3c0.3,0.1,1.2,0.6,1.2,0.9
			c0,0.3-0.6,0.5-0.8,0.5c-0.5,0.9-0.9,1.9-1.4,2.9h2.3c0.1-0.2,0.7-1,0.9-1c0.4,0,2.4,1.4,2.4,1.8c0,0.2-0.4,0.5-0.6,0.6v10.5
			c0,1,0.1,2,0.1,3c-0.8,0.3-1.7,0.6-2.6,0.7l0.1-1.4h-5v1.3c-0.8,0.3-1.6,0.4-2.5,0.5c0.1-1.2,0.2-2.4,0.2-3.5v-10.4
			c0-0.5,0-1-0.1-1.5c0-0.3-0.1-0.6-0.2-0.9c-0.1-0.1-0.2-0.3-0.2-0.4c0-0.2,0.2-0.2,0.3-0.2c1,0,2.1,0.6,2.9,1.1h0.5
			c0.2-1.5,0.4-2.9,0.4-4.3H1594.7z M1601.3,476.4h-4.8l-0.3,0.3v2.8h5V476.4z M1601.3,484v-3.4h-5v3.4H1601.3z M1601.3,488.3v-3.2
			h-5v3.2H1601.3z M1603.5,496.7c-0.6,0-1.2-0.5-1.4-1c-0.5-1.1-0.8-2.2-1.4-3.2c-0.3-0.4-0.5-0.9-0.8-1.2c-0.1-0.1-0.2-0.3-0.3-0.3
			c0-0.3,0-0.3,0.2-0.3c0.1,0,0.9,0.4,1.1,0.5c1.4,0.7,3.8,2.2,3.8,4.1C1604.7,495.9,1604.3,496.7,1603.5,496.7z"/>
		<path class="st3" d="M1620.5,473.9l0.4,0.3h12.2c0.2-0.2,1.1-1.3,1.5-1.3c0.3,0,0.7,0.3,0.8,0.6c0.2,0.2,1.3,1.2,1.3,1.5
			c0,0.3-0.3,0.3-0.5,0.3h-7.5l-0.3,0.4v2h3.2c0.2-0.2,1-1.2,1.4-1.2c0.2,0,0.4,0.2,0.6,0.4c0.2,0.3,1.2,1.2,1.2,1.5
			c0,0.2-0.2,0.3-0.3,0.3h-6.1v2.3h3c0.2-0.2,1.1-1.3,1.6-1.3c0.3,0,0.6,0.3,0.8,0.5c0.3,0.3,1.3,1.2,1.3,1.6c0,0.3-0.3,0.3-0.4,0.3
			h-6.2v2.4l4.6,0c0.2-0.2,1.3-1.4,1.7-1.4c0.3,0,0.7,0.4,0.8,0.6c0.2,0.2,1.4,1.2,1.4,1.6c0,0.3-0.3,0.3-0.5,0.3h-15.8v0.6
			c-0.9,0.3-1.9,0.5-2.9,0.6c0.1-0.9,0.2-1.9,0.2-2.8v-7c-0.5,0.6-4.6,5-5.1,5c-0.1,0-0.2-0.1-0.2-0.2c0-0.1,0.5-0.8,0.6-1
			c1.3-1.9,2.4-3.9,3.5-5.9c0.8-1.4,1.6-2.9,2.2-4.4c0.3-0.8,0.6-1.6,0.7-2.5c0-0.2,0-0.3,0.3-0.3c0.6,0,3.8,1.2,3.8,1.7
			c0,0.4-0.6,0.5-0.9,0.6C1622.1,471.3,1621.3,472.6,1620.5,473.9z M1617.9,493.9v-4c0-0.6,0-1.5-0.2-2c-0.1-0.2-0.1-0.3-0.1-0.5
			s0.1-0.2,0.2-0.2c0.5,0,2.7,0.8,3.3,1.1h10c0.2-0.3,0.7-1.1,1.1-1.1c0.4,0,1.8,1,2,1.2c0.2,0.1,0.8,0.5,0.8,0.8
			c0,0.4-0.5,0.6-0.8,0.8v4c0,0.7,0.1,1.4,0.1,2c-1,0.4-2,0.7-3.1,0.9l0.1-1.7h-10.9v1c-0.9,0.3-1.9,0.5-2.8,0.7
			C1617.8,495.9,1617.9,494.9,1617.9,493.9z M1631.4,489.4h-10.5l-0.3,0.2v4.5h10.9V489.4z M1621,475.3l-0.3,0.2v2.2h5.1v-2.4H1621z
			 M1625.8,481.1v-2.3h-5.1v2.3H1625.8z M1625.8,484.6v-2.4h-5.1v2.4H1625.8z M1628.7,473.1c-0.2,0.1-0.5,0.2-0.8,0.2
			c-1.5,0-1.5-1.9-1.7-2.9c-0.1-0.3-0.2-0.6-0.3-0.8c-0.2-0.5-0.3-0.8-0.7-1.1c-0.1-0.1-0.2-0.2-0.2-0.3c0.4-0.1,1.2,0.3,1.5,0.4
			c1.2,0.5,3.1,1.6,3.1,3.1C1629.5,472.3,1629.2,472.9,1628.7,473.1z"/>
	</g>
</g>
</svg>
