<svg id="圖層_2" data-name="圖層 2" xmlns="http://www.w3.org/2000/svg" viewBox="0 0 300 100"><defs><style>.cls-1{fill:#231815;}.cls-2{fill:#c30d23;}</style></defs><path class="cls-1" d="M150.5,69.1c.3-.3,1.8-1.9,2.3-1.9s.8.4,1.1.6c.4.4,2.1,1.7,2.1,2.4a.58.58,0,0,1-.6.6H126.6l-.7.7L124.5,69c.8,0,1.6.1,2.4.1H141c1.2-4.1,2.1-8.2,2.9-12.3a56.17,56.17,0,0,0,1-7v-.9c0-.4-.1-.8-.1-1.2s.1-.3.3-.3c.9,0,5.5,1.9,5.5,2.5,0,.4-1,.8-1.3.9A103.27,103.27,0,0,1,145.1,63c-.8,2-1.8,4-2.8,6h8.2Zm.7-26.8c.4,0,.8.4,1.1.6l1.5,1.4a1.33,1.33,0,0,1,.6.9c0,.4-.3.6-.7.6h-25l-.6.7L126.7,44c.8,0,1.6.2,2.4.2H149C149.1,44,150.7,42.3,151.2,42.3ZM131.7,49c.5,0,1.7,1.1,2,1.4,2.8,2.5,4.9,5.8,4.9,9.7,0,1.4-.5,3-2.2,3-.7,0-1.2-.6-1.6-1.1-.7-1-.8-4.8-.9-6.3a14,14,0,0,0-.6-2.8,9.62,9.62,0,0,0-.7-1.8c-.3-.4-1.1-1.4-1.1-1.8C131.5,49.1,131.6,49,131.7,49Zm5.1-16.7a.9.9,0,0,1,.5.1c2.9,1.3,6.5,3.1,6.5,6.7,0,1.4-.6,2.6-2.1,2.6-2.3,0-2.4-2.2-2.7-4a7.83,7.83,0,0,0-.7-2.5,29.26,29.26,0,0,0-1.8-2.6C136.4,32.4,136.6,32.3,136.8,32.3Z"/><path class="cls-1" d="M178.9,33.7c.6,0,2.4,1.4,2.9,1.7.1.1.6.4.6.7s-.7.9-1,1.1V48.6c0,1.1.1,2.3.2,3.5a12.94,12.94,0,0,1-3.8,1.2l.1-2.5h-5.2V60.9l5-2.3a17,17,0,0,0-2.2-4.5c0-.3.2-.3.3-.3a5.37,5.37,0,0,1,1.6,1,15.37,15.37,0,0,1,1.9,1.7c1.5,1.4,3,3.6,3,5.7,0,1.3-.5,2.8-2,2.8s-1.9-1.4-2.1-2.8a21.3,21.3,0,0,0-.3-2.5,35.21,35.21,0,0,0-4.1,3.6,40.31,40.31,0,0,0-2.6,3.2l-3-4.5a3,3,0,0,0,1.1-2.3v-23a12.1,12.1,0,0,0-.1-1.9c-.1-.5-.5-.9-.5-1.3a.22.22,0,0,1,.2-.2c.9,0,3.9,1.5,4.8,1.9h3.6C177.6,35.1,178.6,33.7,178.9,33.7Zm-.9,8.5V36.8h-4.8l-.4.4v5Zm0,7.1V43.7h-5.2v5.6Zm6.8-14a10.26,10.26,0,0,1-.4-1.4c0-.2,0-.3.2-.3a35.18,35.18,0,0,1,4.5,1.8h3.1c.2-.2,1.3-1.5,1.7-1.5.6,0,2.3,1.4,2.7,1.7.2.1.7.5.7.8,0,.5-.7.8-1.1,1.1V61.9a4.4,4.4,0,0,1-.2,1.6c-.3,1.3-3.7,1.9-4.8,1.9a5.37,5.37,0,0,0-.5-2.1c-.5-1.1-2.4-1.6-2.4-1.9a.32.32,0,0,1,.3-.3c1.1.1,2.2.3,3.3.3.7,0,.8-.5.8-1.1V37.1h-4.2l-.2.3V65.6c0,1.8.2,3.6.3,5.4a18.9,18.9,0,0,1-4.1,1c.1-1.9.3-3.8.3-5.6V35.3Z"/><path class="cls-1" d="M238.5,58a31.22,31.22,0,0,1-5.5.3c.6.2.9.3.9.5s-.4.5-.7.6v1h2.9a15.27,15.27,0,0,1,1.8-1.8c.3,0,1.9,1.7,2.2,1.9a1.62,1.62,0,0,1,.5.9.56.56,0,0,1-.6.5h-6.8v7.7a3.19,3.19,0,0,1-.3,1.4c-.5.8-3.3,1.1-4.4,1.1a4.4,4.4,0,0,0-.2-1,3.4,3.4,0,0,0-2-1.9c-.3-.1-1.7-.6-1.7-.8s.2-.4.4-.3h1.1c.9,0,1.9.2,2.8.2s1-.6,1-1.5v-5H211.5l-.8.6L209,60.1c1,0,2.1.2,3.1.2h17.7V58.7l-.3-.6c-5.7-.4-11.9-1.3-13.6-3.3-2.3,1.8-2.6,1.9-6.4,3.4l-.2-.4c3.5-2.5,6.6-5.8,7.1-9.2h-1.5a3.5,3.5,0,0,1-2.2.6c-.4-.2-1.9-1.4-1.7-2l1.3-1a33.24,33.24,0,0,0,2.2-4.1h-2.4a2.69,2.69,0,0,0-1.3.5l-.9-1.9,1.9.2h2.7l1.5-1.4c.3-.3,2.2,1.6,2.7,2.2s-.8,1.1-1.2,1.4c-.4.9-1.7,2.8-2.6,4.3h1.7l1.4-1.1c.2-.2,2.4,2.2,2.5,2.7.3.4-.8.8-1.1,1.3a19.25,19.25,0,0,1-3.1,4.1c3.4,2,18,.9,21.9.2.9-.2,2.2-.5,3-.6.4,0,.5.3,0,.6A4.77,4.77,0,0,0,238.5,58ZM214.8,38.5a1.5,1.5,0,0,1-1.1-.4c-.9-.8-.5-2.5-1.4-3.9a4.49,4.49,0,0,0-1.1-1.3c-.1,0-.2-.1-.2-.3s.3-.2.4-.2a5.73,5.73,0,0,1,1.4.4,17.6,17.6,0,0,1,2,.9,3.29,3.29,0,0,1,1.9,2.8A2.06,2.06,0,0,1,214.8,38.5Zm6.5,29.9a2,2,0,0,1-1.4-.6c-.6-.7-.5-1.8-.7-2.6a8.42,8.42,0,0,0-1.1-2.1,1.79,1.79,0,0,1-.5-.7c0-.2.1-.2.2-.2a6.11,6.11,0,0,1,1.3.3c1.7.5,3.9,1.8,3.9,3.9A1.82,1.82,0,0,1,221.3,68.4Zm19-28.8h-10a1.42,1.42,0,0,1,.2.6c0,.3-.6.3-.8.3l-1.6,1.7H233c.3-.3.9-1.3,1.4-1.3a12.83,12.83,0,0,1,3,1.7.66.66,0,0,1,.4.5c0,.4-.8.8-1.1,1.1v5.4c0,1.1.2,2.7.3,3.8a21.07,21.07,0,0,1-3.6.9l.1-1.6h-8.3V54a19.68,19.68,0,0,1-3.5.6c.1-1.3.3-3.2.3-4.5V44.4a10.87,10.87,0,0,0-.1-1.8c0-.4-.3-.8-.3-1.1s0-.3.3-.3c1.2,0,2.9,1.3,4.5,1.1a26.14,26.14,0,0,1,.6-2.7h-5.9l-.8.6L218.7,38c1,0,2.1.2,3.1.2h8.8a18.16,18.16,0,0,0,1.4-3.9,5.93,5.93,0,0,0,.4-1.7c0-.1,0-.3.1-.3h.2c.8,0,4.1,1.5,4.1,2.2,0,.4-1,.6-1.2.6l-3.3,3.2h4.2c.3-.3,1.4-1.9,1.7-1.9.5,0,2.2,1.9,2.5,2.2a1,1,0,0,1,.4.7C241,39.5,240.7,39.6,240.3,39.6Zm-13.7-2c-2.1,0-1.4-2.5-2.8-4-.2-.2-1.2-1.1-1.2-1.4,0-.1.2-.2.3-.2a4.25,4.25,0,0,1,1.1.2c1.3.3,4.3,1,4.3,2.7v.3C228.3,36.5,228.1,37.6,226.6,37.6Zm6.9,6.1h-8l-.3.3v1.3h8.3Zm0,2.9h-8.3v1.7h8.3Zm0,3.1h-8.3v1.7h8.3Z"/><path class="cls-1" d="M265.3,52.6V67c0,3-1.7,3.8-4.4,4.2-.2-1.2-.6-2.5-1.7-3-.3-.1-1.2-.4-1.2-.8,0-.1.3-.2.3-.2.9,0,1.7.2,2.6.2s1.3-.2,1.3-1.1V52.6h-4.6c-.1,3.5-.1,8.5-1.4,11.7a9.93,9.93,0,0,1-1.4,2.7,14.42,14.42,0,0,1-2.2,2.7,7.47,7.47,0,0,1-1.4,1.2c-.2-.5.4-1.4.6-1.6a22.63,22.63,0,0,0,1.7-4.3,48.28,48.28,0,0,0,1.1-10.8V52.5h-1.2l-.6.5-1.4-2.1c1,.1,2.4.3,3.3.3V41.8a10.88,10.88,0,0,0-.3-3.1,5.64,5.64,0,0,1-.4-1.2c0-.3.2-.3.4-.3a12.63,12.63,0,0,1,3.4,1.5,18,18,0,0,0,1.4-6.5.27.27,0,0,1,.3-.3c.5,0,4.2,1.1,4.2,1.8,0,.5-.9.8-1.3,1-.9,1.5-1.9,2.9-2.9,4.3H262c.3-.3,1.1-1.4,1.7-1.4s1.9,1.1,2.3,1.4c.2.2.7.6.7.9,0,.5-.8.9-1.1,1.1V51.3l1.3-1.3c.3-.3.4-.5.7,0l1.7,1.9c.4.4.3.8-.3.8h-3.7Zm-3.1-12.2h-3.9l-.8.6V51.2h4.7V40.4Zm-2.3,20.8a1.48,1.48,0,0,1-1.4-1.6c0-.7.2-1.4.2-2.1a10.79,10.79,0,0,0-.3-1.9c0-.2-.2-.5-.2-.7s0-.3.1-.3.4.2.6.3l.7.5a3.33,3.33,0,0,1,.9,1.1,4,4,0,0,1,1,2.6C261.5,60,260.9,61.2,259.9,61.2Zm0-12.2a1.43,1.43,0,0,1-1.3-1.5c0-.6.1-1.2.1-1.8a5.93,5.93,0,0,0-.5-2.3c0-.2,0-.3.1-.3.5,0,2.1,1.6,2.5,2a2.46,2.46,0,0,1,.8,1.7C261.6,47.7,261,49,259.9,49Zm24.4,20.5c-.7,1.8-3.2,1.8-4.8,1.8a9.08,9.08,0,0,1-3.3-.4c-.7-.3-.8-1.2-.8-1.9V50.4h-2.1l-.6.7c-.1,3.6-.3,7.1-.7,10.6a13.27,13.27,0,0,1-1.2,4,15,15,0,0,1-4,5,11.24,11.24,0,0,1-1.5,1.1c-.1-.4.6-1.4.7-1.6a20.8,20.8,0,0,0,1.9-4.3,39.45,39.45,0,0,0,1.5-11.3V51.5a9.23,9.23,0,0,0-.3-2.9,10.41,10.41,0,0,1-.5-1.2c0-.3.2-.3.4-.3a17.18,17.18,0,0,1,4.3,1.8H275c.3-.3,1-1.6,1.5-1.6a7,7,0,0,1,2.4,1.3c.3.2.8.6.8,1s-.8,1-1.2,1.2V66.6c0,1,.5.9,1.3.9.4,0,1.3,0,1.6-.3.5-.4,1.2-4,1.3-4.3,0-.1.1-.4.3-.4s.2.3.2.4a24.52,24.52,0,0,0-.2,2.7c0,1.4.6,1.9,1.8,2.4C284.6,68.6,284.5,69,284.3,69.5ZM283.5,43H268.2l-.6.5L266,41.4a28.5,28.5,0,0,0,2.9.3h10c.3-.3,1.5-2,2.2-2a2.07,2.07,0,0,1,1,.6c.3.3,1.9,1.7,1.9,2.3C284.1,42.9,283.8,43,283.5,43Zm-9-2.9a1.82,1.82,0,0,1-1.4-.6c-.6-.7-.5-2.5-.7-3.4-.1-.4-.3-.8-.4-1.1a6.7,6.7,0,0,0-1.1-1.8c-.1-.1-.2-.2-.2-.3s.1-.1.2-.1a4.51,4.51,0,0,1,1.1.3c1.9.9,4.6,2.6,4.6,5A2.09,2.09,0,0,1,274.5,40.1Z"/><path class="cls-2" d="M56,77c-7.8-8-15.1-17-19.1-27.5C35,44.6,32.7,38,35.4,33a6.14,6.14,0,0,1,4.7-3.4,9.07,9.07,0,0,1,6.7,2.8,27.55,27.55,0,0,1,5,7.7,66.09,66.09,0,0,1,3.8,9.6,2.49,2.49,0,0,0,4.8-1.3c-.6-3.5,2.1-6.5,4.5-8.6a30.9,30.9,0,0,1,9.7-5.4c6.4-2.2,14.5-2.3,18.2,4.4,3.4,6.1,1.5,13.7-2.8,18.9-5.2,6.2-12.8,10.1-20.3,12.8-9.4,3.3-19.3,4.8-29.1,6.2a2.48,2.48,0,0,0-1.7,3.1A2.56,2.56,0,0,0,42,81.5c9.7-1.4,19.4-2.9,28.7-6.1,8.7-3,17.6-7.5,23.4-14.8,5.4-6.8,7.5-16.2,3.2-24.2a16.2,16.2,0,0,0-9.7-7.7,22.67,22.67,0,0,0-12.9.5c-8.7,2.6-21,9.9-19,20.6,1.6-.4,3.2-.9,4.8-1.3a77.46,77.46,0,0,0-4.1-10.4,36.08,36.08,0,0,0-5.2-8.3C46.9,24.9,39.5,22.6,34,27s-5.3,12.3-3.6,18.6a64.36,64.36,0,0,0,8.1,17.9,108.55,108.55,0,0,0,13.9,17c2.3,2.3,5.8-1.2,3.6-3.5Z"/><path class="cls-2" d="M55.19,78.5c-9.44-9.62-17.9-20.76-21.4-33.78A21.38,21.38,0,0,1,33,34.88c.68-3.25,2.77-6.36,5.88-7.51s6.84-.11,9.5,2a23.36,23.36,0,0,1,6,8.07,71.15,71.15,0,0,1,4.65,11.45c-1.15-5.62,3.78-10.57,8.64-13.61,7.5-4.67,17.77-7.51,24.8-2.16C98.1,37.35,99.45,45.64,97,52.21S89,63.77,83,67.33c-12.19,7.19-26.6,9.39-40.61,11.46"/><path class="cls-2" d="M56.08,77.61c-8-8.14-15.33-17.34-19.42-28.09-2-5.23-4.26-12.08-1.29-17.35a7.41,7.41,0,0,1,5.81-4,10.1,10.1,0,0,1,7.57,3.14,28.05,28.05,0,0,1,5.21,8,70.48,70.48,0,0,1,3.91,9.92,1.26,1.26,0,0,0,2.42-.67c-.72-4,2-7.4,4.83-9.83a32,32,0,0,1,10.27-5.77c6.94-2.41,15.6-2.21,19.62,5,3.72,6.65,1.65,14.79-3,20.39-5.3,6.38-13.11,10.38-20.82,13.08C61.77,74.64,51.85,76.12,42,77.57c-1.59.24-.91,2.66.67,2.43,9.68-1.43,19.45-2.89,28.73-6.08C79.9,71,88.61,66.62,94.27,59.45c5-6.38,7-15.25,3-22.68a15,15,0,0,0-9-7.16A22,22,0,0,0,76,30.09c-7.94,2.38-19.95,9.19-18.15,19.11l2.42-.67a76.22,76.22,0,0,0-4-10.11,34.22,34.22,0,0,0-5-8c-3.82-4.3-10.53-6.67-15.46-2.72-5.24,4.21-4.9,11.51-3.33,17.38a62.37,62.37,0,0,0,8,17.58A108.37,108.37,0,0,0,54.3,79.39c1.13,1.16,2.91-.62,1.78-1.78Z"/></svg>