<?xml version="1.0" encoding="utf-8"?>
<!-- Generator: Adobe Illustrator 24.1.1, SVG Export Plug-In . SVG Version: 6.00 Build 0)  -->
<svg version="1.1" id="圖層_2" xmlns="http://www.w3.org/2000/svg" xmlns:xlink="http://www.w3.org/1999/xlink" x="0px" y="0px"
	 viewBox="0 0 300 100" style="enable-background:new 0 0 300 100;" xml:space="preserve">
<style type="text/css">
	.st0{fill:#231815;}
	.st1{fill:#C30D23;}
</style>
<g>
	<g>
		<path class="st0" d="M116.3,35.6c0-0.5,0-1.7-0.2-2c-0.1-0.3-0.3-0.6-0.3-0.9c0-0.3,0.3-0.3,0.5-0.3c0.6,0,3.4,1,4,1.2
			c0.2,0.1,0.4,0.2,0.4,0.4c0,0.4-0.9,1.1-1.2,1.3l0,7.4h0.7c0.1-0.1,0.9-1.4,1.3-1.4c0.4,0,2.3,2.2,2.3,2.6c0,0.3-0.4,0.3-0.6,0.3
			h-3.7v5.5c0.3-0.2,2.8-1.9,2.9-1.9c0.1,0,0.3,0.1,0.3,0.3c0,0.2-2.8,3.2-3.1,3.6v17.8c0,0.6-0.1,1.3-0.4,1.8
			c-0.4,0.8-3.3,1.1-4.1,1.2c-0.1-1.2-0.2-2-1.4-2.5c-0.3-0.1-1.4-0.5-1.4-0.8c0-0.2,0.2-0.2,0.3-0.2c0.9,0.1,1.8,0.2,2.7,0.2
			c0.9,0,1.1-0.7,1.1-1.5V55.3c-0.8,1.1-1.6,2.1-2.3,3.2l-2.1-4.4c1.5-0.6,3-1.4,4.4-2.3l0-7.6h-2.6l-0.8,0.6l-1.5-2.2
			c1.6,0.2,3.2,0.3,4.8,0.2L116.3,35.6z M129.1,36.8h-5l-0.7,0.6l-1.5-2.2c0.8,0,1.7,0.2,2.6,0.2h4.6c0.3-0.3,0.9-1.2,1.4-1.2
			c0.6,0,3.1,2.2,3.1,2.8c0,0.5-1.1,0.9-1.4,1.1c-1.9,4.2-3.4,6.3-6.3,9.8c0.2,0,0.4,0,0.6,0h1.6c0.1-0.2,0.8-1.2,1.1-1.2
			c0.3,0,2.9,1.6,2.9,2.1s-0.7,0.9-1,1.1v4.6c0,0.6,0.1,1.1,0.1,1.7c-0.9,0.5-2,0.8-3,1.1l0.1-1.7H127l-0.3,0.3l-0.4,4h1.7
			c0.2-0.2,0.8-1.1,1.1-1.1c0.2,0,0.5,0.2,0.7,0.3l2,1.3c0.2,0.1,0.3,0.3,0.3,0.4c0,0.3-0.6,0.7-0.9,0.9c-0.2,3.1,0.2,7.4-2.2,9.8
			c-0.8,0.8-2.2,1.1-3.3,1.3c-0.3-1.2-0.4-2.2-1.7-2.8c-0.2-0.1-1.7-0.6-1.7-0.9c0-0.2,0.3-0.3,0.4-0.3c1,0,2,0.3,3,0.3
			c2.1,0,2.3-1.6,2.4-3.3c0.1-0.8,0.2-1.7,0.2-2.5c0-0.7,0-1.3,0-1.9h-2.2c-0.3,0.3-0.8,1.1-1.2,1.1c-0.3,0-2.4-1.9-2.4-2.2
			c0-0.3,1.1-1,1.2-1.1l0.4-4.5c0-0.6-0.2-1-0.2-1.5c0-0.2,0.1-0.3,0.4-0.3s2.5,1.1,2.7,1.2h1.4v-4.6h-3l-0.5,0.4l-0.3-0.6
			c-0.3,0.3-3,2.5-3.3,2.5c-0.1,0-0.2-0.1-0.2-0.2c0-0.1,0.1-0.3,0.2-0.4c2.1-2.4,3.4-4.5,5-7.3c-0.2,0-0.3,0-0.5,0
			c-0.5,0-0.8-0.1-1-0.6c-0.3-0.6-0.3-2.4-0.6-3.4c-0.1-0.3-0.6-1.5-0.6-1.7c0-0.1,0-0.3,0.1-0.3c0.2,0,1.5,1,1.7,1.1
			c1.3,0.8,1.5,1.3,1.9,2.7C127.9,40.1,128.5,38.4,129.1,36.8z M138,60.2h-3.7l-0.8,0.6l-1.5-2.3c0.8,0,1.7,0.2,2.5,0.2h3.6
			c0.3-0.3,0.5-0.9,0.9-0.9c0.3,0,3.1,2.1,3.1,2.5c0,0.4-0.8,0.8-1.1,0.9c-0.8,1.4-1.5,2.9-2.3,4.3c1.2,1.1,3.4,3.3,3.4,5.1
			c0,1-0.9,1.9-1.9,1.9c-0.6,0-1.1-0.4-1.4-0.9c-0.6-1.1-1.1-2.8-1.7-4c-1.7,1.9-3.3,3.3-5.6,4.4c-0.3,0.1-1,0.5-1.3,0.5
			c-0.1,0-0.2,0-0.2-0.1c0-0.1,0.2-0.3,0.3-0.3l1.1-0.9c1.8-1.4,3.3-3.8,4.5-5.8c-0.7-1.4-1.6-2.5-2.5-3.8c-0.1-0.1-0.2-0.2-0.2-0.3
			c0-0.1,0.1-0.2,0.2-0.2c0.1,0,2.9,2.3,3.2,2.6C137.2,62.5,137.6,61.5,138,60.2z M136.7,47.9c0.1-0.2,0.8-1,1.1-1
			c0.4,0,2.5,1.7,2.5,2c0,0.3-0.5,0.6-0.7,0.7v3.9c0,0.3,0.2,0.5,0.5,0.5c1,0,0.9-1,1.4-1c0.6,0,2.2,1.7,2.2,2.3
			c0,1.3-2.8,1.2-3.6,1.2c-1.4,0-3.2,0-3.2-1.9v-5.3h-1.2l-0.4,0.3c-0.1,3,0,5.2-2.3,7.4c-0.3,0.3-0.6,0.6-0.9,0.9
			c-0.2,0.1-0.9,0.7-1.1,0.7c-0.1-0.3,1.1-2.3,1.3-3.3c0.3-1.7,0.5-3.5,0.5-5.2c0-0.7,0-1.4-0.1-2c0-0.6-0.3-1.2-0.3-1.4
			c0-0.1,0.1-0.2,0.2-0.2c0.4,0,2.5,1.1,3.1,1.3H136.7z M138.1,41.6c1.3-0.9,2.4-1.8,3.2-3.2c0,0,0.1,0,0.2,0c0.4,0,2.8,1.9,2.8,2.4
			c0,0.5-1.1,0.4-1.4,0.5c-0.7,0-3.2,1-4,1.2c1.7,1.9,2.7,3,5,4c0.2,0.1,1.4,0.5,1.4,0.7c0,0.3-0.6,0.3-0.8,0.4
			c-1.1,0.2-2,1.2-2.7,2c-1.2-0.9-2.4-1.9-3.4-3c-1.8-1.9-3-5.2-3.7-7.7c-0.4-1.6-0.7-3.3-0.9-4.9c0-0.3,0.1-0.4,0.3-0.4
			c0.3,0,0.6,1.4,0.6,1.7c0.3,0.9,0.8,1.9,1.2,2.8c0.8-0.9,1.9-1.9,2.6-3c0.1-0.2,0.1-0.7,0.5-0.7s2.5,1.9,2.5,2.4
			c0,0.4-0.8,0.4-1.1,0.5c-0.7,0.2-3.3,1.4-4.1,1.7C136.9,39.8,137.5,40.7,138.1,41.6z"/>
		<path class="st0" d="M160.2,45.6h-4.1l-0.7,0.5l-1.5-2.3c0.8,0.1,1.8,0.3,2.6,0.3h3.8V37c0-0.8,0-1.6-0.1-2.3
			c-0.1-0.5-0.4-1.6-0.4-1.8c0-0.3,0.1-0.3,0.4-0.3c0.7,0,4.1,0.9,4.6,1.3c0.2,0.1,0.3,0.3,0.3,0.6c0,0.4-1.1,0.9-1.4,1.1v8.7h1.2
			c0.2-0.2,1.7-1.8,2.1-1.8c0.3,0,0.7,0.4,0.9,0.6c0.3,0.4,1.9,1.7,1.9,2.3c0,0.3-0.3,0.4-0.6,0.4h-5.5v7.2c1.6-0.5,6.1-2.4,6.3-2.4
			c0.1,0,0.2,0.1,0.2,0.3c0,0.3-6.1,4.3-6.5,4.5v14.1c0,2-3,2.8-4.7,2.9c-0.2-1.4-0.7-2.5-2-3.2c-0.2-0.1-1.3-0.5-1.3-0.7
			c0-0.2,0.2-0.3,0.4-0.3c0.9,0.1,1.8,0.2,2.7,0.2c1,0,1.4,0,1.4-1.1v-9.8c-1.4,0.9-2.8,1.7-4,2.8l-1.9-4.2c2-0.4,4-1,5.9-1.8V45.6z
			 M184,35.7c0.3,0,0.8,0.6,1,0.7c0.3,0.3,2,1.8,2,2.4c0,0.3-0.2,0.5-0.5,0.5h-4.3l-1.1,1v29.1c0,3.1-2.9,3.3-5.3,3.4l-0.2-0.9
			c-0.3-1.3-1.2-2.2-2.4-2.7c-0.2-0.1-1.3-0.4-1.3-0.7c0-0.1,0.2-0.3,0.3-0.3c1,0,2.3,0.3,3.5,0.3c0.9,0,1.6-0.2,1.6-1.3V39.2H170
			l-0.8,0.6l-1.5-2.3c0.8,0.1,1.8,0.3,2.6,0.3h11.4C181.9,37.6,183.6,35.7,184,35.7z"/>
		<path class="st0" d="M211.2,39.9v-3.3h-8.5l-0.7,0.6l-1.5-2.3c0.8,0.1,1.7,0.3,2.6,0.3h17.5c0.1-0.1,1.4-2,1.8-2
			c0.3,0,1,0.6,1.2,0.8c0.2,0.2,1.9,1.8,1.9,2.3c0,0.3-0.6,0.4-0.8,0.4h-9.4l-0.8,0.4v2.9h9.3c0.2-0.2,1-1.3,1.4-1.3
			c0.5,0,4,2.2,4,3.1c0,1.1-2.3,0.8-3.4,1.8c-0.7,0.6-1.3,1.4-1.9,2.1c-0.1,0.1-0.2,0.3-0.4,0.3c-0.1,0-0.2-0.1-0.2-0.2
			c0-0.6,0.2-1.2,0.3-1.8c0.2-0.8,0.3-1.7,0.4-2.5h-9.5V46c0,1.4,0.2,2.8,0.3,4.2c-1.2,0.6-2.6,1-4,1.4c0.1-1.6,0.3-3.2,0.3-4.8
			v-5.4h-10c0,0.4,0,0.7,0,1.1c0,1.5-1,3.4-2.7,3.4c-1,0-1.8-0.8-1.8-1.8c0-0.4,0.1-0.8,0.3-1.1c0.6-0.8,1.4-1.4,2-2.2
			c0.3-0.4,0.6-0.9,0.6-1.5c0-0.1,0.1-1.1,0.4-1.1c0.4,0,0.8,1.4,0.9,1.7H211.2z M207.7,46.9c0.4,0,1.9,1.7,1.9,2.1
			c0,0.3-0.3,0.4-0.6,0.4h-6.8l-0.6,0.6l-1.4-2.3c0.6,0.1,1.4,0.2,2,0.2h4.4C206.7,47.8,207.4,46.9,207.7,46.9z M201.4,52.7
			c0-0.6-0.1-1.3-0.3-1.9c-0.1-0.1-0.1-0.3-0.1-0.4c0.1-0.2,0.2-0.3,0.3-0.3c0.5,0,3.6,1.6,4.2,1.9h14.7c0.2-0.3,1-1.4,1.4-1.4
			c0.3,0,0.8,0.3,1.1,0.5c0.3,0.2,2.6,1.3,2.6,1.8c0,0.4-0.9,0.9-1.2,1.1V61c0,1.1,0.1,2.2,0.2,3.3c-1.5,0.6-2.2,0.9-3.8,1.3
			l0.2-1.7h-6.1v3.3c0,0.6,0.3,1,0.8,1.2c0.6,0.2,4.6,0.3,5.5,0.3c1.7,0,4,0.2,4.7-1.7c0.4-1.1,0.8-2.3,1-3.5
			c0.1-0.3,0.2-1.6,0.5-1.6c0.2,0,0.3,0.1,0.3,0.3c0,0.8,0,1.6,0,2.3c0,1.9,0.7,2.1,2.3,2.9c-0.3,0.8-0.7,1.6-1.1,2.3
			c-0.4,0.7-1,1.3-1.8,1.6c-1.6,0.6-4.7,0.6-6.4,0.6c-1.3,0-2.6-0.1-3.9-0.2c-1.3-0.1-4.2,0-5-1.3c-0.2-0.3-0.4-0.8-0.4-1.2v-5.3
			h-6.4v0.5c-1.2,0.5-2.4,0.9-3.6,1.2c0.1-1.4,0.3-2.8,0.3-4.2V52.7z M207.6,42.8c0.3,0,0.6,0.4,0.8,0.6c0.2,0.2,1.4,1.3,1.4,1.8
			c0,0.3-0.2,0.4-0.5,0.4h-6.1l-0.6,0.6l-1.4-2.2c0.7,0.1,1.5,0.2,2.2,0.2h3C206.4,43.9,207.3,42.8,207.6,42.8z M211.1,57.1v-3.5
			h-5.8l-0.6,0.3v3.2H211.1z M211.1,58.5h-6.4v3.9h6.4V58.5z M220.6,57.1v-3.5h-5.6l-0.5,0.5v3H220.6z M220.6,62.4v-3.9h-6.1v3.9
			H220.6z M221,43.1c0.2,0,0.5,0.3,0.6,0.4c0.1,0.2,1.4,1.4,1.4,1.9c0,0.3-0.3,0.3-0.5,0.3h-5l-0.8,0.6l-1.4-2.2
			c0.7,0,1.5,0.1,2.2,0.1h2.3C219.9,44.1,220.7,43.1,221,43.1z M222.8,46.8c0.3,0,2.1,1.9,2.1,2.5c0,0.2-0.2,0.3-0.4,0.3h-6.6
			l-0.6,0.6l-1.4-2.2c0.7,0,1.5,0.2,2.2,0.2h3.6C221.7,47.9,222.3,46.8,222.8,46.8z"/>
		<path class="st0" d="M251.5,38.3c0.3,0,0.7,0.5,0.9,0.6c0.2,0.2,2,1.9,2,2.4c0,0.2-0.2,0.3-0.4,0.3h-13.1l-0.7,0.6l-1.5-2.3
			c0.8,0.1,1.8,0.3,2.6,0.3h8.6C249.8,40.1,251.1,38.3,251.5,38.3z M250.3,49.4c0.3,0,0.7,0.4,0.8,0.6c0.3,0.3,1.8,1.7,1.8,2.2
			c0,0.3-0.2,0.3-0.4,0.3h-9.8l-0.8,0.6l-1.5-2.2c0.8,0.1,1.7,0.2,2.5,0.2h5.7C248.7,50.9,249.9,49.4,250.3,49.4z M250.3,43.7
			c0.5,0,2.5,2.6,2.5,2.8c0,0.3-0.4,0.3-0.6,0.3h-9.5l-0.8,0.6l-1.4-2.1c0.8,0.1,1.7,0.2,2.4,0.2h5.6
			C248.7,45.2,249.9,43.7,250.3,43.7z M248.8,67.6H245v3.1c-1,0.5-2.1,0.7-3.2,0.8c0-1.4,0.2-2.9,0.2-4.4v-8.6
			c0-0.6-0.1-1.3-0.3-1.8c0-0.1-0.1-0.3-0.1-0.4c0-0.3,0-0.4,0.3-0.4c0.6,0,3.3,1.1,3.6,1.1h3.1c0-0.1,1-1.5,1.3-1.5
			c0.4,0,2.5,1.5,2.8,1.7c0.1,0.1,0.5,0.4,0.5,0.6c0,0.4-1,1-1.2,1.2v6.5c0,1.4,0.1,2.8,0.2,4.1c-1.1,0.5-2.2,0.8-3.4,0.9
			L248.8,67.6z M244.2,32.5c0.3,0,1.4,0.5,1.7,0.6c1.6,0.6,3.6,2.1,3.6,4c0,0.5-0.3,1.1-0.4,1.6c-0.3,0.7-0.8,0.9-1.4,0.9
			s-1.6-0.1-1.8-0.8c-0.5-1.6-0.1-3.1-1-4.7l-0.8-1.4C244.1,32.6,244.2,32.5,244.2,32.5z M248.8,66v-7.5h-3.6L245,59v7H248.8z
			 M260.3,38.7c0-0.3,0-0.8,0-1.1c-1.6,0.1-3.2,0.2-4.7,0.2c-0.4,0-2.2,0.1-2.2-0.3c0-0.1,0-0.2,0.2-0.3l2.3-0.6
			c1.6-0.4,3.1-0.8,4.6-1.3c1.9-0.6,3.7-1.1,5.6-1.8c0.4-0.2,0.9-0.8,1.1-0.8c0.5,0,3.3,3.3,3.3,3.8c0,0.3-0.2,0.3-0.4,0.3
			c-2.2,0.1-4.3,0.4-6.4,0.5c0.3,0.1,1.4,0.5,1.4,1s-0.7,0.7-1.1,0.8l-0.3,7h3.6c0.2-0.2,1.4-1.9,1.9-1.9c0.4,0,0.9,0.6,1.2,0.8
			c0.2,0.2,1.9,1.8,1.9,2.2c0,0.2-0.3,0.3-0.4,0.3h-8.3l-0.4,7.1h1.6c0.1-0.2,1.1-1.7,1.4-1.7c0.6,0,3.6,2.1,3.6,2.4
			c0,0.3-0.9,1.1-1.1,1.3v10.4c0,1.3,0.2,3,0.3,4.3c-1.3,0.4-2.7,0.6-4,0.8l0.2-3.5h-6.6v2.6c-1.2,0.3-2.5,0.6-3.6,0.8
			c0.1-1.6,0.3-3.1,0.3-4.7V57.1c0-0.7-0.2-1.9-0.5-2.5c-0.1-0.2-0.2-0.4-0.2-0.7c0-0.1,0.1-0.1,0.2-0.1c0.4,0,1.1,0.3,1.6,0.5
			c0.4,0.1,2.5,0.8,2.6,0.8c0.3,0,0.6,0,0.9,0l0.3-7.1h-4.9l-0.8,0.6l-1.5-2.3c0.8,0.1,1.7,0.3,2.6,0.3h4.6L260.3,38.7z M265.1,67.6
			V56.5h-6.2l-0.4,0.4v10.7H265.1z"/>
	</g>
</g>
<g>
	<g>
		<path class="st1" d="M56.6,77.5c-7.8-8-15.1-17-19.1-27.5c-1.8-4.9-4.2-11.5-1.4-16.4c1-1.8,2.6-3.2,4.7-3.4
			c2.5-0.2,4.9,1.1,6.7,2.8c2.2,2.2,3.7,5,5,7.7c1.5,3.1,2.8,6.3,3.8,9.6c1,3.1,5.4,1.8,4.8-1.3c-0.6-3.5,2.1-6.5,4.5-8.6
			c2.8-2.4,6.3-4.2,9.7-5.4c6.4-2.2,14.5-2.3,18.2,4.4c3.4,6.1,1.5,13.7-2.8,18.9C85.6,64.3,78,68.3,70.5,70.9
			c-9.4,3.3-19.3,4.8-29.1,6.2c-1.3,0.2-2.1,1.9-1.7,3.1c0.4,1.4,1.7,1.9,3.1,1.7c9.7-1.4,19.4-2.9,28.7-6.1
			c8.7-3,17.6-7.5,23.4-14.8c5.4-6.8,7.5-16.2,3.2-24.2c-2.1-3.8-5.6-6.5-9.7-7.7c-4.2-1.2-8.8-0.8-12.9,0.5
			c-8.7,2.6-21,9.9-19,20.6c1.6-0.4,3.2-0.9,4.8-1.3c-1.1-3.6-2.5-7-4.1-10.4c-1.4-2.9-3-5.8-5.2-8.3c-4.3-4.9-11.8-7.1-17.2-2.7
			C29.1,32,29.4,39.8,31,46.1c1.7,6.3,4.6,12.4,8.2,17.9c4,6.2,8.8,11.8,13.9,17C55.3,83.3,58.9,79.8,56.6,77.5L56.6,77.5z"/>
	</g>
</g>
</svg>
