<svg id="圖層_1" data-name="圖層 1" xmlns="http://www.w3.org/2000/svg" viewBox="0 0 400 100"><defs><style>.cls-1{fill:#c30d23;}.cls-2{fill:#231815;}</style></defs><path class="cls-1" d="M62.9,77.4c-7.8-8-15.1-17-19.1-27.5C42,45,39.6,38.4,42.4,33.5a6.14,6.14,0,0,1,4.7-3.4,9.07,9.07,0,0,1,6.7,2.8,27.55,27.55,0,0,1,5,7.7,66.09,66.09,0,0,1,3.8,9.6,2.49,2.49,0,0,0,4.8-1.3c-.6-3.5,2.1-6.5,4.5-8.6a30.9,30.9,0,0,1,9.7-5.4c6.4-2.2,14.5-2.3,18.2,4.4,3.4,6.1,1.5,13.7-2.8,18.9C91.8,64.4,84.2,68.3,76.7,71c-9.4,3.3-19.3,4.8-29.1,6.2a2.48,2.48,0,0,0-1.7,3.1A2.56,2.56,0,0,0,49,82c9.7-1.4,19.4-2.9,28.7-6.1,8.7-3,17.6-7.5,23.4-14.8,5.4-6.8,7.5-16.2,3.2-24.2a16.2,16.2,0,0,0-9.7-7.7,22.67,22.67,0,0,0-12.9.5c-8.7,2.6-21,9.9-19,20.6,1.6-.4,3.2-.9,4.8-1.3a77.46,77.46,0,0,0-4.1-10.4,36.08,36.08,0,0,0-5.2-8.3c-4.3-4.9-11.8-7.1-17.2-2.7-5.6,4.5-5.3,12.3-3.6,18.6a63.1,63.1,0,0,0,8.2,17.9,108.55,108.55,0,0,0,13.9,17c2.1,2.2,5.7-1.4,3.4-3.7Z"/><path class="cls-2" d="M147.8,71.4c-2.4.6-12.8,0-16.1-.8-2.2-.6-5.8-2.1-6.8-4.1a13.29,13.29,0,0,1-6.5,5.2l-.2-.4c4.3-3.2,6.2-9.3,6.8-13h-2.2c-.3.2-1.3,1.3-1.7,1.1s-2.5-1.9-2.3-2.5l1.3-1a40,40,0,0,0,3.2-7h-3.1a3.75,3.75,0,0,0-1.4.5l-.9-2,1.7.3h3.6l1.6-1.4c.3-.3,2.1,1.6,2.7,2.1s-.8,1.1-1.2,1.4a44,44,0,0,1-3.4,7.2h1.7l1.6-1.5c.2-.2,2.8,2.2,3,2.7s-.8.8-1.1,1.3a29.82,29.82,0,0,1-2.8,6.4c.9,1.1,5,1.7,7,1.9a120.35,120.35,0,0,0,15.9,0c.9,0,1.8-.3,2.5-.3.4,0,.5.3.1.6A4.54,4.54,0,0,0,147.8,71.4ZM120.4,35.5a20.14,20.14,0,0,1,3.7,1.3,4.19,4.19,0,0,1,2.5,3.7,2.4,2.4,0,0,1-2.2,2.4c-1.6.1-1.8-1.1-1.9-2.3a7.18,7.18,0,0,0-2.4-4.8C120,35.6,120.3,35.5,120.4,35.5ZM142,40.7c.2-.2.9-1.3,1.2-1.3.5,0,2.5,1.4,2.8,1.5s.8.5.8.7c0,.4-.8.8-1.1,1,0,2.6,0,5.2.2,7.8-1.3.4-2.5.8-3.8,1.2l.2-2h-8.1v4.7h8.1c.2-.2,1.2-1.4,1.6-1.4s2.4,1.4,2.7,1.5.9.5.9.9-.8.8-1,1v5.5c0,1,.1,1.9.1,2.9-1.3.6-2.6,1-3.9,1.5l.2-2.3h-8.6v1.4c-1.2.3-2.4.7-3.6.9,0-1.5.2-3,.2-4.4V41.6a7.11,7.11,0,0,0-.4-2c0-.1-.1-.3-.1-.4s0-.3.3-.3a15.34,15.34,0,0,1,3.9,1.7c.8-1.8,2.5-5.6,2.2-7.7,0-.1.2-.1.3-.1a22.22,22.22,0,0,1,3.2,1.4c.2.1,1.7.8,1.7,1.1s-1.2.7-1.5.8a52.12,52.12,0,0,1-4.7,4.7H142Zm.3,7.4V42.2h-7.5l-.6.5v5.4Zm.5,7.8h-8.6v6.7h8.6Z"/><path class="cls-2" d="M161.9,55.9a4.14,4.14,0,0,0-.2-1.6,5.64,5.64,0,0,1-.4-1.2c0-.2.2-.2.4-.2.8,0,4.1,1.1,4.1,1.9,0,.5-.7.8-1.1.9v10l1.6-.4v-12a8.6,8.6,0,0,0-.1-1.6,5.64,5.64,0,0,1-.4-1.2c0-.2.3-.3.5-.3.7,0,4.1,1.2,4.1,1.8,0,.4-.7.8-1,1v3.4h.2c.1-.1,1.4-1.7,1.7-1.7.5,0,1.7,1.7,1.9,1.9s.4.5.4.8-.4.3-.6.3h-3.6v6.5a27.55,27.55,0,0,1,3-.8c.1,0,.3,0,.3.2s-.8.7-1,.8a100.63,100.63,0,0,0-8.6,5.9l-2.3-3.8,1.2-.3V55.9ZM172.2,45c0,1.3.1,2.7.2,4a10.79,10.79,0,0,1-3.6,1.1L169,49h-3.6v1a9,9,0,0,1-3.2.9c.1-1.3.3-2.6.3-3.9V39.3a12.1,12.1,0,0,0-.1-1.9,7.65,7.65,0,0,0-.5-1.6c0-.2.2-.2.4-.2.8,0,2.8,1.1,3.6,1.5h2.9c.2-.3.7-1.4,1.2-1.4a9.73,9.73,0,0,1,2.3,1.1c.3.2,1,.6,1,.9s-.7.9-1,1.1V45ZM169,38.6h-3.2l-.4.5v8.5H169v-9Zm6.8,12a4.24,4.24,0,0,0,1.4.6c.3.1.6.3.6.6s-.7.8-1,.9V68.4a26.35,26.35,0,0,0,.2,2.8c-1.1.5-2.2.8-3.3,1.2.1-1.2.3-2.5.3-3.6v-16c-.2.2-1.6,1.6-1.9,1.6a.22.22,0,0,1-.2-.2,6,6,0,0,1,.6-1.1c.6-1.2,1.1-2.5,1.7-3.8a38.08,38.08,0,0,0,1.5-4.4c.1-.6.2-1.2.3-1.7a.22.22,0,0,1,.2-.2s1.5.6,1.6.6,2,1.1,2,1.6-.8.6-1,.7C177.7,47.5,176.8,49.1,175.8,50.6Zm-1.2-6.8a8.7,8.7,0,0,1-.9,1.1c-.1.1-.8,1-1,1a.27.27,0,0,1-.3-.3c0-.2.6-1.2.6-1.4a30.3,30.3,0,0,0,2.2-6.4,10.68,10.68,0,0,0,.3-2.5,16,16,0,0,1,.3-2.3,24.36,24.36,0,0,1,4.4,1.9.85.85,0,0,1,.3.5c0,.2-1.1.6-1.2.7A42.82,42.82,0,0,1,174.6,43.8Zm7,20.3a10.53,10.53,0,0,0,2.4,2.8V52.3a2.77,2.77,0,0,0-.1-.9c0-.4-.3-.9-.3-1.2a.22.22,0,0,1,.2-.2c.6,0,4.1,1.1,4.1,1.7,0,.3-.8.8-1.1,1v3.8H188c.2-.2,1.5-1.8,1.9-1.8s2.8,2.3,2.8,2.9a.56.56,0,0,1-.6.5h-5.3v10a18.41,18.41,0,0,0,3.3.3c1,0,2-.1,3-.2.1,0,.3,0,.3.2s-.1.3-.2.3a8,8,0,0,0-1.4,1.5,9.63,9.63,0,0,0-.8,1.9c-2.1-.1-5.6-.4-7.2-2.1a11.08,11.08,0,0,1-2.1-3.2l-.5-1.4a16.25,16.25,0,0,1-2.1,4.4,11.32,11.32,0,0,1-1,1.3c-.2.2-.6.7-.9.7-.1-.3.3-1.1.4-1.4a18.23,18.23,0,0,0,1.1-4,55.1,55.1,0,0,0,1-9,13.4,13.4,0,0,0-.1-2,2.49,2.49,0,0,1-.1-.8v-.3h.3c.6,0,4,1.3,4,1.8,0,.3-.9.7-1.1.8C182.3,59.4,182.1,61.7,181.6,64.1Zm1.5-21.2c1.3.8,2.4,1.7,2.4,3.4a1.37,1.37,0,0,1-1.3,1.5c-1.4,0-1-1.5-1-2.4a6.28,6.28,0,0,0-.3-1.9,27.73,27.73,0,0,1-3.8,6.4c-.1.1-.3.3-.4.3s-.2-.2-.2-.3l.1-.3c.4-1.2.9-2.4,1.3-3.6a55.93,55.93,0,0,0,1.5-7.1,19.7,19.7,0,0,0,.4-3.4V33.9c0-.2,0-.4.2-.4.5,0,4.3,1.7,4.3,2s-.9.6-1.1.6A67.54,67.54,0,0,1,183.1,42.9Zm9.4,3.7c0,1.1-.3,2.4-1.7,2.4-.6,0-1-.2-1.1-.8-.4-1.9,0-2.8-.8-4.9a44.83,44.83,0,0,1-2.9,5.8c-.1.1-.4.7-.6.7s-.2-.2-.2-.3.8-3,.9-3.6c.4-1.8.7-3.6,1-5.5a25.79,25.79,0,0,0,.4-3.9V34.3h.3l1.4.4c.5.1,2.5.6,2.5,1.2,0,.3-.8.7-.9.8-.5,1.9-1,3.9-1.7,5.8C190.5,43.5,192.5,44.8,192.5,46.6Z"/><path class="cls-2" d="M220.8,45.4h-.7a.32.32,0,0,1-.3-.3,33.45,33.45,0,0,0-.9-3.7,4.58,4.58,0,0,0-1.4-2.1,5.13,5.13,0,0,0-3.1-.8H209a2.16,2.16,0,0,0-2.2,2.2v10h5.6a2.43,2.43,0,0,0,2.4-2.4v-2a.37.37,0,0,1,.4-.4h.6a.43.43,0,0,1,.4.4V57.5a.43.43,0,0,1-.4.4h-.6a.43.43,0,0,1-.4-.4v-2a2.81,2.81,0,0,0-2.8-3.1h-5.2V64.6a1.73,1.73,0,0,0,1.7,1.6h1.3a.37.37,0,0,1,.4.4v.8a.37.37,0,0,1-.4.4h-10a.43.43,0,0,1-.4-.4v-.8a.43.43,0,0,1,.4-.4h1.3a2,2,0,0,0,1.8-1.9V40.9c0-1.4-.5-2.5-2.1-2.5h-1.1c-.1,0-.4-.2-.4-.4v-.8a.46.46,0,0,1,.5-.4h20.6l.7,8.3A.32.32,0,0,1,220.8,45.4Z"/><path class="cls-2" d="M243.6,66.2a10.26,10.26,0,0,1-5.9,1.7H223.3a.54.54,0,0,1-.5-.5v-.9c0-.2.3-.4.5-.4h1a1.84,1.84,0,0,0,1.8-1.7V39.7a1.39,1.39,0,0,0-1.1-1.1h-1.5a.56.56,0,0,1-.5-.6v-.8c0-.2.3-.4.5-.4h14.4a8.53,8.53,0,0,1,5.5,1.9,6.89,6.89,0,0,1,2.5,4.9,7.25,7.25,0,0,1-1.2,4.6,7.91,7.91,0,0,1-4,2.7,8.57,8.57,0,0,1,3.9,2,6.72,6.72,0,0,1,2,3.2,11.48,11.48,0,0,1,0,6.1A8.85,8.85,0,0,1,243.6,66.2Zm-2.3-24.4a4,4,0,0,0-2.4-2.5,11.42,11.42,0,0,0-4.6-.8h-2.5a1.75,1.75,0,0,0-1.7,1.7V50.3h4.6a9.2,9.2,0,0,0,4.4-1,5.4,5.4,0,0,0,2.5-3A9.75,9.75,0,0,0,241.3,41.8Zm-1,11.6a8.42,8.42,0,0,0-4.8-1.3H230V64.5a1.56,1.56,0,0,0,1.6,1.5h3.2a10.73,10.73,0,0,0,4.7-1,5.55,5.55,0,0,0,2.8-3.2,9.91,9.91,0,0,0,0-5.4A4.53,4.53,0,0,0,240.3,53.4Z"/><path class="cls-2" d="M255,50.9l-.8.6L253,49.2a19.53,19.53,0,0,0,2.3.2h3.3V36.7a8,8,0,0,0-.3-3.1c0-.3-.3-.7-.3-1s0-.3.3-.3a26.69,26.69,0,0,1,3.4,1.1c.3.1,1.6.6,1.6,1s-1.1,1.1-1.4,1.2v9.8c1-2.6,2.2-5.3,2.4-8.1h.3c.6,0,3.7,1.9,3.7,2.5,0,.3-1,.5-1.2.6-1.1,1.7-2.2,3.4-3.3,5L262,47.8v1.9c.3-.3,1.2-1.4,1.6-1.4s2.4,1.9,2.4,2.4-.4.5-.7.5H262V53c1.9.8,3.8,1.7,4.3,3.8,0,.3.1.5.1.7,0,.9-.5,1.9-1.5,1.9a1.61,1.61,0,0,1-1.1-.5c-.9-.8-.6-2.4-.8-3.5a4.6,4.6,0,0,0-1-1.8V67.5c0,1.3.2,2.7.3,4a27,27,0,0,1-3.9.8c.1-1.5.3-3.1.3-4.6.1-2.9,0-5.8,0-8.6a35.82,35.82,0,0,1-5,6.6c-.1.2-.6.7-.8.7s-.2-.1-.2-.3.9-2,1-2.3a60.07,60.07,0,0,0,2.3-5.9c.8-2.3,1.7-4.6,2.3-6.9H255Zm2.4-9.5a4,4,0,0,1,.6,2.2c0,1-.5,2.5-1.7,2.5s-1.7-1.2-1.7-2.2c0-.8.1-1.7.1-2.6a7.61,7.61,0,0,0-.3-2.1,14.24,14.24,0,0,1-.5-1.6C254.7,37.5,256.9,40.7,257.4,41.4Zm19.7,28.9a8.76,8.76,0,0,1-4.4,2.2,4.38,4.38,0,0,0-1.1-3.1,3.25,3.25,0,0,0-1.3-1,.45.45,0,0,1-.3-.3c0-.2.3-.3.4-.3.8,0,1.5.2,2.3.2a3.64,3.64,0,0,0,1.4-.2,2.76,2.76,0,0,0,1.2-1.4c1.3-2.6,1.5-9.9,1.7-12.9h-4c.2.1,1.2.7,1.2.9s-.7.8-.8.9c-.4,2.2-.7,4.5-1.3,6.7a12.94,12.94,0,0,1-3.8,6.3,21.9,21.9,0,0,1-2.3,2.1,32.36,32.36,0,0,1-3.3,2,.22.22,0,0,1-.2-.2c0-.2.5-.7.6-.8a24.39,24.39,0,0,0,4.2-5.9A34.94,34.94,0,0,0,270,53.6h-.7l-.8.6-1.2-2.3a19.53,19.53,0,0,0,2.3.2h7.1c.2-.3,1.1-1.4,1.5-1.4s3.2,2,3.2,2.4-.7.7-.9.8C280.3,58.1,280.3,67.3,277.1,70.3ZM266.4,52.6c-.2.2-1,1.2-1.2,1.2a.22.22,0,0,1-.2-.2s1.7-4.5,1.9-5.2c.6-1.8,2.9-9.4,2.9-11,0-.6-.2-1.2-.2-1.6a.27.27,0,0,1,.3-.3c.8,0,3.3,1.5,4,2a.55.55,0,0,1,.3.5c0,.3-.8.9-1.1,1A31.07,31.07,0,0,1,266.4,52.6Zm9.9-10.3c-.3-1.4-1.1-7-1.4-7.5s-1-1.1-1-1.4.3-.2.4-.2c.8,0,4.3.9,4.3,1.6,0,.5-1.1,1.4-1.4,1.7a27,27,0,0,0,3.1,7.7,39.79,39.79,0,0,0,4.2,5.5l.9.8a.85.85,0,0,1,.3.5c0,.2-1,.2-1.2.2a10,10,0,0,0-2.6.5l-.9.6C279.3,49.5,277,45.6,276.3,42.3Z"/><path class="cls-2" d="M299.1,61.4a12.42,12.42,0,0,1,.4,3.3c0,1.6-.5,3.8-2.5,3.8a1.67,1.67,0,0,1-1.7-1.6c0-1.1.6-1.6,1.1-2.5a7.14,7.14,0,0,0,.8-1.5,5.33,5.33,0,0,0,.6-2.4c0-.2-.1-1.2.3-1.2C298.7,59.4,299,61.1,299.1,61.4Zm.9-16.6c1.4,0,2.7,0,4.1-.1a15.39,15.39,0,0,0,1.7-3.1c.1-.2.3-1.1.4-1.1a17,17,0,0,1,3.8,2.6.9.9,0,0,1,.1.5c0,.3-1.3.4-1.5.5-2.8,3.3-5.4,6.7-8.4,9.8h6.5a8.62,8.62,0,0,0-1.1-2.8c-.1-.1-.4-.4-.4-.6a.22.22,0,0,1,.2-.2c.7,0,2.8,1.5,3.3,1.9a3.08,3.08,0,0,1,1.5,2.5,5.7,5.7,0,0,1-.1,1.3,1.74,1.74,0,0,1-1.7,1.3c-1.1,0-1.4-1-1.5-1.9a68.78,68.78,0,0,0-8.9,2.4l-1.7-4.1a3.61,3.61,0,0,0,1.5-.8c1.9-1.4,4.2-5,5.5-6.9-2.2.6-4.2,1.3-6.3,2.1l-1-3.7c2.1-1.1,3.1-3.3,4-5.4a18.89,18.89,0,0,0,1.1-2.5,15.36,15.36,0,0,0,1-3.5c0-.1,0-.5.2-.5a29.09,29.09,0,0,1,4.1,2.4.6.6,0,0,1,.3.6c0,.3-1.3.7-1.5.8-1,1.4-1.9,2.7-2.9,4.1-.5.7-1,1.4-1.5,2l-2.1,2.5H300Zm3.4,16.5a5.44,5.44,0,0,1,1.4,3.4c0,1.4-.7,2.2-2,2.2s-1.1-1.1-1.1-1.9.1-1.6.1-2.4a6.7,6.7,0,0,0-.7-3.1C301.7,59.2,303.1,60.9,303.4,61.3Zm1.6-3.1c1.4.8,4.3,2.3,4.3,4.3,0,1.1-.4,2.1-1.7,2.1-1.9,0-1.5-2.2-1.7-3.4a1.61,1.61,0,0,0-.3-.9c-.2-.5-1-1.7-1-1.8S304.8,58.2,305,58.2Zm3.7,10.4c-.2.2-.8.8-1.1.8a.22.22,0,0,1-.2-.2.37.37,0,0,1,.1-.3,31.17,31.17,0,0,0,3.7-8.1,8.45,8.45,0,0,1,.5-1.7c.8,0,3.9,2.1,3.9,2.8,0,.4-.9.6-1.2.7A45.72,45.72,0,0,1,308.7,68.6ZM315.2,42l-2,2h1.5c1.8,0,3.5,0,5.3-.1a11.73,11.73,0,0,0,1.9-3c.3-.7.5-1.4.8-2.2,0-.1.1-.3.2-.3.4,0,4.2,3.2,4.2,3.7s-1,.5-1.3.6a92.09,92.09,0,0,1-7.8,7.5c-.9.8-1.8,1.5-2.7,2.3,2.2.1,4.3.2,6.5.2h2c-.3-.6-.6-1.1-.9-1.7a6.1,6.1,0,0,0-1.3-1.5c-.1-.1-.2-.2-.2-.3s.2-.1.3-.1a13.59,13.59,0,0,1,2.8,1.1,5.12,5.12,0,0,1,2.7,2.3,6,6,0,0,1,.6,2.2,1.67,1.67,0,0,1-1.6,1.7c-1.1,0-1.2-.8-1.6-1.7l-.4-.8-4.6.9c.4.2,1.6.8,1.6,1.2s-.8.8-1,1V69.5a1.92,1.92,0,0,1-.4,1.2c-.6.9-3,1.7-4.1,1.6-.2-1.2-.4-2.5-1.7-3-.3-.1-1.3-.4-1.3-.8,0-.1.2-.2.3-.2a21.05,21.05,0,0,0,2.5.2c1.1,0,1.3-.4,1.3-1.5V55.3c-1.5.3-2.9.6-4.4,1l-1.7-3.9a7.89,7.89,0,0,0,2.3-.9c2.1-1.5,4.4-4.4,6-6.4a63.57,63.57,0,0,0-7.1,2.1l-1.2-4.1c2-1,3.1-3.4,4-5.3a14.59,14.59,0,0,0,1.6-3.9c0-.3.3-1.8.5-1.8.6,0,3.7,2.2,4.2,2.7a.81.81,0,0,1,.4.8c0,.3-1.3.6-1.5.7A54.89,54.89,0,0,1,315.2,42Zm6.3,18a9.06,9.06,0,0,1,2.6,1.3,7.19,7.19,0,0,1,2.7,2.5,5.28,5.28,0,0,1,.8,2.2,1.88,1.88,0,0,1-1.7,2,1.69,1.69,0,0,1-1-.3,1.56,1.56,0,0,1-.6-.8c-.5-1.8-1.1-4.3-2.3-5.8-.1-.1-.8-.8-.8-1C321.3,60.1,321.4,60,321.5,60Z"/><path class="cls-2" d="M368.1,66c0,1.7.2,3.5.3,5.2a17.39,17.39,0,0,1-3.9,1.1l.2-2.5H343.1v1.7a20.94,20.94,0,0,1-3.6.8c.1-1.6.3-3.3.3-5V38.1a18.41,18.41,0,0,0-.3-3.3c0-.5-.3-1.5-.3-1.7a.27.27,0,0,1,.3-.3c1,0,3.5,1.4,4.4,1.9h20.2c.3-.3,1.1-1.6,1.6-1.6s2.8,1.6,3.3,1.9a.55.55,0,0,1,.3.5c0,.5-.9,1.1-1.2,1.3Zm-3.4,2.3V36.1H343.4l-.4.4V68.3Zm-8.8-11.1a4.51,4.51,0,0,1-.3-1.1.27.27,0,0,1,.3-.3c.5,0,3.9.5,3.9,1.4,0,.3-.4.6-.7.7v.6h1.2c.1-.1,1.1-1.4,1.4-1.4s1.8,1.5,2,1.7a.71.71,0,0,1,.3.6c0,.3-.1.5-.4.5H359v5.5c0,2.2-2.1,2.3-3.8,2.5a3.7,3.7,0,0,0-1.7-2.5c-.2,0-1.2-.4-1.2-.6s.3-.3.4-.3c.7,0,1.3.1,2,.1.9,0,1.2-.1,1.2-1.1V59.9H345.8l-.6.5-1.7-2.1c1,.1,2,.2,3,.2h9.3A3,3,0,0,0,355.9,57.2Zm3.3-16.8c.2-.2,1.4-1.7,1.7-1.7s.5.3.7.4c.3.3,1.9,1.6,1.9,2.2,0,.4-.4.5-.7.5h-7.6V44h3.1a12.67,12.67,0,0,1,1.3-1.1c.6.3,2.9,1.5,2.9,2.2,0,.4-.6.7-1,.8v3.8a18,18,0,0,0,.2,2.2,17.07,17.07,0,0,1-3,.5v-.5h-3.5V54l3.4.1a3.84,3.84,0,0,0-1.1-1.1c-.1-.1-.3-.2-.3-.4s.1-.2.3-.2a3.81,3.81,0,0,1,1,.3c1.3.5,3.9,1.5,3.9,3.2,0,.7-.3,1.3-1.1,1.3-1.3,0-1.6-1.1-2.2-2-2.5.2-4.9.6-7.4,1a37.32,37.32,0,0,0-5.6,1.2l-1.5-3.5c2.6.2,5.1.2,7.7.2v-2H349v.6a15.94,15.94,0,0,1-3,.6c0-1,.2-2,.2-3V45c0-.5-.1-1-.1-1.5,0-.1,0-.3.2-.3s2.9,1.1,3.3,1.2h2.8V42.2H346l-.6.6-1.6-2.1c1,0,2,.2,2.9.2h5.5v-1a10.87,10.87,0,0,0-.1-1.8c0-.5-.4-.9-.4-1.3s.2-.3.4-.3c.7,0,3.9.4,3.9,1.2,0,.5-.5.8-.9.9v2.1h4.1Zm-8.8,25.1a1.5,1.5,0,0,1-1.1-.4.86.86,0,0,1-.3-.6,8,8,0,0,0-.5-2.6c-.1-.3-.7-1.3-.7-1.4s0-.2.2-.2a5.64,5.64,0,0,1,1.2.4c1.4.6,2.7,1.6,2.7,3.2A1.56,1.56,0,0,1,350.4,65.5ZM352.3,47V45.2H349V47Zm0,3.3V48.4H349v1.9Zm3-3.2h3.4V45.3h-3.5Zm0,3.2h3.5V48.4h-3.5Z"/><path class="cls-1" d="M60.82,79c-9.43-9.62-17.9-20.76-21.4-33.78a21.24,21.24,0,0,1-.74-9.84c.67-3.25,2.76-6.36,5.88-7.51s6.84-.11,9.5,2a23.33,23.33,0,0,1,6,8.07A70.25,70.25,0,0,1,64.71,49.4c-1.15-5.62,3.78-10.57,8.64-13.61,7.5-4.67,17.77-7.51,24.8-2.16,5.58,4.25,6.93,12.54,4.48,19.11s-8,11.56-14,15.12C76.41,75.05,62,77.25,48,79.32"/><path class="cls-1" d="M61.71,78.14C53.74,70,46.38,60.8,42.29,50.05,40.31,44.82,38,38,41,32.7a7.37,7.37,0,0,1,5.8-4,10.1,10.1,0,0,1,7.57,3.14,27.84,27.84,0,0,1,5.21,8,70.48,70.48,0,0,1,3.91,9.92,1.26,1.26,0,0,0,2.42-.67c-.72-4,2-7.4,4.83-9.83A32,32,0,0,1,81,33.46c7-2.41,15.6-2.21,19.62,5,3.72,6.65,1.65,14.79-3,20.39-5.31,6.38-13.12,10.38-20.83,13.08-9.41,3.28-19.32,4.76-29.15,6.21-1.59.24-.91,2.66.67,2.43C58,79.1,67.78,77.64,77.07,74.45,85.54,71.54,94.25,67.15,99.9,60c5-6.38,7-15.25,3-22.68a14.94,14.94,0,0,0-9-7.16,22,22,0,0,0-12.28.48C73.71,33,61.7,39.81,63.5,49.73l2.42-.67A74.87,74.87,0,0,0,62,39a34.22,34.22,0,0,0-5-8c-3.82-4.3-10.53-6.67-15.46-2.72-5.24,4.21-4.9,11.51-3.32,17.38a62.06,62.06,0,0,0,8,17.58A108.37,108.37,0,0,0,59.93,79.92c1.14,1.16,2.91-.62,1.78-1.78Z"/></svg>