<svg id="圖層_2" data-name="圖層 2" xmlns="http://www.w3.org/2000/svg" viewBox="0 0 300 100"><defs><style>.cls-1{fill:#231815;}.cls-2{fill:#c30d23;}</style></defs><path class="cls-1" d="M120.5,57.7V37.5a9.74,9.74,0,0,0-.2-2.4,13.14,13.14,0,0,1-.5-1.5c0-.2.3-.3.4-.3.6,0,4.7.9,4.7,1.6,0,.4-.8,1-1.1,1.1V66.9c0,1.7.2,3.5.3,5.2a12.54,12.54,0,0,1-3.9,1.1c.1-1.9.3-4.2.3-6V58.8c-1.5,1.3-2.8,2.6-4.2,4a19,19,0,0,0-1.9,2.1l-2-3.9c.9-.7.8-1.5.8-2.5V44.3a21.05,21.05,0,0,0-.2-2.5c0-.5-.5-1.1-.5-1.4s.2-.3.4-.3c.7,0,3.9.8,4.4,1.3.1.1.3.3.3.4,0,.3-1.1,1.1-1.3,1.3V59.5C117.8,58.9,119.1,58.3,120.5,57.7Zm7.6-6.8c-.3.7-3,5.4-3.5,5.4-.1,0-.2-.1-.2-.3a7.84,7.84,0,0,1,.5-1.4c.6-1.7,1.1-3.4,1.6-5.1,1.1-3.7,1.9-7.4,2.7-11.1a32,32,0,0,0,.9-6.2c.5,0,4.9,1.8,4.9,2.7,0,.3-1,.6-1.2.7-.7,2.3-1.4,4.7-2.2,7h8.1c.3-.3,1.9-2,2.2-2,.5,0,3,2.7,3,3.1s-.3.4-.6.4h-6.1c.6.3,3.4,1.2,3.4,1.9,0,.5-.9.8-1.3.8l-1.8,6.6a66.06,66.06,0,0,1-3,8.5,14.63,14.63,0,0,0,2.1,2.8c1.4,1.4,3.4,3.7,5,4.7l1.2.8c.2.2.6.3.6.7s-.9.3-1.1.3a8.16,8.16,0,0,0-3.5,1.7,47,47,0,0,1-6.3-7.7,39.73,39.73,0,0,1-8.6,7.8c-.2.1-.6.5-.8.5s-.2-.1-.2-.3.6-.8.8-.9A52,52,0,0,0,132,62.2c-.4-.8-.8-1.7-1.2-2.6-1.2-3-1.6-7.5-1.6-10.7A13.64,13.64,0,0,0,128.1,50.9Zm6.5,3.9a75,75,0,0,0,2.1-10.7h-5.6l-1.4,3.3c.8,4.1,1.6,7.5,3.7,11.1C133.8,57.3,134.2,56.1,134.6,54.8Z"/><path class="cls-1" d="M155.2,58.4c.6,0,1.3.2,2,.2h5.2V55.3h-2.1c-.2.2-.9,1.4-1.3,1.4a14.76,14.76,0,0,1-3-2.5c0-.3,1.1-1,1.3-1.1V48.8a6.15,6.15,0,0,0-.1-1.3,1.93,1.93,0,0,0-.3-1,1,1,0,0,0-.1-.3c0-.2,0-.3.2-.3a25.94,25.94,0,0,1,3.7,1.1c.1.1.4.2.4.4s-.8.9-1,1.1v5.3h2.2V47.6a4.1,4.1,0,0,0-.1-1.1,2.61,2.61,0,0,1-.3-.8c0-.2,0-.3.3-.3a39.89,39.89,0,0,1,4.3,2h8.1l-.3-2.3c0-.5-.4-1.5-.4-1.8s.3-.3.5-.3a27.19,27.19,0,0,1,3.8,1.1c.2.1.4.2.4.4s-.7.8-.9,1l-.1,1.8H182c.3-.3,1.2-1.5,1.7-1.5s2,1.7,2.4,2c.2.1.2.3.2.5a.58.58,0,0,1-.6.6h-8a62.55,62.55,0,0,0,1.5,11.3,26.67,26.67,0,0,0,2-7.2h.2c.2,0,4.1,1.5,4.1,2.1,0,.3-1.1.9-1.3,1a75.15,75.15,0,0,1-3.6,7.6c.4.6,2.3,3.6,3.1,3.6.4,0,1.8-4.2,2.1-4.2a.45.45,0,0,1,.3.3c0,.2-.2.8-.2,1a15.06,15.06,0,0,0-.6,3.7c0,1.9,1.3,2.7,1.3,3.5s-.6.9-1.1.9c-2.7,0-5.2-3.8-6.5-5.7a22.64,22.64,0,0,1-2.5,2.8c-.7.6-4.2,3.2-4.8,3.2-.2-.3.5-.9.6-1.1a24.08,24.08,0,0,0,5.2-7.5,27.15,27.15,0,0,1-1.9-6.9l-.5.4v2.8a12.25,12.25,0,0,0,.2,1.9,12.9,12.9,0,0,1-2.8.8l.1-1.4h-.2l-.3.5v2.9h1c.1-.1.9-1.1,1.1-1.1.4,0,2,1.7,2,1.9a.58.58,0,0,1-.6.6h-6.8c-.1.3-.6,1.1-.9,1.1-.5,0-2.6-1.9-2.6-2,0-.3.8-.8.9-.9V54.3a9.7,9.7,0,0,0-.1-1.7,3.53,3.53,0,0,0-.3-1.4c0-.1-.1-.3-.1-.4a.45.45,0,0,1,.3-.3,18.87,18.87,0,0,1,3.3,1.3h2.8c.2-.2.8-.9,1.1-.9s1.5,1.4,1.5,1.9a.37.37,0,0,1-.4.4h-1.9l-.3.3v2.8h.5c.3-.3.6-.7,1-.7s1.5.9,1.9,1.1c-.3-2.6-.6-5.2-.8-7.8h-9.1l-.2.3c0,4.3.1,8.5-.3,12.8a17.39,17.39,0,0,1-1.2,5c-.9,2.3-3.6,4.2-5.6,5.5-.2.1-.7.5-.9.5a.22.22,0,0,1-.2-.2.37.37,0,0,1,.1-.3c.6-.6,1.2-1.3,1.8-2,2.5-3,3-6.7,3.2-10.4h-1.7c.2.2.8.6.8.8s-.5.6-.7.7c-.8,3.7-1.4,5.3-4.7,7.5-.2.1-.8.6-1,.6a.22.22,0,0,1-.2-.2c0-.3.5-.8.6-1,2.2-3,2.1-4.7,2.4-8.3h-1.2l-.5.6Zm8.7-22.5a8.2,8.2,0,0,0-.2-2.2c0-.3-.4-.8-.4-.9s.3-.2.4-.2a19.2,19.2,0,0,1,4,.9c.3,0,.8.2.8.6s-.9.8-1.1,1v3.1H173V36a12.1,12.1,0,0,0-.1-1.9,6.89,6.89,0,0,1-.4-1c0-.2.3-.3.4-.3a20.93,20.93,0,0,1,2.1.5c.5.1,2.6.6,2.6,1.3,0,.3-.8.8-1.1.9v2.6H182c.2-.3,1.5-1.8,2.1-1.8s2,1.5,2.2,1.7.8.7.8,1.1-.7.6-1,.6h-9.6l.2,2.1c-1.3.3-2.5.5-3.8.7a13.13,13.13,0,0,0,.1-2.8h-5.5l.1,2.7c-1.2.3-2.5.6-3.7.8,0-1.1.2-2.3.1-3.5h-6.9l-.6.6L155.2,38c.8,0,1.6.2,2.3.2h6.4V35.9Zm6.5,20.4V53.1h-1.2l-.3.2v3Zm2.2,4.1V57.7h-3.7v2.7Zm-3.7,4.7h1.5V61.7h-1.5Zm8.8-23.3a8.47,8.47,0,0,1,1.7.4c1.5.3,3.2,1.2,3.2,3a1.84,1.84,0,0,1-1.7,1.8c-1.4,0-1.7-1.5-1.9-2.5a3.23,3.23,0,0,0-1-1.7c-.1-.1-.7-.5-.7-.7A.54.54,0,0,1,177.7,41.8Z"/><path class="cls-1" d="M200.2,40.2a16,16,0,0,0-.3-2.3c0-.4-.3-.9-.3-1.2s.2-.3.3-.3l2.5.8a8.9,8.9,0,0,0,2-2.9h.4s1.2,1.4,1.4,1.6a1.62,1.62,0,0,1,.5.9V37c-.1.2-.8.3-1,.3a5,5,0,0,0-2,.8l-.3.6.2,5.1h.9c.1-.2.4-.9.7-.9s1.5,1.5,1.5,1.9-.4.3-.6.3h-2.5v5.8h.6c.1-.1.7-1.1,1-1.1a3.82,3.82,0,0,1,1.6,1.9c0,.3-.4.5-.6.5h-2.4l.1,7h3.2V38.4a17,17,0,0,0-.1-2.2,15.46,15.46,0,0,0-.4-1.5c0-.2.1-.3.2-.3a13.06,13.06,0,0,1,3.4,1.6H216c.1-.2.8-1.4,1.2-1.4s1.9,1.1,2.2,1.2.6.4.6.7-.7.8-.9,1.1V59.3h3.2l.3-6.7h-1.8l-.6.6-1-2.1a18.21,18.21,0,0,0,3.3.1l.3-5.8H221l-.7.5-.8-2a19.4,19.4,0,0,0,3.4.2l.2-5.8h-1.2l-.7.3-.8-2.1a10.48,10.48,0,0,0,2.5.1c.1-.2,1-1.5,1.4-1.5s2.6,1.6,2.8,1.7.6.5.6.7c0,.4-1.1,1.1-1.3,1.3l-1,20.7s1.4-2,1.9-2c.3,0,.8.6,1,.7s1.8,1.4,1.8,2a.56.56,0,0,1-.6.5h-31l-.7.5L196.6,59a20.67,20.67,0,0,0,4.3.2Zm-2.8,32.3c0-.2.6-.6.7-.7,1.9-1.7,7.1-7.2,8.2-9.4.2-.3.3-.8.5-1.1h.2c.2,0,1.4.6,1.7.7.6.2,2.9,1.3,2.9,1.9,0,.4-1.5.8-1.8,1-.6.4-2.8,2.4-3.2,2.7a31.17,31.17,0,0,1-7.8,4.7,4.18,4.18,0,0,1-1,.4C197.5,72.7,197.4,72.6,197.4,72.5Zm18.8-13.2v-22h-6.3l-.5.7V59.3Zm-4.8-17.9h1.7c.2-.2.8-1.1,1.2-1.1s1.3,1.2,1.4,1.4.3.4.3.6-.3.4-.6.4h-4.1l-.6.5-1-2A11.14,11.14,0,0,0,211.4,41.4Zm2.6,4.3a6.25,6.25,0,0,1,2.1,1.3c0,.3-.6.8-.8.9V53a22.75,22.75,0,0,0,.2,2.6,7.94,7.94,0,0,1-2.2.6l.2-1.9h-1.4V56a8.38,8.38,0,0,0-1.9.9c0-1.1.2-2.3.2-3.4v-5a6.15,6.15,0,0,0-.1-1.3c0-.5-.3-1.2-.3-1.5,0-.1,0-.2.2-.2a10.72,10.72,0,0,1,2.2,1h1C213.4,46.3,213.8,45.7,214,45.7Zm-.5,2h-1.1l-.3.4v5h1.4V47.7Zm1.2,14.1a16,16,0,0,1,2.1.5c3,.6,9.4,4,9.4,7.5a2.35,2.35,0,0,1-2.2,2.5,2.52,2.52,0,0,1-1.9-1.1,17.38,17.38,0,0,1-1-1.9,15.25,15.25,0,0,0-4-5,20.28,20.28,0,0,0-1.8-1.3c-.2-.2-.9-.6-.9-.8S214.6,61.8,214.7,61.8Z"/><path class="cls-1" d="M243.9,47.9h-2.7l-.7.6-1.3-2.2c.8,0,1.6.2,2.3.2h2.3V40.9a15,15,0,0,0-.3-2.9c0-.5-.4-1.1-.4-1.4s0-.3.3-.3a7,7,0,0,1,1.9.6c.5.1,2.9.8,2.9,1.3,0,.3-1,1.1-1.2,1.2v7.1h.3c.2-.3,1.1-1.5,1.5-1.5a6.71,6.71,0,0,1,2.4,2.6c0,.3-.3.4-.6.4H247V59.1c1-.1,2.8-.7,3.4-.7.1,0,.3,0,.3.2s-1,.8-1.1.9c-2.8,1.7-5.4,3.6-8,5.5l-2.2-4.6a22.17,22.17,0,0,0,4.4-.6V47.9Zm16-4.9c-.1-2.2-.2-4.4-.5-6.7a13,13,0,0,0-.4-2.1,2.61,2.61,0,0,1-.3-.8c0-.2.2-.3.4-.3.6,0,4.7,1.3,4.7,1.7s-.8,1.2-1.1,1.4c.1,2.2.2,4.4.3,6.7h3.3c.2-.3,1.2-1.6,1.7-1.6s.8.4,1.1.6,1.9,1.5,1.9,2-.3.5-.7.5h-7.4a60.62,60.62,0,0,0,1.5,12,33.56,33.56,0,0,0,1.4-6.1h.2c.7,0,4.4,1.5,4.4,2s-.8.6-1.1.7a61.48,61.48,0,0,1-3.4,8.4,17.62,17.62,0,0,0,1.9,3.9c.1.2.7,1.1.9,1.1.6,0,1.5-3.6,1.8-3.6s.3.2.3.4a42.61,42.61,0,0,0-.6,5,7.61,7.61,0,0,0,.3,2.1,12.63,12.63,0,0,1,.8,1.8c0,.3-.4.6-.7.6-2.9,0-6-5.6-6.9-7.9a27.64,27.64,0,0,1-6.9,5.8,3.55,3.55,0,0,1-.9.4c-.1-.3,0-.4,0-.4,1.2-1.4,2.5-2.9,3.6-4.4a33.08,33.08,0,0,0,2.9-4.7,47.45,47.45,0,0,1-1.6-6.5l-.5-3.2c0,2.1-.2,4.2-.3,6.3-.1,2.5-.4,5.9-2.6,7.5a6.19,6.19,0,0,1-2.5,1.1c-.1-.8-.3-2.4-1-2.9l-1-.8c-.3.6-.5,1.3-.8,1.9a22,22,0,0,1-4,5.1c-.8.6-1.5,1.3-2.3,1.9-.2.1-.9.8-1.1.8s-.1-.2-.1-.2v-.3c2-2.6,3.6-4.5,4.7-7.6a30.56,30.56,0,0,0,1.3-4.3,70.64,70.64,0,0,0,.9-13.8,24.2,24.2,0,0,0-.2-3.8,12.13,12.13,0,0,1-.5-1.4.37.37,0,0,1,.4-.3c1,0,4.1,1.6,4.9,1.9h3.8Zm-4.8,19.8a1.42,1.42,0,0,0,1.4-.9c.8-2.1.9-8,1-10.3h-2.6c-.3,4.5-.3,6.8-1.6,11.1A10.28,10.28,0,0,1,255.1,62.8Zm2-12.6c.1-.1.9-1.2,1.1-1.2a27.87,27.87,0,0,1,2.5,1.7c0,.1-.2.6-.3.6s-.1-.2-.1-.2v-.7c-.1-1.1-.1-2.2-.1-3.3V44.6h-4.4l-.6.7-.1,4.9Zm7.5-15.6a5.91,5.91,0,0,1,1.4.6,5.3,5.3,0,0,1,1,.6c1.2.7,2.6,1.7,2.6,3.3a2,2,0,0,1-1.9,2.2,1.49,1.49,0,0,1-1.4-.8,2.66,2.66,0,0,1-.3-1.2,6.25,6.25,0,0,0-1.6-4,.76.76,0,0,1-.2-.4A.37.37,0,0,1,264.6,34.6Z"/><path class="cls-2" d="M56.7,77.7c-7.8-8-15.1-17-19.1-27.5-1.8-4.9-4.2-11.5-1.4-16.4a6.14,6.14,0,0,1,4.7-3.4,9.07,9.07,0,0,1,6.7,2.8,27.55,27.55,0,0,1,5,7.7,66.09,66.09,0,0,1,3.8,9.6,2.49,2.49,0,0,0,4.8-1.3c-.6-3.5,2.1-6.5,4.5-8.6a30.9,30.9,0,0,1,9.7-5.4c6.4-2.2,14.5-2.3,18.2,4.4,3.4,6.1,1.5,13.7-2.8,18.9C85.6,64.7,78,68.6,70.5,71.3c-9.4,3.3-19.3,4.8-29.1,6.2a2.48,2.48,0,0,0-1.7,3.1,2.56,2.56,0,0,0,3.1,1.7c9.7-1.4,19.4-2.9,28.7-6.1,8.7-3,17.6-7.5,23.4-14.8,5.4-6.8,7.5-16.2,3.2-24.2a16.2,16.2,0,0,0-9.7-7.7,22.67,22.67,0,0,0-12.9.5c-8.7,2.6-21,9.9-19,20.6,1.6-.4,3.2-.9,4.8-1.3a77.46,77.46,0,0,0-4.1-10.4A36.08,36.08,0,0,0,52,30.6c-4.3-4.9-11.8-7.1-17.2-2.7-5.6,4.5-5.3,12.3-3.6,18.6a63.1,63.1,0,0,0,8.2,17.9,108.55,108.55,0,0,0,13.9,17c2.1,2.2,5.7-1.3,3.4-3.7Z"/><path class="cls-2" d="M54.92,78.84C45.48,69.21,37,58.07,33.52,45.06a21.39,21.39,0,0,1-.75-9.84c.68-3.26,2.77-6.37,5.88-7.51s6.84-.11,9.5,2a23.58,23.58,0,0,1,6,8.07A71.52,71.52,0,0,1,58.81,49.2c-1.15-5.61,3.78-10.57,8.64-13.6,7.5-4.68,17.77-7.51,24.8-2.16,5.58,4.24,6.93,12.54,4.48,19.11s-8,11.55-14,15.11c-12.19,7.19-26.6,9.39-40.61,11.46"/><path class="cls-2" d="M55.81,78c-8-8.15-15.33-17.34-19.42-28.09-2-5.23-4.26-12.09-1.29-17.36a7.43,7.43,0,0,1,5.81-4,10.11,10.11,0,0,1,7.57,3.15,27.87,27.87,0,0,1,5.21,8,71,71,0,0,1,3.91,9.92A1.25,1.25,0,0,0,60,48.87c-.72-4,2-7.4,4.83-9.83a31.85,31.85,0,0,1,10.27-5.77c6.94-2.42,15.6-2.21,19.62,4.95,3.72,6.66,1.64,14.8-3,20.39C86.43,65,78.62,69,70.91,71.69,61.5,75,51.58,76.46,41.76,77.91c-1.59.23-.91,2.65.67,2.42,9.68-1.43,19.45-2.88,28.73-6.07C79.63,71.35,88.34,67,94,59.79c5-6.38,7-15.25,3-22.68A14.93,14.93,0,0,0,88,30a21.91,21.91,0,0,0-12.27.48c-7.94,2.38-20,9.18-18.15,19.1L60,48.87a76.22,76.22,0,0,0-4-10.11,33.81,33.81,0,0,0-5-8C47.27,26.43,40.56,24.06,35.63,28c-5.25,4.2-4.9,11.5-3.33,17.37a62.43,62.43,0,0,0,8,17.59A108.29,108.29,0,0,0,54,79.72c1.13,1.16,2.91-.62,1.78-1.77Z"/></svg>