<?xml version="1.0" encoding="utf-8"?>
<!-- Generator: Adobe Illustrator 24.1.1, SVG Export Plug-In . SVG Version: 6.00 Build 0)  -->
<svg version="1.1" id="圖層_2" xmlns="http://www.w3.org/2000/svg" xmlns:xlink="http://www.w3.org/1999/xlink" x="0px" y="0px"
	 viewBox="0 0 300 100" style="enable-background:new 0 0 300 100;" xml:space="preserve">
<style type="text/css">
	.st0{fill:#231815;}
	.st1{fill:#C30D23;}
</style>
<g>
	<g>
		<path class="st0" d="M120.5,57.7V37.5c0-0.8,0-1.6-0.2-2.4c-0.1-0.5-0.5-1.1-0.5-1.5c0-0.2,0.3-0.3,0.4-0.3c0.6,0,4.7,0.9,4.7,1.6
			c0,0.4-0.8,1-1.1,1.1v30.9c0,1.7,0.2,3.5,0.3,5.2c-1.2,0.6-2.5,0.9-3.9,1.1c0.1-1.9,0.3-4.2,0.3-6v-8.4c-1.5,1.3-2.8,2.6-4.2,4
			c-0.7,0.7-1.3,1.3-1.9,2.1l-2-3.9c0.9-0.7,0.8-1.5,0.8-2.5V44.3c0-0.8-0.1-1.7-0.2-2.5c0-0.5-0.5-1.1-0.5-1.4
			c0-0.2,0.2-0.3,0.4-0.3c0.7,0,3.9,0.8,4.4,1.3c0.1,0.1,0.3,0.3,0.3,0.4c0,0.3-1.1,1.1-1.3,1.3v16.4
			C117.8,58.9,119.1,58.3,120.5,57.7z M128.1,50.9c-0.3,0.7-3,5.4-3.5,5.4c-0.1,0-0.2-0.1-0.2-0.3c0-0.2,0.4-1.2,0.5-1.4
			c0.6-1.7,1.1-3.4,1.6-5.1c1.1-3.7,1.9-7.4,2.7-11.1c0.4-2,0.9-4.1,0.9-6.2c0.5,0,4.9,1.8,4.9,2.7c0,0.3-1,0.6-1.2,0.7
			c-0.7,2.3-1.4,4.7-2.2,7h8.1c0.3-0.3,1.9-2,2.2-2c0.5,0,3,2.7,3,3.1c0,0.3-0.3,0.4-0.6,0.4h-6.1c0.6,0.3,3.4,1.2,3.4,1.9
			c0,0.5-0.9,0.8-1.3,0.8c-0.6,2.2-1.2,4.4-1.8,6.6c-0.8,2.9-1.8,5.7-3,8.5c0.6,1,1.3,2,2.1,2.8c1.4,1.4,3.4,3.7,5,4.7l1.2,0.8
			c0.2,0.2,0.6,0.3,0.6,0.7c0,0.3-0.9,0.3-1.1,0.3c-1,0.1-2.7,1-3.5,1.7c-2.3-2.4-4.5-4.8-6.3-7.7c-2.5,3-5.4,5.7-8.6,7.8
			c-0.2,0.1-0.6,0.5-0.8,0.5c-0.1,0-0.2-0.1-0.2-0.3c0-0.3,0.6-0.8,0.8-0.9c2.9-3,5.2-6.5,7.3-10.1c-0.4-0.8-0.8-1.7-1.2-2.6
			c-1.2-3-1.6-7.5-1.6-10.7C128.7,49.6,128.4,50.3,128.1,50.9z M134.6,54.8c1-3.4,1.6-7.1,2.1-10.7h-5.6l-1.4,3.3
			c0.8,4.1,1.6,7.5,3.7,11.1C133.8,57.3,134.2,56.1,134.6,54.8z"/>
		<path class="st0" d="M155.2,58.4c0.6,0,1.3,0.2,2,0.2h5.2v-3.3h-2.1c-0.2,0.2-0.9,1.4-1.3,1.4c-0.3,0-3-2.3-3-2.5
			c0-0.3,1.1-1,1.3-1.1v-4.3c0-0.4,0-0.8-0.1-1.3c0-0.3-0.1-0.7-0.3-1c0-0.1-0.1-0.3-0.1-0.3c0-0.2,0-0.3,0.2-0.3
			c0.6,0,3.1,0.9,3.7,1.1c0.1,0.1,0.4,0.2,0.4,0.4c0,0.3-0.8,0.9-1,1.1v5.3h2.2l0-6.2c0-0.3,0-0.8-0.1-1.1c-0.1-0.2-0.3-0.6-0.3-0.8
			c0-0.2,0-0.3,0.3-0.3c0.4,0,3.7,1.7,4.3,2h8.1l-0.3-2.3c0-0.5-0.4-1.5-0.4-1.8c0-0.2,0.3-0.3,0.5-0.3c0.3,0,3.5,0.9,3.8,1.1
			c0.2,0.1,0.4,0.2,0.4,0.4c0,0.2-0.7,0.8-0.9,1l-0.1,1.8h4.4c0.3-0.3,1.2-1.5,1.7-1.5c0.5,0,2,1.7,2.4,2c0.2,0.1,0.2,0.3,0.2,0.5
			c0,0.3-0.2,0.6-0.6,0.6h-8c0.2,4.1,0.6,7.2,1.5,11.3c0.8-2.1,1.9-5,2-7.2c0.1,0,0.1,0,0.2,0c0.2,0,4.1,1.5,4.1,2.1
			c0,0.3-1.1,0.9-1.3,1c-1.1,2.6-2.2,5.1-3.6,7.6c0.4,0.6,2.3,3.6,3.1,3.6c0.4,0,1.8-4.2,2.1-4.2c0.1,0,0.3,0.2,0.3,0.3
			c0,0.2-0.2,0.8-0.2,1c-0.3,1.2-0.6,2.4-0.6,3.7c0,1.9,1.3,2.7,1.3,3.5c0,0.7-0.6,0.9-1.1,0.9c-2.7,0-5.2-3.8-6.5-5.7
			c-0.8,1-1.6,2-2.5,2.8c-0.7,0.6-4.2,3.2-4.8,3.2c-0.2-0.3,0.5-0.9,0.6-1.1c2.2-2.2,4-4.7,5.2-7.5c-1.1-2.6-1.4-4.1-1.9-6.9
			l-0.5,0.4v2.8c0,0.6,0.1,1.3,0.2,1.9c-0.9,0.3-1.8,0.7-2.8,0.8l0.1-1.4h-0.2l-0.3,0.5v2.9h1c0.1-0.1,0.9-1.1,1.1-1.1
			c0.4,0,2,1.7,2,1.9c0,0.4-0.3,0.6-0.6,0.6h-6.8c-0.1,0.3-0.6,1.1-0.9,1.1c-0.5,0-2.6-1.9-2.6-2c0-0.3,0.8-0.8,0.9-0.9V54.3
			c0-0.6,0-1.1-0.1-1.7c0-0.4-0.1-1-0.3-1.4c0-0.1-0.1-0.3-0.1-0.4c0-0.1,0.2-0.3,0.3-0.3c0.6,0,2.8,1.1,3.3,1.3h2.8
			c0.2-0.2,0.8-0.9,1.1-0.9c0.4,0,1.5,1.4,1.5,1.9c0,0.3-0.2,0.4-0.4,0.4h-1.9l-0.3,0.3v2.8h0.5c0.3-0.3,0.6-0.7,1-0.7
			c0.5,0,1.5,0.9,1.9,1.1c-0.3-2.6-0.6-5.2-0.8-7.8h-9.1l-0.2,0.3c0,4.3,0.1,8.5-0.3,12.8c-0.1,1.7-0.6,3.4-1.2,5
			c-0.9,2.3-3.6,4.2-5.6,5.5c-0.2,0.1-0.7,0.5-0.9,0.5c-0.1,0-0.2-0.1-0.2-0.2c0-0.1,0-0.2,0.1-0.3c0.6-0.6,1.2-1.3,1.8-2
			c2.5-3,3-6.7,3.2-10.4h-1.7c0.2,0.2,0.8,0.6,0.8,0.8c0,0.3-0.5,0.6-0.7,0.7c-0.8,3.7-1.4,5.3-4.7,7.5c-0.2,0.1-0.8,0.6-1,0.6
			c-0.1,0-0.2-0.1-0.2-0.2c0-0.3,0.5-0.8,0.6-1c2.2-3,2.1-4.7,2.4-8.3h-1.2l-0.5,0.6L155.2,58.4z M163.9,35.9c0-0.7,0-1.5-0.2-2.2
			c0-0.3-0.4-0.8-0.4-0.9c0-0.1,0.3-0.2,0.4-0.2c1.1,0,2.9,0.6,4,0.9c0.3,0,0.8,0.2,0.8,0.6s-0.9,0.8-1.1,1v3.1h5.6V36
			c0-0.6,0-1.3-0.1-1.9c-0.1-0.3-0.4-0.8-0.4-1c0-0.2,0.3-0.3,0.4-0.3c0.2,0,1.8,0.4,2.1,0.5c0.5,0.1,2.6,0.6,2.6,1.3
			c0,0.3-0.8,0.8-1.1,0.9v2.6h5.5c0.2-0.3,1.5-1.8,2.1-1.8c0.5,0,2,1.5,2.2,1.7c0.3,0.2,0.8,0.7,0.8,1.1c0,0.5-0.7,0.6-1,0.6h-9.6
			l0.2,2.1c-1.3,0.3-2.5,0.5-3.8,0.7c0.1-0.9,0.2-1.9,0.1-2.8h-5.5l0.1,2.7c-1.2,0.3-2.5,0.6-3.7,0.8c0-1.1,0.2-2.3,0.1-3.5h-6.9
			l-0.6,0.6l-1.3-2.3c0.8,0,1.6,0.2,2.3,0.2h6.4V35.9z M170.4,56.3v-3.2h-1.2l-0.3,0.2v3H170.4z M172.6,60.4v-2.7h-3.7v2.7H172.6z
			 M168.9,65.1h1.5v-3.4h-1.5V65.1z M177.7,41.8c0.6,0,1.2,0.3,1.7,0.4c1.5,0.3,3.2,1.2,3.2,3c0,0.9-0.8,1.8-1.7,1.8
			c-1.4,0-1.7-1.5-1.9-2.5c-0.2-0.7-0.5-1.3-1-1.7c-0.1-0.1-0.7-0.5-0.7-0.7C177.4,41.9,177.6,41.8,177.7,41.8z"/>
		<path class="st0" d="M200.2,40.2c0-0.8-0.2-1.6-0.3-2.3c0-0.4-0.3-0.9-0.3-1.2c0.1-0.2,0.2-0.3,0.3-0.3l2.5,0.8
			c0.6-0.6,1.9-2.2,2-2.9c0.2,0,0.3,0,0.4,0c0,0,1.2,1.4,1.4,1.6c0.2,0.2,0.5,0.6,0.5,0.9c0,0.1,0,0.1,0,0.2c-0.1,0.2-0.8,0.3-1,0.3
			c-0.7,0.1-1.4,0.4-2,0.8l-0.3,0.6l0.2,5.1h0.9c0.1-0.2,0.4-0.9,0.7-0.9c0.4,0,1.5,1.5,1.5,1.9c0,0.3-0.4,0.3-0.6,0.3h-2.5l0,5.8
			h0.6c0.1-0.1,0.7-1.1,1-1.1c0.3,0,1.6,1.4,1.6,1.9c0,0.3-0.4,0.5-0.6,0.5h-2.4l0.1,7h3.2V38.4c0-0.7,0-1.4-0.1-2.2
			c0-0.3-0.4-1.4-0.4-1.5c0-0.2,0.1-0.3,0.2-0.3c0.6,0,2.8,1.2,3.4,1.6h5.8c0.1-0.2,0.8-1.4,1.2-1.4c0.5,0,1.9,1.1,2.2,1.2
			c0.2,0.1,0.6,0.4,0.6,0.7c0,0.4-0.7,0.8-0.9,1.1l0,21.7h3.2l0.3-6.7h-1.8l-0.6,0.6l-1-2.1c1.1,0.1,2.2,0.2,3.3,0.1l0.3-5.8h-1.8
			l-0.7,0.5l-0.8-2c1.1,0.2,2.3,0.2,3.4,0.2l0.2-5.8h-1.2l-0.7,0.3l-0.8-2.1c0.8,0.1,1.7,0.2,2.5,0.1c0.1-0.2,1-1.5,1.4-1.5
			c0.5,0,2.6,1.6,2.8,1.7c0.1,0.1,0.6,0.5,0.6,0.7c0,0.4-1.1,1.1-1.3,1.3l-1,20.7c0,0,1.4-2,1.9-2c0.3,0,0.8,0.6,1,0.7
			c0.2,0.2,1.8,1.4,1.8,2c0,0.3-0.3,0.5-0.6,0.5h-31l-0.7,0.5l-1.2-2.2c1.4,0.2,2.9,0.3,4.3,0.2L200.2,40.2z M197.4,72.5
			c0-0.2,0.6-0.6,0.7-0.7c1.9-1.7,7.1-7.2,8.2-9.4c0.2-0.3,0.3-0.8,0.5-1.1c0,0,0.1,0,0.2,0c0.2,0,1.4,0.6,1.7,0.7
			c0.6,0.2,2.9,1.3,2.9,1.9c0,0.4-1.5,0.8-1.8,1c-0.6,0.4-2.8,2.4-3.2,2.7c-2.4,2-5,3.5-7.8,4.7c-0.2,0.1-0.8,0.4-1,0.4
			C197.5,72.7,197.4,72.6,197.4,72.5z M216.2,59.3v-22h-6.3l-0.5,0.7v21.3H216.2z M211.4,41.4h1.7c0.2-0.2,0.8-1.1,1.2-1.1
			c0.5,0,1.3,1.2,1.4,1.4c0.1,0.2,0.3,0.4,0.3,0.6c0,0.3-0.3,0.4-0.6,0.4h-4.1l-0.6,0.5l-1-2C210.3,41.3,210.9,41.4,211.4,41.4z
			 M214,45.7c0.3,0,2.1,1.1,2.1,1.3c0,0.3-0.6,0.8-0.8,0.9V53c0,0.8,0.1,1.8,0.2,2.6c-0.7,0.3-1.4,0.5-2.2,0.6l0.2-1.9h-1.4V56
			c-0.6,0.3-1.5,0.5-1.9,0.9c0-1.1,0.2-2.3,0.2-3.4v-5c0-0.4,0-0.8-0.1-1.3c0-0.5-0.3-1.2-0.3-1.5c0-0.1,0-0.2,0.2-0.2
			c0.3,0,1.9,0.8,2.2,1h1C213.4,46.3,213.8,45.7,214,45.7z M213.5,47.7h-1.1l-0.3,0.4v5h1.4V47.7z M214.7,61.8
			c0.5,0,1.6,0.4,2.1,0.5c3,0.6,9.4,4,9.4,7.5c0,1.2-0.8,2.5-2.2,2.5c-0.7,0-1.5-0.5-1.9-1.1c-0.4-0.6-0.7-1.3-1-1.9
			c-0.9-1.9-2.5-3.8-4-5c-0.6-0.5-1.2-0.9-1.8-1.3c-0.2-0.2-0.9-0.6-0.9-0.8C214.4,61.9,214.6,61.8,214.7,61.8z"/>
		<path class="st0" d="M243.9,47.9h-2.7l-0.7,0.6l-1.3-2.2c0.8,0,1.6,0.2,2.3,0.2h2.3v-5.6c0-0.9-0.1-1.9-0.3-2.9
			c0-0.5-0.4-1.1-0.4-1.4c0-0.2,0-0.3,0.3-0.3c0.3,0,1.6,0.4,1.9,0.6c0.5,0.1,2.9,0.8,2.9,1.3c0,0.3-1,1.1-1.2,1.2v7.1h0.3
			c0.2-0.3,1.1-1.5,1.5-1.5c0.4,0,2.4,2.1,2.4,2.6c0,0.3-0.3,0.4-0.6,0.4h-3.6v11.1c1-0.1,2.8-0.7,3.4-0.7c0.1,0,0.3,0,0.3,0.2
			c0,0.3-1,0.8-1.1,0.9c-2.8,1.7-5.4,3.6-8,5.5l-2.2-4.6c1.4,0,3-0.3,4.4-0.6V47.9z M259.9,43c-0.1-2.2-0.2-4.4-0.5-6.7
			c0-0.5-0.3-1.7-0.4-2.1c-0.1-0.2-0.3-0.6-0.3-0.8s0.2-0.3,0.4-0.3c0.6,0,4.7,1.3,4.7,1.7c0,0.3-0.8,1.2-1.1,1.4
			c0.1,2.2,0.2,4.4,0.3,6.7h3.3c0.2-0.3,1.2-1.6,1.7-1.6c0.4,0,0.8,0.4,1.1,0.6c0.3,0.3,1.9,1.5,1.9,2c0,0.4-0.3,0.5-0.7,0.5h-7.4
			c0.1,4.6,0.6,7.5,1.5,12c0.7-2.1,1.1-4,1.4-6.1c0,0,0.1,0,0.2,0c0.7,0,4.4,1.5,4.4,2c0,0.4-0.8,0.6-1.1,0.7
			c-0.9,2.9-2.1,5.7-3.4,8.4c0.5,1.4,1.1,2.7,1.9,3.9c0.1,0.2,0.7,1.1,0.9,1.1c0.6,0,1.5-3.6,1.8-3.6c0.2,0,0.3,0.2,0.3,0.4
			c-0.2,1.7-0.6,3.3-0.6,5c0,0.7,0.1,1.4,0.3,2.1c0.2,0.4,0.8,1.6,0.8,1.8c0,0.3-0.4,0.6-0.7,0.6c-2.9,0-6-5.6-6.9-7.9
			c-1.9,2.3-4.3,4.2-6.9,5.8c-0.2,0.1-0.7,0.4-0.9,0.4c-0.1-0.3,0-0.4,0-0.4c1.2-1.4,2.5-2.9,3.6-4.4c1.1-1.5,2.1-3.1,2.9-4.7
			c-0.6-2.1-1.3-4.3-1.6-6.5l-0.5-3.2c0,2.1-0.2,4.2-0.3,6.3c-0.1,2.5-0.4,5.9-2.6,7.5c-0.7,0.6-1.7,0.9-2.5,1.1
			c-0.1-0.8-0.3-2.4-1-2.9l-1-0.8c-0.3,0.6-0.5,1.3-0.8,1.9c-0.7,1.4-2.8,4.1-4,5.1c-0.8,0.6-1.5,1.3-2.3,1.9
			c-0.2,0.1-0.9,0.8-1.1,0.8c-0.1,0-0.1-0.2-0.1-0.2c0-0.1,0-0.2,0-0.3c2-2.6,3.6-4.5,4.7-7.6c0.5-1.4,1-2.8,1.3-4.3
			c0.9-4.4,0.9-9.3,0.9-13.8c0-1.3,0-2.5-0.2-3.8c-0.1-0.4-0.5-1.1-0.5-1.4c0.1-0.3,0.3-0.3,0.4-0.3c1,0,4.1,1.6,4.9,1.9H259.9z
			 M255.1,62.8c0.6,0,1.2-0.3,1.4-0.9c0.8-2.1,0.9-8,1-10.3h-2.6c-0.3,4.5-0.3,6.8-1.6,11.1C253.9,62.6,254.6,62.8,255.1,62.8z
			 M257.1,50.2c0.1-0.1,0.9-1.2,1.1-1.2c0.2,0,2.2,1.5,2.5,1.7c0,0.1-0.2,0.6-0.3,0.6s-0.1-0.2-0.1-0.2c0-0.3,0-0.5,0-0.7
			c-0.1-1.1-0.1-2.2-0.1-3.3v-2.5h-4.4l-0.6,0.7l-0.1,4.9H257.1z M264.6,34.6c0.2,0,1.3,0.5,1.4,0.6c0.3,0.1,0.7,0.4,1,0.6
			c1.2,0.7,2.6,1.7,2.6,3.3c0,1.1-0.7,2.2-1.9,2.2c-0.6,0-1.2-0.3-1.4-0.8c-0.2-0.4-0.3-0.8-0.3-1.2c-0.2-1.7-0.5-2.8-1.6-4
			c-0.1-0.1-0.2-0.3-0.2-0.4C264.3,34.6,264.5,34.6,264.6,34.6z"/>
	</g>
</g>
<g>
	<g>
		<path class="st1" d="M56.7,77.7c-7.8-8-15.1-17-19.1-27.5c-1.8-4.9-4.2-11.5-1.4-16.4c1-1.8,2.6-3.2,4.7-3.4
			c2.5-0.2,4.9,1.1,6.7,2.8c2.2,2.2,3.7,5,5,7.7c1.5,3.1,2.8,6.3,3.8,9.6c1,3.1,5.4,1.8,4.8-1.3c-0.6-3.5,2.1-6.5,4.5-8.6
			c2.8-2.4,6.3-4.2,9.7-5.4c6.4-2.2,14.5-2.3,18.2,4.4c3.4,6.1,1.5,13.7-2.8,18.9c-5.2,6.2-12.8,10.1-20.3,12.8
			c-9.4,3.3-19.3,4.8-29.1,6.2c-1.3,0.2-2.1,1.9-1.7,3.1c0.4,1.4,1.7,1.9,3.1,1.7c9.7-1.4,19.4-2.9,28.7-6.1
			c8.7-3,17.6-7.5,23.4-14.8c5.4-6.8,7.5-16.2,3.2-24.2c-2.1-3.8-5.6-6.5-9.7-7.7c-4.2-1.2-8.8-0.8-12.9,0.5
			c-8.7,2.6-21,9.9-19,20.6c1.6-0.4,3.2-0.9,4.8-1.3c-1.1-3.6-2.5-7-4.1-10.4c-1.4-2.9-3-5.8-5.2-8.3c-4.3-4.9-11.8-7.1-17.2-2.7
			c-5.6,4.5-5.3,12.3-3.6,18.6c1.7,6.3,4.6,12.4,8.2,17.9c4,6.2,8.8,11.8,13.9,17C55.4,83.6,59,80.1,56.7,77.7L56.7,77.7z"/>
	</g>
</g>
</svg>
