<svg id="圖層_2" data-name="圖層 2" xmlns="http://www.w3.org/2000/svg" viewBox="0 0 300 100"><defs><style>.cls-1{fill:#231815;}.cls-2{fill:#c30d23;}</style></defs><path class="cls-1" d="M116.3,35.6a6.17,6.17,0,0,0-.2-2,3.18,3.18,0,0,1-.3-.9c0-.3.3-.3.5-.3a30.38,30.38,0,0,1,4,1.2c.2.1.4.2.4.4,0,.4-.9,1.1-1.2,1.3v7.4h.7c.1-.1.9-1.4,1.3-1.4a7.22,7.22,0,0,1,2.3,2.6c0,.3-.4.3-.6.3h-3.7v5.5c.3-.2,2.8-1.9,2.9-1.9a.32.32,0,0,1,.3.3c0,.2-2.8,3.2-3.1,3.6V69.5a3.66,3.66,0,0,1-.4,1.8c-.4.8-3.3,1.1-4.1,1.2-.1-1.2-.2-2-1.4-2.5-.3-.1-1.4-.5-1.4-.8s.2-.2.3-.2a24.52,24.52,0,0,0,2.7.2c.9,0,1.1-.7,1.1-1.5V55.3c-.8,1.1-1.6,2.1-2.3,3.2L112,54.1a26.38,26.38,0,0,0,4.4-2.3V44.2h-2.6l-.8.6-1.5-2.2a25.72,25.72,0,0,0,4.8.2Zm12.8,1.2h-5l-.7.6-1.5-2.2c.8,0,1.7.2,2.6.2h4.6c.3-.3.9-1.2,1.4-1.2s3.1,2.2,3.1,2.8-1.1.9-1.4,1.1a37.32,37.32,0,0,1-6.3,9.8h2.2c.1-.2.8-1.2,1.1-1.2s2.9,1.6,2.9,2.1-.7.9-1,1.1v4.6c0,.6.1,1.1.1,1.7a15.36,15.36,0,0,1-3,1.1l.1-1.7H127l-.3.3-.4,4H128c.2-.2.8-1.1,1.1-1.1a2.12,2.12,0,0,1,.7.3l2,1.3a.54.54,0,0,1,.3.4c0,.3-.6.7-.9.9-.2,3.1.2,7.4-2.2,9.8a6.4,6.4,0,0,1-3.3,1.3c-.3-1.2-.4-2.2-1.7-2.8-.2-.1-1.7-.6-1.7-.9s.3-.3.4-.3c1,0,2,.3,3,.3,2.1,0,2.3-1.6,2.4-3.3a21.05,21.05,0,0,0,.2-2.5V61.4h-2.2c-.3.3-.8,1.1-1.2,1.1a8.42,8.42,0,0,1-2.4-2.2c0-.3,1.1-1,1.2-1.1l.4-4.5c0-.6-.2-1-.2-1.5,0-.2.1-.3.4-.3a22.07,22.07,0,0,1,2.7,1.2h1.4V49.5h-3l-.5.4-.3-.6a23.91,23.91,0,0,1-3.3,2.5.22.22,0,0,1-.2-.2.76.76,0,0,1,.2-.4,41,41,0,0,0,5-7.3h-.5a.89.89,0,0,1-1-.6c-.3-.6-.3-2.4-.6-3.4a17.72,17.72,0,0,1-.6-1.7c0-.1,0-.3.1-.3a16.29,16.29,0,0,1,1.7,1.1,3.56,3.56,0,0,1,1.9,2.7C127.9,40.1,128.5,38.4,129.1,36.8ZM138,60.2h-3.7l-.8.6L132,58.5c.8,0,1.7.2,2.5.2h3.6c.3-.3.5-.9.9-.9s3.1,2.1,3.1,2.5-.8.8-1.1.9c-.8,1.4-1.5,2.9-2.3,4.3,1.2,1.1,3.4,3.3,3.4,5.1a2,2,0,0,1-1.9,1.9,1.69,1.69,0,0,1-1.4-.9c-.6-1.1-1.1-2.8-1.7-4a17.1,17.1,0,0,1-5.6,4.4,6.94,6.94,0,0,1-1.3.5c-.1,0-.2,0-.2-.1a.45.45,0,0,1,.3-.3l1.1-.9a21.49,21.49,0,0,0,4.5-5.8,31.1,31.1,0,0,0-2.5-3.8c-.1-.1-.2-.2-.2-.3a.22.22,0,0,1,.2-.2c.1,0,2.9,2.3,3.2,2.6A21.3,21.3,0,0,0,138,60.2Zm-1.3-12.3c.1-.2.8-1,1.1-1a7.14,7.14,0,0,1,2.5,2c0,.3-.5.6-.7.7v3.9a.47.47,0,0,0,.5.5c1,0,.9-1,1.4-1s2.2,1.7,2.2,2.3c0,1.3-2.8,1.2-3.6,1.2-1.4,0-3.2,0-3.2-1.9V49.3h-1.2l-.4.3c-.1,3,0,5.2-2.3,7.4l-.9.9c-.2.1-.9.7-1.1.7-.1-.3,1.1-2.3,1.3-3.3a30.52,30.52,0,0,0,.5-5.2,12.75,12.75,0,0,0-.1-2,7.83,7.83,0,0,0-.3-1.4.22.22,0,0,1,.2-.2c.4,0,2.5,1.1,3.1,1.3h1Zm1.4-6.3a9.79,9.79,0,0,0,3.2-3.2h.2c.4,0,2.8,1.9,2.8,2.4s-1.1.4-1.4.5a35.71,35.71,0,0,0-4,1.2c1.7,1.9,2.7,3,5,4,.2.1,1.4.5,1.4.7s-.6.3-.8.4a5.36,5.36,0,0,0-2.7,2,24.33,24.33,0,0,1-3.4-3c-1.8-1.9-3-5.2-3.7-7.7a42.09,42.09,0,0,1-.9-4.9c0-.3.1-.4.3-.4s.6,1.4.6,1.7c.3.9.8,1.9,1.2,2.8a25.47,25.47,0,0,0,2.6-3c.1-.2.1-.7.5-.7s2.5,1.9,2.5,2.4-.8.4-1.1.5c-.7.2-3.3,1.4-4.1,1.7C136.9,39.8,137.5,40.7,138.1,41.6Z"/><path class="cls-1" d="M160.2,45.6h-4.1l-.7.5-1.5-2.3a23,23,0,0,0,2.6.3h3.8V37a17,17,0,0,0-.1-2.3c-.1-.5-.4-1.6-.4-1.8s.1-.3.4-.3a17.42,17.42,0,0,1,4.6,1.3.6.6,0,0,1,.3.6c0,.4-1.1.9-1.4,1.1v8.7h1.2c.2-.2,1.7-1.8,2.1-1.8s.7.4.9.6c.3.4,1.9,1.7,1.9,2.3,0,.3-.3.4-.6.4h-5.5V53c1.6-.5,6.1-2.4,6.3-2.4s.2.1.2.3-6.1,4.3-6.5,4.5V69.5c0,2-3,2.8-4.7,2.9a3.89,3.89,0,0,0-2-3.2c-.2-.1-1.3-.5-1.3-.7s.2-.3.4-.3a24.52,24.52,0,0,0,2.7.2c1,0,1.4,0,1.4-1.1V57.5a28.58,28.58,0,0,0-4,2.8l-1.9-4.2a30.88,30.88,0,0,0,5.9-1.8V45.6ZM184,35.7c.3,0,.8.6,1,.7.3.3,2,1.8,2,2.4a.47.47,0,0,1-.5.5h-4.3l-1.1,1V69.4c0,3.1-2.9,3.3-5.3,3.4l-.2-.9a3.84,3.84,0,0,0-2.4-2.7c-.2-.1-1.3-.4-1.3-.7a.45.45,0,0,1,.3-.3c1,0,2.3.3,3.5.3.9,0,1.6-.2,1.6-1.3v-28H170l-.8.6-1.5-2.3a23,23,0,0,0,2.6.3h11.4C181.9,37.6,183.6,35.7,184,35.7Z"/><path class="cls-1" d="M211.2,39.9V36.6h-8.5l-.7.6-1.5-2.3a20.61,20.61,0,0,0,2.6.3h17.5c.1-.1,1.4-2,1.8-2s1,.6,1.2.8,1.9,1.8,1.9,2.3c0,.3-.6.4-.8.4h-9.4l-.8.4V40h9.3c.2-.2,1-1.3,1.4-1.3s4,2.2,4,3.1c0,1.1-2.3.8-3.4,1.8a19,19,0,0,0-1.9,2.1c-.1.1-.2.3-.4.3a.22.22,0,0,1-.2-.2,11.27,11.27,0,0,1,.3-1.8,21.66,21.66,0,0,0,.4-2.5h-9.5V46c0,1.4.2,2.8.3,4.2a23.53,23.53,0,0,1-4,1.4c.1-1.6.3-3.2.3-4.8V41.4h-10v1.1c0,1.5-1,3.4-2.7,3.4a1.79,1.79,0,0,1-1.8-1.8,2,2,0,0,1,.3-1.1c.6-.8,1.4-1.4,2-2.2a2.53,2.53,0,0,0,.6-1.5c0-.1.1-1.1.4-1.1s.8,1.4.9,1.7Zm-3.5,7a4.84,4.84,0,0,1,1.9,2.1c0,.3-.3.4-.6.4h-6.8l-.6.6-1.4-2.3a13.55,13.55,0,0,0,2,.2h4.4C206.7,47.8,207.4,46.9,207.7,46.9Zm-6.3,5.8a6.28,6.28,0,0,0-.3-1.9.6.6,0,0,1-.1-.4q.15-.3.3-.3a30.52,30.52,0,0,1,4.2,1.9h14.7c.2-.3,1-1.4,1.4-1.4a2.7,2.7,0,0,1,1.1.5c.3.2,2.6,1.3,2.6,1.8s-.9.9-1.2,1.1v7c0,1.1.1,2.2.2,3.3a24.3,24.3,0,0,1-3.8,1.3l.2-1.7h-6.1v3.3a1.21,1.21,0,0,0,.8,1.2,46.78,46.78,0,0,0,5.5.3c1.7,0,4,.2,4.7-1.7a20.14,20.14,0,0,0,1-3.5c.1-.3.2-1.6.5-1.6a.27.27,0,0,1,.3.3v2.3c0,1.9.7,2.1,2.3,2.9a16.27,16.27,0,0,1-1.1,2.3,3.53,3.53,0,0,1-1.8,1.6c-1.6.6-4.7.6-6.4.6-1.3,0-2.6-.1-3.9-.2s-4.2,0-5-1.3a2.45,2.45,0,0,1-.4-1.2V63.9h-6.4v.5a25.33,25.33,0,0,1-3.6,1.2c.1-1.4.3-2.8.3-4.2Zm6.2-9.9c.3,0,.6.4.8.6s1.4,1.3,1.4,1.8c0,.3-.2.4-.5.4h-6.1l-.6.6L201.2,44a16.35,16.35,0,0,0,2.2.2h3C206.4,43.9,207.3,42.8,207.6,42.8Zm3.5,14.3V53.6h-5.8l-.6.3v3.2Zm0,1.4h-6.4v3.9h6.4Zm9.5-1.4V53.6H215l-.5.5v3Zm0,5.3V58.5h-6.1v3.9Zm.4-19.3c.2,0,.5.3.6.4s1.4,1.4,1.4,1.9c0,.3-.3.3-.5.3h-5l-.8.6-1.4-2.2c.7,0,1.5.1,2.2.1h2.3C219.9,44.1,220.7,43.1,221,43.1Zm1.8,3.7a5.87,5.87,0,0,1,2.1,2.5c0,.2-.2.3-.4.3h-6.6l-.6.6L215.9,48c.7,0,1.5.2,2.2.2h3.6C221.7,47.9,222.3,46.8,222.8,46.8Z"/><path class="cls-1" d="M251.5,38.3c.3,0,.7.5.9.6s2,1.9,2,2.4c0,.2-.2.3-.4.3H240.9l-.7.6-1.5-2.3a23,23,0,0,0,2.6.3h8.6C249.8,40.1,251.1,38.3,251.5,38.3Zm-1.2,11.1a1.24,1.24,0,0,1,.8.6c.3.3,1.8,1.7,1.8,2.2,0,.3-.2.3-.4.3h-9.8l-.8.6-1.5-2.2a21.05,21.05,0,0,0,2.5.2h5.7C248.7,50.9,249.9,49.4,250.3,49.4Zm0-5.7c.5,0,2.5,2.6,2.5,2.8s-.4.3-.6.3h-9.5l-.8.6-1.4-2.1a21.16,21.16,0,0,0,2.4.2h5.6C248.7,45.2,249.9,43.7,250.3,43.7Zm-1.5,23.9H245v3.1a8.87,8.87,0,0,1-3.2.8c0-1.4.2-2.9.2-4.4V58.5a5.23,5.23,0,0,0-.3-1.8c0-.1-.1-.3-.1-.4,0-.3,0-.4.3-.4.6,0,3.3,1.1,3.6,1.1h3.1c0-.1,1-1.5,1.3-1.5a16.09,16.09,0,0,1,2.8,1.7c.1.1.5.4.5.6,0,.4-1,1-1.2,1.2v6.5c0,1.4.1,2.8.2,4.1a10.08,10.08,0,0,1-3.4.9Zm-4.6-35.1a11.5,11.5,0,0,1,1.7.6c1.6.6,3.6,2.1,3.6,4a9.36,9.36,0,0,1-.4,1.6,1.37,1.37,0,0,1-1.4.9c-.6,0-1.6-.1-1.8-.8-.5-1.6-.1-3.1-1-4.7l-.8-1.4A.35.35,0,0,1,244.2,32.5ZM248.8,66V58.5h-3.6l-.2.5v7Zm11.5-27.3V37.6c-1.6.1-3.2.2-4.7.2-.4,0-2.2.1-2.2-.3,0-.1,0-.2.2-.3l2.3-.6c1.6-.4,3.1-.8,4.6-1.3,1.9-.6,3.7-1.1,5.6-1.8.4-.2.9-.8,1.1-.8.5,0,3.3,3.3,3.3,3.8,0,.3-.2.3-.4.3-2.2.1-4.3.4-6.4.5.3.1,1.4.5,1.4,1s-.7.7-1.1.8l-.3,7h3.6c.2-.2,1.4-1.9,1.9-1.9s.9.6,1.2.8,1.9,1.8,1.9,2.2c0,.2-.3.3-.4.3h-8.3l-.4,7.1h1.6c.1-.2,1.1-1.7,1.4-1.7a10.79,10.79,0,0,1,3.6,2.4c0,.3-.9,1.1-1.1,1.3V67c0,1.3.2,3,.3,4.3a28.32,28.32,0,0,1-4,.8l.2-3.5h-6.6v2.6c-1.2.3-2.5.6-3.6.8.1-1.6.3-3.1.3-4.7V57.1a7,7,0,0,0-.5-2.5,1.45,1.45,0,0,1-.2-.7c0-.1.1-.1.2-.1a5.82,5.82,0,0,1,1.6.5c.4.1,2.5.8,2.6.8h.9l.3-7.1h-4.9l-.8.6L253,46.3a20.61,20.61,0,0,0,2.6.3h4.6Zm4.8,28.9V56.5h-6.2l-.4.4V67.6Z"/><path class="cls-2" d="M56.6,77.5c-7.8-8-15.1-17-19.1-27.5-1.8-4.9-4.2-11.5-1.4-16.4a6.14,6.14,0,0,1,4.7-3.4A9.07,9.07,0,0,1,47.5,33a27.55,27.55,0,0,1,5,7.7,66.09,66.09,0,0,1,3.8,9.6A2.49,2.49,0,0,0,61.1,49c-.6-3.5,2.1-6.5,4.5-8.6A30.9,30.9,0,0,1,75.3,35c6.4-2.2,14.5-2.3,18.2,4.4,3.4,6.1,1.5,13.7-2.8,18.9-5.1,6-12.7,10-20.2,12.6-9.4,3.3-19.3,4.8-29.1,6.2a2.48,2.48,0,0,0-1.7,3.1,2.56,2.56,0,0,0,3.1,1.7c9.7-1.4,19.4-2.9,28.7-6.1,8.7-3,17.6-7.5,23.4-14.8,5.4-6.8,7.5-16.2,3.2-24.2a16.2,16.2,0,0,0-9.7-7.7,22.67,22.67,0,0,0-12.9.5c-8.7,2.6-21,9.9-19,20.6,1.6-.4,3.2-.9,4.8-1.3a77.46,77.46,0,0,0-4.1-10.4A36.08,36.08,0,0,0,52,30.2c-4.3-4.9-11.8-7.1-17.2-2.7C29.1,32,29.4,39.8,31,46.1A63.1,63.1,0,0,0,39.2,64,108.55,108.55,0,0,0,53.1,81c2.2,2.3,5.8-1.2,3.5-3.5Z"/><path class="cls-2" d="M54.43,79.37C45,69.75,36.53,58.61,33,45.59a21.24,21.24,0,0,1-.74-9.84c.67-3.25,2.76-6.36,5.88-7.51s6.84-.1,9.5,2a23.43,23.43,0,0,1,6,8.07,70.61,70.61,0,0,1,4.65,11.45C57.17,44.12,62.1,39.17,67,36.13c7.5-4.67,17.77-7.51,24.8-2.15,5.58,4.24,6.93,12.54,4.48,19.1s-8,11.56-14,15.12C70,75.39,55.61,77.59,41.61,79.66"/><path class="cls-2" d="M55.32,78.48C47.35,70.34,40,61.15,35.9,50.39c-2-5.22-4.25-12.08-1.28-17.35a7.37,7.37,0,0,1,5.8-4A10.14,10.14,0,0,1,48,32.17a27.84,27.84,0,0,1,5.21,8,70.48,70.48,0,0,1,3.91,9.92,1.26,1.26,0,0,0,2.42-.67c-.72-4,2-7.4,4.83-9.83A32.15,32.15,0,0,1,74.63,33.8c7-2.41,15.6-2.21,19.62,5,3.72,6.66,1.65,14.79-3,20.39-5.31,6.38-13.12,10.38-20.83,13.08C61,75.52,51.1,77,41.27,78.45c-1.59.23-.91,2.65.67,2.42,9.68-1.43,19.45-2.89,28.74-6.08,8.47-2.91,17.18-7.3,22.83-14.47,5-6.38,7-15.25,3-22.68a14.89,14.89,0,0,0-9-7.15A22,22,0,0,0,75.26,31c-7.94,2.38-20,9.19-18.15,19.11l2.42-.67a75.56,75.56,0,0,0-4-10.1,34.08,34.08,0,0,0-5-8C46.78,27,40.07,24.6,35.14,28.56c-5.24,4.2-4.9,11.5-3.32,17.37a62.25,62.25,0,0,0,8,17.59A108.29,108.29,0,0,0,53.54,80.26c1.14,1.16,2.91-.62,1.78-1.78Z"/></svg>