<svg id="圖層_1" data-name="圖層 1" xmlns="http://www.w3.org/2000/svg" viewBox="0 0 300 100"><defs><style>.cls-1{fill:#c30d23;}.cls-2{fill:#231815;}</style></defs><path class="cls-1" d="M56,77.69c-7.81-8-15.09-17-19.1-27.54-1.85-4.86-4.19-11.47-1.41-16.4a6.18,6.18,0,0,1,4.73-3.39,8.84,8.84,0,0,1,6.69,2.78,27.09,27.09,0,0,1,5,7.72,69.2,69.2,0,0,1,3.78,9.63c1,3.11,5.39,1.8,4.82-1.33-.63-3.47,2.08-6.53,4.51-8.62a30.38,30.38,0,0,1,9.72-5.45C81.15,32.86,89.21,32.8,93,39.47c3.44,6.14,1.48,13.73-2.81,18.88C85,64.57,77.39,68.49,69.87,71.11c-9.41,3.29-19.33,4.77-29.15,6.22A2.54,2.54,0,0,0,39,80.41a2.57,2.57,0,0,0,3.08,1.74c9.68-1.43,19.45-2.88,28.73-6.07,8.67-3,17.59-7.46,23.38-14.79,5.4-6.83,7.52-16.23,3.19-24.19a16.14,16.14,0,0,0-9.71-7.73,23.13,23.13,0,0,0-12.93.48c-8.71,2.61-21,9.93-19,20.64l4.82-1.33a78.06,78.06,0,0,0-4.09-10.41,35.08,35.08,0,0,0-5.16-8.27C46.94,25.62,39.49,23.36,34,27.76s-5.33,12.3-3.65,18.58a63.68,63.68,0,0,0,8.16,17.89,109.47,109.47,0,0,0,13.89,17c2.25,2.3,5.79-1.24,3.54-3.54Z"/><path class="cls-2" d="M112.92,72.46c0-.22.6-.43.72-.51a38,38,0,0,0,6-3.69A22.66,22.66,0,0,0,123,65.47a1.85,1.85,0,0,1,.42-.68c.47,0,4.49,2.33,4.49,3,0,.42-1.69.42-2,.46-.45.18-.88.38-1.31.6-1.06.46-2.16.93-3.26,1.35-1.36.51-7.12,2.42-8.3,2.42C113,72.67,112.92,72.58,112.92,72.46Zm14.24-31.14V36a6.55,6.55,0,0,0-.09-1.4c-.08-.43-.55-1.06-.55-1.4s.17-.25.38-.25c.55,0,4.87.84,4.87,1.73,0,.43-.8.76-1.14.89v5.76h2A37.3,37.3,0,0,0,135,36.24a8.8,8.8,0,0,0,.55-1.74c0-.12,0-.38.13-.38.68,0,4.19,2.25,4.19,2.88s-1.44.64-1.77.68c-1.4,1.19-2.76,2.41-4.11,3.64h6.6c.17-.21,1.23-1.52,1.61-1.52.68,0,3.56,2.84,3.56,3.47s-1.23.51-1.57.51a4.68,4.68,0,0,0-1.31.38c-.59.25-2.92,2-3,2s-.17-.17-.17-.25,1-3,1.1-3.26h-23l-.12,1.14c-.17,1.36-1.27,3-2.76,3a1.66,1.66,0,0,1-1.78-1.53v-.21c0-1,1.19-1.65,1.91-2.2a3.62,3.62,0,0,0,1.4-2.75c0-.13,0-.81.21-.81.55,0,.85,1.61.93,2Zm-8.48-6.65c1.08.19,2.16.43,3.22.72,1.44.43,2.59,1,2.59,2.59,0,1.22-.43,2.24-1.78,2.24a1.55,1.55,0,0,1-.89-.21,4.65,4.65,0,0,1-1.14-2.29,6,6,0,0,0-1.78-2.37c-.09-.08-.51-.42-.51-.51S118.6,34.67,118.68,34.67Zm.3,26.39V54.84a9.24,9.24,0,0,0-.08-1.49c-.09-.46-.47-1.1-.47-1.44,0-.12.13-.12.25-.12a32.8,32.8,0,0,1,4.54,1.44h12c.17-.22,1.23-1.66,1.61-1.66a17.12,17.12,0,0,1,2.79,1.74c.17.13.55.38.55.59s-1,1-1.18,1.15v5.38c0,1.44.17,2.92.21,4.36a18.72,18.72,0,0,1-3.77.93l.17-1.19H122.45V65c-1.22.3-2.41.47-3.64.72,0-1.52.19-3.13.19-4.66Zm5.21-10.42v.55a22.54,22.54,0,0,1-3.56.76c.09-1,.22-2,.22-3V46.66c0-.44,0-.87,0-1.31s-.34-1-.34-1.32c0-.12.13-.17.26-.17a1.58,1.58,0,0,1,.42.09c.43.13,3.39,1.14,3.48,1.14h8.93c.21-.29,1.1-1.56,1.57-1.56s3.18,1.82,3.18,2.2-.77.8-1,1v2.08c0,.76.08,1.57.13,2.33a20,20,0,0,1-3.52.64l.09-1.15Zm11.44,5.72V54.58H123l-.51.38v1.4Zm0,3.47V57.72H122.45v2.11Zm-13.18,3.31h13.18v-2H122.45ZM134,49.24V46.45h-9.66l-.13.21v2.58Zm-2.93,16.44a40.47,40.47,0,0,1,6.65,1.1c1.4.3,3.48.89,4.32,2.2a5.09,5.09,0,0,1,.89,2,1.73,1.73,0,0,1-1.69,1.73,2,2,0,0,1-1.4-.51c-1.69-1.35-2.67-2.71-4.66-4a19,19,0,0,0-3.47-1.78c-.17-.08-1-.38-1-.59s.29-.15.34-.15Z"/><path class="cls-2" d="M180.92,36.2c.25-.34,1.1-1.7,1.52-1.7A11.88,11.88,0,0,1,186.3,37c0,.43-.89,1-1.19,1.23v2.88c0,1.4.13,2.8.21,4.2a36.8,36.8,0,0,1-4,1.06l.08-1.53H163c-.09,2.37-.17,4.79-.3,7.2a41.64,41.64,0,0,1-1.06,9.24,24,24,0,0,1-3.43,6.94c-.29.47-2.07,3-2.62,3-.17-.08-.17-.17-.17-.25a10.06,10.06,0,0,1,.55-1.31A35.36,35.36,0,0,0,158.59,61a54.87,54.87,0,0,0,.64-10c0-3.77.13-7.54.13-11.35,0-1-.05-2.07-.09-3.13a6.42,6.42,0,0,0-.25-2,2.26,2.26,0,0,1-.17-.56c0-.25.38-.25.55-.25a42.65,42.65,0,0,1,5.17,2.42Zm-14,22.57-1.7-3.55a6,6,0,0,0,1.65-.51,21.49,21.49,0,0,0,3.6-2.92A8.67,8.67,0,0,0,171.68,50H165.5l-.72.55-1.53-2.33c.85.08,1.78.29,2.63.29h15.8c.21-.21,1.48-1.61,1.86-1.61a7.11,7.11,0,0,1,2.54,2.71.45.45,0,0,1-.46.39H175.49c.34.21,1.57.8,1.57,1.18s-1.06.51-1.31.55c-2.16,1.27-4.32,2.5-6.48,3.77,4-.12,8-.25,11.9-.46a8.7,8.7,0,0,0-2-2.59c-.13-.12-.34-.25-.34-.46a.26.26,0,0,1,.26-.26h0a9.14,9.14,0,0,1,1.36.38c2,.6,5.55,2,5.55,4.54a2.14,2.14,0,0,1-1.95,2.24c-1.52,0-2-1.78-2.33-3l-5.29.85c-1,.17-1.91.34-2.88.47.46.12,3.26.93,3.47,1.31a.64.64,0,0,1,.13.42c0,.17-.72.68-.89.77V62h4.4c.21-.22,1.4-1.66,1.78-1.66s2.67,2.25,2.67,2.76a.48.48,0,0,1-.47.42h-8.38v5.17h6.43c.34-.38,1.36-1.65,1.95-1.65s2.54,2.37,2.54,2.79c0,.26-.25.34-.46.34H163.93l-.76.55-1.48-2.33c.84.09,1.77.3,2.58.3h8.3V63.56h-5.84l-.77.55-1.48-2.29c.85.09,1.74.21,2.58.26h5.51V59.33a7,7,0,0,0-.25-1.87,28.75,28.75,0,0,0-5.42,1.31ZM181.38,43.4V37.64H164l-.72.46c-.12,1.74-.17,3.52-.21,5.3Z"/><path class="cls-2" d="M211.08,46.58c1,0,3.43,1.48,3.43,2.62,0,.68-.89,1.27-1.35,1.61a10,10,0,0,0-1.49,1.7,28.59,28.59,0,0,0-2.16,3.6c-.08.12-.21.33-.38.33s-.25-.21-.25-.33v-.17l1.27-6.61h-2.33l-.59.42v19a4.26,4.26,0,0,1-.34,1.61,1.81,1.81,0,0,1-1.44,1L203,72c-.34-1.69-.55-2.37-2.16-3.26-.17-.08-1.31-.59-1.31-.89s.21-.25.38-.25c.89,0,2,.29,3,.29S204,67.5,204,66.61V49.33h-3.86l-.76.51-1.57-2.29a22.66,22.66,0,0,0,2.33.21h9.79C210.23,47.38,210.53,46.58,211.08,46.58Zm-9.53-10.89h7.54c.17-.21.93-1.19,1.27-1.19.81,0,3.64,3,3.64,3.77s-1.1.89-1.69,1a18.33,18.33,0,0,0-3.6,2.58l-1.53,1.57a3.41,3.41,0,0,1,.85,2.12,1.73,1.73,0,0,1-1.53,1.89h-.16a1.51,1.51,0,0,1-1.4-.63c-.89-1.31-1-3.22-2-4.45-.22-.25-.47-.55-.72-.8-.09-.09-.39-.38-.39-.55a.25.25,0,0,1,.26-.22,13.75,13.75,0,0,1,4.23,1.74,35.91,35.91,0,0,0,2.76-5.38H201.5l-.94.55-1.39-2.24A19.35,19.35,0,0,0,201.55,35.69Zm11.56,36.43a8.72,8.72,0,0,1-1.22.51.21.21,0,0,1-.22-.2v0c0-.25.81-.89,1-1.06a38.74,38.74,0,0,0,3.9-4.1,12.48,12.48,0,0,0,1.69-2.33,7.4,7.4,0,0,0,.34-.89c0-.05.13-.47.21-.47.77,0,3.43,2.37,3.43,3.18,0,.42-1,.55-1.22.59A34.85,34.85,0,0,1,213.11,72.12Zm2.67-34.78-.63.47-1.7-2.21a21.76,21.76,0,0,0,2.42.22h9.95c.21-.26,1.23-1.74,1.74-1.74a2,2,0,0,1,1.1.68c.3.34,1.74,1.56,1.74,2.12a.47.47,0,0,1-.43.46h-7.16c.34.17,1.57.76,1.57,1.27s-.85.64-1.14.72c-.64,1.27-1.27,2.59-2,3.86h3.09c.17-.26.89-1.4,1.23-1.4.51,0,3.18,1.86,3.18,2.37,0,.3-.55.68-.77.85v14.1c0,1.32.09,2.71.13,4a17,17,0,0,1-3.56,1l.13-1.9h-6.78v1.73a15.12,15.12,0,0,1-3.34.68c.08-1.57.25-3.18.25-4.7v-14a16.39,16.39,0,0,0-.08-2,5.69,5.69,0,0,0-.22-1.22,2.14,2.14,0,0,1-.21-.6c0-.21.21-.29.38-.29a8.23,8.23,0,0,1,3.94,1.44h.72a57.39,57.39,0,0,0,.6-5.85Zm8.94,7.33h-6.44l-.34.34v3.81h6.78Zm0,10.21V50.3h-6.78v4.58Zm0,5.8V56.36h-6.78v4.32ZM227.56,72a2.21,2.21,0,0,1-1.91-1.4c-.68-1.44-1.1-3-1.9-4.36a12,12,0,0,0-1.06-1.66,2.19,2.19,0,0,1-.34-.46c0-.34,0-.34.25-.34a13.16,13.16,0,0,1,1.44.64c1.91,1,5.17,3,5.17,5.46C229.21,70.85,228.7,72,227.56,72Z"/><path class="cls-2" d="M244.68,65.59c0,1.44-.72,3.44-2.42,3.44a1.69,1.69,0,0,1-1.82-1.57,1.13,1.13,0,0,1,0-.26,4.22,4.22,0,0,1,1.06-2.45,7.15,7.15,0,0,0,1-3.69c0-.34-.09-.63-.09-1a.42.42,0,0,1,.17-.34C243.62,60.68,244.68,64.2,244.68,65.59Zm3.39-19.9a39.2,39.2,0,0,0,2.5-5.13A24.88,24.88,0,0,1,254,42.8c.25.22.55.47.55.81s-1.1.68-1.4.72a99,99,0,0,1-8.26,9.79l6.36-.34a4.6,4.6,0,0,0-.51-1.57,11.58,11.58,0,0,1-.85-1.44c0-.09.08-.13.21-.13,1.15,0,3.81,2.59,4.28,3.69a3.2,3.2,0,0,1,.34,1.39,1.83,1.83,0,0,1-1.57,1.91c-1.52,0-1.57-1.57-1.73-2.63-1.74.6-3.52,1.19-5.26,1.83a39.16,39.16,0,0,0-3.68,1.61l-2-4.16a12.45,12.45,0,0,0,2-1c1.14-.72,3.85-4.79,4.66-5.93-2,.63-3.56,1.1-5.42,1.9l-1.32-3.85a3.85,3.85,0,0,0,1.36-1c1.23-1.22,3.3-5.29,3.85-6.94l.81-2.37a7,7,0,0,0,.34-1.27,2.17,2.17,0,0,1,0-.51,26.85,26.85,0,0,1,3.94,2.07c.38.21.59.38.59.72s-1,.64-1.23.68c-1,1.44-2,2.88-3,4.36a54.91,54.91,0,0,1-3.69,4.62Zm-2.42,13.8c.51,0,1.74,1.27,2.12,1.66a7.94,7.94,0,0,1,1.82,2.37,3.81,3.81,0,0,1,.42,1.65,2.27,2.27,0,0,1-2,2.33c-1.27,0-1.73-1.14-1.73-2.24,0-.68.08-1.32.08-2a6.46,6.46,0,0,0-.29-2c-.09-.29-.56-1.44-.56-1.56S245.52,59.49,245.65,59.49Zm5,0c1.4.94,3.14,1.74,3.86,3.39a5.52,5.52,0,0,1,.55,1.95,2.13,2.13,0,0,1-1.87,2.25c-1.44,0-1.61-1.7-1.69-2.8a16.93,16.93,0,0,0-.3-2,5.36,5.36,0,0,0-.8-1.91,2.72,2.72,0,0,1-.47-.93.62.62,0,0,1,.76.05Zm9.58-16.09H267c.25-.34,1.18-1.82,1.61-1.82a15.83,15.83,0,0,1,3.05,1.9c.21.13.84.64.84.93,0,.51-1,1.11-1.39,1.36-.26,2.41-.3,4.87-.38,7.33-.09,1.78-.22,3.6-.39,5.42a59.22,59.22,0,0,1-1,8.18,12.6,12.6,0,0,1-.89,2.45c-1.19,2.37-3.6,3.31-6,3.9a4.27,4.27,0,0,0-3-3.86c-.3-.12-1-.21-1-.63,0-.17.26-.21.39-.21.93,0,1.86.17,2.75.17a5.83,5.83,0,0,0,2.12-.26,4.15,4.15,0,0,0,1.9-2.37c1.66-3.85,1.78-16.86,1.95-20.75h-8a44.18,44.18,0,0,1-4,6.31c-.17.21-.76,1.14-1.06,1.14-.13,0-.25,0-.25-.17s.38-1,.42-1.19c.68-1.94,1.52-4.44,2.16-6.48a55.49,55.49,0,0,0,2.46-11.39s.17-.17.25-.17c.51,0,4.91,1.82,4.91,2.58,0,.26-1.48,1-1.69,1.06-.78,2.17-1.54,4.41-2.43,6.57Zm-3,7.67A4.78,4.78,0,0,1,259,52c1.56,1.06,3.34,2.08,4,4a6.94,6.94,0,0,1,.34,1.86c0,1.06-.81,2.41-2,2.41a2.23,2.23,0,0,1-1.91-1.52,14.21,14.21,0,0,1-.34-1.82,10,10,0,0,0-1.82-5.34.51.51,0,0,1-.17-.34c0-.18.12-.18.2-.18Z"/><path class="cls-1" d="M53.76,79.24c-9.44-9.63-17.9-20.76-21.4-33.78a21.39,21.39,0,0,1-.75-9.84c.68-3.25,2.77-6.36,5.89-7.51s6.84-.11,9.5,2a23.3,23.3,0,0,1,6,8.06A71,71,0,0,1,57.65,49.6C56.5,44,61.43,39,66.29,36c7.5-4.68,17.77-7.51,24.8-2.16C96.67,38.09,98,46.38,95.57,53s-8,11.56-14,15.11c-12.19,7.19-26.6,9.4-40.6,11.46"/><path class="cls-1" d="M54.65,78.35C46.68,70.2,39.32,61,35.23,50.26,33.25,45,31,38.18,33.94,32.9a7.39,7.39,0,0,1,5.81-4A10.1,10.1,0,0,1,47.32,32a27.71,27.71,0,0,1,5.21,8,70.48,70.48,0,0,1,3.91,9.92,1.26,1.26,0,0,0,2.42-.67c-.72-4,2-7.4,4.83-9.83A32,32,0,0,1,74,33.67c7-2.42,15.6-2.21,19.62,5,3.72,6.65,1.65,14.79-3,20.38C85.27,65.4,77.46,69.4,69.75,72.09c-9.41,3.29-19.32,4.77-29.15,6.22-1.59.24-.91,2.66.67,2.42C51,79.3,60.72,77.85,70,74.66c8.47-2.91,17.18-7.3,22.84-14.47,5-6.38,7-15.25,3-22.68a14.93,14.93,0,0,0-9-7.16,21.92,21.92,0,0,0-12.27.48c-7.94,2.38-20,9.19-18.15,19.11l2.42-.67a76.22,76.22,0,0,0-4-10.11,34,34,0,0,0-5-8c-3.82-4.31-10.53-6.68-15.46-2.72-5.24,4.21-4.9,11.5-3.32,17.37a62.12,62.12,0,0,0,8,17.59A108.37,108.37,0,0,0,52.87,80.13c1.13,1.15,2.91-.62,1.78-1.78Z"/></svg>