<?xml version="1.0" encoding="utf-8"?>
<!-- Generator: Adobe Illustrator 24.1.1, SVG Export Plug-In . SVG Version: 6.00 Build 0)  -->
<svg version="1.1" id="圖層_2" xmlns="http://www.w3.org/2000/svg" xmlns:xlink="http://www.w3.org/1999/xlink" x="0px" y="0px"
	 viewBox="0 0 300 100" style="enable-background:new 0 0 300 100;" xml:space="preserve">
<style type="text/css">
	.st0{fill:#231815;}
	.st1{fill:#C30D23;}
</style>
<g>
	<g>
		<path class="st0" d="M150.5,69.1c0.3-0.3,1.8-1.9,2.3-1.9c0.4,0,0.8,0.4,1.1,0.6c0.4,0.4,2.1,1.7,2.1,2.4c0,0.4-0.3,0.6-0.6,0.6
			h-28.8l-0.7,0.7l-1.4-2.5c0.8,0,1.6,0.1,2.4,0.1h14.1c1.2-4.1,2.1-8.2,2.9-12.3c0.5-2.3,0.8-4.7,1-7c0-0.3,0-0.6,0-0.9
			c0-0.4-0.1-0.8-0.1-1.2c0-0.3,0.1-0.3,0.3-0.3c0.9,0,5.5,1.9,5.5,2.5c0,0.4-1,0.8-1.3,0.9c-1.2,4.2-2.5,8.2-4.2,12.2
			c-0.8,2-1.8,4-2.8,6H150.5z M151.2,42.3c0.4,0,0.8,0.4,1.1,0.6l1.5,1.4c0.3,0.2,0.6,0.6,0.6,0.9c0,0.4-0.3,0.6-0.7,0.6h-25
			l-0.6,0.7l-1.4-2.5c0.8,0,1.6,0.2,2.4,0.2H149C149.1,44,150.7,42.3,151.2,42.3z M131.7,49c0.5,0,1.7,1.1,2,1.4
			c2.8,2.5,4.9,5.8,4.9,9.7c0,1.4-0.5,3-2.2,3c-0.7,0-1.2-0.6-1.6-1.1c-0.7-1-0.8-4.8-0.9-6.3c-0.1-0.9-0.3-1.9-0.6-2.8
			c-0.2-0.6-0.4-1.3-0.7-1.8c-0.3-0.4-1.1-1.4-1.1-1.8C131.5,49.1,131.6,49,131.7,49z M136.8,32.3c0.2,0,0.3,0,0.5,0.1
			c2.9,1.3,6.5,3.1,6.5,6.7c0,1.4-0.6,2.6-2.1,2.6c-2.3,0-2.4-2.2-2.7-4c-0.1-0.8-0.3-1.7-0.7-2.5c-0.6-1.2-1.2-1.6-1.8-2.6
			C136.4,32.4,136.6,32.3,136.8,32.3z"/>
		<path class="st0" d="M178.9,33.7c0.6,0,2.4,1.4,2.9,1.7c0.1,0.1,0.6,0.4,0.6,0.7c0,0.3-0.7,0.9-1,1.1v11.4c0,1.1,0.1,2.3,0.2,3.5
			c-1.2,0.6-2.5,1-3.8,1.2l0.1-2.5h-5.2v10.1l5-2.3c-0.6-1.7-1.1-2.9-2.2-4.5c0-0.3,0.2-0.3,0.3-0.3c0.3,0,1.4,0.8,1.6,1
			c0.7,0.5,1.3,1.1,1.9,1.7c1.5,1.4,3,3.6,3,5.7c0,1.3-0.5,2.8-2,2.8c-1.6,0-1.9-1.4-2.1-2.8c-0.1-0.8-0.1-1.7-0.3-2.5
			c-1.4,1.1-2.9,2.3-4.1,3.6c-0.9,1-1.8,2.1-2.6,3.2l-3-4.5c0.7-0.6,1.1-1.4,1.1-2.3v-23c0-0.6,0-1.3-0.1-1.9
			c-0.1-0.5-0.5-0.9-0.5-1.3c0-0.1,0.1-0.2,0.2-0.2c0.9,0,3.9,1.5,4.8,1.9h3.6C177.6,35.1,178.6,33.7,178.9,33.7z M178,42.2v-5.4
			h-4.8l-0.4,0.4v5H178z M178,49.3v-5.6h-5.2v5.6H178z M184.8,35.3c-0.1-0.5-0.4-1-0.4-1.4c0-0.2,0-0.3,0.2-0.3c0.6,0,4,1.6,4.5,1.8
			h3.1c0.2-0.2,1.3-1.5,1.7-1.5c0.6,0,2.3,1.4,2.7,1.7c0.2,0.1,0.7,0.5,0.7,0.8c0,0.5-0.7,0.8-1.1,1.1v24.4c0,0.5,0,1.1-0.2,1.6
			c-0.3,1.3-3.7,1.9-4.8,1.9c-0.1-0.8-0.1-1.3-0.5-2.1c-0.5-1.1-2.4-1.6-2.4-1.9c0-0.1,0.1-0.3,0.3-0.3c1.1,0.1,2.2,0.3,3.3,0.3
			c0.7,0,0.8-0.5,0.8-1.1V37.1h-4.2l-0.2,0.3v28.2c0,1.8,0.2,3.6,0.3,5.4c-1.4,0.5-2.6,0.8-4.1,1c0.1-1.9,0.3-3.8,0.3-5.6l0-29.7
			C184.8,36.3,184.8,35.8,184.8,35.3z"/>
		<path class="st0" d="M238.5,58c-1.1,0.2-2.5,0.3-5.5,0.3c0.6,0.2,0.9,0.3,0.9,0.5c0,0.3-0.4,0.5-0.7,0.6l0,1h2.9
			c0.2-0.2,1.6-1.8,1.8-1.8c0.3,0,1.9,1.7,2.2,1.9c0.2,0.2,0.5,0.6,0.5,0.9s-0.3,0.5-0.6,0.5h-6.8v7.7c0,0.5-0.1,1-0.3,1.4
			c-0.5,0.8-3.3,1.1-4.4,1.1c0-0.3-0.1-0.6-0.2-1c-0.2-0.8-1.3-1.7-2-1.9c-0.3-0.1-1.7-0.6-1.7-0.8c0-0.3,0.2-0.4,0.4-0.3l1.1,0
			c0.9,0,1.9,0.2,2.8,0.2c1,0,1-0.6,1-1.5v-5h-18.4l-0.8,0.6l-1.7-2.3c1,0,2.1,0.2,3.1,0.2h17.7v-1.6l-0.3-0.6
			c-5.7-0.4-11.9-1.3-13.6-3.3c-2.3,1.8-2.6,1.9-6.4,3.4l-0.2-0.4c3.5-2.5,6.6-5.8,7.1-9.2l-1.5,0c-0.3,0.3-1.8,0.8-2.2,0.6
			c-0.4-0.2-1.9-1.4-1.7-2l1.3-1c0.7-1.2,1.8-3,2.2-4.1c-1,0-1.4,0-2.4,0c-0.6,0-1.1,0.4-1.3,0.5l-0.9-1.9l1.9,0.2l2.7,0l1.5-1.4
			c0.3-0.3,2.2,1.6,2.7,2.2c0.6,0.6-0.8,1.1-1.2,1.4c-0.4,0.9-1.7,2.8-2.6,4.3h1.7l1.4-1.1c0.2-0.2,2.4,2.2,2.5,2.7
			c0.3,0.4-0.8,0.8-1.1,1.3c-0.6,1.2-2,3-3.1,4.1c3.4,2,18,0.9,21.9,0.2c0.9-0.2,2.2-0.5,3-0.6c0.4,0,0.5,0.3,0,0.6
			C239.9,55.2,238.9,56.3,238.5,58z M214.8,38.5c-0.4,0-0.8-0.1-1.1-0.4c-0.9-0.8-0.5-2.5-1.4-3.9c-0.3-0.4-0.6-1-1.1-1.3
			c-0.1,0-0.2-0.1-0.2-0.3c0-0.1,0.3-0.2,0.4-0.2c0.5,0,1,0.3,1.4,0.4c0.6,0.2,1.4,0.6,2,0.9c1.1,0.5,1.9,1.7,1.9,2.8
			C216.6,37.6,215.8,38.5,214.8,38.5z M221.3,68.4c-0.5,0-1-0.2-1.4-0.6c-0.6-0.7-0.5-1.8-0.7-2.6c-0.2-0.6-0.7-1.6-1.1-2.1
			c-0.2-0.2-0.4-0.4-0.5-0.7c0-0.2,0.1-0.2,0.2-0.2c0.4,0,0.9,0.2,1.3,0.3c1.7,0.5,3.9,1.8,3.9,3.9C223,67.4,222.4,68.4,221.3,68.4z
			 M240.3,39.6h-10c0.1,0.2,0.2,0.4,0.2,0.6c0,0.3-0.6,0.3-0.8,0.3l-1.6,1.7h4.9c0.3-0.3,0.9-1.3,1.4-1.3c0.5,0,2.6,1.4,3,1.7
			c0.2,0.1,0.4,0.3,0.4,0.5c0,0.4-0.8,0.8-1.1,1.1v5.4c0,1.1,0.2,2.7,0.3,3.8c-1.1,0.4-2.4,0.7-3.6,0.9l0.1-1.6h-8.3v1.3
			c-1.1,0.3-2.3,0.5-3.5,0.6c0.1-1.3,0.3-3.2,0.3-4.5v-5.7c0-0.6,0-1.2-0.1-1.8c0-0.4-0.3-0.8-0.3-1.1c0-0.2,0-0.3,0.3-0.3
			c1.2,0,2.9,1.3,4.5,1.1c0.2-0.9,0.3-1.8,0.6-2.7h-5.9l-0.8,0.6l-1.6-2.2c1,0,2.1,0.2,3.1,0.2h8.8c0.6-1.3,1.1-2.5,1.4-3.9
			c0.2-0.6,0.4-1.2,0.4-1.7c0-0.1,0-0.3,0.1-0.3c0,0,0.1,0,0.2,0c0.8,0,4.1,1.5,4.1,2.2c0,0.4-1,0.6-1.2,0.6l-3.3,3.2h4.2
			c0.3-0.3,1.4-1.9,1.7-1.9c0.5,0,2.2,1.9,2.5,2.2c0.2,0.2,0.4,0.4,0.4,0.7C241,39.5,240.7,39.6,240.3,39.6z M226.6,37.6
			c-2.1,0-1.4-2.5-2.8-4c-0.2-0.2-1.2-1.1-1.2-1.4c0-0.1,0.2-0.2,0.3-0.2c0.3,0,0.8,0.1,1.1,0.2c1.3,0.3,4.3,1,4.3,2.7v0.3
			C228.3,36.5,228.1,37.6,226.6,37.6z M233.5,43.7h-8l-0.3,0.3v1.3h8.3V43.7z M233.5,46.6h-8.3v1.7h8.3V46.6z M233.5,49.7h-8.3v1.7
			h8.3V49.7z"/>
		<path class="st0" d="M265.3,52.6V67c0,3-1.7,3.8-4.4,4.2c-0.2-1.2-0.6-2.5-1.7-3c-0.3-0.1-1.2-0.4-1.2-0.8c0-0.1,0.3-0.2,0.3-0.2
			c0.9,0,1.7,0.2,2.6,0.2c0.8,0,1.3-0.2,1.3-1.1V52.6c-1.6,0-2.9,0-4.6,0c-0.1,3.5-0.1,8.5-1.4,11.7c-0.3,0.9-0.8,1.9-1.4,2.7
			c-0.6,1-1.4,1.9-2.2,2.7c-0.2,0.2-1.2,1.2-1.4,1.2c-0.2-0.5,0.4-1.4,0.6-1.6c0.7-1.4,1.3-2.8,1.7-4.3c0.8-3.3,1.1-7.3,1.1-10.8
			v-1.7h-1.2l-0.6,0.5l-1.4-2.1c1,0.1,2.4,0.3,3.3,0.3v-9.4c0-1,0-2.1-0.3-3.1c-0.1-0.3-0.4-0.9-0.4-1.2c0-0.3,0.2-0.3,0.4-0.3
			c0.6,0,2.8,1.1,3.4,1.5c0.8-2,1.4-4.3,1.4-6.5c0-0.2,0.1-0.3,0.3-0.3c0.5,0,4.2,1.1,4.2,1.8c0,0.5-0.9,0.8-1.3,1
			c-0.9,1.5-1.9,2.9-2.9,4.3h2.5c0.3-0.3,1.1-1.4,1.7-1.4c0.6,0,1.9,1.1,2.3,1.4c0.2,0.2,0.7,0.6,0.7,0.9c0,0.5-0.8,0.9-1.1,1.1
			v10.3l1.3-1.3c0.3-0.3,0.4-0.5,0.7,0l1.7,1.9c0.4,0.4,0.3,0.8-0.3,0.8H265.3z M262.2,40.4h-3.9l-0.8,0.6l0,10.2h4.7V40.4z
			 M259.9,61.2c-0.9,0-1.4-0.8-1.4-1.6c0-0.7,0.2-1.4,0.2-2.1c0-0.5-0.2-1.5-0.3-1.9c0-0.2-0.2-0.5-0.2-0.7c0-0.1,0-0.3,0.1-0.3
			c0.2,0,0.4,0.2,0.6,0.3l0.7,0.5c0.2,0.1,0.8,0.8,0.9,1.1c0.6,0.6,1,1.7,1,2.6C261.5,60,260.9,61.2,259.9,61.2z M259.9,49
			c-0.8,0-1.3-0.8-1.3-1.5c0-0.6,0.1-1.2,0.1-1.8c0-0.9-0.2-1.5-0.5-2.3c0-0.2,0-0.3,0.1-0.3c0.5,0,2.1,1.6,2.5,2
			c0.5,0.5,0.8,1.1,0.8,1.7C261.6,47.7,261,49,259.9,49z M284.3,69.5c-0.7,1.8-3.2,1.8-4.8,1.8c-0.8,0-2.6,0-3.3-0.4
			c-0.7-0.3-0.8-1.2-0.8-1.9V50.4h-2.1l-0.6,0.7c-0.1,3.6-0.3,7.1-0.7,10.6c-0.2,1.4-0.6,2.8-1.2,4c-1,1.9-2.3,3.7-4,5
			c-0.3,0.2-1.3,1.1-1.5,1.1c-0.1-0.4,0.6-1.4,0.7-1.6c0.8-1.3,1.4-2.8,1.9-4.3c1.1-3.9,1.5-7.3,1.5-11.3v-3.1c0-0.8,0-2.2-0.3-2.9
			c-0.1-0.3-0.5-1-0.5-1.2c0-0.3,0.2-0.3,0.4-0.3c0.7,0,3.5,1.3,4.3,1.8h1.7c0.3-0.3,1-1.6,1.5-1.6c0.6,0,2,1,2.4,1.3
			c0.3,0.2,0.8,0.6,0.8,1c0,0.5-0.8,1-1.2,1.2v15.8c0,1,0.5,0.9,1.3,0.9c0.4,0,1.3,0,1.6-0.3c0.5-0.4,1.2-4,1.3-4.3
			c0-0.1,0.1-0.4,0.3-0.4c0.2,0,0.2,0.3,0.2,0.4c-0.1,0.9-0.2,1.8-0.2,2.7c0,1.4,0.6,1.9,1.8,2.4C284.6,68.6,284.5,69,284.3,69.5z
			 M283.5,43h-15.3l-0.6,0.5l-1.6-2.1c0.9,0.1,2,0.3,2.9,0.3h10c0.3-0.3,1.5-2,2.2-2c0.3,0,0.8,0.4,1,0.6c0.3,0.3,1.9,1.7,1.9,2.3
			C284.1,42.9,283.8,43,283.5,43z M274.5,40.1c-0.6,0-1-0.2-1.4-0.6c-0.6-0.7-0.5-2.5-0.7-3.4c-0.1-0.4-0.3-0.8-0.4-1.1
			c-0.3-0.6-0.6-1.3-1.1-1.8c-0.1-0.1-0.2-0.2-0.2-0.3c0-0.1,0.1-0.1,0.2-0.1c0.2,0,0.9,0.2,1.1,0.3c1.9,0.9,4.6,2.6,4.6,5
			C276.6,39.2,275.6,40.1,274.5,40.1z"/>
	</g>
</g>
<g>
	<g>
		<path class="st1" d="M56,77c-7.8-8-15.1-17-19.1-27.5C35,44.6,32.7,38,35.4,33c1-1.8,2.6-3.2,4.7-3.4c2.5-0.2,4.9,1.1,6.7,2.8
			c2.2,2.2,3.7,5,5,7.7c1.5,3.1,2.8,6.3,3.8,9.6c1,3.1,5.4,1.8,4.8-1.3c-0.6-3.5,2.1-6.5,4.5-8.6c2.8-2.4,6.3-4.2,9.7-5.4
			c6.4-2.2,14.5-2.3,18.2,4.4c3.4,6.1,1.5,13.7-2.8,18.9c-5.2,6.2-12.8,10.1-20.3,12.8c-9.4,3.3-19.3,4.8-29.1,6.2
			c-1.3,0.2-2.1,1.9-1.7,3.1c0.4,1.4,1.7,1.9,3.1,1.7c9.7-1.4,19.4-2.9,28.7-6.1c8.7-3,17.6-7.5,23.4-14.8
			c5.4-6.8,7.5-16.2,3.2-24.2c-2.1-3.8-5.6-6.5-9.7-7.7c-4.2-1.2-8.8-0.8-12.9,0.5c-8.7,2.6-21,9.9-19,20.6c1.6-0.4,3.2-0.9,4.8-1.3
			c-1.1-3.6-2.5-7-4.1-10.4c-1.4-2.9-3-5.8-5.2-8.3C46.9,24.9,39.5,22.6,34,27c-5.6,4.5-5.3,12.3-3.6,18.6C32.1,52,35,58,38.5,63.5
			c4,6.2,8.8,11.8,13.9,17C54.7,82.8,58.2,79.3,56,77L56,77z"/>
	</g>
</g>
</svg>
