<?xml version="1.0" encoding="utf-8"?>
<!-- Generator: Adobe Illustrator 24.1.1, SVG Export Plug-In . SVG Version: 6.00 Build 0)  -->
<svg version="1.1" id="圖層_1" xmlns="http://www.w3.org/2000/svg" xmlns:xlink="http://www.w3.org/1999/xlink" x="0px" y="0px"
	 viewBox="0 0 400 100" style="enable-background:new 0 0 400 100;" xml:space="preserve">
<style type="text/css">
	.st0{fill:#C30D23;}
	.st1{fill:#231815;}
</style>
<g>
	<g>
		<path class="st0" d="M62.9,77.4c-7.8-8-15.1-17-19.1-27.5C42,45,39.6,38.4,42.4,33.5c1-1.8,2.6-3.2,4.7-3.4
			c2.5-0.2,4.9,1.1,6.7,2.8c2.2,2.2,3.7,5,5,7.7c1.5,3.1,2.8,6.3,3.8,9.6c1,3.1,5.4,1.8,4.8-1.3c-0.6-3.5,2.1-6.5,4.5-8.6
			c2.8-2.4,6.3-4.2,9.7-5.4c6.4-2.2,14.5-2.3,18.2,4.4c3.4,6.1,1.5,13.7-2.8,18.9c-5.2,6.2-12.8,10.1-20.3,12.8
			c-9.4,3.3-19.3,4.8-29.1,6.2c-1.3,0.2-2.1,1.9-1.7,3.1c0.4,1.4,1.7,1.9,3.1,1.7c9.7-1.4,19.4-2.9,28.7-6.1
			c8.7-3,17.6-7.5,23.4-14.8c5.4-6.8,7.5-16.2,3.2-24.2c-2.1-3.8-5.6-6.5-9.7-7.7c-4.2-1.2-8.8-0.8-12.9,0.5
			c-8.7,2.6-21,9.9-19,20.6c1.6-0.4,3.2-0.9,4.8-1.3c-1.1-3.6-2.5-7-4.1-10.4c-1.4-2.9-3-5.8-5.2-8.3c-4.3-4.9-11.8-7.1-17.2-2.7
			c-5.6,4.5-5.3,12.3-3.6,18.6c1.7,6.3,4.6,12.4,8.2,17.9c4,6.2,8.8,11.8,13.9,17C61.6,83.3,65.2,79.7,62.9,77.4L62.9,77.4z"/>
	</g>
</g>
<g>
	<g>
		<path class="st1" d="M147.8,71.4c-2.4,0.6-12.8,0-16.1-0.8c-2.2-0.6-5.8-2.1-6.8-4.1c-1.4,1.9-2.8,3.7-6.5,5.2l-0.2-0.4
			c4.3-3.2,6.2-9.3,6.8-13h-2.2c-0.3,0.2-1.3,1.3-1.7,1.1c-0.4-0.2-2.5-1.9-2.3-2.5l1.3-1c0.7-1.2,2.3-4.2,3.2-7c-1.1,0-2.1,0-3.1,0
			c-0.6,0-1.1,0.4-1.4,0.5l-0.9-2l1.7,0.3l3.6,0l1.6-1.4c0.3-0.3,2.1,1.6,2.7,2.1c0.6,0.6-0.8,1.1-1.2,1.4c-0.9,2.4-2.3,5.5-3.4,7.2
			h1.7l1.6-1.5c0.2-0.2,2.8,2.2,3,2.7c0.3,0.4-0.8,0.8-1.1,1.3c-1,2.8-1.6,4.5-2.8,6.4c0.9,1.1,5,1.7,7,1.9c3.9,0.4,11.2,0.3,15.9,0
			c0.9,0,1.8-0.3,2.5-0.3c0.4,0,0.5,0.3,0.1,0.6C149.2,68.7,148.2,69.8,147.8,71.4z M120.4,35.5c1.1,0.3,2.8,0.8,3.7,1.3
			c1.4,0.7,2.5,2,2.5,3.7c0,1.3-1,2.3-2.2,2.4c-1.6,0.1-1.8-1.1-1.9-2.3c-0.2-1.8-0.9-3.5-2.4-4.8C120,35.6,120.3,35.5,120.4,35.5z
			 M142,40.7c0.2-0.2,0.9-1.3,1.2-1.3c0.5,0,2.5,1.4,2.8,1.5c0.2,0.1,0.8,0.5,0.8,0.7c0,0.4-0.8,0.8-1.1,1c0,2.6,0,5.2,0.2,7.8
			c-1.3,0.4-2.5,0.8-3.8,1.2l0.2-2h-8.1v4.7h8.1c0.2-0.2,1.2-1.4,1.6-1.4c0.5,0,2.4,1.4,2.7,1.5s0.9,0.5,0.9,0.9c0,0.3-0.8,0.8-1,1
			v5.5c0,1,0.1,1.9,0.1,2.9c-1.3,0.6-2.6,1-3.9,1.5l0.2-2.3h-8.6v1.4c-1.2,0.3-2.4,0.7-3.6,0.9c0-1.5,0.2-3,0.2-4.4V41.6
			c0-0.6-0.2-1.4-0.4-2c0-0.1-0.1-0.3-0.1-0.4c0-0.2,0-0.3,0.3-0.3c0.7,0,3.5,1.4,3.9,1.7c0.8-1.8,2.5-5.6,2.2-7.7
			c0-0.1,0.2-0.1,0.3-0.1c0.4,0,2.8,1.2,3.2,1.4c0.2,0.1,1.7,0.8,1.7,1.1c0,0.4-1.2,0.7-1.5,0.8c-1.4,1.7-3.1,3.2-4.7,4.7H142z
			 M142.3,48.1v-5.9h-7.5l-0.6,0.5v5.4H142.3z M142.8,55.9h-8.6v6.7h8.6V55.9z"/>
		<path class="st1" d="M161.9,55.9c0-0.6,0-1.1-0.2-1.6c-0.1-0.4-0.4-0.8-0.4-1.2c0-0.2,0.2-0.2,0.4-0.2c0.8,0,4.1,1.1,4.1,1.9
			c0,0.5-0.7,0.8-1.1,0.9v10l1.6-0.4l0-12c0-0.6,0-1-0.1-1.6c-0.1-0.4-0.4-0.8-0.4-1.2c0-0.2,0.3-0.3,0.5-0.3c0.7,0,4.1,1.2,4.1,1.8
			c0,0.4-0.7,0.8-1,1v3.4h0.2c0.1-0.1,1.4-1.7,1.7-1.7c0.5,0,1.7,1.7,1.9,1.9c0.1,0.2,0.4,0.5,0.4,0.8s-0.4,0.3-0.6,0.3h-3.6v6.5
			c0.7-0.2,2.6-0.8,3-0.8c0.1,0,0.3,0,0.3,0.2c0,0.3-0.8,0.7-1,0.8c-2.9,1.9-5.9,3.7-8.6,5.9l-2.3-3.8l1.2-0.3V55.9z M172.2,45
			c0,1.3,0.1,2.7,0.2,4c-1.1,0.6-2.3,0.9-3.6,1.1L169,49h-3.6v1c-1,0.5-2.1,0.8-3.2,0.9c0.1-1.3,0.3-2.6,0.3-3.9v-7.7
			c0-0.6,0-1.3-0.1-1.9c0-0.6-0.5-1.4-0.5-1.6c0-0.2,0.2-0.2,0.4-0.2c0.8,0,2.8,1.1,3.6,1.5h2.9c0.2-0.3,0.7-1.4,1.2-1.4
			c0.5,0,1.9,0.9,2.3,1.1c0.3,0.2,1,0.6,1,0.9c0,0.4-0.7,0.9-1,1.1V45z M169,38.6h-3.2l-0.4,0.5v8.5h3.6V38.6z M175.8,50.6
			c0.5,0.3,0.9,0.5,1.4,0.6c0.3,0.1,0.6,0.3,0.6,0.6c0,0.4-0.7,0.8-1,0.9v15.7c0,0.9,0.1,1.9,0.2,2.8c-1.1,0.5-2.2,0.8-3.3,1.2
			c0.1-1.2,0.3-2.5,0.3-3.6V52.8c-0.2,0.2-1.6,1.6-1.9,1.6c-0.1,0-0.2-0.1-0.2-0.2c0-0.2,0.5-0.9,0.6-1.1c0.6-1.2,1.1-2.5,1.7-3.8
			c0.6-1.5,1.1-2.9,1.5-4.4c0.1-0.6,0.2-1.2,0.3-1.7c0-0.1,0.1-0.2,0.2-0.2c0,0,1.5,0.6,1.6,0.6c0.2,0.1,2,1.1,2,1.6
			c0,0.4-0.8,0.6-1,0.7C177.7,47.5,176.8,49.1,175.8,50.6z M174.6,43.8c-0.5,0.6-0.3,0.5-0.9,1.1c-0.1,0.1-0.8,1-1,1
			s-0.3-0.1-0.3-0.3c0-0.2,0.6-1.2,0.6-1.4c1.1-2.2,1.6-4.1,2.2-6.4c0.2-0.8,0.3-1.7,0.3-2.5c0.1-0.6,0.1-1.8,0.3-2.3
			c0.6,0,3.9,1.6,4.4,1.9c0.1,0.1,0.3,0.3,0.3,0.5c0,0.2-1.1,0.6-1.2,0.7C177.8,39.1,176.6,41.2,174.6,43.8z M181.6,64.1
			c0.6,1.1,1.4,1.9,2.4,2.8V52.3c0-0.3,0-0.6-0.1-0.9c0-0.4-0.3-0.9-0.3-1.2c0-0.1,0.1-0.2,0.2-0.2c0.6,0,4.1,1.1,4.1,1.7
			c0,0.3-0.8,0.8-1.1,1v3.8h1.2c0.2-0.2,1.5-1.8,1.9-1.8c0.4,0,2.8,2.3,2.8,2.9c0,0.3-0.3,0.5-0.6,0.5h-5.3v10
			c1.1,0.2,2.2,0.3,3.3,0.3c1,0,2-0.1,3-0.2c0.1,0,0.3,0,0.3,0.2c0,0.1-0.1,0.3-0.2,0.3c-0.8,0.8-1.2,1.1-1.4,1.5
			c-0.3,0.4-0.4,0.9-0.8,1.9c-2.1-0.1-5.6-0.4-7.2-2.1c-0.8-0.9-1.7-2.1-2.1-3.2l-0.5-1.4c-0.6,1.7-1.1,3-2.1,4.4
			c-0.3,0.4-0.6,0.9-1,1.3c-0.2,0.2-0.6,0.7-0.9,0.7c-0.1-0.3,0.3-1.1,0.4-1.4c0.6-1.3,0.8-2.6,1.1-4c0.5-3,1-6,1-9
			c0-0.7,0-1.3-0.1-2c-0.1-0.3-0.1-0.6-0.1-0.8c0-0.1,0-0.2,0-0.3c0.1,0,0.2,0,0.3,0c0.6,0,4,1.3,4,1.8c0,0.3-0.9,0.7-1.1,0.8
			C182.3,59.4,182.1,61.7,181.6,64.1z M183.1,42.9c1.3,0.8,2.4,1.7,2.4,3.4c0,0.8-0.5,1.5-1.3,1.5c-1.4,0-1-1.5-1-2.4
			c0-0.8-0.1-1.1-0.3-1.9c-1,2.3-2.2,4.4-3.8,6.4c-0.1,0.1-0.3,0.3-0.4,0.3c-0.1,0-0.2-0.2-0.2-0.3c0,0,0.1-0.3,0.1-0.3
			c0.4-1.2,0.9-2.4,1.3-3.6c0.7-2.3,1.1-4.7,1.5-7.1c0.2-1.1,0.4-2.3,0.4-3.4c0-0.6,0-1.1,0-1.6c0-0.2,0-0.4,0.2-0.4
			c0.5,0,4.3,1.7,4.3,2c0,0.3-0.9,0.6-1.1,0.6C184.6,38.5,183.9,40.7,183.1,42.9z M192.5,46.6c0,1.1-0.3,2.4-1.7,2.4
			c-0.6,0-1-0.2-1.1-0.8c-0.4-1.9,0-2.8-0.8-4.9c-0.8,2-1.8,3.9-2.9,5.8c-0.1,0.1-0.4,0.7-0.6,0.7c-0.1,0-0.2-0.2-0.2-0.3
			c0-0.1,0.8-3,0.9-3.6c0.4-1.8,0.7-3.6,1-5.5c0.2-1.3,0.4-2.6,0.4-3.9l0-2c0,0,0-0.1,0-0.2c0.1,0,0.2,0,0.3,0c0,0,1.4,0.4,1.4,0.4
			c0.5,0.1,2.5,0.6,2.5,1.2c0,0.3-0.8,0.7-0.9,0.8c-0.5,1.9-1,3.9-1.7,5.8C190.5,43.5,192.5,44.8,192.5,46.6z"/>
		<path class="st1" d="M220.8,45.4h-0.7c-0.2,0-0.3-0.2-0.3-0.3c-0.2-1.1-0.6-2.8-0.9-3.7s-0.8-1.6-1.4-2.1
			c-0.8-0.6-1.9-0.8-3.1-0.8H209c-1.2,0-2.2,0.9-2.2,2.2v10h5.6c1.4,0,2.4-1.2,2.4-2.4v-2c0-0.3,0.2-0.4,0.4-0.4h0.6
			c0.2,0,0.4,0.2,0.4,0.4v11.2c0,0.2-0.2,0.4-0.4,0.4h-0.6c-0.2,0-0.4-0.2-0.4-0.4v-2c0-1.7-1-3.1-2.8-3.1h-5.2v12.2
			c0,0.9,0.9,1.6,1.7,1.6h1.3c0.3,0,0.4,0.2,0.4,0.4v0.8c0,0.3-0.2,0.4-0.4,0.4h-10c-0.2,0-0.4-0.2-0.4-0.4v-0.8
			c0-0.2,0.2-0.4,0.4-0.4h1.3c0.9,0,1.8-0.9,1.8-1.9V40.9c0-1.4-0.5-2.5-2.1-2.5h-1.1c-0.1,0-0.4-0.2-0.4-0.4v-0.8
			c0-0.2,0.2-0.4,0.5-0.4h20.6l0.7,8.3C221.1,45.2,221,45.4,220.8,45.4z"/>
		<path class="st1" d="M243.6,66.2c-1.6,1.1-3.6,1.7-5.9,1.7h-14.4c-0.2,0-0.5-0.2-0.5-0.5v-0.9c0-0.2,0.3-0.4,0.5-0.4h1
			c0.9,0,1.8-0.8,1.8-1.7l0-24.7c0-0.5-0.7-1.1-1.1-1.1h-1.5c-0.3,0-0.5-0.3-0.5-0.6v-0.8c0-0.2,0.3-0.4,0.5-0.4h14.4
			c2.1,0,4.1,0.7,5.5,1.9c1.4,1.1,2.3,2.8,2.5,4.9c0.1,1.7-0.3,3.3-1.2,4.6c-0.9,1.2-2.2,2.1-4,2.7c1.4,0.3,2.8,1,3.9,2
			c0.9,0.9,1.7,1.9,2,3.2c0.5,1.9,0.6,4.1,0,6.1C245.9,63.9,244.9,65.3,243.6,66.2z M241.3,41.8c-0.4-1.2-1.2-2-2.4-2.5
			c-1.3-0.6-3-0.8-4.6-0.8h-2.5c-0.9,0-1.7,0.8-1.7,1.7v10.1h4.6c1.6,0,3.1-0.3,4.4-1c1.1-0.6,2-1.6,2.5-3
			C241.8,44.8,241.8,43.2,241.3,41.8z M240.3,53.4c-1.3-0.9-3-1.3-4.8-1.3H230v12.4c0,0.8,0.7,1.5,1.6,1.5h3.2c1.6,0,3.3-0.3,4.7-1
			c1.3-0.7,2.3-1.7,2.8-3.2c0.5-1.7,0.5-3.7,0-5.4C242.1,55.1,241.3,54.1,240.3,53.4z"/>
		<path class="st1" d="M255,50.9l-0.8,0.6l-1.2-2.3c0.8,0.1,1.6,0.2,2.3,0.2h3.3V36.7c0-1,0.1-2.2-0.3-3.1c0-0.3-0.3-0.7-0.3-1
			c0-0.2,0-0.3,0.3-0.3c0.5,0,2.8,0.9,3.4,1.1c0.3,0.1,1.6,0.6,1.6,1c0,0.4-1.1,1.1-1.4,1.2v9.8c1-2.6,2.2-5.3,2.4-8.1
			c0.1,0,0.2,0,0.3,0c0.6,0,3.7,1.9,3.7,2.5c0,0.3-1,0.5-1.2,0.6c-1.1,1.7-2.2,3.4-3.3,5l-1.8,2.4v1.9c0.3-0.3,1.2-1.4,1.6-1.4
			c0.4,0,2.4,1.9,2.4,2.4c0,0.4-0.4,0.5-0.7,0.5h-3.3V53c1.9,0.8,3.8,1.7,4.3,3.8c0,0.3,0.1,0.5,0.1,0.7c0,0.9-0.5,1.9-1.5,1.9
			c-0.4,0-0.8-0.2-1.1-0.5c-0.9-0.8-0.6-2.4-0.8-3.5c-0.2-0.8-0.5-1.1-1-1.8v13.9c0,1.3,0.2,2.7,0.3,4c-1.3,0.4-2.6,0.6-3.9,0.8
			c0.1-1.5,0.3-3.1,0.3-4.6c0.1-2.9,0-5.8,0-8.6c-1.5,2.3-3,4.7-5,6.6c-0.1,0.2-0.6,0.7-0.8,0.7c-0.1,0-0.2-0.1-0.2-0.3
			c0-0.2,0.9-2,1-2.3c0.9-1.9,1.6-3.9,2.3-5.9c0.8-2.3,1.7-4.6,2.3-6.9H255z M257.4,41.4c0.4,0.6,0.6,1.4,0.6,2.2
			c0,1-0.5,2.5-1.7,2.5s-1.7-1.2-1.7-2.2c0-0.8,0.1-1.7,0.1-2.6c0-0.7-0.1-1.4-0.3-2.1c-0.1-0.3-0.5-1.4-0.5-1.6
			C254.7,37.5,256.9,40.7,257.4,41.4z M277.1,70.3c-1.4,1.3-2.5,1.7-4.4,2.2c-0.1-1.2-0.2-2.2-1.1-3.1c-0.5-0.6-0.6-0.6-1.3-1
			c-0.1,0-0.3-0.2-0.3-0.3c0-0.2,0.3-0.3,0.4-0.3c0.8,0,1.5,0.2,2.3,0.2c0.4,0,0.9,0,1.4-0.2c0.6-0.3,0.9-0.8,1.2-1.4
			c1.3-2.6,1.5-9.9,1.7-12.9h-4c0.2,0.1,1.2,0.7,1.2,0.9c0,0.3-0.7,0.8-0.8,0.9c-0.4,2.2-0.7,4.5-1.3,6.7c-0.7,2.6-1.8,4.3-3.8,6.3
			c-0.8,0.8-1.5,1.5-2.3,2.1c-0.5,0.3-3,2-3.3,2c-0.1,0-0.2-0.1-0.2-0.2c0-0.2,0.5-0.7,0.6-0.8c1.5-1.7,3.3-3.8,4.2-5.9
			c1.7-3.8,2.4-7.8,2.7-11.9h-0.7l-0.8,0.6l-1.2-2.3c0.8,0.1,1.6,0.2,2.3,0.2h7.1c0.2-0.3,1.1-1.4,1.5-1.4c0.5,0,3.2,2,3.2,2.4
			c0,0.3-0.7,0.7-0.9,0.8C280.3,58.1,280.3,67.3,277.1,70.3z M266.4,52.6c-0.2,0.2-1,1.2-1.2,1.2c-0.1,0-0.2-0.1-0.2-0.2
			c0,0,1.7-4.5,1.9-5.2c0.6-1.8,2.9-9.4,2.9-11c0-0.6-0.2-1.2-0.2-1.6c0-0.2,0.1-0.3,0.3-0.3c0.8,0,3.3,1.5,4,2
			c0.2,0.1,0.3,0.3,0.3,0.5c0,0.3-0.8,0.9-1.1,1C271.8,44.2,269.9,48.6,266.4,52.6z M276.3,42.3c-0.3-1.4-1.1-7-1.4-7.5
			c-0.2-0.4-1-1.1-1-1.4c0-0.2,0.3-0.2,0.4-0.2c0.8,0,4.3,0.9,4.3,1.6c0,0.5-1.1,1.4-1.4,1.7c0.6,2.5,1.7,5.5,3.1,7.7
			c1,1.5,3,4.4,4.2,5.5l0.9,0.8c0.1,0.1,0.3,0.3,0.3,0.5c0,0.2-1,0.2-1.2,0.2c-0.5,0-2.3,0.3-2.6,0.5l-0.9,0.6
			C279.3,49.5,277,45.6,276.3,42.3z"/>
		<path class="st1" d="M299.1,61.4c0.3,1.1,0.4,2.2,0.4,3.3c0,1.6-0.5,3.8-2.5,3.8c-0.9,0-1.7-0.7-1.7-1.6c0-1.1,0.6-1.6,1.1-2.5
			c0.3-0.4,0.6-1,0.8-1.5c0.4-0.8,0.6-1.6,0.6-2.4c0-0.2-0.1-1.2,0.3-1.2C298.7,59.4,299,61.1,299.1,61.4z M300,44.8
			c1.4,0,2.7,0,4.1-0.1c0.7-1,1.2-1.9,1.7-3.1c0.1-0.2,0.3-1.1,0.4-1.1c0.5,0,3.6,2.3,3.8,2.6c0.1,0.2,0.1,0.3,0.1,0.5
			c0,0.3-1.3,0.4-1.5,0.5c-2.8,3.3-5.4,6.7-8.4,9.8c1.4,0,2.7,0,4.1,0h1.7h0.7c-0.3-0.9-0.5-2.1-1.1-2.8c-0.1-0.1-0.4-0.4-0.4-0.6
			c0-0.1,0.1-0.2,0.2-0.2c0.7,0,2.8,1.5,3.3,1.9c0.9,0.7,1.5,1.4,1.5,2.5c0,0.3,0,1-0.1,1.3c-0.2,0.7-0.8,1.3-1.7,1.3
			c-1.1,0-1.4-1-1.5-1.9c-3,0.7-6,1.3-8.9,2.4l-1.7-4.1c0.6-0.2,1.1-0.4,1.5-0.8c1.9-1.4,4.2-5,5.5-6.9c-2.2,0.6-4.2,1.3-6.3,2.1
			l-1-3.7c2.1-1.1,3.1-3.3,4-5.4c0.4-0.8,0.8-1.6,1.1-2.5c0.4-1.1,0.9-2.4,1-3.5c0-0.1,0-0.5,0.2-0.5c0.3,0,3.8,2.1,4.1,2.4
			c0.2,0.1,0.3,0.3,0.3,0.6c0,0.3-1.3,0.7-1.5,0.8c-1,1.4-1.9,2.7-2.9,4.1c-0.5,0.7-1,1.4-1.5,2l-2.1,2.5H300z M303.4,61.3
			c0.8,1,1.4,2.1,1.4,3.4c0,1.4-0.7,2.2-2,2.2c-1.2,0-1.1-1.1-1.1-1.9c0-0.8,0.1-1.6,0.1-2.4c0-1.2-0.2-2-0.7-3.1
			C301.7,59.2,303.1,60.9,303.4,61.3z M305,58.2c1.4,0.8,4.3,2.3,4.3,4.3c0,1.1-0.4,2.1-1.7,2.1c-1.9,0-1.5-2.2-1.7-3.4
			c0-0.3-0.1-0.6-0.3-0.9c-0.2-0.5-1-1.7-1-1.8C304.7,58.3,304.8,58.2,305,58.2z M308.7,68.6c-0.2,0.2-0.8,0.8-1.1,0.8
			c-0.1,0-0.2-0.1-0.2-0.2c0-0.1,0-0.2,0.1-0.3c1.4-2.2,3.1-5.6,3.7-8.1c0.1-0.3,0.3-1.5,0.5-1.7c0.8,0,3.9,2.1,3.9,2.8
			c0,0.4-0.9,0.6-1.2,0.7C312.7,64.7,310.9,66.7,308.7,68.6z M315.2,42l-2,2h1.5c1.8,0,3.5,0,5.3-0.1c0.7-0.9,1.5-1.9,1.9-3
			c0.3-0.7,0.5-1.4,0.8-2.2c0-0.1,0.1-0.3,0.2-0.3c0.4,0,4.2,3.2,4.2,3.7c0,0.4-1,0.5-1.3,0.6c-2.5,2.6-5,5.2-7.8,7.5
			c-0.9,0.8-1.8,1.5-2.7,2.3c2.2,0.1,4.3,0.2,6.5,0.2c0.7,0,1.4,0,2,0c-0.3-0.6-0.6-1.1-0.9-1.7c-0.3-0.6-0.8-1-1.3-1.5
			c-0.1-0.1-0.2-0.2-0.2-0.3c0-0.1,0.2-0.1,0.3-0.1c0.5,0,2.4,0.9,2.8,1.1c1.1,0.5,2.2,1.2,2.7,2.3c0.3,0.7,0.6,1.5,0.6,2.2
			c0,0.9-0.7,1.7-1.6,1.7c-1.1,0-1.2-0.8-1.6-1.7l-0.4-0.8l-4.6,0.9c0.4,0.2,1.6,0.8,1.6,1.2c0,0.3-0.8,0.8-1,1v12.5
			c0,0.4-0.1,0.8-0.4,1.2c-0.6,0.9-3,1.7-4.1,1.6c-0.2-1.2-0.4-2.5-1.7-3c-0.3-0.1-1.3-0.4-1.3-0.8c0-0.1,0.2-0.2,0.3-0.2
			c0.8,0.1,1.7,0.2,2.5,0.2c1.1,0,1.3-0.4,1.3-1.5l0-11.7c-1.5,0.3-2.9,0.6-4.4,1l-1.7-3.9c0.8-0.2,1.7-0.5,2.3-0.9
			c2.1-1.5,4.4-4.4,6-6.4c-2.5,0.6-4.6,1.2-7.1,2.1l-1.2-4.1c2-1,3.1-3.4,4-5.3c0.6-1.1,1.4-2.7,1.6-3.9c0-0.3,0.3-1.8,0.5-1.8
			c0.6,0,3.7,2.2,4.2,2.7c0.3,0.2,0.4,0.4,0.4,0.8c0,0.3-1.3,0.6-1.5,0.7C318.4,38.3,316.8,40.4,315.2,42z M321.5,60
			c0.6,0,2.1,1,2.6,1.3c1,0.6,2.1,1.4,2.7,2.5c0.3,0.6,0.8,1.4,0.8,2.2c0,0.9-0.6,2-1.7,2c-0.4,0-0.7-0.1-1-0.3
			c-0.3-0.2-0.5-0.5-0.6-0.8c-0.5-1.8-1.1-4.3-2.3-5.8c-0.1-0.1-0.8-0.8-0.8-1C321.3,60.1,321.4,60,321.5,60z"/>
		<path class="st1" d="M368.1,66c0,1.7,0.2,3.5,0.3,5.2c-1.2,0.6-2.6,0.8-3.9,1.1l0.2-2.5h-21.6v1.7c-1.1,0.3-2.4,0.7-3.6,0.8
			c0.1-1.6,0.3-3.3,0.3-5V38.1c0-1.1-0.1-2.2-0.3-3.3c0-0.5-0.3-1.5-0.3-1.7s0.1-0.3,0.3-0.3c1,0,3.5,1.4,4.4,1.9h20.2
			c0.3-0.3,1.1-1.6,1.6-1.6c0.6,0,2.8,1.6,3.3,1.9c0.2,0.1,0.3,0.3,0.3,0.5c0,0.5-0.9,1.1-1.2,1.3L368.1,66z M364.7,68.3l0-32.2
			h-21.3l-0.4,0.4v31.8H364.7z M355.9,57.2c-0.1-0.3-0.3-0.8-0.3-1.1c0-0.2,0.1-0.3,0.3-0.3c0.5,0,3.9,0.5,3.9,1.4
			c0,0.3-0.4,0.6-0.7,0.7v0.6h1.2c0.1-0.1,1.1-1.4,1.4-1.4s1.8,1.5,2,1.7c0.2,0.2,0.3,0.3,0.3,0.6c0,0.3-0.1,0.5-0.4,0.5H359v5.5
			c0,2.2-2.1,2.3-3.8,2.5c-0.3-1-0.7-2-1.7-2.5c-0.2,0-1.2-0.4-1.2-0.6c0-0.2,0.3-0.3,0.4-0.3c0.7,0,1.3,0.1,2,0.1
			c0.9,0,1.2-0.1,1.2-1.1v-3.6h-10.1l-0.6,0.5l-1.7-2.1c1,0.1,2,0.2,3,0.2h9.3C356,58,355.9,57.6,355.9,57.2z M359.2,40.4
			c0.2-0.2,1.4-1.7,1.7-1.7c0.3,0,0.5,0.3,0.7,0.4c0.3,0.3,1.9,1.6,1.9,2.2c0,0.4-0.4,0.5-0.7,0.5h-7.6v2.2h3.1
			c0.5-0.4,0.8-0.8,1.3-1.1c0.6,0.3,2.9,1.5,2.9,2.2c0,0.4-0.6,0.7-1,0.8c0,1.3,0,2.5,0,3.8c0,0.7,0.1,1.4,0.2,2.2
			c-1,0.3-2.1,0.4-3,0.5v-0.5h-3.5v2.1l3.4,0.1c-0.3-0.5-0.7-0.8-1.1-1.1c-0.1-0.1-0.3-0.2-0.3-0.4c0-0.1,0.1-0.2,0.3-0.2
			c0.3,0,0.7,0.2,1,0.3c1.3,0.5,3.9,1.5,3.9,3.2c0,0.7-0.3,1.3-1.1,1.3c-1.3,0-1.6-1.1-2.2-2c-2.5,0.2-4.9,0.6-7.4,1
			c-1.9,0.3-3.7,0.6-5.6,1.2l-1.5-3.5c2.6,0.2,5.1,0.2,7.7,0.2v-2h-3.3v0.6c-1,0.3-2,0.5-3,0.6c0-1,0.2-2,0.2-3v-5.3
			c0-0.5-0.1-1-0.1-1.5c0-0.1,0-0.3,0.2-0.3c0.2,0,2.9,1.1,3.3,1.2h2.8v-2.2H346l-0.6,0.6l-1.6-2.1c1,0,2,0.2,2.9,0.2h5.5v-1
			c0-0.6,0-1.2-0.1-1.8c0-0.5-0.4-0.9-0.4-1.3c0-0.3,0.2-0.3,0.4-0.3c0.7,0,3.9,0.4,3.9,1.2c0,0.5-0.5,0.8-0.9,0.9l0,2.1H359.2z
			 M350.4,65.5c-0.4,0-0.8-0.1-1.1-0.4c-0.2-0.2-0.3-0.4-0.3-0.6c-0.1-0.9-0.1-1.7-0.5-2.6c-0.1-0.3-0.7-1.3-0.7-1.4
			c0-0.1,0-0.2,0.2-0.2c0.3,0,0.9,0.3,1.2,0.4c1.4,0.6,2.7,1.6,2.7,3.2C351.9,64.7,351.3,65.5,350.4,65.5z M352.3,47v-1.8h-3.3V47
			H352.3z M352.3,50.3v-1.9h-3.3v1.9H352.3z M355.3,47.1l3.4,0v-1.8h-3.5L355.3,47.1z M355.3,50.3h3.5v-1.9h-3.5V50.3z"/>
	</g>
</g>
</svg>
