<?xml version="1.0" encoding="utf-8"?>
<!-- Generator: Adobe Illustrator 24.1.1, SVG Export Plug-In . SVG Version: 6.00 Build 0)  -->
<svg version="1.1" id="圖層_1" xmlns="http://www.w3.org/2000/svg" xmlns:xlink="http://www.w3.org/1999/xlink" x="0px" y="0px"
	 viewBox="0 0 800 130" style="enable-background:new 0 0 800 130;" xml:space="preserve">
<style type="text/css">
	.st0{fill:#231815;}
</style>
<g>
	<path class="st0" d="M66.3,14.5h41.6h0.5v0.6l0.1,0.1h-0.1v0.1h-4.8c-3.6,0.4-6.1,1.5-7.6,3.2c-1.4,1.7-2.1,4.8-2.1,9.3v1.7v71.3
		v2.2c0,2.4,0.2,4.4,0.5,5.9c0.4,1.6,1,2.8,1.8,3.8c0.8,0.9,2,1.6,3.4,2.1c1.4,0.5,3.1,0.7,5.1,0.8h3.7v0.9H66.3v-0.9
		c2.7,0,5.1-0.1,7-0.4c1.9-0.3,3.4-0.9,4.5-1.8c1.1-0.9,1.9-2.2,2.4-3.8c0.5-1.6,0.7-3.8,0.7-6.5v-37H32v34.9v2.2
		c0,2.4,0.2,4.4,0.5,5.9c0.4,1.6,1,2.8,1.8,3.8c0.8,0.9,2,1.6,3.4,2.1c1.4,0.5,3.1,0.7,5.1,0.8h3.7v0.9H4.5v-0.9
		c2.7,0,5.1-0.1,7-0.4c1.9-0.3,3.4-0.9,4.5-1.8c1.1-0.9,1.9-2.2,2.4-3.8c0.5-1.6,0.7-3.8,0.7-6.5V29.6V28c0-2.4-0.2-4.3-0.5-5.9
		c-0.4-1.5-1-2.8-1.8-3.8c-0.8-1-2-1.7-3.4-2.1c-1.4-0.4-3.1-0.7-5.1-0.9H4.3v-0.9h41.6h0.1h0.5v0.6l0.1,0.1h-0.1v0.1h-5
		c-1.8,0.2-3.3,0.5-4.5,1c-1.2,0.5-2.2,1.2-3,2.2c-0.8,0.9-1.3,2.2-1.6,3.7c-0.3,1.5-0.5,3.4-0.5,5.6v1.7V65h48.9V29.6V28
		c0-4.7-0.8-7.9-2.4-9.6c-1.6-1.7-4.4-2.7-8.4-3h-3.9V14.5z"/>
	<path class="st0" d="M114.7,64.7c0-7.2,1.1-13.9,3.4-20c2-6.1,5-11.6,9.1-16.4c3.9-4.8,8.4-8.5,13.3-10.9
		c5.3-2.7,10.8-4.1,16.6-4.1h1.9h3.1h1.9c5.6,0,11.1,1.4,16.4,4.1c5.2,2.5,9.7,6.2,13.5,10.9c4,5,7.1,10.5,9.2,16.4
		c2.2,6.3,3.3,12.9,3.3,20c0,7.1-1.1,13.8-3.3,20c-2.1,5.9-5.2,11.4-9.2,16.4c-3.9,4.8-8.4,8.4-13.5,10.9
		c-5.3,2.7-10.8,4.1-16.4,4.1h-1.9H159h-1.9c-5.7,0-11.2-1.4-16.6-4.1c-4.9-2.5-9.4-6.1-13.3-10.9c-4-4.8-7.1-10.3-9.1-16.4
		C115.9,78.6,114.7,72,114.7,64.7z M127.9,64.7c0,6.9,0.7,13.4,2.2,19.5c1.5,6.1,3.7,11.5,6.7,16.3c0.6,1,1.2,2,1.9,2.9
		c0.7,0.9,1.4,1.8,2.1,2.5c2.5,2.6,4.9,4.6,7.3,5.9c2.4,1.3,4.3,2.3,5.7,2.9c0.7,0.2,1.5,0.3,2.3,0.5c0.8,0.2,1.7,0.3,2.5,0.3h1h2.7
		c0.9,0,1.7-0.1,2.4-0.3c0.7-0.2,1.5-0.3,2.4-0.5c1.4-0.6,3.2-1.5,5.6-2.9c2.4-1.3,4.9-3.3,7.4-5.9c0.6-0.8,1.3-1.6,2-2.5
		c0.7-0.9,1.3-1.9,2-2.9c3-4.8,5.2-10.2,6.8-16.3c1.5-6.1,2.3-12.6,2.3-19.5s-0.8-13.4-2.3-19.5c-1.5-6.1-3.8-11.5-6.8-16.3
		c-0.6-1-1.3-2-2-2.9c-0.7-0.9-1.4-1.8-2-2.5c-2.6-2.6-5.1-4.6-7.4-5.9c-2.4-1.3-4.3-2.3-5.6-2.9c-0.9-0.2-1.7-0.3-2.4-0.4
		c-0.7-0.1-1.5-0.2-2.4-0.2h-2.7h-1c-1.6,0-3.2,0.2-4.8,0.6c-1.5,0.6-3.4,1.5-5.7,2.9c-2.4,1.3-4.8,3.3-7.3,5.9
		c-0.7,0.8-1.4,1.6-2.1,2.5c-0.7,0.9-1.3,1.9-1.9,2.9c-3,4.8-5.2,10.2-6.7,16.3C128.7,51.4,127.9,57.9,127.9,64.7z"/>
	<path class="st0" d="M296.6,41.1v-0.3c-0.6-2.6-1.4-5.4-2.2-8.2c-0.8-2.8-2-5.5-3.6-8c-1.6-2.5-3.7-4.5-6.4-6.2
		c-2.7-1.7-6.2-2.7-10.6-3.1h-1.1c-3.5,0.3-6,1.4-7.4,3.1c-1.4,1.7-2.1,4.8-2.1,9.2v1.7v71.3v2.3c0,2.3,0.2,4.2,0.5,5.8
		c0.4,1.6,1,2.8,1.8,3.8c0.8,0.9,2,1.6,3.3,2.1c1.4,0.5,3.1,0.7,5.1,0.8h3.7v0.9h-42.1v-0.9c2.7,0,5.1-0.1,7-0.4
		c1.9-0.3,3.4-0.9,4.5-1.8c1.1-0.9,1.9-2.2,2.4-3.8c0.5-1.6,0.7-3.8,0.7-6.5V29.5v-1.7c0-2.4-0.2-4.3-0.5-5.9s-1-2.8-1.8-3.7
		c-0.8-0.9-2-1.6-3.3-2c-1.4-0.4-3.1-0.7-5.1-0.9h-0.7c-4.4,0.3-7.9,1.4-10.5,3.1c-2.7,1.7-4.8,3.8-6.4,6.2c-1.6,2.5-2.8,5.1-3.6,8
		c-0.8,2.8-1.5,5.6-2.1,8.2v0.3h-0.8V14.3h82.2v26.7H296.6z"/>
	<path class="st0" d="M358.2,115.2c1.9-0.3,3.4-0.9,4.5-1.8c1.1-0.9,1.9-2.2,2.4-3.8c0.5-1.6,0.7-3.8,0.7-6.5V29.6v-1.5
		c0-4.7-0.8-7.9-2.4-9.6c-1.6-1.7-4.4-2.7-8.4-3h-3.9v-0.8h41.6h0.5v0.6h0.1h-0.1v0.1h-4.8c-3.6,0.4-6.1,1.5-7.6,3.2
		c-1.4,1.7-2.1,4.8-2.1,9.3v1.7v71.3v2.3c0,2.4,0.2,4.3,0.5,5.9s1,2.8,1.8,3.7c0.8,0.9,2,1.6,3.4,2.1c1.4,0.5,3.1,0.7,5.1,0.8h3.7
		v0.9h-42.2v-0.9C354,115.7,356.3,115.5,358.2,115.2z"/>
	<path class="st0" d="M403.1,84.2h0.8h0.1c0,1.8,0.2,3.8,0.6,5.9c0.4,2.2,1,4.3,1.7,6.5c0.7,2.2,1.6,4.2,2.7,6.2
		c1,2,2.2,3.5,3.5,4.7c2.6,2.4,5.5,4.2,8.7,5.5c3.2,1.3,6.7,2,10.3,2.1h1.1c3.6-0.2,7.1-0.9,10.3-2.2c3.5-1.7,6.2-4.1,8.2-7.3
		c2-3.1,3.1-6.5,3.2-10.1c0.1-3.6-0.8-7.2-2.8-10.8c-2-3.6-5.3-6.7-9.9-9.2l-15.2-8.3c-5.1-2.7-9.1-5.7-12.1-9
		c-3-3.3-5.1-6.6-6.3-10.1c-1.3-3.4-1.7-6.9-1.4-10.2c0.3-3.4,1.3-6.6,2.9-9.5c1.6-3,3.8-5.6,6.5-7.9c2.7-2.3,5.8-4.1,9.3-5.5
		c1.6-0.7,3.2-1.1,4.8-1.4c1.6-0.3,3.3-0.4,5-0.4c3.8,0,7.4,0.7,10.9,2.2c1.3,0.5,2.7,1,4.1,1.5c1.5,0.5,2.9,0.8,4.4,0.9
		c1.5,0.1,2.8-0.2,4.1-0.8c1.3-0.6,2.4-1.7,3.4-3.4h0.8v27.2v0.4h-1c0-1.8-0.3-3.6-0.8-5.6c-0.5-2-1.2-3.8-2.1-5.7
		c-0.9-1.8-1.9-3.5-3-5.1c-1.1-1.6-2.3-2.9-3.4-4c-2.3-2.2-5-3.9-8-5c-3-1.1-6.1-1.7-9.4-1.7c-1.4,0-2.8,0.1-4.2,0.3
		c-1.4,0.2-2.8,0.5-4.1,1c-3.7,1.3-6.6,3.3-8.6,6.1c-2.1,2.8-2.9,6-2.5,9.7c0.4,3.7,2.2,7.5,5.4,11.6c3.2,4.1,8.3,8.2,15.1,12.3
		l13.9,7.5c4.4,2.5,7.9,5.4,10.5,8.7c2.7,3.4,4.4,6.9,5.3,10.5c0.9,3.6,0.9,7.3,0.1,10.9c-0.8,3.6-2.5,7-5,10.1
		c-2.5,3.1-5.9,5.8-10.1,8c-4.2,2.3-9.2,3.8-15.1,4.6h0.2c-0.6,0.1-1.2,0.1-1.8,0.2c-0.5,0-1.1,0.1-1.6,0.1h-1.2
		c-3.6,0-7.1-0.7-10.5-2.2v0.1v-0.1c-0.5-0.2-0.9-0.3-1.2-0.5c-3.3-1.4-6-2-8-2c-2,0-3.6,0.4-4.7,1s-1.8,1.4-2.2,2.3
		c-0.4,0.9-0.6,1.5-0.7,1.7v0.1h-0.8V84.2z"/>
	<path class="st0" d="M476.7,84.2h0.8h0.1c0,1.8,0.2,3.8,0.6,5.9c0.4,2.2,1,4.3,1.7,6.5c0.7,2.2,1.6,4.2,2.7,6.2
		c1,2,2.2,3.5,3.5,4.7c2.6,2.4,5.5,4.2,8.7,5.5c3.2,1.3,6.7,2,10.3,2.1h1.1c3.6-0.2,7.1-0.9,10.3-2.2c3.5-1.7,6.2-4.1,8.2-7.3
		c2-3.1,3.1-6.5,3.2-10.1c0.1-3.6-0.8-7.2-2.8-10.8c-2-3.6-5.3-6.7-9.9-9.2l-15.2-8.3c-5.1-2.7-9.1-5.7-12.1-9
		c-3-3.3-5.1-6.6-6.3-10.1c-1.3-3.4-1.7-6.9-1.4-10.2c0.3-3.4,1.3-6.6,2.9-9.5c1.6-3,3.8-5.6,6.5-7.9c2.7-2.3,5.8-4.1,9.3-5.5
		c1.6-0.7,3.2-1.1,4.8-1.4c1.6-0.3,3.3-0.4,5-0.4c3.8,0,7.4,0.7,10.9,2.2c1.3,0.5,2.7,1,4.1,1.5c1.5,0.5,2.9,0.8,4.4,0.9
		c1.5,0.1,2.8-0.2,4.1-0.8c1.3-0.6,2.4-1.7,3.4-3.4h0.8v27.2v0.4h-1c0-1.8-0.3-3.6-0.8-5.6c-0.5-2-1.2-3.8-2.1-5.7
		c-0.9-1.8-1.9-3.5-3-5.1c-1.1-1.6-2.3-2.9-3.4-4c-2.3-2.2-5-3.9-8-5c-3-1.1-6.1-1.7-9.4-1.7c-1.4,0-2.8,0.1-4.2,0.3
		c-1.4,0.2-2.8,0.5-4.1,1c-3.7,1.3-6.6,3.3-8.6,6.1c-2.1,2.8-2.9,6-2.5,9.7c0.4,3.7,2.2,7.5,5.4,11.6c3.2,4.1,8.3,8.2,15.1,12.3
		l13.9,7.5c4.4,2.5,7.9,5.4,10.5,8.7c2.7,3.4,4.4,6.9,5.3,10.5c0.9,3.6,0.9,7.3,0.1,10.9c-0.8,3.6-2.5,7-5,10.1
		c-2.5,3.1-5.9,5.8-10.1,8c-4.2,2.3-9.2,3.8-15.1,4.6h0.2c-0.6,0.1-1.2,0.1-1.8,0.2c-0.5,0-1.1,0.1-1.6,0.1h-1.2
		c-3.6,0-7.1-0.7-10.5-2.2v0.1v-0.1c-0.5-0.2-0.9-0.3-1.2-0.5c-3.3-1.4-6-2-8-2c-2,0-3.6,0.4-4.7,1c-1.1,0.6-1.8,1.4-2.2,2.3
		c-0.4,0.9-0.6,1.5-0.7,1.7v0.1h-0.8V84.2z"/>
	<path class="st0" d="M611.6,14.5h42.2v0.9H652c-1.3,0.1-3,0.3-5.1,0.6c-2.1,0.3-4.2,1.1-6.2,2.2c-2.1,1.1-3.8,2.7-5.3,4.7
		c-1.5,2-2.2,4.8-2.2,8.1v55.1c0,4.3-0.9,8.4-2.7,12.2c-1.8,3.8-4.4,7.1-7.7,10c-3.3,2.7-7.1,4.8-11.4,6.2
		c-4.3,1.4-8.8,2.2-13.7,2.2h-0.4h-0.1H597c-4.7,0-9.1-0.7-13.2-2.2c-4.1-1.4-7.8-3.5-11-6.2c-3.4-2.9-6-6.2-7.8-10.1
		c-1.8-3.8-2.7-8.3-2.7-13.5V24.5c-0.2-3.3-1.2-5.6-2.8-6.9c-1.6-1.3-4.2-2.1-7.9-2.2h-3.9v-1h41.6h0.1h0.5V15l0.1,0.1H590v0.3h-5
		c-2.9,0.3-5.1,1-6.5,2.2c-1.5,1.2-2.4,3.2-2.8,6v60.3c0,5,0.7,9.7,2.2,14c1.5,4.3,3.6,7.9,6.5,10.8c2.9,2.9,6.3,4.9,10.5,6
		c4.1,1.1,8.8,1,14.1-0.3c4.9-1.4,9.4-3.6,13.3-6.9c3.1-2.5,5.5-5.6,7.3-9.3c1.9-3.6,2.8-7.7,2.8-12.1V30.4
		c-0.1-3.3-0.9-5.9-2.4-7.9c-1.5-2-3.3-3.4-5.3-4.5c-2-1-4.1-1.7-6.2-2c-2.1-0.3-3.7-0.6-5-0.6h-1.8V14.5z"/>
	<path class="st0" d="M724.4,114.4c2.7-0.8,5-2,7.1-3.3c2.1-1.4,3.8-2.9,5.4-4.6c1.5-1.7,2.9-3.5,4-5.4c2.6-4.3,4.4-9.2,5.4-14.8
		h0.8l-3.5,30.3h-0.8h-36.9h-42.2v-0.9c2.7,0,5.1-0.1,7-0.4c1.9-0.3,3.4-0.9,4.5-1.8c1.1-0.9,1.9-2.2,2.4-3.8
		c0.5-1.6,0.7-3.8,0.7-6.5V29.6c0-0.3,0-0.5-0.1-0.8c0-0.3-0.1-0.5-0.1-0.8c0-4.7-0.8-7.9-2.4-9.6c-1.6-1.7-4.4-2.7-8.4-3h-3.9v-0.8
		h27.6h48.3h0.8v26.7h-0.8v-0.1c-0.6-2.8-1.4-5.7-2.2-8.8s-2.2-5.8-3.9-8.3c-1.8-2.5-4.2-4.6-7.3-6.2c-3.1-1.7-7.1-2.5-12.1-2.5
		h-3.6h-19.1v14.1v35.6h17.3c3.5-0.1,6.2-0.9,8.2-2.5c2-1.6,3.5-3.3,4.5-5.3c1-2,1.6-3.8,1.9-5.6s0.4-3,0.4-3.6v-0.4h0.8v17.3V66
		v17.4h-0.8v-0.4c0-0.6-0.1-1.8-0.4-3.7c-0.2-1.9-0.9-3.8-1.9-5.8c-1-2-2.6-3.8-4.7-5.3c-2.1-1.5-4.9-2.3-8.5-2.3H707h-15.8v34.9
		c0.1,0.4,0.1,1.2,0.1,2.3c0,2.4,0.2,4.3,0.5,5.9c0.4,1.5,1,2.8,1.8,3.7c0.8,0.9,2,1.6,3.3,2.1c1.4,0.5,3.1,0.7,5.1,0.8h13.4
		C718.8,115.7,721.8,115.2,724.4,114.4z"/>
</g>
</svg>
