<svg xmlns="http://www.w3.org/2000/svg" viewBox="0 0 150 150"><defs><style>.cls-1{isolation:isolate;}.cls-2,.cls-3,.cls-4{fill:#de504a;}.cls-3{opacity:0.6;mix-blend-mode:multiply;}.cls-4{opacity:0.5;mix-blend-mode:color-dodge;}.cls-5{fill:#f4f4f4;}</style></defs><g class="cls-1"><g id="圖層_1" data-name="圖層 1"><path class="cls-2" d="M75,2A51.11,51.11,0,0,0,31.9,80.49L75,148l43.09-67.55A51.1,51.1,0,0,0,75,2Z"/><path class="cls-3" d="M75,2V148l43.09-67.55A51.1,51.1,0,0,0,75,2Z"/><path class="cls-2" d="M110.75,53.05A35.76,35.76,0,1,0,75,88.81,35.76,35.76,0,0,0,110.75,53.05Z"/><path class="cls-4" d="M110.75,53.05A35.76,35.76,0,0,0,75,17.29V88.81A35.76,35.76,0,0,0,110.75,53.05Z"/><path class="cls-3" d="M39.24,53.05A35.75,35.75,0,0,0,75,88.81V17.29A35.75,35.75,0,0,0,39.24,53.05Z"/><path class="cls-5" d="M75,78.6a25.55,25.55,0,1,1,25.54-25.55A25.59,25.59,0,0,1,75,78.6Z"/></g></g></svg>