<?xml version="1.0" encoding="utf-8"?>
<!-- Generator: Adobe Illustrator 24.1.1, SVG Export Plug-In . SVG Version: 6.00 Build 0)  -->
<svg version="1.1" id="圖層_1" xmlns="http://www.w3.org/2000/svg" xmlns:xlink="http://www.w3.org/1999/xlink" x="0px" y="0px"
	 viewBox="0 0 1080 130" style="enable-background:new 0 0 1080 130;" xml:space="preserve">
<style type="text/css">
	.st0{fill:#231815;}
</style>
<g>
	<path class="st0" d="M136.4,14.8v0.9h-1.8c-1.3,0-3,0.2-5.1,0.6c-2.1,0.4-4.2,1.1-6.2,2.2c-2,1.1-3.8,2.6-5.3,4.6
		c-1.5,2-2.2,4.8-2.2,8.1v85.4h-1L43.6,22.9v77.1c0,3.5,0.7,6.2,2.2,8.3c1.5,2,3.2,3.6,5.3,4.6c2,1.1,4.1,1.8,6.2,2.2
		c2.1,0.4,3.8,0.6,5.1,0.6h1.8v0.9H43.6h-1H22v-0.9h1.8c1.3,0,3-0.2,5.1-0.6c2.1-0.4,4.2-1.1,6.2-2.2c2-1.1,3.8-2.6,5.3-4.6
		c1.5-2,2.2-4.8,2.2-8.3V27.6c0-2,0-3.8-0.1-5.3c-0.1-1.5-0.4-2.7-1.1-3.8c-0.6-1-1.7-1.8-3.2-2.2c-1.5-0.5-3.6-0.7-6.5-0.7H28v-0.9
		h14.6h1h10.3l60.8,79.6V31.2c0-3.4-0.7-6.1-2.2-8.1c-1.5-2-3.2-3.6-5.3-4.6c-2-1.1-4.1-1.8-6.2-2.2c-2.1-0.4-3.9-0.6-5.1-0.6h-1.8
		v-0.9h20.7h1H136.4z"/>
	<path class="st0" d="M205.4,114.4c2.7-0.8,5-2,7.1-3.3c2.1-1.4,3.8-2.9,5.4-4.6c1.5-1.7,2.9-3.5,4-5.4c2.6-4.3,4.4-9.2,5.4-14.8
		h0.8l-3.5,30.3h-0.8h-36.9h-42.2v-0.9c2.7,0,5.1-0.1,7-0.4c1.9-0.3,3.4-0.9,4.5-1.8c1.1-0.9,1.9-2.2,2.4-3.8
		c0.5-1.6,0.7-3.8,0.7-6.5V29.7c0-0.3,0-0.5-0.1-0.8c0-0.3-0.1-0.5-0.1-0.8c0-4.7-0.8-7.9-2.4-9.6c-1.6-1.7-4.4-2.7-8.4-3h-3.9v-0.8
		h27.6h48.2h0.8v26.7h-0.8v-0.1c-0.6-2.8-1.4-5.7-2.2-8.8c-0.8-3.1-2.2-5.8-3.9-8.3c-1.8-2.5-4.2-4.6-7.3-6.2
		c-3.1-1.7-7.1-2.5-12.1-2.5h-3.6h-19.1v14.1v35.6h17.3c3.5-0.1,6.2-0.9,8.2-2.5c2-1.6,3.5-3.3,4.5-5.3c1-2,1.6-3.8,1.9-5.6
		c0.2-1.8,0.4-3,0.4-3.6V48h0.8v17.3v0.8v17.4h-0.8v-0.4c0-0.6-0.1-1.8-0.4-3.7c-0.2-1.9-0.9-3.8-1.9-5.8c-1-2-2.6-3.8-4.7-5.3
		s-4.9-2.3-8.5-2.3H188h-15.8v34.9c0.1,0.4,0.1,1.2,0.1,2.3c0,2.4,0.2,4.3,0.5,5.9s1,2.8,1.8,3.7c0.8,0.9,2,1.6,3.3,2.1
		c1.4,0.5,3.1,0.7,5.1,0.8h13.4C199.8,115.7,202.8,115.3,205.4,114.4z"/>
	<path class="st0" d="M367.5,15.5h-0.6c-0.7,0-1.8,0.1-3.3,0.4c-1.5,0.3-3.1,1-4.9,2c-1.8,1-3.5,2.5-5.1,4.5c-1.7,2-3,4.7-3.9,8.2
		l-23.9,85.7h-0.8l-23.9-84.6l-23.5,84.6h-1l-24.2-85.8l-0.5-1.7c-1-3.4-2-6-3.1-7.7c-1.1-1.7-2.3-3-3.5-3.8
		c-1.3-0.8-2.6-1.2-3.9-1.3c-1.4-0.1-2.8-0.3-4.4-0.6h-0.1v-0.9h39.7v0.9h-0.4c-2.1,0-4.1,0.1-5.9,0.2c-1.9,0.1-3.3,0.6-4.5,1.5
		c-1.1,0.9-1.8,2.3-2.1,4.3c-0.2,2,0.2,4.9,1.3,8.6l17.8,63.6l17.8-63.6c-0.2-0.3-0.2-0.5-0.2-0.7c0-0.2,0-0.4-0.1-0.6
		c-1-3.4-2-6-3.1-7.7c-1.1-1.7-2.3-3-3.5-3.8c-1.3-0.8-2.6-1.2-4-1.3c-1.4-0.1-2.8-0.3-4.3-0.6h-0.1v-0.9h39.7v0.9h-0.4
		c-2.1,0-4.1,0-5.9,0.1c-1.8,0.1-3.3,0.6-4.5,1.5c-1.2,0.9-1.9,2.3-2.1,4.3c-0.2,2,0.2,4.9,1.3,8.7l17.8,63.6l18.4-66.2
		c0.7-2.8,0.6-5-0.4-6.6c-1-1.6-2.4-2.8-4.1-3.6c-1.7-0.8-3.4-1.4-5.3-1.6c-1.8-0.2-3.1-0.3-3.9-0.3h-0.7v-0.9h32.4V15.5z"/>
	<path class="st0" d="M376.2,84.3h0.8h0.1c0,1.8,0.2,3.8,0.6,5.9c0.4,2.2,1,4.3,1.7,6.5c0.7,2.2,1.6,4.2,2.7,6.2
		c1,2,2.2,3.5,3.5,4.7c2.6,2.4,5.5,4.2,8.7,5.5c3.2,1.3,6.7,2,10.3,2.1h1.1c3.6-0.2,7.1-0.9,10.3-2.2c3.5-1.7,6.2-4.1,8.2-7.3
		c2-3.1,3.1-6.5,3.2-10.1c0.1-3.6-0.8-7.2-2.8-10.8c-2-3.6-5.3-6.7-9.9-9.2l-15.2-8.3c-5.1-2.7-9.1-5.7-12.1-9
		c-3-3.3-5.1-6.6-6.3-10.1c-1.3-3.4-1.7-6.9-1.4-10.2c0.3-3.4,1.3-6.6,2.9-9.5c1.6-3,3.8-5.6,6.5-7.9c2.7-2.3,5.8-4.1,9.3-5.5
		c1.6-0.7,3.2-1.1,4.8-1.4c1.6-0.3,3.3-0.4,5-0.4c3.8,0,7.4,0.7,10.9,2.2c1.3,0.5,2.7,1,4.1,1.5c1.5,0.5,2.9,0.8,4.4,0.9
		c1.5,0.1,2.8-0.2,4.1-0.8c1.3-0.6,2.4-1.7,3.4-3.4h0.8V41v0.4h-1c0-1.8-0.3-3.6-0.8-5.6c-0.5-2-1.2-3.8-2.1-5.7
		c-0.9-1.8-1.9-3.5-3-5.1c-1.1-1.6-2.3-2.9-3.4-4c-2.3-2.2-5-3.9-8-5c-3-1.1-6.1-1.7-9.4-1.7c-1.4,0-2.8,0.1-4.2,0.3
		c-1.4,0.2-2.8,0.5-4.1,1c-3.7,1.3-6.6,3.3-8.6,6.1c-2.1,2.8-2.9,6-2.5,9.7c0.4,3.7,2.2,7.5,5.4,11.6c3.2,4.1,8.3,8.2,15.1,12.3
		l13.9,7.5c4.4,2.5,7.9,5.4,10.5,8.7c2.7,3.4,4.4,6.9,5.3,10.5c0.9,3.6,0.9,7.3,0.1,10.9c-0.8,3.6-2.5,7-5,10.1
		c-2.5,3.1-5.9,5.8-10.1,8c-4.2,2.3-9.2,3.8-15.1,4.6h0.2c-0.6,0.1-1.2,0.1-1.8,0.2c-0.5,0-1.1,0.1-1.6,0.1h-1.2
		c-3.6,0-7.1-0.7-10.5-2.2v0.1v-0.1c-0.5-0.2-0.9-0.3-1.2-0.5c-3.3-1.4-6-2-8-2c-2,0-3.6,0.4-4.7,1s-1.8,1.4-2.2,2.3
		c-0.4,0.9-0.6,1.5-0.7,1.7v0.1h-0.8V84.3z"/>
	<path class="st0" d="M554.9,14.5h42.2v0.9h-1.8c-1.3,0.1-3,0.3-5.1,0.6c-2.1,0.3-4.2,1.1-6.2,2.2c-2.1,1.1-3.8,2.7-5.3,4.7
		c-1.5,2-2.2,4.8-2.2,8.1v55.1c0,4.3-0.9,8.4-2.7,12.2c-1.8,3.8-4.4,7.1-7.7,10c-3.3,2.7-7.1,4.8-11.4,6.2
		c-4.3,1.4-8.8,2.2-13.7,2.2h-0.4h-0.1h-0.2c-4.7,0-9.1-0.7-13.2-2.2c-4.1-1.4-7.8-3.5-11-6.2c-3.4-2.9-6-6.2-7.8-10.1
		c-1.8-3.8-2.7-8.3-2.7-13.5V24.6c-0.2-3.3-1.2-5.6-2.8-6.9c-1.6-1.3-4.2-2.1-7.9-2.2h-3.9v-1h41.6h0.1h0.5V15l0.1,0.1h-0.1v0.3h-5
		c-2.9,0.3-5.1,1-6.5,2.2c-1.5,1.2-2.4,3.2-2.8,6v60.3c0,5,0.7,9.7,2.2,14c1.5,4.3,3.6,7.9,6.5,10.8c2.9,2.9,6.3,4.9,10.5,6
		c4.1,1.1,8.8,1,14.1-0.3c4.9-1.4,9.4-3.6,13.3-6.9c3.1-2.5,5.5-5.6,7.3-9.3c1.9-3.6,2.8-7.7,2.8-12.1V30.4
		c-0.1-3.3-0.9-5.9-2.4-7.9c-1.5-2-3.3-3.4-5.3-4.5c-2-1-4.1-1.7-6.2-2c-2.1-0.3-3.7-0.6-5-0.6h-1.8V14.5z"/>
	<path class="st0" d="M603.2,116.6v-0.9c2.7,0,5.1-0.1,7-0.4c1.9-0.3,3.4-0.9,4.5-1.8c1.1-0.9,1.9-2.2,2.4-3.8
		c0.5-1.6,0.7-3.8,0.7-6.5V29.7v-1.5c0-4.7-0.8-7.9-2.4-9.6c-1.6-1.7-4.4-2.7-8.4-3h-3.9v-0.8h37.7h3.9h1.1h2.3h1
		c5.3,0,10,0.6,14,1.9c3.8,1.3,7,3.1,9.7,5.5c2.4,2.2,4.3,4.9,5.5,8c1.2,3.1,1.9,6.5,1.9,10.2c0,7.6-2.5,13.7-7.4,18.2
		c-2.4,2.3-5.6,4.1-9.7,5.5c-3.9,1.4-8.5,2-14,2h-1h-12.8h-4.6v34.9v2.3c0,2.4,0.2,4.3,0.5,5.9c0.4,1.5,1,2.8,1.8,3.7
		c0.8,0.9,2,1.6,3.4,2.1c1.4,0.5,3.1,0.7,5.1,0.8h3.6h0.1l-0.1,0.1v0.8h-14.5h-12.9H603.2z M630.7,65.3h4.6h12.8
		c3.9,0,7.4-1.1,10.3-3.2c0.9-0.7,1.8-1.5,2.7-2.6c0.9-1.1,1.8-2.3,2.5-3.8c1-2,1.9-4.3,2.4-6.9c0.6-2.6,0.8-5.4,0.8-8.5
		c0-7.3-1.5-13.2-4.5-17.6c-3.3-4.8-8.1-7.3-14.3-7.3h-2.3h-0.6h-4.8c-3.6,0.4-6.1,1.5-7.6,3.2c-1.4,1.7-2.1,4.8-2.1,9.3v1.7V65.3z"
		/>
	<path class="st0" d="M770.8,101.6c-4.1,4.8-8.9,8.5-14.4,11.1c-5.9,2.6-12.1,3.9-18.5,3.9h-9.8h-14.6h-12.9H686v-0.9
		c2.7,0,5-0.1,6.9-0.4c1.9-0.3,3.3-0.9,4.5-1.8c1.1-0.9,1.9-2.2,2.4-3.8c0.5-1.6,0.7-3.8,0.7-6.5V29.7v-1.5c0-4.7-0.8-7.9-2.4-9.6
		c-1.6-1.7-4.4-2.7-8.5-3h-3.7v-0.8h41.6h0.2c2,0,3.6,0,4.7,0c1.1,0,2,0,2.7,0c0.6,0,1.1,0,1.5,0c0.4,0,0.8,0,1.3,0
		c6.8,0,12.9,1.3,18.5,3.9c5.5,2.5,10.3,6.2,14.4,10.9c4,4.7,7.1,10.1,9.3,16.3c2.1,6.2,3.2,12.8,3.2,19.7c0,7-1.1,13.5-3.2,19.7
		C777.9,91.5,774.8,96.9,770.8,101.6z M749.4,111.8c2-1.3,3.9-2.8,5.7-4.6c1.8-1.8,3.5-3.8,5-6.1c3.1-4.7,5.4-10,7.1-16
		c1.7-6,2.5-12.5,2.5-19.3c0-6.9-0.8-13.4-2.5-19.5c-1.7-6.1-4.1-11.5-7.1-16c-1.5-2.3-3.2-4.3-5-6.1c-1.8-1.8-3.7-3.3-5.7-4.6
		c-3.9-2.4-8.2-3.7-12.9-3.9H728h-5c-1.8,0.2-3.3,0.5-4.5,1c-1.2,0.5-2.2,1.2-3,2.2c-0.8,0.9-1.3,2.2-1.6,3.7
		c-0.3,1.5-0.5,3.4-0.5,5.6v1.7v71.3c0,0.3,0,0.7,0.1,1.1c0,0.4,0.1,0.8,0.1,1.2c0,2.4,0.2,4.3,0.5,5.9c0.4,1.5,0.9,2.8,1.8,3.7
		c0.8,0.9,1.9,1.6,3.3,2.1c1.4,0.5,3.1,0.7,5.2,0.8h3.4h7.6C740.2,115.7,744.8,114.4,749.4,111.8z"/>
	<path class="st0" d="M787,115.5c0.1,0,0.8-0.1,2.1-0.3c1.3-0.2,2.9-0.7,4.7-1.7c1.8-1,3.7-2.5,5.7-4.5c2-2,3.7-5,5.2-8.8l32.5-85.5
		h1l32.4,85.3c1.5,3.7,2.8,6.6,4,8.6c1.2,2,2.4,3.5,3.6,4.5c1.2,1,2.4,1.6,3.7,1.8c1.2,0.2,2.7,0.4,4.3,0.7v0.9h-39.7v-0.9
		c2.9-0.2,5.4-0.4,7.4-0.6c2.1-0.2,3.6-0.8,4.7-1.7c1-0.9,1.5-2.4,1.3-4.5c-0.2-2.1-1-5.1-2.4-9L848.6,76h-33.7l-9.2,24.1
		c-1,2.5-1.3,4.7-1,6.4c0.3,1.7,0.9,3.2,1.9,4.3s2.2,2,3.6,2.7c1.4,0.6,2.8,1.1,4.1,1.4c1.3,0.3,2.5,0.5,3.4,0.5
		c1,0,1.5,0.1,1.6,0.1v0.9H787V115.5z M831.8,31.7l-16.6,43.4h33L831.8,31.7z"/>
	<path class="st0" d="M960.7,41.1v-0.3c-0.6-2.6-1.4-5.4-2.2-8.2c-0.8-2.8-2-5.5-3.6-8c-1.6-2.5-3.7-4.5-6.4-6.2
		c-2.7-1.7-6.2-2.7-10.6-3.1h-1.1c-3.5,0.3-6,1.4-7.4,3.1c-1.4,1.7-2.1,4.8-2.1,9.2v1.7v71.3v2.3c0,2.3,0.2,4.2,0.5,5.8
		c0.4,1.6,1,2.8,1.8,3.8c0.8,0.9,2,1.6,3.3,2.1c1.4,0.5,3.1,0.7,5.1,0.8h3.7v0.9h-42.1v-0.9c2.7,0,5.1-0.1,7-0.4
		c1.9-0.3,3.4-0.9,4.5-1.8c1.1-0.9,1.9-2.2,2.4-3.8c0.5-1.6,0.7-3.8,0.7-6.5V29.5v-1.7c0-2.4-0.2-4.3-0.5-5.9
		c-0.4-1.5-1-2.8-1.8-3.7c-0.8-0.9-2-1.6-3.3-2c-1.4-0.4-3.1-0.7-5.1-0.9h-0.7c-4.4,0.3-7.9,1.4-10.5,3.1c-2.7,1.7-4.8,3.8-6.4,6.2
		c-1.6,2.5-2.8,5.1-3.6,8c-0.8,2.8-1.5,5.6-2.1,8.2v0.3h-0.8V14.4h82.2v26.7H960.7z"/>
	<path class="st0" d="M1034.3,114.4c2.7-0.8,5-2,7.1-3.3c2.1-1.4,3.8-2.9,5.4-4.6c1.5-1.7,2.9-3.5,4-5.4c2.6-4.3,4.4-9.2,5.4-14.8
		h0.8l-3.5,30.3h-0.8h-36.9h-42.2v-0.9c2.7,0,5.1-0.1,7-0.4c1.9-0.3,3.4-0.9,4.5-1.8c1.1-0.9,1.9-2.2,2.4-3.8
		c0.5-1.6,0.7-3.8,0.7-6.5V29.7c0-0.3,0-0.5-0.1-0.8c0-0.3-0.1-0.5-0.1-0.8c0-4.7-0.8-7.9-2.4-9.6c-1.6-1.7-4.4-2.7-8.4-3h-3.9v-0.8
		h27.6h48.3h0.8v26.7h-0.8v-0.1c-0.6-2.8-1.4-5.7-2.2-8.8s-2.2-5.8-3.9-8.3c-1.8-2.5-4.2-4.6-7.3-6.2c-3.1-1.7-7.1-2.5-12.1-2.5
		h-3.6H1001v14.1v35.6h17.3c3.5-0.1,6.2-0.9,8.2-2.5c2-1.6,3.5-3.3,4.5-5.3c1-2,1.6-3.8,1.9-5.6s0.4-3,0.4-3.6V48h0.8v17.3v0.8v17.4
		h-0.8v-0.4c0-0.6-0.1-1.8-0.4-3.7c-0.2-1.9-0.9-3.8-1.9-5.8c-1-2-2.6-3.8-4.7-5.3c-2.1-1.5-4.9-2.3-8.5-2.3h-0.8H1001v34.9
		c0.1,0.4,0.1,1.2,0.1,2.3c0,2.4,0.2,4.3,0.5,5.9c0.4,1.5,1,2.8,1.8,3.7c0.8,0.9,2,1.6,3.3,2.1c1.4,0.5,3.1,0.7,5.1,0.8h13.4
		C1028.6,115.7,1031.6,115.3,1034.3,114.4z"/>
</g>
</svg>
