<?xml version="1.0" encoding="utf-8"?>
<!-- Generator: Adobe Illustrator 24.1.1, SVG Export Plug-In . SVG Version: 6.00 Build 0)  -->
<svg version="1.1" xmlns="http://www.w3.org/2000/svg" xmlns:xlink="http://www.w3.org/1999/xlink" x="0px" y="0px"
	 viewBox="0 0 185 185" style="enable-background:new 0 0 185 185;" xml:space="preserve">
<style type="text/css">
	.st0{fill-rule:evenodd;clip-rule:evenodd;fill:#9E9E9F;}
	.st1{fill-rule:evenodd;clip-rule:evenodd;fill:url(#SVGID_1_);}
	.st2{fill:url(#SVGID_2_);}
	.st3{fill:url(#SVGID_3_);}
	.st4{fill:url(#SVGID_4_);}
	.st5{fill:url(#SVGID_5_);}
	.st6{fill:url(#SVGID_6_);}
	.st7{fill:url(#SVGID_7_);}
	.st8{fill:url(#SVGID_8_);}
	.st9{fill:url(#SVGID_9_);}
	.st10{fill:url(#SVGID_10_);}
	.st11{fill:url(#SVGID_11_);}
	.st12{fill:url(#SVGID_12_);}
	.st13{fill:url(#SVGID_13_);}
	.st14{fill:url(#SVGID_14_);}
	.st15{fill:url(#SVGID_15_);}
	.st16{fill:url(#SVGID_16_);}
	.st17{fill:url(#SVGID_17_);}
	.st18{fill:url(#SVGID_18_);}
	.st19{fill:url(#SVGID_19_);}
	.st20{fill:url(#SVGID_20_);}
	.st21{fill:url(#SVGID_21_);}
	.st22{fill:url(#SVGID_22_);}
	.st23{fill:#4C6075;}
	.st24{fill:#FFFFFF;}
	.st25{fill:#5B5660;}
	.st26{fill-rule:evenodd;clip-rule:evenodd;}
	.st27{font-family:'StdkaiEG-Bold-Big5';}
	.st28{font-size:28.5671px;}
</style>
<g id="圖層_1">
	<path class="st0" d="M124.2,14.6C97.6-4.9,60.2,1,40.8,27.6C25.4,48.7,25.5,77.4,41,98.4c8.6,11.6,20.5,19.7,33.4,22.9
		c5.6,1.4,10.5,1.7,16,4c16.6,6.8,16.5,25.1-16,50.7c55.6-22.6,86.8-82.7,72.9-128.2C143.4,34.5,135.3,22.9,124.2,14.6L124.2,14.6z"
		/>
	
		<linearGradient id="SVGID_1_" gradientUnits="userSpaceOnUse" x1="6.1825" y1="778.5627" x2="140.9025" y2="778.5627" gradientTransform="matrix(0.84 -0.54 -0.54 -0.84 447.1676 774.9929)">
		<stop  offset="0" style="stop-color:#D33924"/>
		<stop  offset="0.15" style="stop-color:#CB3023"/>
		<stop  offset="0.35" style="stop-color:#BB1C21"/>
		<stop  offset="0.57" style="stop-color:#AA1B20"/>
		<stop  offset="1" style="stop-color:#7F191E"/>
		<stop  offset="1" style="stop-color:#7F191E"/>
	</linearGradient>
	<path class="st1" d="M126.5,14.3C99.8-5.2,62.5,0.6,43,27.3s-13.7,64,13,83.5c6.2,4.5,13.2,7.8,20.7,9.7c5.6,1.4,10.8,1.5,16,4.3
		c16.3,8.7,14,29-18.4,51.1c55.6-22.6,89.1-83,75.2-128.5C145.6,34.2,137.5,22.6,126.5,14.3z"/>
	
		<linearGradient id="SVGID_2_" gradientUnits="userSpaceOnUse" x1="35.2024" y1="796.163" x2="138.8224" y2="796.163" gradientTransform="matrix(0.84 -0.54 -0.54 -0.84 447.1676 774.9929)">
		<stop  offset="0" style="stop-color:#9E544B"/>
		<stop  offset="0.26" style="stop-color:#954D47"/>
		<stop  offset="0.35" style="stop-color:#904A45"/>
		<stop  offset="0.72" style="stop-color:#7F4543"/>
		<stop  offset="1" style="stop-color:#704141"/>
	</linearGradient>
	<path class="st2" d="M43.2,49C47.4,20.7,73.7,1.2,102,5.4s47.8,30.6,43.6,58.9s-30.6,47.8-58.9,43.6c0,0,0,0,0,0
		C58.5,103.7,38.9,77.3,43.2,49C43.1,49,43.1,49,43.2,49z"/>
	
		<linearGradient id="SVGID_3_" gradientUnits="userSpaceOnUse" x1="21.9352" y1="771.0117" x2="126.1052" y2="771.0117" gradientTransform="matrix(0.8493 -0.5087 -0.5087 -0.8493 422.5802 749.9668)">
		<stop  offset="0" style="stop-color:#9A554D"/>
		<stop  offset="0.27" style="stop-color:#914E49"/>
		<stop  offset="0.35" style="stop-color:#8D4B47"/>
		<stop  offset="0.73" style="stop-color:#7C4645"/>
		<stop  offset="1" style="stop-color:#6E4243"/>
	</linearGradient>
	<path class="st3" d="M43.1,49.3C47.3,21,73.6,1.6,101.8,5.8s47.7,30.5,43.5,58.8c-4.2,28.2-30.5,47.7-58.8,43.5
		C58.4,103.9,38.9,77.6,43.1,49.3C43.1,49.3,43.1,49.3,43.1,49.3z"/>
	
		<linearGradient id="SVGID_4_" gradientUnits="userSpaceOnUse" x1="6.1607" y1="741.6194" x2="110.8307" y2="741.6194" gradientTransform="matrix(0.8623 -0.4863 -0.4863 -0.8623 405.3344 724.5847)">
		<stop  offset="0" style="stop-color:#96554F"/>
		<stop  offset="0.27" style="stop-color:#8D4F4B"/>
		<stop  offset="0.35" style="stop-color:#894C4A"/>
		<stop  offset="0.76" style="stop-color:#784748"/>
		<stop  offset="1" style="stop-color:#6D4446"/>
	</linearGradient>
	<path class="st4" d="M43,49.6C47.2,21.4,73.5,2,101.6,6.2s47.7,30.5,43.5,58.6c-4.2,28.2-30.4,47.7-58.6,43.5
		C58.3,104.1,38.8,77.8,43,49.6C43,49.6,43,49.6,43,49.6z"/>
	
		<linearGradient id="SVGID_5_" gradientUnits="userSpaceOnUse" x1="-7.9001" y1="711.6727" x2="97.2783" y2="711.6727" gradientTransform="matrix(0.866 -0.4587 -0.4587 -0.866 381.4752 694.4614)">
		<stop  offset="0" style="stop-color:#925651"/>
		<stop  offset="0.29" style="stop-color:#894F4D"/>
		<stop  offset="0.35" style="stop-color:#864D4C"/>
		<stop  offset="0.78" style="stop-color:#75484A"/>
		<stop  offset="1" style="stop-color:#6B4548"/>
	</linearGradient>
	<path class="st5" d="M42.9,50c4.2-28.1,30.4-47.6,58.5-43.4S149,37,144.8,65.2c-4.2,28.1-30.4,47.6-58.5,43.4
		C58.1,104.4,38.7,78.2,42.9,50C42.9,50,42.9,50,42.9,50z"/>
	
		<linearGradient id="SVGID_6_" gradientUnits="userSpaceOnUse" x1="-19.4051" y1="680.9787" x2="86.0449" y2="680.9787" gradientTransform="matrix(0.87 -0.43 -0.43 -0.87 356.917 664.9295)">
		<stop  offset="0" style="stop-color:#8E5653"/>
		<stop  offset="0.31" style="stop-color:#854F4F"/>
		<stop  offset="0.35" style="stop-color:#834E4E"/>
		<stop  offset="0.79" style="stop-color:#724A4C"/>
		<stop  offset="1" style="stop-color:#69474B"/>
	</linearGradient>
	<path class="st6" d="M42.8,50.3C46.9,22.2,73.1,2.8,101.2,7s47.5,30.3,43.3,58.4c-4.2,28.1-30.3,47.5-58.4,43.3c0,0,0,0,0,0
		C58,104.6,38.6,78.4,42.8,50.3C42.8,50.3,42.8,50.3,42.8,50.3z"/>
	
		<linearGradient id="SVGID_7_" gradientUnits="userSpaceOnUse" x1="-31.6545" y1="648.319" x2="74.0855" y2="648.319" gradientTransform="matrix(0.8803 -0.4075 -0.4075 -0.8803 338.6883 637.6795)">
		<stop  offset="0" style="stop-color:#8A5755"/>
		<stop  offset="0.33" style="stop-color:#814F50"/>
		<stop  offset="0.35" style="stop-color:#804F50"/>
		<stop  offset="0.81" style="stop-color:#6F4A4E"/>
		<stop  offset="1" style="stop-color:#67484D"/>
	</linearGradient>
	<path class="st7" d="M42.7,50.7C46.9,22.6,73,3.3,101,7.4s47.4,30.3,43.2,58.3c-4.2,28-30.3,47.4-58.3,43.2
		C57.9,104.8,38.5,78.7,42.7,50.7C42.7,50.7,42.7,50.7,42.7,50.7z"/>
	
		<linearGradient id="SVGID_8_" gradientUnits="userSpaceOnUse" x1="-41.4813" y1="615.5794" x2="64.4687" y2="615.5794" gradientTransform="matrix(0.891 -0.3835 -0.3835 -0.891 319.6205 611.1957)">
		<stop  offset="0" style="stop-color:#865857"/>
		<stop  offset="0.33" style="stop-color:#7D5053"/>
		<stop  offset="0.35" style="stop-color:#7C5053"/>
		<stop  offset="0.86" style="stop-color:#6B4B51"/>
		<stop  offset="1" style="stop-color:#664A50"/>
	</linearGradient>
	<path class="st8" d="M42.6,51c4.2-28,30.2-47.3,58.2-43.1s47.3,30.2,43.1,58.2c-4.2,28-30.2,47.3-58.2,43.1
		C57.7,105.1,38.4,79,42.6,51C42.6,51,42.6,51,42.6,51z"/>
	
		<linearGradient id="SVGID_9_" gradientUnits="userSpaceOnUse" x1="-48.1668" y1="581.316" x2="57.9132" y2="581.316" gradientTransform="matrix(0.8918 -0.3553 -0.3553 -0.8918 294.3649 579.3718)">
		<stop  offset="0" style="stop-color:#835859"/>
		<stop  offset="0.33" style="stop-color:#7A5155"/>
		<stop  offset="0.35" style="stop-color:#795155"/>
		<stop  offset="0.88" style="stop-color:#684C53"/>
		<stop  offset="1" style="stop-color:#644B52"/>
	</linearGradient>
	<path class="st9" d="M42.5,51.3c4.2-28,30.2-47.2,58.1-43.1s47.2,30.2,43.1,58.1c-4.2,28-30.2,47.2-58.1,43.1c0,0,0,0,0,0
		C57.6,105.3,38.3,79.3,42.5,51.3C42.5,51.3,42.5,51.3,42.5,51.3z"/>
	
		<linearGradient id="SVGID_10_" gradientUnits="userSpaceOnUse" x1="-54.1792" y1="547.3039" x2="51.9508" y2="547.3039" gradientTransform="matrix(0.9012 -0.3307 -0.3307 -0.9012 274.4413 552.2018)">
		<stop  offset="0" style="stop-color:#7F595B"/>
		<stop  offset="0.35" style="stop-color:#765357"/>
		<stop  offset="0.9" style="stop-color:#654E55"/>
		<stop  offset="1" style="stop-color:#624D55"/>
	</linearGradient>
	<path class="st10" d="M42.4,51.7c4.1-27.9,30.1-47.2,58-43s47.2,30.1,43,58s-30.1,47.2-58,43c0,0,0,0,0,0
		C57.5,105.5,38.3,79.5,42.4,51.7z"/>
	
		<linearGradient id="SVGID_11_" gradientUnits="userSpaceOnUse" x1="-60.9731" y1="511.805" x2="45.1496" y2="511.805" gradientTransform="matrix(0.91 -0.31 -0.31 -0.91 256.9709 523.3216)">
		<stop  offset="0" style="stop-color:#7B595D"/>
		<stop  offset="0.35" style="stop-color:#73545A"/>
		<stop  offset="0.93" style="stop-color:#624F57"/>
		<stop  offset="1" style="stop-color:#604E57"/>
	</linearGradient>
	<path class="st11" d="M42.3,52c4.1-27.9,30.1-47.1,57.9-43s47.1,30.1,43,57.9s-30.1,47.1-57.9,43c0,0,0,0,0,0
		C57.4,105.8,38.2,79.8,42.3,52z"/>
	
		<linearGradient id="SVGID_12_" gradientUnits="userSpaceOnUse" x1="-60.1735" y1="478.2264" x2="45.8791" y2="478.2264" gradientTransform="matrix(0.9181 -0.2805 -0.2805 -0.9181 233.2473 496.8704)">
		<stop  offset="0" style="stop-color:#775A5F"/>
		<stop  offset="0.35" style="stop-color:#6F555C"/>
		<stop  offset="1" style="stop-color:#5F505A"/>
	</linearGradient>
	<path class="st12" d="M42.2,52.3c4.1-27.8,30-47,57.8-42.9s47,30,42.9,57.8s-30,47-57.8,42.9c0,0,0,0,0,0
		C57.3,106,38.1,80.2,42.2,52.3C42.2,52.4,42.2,52.3,42.2,52.3z"/>
	
		<linearGradient id="SVGID_13_" gradientUnits="userSpaceOnUse" x1="-63.4672" y1="443.5881" x2="42.3428" y2="443.5881" gradientTransform="matrix(0.93 -0.26 -0.26 -0.93 216.9333 470.0926)">
		<stop  offset="0" style="stop-color:#735B61"/>
		<stop  offset="0.35" style="stop-color:#6C565E"/>
		<stop  offset="1" style="stop-color:#5D515C"/>
	</linearGradient>
	<path class="st13" d="M42.1,52.7c4.1-27.8,30-46.9,57.7-42.8s46.9,30,42.8,57.7c-4.1,27.8-30,46.9-57.7,42.8c0,0,0,0,0,0
		C57.1,106.3,38,80.4,42.1,52.7z"/>
	
		<linearGradient id="SVGID_14_" gradientUnits="userSpaceOnUse" x1="-57.8239" y1="408.3243" x2="47.7061" y2="408.3243" gradientTransform="matrix(0.9322 -0.2293 -0.2293 -0.9322 190.4414 439.9673)">
		<stop  offset="0" style="stop-color:#6F5B63"/>
		<stop  offset="0.35" style="stop-color:#695761"/>
		<stop  offset="1" style="stop-color:#5B535F"/>
	</linearGradient>
	<path class="st14" d="M42,53c4.1-27.7,29.9-46.8,57.6-42.7s46.8,29.9,42.7,57.6c-4.1,27.7-29.9,46.8-57.6,42.7
		C57,106.5,37.9,80.7,42,53C42,53,42,53,42,53z"/>
	
		<linearGradient id="SVGID_15_" gradientUnits="userSpaceOnUse" x1="-53.5321" y1="373.2537" x2="51.6479" y2="373.2537" gradientTransform="matrix(0.9382 -0.2035 -0.2035 -0.9382 168.5608 410.8363)">
		<stop  offset="0" style="stop-color:#6B5C65"/>
		<stop  offset="0.35" style="stop-color:#665863"/>
		<stop  offset="1" style="stop-color:#5A5461"/>
	</linearGradient>
	<path class="st15" d="M41.9,53.3C46,25.7,71.8,6.6,99.4,10.7s46.7,29.9,42.6,57.5c-4.1,27.7-29.9,46.7-57.5,42.6c0,0,0,0,0,0
		C56.9,106.7,37.8,81,41.9,53.3z"/>
	
		<linearGradient id="SVGID_16_" gradientUnits="userSpaceOnUse" x1="-49.3744" y1="340.3412" x2="55.3856" y2="340.3412" gradientTransform="matrix(0.95 -0.18 -0.18 -0.95 150.1492 384.9936)">
		<stop  offset="0" style="stop-color:#675C67"/>
		<stop  offset="0.35" style="stop-color:#625965"/>
		<stop  offset="1" style="stop-color:#585664"/>
	</linearGradient>
	<path class="st16" d="M41.8,53.7C45.9,26.1,71.6,7,99.2,11.1s46.6,29.8,42.5,57.4c-4.1,27.6-29.8,46.6-57.4,42.5c0,0,0,0,0,0
		C56.8,107,37.7,81.3,41.8,53.7C41.8,53.7,41.8,53.7,41.8,53.7z"/>
	
		<linearGradient id="SVGID_17_" gradientUnits="userSpaceOnUse" x1="-41.1076" y1="307.2692" x2="63.1424" y2="307.2692" gradientTransform="matrix(0.9578 -0.1534 -0.1534 -0.9578 128.3085 357.3788)">
		<stop  offset="0" style="stop-color:#635D69"/>
		<stop  offset="0.35" style="stop-color:#5F5A67"/>
		<stop  offset="1" style="stop-color:#565766"/>
	</linearGradient>
	<path class="st17" d="M41.7,54C45.8,26.5,71.5,7.4,99,11.5s46.6,29.7,42.5,57.3c-4.1,27.5-29.7,46.6-57.3,42.5c0,0,0,0,0,0
		C56.6,107.2,37.6,81.5,41.7,54z"/>
	
		<linearGradient id="SVGID_18_" gradientUnits="userSpaceOnUse" x1="-30.425" y1="272.8499" x2="73.235" y2="272.8499" gradientTransform="matrix(0.9616 -0.1273 -0.1273 -0.9616 105.4891 326.8813)">
		<stop  offset="0" style="stop-color:#5F5E6B"/>
		<stop  offset="0.35" style="stop-color:#5C5B6A"/>
		<stop  offset="1" style="stop-color:#545969"/>
	</linearGradient>
	<path class="st18" d="M41.6,54.4C45.7,26.9,71.3,7.9,98.8,12s46.5,29.7,42.4,57.2c-4.1,27.5-29.7,46.5-57.2,42.4c0,0,0,0,0,0
		C56.5,107.5,37.5,81.9,41.6,54.4z"/>
	
		<linearGradient id="SVGID_19_" gradientUnits="userSpaceOnUse" x1="-20.7938" y1="243.2682" x2="82.2162" y2="243.2682" gradientTransform="matrix(0.9746 -0.1024 -0.1024 -0.9746 86.5629 302.294)">
		<stop  offset="0" style="stop-color:#5B5E6D"/>
		<stop  offset="0.35" style="stop-color:#595C6C"/>
		<stop  offset="1" style="stop-color:#535A6B"/>
	</linearGradient>
	<path class="st19" d="M41.5,54.7c4.1-27.5,29.6-46.4,57.1-42.3S145,42,140.9,69.5c-4.1,27.5-29.6,46.4-57.1,42.3c0,0,0,0,0,0
		C56.4,107.7,37.5,82.2,41.5,54.7C41.5,54.7,41.5,54.7,41.5,54.7z"/>
	
		<linearGradient id="SVGID_20_" gradientUnits="userSpaceOnUse" x1="-6.4873" y1="209.7164" x2="95.8822" y2="209.7164" gradientTransform="matrix(0.977 -7.654888e-02 -7.654888e-02 -0.977 63.4257 270.7104)">
		<stop  offset="0" style="stop-color:#575F6F"/>
		<stop  offset="0.35" style="stop-color:#555D6E"/>
		<stop  offset="1" style="stop-color:#515C6E"/>
	</linearGradient>
	<path class="st20" d="M41.4,55c4.1-27.4,29.6-46.3,57-42.2s46.3,29.6,42.2,57c-4.1,27.4-29.6,46.3-57,42.2
		C56.3,107.9,37.4,82.4,41.4,55C41.4,55,41.4,55,41.4,55z"/>
	
		<linearGradient id="SVGID_21_" gradientUnits="userSpaceOnUse" x1="6.6666" y1="181.7816" x2="108.1766" y2="181.7816" gradientTransform="matrix(0.9887 -5.112238e-02 -5.112238e-02 -0.9887 43.6571 245.388)">
		<stop  offset="0" style="stop-color:#545F71"/>
		<stop  offset="0.35" style="stop-color:#525E71"/>
		<stop  offset="1" style="stop-color:#4F5D70"/>
	</linearGradient>
	<path class="st21" d="M41.3,55.4C45.4,28,70.9,9.2,98.2,13.2s46.2,29.5,42.2,56.9c-4.1,27.3-29.5,46.2-56.9,42.2
		C56.2,108.2,37.3,82.8,41.3,55.4C41.3,55.4,41.3,55.4,41.3,55.4z"/>
	
		<linearGradient id="SVGID_22_" gradientUnits="userSpaceOnUse" x1="24.4659" y1="149.4074" x2="125.1359" y2="149.4074" gradientTransform="matrix(0.9897 -2.539699e-02 -2.539699e-02 -0.9897 20.1903 212.8111)">
		<stop  offset="0" style="stop-color:#506073"/>
		<stop  offset="0.35" style="stop-color:#4F5F73"/>
		<stop  offset="1" style="stop-color:#4D5F73"/>
	</linearGradient>
	<path class="st22" d="M41.3,55.7c4-27.3,29.5-46.2,56.8-42.1s46.2,29.5,42.1,56.8c-4,27.3-29.5,46.2-56.8,42.1c0,0,0,0-0.1,0
		C56,108.4,37.2,83,41.3,55.7z"/>
	<path class="st23" d="M41.2,56.1c4-27.2,29.4-46.1,56.7-42s46.1,29.4,42,56.7s-29.4,46.1-56.7,42c0,0,0,0,0,0
		C55.9,108.7,37.1,83.3,41.2,56.1C41.1,56.1,41.1,56.1,41.2,56.1z"/>
	<path class="st24" d="M41.2,56.1c4-27.2,29.4-46.1,56.7-42s46.1,29.4,42,56.7s-29.4,46.1-56.7,42c0,0,0,0,0,0
		C55.9,108.7,37.1,83.3,41.2,56.1C41.1,56.1,41.1,56.1,41.2,56.1z"/>
	<path class="st24" d="M43,56.3C46.9,30.1,71.3,12,97.5,15.9s44.3,28.3,40.4,54.5c-3.9,26.2-28.3,44.3-54.5,40.4
		C57.2,107,39.1,82.6,43,56.3C43,56.3,43,56.3,43,56.3z"/>
	<path class="st25" d="M79.3,42.5h-0.6c-0.5,0-0.9,0.3-1,0.7l-4,12.8c-0.3,1.1-0.8,2.2-1.3,3.3c-0.3,0.5-0.8,1-1.3,1.2
		c-0.6,0.2-1.2,0.2-1.7,0c-0.8-0.3-1.5-0.9-1.8-1.7c-0.2-0.4-0.2-0.9,0-1.3c0.2-0.4,0.7-0.7,1.2-0.6c0.5,0,0.9,0.4,1,0.9
		c0.1,0.3,0.2,0.8,0.3,1.1c0.1,0.4,0.6,0.6,1,0.5c0.2-0.1,0.3-0.2,0.4-0.3c0.7-1,1.2-2.2,1.4-3.3l-3.7-12.6
		c-0.1-0.4-0.4-0.6-0.8-0.7h-0.6c-0.1,0-0.3-0.1-0.3-0.3v-0.5c0-0.1,0.1-0.3,0.2-0.3H73c0.1,0,0.2,0.2,0.2,0.3v0.5
		c0,0.1-0.1,0.3-0.2,0.3c0,0,0,0,0,0h-0.8c-0.3,0-0.6,0.5-0.5,1l2.4,8.2l2.6-8.4c0.1-0.3,0-0.7-0.3-0.8c-0.1,0-0.2,0-0.3,0h-0.9
		c-0.2,0-0.3-0.1-0.3-0.3v-0.6c0-0.1,0.1-0.2,0.2-0.2c0,0,0,0,0,0h4.2c0.1,0,0.2,0.2,0.2,0.3v0.5C79.5,42.4,79.5,42.5,79.3,42.5z"/>
	<path class="st25" d="M87.3,55.3c-2,0.8-4.3,0.2-5.6-1.5c-0.9-1.2-1.4-2.7-1.5-4.2c-0.2-1.7,0.1-3.4,0.7-5c0.5-1.3,1.6-2.4,2.9-3
		c1.2-0.5,2.5-0.5,3.7,0c0.9,0.4,1.7,1.1,2.2,2c0.6,1.3,0.9,2.8,0.8,4.2h-8.3c-0.2,1.5,0,3,0.6,4.3c0.4,0.9,1.1,1.5,2,1.8
		c0.8,0.3,1.7,0.3,2.5,0c1.4-0.7,2.4-1.8,3-3.2c0-0.1,0.3,0,0.2,0.1C90.3,52.8,89,54.5,87.3,55.3z M87.8,43.8
		c-0.3-0.6-0.8-1.1-1.5-1.3c-0.5-0.2-1.1-0.1-1.7,0.1c-0.6,0.2-1,0.6-1.3,1.2c-0.5,1-0.9,2.1-1,3.2h6C88.4,45.8,88.2,44.7,87.8,43.8
		z"/>
	<path class="st25" d="M102.3,55.1c-0.4,0.4-1,0.6-1.6,0.4c-0.7-0.2-1.2-0.8-1.4-1.5c-0.9,0.7-2,1.2-3.2,1.6
		c-1.1,0.3-2.3,0.1-3.2-0.6c-0.8-0.6-1.4-1.5-1.6-2.5c-0.2-1.1,0-2.3,0.6-3.2c0.7-1.1,1.8-1.8,3.1-1.9c1.5-0.1,3-0.6,4.3-1.4v-1.2
		c0-0.5-0.1-1.1-0.5-1.5c-0.4-0.4-0.9-0.7-1.5-0.8c-0.7-0.2-1.4-0.1-2.1,0.2c-0.5,0.3-0.9,0.8-0.9,1.4c0,0.3,0,0.5,0,0.8
		c0,0.4-0.2,0.8-0.6,1c-0.4,0.2-0.9,0.2-1.3,0c-0.5-0.4-0.6-1-0.5-1.5c0.3-0.8,0.9-1.5,1.6-2c0.7-0.5,1.6-0.8,2.5-0.9
		c1.3-0.1,2.6,0.2,3.7,0.8c1,0.7,1.5,1.8,1.5,3v7.5c0,0.4,0.1,0.8,0.4,1.1c0.2,0.1,0.4,0.1,0.8-0.1c0.3-0.2,0.6-0.5,0.7-0.9
		c0.1-0.2,0.4-0.1,0.3,0.2C103.3,53.8,102.9,54.6,102.3,55.1z M99.3,47c-0.8,0.6-1.7,1-2.7,1.1c-1,0.2-1.9,0.7-2.6,1.4
		c-0.6,0.7-0.9,1.6-0.8,2.5c0.1,0.6,0.4,1.2,0.8,1.6c0.5,0.4,1.2,0.6,1.8,0.5c1.2-0.1,2.4-0.6,3.4-1.4V47z"/>
	<path class="st25" d="M112.2,45c-0.6,0-0.9-0.3-1.1-0.9c0-0.3-0.1-0.6-0.2-0.8c-0.1-0.4-0.5-0.6-0.9-0.5c0,0-0.1,0-0.1,0.1
		c-0.7,0.4-1.3,1.1-1.6,1.9c-0.4,0.9-0.7,2-0.7,3v6c0.1,0.5,0.4,0.9,0.9,1h0.6c0.1,0,0.3,0.1,0.3,0.3v0.5c0,0.1-0.1,0.2-0.2,0.2
		c0,0,0,0,0,0h-5.2c-0.1,0-0.2-0.1-0.2-0.2v-0.5c0-0.1,0.1-0.2,0.2-0.2h0.7c0.4,0,0.9-0.6,0.9-1.1v-9.2c0-0.5-0.4-0.9-0.9-1h-0.7
		c-0.1,0-0.2-0.1-0.2-0.2c0,0,0,0,0,0v-0.5c0-0.1,0.1-0.2,0.3-0.3c1.2,0,2.4-0.4,3.5-1v2.7c0.3-0.9,0.8-1.6,1.6-2.2
		c0.6-0.5,1.4-0.7,2.1-0.5c0.8,0,1.6,0.4,2,1.1c0.3,0.5,0.4,1.1,0.1,1.7C113.3,44.6,112.8,45,112.2,45z"/>
	<path class="st26" d="M67.8,182c-2.6,0-4.6-2.1-4.6-4.7c0-2.6,2.1-4.6,4.7-4.6c2.6,0,4.6,2.1,4.6,4.7c0,0,0,0,0,0
		C72.4,179.9,70.3,182,67.8,182C67.8,182,67.8,182,67.8,182z"/>
</g>
<g id="圖層_2">
	<text transform="matrix(0.8539 0 0 1 73.7262 86.2691)" class="st25 st27 st28">104</text>
</g>
</svg>
