<?xml version="1.0" encoding="utf-8"?>
<!-- Generator: Adobe Illustrator 24.1.1, SVG Export Plug-In . SVG Version: 6.00 Build 0)  -->
<svg version="1.1" id="圖層_1" xmlns="http://www.w3.org/2000/svg" xmlns:xlink="http://www.w3.org/1999/xlink" x="0px" y="0px"
	 viewBox="0 0 900 130" style="enable-background:new 0 0 900 130;" xml:space="preserve">
<style type="text/css">
	.st0{fill:#231815;}
</style>
<g>
	<path class="st0" d="M3.7,64.5v-0.1H3.2c0-3.5,0.3-6.9,0.8-10.2c0.6-3.3,1.4-6.6,2.5-9.8c2.3-6.3,5.3-11.7,9.2-16.3
		c1.9-2.3,4-4.4,6.2-6.2c2.2-1.9,4.6-3.4,7.2-4.7c5.2-2.7,10.7-4.1,16.6-4.1c4.3,0,8.2,0.8,11.9,2.4h0.1c0.2,0.2,0.3,0.3,0.5,0.3
		l0.1,0.1c0.6,0.3,1.1,0.5,1.6,0.8c0.5,0.3,1.1,0.6,1.6,0.9c4.2,2.1,7.5,3.2,9.9,3.2c2.4,0,4.2-0.4,5.4-1.3c1.5-0.9,2.4-2.4,2.8-4.5
		h0.8v37h-0.8c-0.4-3.1-1-6.1-1.8-8.9c-0.8-2.8-1.7-5.4-2.7-7.9c-1-2.3-2.2-4.4-3.6-6.4c-1.3-2-2.8-3.8-4.3-5.4
		c-2.9-3.1-6.3-5.4-10.2-7.1c-3-1.3-6.2-2-9.7-2.3c-4.3,0-8.3,1.3-12.1,3.9c-3.8,2.6-7.1,6.2-9.9,10.8c-2.8,4.6-5.1,9.9-6.7,16.1
		c-1.7,6.2-2.5,12.7-2.5,19.7c0,9,1.3,17.2,4.1,24.7c2.7,7.5,6.2,13.5,10.6,17.9c2.1,2,4.1,3.5,5.9,4.5c1.9,1.1,3.5,1.8,4.8,2.4
		c0.9,0.3,1.8,0.6,2.8,0.7c1,0.1,2,0.2,3,0.2c1.7-0.2,3.3-0.4,4.9-0.8s3.2-0.8,4.8-1.5c3.6-1.5,7-3.9,10-7.1c1.6-1.5,3-3.3,4.3-5.3
		c1.2-2,2.4-4.1,3.4-6.4c1.1-2.5,2.1-5.1,2.8-7.9s1.3-5.8,1.8-8.9l0.8,0.1c-0.9,6.5-2.5,12.1-4.7,17.1c-2.1,4.8-4.7,8.8-7.9,12.1
		c-3.1,3.1-6.5,5.4-10.4,7.1c-3.5,1.6-7.5,2.4-11.7,2.4c-5.9,0-11.4-1.4-16.6-4.1c-5-2.5-9.5-6.2-13.4-10.9
		c-3.9-4.6-6.9-10-9.2-16.3c-1.1-3.2-2-6.5-2.5-9.8C3.5,71.4,3.2,68,3.2,64.5H3.7z"/>
	<path class="st0" d="M97.5,114.2c1.9-0.3,3.4-0.9,4.5-1.8c1.1-0.9,1.9-2.2,2.4-3.8c0.5-1.6,0.7-3.8,0.7-6.5V28.6v-1.5
		c0-4.7-0.8-7.9-2.4-9.6c-1.6-1.7-4.4-2.7-8.4-3h-3.9v-0.8h41.6h0.5v0.6h0.1h-0.1v0.1h-4.8c-3.6,0.4-6.1,1.5-7.6,3.2
		c-1.4,1.7-2.1,4.8-2.1,9.3v1.7v71.3v2.3c0,2.4,0.2,4.3,0.5,5.9c0.4,1.5,1,2.8,1.8,3.7c0.8,0.9,2,1.6,3.4,2.1
		c1.4,0.5,3.1,0.7,5.1,0.8h3.7v0.9H90.6v-0.9C93.3,114.6,95.6,114.5,97.5,114.2z"/>
	<path class="st0" d="M223.7,40.1v-0.3c-0.6-2.6-1.4-5.4-2.2-8.2c-0.8-2.8-2-5.5-3.6-8c-1.6-2.5-3.7-4.5-6.4-6.2
		c-2.7-1.7-6.2-2.7-10.6-3.1h-1.1c-3.5,0.3-6,1.4-7.4,3.1c-1.4,1.7-2.1,4.8-2.1,9.2v1.7v71.3v2.3c0,2.3,0.2,4.2,0.5,5.8
		c0.4,1.6,1,2.8,1.8,3.8c0.8,0.9,2,1.6,3.3,2.1c1.4,0.5,3.1,0.7,5.1,0.8h3.7v0.9h-42.1v-0.9c2.7,0,5.1-0.1,7-0.4
		c1.9-0.3,3.4-0.9,4.5-1.8c1.1-0.9,1.9-2.2,2.4-3.8s0.7-3.8,0.7-6.5V28.5v-1.7c0-2.4-0.2-4.3-0.5-5.9c-0.4-1.5-1-2.8-1.8-3.7
		c-0.8-0.9-2-1.6-3.3-2c-1.4-0.4-3.1-0.7-5.1-0.9h-0.7c-4.4,0.3-7.9,1.4-10.5,3.1c-2.7,1.7-4.8,3.8-6.4,6.2c-1.6,2.5-2.8,5.1-3.6,8
		c-0.8,2.8-1.5,5.6-2.1,8.2v0.3h-0.8V13.3h82.2v26.7H223.7z"/>
	<path class="st0" d="M287.4,71.9v28v2.4c0,4.7,0.8,7.9,2.4,9.7c1.6,1.8,4.5,2.7,8.6,2.7h3.7v1H260v-1c2.7,0,5-0.1,6.9-0.4
		c1.9-0.3,3.3-0.9,4.5-1.8c1.1-0.9,1.9-2.2,2.4-3.8c0.5-1.7,0.7-3.8,0.7-6.4V71.9c-4-7.8-7.4-14.4-10.2-19.8
		c-2.8-5.4-5.1-9.9-7-13.4c-1.9-3.6-3.3-6.3-4.3-8.3c-1-2-1.8-3.4-2.2-4.4c-0.5-1-0.8-1.6-0.9-1.8c-0.1-0.3-0.2-0.4-0.3-0.5
		c-1.1-2.1-2.5-3.8-4.2-5.1c-1.7-1.3-3.4-2.2-5.1-2.8c-1.7-0.6-3.2-1-4.6-1.1c-1.4-0.2-2.3-0.3-2.9-0.3v-0.8h37.6v0.8h-2.1
		c-0.9,0.1-1.9,0.2-3,0.4c-1.1,0.2-2.1,0.6-2.9,1.1c-0.8,0.6-1.4,1.3-1.6,2.3c-0.3,1,0,2.3,0.9,3.9L286.9,71l18.6-35.8
		c1.8-3.5,3-6.4,3.7-8.8c0.7-2.4,1-4.3,0.8-5.9s-0.5-2.7-1.1-3.5c-0.6-0.8-1.4-1.4-2.2-1.8c-0.8-0.4-1.7-0.6-2.5-0.7
		c-0.8-0.1-1.5-0.1-2-0.1v-0.9h32.4v0.9h-0.5c-0.8,0-2.3,0.2-4.4,0.7c-2.1,0.5-4.5,1.4-7.1,2.9c-2.7,1.4-5.4,3.5-8.3,6.2
		c-2.9,2.7-5.5,6.4-7.9,10.9L287.4,71.9z"/>
	<path class="st0" d="M499.4,13.7v0.9h-1.8c-1.3,0-3,0.2-5.1,0.6c-2.1,0.4-4.2,1.1-6.2,2.2c-2,1.1-3.8,2.6-5.3,4.6
		c-1.5,2-2.2,4.8-2.2,8.1v85.4h-1l-71.1-93.7V99c0,3.5,0.7,6.2,2.2,8.3c1.5,2,3.2,3.6,5.3,4.6c2,1.1,4.1,1.8,6.2,2.2
		c2.1,0.4,3.8,0.6,5.1,0.6h1.8v0.9h-20.7h-1H385v-0.9h1.8c1.3,0,3-0.2,5.1-0.6c2.1-0.4,4.2-1.1,6.2-2.2c2-1.1,3.8-2.6,5.3-4.6
		c1.5-2,2.2-4.8,2.2-8.3V26.6c0-2,0-3.8-0.1-5.3c-0.1-1.5-0.4-2.7-1.1-3.8c-0.6-1-1.7-1.8-3.2-2.2c-1.5-0.5-3.6-0.7-6.5-0.7H391
		v-0.9h14.6h1h10.3l60.8,79.6V30.1c0-3.4-0.7-6.1-2.2-8.1c-1.5-2-3.2-3.6-5.3-4.6c-2-1.1-4.1-1.8-6.2-2.2c-2.1-0.4-3.9-0.6-5.1-0.6
		h-1.8v-0.9h20.7h1H499.4z"/>
	<path class="st0" d="M568.4,113.4c2.7-0.8,5-1.9,7.1-3.3c2.1-1.4,3.8-2.9,5.4-4.6c1.5-1.7,2.9-3.5,4-5.4c2.6-4.3,4.4-9.2,5.4-14.8
		h0.8l-3.5,30.3h-0.8h-36.9h-42.2v-0.9c2.7,0,5.1-0.1,7-0.4c1.9-0.3,3.4-0.9,4.5-1.8c1.1-0.9,1.9-2.2,2.4-3.8
		c0.5-1.6,0.7-3.8,0.7-6.5V28.6c0-0.3,0-0.5-0.1-0.8c0-0.3-0.1-0.5-0.1-0.8c0-4.7-0.8-7.9-2.4-9.6c-1.6-1.7-4.4-2.7-8.4-3h-3.9v-0.8
		h27.6h48.3h0.8v26.7h-0.8v-0.1c-0.6-2.8-1.4-5.7-2.2-8.8s-2.2-5.8-3.9-8.3c-1.8-2.5-4.2-4.6-7.3-6.2c-3.1-1.7-7.1-2.5-12.1-2.5
		h-3.6h-19.1v14.1v35.6h17.3c3.5-0.1,6.2-0.9,8.2-2.5c2-1.6,3.5-3.3,4.5-5.3c1-2,1.6-3.8,1.9-5.6c0.2-1.8,0.4-3,0.4-3.6v-0.4h0.8
		v17.3V65v17.4h-0.8v-0.4c0-0.6-0.1-1.8-0.4-3.7c-0.2-1.9-0.9-3.8-1.9-5.8c-1-2-2.6-3.8-4.7-5.3c-2.1-1.5-4.9-2.3-8.5-2.3H551h-15.8
		v34.9c0.1,0.4,0.1,1.2,0.1,2.3c0,2.4,0.2,4.3,0.5,5.9c0.4,1.5,1,2.8,1.8,3.7c0.8,0.9,2,1.6,3.3,2.1c1.4,0.5,3.1,0.7,5.1,0.8h13.4
		C562.8,114.6,565.8,114.2,568.4,113.4z"/>
	<path class="st0" d="M730.5,14.5h-0.6c-0.7,0-1.8,0.1-3.3,0.4c-1.5,0.3-3.1,1-4.9,2c-1.8,1-3.5,2.5-5.1,4.5c-1.7,2-3,4.7-3.9,8.2
		l-23.9,85.7h-0.8l-23.9-84.6l-23.5,84.6h-1l-24.2-85.8l-0.5-1.7c-1-3.4-2-6-3.1-7.7c-1.1-1.7-2.3-3-3.5-3.8
		c-1.3-0.8-2.6-1.2-3.9-1.3c-1.4-0.1-2.8-0.3-4.4-0.6h-0.1v-0.9h39.7v0.9h-0.4c-2.1,0-4.1,0.1-5.9,0.2c-1.9,0.1-3.3,0.6-4.5,1.5
		c-1.1,0.9-1.8,2.3-2.1,4.3c-0.2,2,0.2,4.9,1.3,8.6l17.8,63.6l17.8-63.6c-0.2-0.3-0.2-0.5-0.2-0.7c0-0.2,0-0.4-0.1-0.6
		c-1-3.4-2-6-3.1-7.7c-1.1-1.7-2.3-3-3.5-3.8c-1.3-0.8-2.6-1.2-4-1.3c-1.4-0.1-2.8-0.3-4.3-0.6h-0.1v-0.9h39.7v0.9h-0.4
		c-2.1,0-4.1,0-5.9,0.1c-1.8,0.1-3.3,0.6-4.5,1.5c-1.2,0.9-1.9,2.3-2.1,4.3c-0.2,2,0.2,4.9,1.3,8.7l17.8,63.6l18.4-66.2
		c0.7-2.8,0.6-5-0.4-6.6c-1-1.6-2.4-2.8-4.1-3.6c-1.7-0.8-3.4-1.4-5.3-1.6c-1.8-0.2-3.1-0.3-3.9-0.3h-0.7v-0.9h32.4V14.5z"/>
	<path class="st0" d="M739.2,83.2h0.8h0.1c0,1.8,0.2,3.8,0.6,5.9c0.4,2.2,1,4.3,1.7,6.5s1.6,4.2,2.7,6.2c1,2,2.2,3.5,3.5,4.7
		c2.6,2.4,5.5,4.2,8.7,5.5c3.2,1.3,6.7,2,10.3,2.1h1.1c3.6-0.2,7.1-0.9,10.3-2.2c3.5-1.7,6.2-4.1,8.2-7.3c2-3.1,3.1-6.5,3.2-10.1
		s-0.8-7.2-2.8-10.8c-2-3.6-5.3-6.7-9.9-9.2l-15.2-8.3c-5.1-2.7-9.1-5.7-12.1-9c-3-3.3-5.1-6.6-6.3-10.1c-1.3-3.4-1.7-6.9-1.4-10.2
		c0.3-3.4,1.3-6.6,2.9-9.5c1.6-3,3.8-5.6,6.5-7.9c2.7-2.3,5.8-4.1,9.3-5.5c1.6-0.7,3.2-1.1,4.8-1.4c1.6-0.3,3.3-0.4,5-0.4
		c3.8,0,7.4,0.7,10.9,2.2c1.3,0.5,2.7,1,4.1,1.5c1.5,0.5,2.9,0.8,4.4,0.9c1.5,0.1,2.8-0.2,4.1-0.8c1.3-0.6,2.4-1.7,3.4-3.4h0.8v27.2
		v0.4h-1c0-1.8-0.3-3.6-0.8-5.6c-0.5-2-1.2-3.8-2.1-5.7c-0.9-1.8-1.9-3.5-3-5.1c-1.1-1.6-2.3-2.9-3.4-4c-2.3-2.2-5-3.9-8-5
		c-3-1.1-6.1-1.7-9.4-1.7c-1.4,0-2.8,0.1-4.2,0.3c-1.4,0.2-2.8,0.5-4.1,1c-3.7,1.3-6.6,3.3-8.6,6.1s-2.9,6-2.5,9.7
		c0.4,3.7,2.2,7.5,5.4,11.6c3.2,4.1,8.3,8.2,15.1,12.3l13.9,7.5c4.4,2.5,7.9,5.4,10.5,8.7c2.7,3.4,4.4,6.9,5.3,10.5
		c0.9,3.6,0.9,7.3,0.1,10.9c-0.8,3.7-2.5,7-5,10.1c-2.5,3.1-5.9,5.8-10.1,8c-4.2,2.3-9.2,3.8-15.1,4.6h0.2c-0.6,0.1-1.2,0.2-1.8,0.2
		c-0.5,0-1.1,0.1-1.6,0.1h-1.2c-3.6,0-7.1-0.7-10.5-2.2v0.1v-0.1c-0.5-0.2-0.9-0.3-1.2-0.5c-3.3-1.4-6-2-8-2c-2,0-3.6,0.4-4.7,1
		c-1.1,0.6-1.8,1.4-2.2,2.3c-0.4,0.9-0.6,1.5-0.7,1.7v0.1h-0.8V83.2z"/>
</g>
</svg>
