<svg id="圖層_1" data-name="圖層 1" xmlns="http://www.w3.org/2000/svg" viewBox="0 0 50 200"><defs><style>.cls-1{fill:#ad181c;}</style></defs><path class="cls-1" d="M22,32.26c.13,0,.17.17.17.25,0,.33-2,1.44-2.35,1.65v6.4c0,1.45.16,2.93.24,4.38a27.77,27.77,0,0,1-3.26,1.12c.08-1.9.25-3.85.25-5.75V35.94a62.49,62.49,0,0,0-5.74,4L9.51,35.61,11.86,35V11.69h-.45l-.7.54L9.26,10c.79.08,1.7.24,2.52.24h7.64c.21-.29,1-1.52,1.49-1.52s2.48,2.14,2.48,2.56-.33.41-.58.41H20.33c-.16.21-.37.45-.53.7V32.88C20,32.8,21.86,32.26,22,32.26ZM17,17.72v-6H15.17l-.41.41v5.62Zm0,7.68V19.21H14.76V25.4Zm0,8.31V26.85H14.76v7.43Zm8.22,3c-.25.29-1.08,1.45-1.57,1.45a6.79,6.79,0,0,1-2.36-2.24,11,11,0,0,1,1.2-1.15v-4a9.55,9.55,0,0,0,0-1.07,9,9,0,0,1-.37-1.24c0-.21.25-.21.37-.21.62,0,3.39,1.16,3.39,1.7,0,.24-.41.57-.62.66v4.62h1.86c0-.49.08-1,.08-1.48a24.15,24.15,0,0,0-.41-5.7.23.23,0,0,1,.25-.29,28,28,0,0,1,3.26,1.19c.21.09.54.29.54.54s-.5.74-.79.95c0,3.22.12,7.39-1.32,10.33A8.92,8.92,0,0,1,26,43.66,16.13,16.13,0,0,1,21.37,46a6.34,6.34,0,0,1-.87.29.22.22,0,0,1-.21-.24.36.36,0,0,1,.25-.33,29.78,29.78,0,0,0,3.39-2.52c1.94-1.7,2.64-4.09,3.14-6.53ZM23.84,13.34A13.62,13.62,0,0,0,25,11c0-.21.74-3,.74-3a14.58,14.58,0,0,1,3.6,1.94,1,1,0,0,1,.16.29c0,.46-.91.62-1.24.7a58,58,0,0,1-5,6.82l3.35-.41a11.09,11.09,0,0,0,1.2-2.94A4.73,4.73,0,0,1,28,13.3c.08,0,.16,0,.24,0,.33,0,3,1.82,3,2.27s-.74.58-1,.66c-.74,1.16-1.45,2.36-2.27,3.43l-3.8,4.88,4-.25c-.29-.62-.45-1.28-.74-1.9,0,0-.33-.7-.33-.75s0-.08.16-.08a4.27,4.27,0,0,1,1.12.58c1.32.78,2.68,2.07,2.68,3.72a1.64,1.64,0,0,1-1.48,1.69c-1.24,0-1.37-1.16-1.37-2.06-2.06.57-4.09,1.28-6.11,2.06L20.87,24a5,5,0,0,0,1.65-.74c1.28-.91,2.6-3.19,3.31-4.63a33.45,33.45,0,0,0-3.93,1.69l-1.28-3.55C22.36,16.23,23.06,14.87,23.84,13.34Zm7.73,2.89a13.8,13.8,0,0,0,2.1-4.62,16.12,16.12,0,0,0,.54-3.1c0-.08.17-.17.21-.17.66,0,3.88,1.82,3.88,2.44,0,.29-.87.58-1.07.66-1.45,2.31-3,4.55-4.55,6.82L35.33,18a12.09,12.09,0,0,0,1-2.77c.08-.2.16-1.2.45-1.2.54,0,3.72,1.66,3.72,2.36,0,.2-1,.7-1.2.78C37.6,19.54,35.86,21.85,34,24l3.85-.12c0-.09,0-.21,0-.33,0-.62-.91-1.9-.91-2.23,0-.13.16-.13.25-.13a15.44,15.44,0,0,1,2.14,1.41,3.07,3.07,0,0,1,1.57,3c0,1.07-.2,2.06-1.48,2.06s-1.49-1.15-1.53-2.27A58.05,58.05,0,0,0,32.15,27L31,23.59a3.92,3.92,0,0,0,2.48-1.7l1.36-2.6a18.94,18.94,0,0,0-3.55,1.49L30,17.43A3.48,3.48,0,0,0,31.57,16.23Zm.49,15.7A15.35,15.35,0,0,0,32,29.58,16,16,0,0,1,31.57,28c0-.17.12-.25.29-.25.49,0,3.76,1.11,3.76,1.65,0,.33-.54.87-.75,1.07v4.84h1.9V31.47a7.65,7.65,0,0,0-.2-1.94,1.31,1.31,0,0,1-.21-.53c0-.21.08-.33.33-.33.54,0,3.68,1,3.68,1.52,0,.33-.67.75-.87.87v4.46c0,.79.08,1.61.12,2.44a15.5,15.5,0,0,1-3,.95l.16-2.15h-1.9v5.45c0,.95.13,1.95.21,2.94-1.08.41-2.15.78-3.22,1.07.08-1.36.2-2.81.2-4.17Z"/><path class="cls-1" d="M26,60.23H19.67v1.2h2.19c.21-.21.79-.91,1.16-.91s1.86,1.24,2.19,1.53a.61.61,0,0,1,.29.41c0,.25-.62.58-.79.66v2.27a17.84,17.84,0,0,0,.17,2.23,9.48,9.48,0,0,1-2.94,1l.17-1H19.67V69h4.67c.12-.13.83-1,1-1s2.07,1.56,2.07,2-.33.49-.62.49H19.67v2.9h2.19v-.87a1.38,1.38,0,0,0-.21-.79,2.85,2.85,0,0,1-.12-.58c0-.12,0-.2.17-.2s3.63.78,3.63,1.48c0,.34-.45.58-.7.71l0,1.2c0,.74.08.33.12,1a12.85,12.85,0,0,1-3,1.07l.08-1.69H15.09c-.13.2-1.2,1.36-1.53,1.36s-2.31-1.32-2.31-1.65.61-.74.74-.87v-.91a3.72,3.72,0,0,0-.08-1.15,1.41,1.41,0,0,1-.21-.54c0-.21.08-.25.25-.25s3.43.66,3.43,1.45c0,.29-.58.58-.75.7l0,.54H17V70.43H10.79l-.74.62L9,68.86c.91,0,2.4.13,3.31.13H17V67.58H14.51V68a25.73,25.73,0,0,1-2.85.86c.08-.91.2-2,.2-2.89V63.78a10.57,10.57,0,0,0-.24-2.23,3.2,3.2,0,0,1-.09-.62c0-.2.09-.29.29-.29a25.59,25.59,0,0,1,2.94.79H17v-1.2H12l-.7.58L10,58.66c.86.08,1.81.21,2.68.21H17v-.33a7.55,7.55,0,0,0-.17-1.37,8.9,8.9,0,0,1-.25-.86.29.29,0,0,1,.33-.29c.66,0,3.84.91,3.84,1.61,0,.41-.7.74-1,.87v.37H23c.2-.25.95-1.28,1.36-1.28S26,58.91,26.28,59.2a.78.78,0,0,1,.29.49A.54.54,0,0,1,26,60.23ZM21,89.52a4.3,4.3,0,0,1-.78.16,36,36,0,0,1-6,3.51,9.22,9.22,0,0,1-1.86.54c-.08,0-.25-.08-.29-.17s.21-.28.29-.37A16.06,16.06,0,0,0,14.92,91a16.09,16.09,0,0,0,2.48-3.14c.08-.12.21-.74.33-.74s.5-.21.7-.08c.54.29,2.94,1.53,3,2.14C21.45,89.43,21.28,89.52,21,89.52Zm15.29-2.19a1.27,1.27,0,0,1-1-.37,10.38,10.38,0,0,1-1.28-2.19l-6.41.86c.17.13.5.38.5.58s-.41.58-.62.7v4.47c0,2.6-1.9,2.56-3.92,2.8-.17-1.23-.25-2.1-1.49-2.72C22,91.38,21,91,21,90.76s.13-.25.29-.25a21.13,21.13,0,0,0,2.23.25c.66,0,1-.21,1-.91V85.92a72.52,72.52,0,0,0-9.66,1.37l-2.27-3.18a48.6,48.6,0,0,0,11-2.85l-6.9.74-.94-2.85c1.81-.17,3.13.08,4.75-.7a38.8,38.8,0,0,0,4.08-2.4L25.12,75c.42.29,2.94,2.15,2.94,2.64s-1.2.41-1.45.46a48.17,48.17,0,0,1-8,2.06l2.27.08c2.19-.08,3.92-.16,5.45-.2.75-.33,1.94-1.28,2.65-1.66.12-.12.53-1,.7-1s4.13,2.52,4.13,3.1-1.24.37-1.65.33c-2.69.62-9.09,2.11-12.56,3.35h1.82c3.26,0,8.88-.25,12.14-.33A5.51,5.51,0,0,0,32,82.16c-.12-.08-.7-.41-.7-.53s0-.29.25-.29c1.77,0,6.28,1.69,6.28,3.84C37.81,86.13,37.47,87.33,36.32,87.33ZM17,62.83H14.76l-.25.21v.78H17Zm0,2.4H14.51v1H17Zm5.16-2.4H19.67v1h2.44Zm0,2.4H19.67v1h2.44Zm18,9.33a6,6,0,0,0-2.4,2.32,30,30,0,0,1-5.16-3.22c-2.69,1-4.05,1.65-6.36,1.65-.17,0-.37-.13-.21-.21A18,18,0,0,0,30.91,72a11.52,11.52,0,0,1-2.52-3.8l-.91.42-1.53-2c.91.08,1.9.21,2.81.21h5.91c.28-.29.82-1.08,1.32-1.08s3.43,2,3.43,2.69c0,.5-1.12.54-1.49.62a23,23,0,0,1-3,2.85,28.69,28.69,0,0,0,5,1.86c.21,0,1,0,1,.29S40.32,74.48,40.12,74.56Zm-.25-10c-.45.5-2.4.5-3,.5-1.48,0-3.05.08-3.05-1.82V59.53H31.86l-.5.45c-.21,3.39-.58,4.3-3.72,5.87a4.84,4.84,0,0,1-1.07.45c-.08,0-.21-.08-.21-.16,0-.25.62-.87.75-1a8.18,8.18,0,0,0,1.44-4.88V59.12a8.56,8.56,0,0,0-.62-2c0-.16.29-.2.42-.2a14.43,14.43,0,0,1,3.42,1.28h1.78c.29-.38.74-1.2,1.32-1.2.33,0,2.65,1.36,2.65,1.86s-.71.74-1,1v1.9c0,.53,0,.78.62.78,1.12,0,1.24-.62,1.49-.62s1.74,1.78,1.74,2.07S40,64.49,39.87,64.61ZM29.09,68.16a9.13,9.13,0,0,0,3.22,2.69,19.07,19.07,0,0,0,2.23-2.69Zm7.48,25.2a2.08,2.08,0,0,1-1.7-1.08l-1.36-2.06A9.69,9.69,0,0,0,32,88.48,7.37,7.37,0,0,0,30,87s-.29-.17-.29-.25.16-.21.25-.21a8.26,8.26,0,0,1,.95.17c2,.2,7.39,2,7.39,4.38C38.26,92.16,37.85,93.36,36.57,93.36Z"/><path class="cls-1" d="M12.48,111.47a14.09,14.09,0,0,0-.28-2.27c0-.37-.34-.87-.34-1.2s.21-.24.29-.24l2.4.74a9.62,9.62,0,0,0,1.94-2.85.6.6,0,0,1,.41,0c.05,0,1.16,1.36,1.33,1.57a1.6,1.6,0,0,1,.49.87.36.36,0,0,1,0,.2c-.08.17-.74.29-.95.33a7.46,7.46,0,0,0-2,.75l-.29.58.21,5h.9c.13-.2.38-.86.71-.86s1.48,1.48,1.48,1.9-.37.33-.57.33H15.71l0,5.66h.53c.09-.13.71-1,.95-1a4.29,4.29,0,0,1,1.57,1.82c0,.33-.37.5-.61.5H15.83l.08,6.81H19V109.7a12.45,12.45,0,0,0-.12-2.11c0-.29-.37-1.36-.37-1.49s.08-.24.2-.24A14,14,0,0,1,22,107.38h5.61c.13-.16.83-1.32,1.16-1.32a9.62,9.62,0,0,1,2.11,1.16c.2.12.53.37.53.66s-.66.83-.9,1l0,21.15h3.09l.29-6.57H32.23l-.54.58-1-2.06a21.93,21.93,0,0,0,3.22.12l.29-5.62H32.48l-.71.46L31,115a17.46,17.46,0,0,0,3.31.17l.16-5.62H33.34l-.66.33-.74-2a11.2,11.2,0,0,0,2.4.12c.12-.2.95-1.44,1.4-1.44a13.09,13.09,0,0,1,2.68,1.69c.13.12.62.45.62.66,0,.41-1,1.12-1.28,1.28l-1,20.16s1.41-1.94,1.82-1.94c.25,0,.83.53,1,.7s1.74,1.4,1.74,2a.49.49,0,0,1-.54.5H10.54l-.7.49-1.16-2.19a23.43,23.43,0,0,0,4.18.21ZM9.76,143c0-.21.54-.58.66-.7,1.9-1.61,6.9-7,8-9.13.17-.33.29-.75.46-1.08a.24.24,0,0,1,.16,0,13.5,13.5,0,0,1,1.65.7c.54.21,2.85,1.29,2.85,1.82s-1.48.83-1.77,1c-.62.38-2.77,2.32-3.14,2.65A31.46,31.46,0,0,1,11,142.78a5.67,5.67,0,0,1-1,.38A.2.2,0,0,1,9.76,143ZM28,130.06V108.62H21.86l-.45.66v20.78Zm-4.63-17.39H25c.21-.2.79-1.07,1.16-1.07s1.24,1.2,1.4,1.4a1.22,1.22,0,0,1,.29.62c0,.33-.33.41-.58.41h-4l-.58.46-.95-2C22.31,112.55,22.89,112.67,23.39,112.67Zm2.48,4.13a6.35,6.35,0,0,1,2,1.28c0,.25-.62.79-.74.91v5c0,.83.12,1.73.2,2.56a13.7,13.7,0,0,1-2.1.58l.16-1.82H24.09v1.53a13.57,13.57,0,0,0-1.9.87c0-1.08.17-2.23.17-3.31v-4.87c0-.41-.05-.83-.09-1.24S22,117.13,22,116.8c0-.12.05-.2.17-.2a9.67,9.67,0,0,1,2.11,1h.95C25.29,117.46,25.66,116.8,25.87,116.8Zm-.46,2H24.34l-.25.41v4.83h1.32Zm1.16,13.75a18.15,18.15,0,0,1,2,.46c2.89.62,9.17,3.88,9.17,7.27a2.27,2.27,0,0,1-2.1,2.43,2.23,2.23,0,0,1-1.82-1.07,10.18,10.18,0,0,1-1-1.86A15.89,15.89,0,0,0,29,134.89a14.24,14.24,0,0,0-1.78-1.28c-.21-.16-.91-.57-.91-.82S26.45,132.58,26.57,132.58Z"/><path class="cls-1" d="M13.72,167.7h-2.6l-.66.54-1.28-2.19c.74,0,1.53.16,2.27.16h2.27v-5.49a22.2,22.2,0,0,0-.24-2.81c0-.5-.42-1.07-.42-1.4,0-.17,0-.25.25-.25a9.06,9.06,0,0,1,1.9.53c.46.13,2.85.75,2.85,1.29,0,.33-.95,1-1.2,1.19v6.94h.29c.17-.25,1-1.48,1.45-1.48A6.7,6.7,0,0,1,21,167.29c0,.29-.29.41-.53.41H16.86v10.78c1-.12,2.69-.7,3.35-.7.12,0,.33,0,.33.16s-1,.75-1.12.87c-2.68,1.69-5.24,3.47-7.8,5.37l-2.19-4.46a25.26,25.26,0,0,0,4.29-.58ZM29.38,163c-.13-2.15-.21-4.34-.46-6.49a10.3,10.3,0,0,0-.41-2.06,2.48,2.48,0,0,1-.29-.74c0-.21.21-.25.42-.25.57,0,4.62,1.28,4.62,1.65s-.82,1.16-1,1.36c.12,2.19.21,4.34.29,6.53h3.26c.21-.25,1.16-1.57,1.61-1.57s.83.41,1.12.62,1.86,1.45,1.86,2c0,.37-.33.46-.67.46H32.52A59.9,59.9,0,0,0,34,176.17a27.7,27.7,0,0,0,1.33-6h.16c.7,0,4.3,1.44,4.3,2,0,.37-.83.62-1.12.7A54.21,54.21,0,0,1,35.29,181a17,17,0,0,0,1.81,3.8c.13.21.71,1.08.91,1.08.62,0,1.45-3.52,1.78-3.52s.29.17.29.38a47.53,47.53,0,0,0-.58,4.87,6.94,6.94,0,0,0,.33,2.07c.16.41.82,1.57.82,1.77s-.37.54-.66.54c-2.8,0-5.82-5.45-6.77-7.68A26.69,26.69,0,0,1,26.49,190c-.21.09-.66.42-.87.42-.12-.25,0-.38,0-.42,1.2-1.4,2.4-2.81,3.47-4.29A34.24,34.24,0,0,0,32,181a48.06,48.06,0,0,1-1.53-6.32L30,171.58c0,2.07-.17,4.09-.25,6.16-.12,2.48-.41,5.78-2.56,7.35a7.78,7.78,0,0,1-2.44,1.11c-.08-.78-.33-2.35-1-2.85l-1-.78a18.94,18.94,0,0,1-.83,1.86,21.76,21.76,0,0,1-3.92,5c-.74.61-1.49,1.23-2.23,1.81-.17.13-.91.79-1.12.79s-.08-.17-.08-.21a.57.57,0,0,1,0-.25c2-2.52,3.51-4.38,4.59-7.43a30,30,0,0,0,1.28-4.17,69.73,69.73,0,0,0,.91-13.47,22.11,22.11,0,0,0-.21-3.72c-.08-.41-.45-1.07-.45-1.36a.4.4,0,0,1,.41-.29c.95,0,4,1.53,4.79,1.86Zm-4.67,19.29a1.46,1.46,0,0,0,1.41-.91c.78-2.06.86-7.85.95-10H24.5c-.24,4.42-.28,6.65-1.52,10.78C23.51,182.12,24.13,182.24,24.71,182.24ZM26.57,170c.08-.08.87-1.16,1-1.16a26,26,0,0,1,2.4,1.62,4,4,0,0,1-.25.57s-.08-.16-.08-.2a4.17,4.17,0,0,1,0-.7c-.09-1.08-.09-2.11-.09-3.19v-2.39H25.25l-.54.66L24.63,170ZM34,154.77a7.37,7.37,0,0,1,1.41.54,9.66,9.66,0,0,1,1,.54c1.2.7,2.52,1.61,2.52,3.18a2.05,2.05,0,0,1-1.82,2.18,1.69,1.69,0,0,1-1.4-.78,4,4,0,0,1-.29-1.2,6.2,6.2,0,0,0-1.57-3.92.69.69,0,0,1-.21-.37C33.59,154.77,33.84,154.77,34,154.77Z"/></svg>