<?xml version="1.0" encoding="utf-8"?>
<!-- Generator: Adobe Illustrator 24.1.1, SVG Export Plug-In . SVG Version: 6.00 Build 0)  -->
<svg version="1.1" id="圖層_1" xmlns="http://www.w3.org/2000/svg" xmlns:xlink="http://www.w3.org/1999/xlink" x="0px" y="0px"
	 viewBox="0 0 100 100" style="enable-background:new 0 0 100 100;" xml:space="preserve">
<style type="text/css">
	.st0{fill:#E60012;}
</style>
<path class="st0" d="M50,2C23.5,2,2,23.5,2,50s21.5,48,48,48s48-21.5,48-48S76.5,2,50,2z M44.7,73.2c-7.1-7.2-13.5-15.6-16.1-25.4
	c-0.6-2.4-1.1-5-0.6-7.4c0.5-2.4,2.1-4.8,4.4-5.6c2.4-0.9,5.1-0.1,7.1,1.5s3.4,3.8,4.5,6.1c1.4,2.8,2.6,5.6,3.5,8.6
	c-0.9-4.2,2.8-7.9,6.5-10.2c5.6-3.5,13.4-5.6,18.6-1.6c4.2,3.2,5.2,9.4,3.4,14.4s-6,8.7-10.5,11.4c-9.2,5.4-20,7.1-30.5,8.6"/>
</svg>
