<svg id="圖層_1" data-name="圖層 1" xmlns="http://www.w3.org/2000/svg" viewBox="0 0 100 100"><defs><style>.cls-1{fill:#fff;}</style></defs><path class="cls-1" d="M92.68,28.43A48,48,0,1,0,49.55,98.37l.06-30.51H41.68A1.87,1.87,0,0,1,39.81,66l0-9.83a1.86,1.86,0,0,1,1.87-1.88h7.91V44.77c0-11,6.74-17,16.58-17h8.08a1.87,1.87,0,0,1,1.87,1.87v8.3a1.87,1.87,0,0,1-1.87,1.87h-5c-5.35,0-6.39,2.55-6.39,6.28v8.23H74.62a1.87,1.87,0,0,1,1.86,2.09l-1.17,9.84a1.87,1.87,0,0,1-1.85,1.65H62.92l-.05,28.77a48,48,0,0,0,29.81-68.2Z"/></svg>