<?xml version="1.0" encoding="utf-8"?>
<!-- Generator: Adobe Illustrator 24.1.1, SVG Export Plug-In . SVG Version: 6.00 Build 0)  -->
<svg version="1.1" id="圖層_1" xmlns="http://www.w3.org/2000/svg" xmlns:xlink="http://www.w3.org/1999/xlink" x="0px" y="0px"
	 viewBox="0 0 100 100" style="enable-background:new 0 0 100 100;" xml:space="preserve">
<style type="text/css">
	.st0{fill:#FFFFFF;}
	.st1{display:none;}
	.st2{display:inline;fill:#FFFFFF;}
	.st3{display:inline;}
</style>
<g id="圖層_1_1_">
	<g>
		<path class="st0" d="M50.1,1.2C23.3,1.2,1.6,22.9,1.6,49.7s21.7,48.5,48.5,48.5s48.5-21.7,48.5-48.5S76.9,1.2,50.1,1.2z
			 M73.4,47.7c-2.1,5.9-5,11.2-8.3,16.5c-4.5,7.2-9.4,14.1-14.7,20.6c-0.1,0.1-0.2,0.2-0.4,0.4c-1.2-1.6-2.4-3.1-3.6-4.7
			C40.6,72.9,35.2,65,30.7,56.4c-2.1-4-4-8.2-5-12.6c-1.9-8.3,0.4-15.6,6.1-21.7c6.8-7.2,15.4-9.7,25-7.1s15.6,9.3,17.9,19
			C75.7,38.8,75.1,43.2,73.4,47.7z"/>
		<path class="st0" d="M50,24.4c-8.2,0-14.8,6.8-14.7,14.8c0,8.2,6.6,14.8,14.8,14.8s14.8-6.6,14.8-14.8S58.2,24.4,50,24.4z
			 M50.1,49.3c-5.7,0-10.1-4.6-10.2-10.1c0-5.7,4.6-10.2,10.2-10.2c5.6,0,10.1,4.6,10.1,10.2C60.3,44.8,55.8,49.3,50.1,49.3z"/>
	</g>
</g>
<g id="圖層_2_1_" class="st1">
	<path class="st2" d="M277,26v2c0,0.3-0.3,0.5-0.5,0.5h-8c-0.3,0-0.5-0.2-0.5-0.5l0,0l0,0V15.5c0-0.3,0.2-0.5,0.5-0.5l0,0h2
		c0.3,0,0.5,0.2,0.5,0.5l0,0v9.9h5.5C276.8,25.4,277,25.7,277,26z M295.1,15h-2c-0.3,0-0.5,0.2-0.5,0.5l0,0v7.4l-5.7-7.7l0,0l0,0
		l0,0l0,0l0,0l0,0l0,0l0,0l0,0h-2.5c-0.3,0-0.5,0.2-0.5,0.5l0,0V28c0,0.3,0.2,0.5,0.5,0.5l0,0h2c0.3,0,0.5-0.2,0.6-0.5v-7.4l5.7,7.7
		c0,0.1,0.1,0.1,0.1,0.1l0,0l0,0h0.1h0.2h2c0.3,0,0.5-0.2,0.5-0.5V15.5C295.6,15.2,295.4,15,295.1,15z M281.3,15h-2
		c-0.3,0-0.5,0.2-0.6,0.5V28c0,0.3,0.3,0.5,0.6,0.5h2c0.3,0,0.5-0.2,0.5-0.5l0,0V15.5C281.9,15.2,281.6,15,281.3,15L281.3,15z
		 M335.1,21.8c0,26.5-21.5,48-48,48s-48-21.5-48-48s21.5-48,48-48S335.1-4.7,335.1,21.8z M309.6,35.4c4.2-4.5,6.1-9.2,6.1-14.3
		C315.7,8.4,302.9-2,287.1-2s-28.6,10.4-28.6,23.2c0,11.5,10.2,21.1,23.9,22.9c0.9,0.2,2.2,0.6,2.5,1.4c0.2,0.8,0.3,1.7,0.1,2.6
		c0,0-0.3,2-0.4,2.4c-0.1,0.7-0.6,2.8,2.5,1.5S303.6,42.3,309.6,35.4L309.6,35.4z M306.2,15h-8.1c-0.3,0-0.5,0.2-0.5,0.5l0,0l0,0
		l0,0V28l0,0c0,0.3,0.2,0.5,0.5,0.5l0,0h8c0.3,0,0.5-0.2,0.5-0.5v-2c0-0.3-0.2-0.5-0.5-0.5l0,0h-5.4v-2.1h5.5c0.3,0,0.5-0.2,0.5-0.5
		l0,0v-2c0-0.3-0.2-0.5-0.5-0.5l0,0h-5.5v-2.1h5.5c0.3,0,0.5-0.2,0.5-0.5l0,0v-2C306.8,15.3,306.6,15,306.2,15L306.2,15z"/>
	<path class="st3" d="M252,107.8c-8.8-2.4-16.6-0.2-22.9,6.5c-5.2,5.6-7.3,12.3-5.6,19.9c0.9,4.1,2.7,7.9,4.6,11.6
		c4.1,7.8,9.1,15,14.4,22.1c1.1,1.4,2.2,2.8,3.3,4.3c0.2-0.2,0.3-0.3,0.4-0.4c4.9-6,9.4-12.3,13.5-18.9c3-4.8,5.7-9.8,7.6-15.1
		c1.4-4.1,2.1-8.2,1.1-12.5C266.3,116.3,260.8,110.3,252,107.8z M246,143.5c-7.5,0-13.6-6.1-13.6-13.5c0-7.5,6.1-13.6,13.5-13.6
		c7.5,0,13.6,6.1,13.6,13.5C259.6,137.3,253.5,143.5,246,143.5z"/>
	<path class="st3" d="M246,120.6c-5.2,0-9.4,4.2-9.4,9.4c0,5.1,4.2,9.3,9.4,9.3s9.3-4.2,9.3-9.3C255.3,124.8,251.1,120.6,246,120.6z
		"/>
</g>
</svg>
