<?xml version="1.0" encoding="utf-8"?>
<!-- Generator: Adobe Illustrator 24.1.1, SVG Export Plug-In . SVG Version: 6.00 Build 0)  -->
<svg version="1.1" id="圖層_1" xmlns="http://www.w3.org/2000/svg" xmlns:xlink="http://www.w3.org/1999/xlink" x="0px" y="0px"
	 viewBox="0 0 100 100" style="enable-background:new 0 0 100 100;" xml:space="preserve">
<style type="text/css">
	.st0{fill:#E60012;}
</style>
<path class="st0" d="M92.7,28.4C80.6,4.9,51.6-4.4,28,7.7S-4.8,48.7,7.3,72.3c8.2,15.9,24.4,25.9,42.3,26.1l0.1-30.5h-7.9
	c-1,0-1.9-0.8-1.9-1.9v-9.8c0-1,0.8-1.9,1.8-1.9c0,0,0,0,0,0h7.9v-9.5c0-11,6.7-17,16.6-17h8.1c1,0,1.9,0.8,1.9,1.9c0,0,0,0,0,0v8.3
	c0,1-0.8,1.9-1.9,1.9l0,0h-5c-5.3,0-6.4,2.5-6.4,6.3v8.2h11.8c1,0,1.9,0.8,1.9,1.9c0,0.1,0,0.1,0,0.2l-1.2,9.8
	c-0.1,0.9-0.9,1.6-1.8,1.7H62.9l0,28.8c25.5-7.1,40.5-33.6,33.4-59.1C95.4,34.4,94.2,31.4,92.7,28.4L92.7,28.4z"/>
</svg>
