<svg id="圖層_1" data-name="圖層 1" xmlns="http://www.w3.org/2000/svg" viewBox="0 0 100 100"><defs><style>.cls-1{fill:#fff;}</style></defs><path class="cls-1" d="M39.92,54.12v2a.55.55,0,0,1-.55.54h-8a.54.54,0,0,1-.54-.54h0V43.67a.54.54,0,0,1,.54-.54h2a.54.54,0,0,1,.54.54v9.9h5.46A.55.55,0,0,1,39.92,54.12ZM58,43.13H56a.54.54,0,0,0-.55.54v7.41l-5.71-7.71,0,0h0l0,0h0l0,0h0l0,0h0l0,0H47.24a.54.54,0,0,0-.54.54V56.15a.54.54,0,0,0,.54.54h2a.55.55,0,0,0,.55-.54V48.74l5.71,7.72a.57.57,0,0,0,.14.13h0l0,0h.13l.15,0h2a.55.55,0,0,0,.55-.54V43.67A.55.55,0,0,0,58,43.13Zm-13.8,0h-2a.55.55,0,0,0-.55.54V56.15a.55.55,0,0,0,.55.54h2a.54.54,0,0,0,.55-.54V43.67A.54.54,0,0,0,44.2,43.13ZM98,50A48,48,0,1,1,50,2,48,48,0,0,1,98,50ZM72.45,63.58c4.15-4.54,6.13-9.15,6.13-14.27,0-12.79-12.82-23.2-28.58-23.2S21.42,36.52,21.42,49.31c0,11.46,10.17,21.06,23.9,22.88.93.2,2.2.61,2.52,1.41a5.77,5.77,0,0,1,.09,2.58s-.33,2-.41,2.45c-.12.72-.57,2.83,2.48,1.54s16.46-9.69,22.46-16.59ZM69.07,43.13H61a.54.54,0,0,0-.54.54v0h0V56.14h0a.54.54,0,0,0,.54.54h8a.55.55,0,0,0,.55-.54v-2a.55.55,0,0,0-.55-.55H63.62v-2.1h5.45a.55.55,0,0,0,.55-.55v-2a.55.55,0,0,0-.55-.55H63.62v-2.1h5.45a.55.55,0,0,0,.55-.55v-2A.55.55,0,0,0,69.07,43.13Z"/></svg>