<?xml version="1.0" encoding="utf-8"?>
<!-- Generator: Adobe Illustrator 24.1.1, SVG Export Plug-In . SVG Version: 6.00 Build 0)  -->
<svg version="1.1" id="圖層_1" xmlns="http://www.w3.org/2000/svg" xmlns:xlink="http://www.w3.org/1999/xlink" x="0px" y="0px"
	 viewBox="0 0 500 100" style="enable-background:new 0 0 500 100;" xml:space="preserve">
<style type="text/css">
	.st0{fill:#FFFFFF;}
</style>
<path class="st0" d="M23.1,30.8c-0.3,1-1,1.9-1.8,2.5c-1,0.7-2.1,1.1-3.3,1.1c-1.1,0-2.2-0.2-3.1-0.7c-1-0.5-1.7-1.4-2.2-2.4
	c-0.5-1.1-0.7-2.3-0.6-3.5c0.1-1.1,0.5-2.1,1.1-2.9c0.6-0.8,1.4-1.3,2.4-1.6c-0.9-0.3-1.6-0.9-2.1-1.7c-0.4-0.6-0.7-1.4-0.7-2.1
	c0-1.1,0.3-2.2,0.9-3.1c0.8-1.1,1.9-1.8,3.3-2c1.5-0.2,3.1,0.2,4.3,1.3c0.9,0.9,1.5,2.2,1.6,3.5c0.2,1.8-0.9,3.6-2.5,4.3
	c1.5,0.6,2.7,1.9,3,3.6C23.6,28.3,23.5,29.6,23.1,30.8z M20.4,25.8c-0.4-0.8-1.1-1.4-2-1.6c-0.7-0.2-1.4-0.1-2.1,0.2
	c-0.9,0.5-1.5,1.3-1.7,2.3c-0.3,1.4-0.3,2.9,0.2,4.3c0.3,0.8,0.9,1.5,1.6,2c0.7,0.3,1.4,0.4,2.1,0.2c0.9-0.2,1.6-0.9,2-1.8
	C21.3,29.7,21.2,27.6,20.4,25.8L20.4,25.8z M19.8,16.7c-0.2-0.5-0.7-0.9-1.2-1.1c-0.5-0.2-1.1-0.2-1.7,0c-0.6,0.3-1.1,0.8-1.3,1.4
	c-0.4,1.1-0.5,2.4-0.3,3.6c0.1,0.7,0.5,1.4,1.1,1.8c0.6,0.5,1.4,0.6,2.1,0.4c0.7-0.3,1.3-0.8,1.5-1.5C20.6,19.8,20.5,18.2,19.8,16.7
	L19.8,16.7z"/>
<path class="st0" d="M34.2,33.2c-0.9,0.8-2.1,1.2-3.3,1.2c-1.4,0-2.7-0.6-3.6-1.6c-0.9-1.1-1.5-2.4-1.7-3.8
	c-0.3-1.6-0.4-3.2-0.3-4.7c0-1.8,0.1-3.5,0.5-5.2c0.3-1.3,0.9-2.4,1.8-3.4c1-1,2.4-1.5,3.9-1.3c1.3,0.1,2.4,0.7,3.2,1.8
	c0.7,1,1.2,2,1.4,3.2c0.4,1.6,0.5,3.3,0.5,4.9c0.1,1.9-0.1,3.8-0.5,5.7C35.8,31.2,35.1,32.3,34.2,33.2z M33.7,19
	c-0.2-0.9-0.5-1.7-1-2.4c-0.4-0.6-1-1-1.8-1c-0.6,0.1-1.2,0.4-1.6,0.9c-0.6,0.7-1,1.6-1.2,2.5c-0.7,3.8-0.6,7.7,0.2,11.5
	c0.2,1,0.8,1.9,1.6,2.5c0.8,0.4,1.7,0.3,2.4-0.3c0.8-0.8,1.4-1.9,1.5-3C34.3,26.2,34.3,22.6,33.7,19z"/>
<path class="st0" d="M46.3,22.3c-0.8,2.4-1.3,5-1.5,7.5c-0.1,1.1-0.1,2.3-0.2,3.4c0,0.5-0.3,0.9-0.7,1.1c-0.5,0.2-1.1,0.1-1.5-0.3
	c-0.5-0.5-0.8-1.1-0.8-1.8c0-1.2,0.2-2.5,0.5-3.7c0.6-2.4,1.5-4.8,2.8-7c0.9-1.6,1.9-3.1,3-4.6h-5.8c-0.7,0-1.3,0.4-1.6,1
	c-0.4,0.9-0.7,1.8-0.9,2.8h-1l1.2-6.2h9.9v2.3C48.1,18.4,47,20.3,46.3,22.3z"/>
<path class="st0" d="M70.7,16.5c0.1-0.1,1-1.3,1.4-1.3s0.5,0.2,0.6,0.4s1.3,1.3,1.3,1.6c0,0.2-0.2,0.2-0.3,0.2H55.4L55,17.7l-1-1.4
	c0.6,0,1.2,0.2,1.7,0.2H70.7z M56.1,27.5c0-0.4,0-0.9-0.1-1.3c-0.1-0.3-0.1-0.6-0.2-0.9c0-0.1,0.1-0.2,0.2-0.2
	c0.2,0.1,0.5,0.1,0.7,0.2c0.7,0.3,1.4,0.7,2.1,1.2h10.8c0.1-0.1,0.7-1.1,1-1.1c0.3,0.1,0.5,0.2,0.8,0.4c0.1,0,1.7,0.9,1.7,1.2
	s-0.7,0.8-0.8,0.9v7.3c0,0.3,0,0.7-0.2,1c-0.5,0.5-1.2,0.8-1.9,1l-1.2,0.2c0-1.3-1-1.7-2.1-2.2c-0.1-0.1-0.2-0.1-0.2-0.2
	s0.1-0.1,0.2-0.1c0.3,0,0.6,0,0.8,0c0.4,0.1,0.8,0.1,1.3,0.1c0.7,0,1.1,0.1,1.1-0.7v-6.8H58.6l-0.2,0.1v6.7c0,0.9,0.1,1.7,0.1,2.6
	c-0.8,0.3-1.7,0.4-2.5,0.5c0-0.9,0.2-1.8,0.2-2.8V27.5z M66.7,19.7c0.1-0.2,0.8-1,1-1c0.6,0.3,1.3,0.6,1.8,1c0.1,0,0.5,0.3,0.5,0.5
	s-0.5,0.6-0.7,0.7v2.3c0,0.5,0.1,0.9,0.1,1.4c-0.8,0.3-1.7,0.5-2.5,0.5l0.1-1.2h-5.9v0.7c-0.8,0.3-1.6,0.4-2.4,0.5
	c0-0.5,0.1-1.1,0.1-1.6v-2.9c0-0.3,0-0.6,0-0.9c0-0.4-0.3-0.8-0.3-1s0-0.1,0.1-0.1c1,0.3,1.9,0.7,2.8,1.1L66.7,19.7z M65.2,29.5
	c0.1-0.2,0.7-0.9,0.9-0.9s2,1.1,2,1.4s-0.5,0.6-0.7,0.7v1.9c0,0.5,0.1,0.9,0.1,1.4c-0.7,0.3-1.4,0.4-2.1,0.5l0.1-1h-2.8V34
	c-0.6,0.3-1.3,0.4-2,0.5c0-0.5,0.1-1,0.1-1.5v-2.8c0-0.4,0-0.8-0.2-1.2c-0.1-0.1-0.1-0.2-0.1-0.3c0-0.1,0-0.2,0.1-0.2
	c0.1,0,0.2,0,0.3,0.1c0.7,0.3,1.4,0.6,2,1L65.2,29.5z M67,23v-2.5h-5.7l-0.2,0.3V23H67z M62.1,11.7c0.6,0.1,1.3,0.4,1.8,0.6
	c1.1,0.3,1.8,1.2,1.9,2.4c0,0.7-0.5,1.3-1.2,1.3c0,0,0,0-0.1,0c-0.4,0-0.8-0.1-1-0.4c-0.3-0.7-0.5-1.4-0.7-2.2
	c-0.2-0.6-0.5-1-0.9-1.4c0,0-0.1-0.1-0.1-0.2C61.9,11.8,62,11.7,62.1,11.7z M65.5,32.5v-2.1h-2.7l-0.2,0.2v1.8H65.5z"/>
<path class="st0" d="M82.2,19l-0.4,0.3L80.9,18c0.5,0,1,0.1,1.4,0.1h1.5c0.4-1.6,0.6-3.3,0.7-4.9c0-0.3,0-0.6,0-1
	c0-0.1,0-0.3,0.2-0.3c0.6,0.2,1.2,0.4,1.8,0.6c0.3,0.1,1.4,0.5,1.4,0.9s-0.5,0.6-0.7,0.7c-0.3,1.4-0.6,2.7-1,4.1h1.5
	c0.2-0.1,0.8-0.8,1-0.8s1.6,1.1,1.6,1.5S89.9,19,89.7,19h-3.9c-1.3,4.1-2.2,7.1-4.9,10.5c-0.1,0.1-0.4,0.6-0.6,0.6s-0.1-0.1-0.1-0.2
	c0.1-0.3,0.2-0.5,0.3-0.8C81.9,26,83,22.5,83.6,19H82.2z M87.6,30.4c0-0.6-0.1-1.1-0.4-1.6c-0.2-0.3-0.3-0.5-0.4-0.8
	c0.3-0.1,1.1,0.6,1.3,0.8c1,0.7,1.6,1.8,1.8,3c0,0.8-0.3,1.6-1.3,1.6s-0.9-1.4-1-2.1c-1.6,0.6-3.2,1.4-4.6,2.5l-1.4-2.5
	c0.4-0.2,0.8-0.5,1.1-0.9c0.9-1,2.3-4.7,2.7-6.1c0.2-0.7,0.4-1.3,0.5-2c0-0.2,0.1-0.4,0.1-0.6c0,0,0.1-0.1,0.1-0.1
	c0.4,0,2.5,1.3,2.5,1.6s-0.5,0.4-0.7,0.5c-1.3,2.5-2.7,4.9-4.2,7.2L87.6,30.4z M92.5,18.9c0.4,0,0.8,0.2,1.1,0.5h4.6
	c0.1-0.1,0.9-1,1.1-1s1.7,1.4,1.7,1.6s-0.3,0.4-0.5,0.4h-2.9l-0.2,0.4v3.1h0.9c0.2-0.2,0.8-0.9,1.1-0.9s1.3,1.3,1.3,1.5
	s-0.1,0.2-0.3,0.2h-3v3.4H98c0.2-0.2,0.8-0.9,1-0.9s1.3,1.2,1.3,1.5s-0.2,0.3-0.4,0.3h-2.7v4.7h1.3c0.2-0.2,0.8-1,1.2-1
	s1.4,1.2,1.4,1.6c0,0.2-0.1,0.4-0.3,0.4h-8v1.8c-0.7,0.4-1.4,0.6-2.2,0.6c0.1-1.2,0.2-2.4,0.2-3.5V22.2c-0.7,1.4-1.5,2.7-2.4,3.9
	c-0.1,0.1-0.6,0.8-0.8,0.8s-0.1-0.1-0.1-0.1c0.1-0.4,0.3-0.7,0.5-1c0.5-1.1,1-2.2,1.4-3.3c0.7-2.1,2.4-7.9,2.3-10.1
	c0-0.1,0.1-0.1,0.2-0.1c0.4,0,3,0.9,3,1.3c0,0.2-0.3,0.4-0.5,0.5C93.8,15.6,93.2,17.3,92.5,18.9L92.5,18.9z M95.4,20.3h-2.3
	l-0.2,0.5v3h2.4V20.3z M95.4,28.2v-3.4h-2.4v3.4L95.4,28.2z M95.4,33.8v-4.7h-2.4v4.7L95.4,33.8z M96.6,18c-0.6,0-1.1-0.5-1.1-1.1
	c0,0,0,0,0-0.1c0-0.5,0-1,0-1.5c0-0.8-0.2-1.6-0.6-2.4c-0.1-0.1-0.2-0.3-0.2-0.4c0.3-0.1,0.8,0.4,1,0.4c1.1,0.7,1.9,1.9,2.1,3.2
	C97.8,17.1,97.5,18,96.6,18z"/>
<path class="st0" d="M119.1,19.3c0,0.2-0.6,0.6-0.8,0.8v2.3h3.6c0.1-0.1,0.9-0.9,1-0.9c0.3,0.1,0.5,0.2,0.7,0.4
	c0.2,0.1,1.5,0.9,1.5,1.3s-0.5,0.6-0.8,0.7v7.6c0,0.5,0,0.9-0.2,1.4c-0.5,1-2.2,1.3-3.2,1.4c0-1-0.1-1.6-1.1-2.1
	c-0.1,0-0.9-0.4-0.9-0.5s0.1-0.2,0.2-0.2c0.7,0.1,1.3,0.2,2,0.2c0.6,0,0.8-0.1,0.8-0.8v-7.7h-3.8v10.4c0,1,0.1,2,0.1,3
	c-0.8,0.3-1.7,0.5-2.6,0.6c0.1-1.2,0.2-2.4,0.2-3.6V23.2h-3.6l-0.5,0.5v7c0,0.7,0.1,1.4,0.1,2.1c-0.8,0.3-1.6,0.5-2.5,0.6
	c0.1-0.9,0.2-1.8,0.2-2.7v-7c0-0.8-0.1-1.5-0.2-2.3c0-0.1-0.1-0.3-0.1-0.4c0-0.1,0.2-0.2,0.3-0.2c1.1,0.3,2.1,0.7,3.1,1.3h3.1v-2.1
	c0-0.7-0.1-1.4-0.1-2.2h-7.1l-0.5,0.4l-1-1.5c0.5,0.1,1.1,0.1,1.6,0.2h15.6c0.1-0.1,1.1-1.3,1.4-1.3s0.6,0.4,0.8,0.5s1.2,1,1.2,1.4
	c0,0.1-0.1,0.3-0.3,0.3h-11C117.1,18.1,119.1,18.8,119.1,19.3z M116,13.3c-0.3-0.4-0.6-0.8-1-1.1c0-0.1-0.1-0.1-0.1-0.2
	s0.1-0.1,0.2-0.1c0.8,0.1,1.6,0.3,2.3,0.6c0.9,0.4,1.9,1,1.9,2.1c0.1,0.8-0.6,1.6-1.4,1.6c-0.1,0-0.1,0-0.2,0
	C116.1,16.2,116.5,14.2,116,13.3L116,13.3z"/>
<path class="st0" d="M152,32.4c0.2,0,0.4,0.3,0.5,0.3l1.5,1.5c0.2,0.1,0.3,0.3,0.3,0.5c0,0.2-0.2,0.3-0.4,0.3h-18.3l-0.4,0.3
	l-0.9-1.4c0.5,0,1.1,0.1,1.6,0.1h14.4C150.3,33.9,151.7,32.4,152,32.4z M150.4,14.1c0.1-0.1,0.4-0.4,0.5-0.4s0.4,0.2,0.4,0.3
	l1.6,1.7c0.1,0,0.1,0.1,0.1,0.2s-0.1,0.3-0.2,0.3h-16l-0.5,0.4l-0.9-1.4c0.5,0,1.1,0.1,1.6,0.1h12.3L150.4,14.1z M149.3,21.9
	c0.2,0,0.3,0.2,0.4,0.3l1.6,1.8c0.1,0.1,0.2,0.2,0.2,0.3c0,0.2-0.2,0.2-0.4,0.2h-12.5l-0.5,0.4l-0.9-1.5c0.5,0.1,1.1,0.1,1.6,0.1
	h9.1C148,23.3,149.1,21.9,149.3,21.9L149.3,21.9z"/>
<path class="st0" d="M175.5,14.1c0.1-0.2,0.9-1.1,1.2-1.1c0.2,0,0.4,0.1,0.5,0.2c0.2,0.2,1.8,1.1,1.8,1.4s-0.6,0.6-0.8,0.8v3.2
	c0,0.8,0,1.5,0,2.3c-0.9,0.2-1.7,0.5-2.5,0.6l0.1-1.1H172c0.2,0.1,1.4,0.6,1.4,0.9s-0.6,0.6-0.8,0.7s0,0.4,0,0.6
	c0,0.8,0.1,1.5,0.1,2.3h4.7c0.2-0.1,1.2-1.2,1.4-1.2c0.2,0,0.3,0.1,0.4,0.2l1.5,1.4c0.1,0.1,0.2,0.2,0.2,0.4s-0.4,0.2-0.5,0.2h-7.7
	c0.3,1.8,0.9,3.5,1.8,5c0.3,0.6,0.7,1.1,1.1,1.6c0.4,0.5,0.8,0.9,1.3,1.3c0.3,0.3,0.7,0.5,1.1,0.6c0.8,0,1.3-3.5,1.7-3.5
	c0.1,0,0.1,0.1,0.1,0.2c0,0.2,0,0.4-0.1,0.6c-0.1,0.6-0.1,1.3-0.1,1.9c0,0.5,0.1,1,0.2,1.5c0.3,0.6,0.5,1.2,0.7,1.8
	c0,0.4-0.5,0.5-0.8,0.5c-0.4,0-0.8-0.1-1.1-0.2c-0.7-0.2-1.4-0.5-2-0.8c-2.3-1.2-4.6-4.6-5.4-7c-0.3-1.1-0.6-2.3-0.8-3.5h-5.1v7.6
	c0.6-0.2,5.7-1.8,5.7-1.8c0.1,0,0.2,0.1,0.2,0.1c0,0,0,0,0,0c0,0.1-0.1,0.2-0.2,0.2c-2.3,1.5-4.8,2.8-6.9,4.7l-1.6-2.6
	c0.4-0.3,0.6-0.7,0.5-1.2c0-5.7,0-11.4,0-17c0-0.6,0-1.2-0.1-1.8c0-0.2-0.3-1.1-0.3-1.2S163,13,163,13c1.1,0.3,2.1,0.7,3.1,1.2
	L175.5,14.1z M175.9,19.4V15h-10l-0.3,0.4v4L175.9,19.4z M170.2,20.3h-4.7v4.5h5C170.4,23.3,170.3,21.8,170.2,20.3z"/>
<path class="st0" d="M205.5,12.6c0.3,0,1.3,1.2,1.3,1.3s0.4,0.4,0.4,0.6c0,0.1-0.1,0.3-0.2,0.3h-15.2l-0.4,0.4v19.8h13.8
	c0.1-0.1,1-1.2,1.3-1.2s0.5,0.3,0.6,0.5s1,1,1,1.4s-0.3,0.3-0.5,0.3h-16.2c-0.1,0.2-0.6,0.9-0.9,0.9c-0.8-0.4-1.5-1-2-1.7
	c0-0.2,0.8-0.8,0.9-0.9V14.4c-0.1-0.5-0.2-1.1-0.4-1.6c0-0.1,0.1-0.1,0.2-0.1c0.9,0.3,1.8,0.6,2.6,1.1h12.5
	C204.3,13.7,205.3,12.6,205.5,12.6z M197.2,24.5c0.2,0,0.3,0.1,0.5,0.2l1.2,0.8c0.1,0.1,0.2,0.2,0.2,0.3c0,0.3-0.5,0.6-0.6,0.8V31
	c0,0.5,0,0.9,0.1,1.3c-0.7,0.1-1.4,0.3-2.1,0.4l0.1-1.1h-1.9v1.1c-0.6,0.1-1.3,0.2-2,0.3c0-0.5,0.2-1.1,0.2-1.7v-5.1
	c0-0.4-0.1-0.8-0.2-1.2c0-0.1-0.1-0.2-0.1-0.3c0-0.1,0.1-0.2,0.1-0.2c0,0,0,0,0,0c0.8,0.2,1.6,0.4,2.3,0.9h1.4
	C196.5,25.3,197,24.5,197.2,24.5z M201.7,15.9c0.2,0.1,0.4,0.2,0.6,0.3l1.1,0.8c0.1,0.1,0.2,0.2,0.3,0.4c0,0.2-0.5,0.6-0.7,0.7
	c0,1.3,0,2.6,0,3.9c0,0.4,0.1,0.8,0.1,1.1c-0.7,0.2-1.5,0.3-2.2,0.4l0.1-1h-4v0.8c-0.7,0.2-1.4,0.3-2.1,0.4c0.1-0.6,0.2-1.3,0.2-2
	v-4.2c0-0.4-0.1-0.8-0.2-1.1c-0.1-0.1-0.1-0.3-0.1-0.4c0-0.1,0.1-0.1,0.2-0.1c0.9,0.2,1.8,0.5,2.5,1h3.3
	C200.8,16.7,201.4,15.9,201.7,15.9z M196.6,30.6v-4.3h-1.7l-0.2,0.2v4.1L196.6,30.6z M200.9,21.6v-3.8h-3.5l-0.4,0.3v3.5L200.9,21.6
	z M204.5,24.5c0.3,0,1.4,0.9,1.5,1s0.4,0.3,0.4,0.4s-0.6,0.7-0.7,0.8v4.4c0,0.4,0,0.9,0.1,1.3c-0.7,0.2-1.4,0.3-2.1,0.4l0.1-1.1
	h-1.9v0.9c-0.7,0.1-1.4,0.2-2.1,0.3c0.1-0.5,0.1-1,0.2-1.5v-5c0-0.3,0-0.7-0.1-1c-0.1-0.2-0.1-0.4-0.2-0.6c0-0.1,0-0.2,0.1-0.2
	c0.1,0,0.3,0,0.4,0.1c0.7,0.2,1.3,0.4,1.9,0.8h1.4C203.6,25.5,204.3,24.5,204.5,24.5L204.5,24.5z M203.7,30.7v-4.3H202l-0.2,0.2v4.1
	L203.7,30.7z"/>
<path class="st0" d="M217,13.8c0-0.3,0-0.5-0.1-0.8c-0.1-0.3-0.2-0.5-0.3-0.8c0-0.2,0.1-0.2,0.3-0.2c0.5,0,3.1,0.4,3.1,1
	c0,0.2-0.7,0.5-0.8,0.6v6.4h0.3c0.2-0.2,0.9-1.2,1.2-1.2c0.2,0,0.3,0.1,0.4,0.3l0.9,1.2c0.1,0.1,0.2,0.3,0.2,0.5
	c0,0.2-0.2,0.2-0.3,0.2h-2.7v12.5c0,0.9,0.1,1.9,0.1,2.9c-0.8,0.3-1.6,0.6-2.5,0.7c0.1-1.1,0.2-2.4,0.2-3.4V21.1h-1.6l-0.4,0.4
	l-0.9-1.4c0.5,0,1.2,0.2,1.7,0.2h1.2V13.8z M229.3,28.7c-0.1-0.5-0.2-1-0.4-1.4c0-0.2,0.1-0.2,0.3-0.2c0.4,0,3,0.4,3,0.9
	c0,0.3-0.4,0.5-0.6,0.7v0.5h0.4c0-0.1,1-1.1,1.2-1.1s0.5,0.3,0.6,0.4s1.2,1,1.2,1.4s-0.2,0.2-0.4,0.2h-3v5.1c0,0.4-0.1,0.9-0.3,1.3
	c-0.4,0.8-2.2,0.9-2.9,0.9c-0.1-0.9-0.7-1.7-1.5-2c-0.2-0.1-0.8-0.2-0.8-0.5c0-0.1,0.1-0.2,0.2-0.2c0.3,0,0.5,0,0.8,0.1
	c0.4,0.1,0.9,0.1,1.3,0.1c0.6,0,1.1,0,1.1-0.8v-4h-7.6l-0.5,0.4l-0.8-1.4c0.5,0.1,1.1,0.1,1.6,0.2h7.3L229.3,28.7z M226.6,13.9
	c0-0.3,0-0.5-0.1-0.8c-0.1-0.2-0.2-0.5-0.3-0.8c0-0.2,0.1-0.2,0.3-0.2h0.1c0.4,0.1,2.8,0.3,2.8,1c0,0.3-0.5,0.5-0.7,0.6V16h3.3
	c0.1-0.1,1-1,1.2-1c0.7,0.4,1.3,0.9,1.8,1.5c0,0.2-0.2,0.3-0.4,0.3h-5.9v2.1h1.8c0.2-0.2,0.7-0.9,1-0.9c0.6,0.2,1.1,0.6,1.6,0.9
	c0.2,0.1,0.5,0.3,0.5,0.5s-0.5,0.6-0.6,0.7v4.2c0,0.7,0.1,1.5,0.1,2.1c-0.8,0.3-1.6,0.5-2.4,0.6l0.1-1.8h-2.1l0.1,1.8
	c-0.7,0.3-1.5,0.6-2.3,0.7c0.1-0.8,0.1-1.7,0.1-2.5h-2.1v2.1c-0.7,0.2-1.4,0.4-2.2,0.6c0.1-0.8,0.1-1.6,0.1-2.4v-5.8
	c0-0.3,0-0.5,0-0.8s-0.3-0.7-0.3-0.9s0.1-0.1,0.2-0.1c0.9,0.2,1.7,0.4,2.5,0.8h1.8v-2.1h-4.5l-0.4,0.3l-0.8-1.4
	c0.5,0.1,1.1,0.2,1.7,0.2h4.1L226.6,13.9z M223.2,30.2c0.3,0.1,0.5,0.1,0.8,0.2c0.9,0.3,2.2,1.2,2.2,2.2c0.1,0.5-0.3,1.1-0.8,1.1
	c-0.1,0-0.1,0-0.2,0c-0.2,0-0.5-0.1-0.7-0.2c-0.6-0.5-0.4-1.8-1-2.5c-0.1-0.1-0.5-0.6-0.5-0.7S223.1,30.2,223.2,30.2L223.2,30.2z
	 M226.6,21.7v-2h-1.9l-0.3,0.3v1.7L226.6,21.7z M226.6,24.5v-1.9h-2.1v1.9H226.6z M230.8,21.7v-2h-2.1v2H230.8z M230.8,22.6h-2.1
	v1.9h2.1V22.6z M229.8,12.2c0,0,0.1,0,0.2,0c0.6,0.2,1.1,0.5,1.6,0.9c0.5,0.3,0.8,0.8,0.8,1.4c0,0.6-0.4,1-1,1
	c-0.3,0-0.6-0.2-0.8-0.5c-0.2-0.6,0-1.1-0.4-1.8c-0.1-0.2-0.5-0.9-0.5-0.9S229.8,12.2,229.8,12.2L229.8,12.2z"/>
<path class="st0" d="M255.4,15.3c0,0,0.1-0.1,0.2-0.1c0.7,0.2,1.4,0.5,2.1,0.8c0.1,0,0.8,0.3,0.8,0.4s-0.4,0.4-0.6,0.5
	c-0.3,0.2-0.6,0.5-0.9,0.8c-0.7,0.8-1.5,1.5-2.2,2.3h3.4c0.1-0.2,0.7-0.9,0.9-0.9c0.9,0.4,1.6,1,2.2,1.8c0.1,0.1,0.2,0.3,0.2,0.5
	c0,0.4-1,0.4-1.2,0.4c-0.9,0.1-1.7,0.4-2.4,1c0.7,0.3,2.3,0.9,2.3,1.9c0,0.6-0.2,1.5-1,1.5c-0.3,0-0.6-0.1-0.8-0.3
	c-0.2-0.3-0.4-0.6-0.5-0.9c-0.2-0.4-0.5-0.9-0.7-1.3c-0.2-0.3-0.5-0.6-0.8-0.9c-0.1-0.1-0.3-0.2-0.4-0.3c0-0.1,0-0.1,0.1-0.2
	c0,0,0,0,0,0c0.5,0,0.9,0.1,1.4,0.2c0.2-0.5,0.5-1.1,0.7-1.6h-13.8c0,0.3,0,0.6-0.1,1c-0.2,0.8-0.8,1.3-1.6,1.4
	c-0.6,0.1-1.1-0.4-1.2-1c0,0,0-0.1,0-0.1c0-0.7,0.9-1.3,1.3-1.7c0.3-0.4,0.5-0.8,0.6-1.3c0-0.1,0-0.5,0.1-0.5s0.7,1.2,0.8,1.4h9.5
	C254.5,18.5,255.1,16.9,255.4,15.3z M248,30.1c-1.5,1.6-3.2,2.9-5,4.1c0,0-0.1,0-0.1,0c-0.1,0-0.1-0.1-0.1-0.1
	c0-0.1,0.5-0.7,0.6-0.8c0.8-0.9,1.5-1.8,2.1-2.8c0.6-0.9,1.1-1.8,1.5-2.8c0.1-0.2,0.1-1.1,0.4-1.1c0.1,0,1.5,0.5,1.7,0.6
	s1.1,0.4,1.1,0.6s-0.5,0.5-0.7,0.5l-0.2,0.2h5.4c0.2-0.2,0.6-0.8,0.9-0.8s2.5,1.1,2.5,1.8c0,0.2-0.9,0.4-1,0.4
	c-1.2,0.9-2.3,2-3.6,2.8c2,0.7,4.1,1.3,6.2,1.6l1.6,0.3c0.1,0,0.2,0,0.2,0.2s-0.8,0.3-1,0.4c-0.8,0.3-1.5,0.9-2,1.6
	c-2.3-0.7-4.5-1.7-6.5-3c-2.5,1.5-5.2,2.5-8.1,2.9c-0.5,0.1-0.9,0.1-1.4,0.2c-0.1,0-0.1-0.1-0.1-0.2c2.9-0.9,5.7-2.2,8.2-3.9
	C249.5,32,248.7,31.1,248,30.1z M245.8,23.7c0,1-0.6,2.3-1.8,2.3c-0.5,0.1-1-0.3-1.1-0.9c0,0,0-0.1,0-0.1c0-0.9,1.6-1.5,2-2.4
	c0.1-0.2,0.2-0.5,0.3-0.8C245.6,21.8,245.9,23.5,245.8,23.7L245.8,23.7z M245.2,15.4c-0.3,0-1.5,0-1.5-0.2s0-0.1,0.2-0.2l1.3-0.2
	c1.3-0.2,2.7-0.3,4-0.6c2.2-0.4,4.3-0.9,6.4-1.5c0.1,0,0.8-0.4,0.8-0.4c0.8,0.6,1.5,1.3,2.2,2c0.1,0.1,0.3,0.3,0.3,0.4
	c-0.1,0.1-0.2,0.2-0.3,0.2c-0.5,0-0.9,0-1.4,0c-0.9,0-1.9,0.1-2.8,0.1c-2.3,0.2-4.7,0.3-7,0.3L245.2,15.4z M245.2,15.7
	c0.1,0,1.4,0.4,1.5,0.5c1,0.2,1.8,1.1,1.9,2.1c0.1,0.5-0.4,1-0.9,1.1c-0.1,0-0.1,0-0.2,0c-1.2,0-1.2-1.3-1.5-2.2
	c-0.3-0.5-0.6-1-0.9-1.4C245.1,15.7,245.1,15.7,245.2,15.7L245.2,15.7z M249.2,24.6c0,0.1,0,0.3,0.1,0.4c0.2,0.3,1.3,0.2,1.7,0.2
	c1.1,0,2.2,0,3.2-0.3c0.6-0.3,0.9-1.8,1-2.3c0,0,0-0.1,0.1-0.1c0,0,0,0,0,0c0.1,0,0.2,0.1,0.2,0.2c0,0,0,0,0,0.1c0,0.3,0,0.5,0,0.8
	c-0.1,0.8,0.5,1.4,1.3,1.5c-0.1,0.5-0.5,1-0.9,1.3c-1,0.7-3.8,0.6-5,0.6c-0.8,0-3.2,0.1-3.6-0.9c-0.1-0.2-0.2-0.5-0.2-0.8V23
	c-0.1-0.4-0.2-0.8-0.3-1.2c0-0.1,0-0.2,0.2-0.2c0.1,0,0.3,0.1,0.4,0.1c0.4,0.1,2.3,0.4,2.3,0.9c0,0.2-0.4,0.4-0.6,0.4L249.2,24.6z
	 M254,29.6h-5.6l-0.1,0.1c0.9,0.9,2,1.7,3.1,2.3C252.4,31.3,253.3,30.5,254,29.6L254,29.6z M249.7,15.6c0.3,0.1,0.6,0.1,0.9,0.2
	c1.1,0.4,2.3,1,2.3,2.3c0,0.7-0.5,1.2-1.2,1.2c0,0,0,0,0,0c-1,0-1-0.9-1.1-1.7c-0.1-0.7-0.4-1.4-0.9-1.9
	C249.6,15.6,249.7,15.6,249.7,15.6L249.7,15.6z M250.4,21.2c0.5,0,0.9,0.1,1.4,0.3c0.8,0.1,1.5,0.8,1.6,1.6c0,0.6-0.5,1-1,1.1
	c-1.3,0-1-1.5-1.5-2.2c-0.2-0.2-0.4-0.4-0.5-0.6C250.3,21.3,250.4,21.2,250.4,21.2L250.4,21.2z"/>
<path class="st0" d="M284.5,24c0.2-0.2,1.4-1.6,1.7-1.6s0.4,0.2,0.5,0.3l1.7,1.7c0.1,0.1,0.2,0.2,0.2,0.4c0,0.2-0.3,0.3-0.5,0.3h-18
	l-0.5,0.5l-1.3-1.7c0.7,0.1,1.5,0.1,2.2,0.1L284.5,24z"/>
<path class="st0" d="M295.8,33.1v-6.6c0-0.3,0-0.7-0.1-1c0-0.2-0.2-0.9-0.2-0.9s0.1-0.1,0.2-0.1c0.8,0.2,1.6,0.5,2.4,0.8
	c0.1,0.1,0.3,0.2,0.3,0.4s-0.5,0.5-0.6,0.6v6.6l1.3-0.2V25c0-0.4,0-0.8-0.1-1.2c0-0.2-0.2-0.4-0.2-0.6s0.1-0.2,0.2-0.2
	c0.4,0.1,0.8,0.2,1.1,0.3c0.3,0.1,1.6,0.5,1.6,0.8c0,0.2-0.6,0.5-0.7,0.6v2.6h0.7c0.2-0.2,0.6-0.9,1-0.9c0.2,0,0.5,0.3,0.6,0.4
	s1,0.8,1,1.1c0,0.2-0.1,0.3-0.3,0.3c0,0,0,0,0,0H301v4.1c0.8-0.1,1.6-0.2,2.3-0.3c0.2,0,0.5-0.1,0.7-0.1s0.2,0,0.2,0.1
	s-0.1,0.2-0.2,0.2c-1.5,0.7-3,1.4-4.6,2c-1.2,0.4-2.4,0.9-3.5,1.5l-1-2.7L295.8,33.1z M300.7,21.9h-2.6v0.8
	c-0.7,0.2-1.4,0.3-2.1,0.4c0-0.9,0.1-1.8,0.1-2.6v-3.9c0-0.4,0-0.9,0-1.3c0-0.3-0.3-1-0.3-1.1s0.1-0.2,0.3-0.2
	c0.8,0.3,1.6,0.6,2.3,0.9h2.2c0.1-0.1,0.6-0.9,0.8-0.9s2.2,1.2,2.2,1.4s-0.7,0.7-0.8,0.8v4c0,0.7,0.1,1.5,0.1,2.2
	c-0.7,0.2-1.5,0.3-2.2,0.5L300.7,21.9z M300.7,21v-5.2h-2.3c0,0.1,0,0.1,0,0.2l-0.2,0.2V21L300.7,21z M308.3,15.2h2.4
	c0.2-0.2,0.6-0.7,0.9-0.7c0.4,0,1.6,1.1,1.9,1.4c0.2,0.1,0.3,0.3,0.3,0.5c0,0.3-0.5,0.5-0.7,0.6c-0.5,0.7-0.9,1.5-1.3,2.2
	s-1.2,1.7-1.7,2.6c1.5,1.5,3.1,2.7,5,3.7c0.2,0.1,0.7,0.2,0.7,0.5s-0.5,0.2-0.7,0.2c-0.8,0.1-1.6,0.4-2.3,0.9
	c-1.5-1.1-2.8-2.5-3.9-3.9c-0.5,0.5-1,1-1.6,1.4c-0.3,0.3-0.8,0.5-1.1,0.7c-0.6,0.4-1.1,0.8-1.6,1.1c-0.1,0.1-0.2,0.1-0.3,0.2
	c-0.2,0.1-0.3,0.2-0.5,0.3c-0.1,0-0.1-0.1-0.1-0.1c0-0.1,0-0.2,0.1-0.2c0.8-0.8,1.5-1.6,2.1-2.5c0.6-0.8,1.3-1.7,1.9-2.5
	c-0.4-1-0.8-2.1-1.1-3.2c-0.3,0.4-2.7,3.6-3.2,3.6c-0.1-0.1-0.1-0.1-0.1-0.2s1.1-2.6,1.3-3c0.9-2.1,1.6-4.2,2-6.5
	c0,0,0.1-0.1,0.1-0.1c0.9,0.3,1.8,0.6,2.7,1.1c0.1,0,0.3,0.2,0.3,0.3s-0.7,0.5-0.8,0.6L308.3,15.2z M310.2,35.9h-3.5v0.7
	c-0.7,0.2-1.4,0.3-2.1,0.4c0-0.9,0.1-1.8,0.1-2.7v-5.2c0-0.6,0-1.2-0.1-1.8c0-0.2-0.2-0.5-0.2-0.6s0.2-0.2,0.2-0.2
	c0.9,0.3,1.8,0.6,2.6,0.9h2.9c0.1-0.1,0.6-0.9,0.9-0.9s2.1,1.1,2.1,1.4s-0.5,0.6-0.7,0.7v5.5c0,0.7,0.1,1.4,0.1,2.2
	c-0.8,0.1-1.6,0.3-2.4,0.5L310.2,35.9z M310.2,34.9v-6.5H307c-0.1,0.1-0.1,0.3-0.3,0.4v6.1H310.2z M308.4,20.1
	c0.8-1.3,1.6-2.6,2.2-4h-2.8l-0.8,1.6C307.4,18.5,307.9,19.4,308.4,20.1z"/>
<path class="st0" d="M328.6,33.4c-1.2,0.8-2.7,1.2-4.1,1.1c-1.4-0.1-2.8-0.7-3.8-1.7c-0.8-0.9-1.2-2.1-1.2-3.3
	c-0.1-0.6,0.2-1.1,0.6-1.5c0.4-0.3,0.9-0.5,1.3-0.4c0.6,0.1,1,0.5,1.2,1.1c0.1,0.4,0,0.8-0.2,1.1c-0.2,0.3-0.4,0.7-0.5,1.1
	c-0.1,0.3-0.1,0.6,0.1,0.9c0.6,1,1.7,1.6,2.9,1.5c0.9-0.1,1.7-0.6,2.2-1.3c1-1.5,1.3-3.4,0.7-5.2c-0.3-1-1.1-1.8-2.1-2.1
	c-0.8-0.2-1.6-0.3-2.4-0.3c-0.1,0-0.2-0.1-0.2-0.2c0,0,0,0,0,0v-0.6c0-0.1,0.1-0.2,0.2-0.2c0,0,0,0,0,0c0.8,0,1.5-0.1,2.3-0.3
	c0.5-0.2,0.9-0.6,1.2-1.1c0.6-1.1,0.9-2.4,0.7-3.6c-0.1-0.9-0.5-1.8-1.3-2.4c-0.7-0.5-1.6-0.6-2.4-0.3c-0.7,0.2-1.3,0.7-1.7,1.3
	c-0.2,0.3-0.3,0.6-0.3,1c0.1,0.3,0.3,0.7,0.5,0.9c0.3,0.4,0.4,0.8,0.4,1.3c0,0.5-0.4,1-0.8,1.2c-0.5,0.2-1.1,0.2-1.5-0.2
	c-0.5-0.4-0.7-1-0.7-1.6c0-1.1,0.3-2.2,0.9-3.1c0.6-1,1.6-1.7,2.7-2c1.4-0.4,2.8-0.2,4.1,0.4c1.1,0.6,1.8,1.6,2.1,2.8
	c0.4,1.3,0.3,2.7-0.3,3.9c-0.5,1.1-1.6,1.9-2.8,2.2c1.5,0.3,2.7,1.2,3.4,2.5c0.6,1.3,0.7,2.7,0.4,4
	C330.2,31.6,329.6,32.7,328.6,33.4z"/>
<path class="st0" d="M342.1,32.9c-0.9,1-2.2,1.6-3.6,1.6c-1.3,0.1-2.6-0.3-3.6-1.1c-1-0.8-1.7-1.9-2-3.1c-0.7-2.5-0.5-7.1-0.1-9.7
	c0.2-1.1,0.5-2.2,1.1-3.2c0.5-0.9,1.3-1.7,2.3-2.3c0.8-0.4,1.7-0.7,2.5-0.8c0.8,0,1.6,0.1,2.3,0.4c0.9,0.4,1.6,1.1,2,1.9
	c0.3,0.7,0.4,1.5,0.2,2.3c-0.1,0.5-0.4,0.9-0.9,1.1c-0.3,0.1-0.7,0.1-1.1,0c-0.3-0.1-0.6-0.3-0.8-0.6c-0.2-0.4-0.2-0.9,0-1.3
	c0.2-0.3,0.4-0.6,0.5-1c0.1-0.3,0-0.6-0.2-0.9c-0.4-0.5-1-0.8-1.6-0.8c-0.7-0.1-1.4,0.1-1.9,0.6c-0.6,0.5-1.1,1.2-1.4,1.9
	c-0.6,1.7-0.9,3.5-0.9,5.3c0.5-0.5,1-0.9,1.6-1.3c0.7-0.5,1.5-0.7,2.4-0.7c1,0,2,0.3,2.8,1c0.7,0.6,1.2,1.5,1.5,2.4
	c0.4,1.7,0.4,3.5,0.2,5.2C343.3,31,342.8,32,342.1,32.9z M339.7,23c-0.4-0.3-1-0.4-1.5-0.4c-0.7,0.1-1.4,0.4-1.9,0.9
	c-0.6,0.5-1.1,1.2-1.4,1.9c-0.1,2.1,0.2,4.2,0.9,6.1c0.2,0.5,0.6,0.9,1,1.2c0.4,0.3,0.9,0.5,1.4,0.5c0.6,0,1.2-0.3,1.7-0.7
	c0.4-0.5,0.7-1,0.8-1.6c0.5-2.1,0.5-4.2,0-6.2C340.7,24,340.3,23.4,339.7,23z"/>
<path class="st0" d="M355.2,32.9c-0.9,1-2.2,1.6-3.6,1.6c-1.3,0.1-2.6-0.3-3.6-1.1c-1-0.8-1.7-1.9-2-3.1c-0.7-2.5-0.5-7.1-0.1-9.7
	c0.2-1.1,0.5-2.2,1-3.2c0.5-0.9,1.3-1.7,2.3-2.3c0.8-0.4,1.6-0.7,2.5-0.8c0.8,0,1.6,0.1,2.3,0.4c0.9,0.4,1.6,1.1,2,1.9
	c0.3,0.7,0.4,1.5,0.2,2.3c-0.1,0.5-0.4,0.9-0.9,1.1c-0.3,0.1-0.7,0.1-1.1,0c-0.3-0.1-0.6-0.3-0.8-0.6c-0.2-0.4-0.2-0.9,0-1.3
	c0.2-0.3,0.4-0.6,0.5-1c0.1-0.3,0-0.6-0.2-0.9c-0.4-0.5-1-0.8-1.6-0.8c-0.7-0.1-1.4,0.1-1.9,0.6c-0.6,0.5-1.1,1.2-1.4,1.9
	c-0.6,1.7-0.9,3.5-0.9,5.3c0.5-0.5,1-0.9,1.6-1.3c0.7-0.5,1.5-0.7,2.4-0.7c1,0,2,0.3,2.8,1c0.7,0.6,1.2,1.5,1.5,2.4
	c0.4,1.7,0.4,3.4,0.2,5.2C356.4,31,356,32,355.2,32.9z M352.8,23c-0.4-0.3-1-0.4-1.5-0.4c-0.7,0.1-1.4,0.4-1.9,0.9
	c-0.6,0.5-1,1.1-1.3,1.9c-0.1,2.1,0.2,4.2,0.9,6.1c0.2,0.5,0.6,0.9,1,1.2c0.4,0.3,0.9,0.5,1.5,0.5c0.6,0,1.2-0.3,1.7-0.7
	c0.4-0.5,0.7-1,0.8-1.6c0.5-2,0.5-4.2,0-6.2C353.8,24,353.4,23.4,352.8,23z"/>
<path class="st0" d="M362,22.1h5.2c0.1-0.2,0.8-1,1.1-1c0.7,0.4,1.2,0.9,1.5,1.6c0,0.2-0.2,0.4-0.4,0.4h-3.9
	c0.2,0.1,0.9,0.4,0.9,0.6s-0.6,0.4-0.8,0.4l-1,2.8h1.6c0.1-0.2,0.6-0.9,0.9-0.9c0.8,0.3,1.5,0.9,2,1.6c0,0.3-0.6,0.6-0.8,0.8
	c-0.1,1.2-0.3,2.5-0.4,3.7c-0.3,2.9-1.1,3.9-4,4.4c0-0.8-0.6-1.6-1.3-1.9c-0.1-0.1-0.8-0.2-0.8-0.4c0-0.1,0.1-0.2,0.2-0.2
	c0.6,0,1.1,0.1,1.7,0.1c0.5,0,1,0,1.4-0.2c0.3-0.1,0.5-0.3,0.6-0.6c0.4-1.7,0.6-3.5,0.6-5.3v-0.1h-1.9c-0.2,0.2-0.5,0.7-0.8,0.7
	c-0.2,0-0.4-0.1-0.5-0.3c-0.1-0.2-0.9-0.9-0.9-1.1s0.7-0.5,0.8-0.5l0.9-3.5H362l-0.4,0.2l-1-1.3C361.1,22,361.6,22.1,362,22.1z
	 M366.8,14.1c0.1-0.1,0.8-0.9,1-0.9s1.1,0.8,1.3,1s0.4,0.3,0.4,0.5s-0.5,0.4-0.7,0.6v3.3c0,0.5,0,1.1,0.1,1.6
	c-0.7,0.2-1.4,0.3-2.1,0.4l0.1-1.1h-2.7v0.8c-0.6,0.2-1.3,0.3-1.9,0.4c0.1-0.7,0.1-1.5,0.1-2.2v-3.3c0-0.5-0.1-1.1-0.2-1.6
	c0-0.1-0.1-0.2-0.1-0.3c0-0.1,0-0.2,0.2-0.2c0.8,0.2,1.6,0.5,2.3,0.9L366.8,14.1z M364.5,15l-0.2,0.2v3.3h2.7V15H364.5z M373.9,18.2
	v-4.6c0-0.4,0-0.8-0.1-1.1c-0.1-0.1-0.1-0.3-0.1-0.4c0-0.1,0.1-0.2,0.2-0.2c0.3,0.1,0.7,0.1,1,0.3c0.4,0.1,1.7,0.4,1.7,0.9
	c0,0.2-0.5,0.5-0.7,0.6v1.2h1.9c0.1-0.1,0.8-1,1.1-1s1,1,1.3,1.2s0.3,0.4,0.3,0.6c0,0.1-0.1,0.2-0.3,0.2h-4.3v2.3h2.8
	c0.2-0.2,0.7-0.8,1-0.8c0.8,0.5,1.4,1.3,1.8,2.1c0,0.3-0.7,0.3-1,0.3c-0.5,0-1,0.2-1.4,0.4c-0.2,0.2-0.5,0.3-0.8,0.4
	c-0.1,0-0.1,0-0.1-0.2s0.5-1.2,0.5-1.4h-4.1c0.3,0.1,1.5,0.4,1.5,0.8c0,0.1-0.4,0.3-0.5,0.3v1.6l1.4-0.2c0.1-0.1,0.6-1,0.8-1
	s1.6,1,1.6,1.4c0,0.1-0.1,0.3-0.3,0.3c0,0,0,0,0,0l-3.5,0.5V24c0,0.7,0.5,0.6,1.1,0.6c0.3,0,0.5,0,0.8-0.2c0.6-0.3,0.6-1.6,0.9-1.6
	s0.1,0.9,0.2,1.2s0.6,0.6,0.8,0.7c-0.5,1.2-0.9,1.4-2.2,1.4c-0.6,0-2.8,0.1-3.2-0.5c-0.2-0.9-0.3-1.8-0.2-2.7l-1,0.1l-0.4,0.4
	l-0.8-0.8c0,1.4,0,2.9-0.1,4.4c-0.2,2.8-0.4,5.4-2,7.7c-0.4,0.7-0.9,1.3-1.5,1.8c-0.1,0.1-0.8,0.8-0.9,0.8c-0.1,0-0.2-0.1-0.2-0.2
	c0.2-0.4,0.4-0.7,0.6-1c0.9-1.4,1.5-3,1.8-4.7c0.5-3,0.6-6,0.5-9c0-0.9,0-1.7,0-2.6c0-0.5,0-1-0.1-1.5c-0.1-0.3-0.2-0.6-0.2-0.8
	c0-0.1,0.1-0.2,0.3-0.2c0.9,0.2,1.7,0.5,2.5,0.9L373.9,18.2z M373.9,34.2c-0.6,1.3-1.7,2.4-3,2.9c-0.3,0.2-0.6,0.3-0.9,0.4
	c-0.1,0-0.1,0-0.1-0.1c0,0,0,0,0,0c0-0.1,0.1-0.2,0.2-0.3c1.1-0.9,1.9-2.1,2.3-3.5c0.3-1.5,0.5-3,0.5-4.5c0-0.4,0-0.7,0-1.1
	s-0.2-0.6-0.2-0.9s0.2-0.3,0.4-0.3c0.7,0.2,1.3,0.5,2,0.9c0.2,0.1,0.3,0.3,0.2,0.5c0,0,0,0,0,0l-0.5,0.9
	C374.6,30.8,374.4,32.5,373.9,34.2z M374,22v-2c0-0.3,0-0.6-0.1-0.9h-1.7l-0.2,0.3l-0.1,2.7C372.6,22.1,373.3,22.1,374,22z
	 M378.2,27.8c0.1,0.1,0.1,0.1,0.1,0.2c0,0.3-0.3,0.5-0.5,0.6v5.5c0,0.7-0.1,1.2,0.6,1.2c0.3,0,0.6,0,0.8-0.2c0.4-1,0.7-2,0.9-3
	c0-0.1,0-0.3,0.2-0.3s0.1,0.2,0.1,0.2c0,0.4,0,0.8,0,1.2s0.1,1.4,0.5,1.6l0.6,0.3c-0.6,1.7-1.1,1.8-2.8,1.8c-0.6,0-2.5,0.1-2.7-0.7
	c-0.1-0.2-0.1-0.5-0.1-0.7V28c0-0.3-0.1-0.6-0.2-0.9c-0.1-0.4,0-0.3,0.2-0.3C376.8,26.9,377.6,27.3,378.2,27.8L378.2,27.8z"/>
<path class="st0" d="M394.6,34.3h-6.7c-0.1,0-0.2-0.1-0.2-0.3c0,0,0,0,0,0v-0.6c0-0.1,0.1-0.2,0.2-0.2h0.8c0.8,0,1.4-0.5,1.5-1.3
	c0-0.1,0-0.2,0-0.2V18.6c-0.1-0.6-0.6-1.1-1.3-1.1h-1.2c-0.1,0-0.2-0.1-0.3-0.2c0,0,0,0,0,0v-0.6c0-0.1,0.2-0.2,0.3-0.2
	c1.8-0.3,3.4-1.1,4.8-2.2V32c0,0.7,0.6,1.3,1.3,1.2c0,0,0,0,0,0h0.6c0.2,0,0.2,0.2,0.2,0.3V34C394.8,34.2,394.7,34.3,394.6,34.3z"/>
<path class="st0" d="M407.6,33.2c-0.9,0.8-2.1,1.2-3.3,1.2c-1.4,0-2.7-0.6-3.6-1.6c-0.9-1.1-1.4-2.4-1.7-3.7
	c-0.3-1.6-0.4-3.2-0.4-4.7c0-1.8,0.2-3.5,0.5-5.2c0.3-1.3,0.9-2.4,1.8-3.4c1-1,2.4-1.5,3.9-1.3c1.3,0.1,2.4,0.8,3.1,1.8
	c0.7,1,1.2,2,1.4,3.2c0.4,1.6,0.5,3.3,0.5,4.9c0.1,1.9-0.1,3.8-0.5,5.6C409.2,31.2,408.5,32.3,407.6,33.2z M407.1,19
	c-0.2-0.9-0.5-1.7-1-2.4c-0.4-0.6-1-1-1.8-1c-0.6,0.1-1.2,0.4-1.6,0.9c-0.6,0.7-1,1.6-1.2,2.5c-0.7,3.8-0.6,7.7,0.2,11.5
	c0.2,1,0.8,1.9,1.6,2.5c0.8,0.4,1.7,0.3,2.4-0.3c0.8-0.8,1.4-1.9,1.5-3C407.7,26.2,407.6,22.6,407.1,19z"/>
<path class="st0" d="M415.3,20.1l-0.4,0.4l-1.1-1.5c0.6,0,1.2,0.1,1.8,0.1h1.5v-5.2c0-0.4,0-0.9-0.1-1.3c-0.1-0.2-0.2-0.3-0.2-0.5
	c0-0.2,0.2-0.2,0.3-0.2c0.9,0.2,1.7,0.6,2.5,1c0.1,0.1,0.2,0.2,0.2,0.4c0,0.2-0.6,0.5-0.7,0.6v5.3h0.5c0.2-0.2,0.5-0.4,0.7-0.6
	c0.5,0.3,0.9,0.8,1.3,1.3c0,0.2-0.2,0.3-0.5,0.3h-2v1.7c1,0.4,2.7,1.2,2.7,2.5c0,0.4-0.4,1-0.8,1c-0.9,0-1-1.4-1.3-2
	c-0.2-0.4-0.4-0.7-0.6-1v11.5c0,0.9,0,1.8,0.1,2.8c-0.7,0.3-1.5,0.6-2.2,0.8c0-1,0.1-2,0.1-2.9v-8.1c-0.9,1.9-1.9,3.7-3.1,5.4
	c0,0.1-0.1,0.1-0.2,0.1c-0.1,0-0.1-0.1-0.1-0.2s0.6-1.8,0.7-2c0.4-1.1,0.7-2.2,1-3.3c0.6-2.1,1.1-4.2,1.5-6.4L415.3,20.1z
	 M423.5,32.5c-0.4-0.1-0.7-0.3-1.1-0.4c0.6-0.6,1.2-1.2,1.8-1.9h-2.4l-0.4,0.4l-1.1-1.5c0.6,0,1.2,0.1,1.8,0.1h2.8
	c0.6-0.7,1.1-1.5,1.4-2.3h-1.9v0.4c-0.6,0.2-1.2,0.3-1.9,0.4c0.1-1.2,0.1-2.4,0.1-3.6c0-0.3,0-0.7-0.1-1c0-0.1-0.2-0.3-0.2-0.4
	s0-0.2,0.2-0.2c0.7,0.2,1.3,0.4,2,0.6h2.3v-1.7h-2.3v0.2c-0.6,0.2-1.3,0.4-1.9,0.5c0.1-1.1,0.1-2.3,0.1-3.4h-0.8l-0.4,0.4l-1.1-1.5
	c0.8,0.1,1.5,0.1,2.3,0.1c0-0.6,0-1.2,0-1.9c0-0.3,0-0.7-0.1-1c-0.1-0.1-0.2-0.3-0.2-0.5c0-0.1,0-0.1,0.1-0.1c0,0,0,0,0,0
	c0.7,0.2,1.5,0.5,2.2,0.9h2.2V14c0-0.5-0.1-1.1-0.2-1.6c0-0.1-0.2-0.3-0.2-0.4s0.2-0.2,0.3-0.2c0.3,0,2.6,0.7,2.6,1.1
	c0,0.2-0.5,0.5-0.6,0.6v1.7h1.9c0.1-0.1,0.7-0.9,0.9-0.9c0.7,0.3,1.3,0.8,1.8,1.3c0,0.1-0.5,0.6-0.6,0.6V18c0.1-0.1,0.8-0.9,1-0.9
	s1.3,1.3,1.3,1.4c0,0.2-0.2,0.3-0.3,0.3c0,0,0,0,0,0h-2V20c0,0.6,0.1,1.2,0.1,1.7c-0.7,0.2-1.3,0.4-2,0.5l0.1-0.8h-2.2v1.7h1.9
	c0-0.1,0.5-0.8,0.7-0.8c0.7,0.3,1.4,0.7,1.9,1.2c0,0.1-0.5,0.6-0.6,0.7v1.4c0,0.6,0,1.1,0.1,1.7c-0.6,0.2-1.3,0.3-2,0.5l0-0.7h-3.6
	c0.3,0.2,1.6,0.9,1.6,1.3s-0.4,0.2-0.6,0.2l-0.8,0.7h4.6c0.1-0.1,1-1,1.2-1s0.3,0.2,0.4,0.3c0.3,0.2,1.2,1,1.2,1.3s-0.2,0.3-0.4,0.3
	h-3.6c0.2,0.2,1,0.7,1,1s-0.6,0.3-0.8,0.3c-0.7,0.7-1.4,1.4-2.1,2.1c1,0.4,3.7,1.3,3.7,2.7c0.1,0.5-0.3,1-0.9,1.1c0,0-0.1,0-0.1,0
	c-0.5,0-0.9-0.2-1.2-0.5l-1.3-1.1c-0.4-0.4-0.9-0.8-1.4-1.1c-1.9,1.2-4,2-6.1,2.5c-0.3,0.1-0.7,0.2-1,0.2c-0.1,0-0.2-0.1-0.2-0.2
	c0-0.2,1-0.5,1.2-0.6c1.6-0.7,3.1-1.7,4.4-2.9C425.1,33.3,424.3,32.9,423.5,32.5z M426.8,32.9c0.8-0.8,1.5-1.7,2.2-2.6h-2.7
	c-0.7,0.6-1.4,1.3-2.1,2C425.1,32.5,426,32.6,426.8,32.9z M426.8,26.1v-2h-2.2l-0.2,0.2v1.8H426.8z M426.8,17.8v-1.7h-2.2l-0.1,0.2
	v1.5H426.8z M426.8,20.6v-1.8h-2.3v1.8H426.8z M430.8,17.8v-1.7h-2.2v1.7L430.8,17.8z M430.8,18.8h-2.2v1.8h2.2L430.8,18.8z
	 M430.7,26.2v-2h-2.1v2H430.7z"/>
<path class="st0" d="M442.4,31.7c0.3-0.3,0.6-0.7,0.9-1c0.2-0.2,0.5-0.4,0.8-0.4c0.2,0,0.5,0.1,0.7,0.1c0.8-0.5,1.6-1,2.4-1.5
	c1-0.7,2-1.5,2.9-2.3c2.3-1.9,4.3-4.1,6.2-6.4h-12.9l-0.5,0.4l-1.3-1.6c0.7,0.1,1.4,0.1,2.1,0.1h12.8c0.4-0.4,0.9-0.8,1.3-1.1
	c0.4,0,2.6,2,2.6,2.5s-0.9,0.5-1.2,0.6c-0.7,0.5-1.3,1.1-1.9,1.7c-1.1,1-2.2,2.1-3.4,3c-2.6,2.1-5.5,3.8-8.5,5.1
	c0.4,0.6,0.8,1.1,1.4,1.6c1.2,1,2.6,1.5,4.1,1.5c1.2,0.1,2.5,0.2,3.7,0.2c1.1,0,2.2,0,3.3-0.1c0.9-0.1,1.7-0.1,2.6-0.2
	c0.2,0,0.4,0,0.6,0c0.1,0,0.2,0,0.2,0.2s-0.5,0.3-0.6,0.4c-0.7,0.5-1.2,1.3-1.4,2.2c-2.2,0-4.3,0-6.5-0.1c-1.3,0-2.7-0.2-3.9-0.6
	c-2.3-0.9-2.7-1.9-3.9-4c-0.1-0.2-0.3-0.6-0.6-0.6c-0.5,0.1-1.3,3.5-1.5,4.1l-2.3-1.9C441.1,33,441.8,32.4,442.4,31.7z M447.7,12
	h0.2c0.9,0.2,1.9,0.4,2.7,0.9c0.7,0.3,1.4,0.8,1.8,1.5c0.2,0.4,0.4,0.9,0.4,1.4c0.1,0.7-0.5,1.4-1.2,1.5c0,0-0.1,0-0.1,0
	c-1.2,0-1.5-1.2-1.8-2.1c-0.1-0.4-0.3-0.8-0.5-1.2c-0.5-1-0.9-1-1.6-1.7c0,0-0.1-0.1-0.1-0.1S447.6,12,447.7,12L447.7,12z"/>
<path class="st0" d="M484,24c0.2-0.2,1.4-1.6,1.7-1.6s0.4,0.2,0.5,0.3l1.7,1.7c0.1,0.1,0.2,0.2,0.2,0.4c0,0.2-0.3,0.3-0.5,0.3h-18
	l-0.5,0.5l-1.3-1.7c0.7,0.1,1.4,0.1,2.2,0.1L484,24z"/>
<path class="st0" d="M26.5,70.5h-0.6c-0.2,0-0.3-0.1-0.3-0.3l0,0C25.4,69.1,25,68,24.4,67c-0.4-0.5-0.9-0.8-1.5-1
	c-0.8-0.2-1.5-0.3-2.3-0.2v16c0.1,0.6,0.6,1.1,1.3,1.2h1c0.2,0,0.3,0.1,0.3,0.3V84c0,0.1-0.1,0.2-0.2,0.2c0,0,0,0,0,0h-7
	c-0.2,0-0.3-0.1-0.3-0.3v-0.7c0-0.1,0.1-0.3,0.3-0.3h0.9c0.7,0,1.3-0.6,1.3-1.3v-16c-0.8-0.1-1.5,0-2.3,0.1c-0.5,0.1-1,0.4-1.4,0.8
	c-0.8,1.1-1.3,2.3-1.5,3.6c0,0.1-0.2,0.2-0.3,0.2h-0.6c-0.1,0-0.2-0.1-0.2-0.2l0.7-5.7h13.1l0.8,5.6C26.7,70.3,26.6,70.5,26.5,70.5
	C26.5,70.5,26.5,70.5,26.5,70.5z"/>
<path class="st0" d="M41.8,84.3H28.4c-0.1,0-0.3-0.1-0.3-0.3v-0.6c0-0.1,0.1-0.3,0.2-0.3c0,0,0,0,0,0h0.7c0.6,0,1.1-0.5,1.1-1.1
	V67.2c0-0.8-0.4-1.4-1.2-1.4h-0.6c-0.1,0-0.2-0.2-0.2-0.3v-0.6c0-0.2,0.1-0.3,0.3-0.3h13.5v5.3c0,0.1-0.1,0.2-0.2,0.2c0,0,0,0,0,0
	h-0.4c-0.1,0-0.2-0.1-0.3-0.2c-0.1-0.7-0.4-1.8-0.6-2.4c-0.1-0.5-0.4-0.9-0.8-1.2c-0.5-0.4-1.1-0.5-1.6-0.5h-4.2
	c-0.6-0.1-1.2,0.4-1.2,1c0,0.1,0,0.1,0,0.2v6.6h3.8c0.5,0.1,1-0.3,1.1-0.9c0-0.1,0-0.2,0-0.3v-0.9c0-0.1,0.1-0.3,0.3-0.3h0.6
	c0.1,0,0.2,0.1,0.2,0.3c0,0,0,0,0,0v5c0,0.2-0.1,0.3-0.2,0.3h-0.5c-0.1,0-0.3-0.1-0.3-0.3V76c0-0.6-0.4-1.1-1-1.1h-3.9v7
	c-0.1,0.6,0.4,1.2,1,1.3h4.7c1-0.1,2-0.7,2.5-1.6c0.4-0.8,0.7-1.6,0.9-2.5c0-0.1,0.1-0.2,0.2-0.2h0.5c0.1,0,0.2,0.1,0.2,0.2
	L41.8,84.3z"/>
<path class="st0" d="M56.5,84.3H44.6c-0.2,0-0.3-0.2-0.3-0.3c0,0,0,0,0,0v-0.4c0-0.2,0.2-0.3,0.3-0.3h0.6c0.4,0,1.2-0.5,1.2-1V66.7
	c-0.1-0.5-0.5-0.9-1-1h-0.8c-0.1,0-0.2-0.1-0.2-0.2c0,0,0,0,0,0v-0.6c0-0.1,0.1-0.2,0.2-0.2h6.1c0.2,0,0.3,0.1,0.3,0.2v0.6
	c0,0.1-0.1,0.3-0.2,0.3c0,0,0,0,0,0H50c-0.6,0-1.1,0.5-1.1,1.1v15.4c0.1,0.5,0.5,0.9,1,1h2.8c0.7,0,1.3-0.2,1.8-0.7
	c0.5-0.4,0.9-0.9,1.2-1.5c0.2-0.7,0.4-1.3,0.5-2c0.1-0.1,0.2-0.2,0.3-0.3H57c0.1,0,0.2,0.1,0.2,0.3L56.5,84.3z"/>
<path class="st0" d="M71.6,61.5L58.2,88.3l-1-0.5L70.6,61L71.6,61.5z"/>
<path class="st0" d="M94.3,83.2c-0.9,0.8-2.1,1.2-3.3,1.2c-1.4,0-2.7-0.6-3.6-1.6c-0.9-1.1-1.5-2.4-1.7-3.8
	c-0.3-1.6-0.4-3.2-0.3-4.7c0-1.8,0.1-3.5,0.5-5.2c0.3-1.3,0.9-2.4,1.8-3.4c1-1,2.4-1.5,3.9-1.3c1.3,0.1,2.4,0.7,3.2,1.8
	c0.7,1,1.2,2,1.4,3.2c0.4,1.6,0.5,3.3,0.5,4.9c0.1,1.9-0.1,3.8-0.5,5.7C95.9,81.2,95.3,82.3,94.3,83.2z M93.8,69
	c-0.2-0.9-0.5-1.7-1-2.4c-0.4-0.6-1-1-1.8-1c-0.6,0.1-1.2,0.4-1.6,0.9c-0.6,0.7-1,1.6-1.2,2.5c-0.7,3.8-0.6,7.7,0.2,11.5
	c0.2,1,0.8,1.9,1.6,2.5c0.8,0.4,1.7,0.3,2.3-0.3c0.8-0.8,1.4-1.9,1.5-3C94.5,76.2,94.4,72.6,93.8,69z"/>
<path class="st0" d="M106.4,72.3c-0.8,2.4-1.3,5-1.5,7.6c-0.1,1.2-0.1,2.3-0.2,3.4c0,0.5-0.3,0.9-0.7,1.1c-0.5,0.2-1.1,0.1-1.5-0.3
	c-0.5-0.5-0.8-1.1-0.8-1.8c0-1.2,0.2-2.5,0.5-3.7c0.6-2.4,1.5-4.8,2.8-7c0.9-1.6,1.9-3.1,3-4.5h-5.8c-0.7,0-1.3,0.4-1.6,1
	c-0.4,0.9-0.7,1.8-0.9,2.8h-1l1.2-6.2h9.9v2.3C108.3,68.4,107.1,70.3,106.4,72.3z"/>
<path class="st0" d="M111.7,75.9h6v2.2h-6V75.9z"/>
<path class="st0" d="M128.9,83.4c-1.2,0.8-2.7,1.2-4.1,1.1c-1.4-0.1-2.8-0.7-3.8-1.7c-0.8-0.9-1.2-2.1-1.2-3.3
	c-0.1-1,0.7-1.8,1.6-1.8c0.1,0,0.2,0,0.4,0c0.6,0.1,1,0.5,1.2,1.1c0.1,0.4,0.1,0.8-0.2,1.1c-0.2,0.3-0.4,0.7-0.5,1.1
	c-0.1,0.3,0,0.6,0.1,0.9c0.6,1,1.7,1.5,2.8,1.4c0.9-0.1,1.7-0.6,2.2-1.3c1-1.5,1.2-3.5,0.7-5.2c-0.3-1-1.1-1.8-2.1-2.1
	c-0.8-0.2-1.6-0.3-2.4-0.3c-0.1,0-0.2-0.1-0.2-0.2c0,0,0,0,0,0v-0.7c0-0.1,0.1-0.2,0.2-0.2c0,0,0,0,0,0c0.8,0,1.5-0.1,2.3-0.3
	c0.5-0.2,1-0.6,1.3-1.1c0.6-1.1,0.9-2.4,0.7-3.6c-0.1-0.9-0.5-1.8-1.3-2.4c-0.7-0.5-1.6-0.6-2.4-0.3c-0.7,0.2-1.3,0.7-1.7,1.3
	c-0.2,0.3-0.3,0.6-0.3,1c0.1,0.3,0.3,0.6,0.5,0.9c0.3,0.4,0.5,0.8,0.4,1.3c0,0.5-0.4,1-0.8,1.2c-0.5,0.2-1.1,0.2-1.5-0.2
	c-0.5-0.4-0.7-1-0.7-1.6c0-1.1,0.3-2.2,0.9-3.1c0.6-1,1.6-1.7,2.7-2c1.4-0.4,2.9-0.3,4.2,0.4c1,0.6,1.8,1.6,2.1,2.8
	c0.4,1.3,0.3,2.7-0.3,3.9c-0.5,1.1-1.6,2-2.9,2.2c1.4,0.3,2.7,1.2,3.4,2.5c0.6,1.3,0.7,2.7,0.4,4C130.5,81.6,129.8,82.7,128.9,83.4z
	"/>
<path class="st0" d="M143.2,84.3h-10.5c0.1-0.9,0.4-1.8,0.8-2.6c0.7-1.2,1.6-2.3,2.6-3.2c1.4-1.3,2.6-2.8,3.6-4.5
	c0.9-1.4,1.5-3.1,1.5-4.8c0.1-1.1-0.3-2.1-1.1-2.9c-1.3-1-3.2-0.7-4.2,0.6c-0.2,0.3-0.4,0.6-0.5,1c-0.1,0.3,0,0.7,0.2,0.9
	c0.4,0.4,0.7,0.9,0.8,1.4c0.1,0.6,0,1.1-0.4,1.6c-0.4,0.4-1,0.6-1.6,0.4c-0.5-0.1-0.9-0.4-1.2-0.9c-0.3-0.7-0.3-1.5-0.2-2.2
	c0.2-1.3,0.9-2.5,1.9-3.4c1.2-1,2.8-1.4,4.4-1.1c1.5,0.2,2.8,1,3.6,2.3c0.6,1.1,0.8,2.4,0.6,3.7c-0.1,1.5-0.7,2.8-1.6,4
	c-1.7,2.2-3.6,4.2-5.7,6c-0.4,0.3-0.6,0.7-0.8,1.2h5.6c0.5,0,0.9-0.3,1.2-0.7c0.3-0.6,0.6-1.2,0.6-1.9c0-0.1,0.1-0.2,0.3-0.2h0.6
	c0.1,0,0.2,0.1,0.2,0.2L143.2,84.3z"/>
<path class="st0" d="M156.3,84.3h-10.5c0.1-0.9,0.4-1.8,0.8-2.6c0.7-1.2,1.6-2.3,2.6-3.2c1.4-1.3,2.6-2.8,3.6-4.5
	c0.9-1.4,1.5-3.1,1.5-4.8c0.1-1.1-0.3-2.1-1.1-2.9c-0.8-0.6-1.8-0.7-2.7-0.4c-1,0.3-1.7,1-2,2c-0.1,0.3,0,0.7,0.2,0.9
	c0.4,0.4,0.7,0.9,0.8,1.4c0.1,0.6,0,1.1-0.4,1.6c-0.4,0.4-1,0.6-1.6,0.4c-0.5-0.1-0.9-0.4-1.2-0.9c-0.3-0.7-0.3-1.5-0.2-2.2
	c0.2-1.3,0.9-2.4,1.9-3.3c1.2-1,2.8-1.4,4.4-1.1c1.5,0.2,2.8,1,3.6,2.3c0.6,1.1,0.8,2.4,0.6,3.7c-0.2,1.5-0.7,2.8-1.6,4
	c-1.7,2.2-3.6,4.2-5.7,6c-0.4,0.3-0.6,0.7-0.8,1.2h5.6c0.5,0,0.9-0.3,1.2-0.7c0.3-0.6,0.6-1.2,0.6-1.9c0-0.1,0.1-0.2,0.3-0.2
	c0,0,0,0,0,0h0.6c0.1,0,0.2,0.1,0.2,0.2L156.3,84.3z"/>
<path class="st0" d="M159.1,75.9h6v2.2h-6V75.9z"/>
<path class="st0" d="M178,80.8c-0.3,1-1,1.9-1.8,2.5c-1,0.7-2.1,1.1-3.3,1.1c-1.1,0-2.2-0.2-3.1-0.7c-1-0.5-1.7-1.4-2.2-2.3
	c-0.5-1.1-0.7-2.3-0.6-3.5c0.1-1.1,0.4-2.1,1.1-2.9c0.6-0.8,1.4-1.3,2.4-1.6c-0.9-0.3-1.6-0.9-2.1-1.7c-0.4-0.6-0.6-1.4-0.7-2.2
	c0-1.1,0.3-2.2,0.9-3.1c0.8-1.1,1.9-1.8,3.3-2c1.5-0.2,3.1,0.2,4.3,1.3c0.9,0.9,1.5,2.2,1.6,3.5c0.1,1.8-0.9,3.5-2.5,4.3
	c1.5,0.6,2.7,1.9,3,3.6C178.4,78.3,178.4,79.6,178,80.8z M175.3,75.8c-0.4-0.8-1.1-1.4-2-1.6c-0.7-0.2-1.4-0.1-2.1,0.2
	c-0.9,0.5-1.5,1.3-1.7,2.3c-0.3,1.4-0.3,2.8,0.1,4.2c0.3,0.8,0.8,1.5,1.6,2c0.7,0.3,1.4,0.4,2.1,0.2c0.9-0.2,1.6-0.9,2-1.8
	C176.1,79.6,176,77.6,175.3,75.8L175.3,75.8z M174.7,66.7c-0.2-0.5-0.6-0.9-1.2-1.1c-0.5-0.2-1.1-0.2-1.7,0
	c-0.6,0.3-1.1,0.8-1.3,1.4c-0.4,1.1-0.5,2.4-0.3,3.6c0.1,0.7,0.5,1.4,1.1,1.8c0.6,0.5,1.4,0.6,2.1,0.4c0.7-0.3,1.3-0.8,1.5-1.5
	C175.5,69.8,175.4,68.2,174.7,66.7L174.7,66.7z"/>
<path class="st0" d="M191.1,78.1c-0.1,1.3-0.5,2.5-1.1,3.7c-0.6,0.9-1.4,1.7-2.4,2.2c-0.9,0.4-1.9,0.6-2.9,0.5
	c-1.3,0-2.5-0.6-3.4-1.5c-0.8-0.9-1.2-2.1-1.1-3.3c0-0.5,0.3-0.9,0.7-1.1c0.5-0.2,1.1-0.2,1.6,0.2c0.5,0.4,0.7,1,0.5,1.6
	c-0.1,0.3-0.2,0.5-0.4,0.8c-0.1,0.2-0.2,0.5-0.1,0.7c0,0.4,0.3,0.8,0.7,1.1c0.6,0.4,1.3,0.5,2,0.5c0.9,0,1.7-0.5,2.2-1.3
	c0.6-0.9,0.9-1.9,1.1-2.9c0.2-1.1,0.2-2.3,0.3-3.4c-0.8,1-1.9,1.6-3.1,1.8c-0.9,0.1-1.9,0-2.8-0.4c-1-0.5-1.8-1.4-2.2-2.5
	c-0.7-1.9-0.9-4-0.4-6c0.3-1.2,0.9-2.3,1.8-3.1c0.9-0.8,2.1-1.3,3.3-1.3c1.1-0.1,2.2,0.2,3.2,0.9c0.9,0.7,1.5,1.7,1.9,2.7
	c0.4,1.1,0.6,2.2,0.7,3.4C191.4,73.6,191.4,75.9,191.1,78.1z M188.4,68.5c-0.1-0.7-0.4-1.5-0.8-2.1c-0.4-0.7-1.2-1-2-1
	c-0.6,0.1-1.1,0.3-1.5,0.7c-0.5,0.5-0.8,1.1-1,1.7c-0.6,2.1-0.6,4.3,0,6.3c0.2,0.8,0.8,1.5,1.6,1.9c0.8,0.4,1.7,0.3,2.3-0.2
	c0.8-0.6,1.4-1.3,1.8-2.1C188.9,72,188.7,70.3,188.4,68.5z"/>
<path class="st0" d="M204.3,78.1c-0.1,1.3-0.5,2.5-1.1,3.7c-0.6,0.9-1.4,1.7-2.4,2.2c-0.9,0.4-1.9,0.6-2.9,0.5
	c-1.3,0-2.5-0.6-3.4-1.5c-0.8-0.9-1.2-2.1-1.1-3.3c0-0.5,0.3-0.9,0.7-1.1c0.5-0.2,1.1-0.2,1.6,0.2c0.5,0.4,0.7,1,0.5,1.6
	c-0.1,0.3-0.2,0.5-0.4,0.8c-0.1,0.2-0.2,0.5-0.1,0.7c0,0.4,0.3,0.8,0.7,1.1c0.6,0.4,1.3,0.5,2,0.5c0.9,0,1.7-0.5,2.2-1.3
	c0.5-0.9,0.9-1.9,1-2.9c0.2-1.1,0.2-2.3,0.3-3.4c-0.8,1-1.9,1.6-3.1,1.8c-0.9,0.1-1.9,0-2.8-0.4c-1-0.5-1.8-1.4-2.2-2.5
	c-0.7-1.9-0.8-4-0.3-6c0.3-1.2,0.9-2.3,1.8-3.1c0.9-0.8,2.1-1.3,3.3-1.3c1.1-0.1,2.2,0.2,3.2,0.9c0.9,0.7,1.6,1.6,1.9,2.7
	c0.4,1.1,0.6,2.2,0.7,3.4C204.5,73.6,204.5,75.9,204.3,78.1z M201.6,68.5c-0.1-0.7-0.4-1.5-0.8-2.1c-0.4-0.7-1.2-1-2-1
	c-0.6,0.1-1.1,0.3-1.5,0.7c-0.5,0.5-0.8,1.1-1,1.7c-0.6,2.1-0.6,4.3,0,6.3c0.2,0.8,0.8,1.5,1.6,1.9c0.8,0.4,1.7,0.3,2.3-0.2
	c0.8-0.5,1.4-1.3,1.8-2.1C202,72,201.8,70.3,201.6,68.5z"/>
<path class="st0" d="M217.4,78.1c-0.1,1.3-0.5,2.5-1.1,3.7c-0.6,0.9-1.4,1.7-2.4,2.2c-0.9,0.4-1.9,0.6-2.9,0.5
	c-1.3,0-2.5-0.6-3.4-1.5c-0.8-0.9-1.2-2.1-1.1-3.3c0-0.5,0.3-0.9,0.7-1.1c0.5-0.2,1.1-0.2,1.6,0.2c0.5,0.4,0.7,1,0.5,1.6
	c-0.1,0.3-0.2,0.5-0.4,0.8c-0.1,0.2-0.2,0.5-0.1,0.7c0.1,0.4,0.3,0.8,0.7,1.1c0.6,0.4,1.3,0.5,2,0.5c0.9,0,1.7-0.5,2.2-1.3
	c0.6-0.9,0.9-1.9,1.1-2.9c0.2-1.1,0.2-2.3,0.3-3.4c-0.7,1-1.8,1.6-3,1.9c-0.9,0.1-1.9,0-2.8-0.4c-1-0.5-1.8-1.4-2.3-2.5
	c-0.7-1.9-0.9-4-0.4-6c0.3-1.2,0.9-2.3,1.8-3.1c0.9-0.8,2.1-1.3,3.3-1.3c1.1-0.1,2.2,0.2,3.2,0.9c0.9,0.7,1.5,1.6,1.9,2.7
	c0.4,1.1,0.6,2.2,0.7,3.4C217.6,73.6,217.6,75.9,217.4,78.1z M214.7,68.5c-0.1-0.7-0.4-1.5-0.8-2.1c-0.4-0.7-1.2-1-2-1
	c-0.6,0.1-1.1,0.3-1.5,0.7c-0.5,0.5-0.8,1.1-1,1.7c-0.6,2.1-0.6,4.3,0,6.3c0.2,0.8,0.8,1.5,1.6,1.9c0.8,0.4,1.7,0.3,2.3-0.2
	c0.7-0.5,1.3-1.3,1.8-2.1C215.1,72,214.9,70.3,214.7,68.5z"/>
<path class="st0" d="M292.5,70.1h-0.4c-0.1,0-0.2-0.1-0.2-0.2c-0.1-0.7-0.4-1.8-0.6-2.4c-0.2-0.5-0.5-1-0.9-1.3
	c-0.6-0.4-1.3-0.6-2-0.5H285c-0.8,0-1.4,0.6-1.4,1.4c0,0,0,0,0,0v6.3h3.5c0.8,0,1.5-0.7,1.5-1.5v-1.3c0-0.1,0.1-0.3,0.3-0.3h0.4
	c0.1,0,0.2,0.1,0.2,0.3c0,0,0,0,0,0v7.1c0,0.1-0.1,0.3-0.3,0.3h-0.4c-0.1,0-0.3-0.1-0.3-0.3v-1.3c0.1-1-0.6-1.9-1.6-2
	c-0.1,0-0.1,0-0.2,0h-3.3v7.8c0.1,0.6,0.5,1,1.1,1h0.8c0.1,0,0.3,0.1,0.3,0.3V84c0,0.1-0.1,0.3-0.2,0.3c0,0,0,0,0,0h-6.3
	c-0.1,0-0.3-0.1-0.3-0.3v-0.5c0-0.1,0.1-0.3,0.3-0.3h0.9c0.6,0,1.1-0.6,1.1-1.2V67.3c0-0.9-0.3-1.6-1.3-1.6h-0.7
	c-0.1,0-0.2-0.1-0.2-0.3v-0.5c0-0.1,0.1-0.3,0.3-0.3h13l0.5,5.2C292.7,70,292.6,70.1,292.5,70.1z"/>
<path class="st0" d="M305.7,82.8c-1.2,1.2-2.9,1.8-4.5,1.8c-1.7,0.1-3.4-0.5-4.6-1.7c-1-1.1-1.7-2.5-2-4c-0.6-3-0.6-6.1,0.2-9.1
	c0.4-1.4,1.1-2.6,2.1-3.7c1.1-1.1,2.6-1.7,4.2-1.7c1.6-0.1,3.1,0.4,4.2,1.5c1,1,1.8,2.3,2.1,3.7c0.8,2.9,0.9,5.8,0.4,8.8
	C307.5,80,306.8,81.6,305.7,82.8z M305.1,69.8c-0.2-1-0.6-1.9-1.1-2.8c-1.1-1.6-3.2-2-4.8-1c-0.5,0.3-0.8,0.7-1.1,1.2
	c-0.5,0.9-0.8,1.9-1,2.9c-0.6,2.9-0.6,5.8-0.1,8.7c0.2,1.1,0.6,2.2,1.3,3.2c0.7,0.8,1.6,1.3,2.7,1.3c1.1,0.1,2.2-0.4,2.9-1.3
	c0.8-1.1,1.3-2.3,1.4-3.7C305.7,75.6,305.6,72.7,305.1,69.8L305.1,69.8z"/>
<path class="st0" d="M325.7,84.3h-6.4c-0.2,0-0.3-0.1-0.3-0.3v-0.5c0-0.3,0.1-0.3,0.3-0.3h0.8c0.7,0,0.8-0.4,0.5-1l-3.4-6.2
	l-3.6,6.3c-0.2,0.3-0.1,0.7,0.2,0.8c0.1,0.1,0.3,0.1,0.4,0.1h0.9c0.2,0,0.4,0.1,0.4,0.3V84c0,0.2,0,0.3-0.3,0.3H310
	c-0.1,0-0.3-0.1-0.3-0.2c0,0,0,0,0-0.1v-0.4c0-0.2,0.2-0.3,0.4-0.3h0.7c0.6-0.1,1.1-0.4,1.5-0.9l4.4-7.5l-4.6-8.3
	c-0.2-0.3-0.4-0.5-0.7-0.6c-0.2-0.1-0.5-0.2-0.8-0.2h-0.3c-0.2,0-0.4-0.1-0.4-0.3v-0.5c0-0.1,0.1-0.2,0.2-0.3c0,0,0,0,0,0h6.5
	c0.1,0,0.2,0.2,0.2,0.3v0.5c0,0.2-0.1,0.3-0.3,0.3h-0.8c-0.3,0-0.5,0.1-0.7,0.4c-0.2,0.3-0.2,0.6,0,0.9l3,5.5l3.3-5.8
	c0.1-0.2,0.1-0.4,0-0.6c-0.1-0.2-0.3-0.3-0.5-0.4h-0.8c-0.1,0-0.2-0.1-0.2-0.3V65c0-0.2,0.1-0.3,0.2-0.3h4.9c0.1,0,0.3,0.1,0.3,0.2
	c0,0,0,0,0,0.1v0.5c0,0.1-0.1,0.2-0.2,0.2h-0.8c-0.3,0-0.6,0.1-0.9,0.3c-0.3,0.1-0.5,0.4-0.6,0.6l-4.1,7l4.8,8.8
	c0.3,0.6,1,0.9,1.6,0.9h0.6c0.2,0,0.3,0.2,0.3,0.3V84C326,84.1,325.9,84.3,325.7,84.3C325.8,84.3,325.7,84.3,325.7,84.3z"/>
<path class="st0" d="M340.6,61.5l-13.4,26.8l-1-0.5L339.6,61L340.6,61.5z"/>
<path class="st0" d="M363.4,83.2c-0.9,0.8-2.1,1.2-3.3,1.2c-1.4,0-2.7-0.6-3.6-1.6c-0.9-1.1-1.5-2.4-1.7-3.8
	c-0.3-1.6-0.4-3.2-0.4-4.7c0-1.8,0.1-3.5,0.5-5.2c0.3-1.3,0.9-2.4,1.8-3.4c1-1,2.4-1.5,3.9-1.3c1.3,0.1,2.4,0.7,3.2,1.8
	c0.7,1,1.2,2,1.4,3.2c0.4,1.6,0.5,3.3,0.5,4.9c0.1,1.9-0.1,3.8-0.5,5.6C364.9,81.2,364.3,82.3,363.4,83.2z M362.8,69
	c-0.2-0.9-0.5-1.7-1-2.4c-0.4-0.6-1-1-1.8-1c-0.6,0.1-1.2,0.4-1.6,0.9c-0.6,0.7-1,1.6-1.2,2.5c-0.7,3.8-0.6,7.7,0.2,11.5
	c0.2,1,0.8,1.9,1.6,2.5c0.8,0.4,1.7,0.3,2.4-0.3c0.8-0.8,1.4-1.9,1.5-3C363.5,76.2,363.4,72.6,362.8,69z"/>
<path class="st0" d="M375.4,72.3c-0.8,2.4-1.3,5-1.5,7.6c-0.1,1.2-0.1,2.3-0.2,3.4c0,0.5-0.3,0.9-0.7,1.1c-0.5,0.2-1.1,0.1-1.5-0.3
	c-0.5-0.5-0.8-1.1-0.8-1.8c0-1.2,0.2-2.5,0.5-3.7c0.6-2.4,1.5-4.8,2.8-7c0.9-1.6,1.9-3.1,2.9-4.6h-5.8c-0.7,0-1.3,0.4-1.6,1
	c-0.4,0.9-0.7,1.8-0.9,2.8h-1l1.2-6.2h9.9v2.3C377.3,68.4,376.1,70.3,375.4,72.3z"/>
<path class="st0" d="M380.7,75.9h6v2.2h-6V75.9z"/>
<path class="st0" d="M397.9,83.4c-1.2,0.8-2.7,1.2-4.1,1.1c-1.4,0-2.8-0.7-3.8-1.7c-0.8-0.9-1.2-2.1-1.2-3.3c0-1,0.7-1.8,1.7-1.8
	c0.1,0,0.2,0,0.3,0c0.6,0.1,1,0.5,1.2,1.1c0.1,0.4,0.1,0.8-0.2,1.1c-0.2,0.3-0.4,0.7-0.5,1.1c-0.1,0.3,0,0.6,0.1,0.9
	c0.6,1,1.7,1.5,2.8,1.4c0.9-0.1,1.7-0.6,2.2-1.3c1-1.5,1.2-3.5,0.7-5.2c-0.3-1-1.1-1.8-2.1-2.1c-0.8-0.2-1.6-0.3-2.4-0.3
	c-0.1,0-0.2-0.1-0.2-0.2c0,0,0,0,0,0v-0.7c0-0.1,0.1-0.2,0.2-0.2c0,0,0,0,0,0c0.8,0,1.5-0.1,2.3-0.3c0.5-0.2,1-0.6,1.3-1.1
	c0.6-1.1,0.9-2.4,0.7-3.6c-0.1-0.9-0.5-1.8-1.3-2.4c-0.7-0.5-1.6-0.6-2.4-0.3c-0.7,0.2-1.3,0.7-1.7,1.3c-0.2,0.3-0.3,0.6-0.3,1
	c0.1,0.3,0.3,0.6,0.5,0.9c0.3,0.4,0.5,0.8,0.4,1.3c0,0.5-0.4,1-0.8,1.2c-0.5,0.2-1.1,0.2-1.5-0.2c-0.5-0.4-0.7-1-0.7-1.6
	c0-1.1,0.3-2.2,0.9-3.1c0.6-1,1.6-1.7,2.7-2c1.4-0.4,2.8-0.3,4.1,0.4c1,0.6,1.8,1.6,2.1,2.8c0.4,1.3,0.3,2.7-0.3,3.9
	c-0.5,1.1-1.6,2-2.9,2.2c1.4,0.3,2.7,1.2,3.4,2.5c0.6,1.3,0.7,2.7,0.4,4C399.5,81.6,398.9,82.7,397.9,83.4z"/>
<path class="st0" d="M412.2,84.3h-10.5c0.1-0.9,0.4-1.8,0.8-2.6c0.7-1.2,1.6-2.3,2.6-3.2c1.4-1.3,2.6-2.8,3.6-4.5
	c0.9-1.4,1.5-3.1,1.5-4.8c0.1-1.1-0.3-2.1-1.1-2.9c-0.8-0.6-1.8-0.7-2.7-0.4c-0.9,0.3-1.7,1.1-2,2c-0.1,0.3,0,0.7,0.2,0.9
	c0.4,0.4,0.7,0.9,0.8,1.4c0.1,0.6,0,1.1-0.4,1.6c-0.4,0.4-1,0.6-1.5,0.4c-0.5-0.1-0.9-0.4-1.2-0.9c-0.3-0.7-0.3-1.5-0.2-2.2
	c0.2-1.3,0.9-2.5,1.9-3.3c1.2-1,2.8-1.4,4.4-1.1c1.5,0.2,2.9,1,3.6,2.4c0.6,1.1,0.8,2.4,0.6,3.7c-0.1,1.5-0.7,2.8-1.6,4
	c-1.7,2.2-3.6,4.2-5.7,6c-0.4,0.3-0.6,0.7-0.8,1.2h5.6c0.5,0,0.9-0.3,1.2-0.7c0.3-0.6,0.6-1.2,0.6-1.9c0-0.1,0.1-0.2,0.3-0.2h0.6
	c0.1,0,0.2,0.1,0.2,0.2L412.2,84.3z"/>
<path class="st0" d="M425.3,84.3h-10.5c0.1-0.9,0.4-1.8,0.8-2.6c0.7-1.2,1.6-2.3,2.6-3.2c1.4-1.3,2.6-2.8,3.6-4.5
	c0.9-1.4,1.5-3.1,1.5-4.8c0.1-1.1-0.3-2.1-1.1-2.9c-0.8-0.6-1.8-0.7-2.7-0.4c-1,0.3-1.7,1-2,2c-0.1,0.3,0,0.7,0.2,0.9
	c0.4,0.4,0.7,0.9,0.8,1.4c0.1,0.6,0,1.1-0.4,1.6c-0.7,0.7-1.8,0.7-2.4,0c-0.1-0.1-0.2-0.3-0.3-0.4c-0.3-0.7-0.4-1.5-0.2-2.2
	c0.2-1.3,0.9-2.4,1.8-3.3c1.2-1,2.8-1.4,4.4-1.1c1.5,0.2,2.8,1,3.6,2.3c0.6,1.1,0.8,2.4,0.6,3.7c-0.2,1.5-0.7,2.8-1.6,4
	c-1.7,2.2-3.6,4.2-5.7,6c-0.4,0.3-0.6,0.7-0.8,1.2h5.6c0.5,0,0.9-0.3,1.2-0.7c0.3-0.6,0.6-1.2,0.6-1.9c0-0.1,0.1-0.2,0.3-0.2
	c0,0,0,0,0,0h0.6c0.1,0,0.2,0.1,0.2,0.2L425.3,84.3z"/>
<path class="st0" d="M428.1,75.9h6v2.2h-6V75.9z"/>
<path class="st0" d="M447,80.8c-0.3,1-1,1.9-1.8,2.5c-1,0.7-2.1,1.1-3.3,1.1c-1.1,0-2.2-0.2-3.1-0.7c-1-0.5-1.7-1.4-2.2-2.3
	c-0.5-1.1-0.7-2.3-0.6-3.5c0.1-1.1,0.5-2.1,1.1-2.9c0.6-0.8,1.4-1.3,2.4-1.6c-0.9-0.3-1.6-0.9-2.1-1.7c-0.4-0.6-0.6-1.4-0.7-2.2
	c0-1.1,0.3-2.2,0.9-3.1c0.8-1.1,1.9-1.8,3.3-2c1.5-0.2,3.1,0.2,4.3,1.3c0.9,0.9,1.5,2.2,1.6,3.5c0.1,1.8-0.9,3.5-2.5,4.3
	c1.5,0.6,2.7,1.9,3,3.6C447.4,78.3,447.4,79.6,447,80.8z M444.3,75.8c-0.4-0.8-1.1-1.4-2-1.6c-0.7-0.2-1.4-0.1-2.1,0.2
	c-0.9,0.5-1.5,1.3-1.7,2.3c-0.3,1.4-0.3,2.8,0.1,4.2c0.3,0.8,0.8,1.5,1.6,2c0.7,0.3,1.4,0.4,2.1,0.2c0.9-0.2,1.6-0.9,2-1.8
	C445.1,79.6,445.1,77.6,444.3,75.8L444.3,75.8z M443.7,66.7c-0.2-0.5-0.6-0.9-1.2-1.1c-0.5-0.2-1.1-0.2-1.7,0
	c-0.6,0.3-1.1,0.8-1.3,1.4c-0.4,1.1-0.5,2.4-0.3,3.6c0.1,0.7,0.5,1.4,1.1,1.8c0.6,0.5,1.4,0.6,2.1,0.4c0.7-0.3,1.3-0.8,1.5-1.5
	C444.5,69.8,444.4,68.2,443.7,66.7L443.7,66.7z"/>
<path class="st0" d="M460,67h-8.6l-0.5,5.7c0.7-0.8,1.7-1.4,2.7-1.7c1-0.3,2.1-0.2,3.2,0.1c1.1,0.4,2.1,1.3,2.7,2.3
	c0.9,1.9,1.2,4,0.9,6c-0.2,1.5-0.9,2.9-2,3.9c-1.3,0.9-2.8,1.4-4.4,1.2c-1-0.1-2-0.4-2.9-1c-1.2-0.8-1.9-2.1-2-3.5
	c0-0.4,0-0.9,0.2-1.3c0.2-0.4,0.6-0.7,1-0.8c0.6-0.1,1.2,0.1,1.5,0.6c0.4,0.4,0.4,0.9,0.2,1.4c-0.1,0.3-0.3,0.7-0.4,1
	c-0.1,0.3-0.1,0.7,0,1c0.4,0.9,1.4,1.6,2.4,1.6c0.9,0.1,1.9-0.2,2.6-0.9c0.8-0.9,1.3-2,1.4-3.1c0.2-1.7,0.1-3.4-0.5-5
	c-0.4-1.2-1.5-2-2.7-2.3c-1.1-0.1-2.1,0.2-2.8,1c-0.6,0.6-1,1.4-1.4,2.1h-1l0.8-10.6h10L460,67z"/>
<path class="st0" d="M473.1,67h-8.6l-0.5,5.7c0.7-0.8,1.7-1.4,2.8-1.7c1-0.3,2.1-0.2,3.2,0.1c1.1,0.4,2.1,1.3,2.7,2.3
	c0.9,1.9,1.2,4,0.9,6c-0.3,3-2.9,5.3-6,5.1c-0.1,0-0.3,0-0.4-0.1c-1-0.1-2-0.4-2.9-1c-1.2-0.8-1.9-2.1-2-3.5c0-0.4,0-0.9,0.2-1.3
	c0.2-0.4,0.6-0.7,1-0.8c0.6-0.1,1.2,0.1,1.6,0.6c0.3,0.4,0.4,0.9,0.2,1.4c-0.1,0.3-0.3,0.7-0.4,1c-0.1,0.3-0.1,0.7,0,1
	c0.4,0.9,1.4,1.6,2.4,1.6c0.9,0.1,1.9-0.2,2.6-0.9c0.7-0.9,1.2-2,1.3-3.1c0.2-1.7,0.1-3.4-0.5-5c-0.4-1.2-1.5-2-2.7-2.3
	c-1.1-0.1-2.1,0.2-2.8,1c-0.6,0.6-1,1.4-1.4,2.1h-1l0.8-10.6h10L473.1,67z"/>
<path class="st0" d="M486.2,67h-8.6l-0.5,5.7c0.7-0.8,1.7-1.4,2.8-1.7c1-0.3,2.1-0.2,3.2,0.1c1.1,0.4,2.1,1.3,2.7,2.3
	c0.9,1.9,1.2,4,0.9,6c-0.2,1.5-0.9,2.9-2,3.9c-1.3,0.9-2.8,1.4-4.4,1.2c-1-0.1-2-0.4-2.9-1c-1.2-0.8-1.9-2.1-2-3.5
	c0-0.4,0-0.9,0.2-1.3c0.2-0.4,0.6-0.7,1-0.8c0.6-0.1,1.2,0.1,1.5,0.6c0.3,0.4,0.4,0.9,0.2,1.4c-0.1,0.3-0.3,0.7-0.4,1
	c-0.1,0.3-0.1,0.7,0.1,1c0.4,0.9,1.4,1.6,2.4,1.6c0.9,0.1,1.9-0.2,2.6-0.9c0.7-0.9,1.2-2,1.3-3.1c0.2-1.7,0.1-3.4-0.5-5
	c-0.4-1.2-1.5-2-2.7-2.3c-1.1-0.1-2.1,0.2-2.8,1c-0.6,0.6-1,1.4-1.4,2.1h-1l0.8-10.6h10L486.2,67z"/>
</svg>
