<svg id="圖層_1" data-name="圖層 1" xmlns="http://www.w3.org/2000/svg" xmlns:xlink="http://www.w3.org/1999/xlink" viewBox="0 0 500 160"><defs><style>.cls-1{fill:#5f7696;}.cls-1,.cls-2,.cls-28{fill-rule:evenodd;}.cls-2{fill:url(#新增漸層色票_1);}.cls-3{fill:url(#新增漸層色票_1-2);}.cls-4{fill:url(#未命名漸層_21);}.cls-5{fill:url(#未命名漸層_20);}.cls-6{fill:url(#未命名漸層_19);}.cls-7{fill:url(#未命名漸層_18);}.cls-8{fill:url(#未命名漸層_17);}.cls-9{fill:url(#未命名漸層_16);}.cls-10{fill:url(#未命名漸層_15);}.cls-11{fill:url(#未命名漸層_14);}.cls-12{fill:url(#未命名漸層_13);}.cls-13{fill:url(#未命名漸層_12);}.cls-14{fill:url(#未命名漸層_11);}.cls-15{fill:url(#未命名漸層_10);}.cls-16{fill:url(#未命名漸層_9);}.cls-17{fill:url(#未命名漸層_8);}.cls-18{fill:url(#未命名漸層_7);}.cls-19{fill:url(#未命名漸層_6);}.cls-20{fill:url(#未命名漸層_5);}.cls-21{fill:url(#未命名漸層_4);}.cls-22{fill:url(#未命名漸層_3);}.cls-23{fill:url(#未命名漸層_2);}.cls-24{fill:#4c6075;}.cls-25{fill:url(#未命名漸層_22);}.cls-26{fill:#fff;}.cls-27{fill:#211513;}.cls-28{fill:#ad181c;}.cls-29{fill:#cf121b;}</style><linearGradient id="新增漸層色票_1" x1="363.69" y1="72.43" x2="459.71" y2="72.43" gradientUnits="userSpaceOnUse"><stop offset="0" stop-color="#d33924"/><stop offset="0.15" stop-color="#cb3023"/><stop offset="0.35" stop-color="#bb1c21"/><stop offset="0.57" stop-color="#aa1b20"/><stop offset="1" stop-color="#7f191e"/><stop offset="1" stop-color="#7f191e"/></linearGradient><linearGradient id="新增漸層色票_1-2" x1="372.47" y1="46.46" x2="454.59" y2="46.46" xlink:href="#新增漸層色票_1"/><linearGradient id="未命名漸層_21" x1="372.4" y1="46.71" x2="454.37" y2="46.71" gradientUnits="userSpaceOnUse"><stop offset="0" stop-color="#cd3b28"/><stop offset="0.15" stop-color="#c53227"/><stop offset="0.35" stop-color="#b61f25"/><stop offset="0.57" stop-color="#a51e24"/><stop offset="1" stop-color="#7d1c22"/></linearGradient><linearGradient id="未命名漸層_20" x1="372.32" y1="46.97" x2="454.15" y2="46.97" gradientUnits="userSpaceOnUse"><stop offset="0" stop-color="#c63d2c"/><stop offset="0.16" stop-color="#be342b"/><stop offset="0.35" stop-color="#b02329"/><stop offset="0.59" stop-color="#9f2228"/><stop offset="1" stop-color="#7a2026"/></linearGradient><linearGradient id="未命名漸層_19" x1="372.25" y1="47.23" x2="453.93" y2="47.23" gradientUnits="userSpaceOnUse"><stop offset="0" stop-color="#c03f30"/><stop offset="0.17" stop-color="#b8362f"/><stop offset="0.35" stop-color="#ab262d"/><stop offset="0.6" stop-color="#9a252c"/><stop offset="1" stop-color="#78232a"/></linearGradient><linearGradient id="未命名漸層_18" x1="372.17" y1="47.49" x2="453.71" y2="47.49" gradientUnits="userSpaceOnUse"><stop offset="0" stop-color="#b94133"/><stop offset="0.17" stop-color="#b23832"/><stop offset="0.35" stop-color="#a62931"/><stop offset="0.61" stop-color="#952830"/><stop offset="1" stop-color="#75272f"/></linearGradient><linearGradient id="未命名漸層_17" x1="372.1" y1="47.74" x2="453.49" y2="47.74" gradientUnits="userSpaceOnUse"><stop offset="0" stop-color="#b34237"/><stop offset="0.18" stop-color="#ab3936"/><stop offset="0.35" stop-color="#a02c35"/><stop offset="0.63" stop-color="#8f2b34"/><stop offset="1" stop-color="#732a33"/></linearGradient><linearGradient id="未命名漸層_16" x1="372.03" y1="48" x2="453.27" y2="48" gradientUnits="userSpaceOnUse"><stop offset="0" stop-color="#ac443b"/><stop offset="0.2" stop-color="#a43b3a"/><stop offset="0.35" stop-color="#9b3039"/><stop offset="0.64" stop-color="#8a2f38"/><stop offset="1" stop-color="#702d37"/></linearGradient><linearGradient id="未命名漸層_15" x1="371.95" y1="48.26" x2="453.05" y2="48.26" gradientUnits="userSpaceOnUse"><stop offset="0" stop-color="#a6463f"/><stop offset="0.2" stop-color="#9e3d3e"/><stop offset="0.35" stop-color="#96333d"/><stop offset="0.66" stop-color="#85323c"/><stop offset="1" stop-color="#6e313b"/></linearGradient><linearGradient id="未命名漸層_14" x1="371.88" y1="48.51" x2="452.83" y2="48.51" gradientUnits="userSpaceOnUse"><stop offset="0" stop-color="#9f4843"/><stop offset="0.21" stop-color="#983f42"/><stop offset="0.35" stop-color="#913641"/><stop offset="0.67" stop-color="#803540"/><stop offset="1" stop-color="#6b343f"/></linearGradient><linearGradient id="未命名漸層_13" x1="371.8" y1="48.77" x2="452.61" y2="48.77" gradientUnits="userSpaceOnUse"><stop offset="0" stop-color="#994a47"/><stop offset="0.22" stop-color="#914146"/><stop offset="0.35" stop-color="#8b3945"/><stop offset="0.7" stop-color="#7a3944"/><stop offset="1" stop-color="#693843"/></linearGradient><linearGradient id="未命名漸層_12" x1="371.73" y1="49.03" x2="452.38" y2="49.03" gradientUnits="userSpaceOnUse"><stop offset="0" stop-color="#934c4b"/><stop offset="0.24" stop-color="#8b434a"/><stop offset="0.35" stop-color="#863d49"/><stop offset="0.73" stop-color="#753c48"/><stop offset="1" stop-color="#673b47"/></linearGradient><linearGradient id="未命名漸層_11" x1="371.65" y1="49.29" x2="452.16" y2="49.29" gradientUnits="userSpaceOnUse"><stop offset="0" stop-color="#8c4e4f"/><stop offset="0.26" stop-color="#85454e"/><stop offset="0.35" stop-color="#81404d"/><stop offset="0.75" stop-color="#703f4c"/><stop offset="1" stop-color="#643e4c"/></linearGradient><linearGradient id="未命名漸層_10" x1="371.58" y1="49.54" x2="451.94" y2="49.54" gradientUnits="userSpaceOnUse"><stop offset="0" stop-color="#865052"/><stop offset="0.27" stop-color="#7e4751"/><stop offset="0.35" stop-color="#7b4351"/><stop offset="0.81" stop-color="#6a4250"/><stop offset="1" stop-color="#624250"/></linearGradient><linearGradient id="未命名漸層_9" x1="371.5" y1="49.8" x2="451.72" y2="49.8" gradientUnits="userSpaceOnUse"><stop offset="0" stop-color="#7f5156"/><stop offset="0.31" stop-color="#774855"/><stop offset="0.35" stop-color="#764655"/><stop offset="0.84" stop-color="#654554"/><stop offset="1" stop-color="#5f4554"/></linearGradient><linearGradient id="未命名漸層_8" x1="371.43" y1="50.06" x2="451.5" y2="50.06" gradientUnits="userSpaceOnUse"><stop offset="0" stop-color="#79535a"/><stop offset="0.35" stop-color="#714a59"/><stop offset="0.9" stop-color="#604958"/><stop offset="1" stop-color="#5d4958"/></linearGradient><linearGradient id="未命名漸層_7" x1="371.35" y1="50.32" x2="451.28" y2="50.32" gradientUnits="userSpaceOnUse"><stop offset="0" stop-color="#72555e"/><stop offset="0.35" stop-color="#6b4d5d"/><stop offset="0.99" stop-color="#5a4c5c"/><stop offset="1" stop-color="#5a4c5c"/></linearGradient><linearGradient id="未命名漸層_6" x1="371.28" y1="50.57" x2="451.06" y2="50.57" gradientUnits="userSpaceOnUse"><stop offset="0" stop-color="#6c5762"/><stop offset="0.35" stop-color="#665061"/><stop offset="1" stop-color="#584f60"/></linearGradient><linearGradient id="未命名漸層_5" x1="371.2" y1="50.83" x2="450.84" y2="50.83" gradientUnits="userSpaceOnUse"><stop offset="0" stop-color="#655966"/><stop offset="0.35" stop-color="#615365"/><stop offset="1" stop-color="#555365"/></linearGradient><linearGradient id="未命名漸層_4" x1="371.13" y1="51.09" x2="450.62" y2="51.09" gradientUnits="userSpaceOnUse"><stop offset="0" stop-color="#5f5b6a"/><stop offset="0.35" stop-color="#5c5769"/><stop offset="1" stop-color="#535669"/></linearGradient><linearGradient id="未命名漸層_3" x1="371.05" y1="51.35" x2="450.4" y2="51.35" gradientUnits="userSpaceOnUse"><stop offset="0" stop-color="#595d6d"/><stop offset="0.35" stop-color="#565a6d"/><stop offset="1" stop-color="#515a6d"/></linearGradient><linearGradient id="未命名漸層_2" x1="370.98" y1="51.6" x2="450.18" y2="51.6" gradientUnits="userSpaceOnUse"><stop offset="0" stop-color="#525f71"/><stop offset="0.35" stop-color="#515d71"/><stop offset="1" stop-color="#4e5d71"/></linearGradient><linearGradient id="未命名漸層_22" x1="370.91" y1="51.86" x2="449.96" y2="51.86" gradientUnits="userSpaceOnUse"><stop offset="0" stop-color="#7f5b5f"/><stop offset="0.35" stop-color="#76565b"/><stop offset="0.93" stop-color="#655058"/><stop offset="1" stop-color="#634f57"/></linearGradient></defs><path class="cls-1" d="M437.18,13.16a47.44,47.44,0,1,0-39.51,84.57c4.45,1.11,8.32,1.35,12.68,3.13,13.15,5.36,13,19.89-12.69,40.16,44-17.88,68.8-65.56,57.78-101.61a51.12,51.12,0,0,0-18.26-26.25Z"/><path class="cls-2" d="M439,13a47.34,47.34,0,1,0-39.47,84.13c4.45,1.12,8.57,1.21,12.72,3.43,12.91,6.88,11.12,22.94-14.55,40.51,44-17.88,70.58-65.77,59.56-101.82A51.06,51.06,0,0,0,439,13Z"/><path class="cls-3" d="M372.93,40.42a41.05,41.05,0,1,1,34.56,46.64,41,41,0,0,1-34.56-46.64Z"/><path class="cls-4" d="M372.85,40.69a41,41,0,1,1,34.51,46.56,41,41,0,0,1-34.51-46.56Z"/><path class="cls-5" d="M372.77,41a40.91,40.91,0,1,1,34.45,46.48A40.91,40.91,0,0,1,372.77,41Z"/><path class="cls-6" d="M372.7,41.22a40.83,40.83,0,1,1,34.38,46.4,40.82,40.82,0,0,1-34.38-46.4Z"/><path class="cls-7" d="M372.62,41.49A40.76,40.76,0,1,1,407,87.8a40.76,40.76,0,0,1-34.33-46.31Z"/><path class="cls-8" d="M372.55,41.76A40.69,40.69,0,1,1,406.81,88a40.68,40.68,0,0,1-34.26-46.23Z"/><path class="cls-9" d="M372.47,42a40.62,40.62,0,1,1,34.2,46.14A40.61,40.61,0,0,1,372.47,42Z"/><path class="cls-10" d="M372.4,42.3a40.54,40.54,0,1,1,34.14,46.06A40.53,40.53,0,0,1,372.4,42.3Z"/><path class="cls-11" d="M372.32,42.56a40.47,40.47,0,1,1,34.08,46,40.46,40.46,0,0,1-34.08-46Z"/><path class="cls-12" d="M372.25,42.83a40.39,40.39,0,1,1,34,45.9,40.37,40.37,0,0,1-34-45.9Z"/><path class="cls-13" d="M372.17,43.1a40.32,40.32,0,1,1,34,45.81,40.33,40.33,0,0,1-34-45.81Z"/><path class="cls-14" d="M372.1,43.37A40.25,40.25,0,1,1,406,89.1,40.24,40.24,0,0,1,372.1,43.37Z"/><path class="cls-15" d="M372,43.64a40.18,40.18,0,1,1,33.83,45.64A40.17,40.17,0,0,1,372,43.64Z"/><path class="cls-16" d="M371.94,43.9a40.11,40.11,0,1,1,33.77,45.57A40.1,40.1,0,0,1,371.94,43.9Z"/><path class="cls-17" d="M371.87,44.17a40,40,0,1,1,33.71,45.49,40,40,0,0,1-33.71-45.49Z"/><path class="cls-18" d="M371.79,44.44a40,40,0,1,1,33.65,45.4,40,40,0,0,1-33.65-45.4Z"/><path class="cls-19" d="M371.72,44.71A39.88,39.88,0,1,1,405.3,90a39.88,39.88,0,0,1-33.58-45.32Z"/><path class="cls-20" d="M371.64,45a39.81,39.81,0,1,1,33.53,45.23A39.82,39.82,0,0,1,371.64,45Z"/><path class="cls-21" d="M371.57,45.24A39.74,39.74,0,1,1,405,90.4a39.73,39.73,0,0,1-33.46-45.16Z"/><path class="cls-22" d="M371.49,45.51a39.67,39.67,0,1,1,33.4,45.07,39.67,39.67,0,0,1-33.4-45.07Z"/><path class="cls-23" d="M371.42,45.78a39.6,39.6,0,1,1,33.34,45,39.58,39.58,0,0,1-33.34-45Z"/><path class="cls-24" d="M371.34,46.05A39.52,39.52,0,1,1,404.62,91a39.51,39.51,0,0,1-33.28-44.9Z"/><path class="cls-25" d="M371.34,46.05A39.52,39.52,0,1,1,404.62,91a39.51,39.51,0,0,1-33.28-44.9Z"/><path class="cls-26" d="M372.82,46.27a38,38,0,1,1,32,43.21,38,38,0,0,1-32-43.21Z"/><path class="cls-27" d="M403.21,32.49h-1.35V35h-3.42v1.3h3.43v3.38h-3.48a19.28,19.28,0,0,1-1,1.65h2.42a3.56,3.56,0,0,0,.29-.79l1,.27a2.09,2.09,0,0,1-.14.52H403v1h-2.51a7.52,7.52,0,0,1-1.8,2.47c1.13.57,2.08,1.09,2.85,1.57l-.65.82a27.5,27.5,0,0,0-3.1-1.67,11,11,0,0,1-4.72,1.67l-.37-1A11.34,11.34,0,0,0,396.67,45,27,27,0,0,0,394,43.9c.35-.41.77-.94,1.28-1.58h-2.74v-1h3.5q.62-.87,1.08-1.65H394V36.31h3.49V35H394V32.49h-1.4v-1H394V29.15h3.49V28h1v1.2h3.42v2.32h1.35Zm-5.75-1V30.1H395v1.37Zm0,2.54V32.49H395V34Zm0,4.68V37.31H395v1.38Zm1.86,3.63h-2.68q-.21.32-.87,1.17c.57.19,1.2.45,1.89.76A5.67,5.67,0,0,0,399.32,42.32Zm1.57-10.85V30.1h-2.45v1.37Zm0,2.54V32.49h-2.45V34Zm0,4.68V37.31h-2.45v1.38Zm8.94-6.13h-.91c-.13,4.59-.83,8.15-2.09,10.65a11.82,11.82,0,0,0,3,3.15l-.59.91a11.29,11.29,0,0,1-3-3.12,16.19,16.19,0,0,1-3.4,3.12l-.6-.91a15.31,15.31,0,0,0,3.41-3.17A19.14,19.14,0,0,1,403.92,37l.93-.35a20,20,0,0,0,1.39,5.46,14.68,14.68,0,0,0,1.32-4.53,49.31,49.31,0,0,0,.41-5h-2.71a17.36,17.36,0,0,1-2.15,4.34l-.78-.64a23.24,23.24,0,0,0,3.05-8.4l1,.2a29,29,0,0,1-.77,3.41h4.26Z"/><path class="cls-27" d="M416.32,28.36c-.25.67-.59,1.47-1,2.41l-.65,1.39v15h-1V34.29a31.18,31.18,0,0,1-2.2,3.33l-.66-1.08a31.39,31.39,0,0,0,4.52-8.6Zm12,18.31H415.6V45.53h4a72.24,72.24,0,0,0-2.22-11.83l.69-.42h-2.22V32.14h5.89a21.61,21.61,0,0,0-1.19-3.89l1-.37a33,33,0,0,1,1.31,4.26H428v1.14h-2l.63.27a84,84,0,0,1-2.34,12h4ZM425.6,33.28h-7.16a106.58,106.58,0,0,1,2.27,12.25h2.55A72.48,72.48,0,0,0,425.6,33.28Z"/><path class="cls-27" d="M408.93,70.21h-7.15v3.51h-1V70.21h-7.16V64.48h7.16V62H394.4V56.46h6.34V54.3h1v2.16H408V62h-6.22v2.51h7.15Zm-8.19-1.12V65.56h-6.17v3.53Zm0-8.2V57.58h-5.32v3.31Zm6.25,0V57.58h-5.21v3.31Zm.91,8.2V65.56h-6.12v3.53Z"/><path class="cls-27" d="M427.79,72.13l-.33,1.11h-7.24c-3.14,0-5.4-.82-6.8-2.46a15.53,15.53,0,0,1-2.38,3l-.78-.75a13,13,0,0,0,3.93-7.13h-3.35v-1q1.5-1.9,3.17-4.46h-3.48V59.26h4.67v1.11q-1,1.5-3,4.4h3.07v1.11a17.51,17.51,0,0,1-1.32,4q2,2.27,6,2.27ZM414.58,57.72l-.76.79A14.3,14.3,0,0,0,411,55.27l.71-.79A18.38,18.38,0,0,1,414.58,57.72Zm13.08,11.1h-5.18v2.45h-1.05V68.82h-5.2V67.75h5.2V66H417V58.88h4.39V57.17h-5V56.11h5V54.36h1.05v1.75h5v1.06h-5v1.71h4.42V66h-4.42v1.72h5.18Zm-6.23-7V60h-3.37v1.87Zm0,3.11v-2h-3.37v2Zm4.47-3.11V60h-3.42v1.87Zm0,3.11v-2h-3.42v2Z"/><path class="cls-28" d="M400.05,145.82a3.68,3.68,0,1,1-3.68-3.68,3.68,3.68,0,0,1,3.68,3.68Z"/><path class="cls-29" d="M21.15,62.74H19.62v2.57H15.74v1.33h3.89v3.44H15.68a17.64,17.64,0,0,1-1.15,1.68h2.74a3.16,3.16,0,0,0,.33-.8l1.12.28a2.1,2.1,0,0,1-.15.52H21v1H18.11a7.69,7.69,0,0,1-2.05,2.52c1.28.58,2.36,1.12,3.24,1.61l-.73.83A33.06,33.06,0,0,0,15,76a13.29,13.29,0,0,1-5.34,1.7l-.42-1.06a14.1,14.1,0,0,0,4.46-1.18,30.56,30.56,0,0,0-3-1.11c.4-.41.88-1,1.45-1.61H9.09v-1h4c.46-.58.86-1.14,1.22-1.68h-3.6V66.64h4V65.31h-4V62.74H9.09v-1h1.59V59.33h4V58.11h1.11v1.22h3.88V61.7h1.53Zm-6.52-1V60.3H11.8v1.4Zm0,2.59V62.74H11.8v1.55Zm0,4.77v-1.4H11.81v1.4Zm2.1,3.7h-3q-.26.33-1,1.2a21.5,21.5,0,0,1,2.14.78A5.85,5.85,0,0,0,16.73,72.76ZM18.51,61.7V60.3H15.74v1.4Zm0,2.59V62.74H15.74v1.55Zm0,4.77v-1.4H15.74v1.4Zm10.14-6.25h-1q-.23,7-2.37,10.86a12.84,12.84,0,0,0,3.36,3.22l-.66.92a12,12,0,0,1-3.46-3.18,17.6,17.6,0,0,1-3.85,3.18L20,76.89a17.14,17.14,0,0,0,3.86-3.24A17.87,17.87,0,0,1,22,67.35L23,67a18.82,18.82,0,0,0,1.58,5.57,13.71,13.71,0,0,0,1.49-4.62,41.86,41.86,0,0,0,.46-5.13H23.47A17.07,17.07,0,0,1,21,67.24l-.89-.66Q22.31,63.77,23.6,58l1.09.2a25.76,25.76,0,0,1-.87,3.48h4.83Z"/><path class="cls-29" d="M37.54,58.53c-.28.68-.67,1.5-1.15,2.46l-.74,1.41V77.74H34.46V64.57A32.39,32.39,0,0,1,32,68l-.75-1.11a31,31,0,0,0,5.12-8.77ZM51.18,77.21H36.73V76h4.54A68.73,68.73,0,0,0,38.76,64l.78-.43H37V62.38H43.7a21,21,0,0,0-1.35-4L43.48,58A31.85,31.85,0,0,1,45,62.38h5.86v1.16H48.56l.71.28A78.57,78.57,0,0,1,46.62,76h4.56ZM48.05,63.54H39.94A98.14,98.14,0,0,1,42.51,76h2.9A66.31,66.31,0,0,0,48.05,63.54Z"/><path class="cls-29" d="M60.55,58.35c-.29.81-.73,1.87-1.32,3.17l-.9,1.91V77.8H57.12V65.54a24.49,24.49,0,0,1-2.32,3.13l-.81-1A31.91,31.91,0,0,0,59.37,58ZM73.7,72.53a14.23,14.23,0,0,1-.33,3.15c-.23,1-.66,1.52-1.32,1.66a37.52,37.52,0,0,1-5.34.21q-1,0-1.8,0A1.56,1.56,0,0,1,63.73,77a1.74,1.74,0,0,1-.43-1.25V58h1.24v7.63h8.73v1.19H64.54v8.9a.67.67,0,0,0,.15.41.44.44,0,0,0,.36.19h1.5a37.36,37.36,0,0,0,5.2-.18c.44-.11.7-1.49.77-4.12Z"/><path class="cls-29" d="M84.38,74.65h-3v3H80.26v-3H76.58V73.52h3.68V71.43H77.5V63h2.76V61.16H76.89v-1h3.37v-2h1.11v2h3v1h-3V63h2.81v8.43H81.37v2.09h3Zm-4.12-8.07V64.06H78.61v2.52Zm0,3.8v-2.7H78.61v2.7ZM83,66.58V64.06H81.37v2.52Zm0,3.8v-2.7H81.37v2.7Zm13,.43-.84.69a4.76,4.76,0,0,0-.58-.9c-2.89.28-5.94.49-9.13.64l-.3-1L89.68,70V68.43H85.75V62.21h3.93V60.69h-4.4v-1h4.4V58.13h1.17v1.51h4.64v1H90.85v1.52h4v6.22h-.75A13.91,13.91,0,0,1,96,70.81Zm.09,2.6H93.48V76.2a1.47,1.47,0,0,1-.38,1,1.19,1.19,0,0,1-.72.44c-.22,0-.92,0-2.09,0l-.34-1c1.08,0,1.69,0,1.84,0a.71.71,0,0,0,.41-.21.56.56,0,0,0,.18-.38V73.41H85.19V72.35h7.19V71.5h1.1v.85h2.59Zm-7.24,2.9-.94.61a9.91,9.91,0,0,0-1.8-2.23l.85-.6A9.09,9.09,0,0,1,88.83,76.31Zm.85-11.59V63.25H86.87v1.47Zm0,2.64V65.7H86.87v1.66Zm4-2.64V63.25H90.85v1.47Zm0,2.64V65.7H90.85v1.66Zm.15,1.07h-3v1.5c1-.07,1.94-.16,2.92-.28L93.15,69Z"/><path class="cls-29" d="M118.52,77.25H99V76.13h9.24V73h-7.78v-1.1h7.78V69.5h1.16v2.36H117V73h-7.63v3.17h9.13ZM111,64.64h-3.22v5.08h-1.15V64.64h-3a7.81,7.81,0,0,1-3.21,5.67l-1-.79a7,7,0,0,0,3-4.88h-3.3V63.5h3.37c.07-1.35.11-2.57.11-3.67H99.8V58.74h10.85v1.09h-2.92V63.5H111Zm-4.37-1.14V59.83h-2.81c0,.89,0,2.11-.13,3.67Zm7,3.21h-1.14v-7.5h1.14Zm3.9,1.85a1.56,1.56,0,0,1-.36,1,1.57,1.57,0,0,1-.81.52,7.81,7.81,0,0,1-1.69.12c-.44,0-1,0-1.64,0L112.52,69q1.13.09,2.1.09A6.66,6.66,0,0,0,115.8,69a.65.65,0,0,0,.4-.34,1.4,1.4,0,0,0,.16-.66v-9.8h1.15Z"/><path class="cls-29" d="M139.8,71h-7.91v6.73H130.7V71h-7.95v-9h7.95v-4h1.19v4h7.91Zm-9.1-1.21V63.28h-6.77v6.54Zm7.89,0V63.28h-6.7v6.54Z"/><path class="cls-29" d="M153.41,70a1.27,1.27,0,0,1-.82-1.09,1.06,1.06,0,0,1,.28-.65.93.93,0,0,1,.78-.34q1,0,1,1.38a2.88,2.88,0,0,1-1.33,2.19l-.47-.36A2.06,2.06,0,0,0,153.41,70Z"/><path class="cls-29" d="M185.52,62a16,16,0,0,1-1.26,4l-1.08-.36a14.12,14.12,0,0,0,.88-2.49h-8.41v1.78l5.73-.43,0,1.1-5.77.38v1a.56.56,0,0,0,.2.44.64.64,0,0,0,.43.17h7.82v1.08H176a1.27,1.27,0,0,1-1.45-1.42V66l-3.86.28-.09-1.12,3.95-.26V63.07h-5V67.9c0,4.37-.69,7.73-2.07,10l-1-.62a15.48,15.48,0,0,0,1.57-4.4,29.54,29.54,0,0,0,.38-5.05V62h6.84V58.24h1.16v1.21h8.62v1.09h-8.62V62Zm.4,15.3H169.74V76.13h5.71V74.2h-3.91V70.6h1.19V73h2.72V69.63h1.17v6.5h2.25v-6.5H180V73h2.74V70.58h1.16V74.2H180v1.93h5.89Z"/><path class="cls-29" d="M194.29,63.16h-1.83V67c.63-.41,1.11-.73,1.44-1l.11,1.24c-.82.57-1.33.92-1.55,1.06v7.91c0,1-.64,1.56-1.93,1.56-.3,0-.68,0-1.15,0L189,76.6c.86,0,1.48.05,1.85.05s.48-.19.48-.56V69c-.6.33-1.29.71-2.09,1.12l-.38-1.06c1.06-.55,1.89-1,2.47-1.37V63.16h-2.29v-1.1h2.29v-4h1.1v4h1.83Zm6.26,7.93H197.9a7.76,7.76,0,0,1-.2,1,20,20,0,0,1,2,2.23L199,75a21.23,21.23,0,0,0-1.62-1.8A10.3,10.3,0,0,1,194,77.76l-.82-.75a8.86,8.86,0,0,0,3.62-5.92H194v-1h2.9c.05-.63.09-1.5.12-2.6H195.9a15,15,0,0,1-1.31,1.75l-.92-.61a10.69,10.69,0,0,0,2.23-3.82l1,.34a8,8,0,0,1-.4,1.28h3.81v1.06H198.1c0,.84,0,1.71-.11,2.6h2.56Zm.19-6.74h-3.85a1.55,1.55,0,0,1-1.17-.45,1.63,1.63,0,0,1-.42-1.15V58.1h1.09v1.65h4.07v1.07h-4.07v1.91q0,.57.66.57h3.69ZM208.6,76.2l-.2,1.13c-.41,0-.8,0-1.17,0q-4,0-5.53-2.68a13.25,13.25,0,0,1-2.22,3.17l-.86-.7q2.88-2.56,2.83-7.85h1.12a21.29,21.29,0,0,1-.42,4,3.78,3.78,0,0,0,1.75,2.16V66.18h-2.83v-1h4.18a20.93,20.93,0,0,0-3.48-3.24l.76-.79q1.22,1,1.8,1.5a21.58,21.58,0,0,0,2.47-2.92h-5.3v-1h6.56v1a20.18,20.18,0,0,1-3,3.65,10.73,10.73,0,0,1,1,1.18l-.58.62h2.81a16.35,16.35,0,0,1-1,3.84l-1-.5a11.67,11.67,0,0,0,.63-2.33h-2v4.08h2.69v1.06H205v4.59A10.42,10.42,0,0,0,208.6,76.2Z"/><path class="cls-29" d="M230.9,64.8h-3.56V72h-7.79V64.8h-4.44V76h15v1.19H214V64.8h-2.7V63.63H214V58.8h1.16v4.83h4.44v-5.5h1.16v5.5h5.44v-5.5h1.19v5.5h3.56Zm-4.75,6v-6h-5.44v6Z"/><path class="cls-29" d="M239.69,58.42c-.22.59-.54,1.33-.95,2.21L238.13,62V77.76h-1.21V64.27A23.83,23.83,0,0,1,234.35,68l-.67-1.11A32,32,0,0,0,238.51,58Zm13.72,6.32-8,.8a20.58,20.58,0,0,0,1.16,6.5,8.46,8.46,0,0,0,2.35,3.6,4.26,4.26,0,0,0,1.86,1.09.47.47,0,0,0,.38-.17,6.88,6.88,0,0,0,.47-1.63,13.32,13.32,0,0,0,.32-2.85l1.21.52a19,19,0,0,1-.5,3.18,4.16,4.16,0,0,1-.75,1.75,1.39,1.39,0,0,1-1,.39,4.79,4.79,0,0,1-2.76-1.39,9.66,9.66,0,0,1-2.68-4.09,23.39,23.39,0,0,1-1.27-6.78l-4.8.49-.11-1.21,4.83-.48q-.18-3-.18-5c0-.48,0-.93,0-1.37h1.19c0,2.43,0,4.52.16,6.25l8.05-.79Zm-1.9-2.64-1,.61a16.35,16.35,0,0,0-3.07-3.46l1-.62A12,12,0,0,1,251.51,62.1Z"/><path class="cls-29" d="M265.85,76l-1.09.45a15.93,15.93,0,0,0-.8-2.27c-2.22.9-4.42,1.74-6.62,2.52l-.53-1.21a1.1,1.1,0,0,0,.27-.75V58.63h8v9.91h-6.82V75a50.26,50.26,0,0,0,5.29-1.94c-.47-1-.89-1.91-1.28-2.63l1-.47A32.37,32.37,0,0,1,265.85,76Zm-2-13.08V59.79h-5.64v3.08Zm0,4.49V64h-5.64v3.32Zm11.2,6.54a1.37,1.37,0,0,1-.55,1.27,5.29,5.29,0,0,1-2.32.32l-1.53,0-.36-1.22c1.23.08,2.21.11,2.94.11.45,0,.68-.21.68-.65V59.79h-5.13v18h-1.17V58.63h7.44Z"/><path class="cls-29" d="M285.06,77.68h-1.17V68.8h-2.13c-.15,4.1-.77,7-1.86,8.66l-1-.7q1.74-2.78,1.74-8h-1.72V67.68h5V64.76H280V59.21h1.19v4.42h2.74V58.08h1.17Zm12.32-16.54q-3.3,5.19-10.72,7l-.77-1.07a17.41,17.41,0,0,0,6.79-2.66,23.69,23.69,0,0,0-4.09-2.53c-.6.41-1.2.78-1.8,1.12l-.9-.9a15.32,15.32,0,0,0,5.51-4.21l1.09.54A11.34,11.34,0,0,1,291.11,60h6.27Zm1.05,8.92h-2.62v6a1.39,1.39,0,0,1-.62,1.31,5.92,5.92,0,0,1-2.51.35l-1.24,0L291,76.51c.94,0,1.69.07,2.24.07a2.55,2.55,0,0,0,1.13-.15.49.49,0,0,0,.23-.43V70.06h-8.49V68.9h8.49V66.15h1.18V68.9h2.62Zm-11.8-4.87,0-1.09a23.94,23.94,0,0,0,3.58-.31l0,1.08A31.23,31.23,0,0,1,286.63,65.19Zm4.52,9.5-1,.69a20.76,20.76,0,0,0-2.89-3.84l.93-.67A19.21,19.21,0,0,1,291.15,74.69Zm4.79-13.55h-6.2l-.08,0a44.91,44.91,0,0,1,3.94,2.49A13,13,0,0,0,295.94,61.14Z"/><path class="cls-29" d="M310,66.44h-6.65V77.7h-1.17V58.63H310Zm-1.17-4.51V59.75h-5.48v2.18Zm0,3.39V63h-5.48v2.32Zm6.23,9.26h-8.23V68.37h8.23ZM314,73.43V69.55H308v3.88ZM319.79,76a1.69,1.69,0,0,1-.54,1.37,3.38,3.38,0,0,1-2.06.45l-1.09,0-.45-1.15,1.28,0a4.31,4.31,0,0,0,1.4-.14.63.63,0,0,0,.3-.62V66.44h-6.56V58.63h7.72Zm-1.16-14.07V59.75h-5.41v2.18Zm0,3.39V63h-5.41v2.32Z"/><path class="cls-29" d="M343.27,64.8h-3.55V72h-7.8V64.8h-4.43V76h15v1.19H326.33V64.8h-2.7V63.63h2.7V58.8h1.16v4.83h4.43v-5.5h1.17v5.5h5.44v-5.5h1.19v5.5h3.55Zm-4.74,6v-6h-5.44v6Z"/></svg>