<?xml version="1.0" encoding="utf-8"?>
<!-- Generator: Adobe Illustrator 24.1.1, SVG Export Plug-In . SVG Version: 6.00 Build 0)  -->
<svg version="1.1" id="圖層_1" xmlns="http://www.w3.org/2000/svg" xmlns:xlink="http://www.w3.org/1999/xlink" x="0px" y="0px"
	 viewBox="0 0 500 160" style="enable-background:new 0 0 500 160;" xml:space="preserve">
<style type="text/css">
	.st0{fill-rule:evenodd;clip-rule:evenodd;fill:#5F7696;}
	.st1{fill-rule:evenodd;clip-rule:evenodd;fill:url(#SVGID_1_);}
	.st2{fill:url(#SVGID_2_);}
	.st3{fill:url(#SVGID_3_);}
	.st4{fill:url(#SVGID_4_);}
	.st5{fill:url(#SVGID_5_);}
	.st6{fill:url(#SVGID_6_);}
	.st7{fill:url(#SVGID_7_);}
	.st8{fill:url(#SVGID_8_);}
	.st9{fill:url(#SVGID_9_);}
	.st10{fill:url(#SVGID_10_);}
	.st11{fill:url(#SVGID_11_);}
	.st12{fill:url(#SVGID_12_);}
	.st13{fill:url(#SVGID_13_);}
	.st14{fill:url(#SVGID_14_);}
	.st15{fill:url(#SVGID_15_);}
	.st16{fill:url(#SVGID_16_);}
	.st17{fill:url(#SVGID_17_);}
	.st18{fill:url(#SVGID_18_);}
	.st19{fill:url(#SVGID_19_);}
	.st20{fill:url(#SVGID_20_);}
	.st21{fill:url(#SVGID_21_);}
	.st22{fill:url(#SVGID_22_);}
	.st23{fill:#4C6075;}
	.st24{fill:#FFFFFF;}
	.st25{fill:#211513;}
	.st26{fill-rule:evenodd;clip-rule:evenodd;fill:#AD181C;}
	.st27{fill:#CF121B;}
</style>
<path class="st0" d="M89.7,14.9C68.7-0.6,39,4,23.6,25c-12.3,16.8-12.2,39.6,0.2,56.3c6.5,8.9,15.8,15.3,26.5,18.1
	c4.5,1.1,8.3,1.3,12.7,3.1c13.1,5.4,13,19.9-12.7,40.2c44-17.9,68.8-65.6,57.8-101.6C104.9,30.7,98.5,21.5,89.7,14.9z"/>
<linearGradient id="SVGID_1_" gradientUnits="userSpaceOnUse" x1="337.79" y1="980.8162" x2="444.55" y2="980.8162" gradientTransform="matrix(0.84 -0.54 -0.54 -0.84 260.5976 1104.1129)">
	<stop  offset="0" style="stop-color:#D33924"/>
	<stop  offset="0.15" style="stop-color:#CB3023"/>
	<stop  offset="0.35" style="stop-color:#BB1C21"/>
	<stop  offset="0.57" style="stop-color:#AA1B20"/>
	<stop  offset="1" style="stop-color:#7F191E"/>
	<stop  offset="1" style="stop-color:#7F191E"/>
</linearGradient>
<path class="st1" d="M91.5,14.7C70.4-0.8,40.8,3.8,25.4,25S14.5,75.7,35.6,91.1c4.9,3.6,10.5,6.2,16.4,7.7c4.4,1.1,8.6,1.2,12.7,3.4
	c12.9,6.9,11.1,22.9-14.5,40.5c44-17.9,70.6-65.8,59.6-101.8C106.7,30.4,100.3,21.2,91.5,14.7z"/>
<linearGradient id="SVGID_2_" gradientUnits="userSpaceOnUse" x1="360.8" y1="994.81" x2="442.9001" y2="994.81" gradientTransform="matrix(0.84 -0.54 -0.54 -0.84 260.5976 1104.1129)">
	<stop  offset="0" style="stop-color:#D33924"/>
	<stop  offset="0.15" style="stop-color:#CB3023"/>
	<stop  offset="0.35" style="stop-color:#BB1C21"/>
	<stop  offset="0.57" style="stop-color:#AA1B20"/>
	<stop  offset="1" style="stop-color:#7F191E"/>
	<stop  offset="1" style="stop-color:#7F191E"/>
</linearGradient>
<path class="st2" d="M25.5,42.1C28.8,19.7,49.7,4.2,72.1,7.6s37.9,24.2,34.6,46.6C103.4,76.6,82.5,92.1,60,88.8
	C37.6,85.4,22.1,64.6,25.5,42.1C25.5,42.1,25.5,42.1,25.5,42.1z"/>
<linearGradient id="SVGID_3_" gradientUnits="userSpaceOnUse" x1="327.5327" y1="970.4352" x2="410.0727" y2="970.4352" gradientTransform="matrix(0.8493 -0.5087 -0.5087 -0.8493 244.7066 1061.2708)">
	<stop  offset="0" style="stop-color:#CD3B28"/>
	<stop  offset="0.15" style="stop-color:#C53227"/>
	<stop  offset="0.35" style="stop-color:#B61F25"/>
	<stop  offset="0.57" style="stop-color:#A51E24"/>
	<stop  offset="1" style="stop-color:#7D1C22"/>
</linearGradient>
<path class="st3" d="M25.4,42.4C28.7,20,49.6,4.6,72,7.9s37.8,24.2,34.5,46.6S82.3,92.3,59.9,89c0,0,0,0,0,0
	C37.5,85.7,22.1,64.8,25.4,42.4L25.4,42.4z"/>
<linearGradient id="SVGID_4_" gradientUnits="userSpaceOnUse" x1="294.9663" y1="941.8505" x2="377.9063" y2="941.8505" gradientTransform="matrix(0.86 -0.48 -0.48 -0.86 230.7945 1018.9241)">
	<stop  offset="0" style="stop-color:#C63D2C"/>
	<stop  offset="0.16" style="stop-color:#BE342B"/>
	<stop  offset="0.35" style="stop-color:#B02329"/>
	<stop  offset="0.59" style="stop-color:#9F2228"/>
	<stop  offset="1" style="stop-color:#7A2026"/>
</linearGradient>
<path class="st4" d="M25.3,42.7C28.7,20.3,49.5,4.9,71.8,8.2s37.8,24.1,34.4,46.5c-3.3,22.3-24.1,37.7-46.5,34.4
	C37.4,85.8,22,65,25.3,42.7z"/>
<linearGradient id="SVGID_5_" gradientUnits="userSpaceOnUse" x1="258.7492" y1="906.7158" x2="342.0812" y2="906.7158" gradientTransform="matrix(0.866 -0.4587 -0.4587 -0.866 221.1122 972.1514)">
	<stop  offset="0" style="stop-color:#C03F30"/>
	<stop  offset="0.17" style="stop-color:#B8362F"/>
	<stop  offset="0.35" style="stop-color:#AB262D"/>
	<stop  offset="0.6" style="stop-color:#9A252C"/>
	<stop  offset="1" style="stop-color:#78232A"/>
</linearGradient>
<path class="st5" d="M25.3,43c3.3-22.3,24-37.7,46.3-34.4s37.7,24,34.4,46.3c-3.3,22.3-24,37.7-46.3,34.4c0,0,0,0-0.1,0
	C37.4,86,22,65.3,25.3,43z"/>
<linearGradient id="SVGID_6_" gradientUnits="userSpaceOnUse" x1="226.6949" y1="873.4532" x2="310.2548" y2="873.4532" gradientTransform="matrix(0.87 -0.43 -0.43 -0.87 206.057 925.2795)">
	<stop  offset="0" style="stop-color:#B94133"/>
	<stop  offset="0.17" style="stop-color:#B23832"/>
	<stop  offset="0.35" style="stop-color:#A62931"/>
	<stop  offset="0.61" style="stop-color:#952830"/>
	<stop  offset="1" style="stop-color:#75272F"/>
</linearGradient>
<path class="st6" d="M25.2,43.2C28.5,21,49.2,5.6,71.5,8.9s37.6,24,34.3,46.3s-24,37.6-46.3,34.3c0,0,0,0,0,0
	C37.2,86.2,21.9,65.5,25.2,43.2z"/>
<linearGradient id="SVGID_7_" gradientUnits="userSpaceOnUse" x1="195.4085" y1="835.1823" x2="279.1884" y2="835.1823" gradientTransform="matrix(0.8803 -0.4075 -0.4075 -0.8803 196.2499 881.5885)">
	<stop  offset="0" style="stop-color:#B34237"/>
	<stop  offset="0.18" style="stop-color:#AB3936"/>
	<stop  offset="0.35" style="stop-color:#A02C35"/>
	<stop  offset="0.63" style="stop-color:#8F2B34"/>
	<stop  offset="1" style="stop-color:#732A33"/>
</linearGradient>
<path class="st7" d="M25.1,43.5c3.3-22.2,24-37.6,46.2-34.3s37.6,24,34.3,46.2S81.6,93,59.4,89.7c0,0,0,0,0,0
	C37.1,86.4,21.8,65.7,25.1,43.5C25.1,43.5,25.1,43.5,25.1,43.5z"/>
<linearGradient id="SVGID_8_" gradientUnits="userSpaceOnUse" x1="166.5459" y1="795.925" x2="250.5059" y2="795.925" gradientTransform="matrix(0.891 -0.3835 -0.3835 -0.891 185.5531 838.44)">
	<stop  offset="0" style="stop-color:#AC443B"/>
	<stop  offset="0.2" style="stop-color:#A43B3A"/>
	<stop  offset="0.35" style="stop-color:#9B3039"/>
	<stop  offset="0.64" style="stop-color:#8A2F38"/>
	<stop  offset="1" style="stop-color:#702D37"/>
</linearGradient>
<path class="st8" d="M25,43.8C28.3,21.6,49,6.2,71.1,9.5s37.5,24,34.2,46.1c-3.3,22.2-23.9,37.5-46.1,34.2C37,86.6,21.7,66,25,43.8
	C25,43.8,25,43.8,25,43.8z"/>
<linearGradient id="SVGID_9_" gradientUnits="userSpaceOnUse" x1="139.2933" y1="756.0787" x2="223.3533" y2="756.0787" gradientTransform="matrix(0.8918 -0.3553 -0.3553 -0.8918 170.2852 789.3902)">
	<stop  offset="0" style="stop-color:#A6463F"/>
	<stop  offset="0.2" style="stop-color:#9E3D3E"/>
	<stop  offset="0.35" style="stop-color:#96333D"/>
	<stop  offset="0.66" style="stop-color:#85323C"/>
	<stop  offset="1" style="stop-color:#6E313B"/>
</linearGradient>
<path class="st9" d="M25,44C28.3,21.9,48.9,6.6,71.1,9.9s37.4,23.9,34.1,46.1c-3.3,22.1-23.9,37.4-46.1,34.1c0,0,0,0,0,0
	C37,86.8,21.7,66.1,25,44z"/>
<linearGradient id="SVGID_10_" gradientUnits="userSpaceOnUse" x1="114.5161" y1="713.6176" x2="198.6161" y2="713.6176" gradientTransform="matrix(0.9012 -0.3307 -0.3307 -0.9012 158.9459 745.4662)">
	<stop  offset="0" style="stop-color:#9F4843"/>
	<stop  offset="0.21" style="stop-color:#983F42"/>
	<stop  offset="0.35" style="stop-color:#913641"/>
	<stop  offset="0.67" style="stop-color:#803540"/>
	<stop  offset="1" style="stop-color:#6B343F"/>
</linearGradient>
<path class="st10" d="M24.9,44.3c3.3-22.1,23.9-37.4,46-34.1s37.4,23.9,34.1,46C101.7,78.3,81.1,93.5,59,90.3
	C36.9,87,21.6,66.4,24.9,44.3C24.9,44.3,24.9,44.3,24.9,44.3L24.9,44.3z"/>
<linearGradient id="SVGID_11_" gradientUnits="userSpaceOnUse" x1="92.0214" y1="669.8797" x2="176.0914" y2="669.8797" gradientTransform="matrix(0.91 -0.3057 -0.3057 -0.91 147.2355 701.1905)">
	<stop  offset="0" style="stop-color:#994A47"/>
	<stop  offset="0.22" style="stop-color:#914146"/>
	<stop  offset="0.35" style="stop-color:#8B3945"/>
	<stop  offset="0.7" style="stop-color:#7A3944"/>
	<stop  offset="1" style="stop-color:#693843"/>
</linearGradient>
<path class="st11" d="M24.8,44.6c3.3-22.1,23.8-37.3,45.9-34s37.3,23.8,34,45.9s-23.8,37.3-45.9,34c0,0,0,0,0,0
	C36.7,87.2,21.5,66.6,24.8,44.6z"/>
<linearGradient id="SVGID_12_" gradientUnits="userSpaceOnUse" x1="71.869" y1="624.9373" x2="155.8921" y2="624.9373" gradientTransform="matrix(0.9181 -0.2805 -0.2805 -0.9181 135.2506 656.4867)">
	<stop  offset="0" style="stop-color:#934C4B"/>
	<stop  offset="0.24" style="stop-color:#8B434A"/>
	<stop  offset="0.35" style="stop-color:#863D49"/>
	<stop  offset="0.73" style="stop-color:#753C48"/>
	<stop  offset="1" style="stop-color:#673B47"/>
</linearGradient>
<path class="st12" d="M24.7,44.8c3.3-22,23.8-37.2,45.8-34s37.2,23.8,34,45.8c-3.3,22-23.8,37.2-45.8,34
	C36.7,87.4,21.5,66.9,24.7,44.8C24.7,44.9,24.7,44.8,24.7,44.8z"/>
<linearGradient id="SVGID_13_" gradientUnits="userSpaceOnUse" x1="54.4026" y1="578.9517" x2="138.2778" y2="578.9517" gradientTransform="matrix(0.9255 -0.2549 -0.2549 -0.9255 122.8912 611.4052)">
	<stop  offset="0" style="stop-color:#8C4E4F"/>
	<stop  offset="0.26" style="stop-color:#85454E"/>
	<stop  offset="0.35" style="stop-color:#81404D"/>
	<stop  offset="0.75" style="stop-color:#703F4C"/>
	<stop  offset="1" style="stop-color:#643E4C"/>
</linearGradient>
<path class="st13" d="M24.6,45.1c3.3-22,23.7-37.2,45.7-33.9s37.2,23.7,33.9,45.7c-3.3,22-23.7,37.2-45.7,33.9
	C36.6,87.6,21.4,67.1,24.6,45.1C24.6,45.1,24.6,45.1,24.6,45.1z"/>
<linearGradient id="SVGID_14_" gradientUnits="userSpaceOnUse" x1="39.3618" y1="531.9489" x2="122.9918" y2="531.9489" gradientTransform="matrix(0.9322 -0.2293 -0.2293 -0.9322 110.3912 565.8208)">
	<stop  offset="0" style="stop-color:#865052"/>
	<stop  offset="0.27" style="stop-color:#7E4751"/>
	<stop  offset="0.35" style="stop-color:#7B4351"/>
	<stop  offset="0.81" style="stop-color:#6A4250"/>
	<stop  offset="1" style="stop-color:#624250"/>
</linearGradient>
<path class="st14" d="M24.6,45.4c3.3-22,23.7-37.1,45.6-33.8s37.1,23.7,33.8,45.6c-3.3,22-23.7,37.1-45.6,33.8c0,0,0,0,0,0
	C36.5,87.7,21.3,67.3,24.6,45.4C24.6,45.4,24.6,45.4,24.6,45.4z"/>
<linearGradient id="SVGID_15_" gradientUnits="userSpaceOnUse" x1="27.1649" y1="484.0863" x2="110.5149" y2="484.0863" gradientTransform="matrix(0.9382 -0.2035 -0.2035 -0.9382 97.6529 519.7872)">
	<stop  offset="0" style="stop-color:#7F5156"/>
	<stop  offset="0.31" style="stop-color:#774855"/>
	<stop  offset="0.35" style="stop-color:#764655"/>
	<stop  offset="0.84" style="stop-color:#654554"/>
	<stop  offset="1" style="stop-color:#5F4554"/>
</linearGradient>
<path class="st15" d="M24.5,45.6c3.3-21.9,23.7-37,45.6-33.8s37,23.7,33.8,45.6c-3.3,21.9-23.7,37-45.6,33.8c0,0,0,0,0,0
	C36.4,87.9,21.2,67.5,24.5,45.6C24.5,45.6,24.5,45.6,24.5,45.6z"/>
<linearGradient id="SVGID_16_" gradientUnits="userSpaceOnUse" x1="17.7252" y1="435.419" x2="100.7351" y2="435.419" gradientTransform="matrix(0.9434 -0.1777 -0.1777 -0.9434 84.7848 473.2491)">
	<stop  offset="0" style="stop-color:#79535A"/>
	<stop  offset="0.35" style="stop-color:#714A59"/>
	<stop  offset="0.9" style="stop-color:#604958"/>
	<stop  offset="1" style="stop-color:#5D4958"/>
</linearGradient>
<path class="st16" d="M24.4,45.9C27.7,24.1,48.1,9,69.9,12.2s36.9,23.6,33.7,45.5C100.3,79.5,80,94.6,58.1,91.4
	C36.3,88.1,21.2,67.8,24.4,45.9C24.4,45.9,24.4,45.9,24.4,45.9z"/>
<linearGradient id="SVGID_17_" gradientUnits="userSpaceOnUse" x1="10.2914" y1="389.1989" x2="92.8914" y2="389.1989" gradientTransform="matrix(0.9578 -0.1534 -0.1534 -0.9578 74.4631 432.6569)">
	<stop  offset="0" style="stop-color:#72555E"/>
	<stop  offset="0.35" style="stop-color:#6B4D5D"/>
	<stop  offset="0.99" style="stop-color:#5A4C5C"/>
	<stop  offset="1" style="stop-color:#5A4C5C"/>
</linearGradient>
<path class="st17" d="M24.4,46.2c3.2-21.9,23.6-37,45.4-33.7s37,23.6,33.7,45.4s-23.6,37-45.4,33.7c0,0,0,0-0.1,0
	C36.2,88.3,21.1,68,24.4,46.2C24.3,46.2,24.3,46.2,24.4,46.2z"/>
<linearGradient id="SVGID_18_" gradientUnits="userSpaceOnUse" x1="6.5659" y1="339.9051" x2="88.7059" y2="339.9051" gradientTransform="matrix(0.9616 -0.1273 -0.1273 -0.9616 61.1295 385.2308)">
	<stop  offset="0" style="stop-color:#6C5762"/>
	<stop  offset="0.35" style="stop-color:#665061"/>
	<stop  offset="1" style="stop-color:#584F60"/>
</linearGradient>
<path class="st18" d="M24.3,46.4c3.2-21.8,23.5-36.8,45.3-33.6s36.8,23.5,33.6,45.3C99.9,80,79.6,95,57.9,91.8
	C36.1,88.5,21,68.2,24.3,46.4C24.3,46.4,24.3,46.4,24.3,46.4z"/>
<linearGradient id="SVGID_19_" gradientUnits="userSpaceOnUse" x1="4.2383" y1="294.1284" x2="85.8683" y2="294.1284" gradientTransform="matrix(0.9746 -0.1024 -0.1024 -0.9746 50.2194 343.799)">
	<stop  offset="0" style="stop-color:#655966"/>
	<stop  offset="0.35" style="stop-color:#615365"/>
	<stop  offset="1" style="stop-color:#555365"/>
</linearGradient>
<path class="st19" d="M24.2,46.7C27.4,25,47.7,9.9,69.4,13.2s36.8,23.5,33.5,45.2c-3.2,21.7-23.5,36.7-45.2,33.5
	C36,88.7,21,68.5,24.2,46.7z"/>
<linearGradient id="SVGID_20_" gradientUnits="userSpaceOnUse" x1="5.8713" y1="244.6111" x2="86.9911" y2="244.6111" gradientTransform="matrix(0.977 -7.654888e-02 -7.654888e-02 -0.977 36.8037 295.3541)">
	<stop  offset="0" style="stop-color:#5F5B6A"/>
	<stop  offset="0.35" style="stop-color:#5C5769"/>
	<stop  offset="1" style="stop-color:#535669"/>
</linearGradient>
<path class="st20" d="M24.1,47c3.2-21.7,23.4-36.7,45.1-33.5s36.7,23.4,33.5,45.1c-3.2,21.7-23.4,36.7-45.1,33.5c0,0,0,0,0,0
	C35.9,88.9,20.9,68.7,24.1,47z"/>
<linearGradient id="SVGID_21_" gradientUnits="userSpaceOnUse" x1="9.2743" y1="200.677" x2="89.7143" y2="200.677" gradientTransform="matrix(0.99 -5.000000e-02 -5.000000e-02 -0.99 24.7476 254.1956)">
	<stop  offset="0" style="stop-color:#595D6D"/>
	<stop  offset="0.35" style="stop-color:#565A6D"/>
	<stop  offset="1" style="stop-color:#515A6D"/>
</linearGradient>
<path class="st21" d="M24,47.2c3.2-21.7,23.4-36.6,45.1-33.4s36.6,23.4,33.4,45.1c-3.2,21.7-23.4,36.6-45.1,33.4c0,0,0,0,0,0
	C35.8,89.1,20.8,68.9,24,47.2z"/>
<linearGradient id="SVGID_22_" gradientUnits="userSpaceOnUse" x1="15.7156" y1="150.5144" x2="95.4856" y2="150.5144" gradientTransform="matrix(0.9897 -2.539699e-02 -2.539699e-02 -0.9897 11.7316 203.7081)">
	<stop  offset="0" style="stop-color:#525F71"/>
	<stop  offset="0.35" style="stop-color:#515D71"/>
	<stop  offset="1" style="stop-color:#4E5D71"/>
</linearGradient>
<path class="st22" d="M24,47.5c3.2-21.6,23.4-36.6,45-33.3s36.6,23.4,33.3,45c-3.2,21.6-23.4,36.6-45,33.3
	C35.7,89.3,20.8,69.1,24,47.5C24,47.5,24,47.5,24,47.5z"/>
<path class="st23" d="M23.9,47.8c3.2-21.6,23.3-36.5,44.9-33.3s36.5,23.3,33.3,44.9C98.9,81,78.8,95.9,57.2,92.7c0,0,0,0,0,0
	C35.6,89.5,20.7,69.4,23.9,47.8C23.9,47.8,23.9,47.8,23.9,47.8z"/>
<path class="st24" d="M23.9,47.8c3.2-21.6,23.3-36.5,44.9-33.3s36.5,23.3,33.3,44.9C98.9,81,78.8,95.9,57.2,92.7c0,0,0,0,0,0
	C35.6,89.5,20.7,69.4,23.9,47.8C23.9,47.8,23.9,47.8,23.9,47.8z"/>
<path class="st24" d="M25.4,48c3.1-20.8,22.4-35.1,43.2-32s35.1,22.4,32,43.2c-3.1,20.7-22.4,35-43.2,32
	C36.6,88.1,22.3,68.8,25.4,48C25.4,48,25.4,48,25.4,48z"/>
<path class="st25" d="M56.9,34.1l-0.5,1c-1.5-1.6-3.1-3-4.9-4.2c-0.7,0.8-1.4,1.6-2.2,2.2h4.5v1h-4.5v-0.9c-1.1,0.9-2.2,1.7-3.3,2.4
	l-0.5-1c2.3-1.3,4.3-3.1,5.9-5.2l1.1,0.3c0,0.1-0.1,0.2-0.2,0.3C53.8,31.3,55.5,32.6,56.9,34.1z M55.6,48.9h-1v-1.1H49v1.1h-1v-4.8
	c-0.2,1.7-0.8,3.4-1.8,4.8l-0.7-0.7c1.3-2.3,1.9-5,1.8-7.7v-5.1h8.4v6.1h-7.4c0,0.4-0.1,0.9-0.2,1.7h7.5V48.9z M54.6,37.9v-1.4h-6.3
	V38L54.6,37.9z M54.6,40.5V39h-6.3v1.5L54.6,40.5z M54.6,46.7v-2.5H49v2.5L54.6,46.7z M62.2,47c0,0.4-0.1,0.9-0.3,1.2
	c-0.3,0.4-0.7,0.6-1.1,0.6c-0.6,0-1.1,0-1.7,0h-0.8l-0.4-1.2c0.9,0,1.8,0,2.8,0c0.2,0,0.3-0.1,0.4-0.3c0.1-0.2,0.2-0.3,0.2-0.5V29.7
	h1V47z M58.8,44.8h-1V30.7h1V44.8z"/>
<path class="st25" d="M66.5,42.7c-0.5,1.6-1.3,3.1-2.3,4.5l-0.9-0.7c0.9-1.3,1.7-2.8,2.2-4.3L66.5,42.7z M72.5,40.9h-4V49h-1v-8.1
	h-4v-1.1h4v-2.2h-3.8v-1.1h2.4c-0.2-1.1-0.6-2.2-1-3.3l0.7-0.5h-2v-1.1h3.7c-0.2-0.6-0.5-1.1-0.8-1.6l1-0.5c0.4,0.6,0.7,1.3,1,2h3.5
	v1.1h-1.6l0.7,0.5c-0.3,1.1-0.8,2.2-1.2,3.3h2.3v1.1h-3.8v2.2h4L72.5,40.9z M70.2,32.8h-4.1c0.5,1.2,0.8,2.5,1.1,3.8h1.7
	C69.4,35.3,69.9,34.1,70.2,32.8z M71.9,45.1L71,45.7c-0.4-1.1-0.8-2.1-1.4-3.1l0.8-0.5C71,43,71.5,44.1,71.9,45.1z M80.6,37.9h-2.1
	V49h-1V37.9h-3c0,4.9-0.8,8.6-2.5,11.2l-0.8-0.7C72,47,72.6,45.5,73,44c0.4-1.9,0.6-3.9,0.6-5.9v-6.6c2.1-0.3,4.2-0.9,6.1-1.9
	l0.8,0.9c-1.9,0.9-3.8,1.6-5.9,1.9v4.3h6.1L80.6,37.9z"/>
<path class="st25" d="M48.4,68.3c-0.5,2-1.3,3.9-2.4,5.6l-1-0.6c1-1.7,1.8-3.5,2.3-5.3L48.4,68.3z M60.7,66.3H47.1v-9.6h13.6V66.3z
	 M53.4,60.9v-3.1h-5.2v3.1H53.4z M53.4,65.2V62h-5.2v3.2L53.4,65.2z M58.8,71.5c0,1-0.2,1.9-0.6,2.8c-0.2,0.4-0.5,0.7-0.9,0.8
	c-1,0.1-1.9,0.2-2.9,0.1c-1,0-1.9,0-2.9-0.1c-0.3-0.1-0.6-0.2-0.8-0.5c-0.2-0.3-0.4-0.7-0.3-1.2v-5.8h1v5.7c0,0.3,0.1,0.6,0.4,0.7
	c0.9,0.1,1.8,0.2,2.7,0.2c0.9,0,1.7,0,2.6-0.1c0.2-0.1,0.4-0.5,0.5-1.2c0.1-0.6,0.2-1.2,0.2-1.8L58.8,71.5z M56,70.4L55.1,71
	c-0.6-1.2-1.3-2.4-2.1-3.4l0.9-0.6C54.7,68.1,55.4,69.2,56,70.4z M59.6,60.9v-3.1h-5.2v3.1H59.6z M59.6,65.3V62h-5.2v3.2L59.6,65.3z
	 M62.6,73l-0.8,0.7c-0.9-1.9-2-3.6-3.3-5.3l1-0.5C60.7,69.5,61.8,71.2,62.6,73L62.6,73z"/>
<path class="st25" d="M65.7,70.3c-0.1,1.8-0.5,3.6-1.2,5.2L63.6,75c0.6-1.6,1-3.2,1.1-4.9L65.7,70.3z M70.7,68.8l-1,0.4
	c-0.1-0.3-0.2-0.8-0.3-1.3c-1.8,0.6-3.6,1.1-5.4,1.5l-0.3-1c1.5-1.6,2.7-3.4,3.8-5.3c-1.2,0.3-2.3,0.6-3.6,0.7l-0.3-1
	c1.4-2.2,2.6-4.5,3.6-6.8l1,0.5c-1,2.1-2,4.1-3.3,6c1.1-0.2,2.2-0.4,3.3-0.8c0.4-0.7,0.9-1.6,1.4-2.6l0.9,0.6
	c-1.5,3-3.2,5.7-5.3,8.3c1.3-0.3,2.6-0.7,3.8-1.1l-0.5-1.3l0.9-0.4C70.1,66.3,70.5,67.5,70.7,68.8z M68.2,74.7l-1,0.2
	c0-1.5-0.2-3-0.5-4.5l1-0.2C68.1,71.7,68.3,73.2,68.2,74.7z M70.9,73.7L70,74c-0.2-1.3-0.5-2.6-1-3.8l0.9-0.3
	C70.4,71.1,70.8,72.4,70.9,73.7L70.9,73.7z M80.9,74.1H73v1.3h-1V62.9c-0.1,0.2-0.5,0.8-1.1,1.8L70,64.1c1.6-2.5,2.8-5.2,3.6-8
	l0.9,0.3c-0.4,1.3-0.8,2.6-1.3,3.8h3.5c-0.3-1.2-0.7-2.4-1.2-3.5l0.9-0.4c0.5,1.2,1,2.5,1.3,3.9h2.9v1.1h-3.4v2.9h3v1.1h-3v3.2h3
	v1.1h-3V73h3.6L80.9,74.1z M76.2,64.2v-2.9H73v2.9L76.2,64.2z M76.2,68.5v-3.2H73v3.2L76.2,68.5z M76.2,73v-3.5H73V73L76.2,73z"/>
<path class="st26" d="M51.9,147.5c0,2-1.6,3.7-3.7,3.7s-3.7-1.6-3.7-3.7s1.6-3.7,3.7-3.7c0,0,0,0,0,0
	C50.3,143.9,51.9,145.5,51.9,147.5z"/>
<path class="st27" d="M146.6,66.4h-6.6v13.2h-1.1V60.5h7.8V66.4z M145.4,62.9v-1.3h-5.5v1.3L145.4,62.9z M145.4,65.3v-1.4h-5.5v1.4
	L145.4,65.3z M147.2,72.4l-0.9,0.4l-0.3-0.6l-4.6,0.6l-0.3-0.9c1-0.6,1.9-1.3,2.8-2.1l-2.6,0.3l-0.3-0.9c1.1-0.7,2.2-1.6,3-2.7
	l1.1,0.5c-0.6,0.7-1.3,1.4-2.1,2l2-0.3c0.4-0.3,0.8-0.7,1.1-1.1l1,0.5c-1.3,1.3-2.6,2.5-4,3.6l2.5-0.3c-0.1-0.2-0.3-0.5-0.4-0.7
	l0.9-0.4C146.5,71,146.9,71.7,147.2,72.4z M146.5,74.4c0.1,1.2-0.2,2.3-0.9,3.2c-0.8,0.8-1.8,1.3-2.9,1.5l-0.7-1
	c2-0.4,3.1-1.2,3.4-2.3h-3.5v-2.6h1.1V75h2.5c0-0.3,0.1-0.5,0.1-0.8v-1h1.1L146.5,74.4z M154.5,72.3l-0.9,0.6l-0.5-0.7l-5.3,0.5
	l-0.2-0.9c1-0.5,1.8-1.2,2.6-1.9l-2.6,0.3l-0.3-0.8c1.1-0.7,2.1-1.5,2.9-2.6l1.1,0.5c-0.6,0.7-1.2,1.3-1.9,1.9l1.9-0.2
	c0.2-0.2,0.5-0.5,1-0.9l0.9,0.4c-1.1,1.2-2.3,2.2-3.6,3.2l2.7-0.3c-0.2-0.3-0.4-0.5-0.6-0.7l0.9-0.5C153.4,70.8,154,71.6,154.5,72.3
	L154.5,72.3z M152.9,76h-3.7v3.1h-1.1v-5.9h1.1V75h2.6v-1.7h1.1V76z M156.4,78.3c0,0.4-0.1,0.7-0.4,1c-0.2,0.2-0.6,0.4-0.9,0.4
	c-1.2,0-1.9,0-2.1,0l-0.5-1.2c0.5,0,1,0.1,1.4,0.1c0.4,0,0.8,0,1.2-0.1c0.1-0.1,0.2-0.2,0.2-0.4V66.4h-6.7v-5.9h7.8V78.3z
	 M155.3,62.9v-1.3h-5.5v1.3L155.3,62.9z M155.3,65.3v-1.4h-5.5v1.4L155.3,65.3z"/>
<path class="st27" d="M165.5,71.9c-1.2,2.7-2.7,5.3-4.4,7.8l-0.9-0.8c1.7-2.4,3.1-5,4.3-7.7L165.5,71.9z M165.3,68.1l-0.7,0.9
	c-1.3-1-2.7-2-4.1-2.8l0.7-1C162.7,66,164.1,67,165.3,68.1L165.3,68.1z M165.9,62.9l-0.9,0.9c-1.2-1.1-2.5-2.1-3.9-3l0.7-0.9
	C163.3,60.8,164.6,61.8,165.9,62.9L165.9,62.9z M179.8,79h-14.4v-1.1h6.9v-6.4h-5.2v-1.2h5.2v-5.4h-5.8v-1.2h6
	c-0.4-1.2-0.9-2.4-1.5-3.5l1.2-0.3c0.6,1.2,1.1,2.5,1.5,3.8h5.9v1.2h-6.2v5.4h5.4v1.2h-5.4v6.4h6.4L179.8,79z"/>
<path class="st27" d="M202.3,69.2h-16.5v2.2c0,3.8-0.8,6.6-2.3,8.3l-0.8-0.8c0.7-0.9,1.2-1.8,1.5-2.9c0.3-1.1,0.5-2.2,0.5-3.3v-4.7
	h17.7V69.2z M201.8,63h-3.4c-0.7,0.8-1.5,1.6-2.4,2.2c1.6,0.4,3.2,0.9,4.8,1.5l-0.6,0.9c-1.8-0.7-3.7-1.3-5.6-1.7
	c-2.5,1-5.3,1.6-8,1.6l-0.4-1c2.2-0.1,4.4-0.4,6.6-1c-1.7-0.4-3.5-0.7-5.3-1l0.5-0.9c2.3,0.4,4.5,0.8,6.4,1.3
	c0.9-0.5,1.7-1.1,2.4-1.8h-12.8v-1.1h8.4c-0.3-0.6-0.6-1.1-1-1.6l1.1-0.5c0.5,0.6,0.9,1.3,1.2,2h8.1L201.8,63z M202.1,79H186v-1h7.7
	v-2.2h-5.5v-1.1h5.5v-2h-4.8c-0.5,0.7-1.1,1.3-1.7,1.9l-0.7-1c1.2-1.1,2.2-2.4,2.9-3.9l1.1,0.3c-0.2,0.5-0.5,1-0.8,1.5h4.1v-1.8h1.1
	v1.8h6.2v1.1h-6.2v2h5.7v1.1h-5.7V78h7.3V79z"/>
<path class="st27" d="M224.8,73.9h-9.1v5.7h-1.2v-5.7h-9.2v-1.1h9.2V71h-8.3v-1h8.3v-1.8h-8.7v-1.1h5.9c-0.3-0.6-0.8-1.2-1.3-1.8
	l0.9-0.5h-6v-1.1h7.4V60h1.2v3.6h2.5V60h1.1v3.6h7.3v1.1h-5.9l0.8,0.6c-0.3,0.6-0.7,1.2-1.1,1.7h5.7v1.1h-8.6v1.8h8.1v1h-8.1v1.8
	h9.1L224.8,73.9z M212.5,75.6c-2,1.5-4.1,2.6-6.5,3.4l-0.8-1c2.3-0.7,4.4-1.8,6.3-3.2L212.5,75.6z M210.4,62.6l-1,0.6
	c-0.7-0.8-1.4-1.6-2.2-2.3l1-0.7C209,60.9,209.7,61.7,210.4,62.6z M218.6,64.8h-7.1c0.6,0.7,1.1,1.5,1.5,2.3h4.2
	C217.8,66.4,218.3,65.6,218.6,64.8z M224.8,78.4l-0.7,0.9c-2.1-1.4-4.3-2.6-6.6-3.6l0.7-0.9C220.5,75.8,222.7,77,224.8,78.4z
	 M223,60.7c-0.6,0.9-1.4,1.7-2.3,2.3l-1-0.6c0.8-0.7,1.6-1.4,2.3-2.3L223,60.7z"/>
<path class="st27" d="M234.1,77.8c0,1.2-0.7,1.8-2,1.8c-0.2,0-0.4,0-0.8,0l-0.4-1.2h1.4c0.2,0,0.3-0.1,0.4-0.2
	c0.1-0.1,0.2-0.2,0.2-0.4v-6.9c-0.9,1-1.7,2-2.7,2.9l-0.6-0.7c0,2.2-0.4,4.5-1,6.6l-1.1-0.9c0.6-1.8,1-3.8,1-5.7
	c0.1-2.3,0.1-4.3,0.1-6.2v-6.5h5.5L234.1,77.8z M233,67l-0.6,0.6c-0.8-0.8-1.6-1.6-2.5-2.3v1.4c0,2.8,0,4.8-0.1,6
	c1.2-1.1,2.3-2.3,3.3-3.6V67z M233,66.7v-5h-3.1v3.5l0.6-0.7C231.3,65.1,232.2,65.9,233,66.7z M245.8,60.9c-2.7,1.2-5.6,1.9-8.5,2.1
	v7.1c0.1,3.3-0.5,6.5-1.6,9.6l-1.1-0.5c1.1-2.9,1.6-5.9,1.5-9V62c3-0.1,6-0.8,8.8-2L245.8,60.9z M246.2,64.7c-2,0.9-4,1.5-6.2,1.9
	v11.3c0.9-0.5,1.8-0.9,2.6-1.4l0.3,1.1c-1.3,0.8-2.7,1.5-4.1,2.2l-0.4-1c0.3-0.3,0.4-0.7,0.4-1.1v-12c2.3-0.2,4.5-0.9,6.6-1.8
	L246.2,64.7z M247.3,78.9l-0.9,0.9c-2.6-2.7-4.1-6.6-4.4-11.6l1.1-0.3c0.1,1.1,0.3,2.3,0.5,3.4c1-0.9,1.8-1.9,2.6-2.9l0.9,0.7
	c-1,1.3-2.1,2.4-3.3,3.5C244.4,74.9,245.6,77.1,247.3,78.9L247.3,78.9z"/>
<path class="st27" d="M261,60.9c-1.5,0.4-3,0.7-4.5,0.8v1.8h4.5v1.1h-4.5v1.7h4.1v6.5h-4.1v1.6h4.1v1.1h-4.1v2.3
	c1.3-0.1,2.7-0.3,4.1-0.5v1.1c-4,0.5-7.4,0.9-10.2,1.2l-0.3-1.2c1.6-0.1,3.4-0.3,5.3-0.5v-2.4h-4.1v-1.1h4.1v-1.6h-4.1v-6.5h4.1
	v-1.7h-4.9v-1.1h4.9v-1.6c-1.2,0.1-2.6,0.2-4.1,0.2l-0.4-1c3.2,0.1,6.4-0.3,9.6-1.1L261,60.9z M255.4,68.9v-1.6h-3v1.6L255.4,68.9z
	 M255.4,71.7V70h-3v1.7L255.4,71.7z M259.5,68.9v-1.6h-3v1.6L259.5,68.9z M259.5,71.7V70h-3v1.7L259.5,71.7z M268.8,64.4
	c0,3.3-0.1,6.3-0.2,9c0,1.6-0.1,3.2-0.4,4.8c-0.1,0.4-0.4,0.8-0.8,1.1c-0.7,0.3-1.5,0.4-2.2,0.4c-0.3,0-0.6,0-0.8,0l-0.4-1.2
	c0.8,0,1.6,0,2.2,0c0.3,0,0.6-0.1,0.8-0.3c0.3-0.3,0.4-0.6,0.4-1l0.2-4.3c0.1-2.4,0.1-4.8,0.1-7.3h-2.4c0.1,5-1.1,9.8-3.4,14.2
	l-1-0.5c2.1-3.6,3.2-8.2,3.3-13.7h-2.4v-1.1h2.4l0.1-4.4h1.1c0,1.8-0.1,3.3-0.1,4.4L268.8,64.4z"/>
<path class="st27" d="M282.1,71.8c-0.5-0.2-0.8-0.6-0.8-1.1c0-0.2,0.1-0.5,0.3-0.7c0.2-0.2,0.5-0.4,0.8-0.3c0.7,0,1,0.5,1,1.4
	c-0.1,0.9-0.6,1.7-1.4,2.2l-0.5-0.4C281.8,72.6,282,72.3,282.1,71.8z"/>
<path class="st27" d="M302.5,62.4h-2.8c-0.4,1.7-0.9,3.4-1.5,5h3.5V77h-1.1v-0.9h-2.1V78h-1.1v-8.9c-0.5,0.9-1,1.8-1.6,2.6l-0.8-0.8
	c1.7-2.6,2.9-5.5,3.5-8.5h-3v-1.1h7L302.5,62.4z M300.6,75.1v-6.5h-2.1v6.5H300.6z M314.7,79.1h-12.6V78h4V64.9h-3.8v-1.1h12.1v1.1
	h-4V78h4.3L314.7,79.1z M304.9,74.4l-1.1,0.4c-0.1-2.4-0.5-4.8-1.1-7.1l1-0.4C304.3,69.6,304.7,72,304.9,74.4L304.9,74.4z
	 M306.8,62.6l-1,0.5c-0.5-1-1.1-1.9-1.7-2.7l1-0.5C305.7,60.7,306.3,61.6,306.8,62.6L306.8,62.6z M309.3,78V64.9h-2.1V78H309.3z
	 M312.5,60.3c-0.5,1-1.2,1.9-2,2.8l-0.9-0.6c0.7-0.8,1.4-1.7,2-2.7L312.5,60.3z M314.2,67.6c-0.3,2.4-0.9,4.8-1.7,7.1l-1-0.5
	c0.8-2.3,1.3-4.7,1.6-7.1L314.2,67.6z"/>
<path class="st27" d="M323.9,70l-2.2,1v7.1c0,1.1-0.7,1.6-2.2,1.6h-1.2l-0.3-1.2c0.4,0,0.7,0.1,1.1,0.1c0.4,0,0.8,0,1.2-0.2
	c0.2-0.1,0.2-0.3,0.2-0.5v-6.4l-3,1.2l-0.3-1.2c1.5-0.5,2.5-0.9,3.2-1.2v-5.2h-3.1V64h3.1v-4h1.1v4h1.5v1.1h-1.5v4.7
	c0.7-0.2,1.4-0.5,2-0.9L323.9,70z M337.1,66.2h-13.4v-1h3.9c-0.2-0.7-0.5-1.3-0.8-2h-2.1v-1.1h5.2c-0.3-0.7-0.6-1.2-0.8-1.5l1-0.5
	c0.4,0.6,0.7,1.3,1,2h5.5v1.1H334c-0.2,0.7-0.5,1.4-0.8,2h3.9L337.1,66.2z M337.1,79.1h-13.4v-1h6.1v-1.7h-5.7v-1.1h5.7v-1.5h-4.9
	v-6.3h10.9v6.3H331v1.5h5.6v1.1H331V78h6L337.1,79.1z M329.8,70v-1.5H326V70H329.8z M329.8,72.7V71H326v1.6L329.8,72.7z M332.9,63.2
	H328c0.2,0.6,0.5,1.2,0.7,2h3.3C332.3,64.6,332.6,63.9,332.9,63.2z M334.7,70v-1.5H331V70H334.7z M334.7,72.7V71H331v1.6L334.7,72.7
	z"/>
<path class="st27" d="M358.4,79.6h-1.2v-1.1h-15.8V71h1.2v6.4h6.8v-8.7h-7v-7.4h1.2v6.2h5.8v-7.7h1.1v7.7h5.7v-6.2h1.2v7.4h-6.9v8.6
	h6.7V71h1.2L358.4,79.6z"/>
<path class="st27" d="M369.7,77c-3.1,1.1-5.4,1.9-6.8,2.3l-0.5-1.1c0.3-0.1,0.7-0.2,1-0.3v-8.6h1.1v8.3c0.5-0.1,1-0.3,1.5-0.5v-9.6
	h-2.6v-6.8h5.4v6.8h-1.6v3.1h2v1.1h-2v5c0.9-0.2,1.7-0.5,2.5-0.9L369.7,77z M367.6,66.3v-4.4h-3v4.5L367.6,66.3z M382.2,67.4
	l-0.7,0.9c-2.1-1.1-3.8-2.9-4.7-5.1H375c-1.1,2.1-2.6,3.8-4.6,5l-1-0.8c1.7-1,3.2-2.4,4.2-4.2h-3.7v-1.1h4.2
	c0.3-0.7,0.5-1.5,0.7-2.3l1.2,0.3c-0.1,0.7-0.3,1.3-0.6,2h6.3v1.1H378C378.9,65.1,380.4,66.6,382.2,67.4L382.2,67.4z M381.5,71h-7.4
	l-0.7,2.3h6.7c0,1.4-0.2,2.8-0.5,4.2c-0.1,0.7-0.5,1.3-1,1.8c-0.8,0.3-1.7,0.5-2.6,0.4c-0.6,0-1.4,0-2.1-0.1l-0.3-1.2
	c1,0,2.3,0.1,3.9,0.1c0.4,0,0.7-0.2,0.8-0.6c0.3-1.1,0.5-2.2,0.6-3.4h-7l1-3.4h-2.7v-1h11.4L381.5,71z M378.7,67.8H373v-1.1h5.7
	L378.7,67.8z"/>
<path class="st27" d="M394.4,64.6l-0.8,0.8c-1-1.3-2.2-2.5-3.5-3.4c-1.2,2-2.6,3.8-4.4,5.3l-0.7-1c2.1-1.8,3.7-4,4.9-6.5l1.1,0.3
	c-0.2,0.4-0.3,0.7-0.4,0.8C392,62,393.3,63.2,394.4,64.6z M393.9,70.6c-0.2,0.8-0.5,1.5-0.9,2.2c-0.6,1.3-1.4,2.5-2.2,3.7
	c0.7,0.7,1.4,1.5,2.1,2.3l-0.9,0.7c-1.6-2-3.4-3.8-5.5-5.3l0.8-0.8c0.8,0.6,1.7,1.3,2.7,2.2c1.2-1.5,2.1-3.3,2.7-5.1h-7.2v-1.1h8.4
	V70.6z M393.1,67.2h-5.5v-1.1h5.5V67.2z M404.6,61.6h-4.4c-0.3,1.3-0.6,2.2-0.7,2.6h4.1v11h-5.3l0.7,0.7c-1.3,1.4-2.7,2.7-4.3,3.7
	l-0.8-0.9c1.5-1,2.9-2.1,4.1-3.5h-2.7v-11h2.9c0.3-0.9,0.5-1.7,0.7-2.6h-4.6v-1h10.3V61.6z M402.4,67.3v-2h-5.9v2H402.4z
	 M402.4,70.6v-2.2h-5.9v2.2L402.4,70.6z M402.4,74.1v-2.5h-5.9v2.5L402.4,74.1z M404.7,78.7l-0.7,0.8c-1.2-1.1-2.5-2.1-3.9-3
	l0.7-0.9C402.2,76.6,403.5,77.6,404.7,78.7L404.7,78.7z"/>
<path class="st27" d="M413.3,75c-2,1-3.9,1.9-5.6,2.7l-0.4-1.1c0.9-0.3,1.8-0.7,2.6-1.2v-8.7h-2.2v-1.1h2.2v-5.6h1.1v5.6h1.9v1.1
	h-1.9v8.2c0.7-0.3,1.4-0.6,2.1-1L413.3,75z M427.1,75.3c-0.1,1.1-0.4,2.2-0.8,3.2c-0.2,0.6-0.8,1-1.4,1c-1,0-1.9-1.2-2.8-3.5
	c-1.2,1.4-2.6,2.7-4.2,3.6l-0.8-1c1.8-1,3.4-2.4,4.6-4.1c-0.7-3.4-1.1-6.9-1.1-10.3h-7.7v-1.1h7.7c0-0.7,0-1.3,0-2
	c0-0.5,0-0.9,0-1.2h1.1c0,1.7,0,2.8,0,3.3h5.1v1.1h-5.1c0,3,0.3,5.9,0.8,8.9c1.1-2.1,1.9-4.3,2.3-6.6l1.1,0.3c-0.6,2.8-1.6,5.5-3,8
	c0.2,0.6,0.4,1.2,0.7,1.7c0.2,0.4,0.5,0.9,0.8,1.3c0.2,0.2,0.4,0.3,0.5,0.3c0.1,0,0.2-0.1,0.3-0.2c0.2-0.3,0.3-0.7,0.3-1
	c0.2-0.7,0.3-1.4,0.4-2.2L427.1,75.3z M420.1,75c-2.5,0.9-4.7,1.7-6.7,2.3l-0.3-1.2c1.9-0.5,4.1-1.3,6.9-2.3L420.1,75z M418.9,72.5
	h-4.8v-5.9h4.8V72.5z M417.8,71.4v-3.7h-2.5v3.7L417.8,71.4z M425.8,62l-0.9,0.8c-0.5-0.7-1-1.3-1.7-1.9l0.9-0.7
	C424.7,60.7,425.3,61.3,425.8,62L425.8,62z"/>
<path class="st27" d="M437.2,66.3c-0.6,1.1-1.2,2.2-1.9,3.2v10.1h-1.2V71c-1,1.1-2.1,2-3.3,2.9l-0.9-0.9c2.7-1.7,4.9-4.2,6.2-7.2
	L437.2,66.3z M439.3,63.3h-2.7v2.2h-1.2v-2.2H430v-1.1h5.4v-2.4h1.2v2.4h2.7L439.3,63.3z M449.5,74.6c0,1.2-0.1,2.4-0.5,3.5
	c-0.2,0.4-0.5,0.8-1,1c-1.1,0.2-2.3,0.3-3.4,0.3c-1.3,0.1-2.6,0-3.8-0.3c-0.5-0.3-0.7-0.9-0.6-1.4V66.1h1.2v3.8h7.8V71h-7.8v6.5
	c0,0.3,0.1,0.5,0.4,0.6c0.9,0.1,1.9,0.2,2.8,0.1c1,0.1,2,0,3-0.2c0.2-0.1,0.4-0.5,0.5-1.3c0.1-0.9,0.2-1.7,0.3-2.6L449.5,74.6z
	 M449.6,63.3h-5.3v2.3h-1.2v-2.4h-2.9v-1.1h2.9v-2.4h1.2v2.4h5.3V63.3z"/>
<path class="st27" d="M472,78.8l-0.7,1c-5.1-2.9-8.2-6.6-9.2-11.3c-0.8,4.6-3.8,8.4-9,11.3l-0.8-1c2.1-1.1,4-2.6,5.6-4.3
	c1.6-1.8,2.7-4,3-6.4c0.4-2.7,0.6-5.4,0.5-8.1h1.2l-0.1,3.5c0,2.1,0.3,4.1,1,6.1c2.4-1.9,4.5-4,6.3-6.4l1,0.8
	c-2,2.5-4.3,4.8-6.8,6.8C465.8,74.1,468.5,77,472,78.8z M459,69.8l-1,0.7c-1.2-2.4-2.8-4.6-4.6-6.5l1-0.7
	C456.3,65.2,457.8,67.4,459,69.8L459,69.8z"/>
</svg>
