<svg id="圖層_1" data-name="圖層 1" xmlns="http://www.w3.org/2000/svg" xmlns:xlink="http://www.w3.org/1999/xlink" viewBox="0 0 500 160"><defs><style>.cls-1{fill:#5f7696;}.cls-1,.cls-2,.cls-27{fill-rule:evenodd;}.cls-2{fill:url(#新增漸層色票_1);}.cls-3{fill:url(#新增漸層色票_1-2);}.cls-4{fill:url(#未命名漸層_21);}.cls-5{fill:url(#未命名漸層_20);}.cls-6{fill:url(#未命名漸層_19);}.cls-7{fill:url(#未命名漸層_18);}.cls-8{fill:url(#未命名漸層_17);}.cls-9{fill:url(#未命名漸層_16);}.cls-10{fill:url(#未命名漸層_15);}.cls-11{fill:url(#未命名漸層_14);}.cls-12{fill:url(#未命名漸層_13);}.cls-13{fill:url(#未命名漸層_12);}.cls-14{fill:url(#未命名漸層_11);}.cls-15{fill:url(#未命名漸層_10);}.cls-16{fill:url(#未命名漸層_9);}.cls-17{fill:url(#未命名漸層_8);}.cls-18{fill:url(#未命名漸層_7);}.cls-19{fill:url(#未命名漸層_6);}.cls-20{fill:url(#未命名漸層_5);}.cls-21{fill:url(#未命名漸層_4);}.cls-22{fill:url(#未命名漸層_3);}.cls-23{fill:url(#未命名漸層_2);}.cls-24{fill:#4c6075;}.cls-25{fill:#fff;}.cls-26{fill:#211513;}.cls-27{fill:#ad181c;}</style><linearGradient id="新增漸層色票_1" x1="345.88" y1="82.34" x2="441.9" y2="82.34" gradientUnits="userSpaceOnUse"><stop offset="0" stop-color="#d33924"/><stop offset="0.15" stop-color="#cb3023"/><stop offset="0.35" stop-color="#bb1c21"/><stop offset="0.57" stop-color="#aa1b20"/><stop offset="1" stop-color="#7f191e"/><stop offset="1" stop-color="#7f191e"/></linearGradient><linearGradient id="新增漸層色票_1-2" x1="351" y1="108.31" x2="433.12" y2="108.31" xlink:href="#新增漸層色票_1"/><linearGradient id="未命名漸層_21" x1="351.22" y1="108.06" x2="433.19" y2="108.06" gradientUnits="userSpaceOnUse"><stop offset="0" stop-color="#cd3b28"/><stop offset="0.15" stop-color="#c53227"/><stop offset="0.35" stop-color="#b61f25"/><stop offset="0.57" stop-color="#a51e24"/><stop offset="1" stop-color="#7d1c22"/></linearGradient><linearGradient id="未命名漸層_20" x1="351.44" y1="107.8" x2="433.26" y2="107.8" gradientUnits="userSpaceOnUse"><stop offset="0" stop-color="#c63d2c"/><stop offset="0.16" stop-color="#be342b"/><stop offset="0.35" stop-color="#b02329"/><stop offset="0.59" stop-color="#9f2228"/><stop offset="1" stop-color="#7a2026"/></linearGradient><linearGradient id="未命名漸層_19" x1="351.66" y1="107.54" x2="433.34" y2="107.54" gradientUnits="userSpaceOnUse"><stop offset="0" stop-color="#c03f30"/><stop offset="0.17" stop-color="#b8362f"/><stop offset="0.35" stop-color="#ab262d"/><stop offset="0.6" stop-color="#9a252c"/><stop offset="1" stop-color="#78232a"/></linearGradient><linearGradient id="未命名漸層_18" x1="351.88" y1="107.28" x2="433.41" y2="107.28" gradientUnits="userSpaceOnUse"><stop offset="0" stop-color="#b94133"/><stop offset="0.17" stop-color="#b23832"/><stop offset="0.35" stop-color="#a62931"/><stop offset="0.61" stop-color="#952830"/><stop offset="1" stop-color="#75272f"/></linearGradient><linearGradient id="未命名漸層_17" x1="352.1" y1="107.03" x2="433.49" y2="107.03" gradientUnits="userSpaceOnUse"><stop offset="0" stop-color="#b34237"/><stop offset="0.18" stop-color="#ab3936"/><stop offset="0.35" stop-color="#a02c35"/><stop offset="0.63" stop-color="#8f2b34"/><stop offset="1" stop-color="#732a33"/></linearGradient><linearGradient id="未命名漸層_16" x1="352.32" y1="106.77" x2="433.56" y2="106.77" gradientUnits="userSpaceOnUse"><stop offset="0" stop-color="#ac443b"/><stop offset="0.2" stop-color="#a43b3a"/><stop offset="0.35" stop-color="#9b3039"/><stop offset="0.64" stop-color="#8a2f38"/><stop offset="1" stop-color="#702d37"/></linearGradient><linearGradient id="未命名漸層_15" x1="352.54" y1="106.51" x2="433.64" y2="106.51" gradientUnits="userSpaceOnUse"><stop offset="0" stop-color="#a6463f"/><stop offset="0.2" stop-color="#9e3d3e"/><stop offset="0.35" stop-color="#96333d"/><stop offset="0.66" stop-color="#85323c"/><stop offset="1" stop-color="#6e313b"/></linearGradient><linearGradient id="未命名漸層_14" x1="352.76" y1="106.25" x2="433.71" y2="106.25" gradientUnits="userSpaceOnUse"><stop offset="0" stop-color="#9f4843"/><stop offset="0.21" stop-color="#983f42"/><stop offset="0.35" stop-color="#913641"/><stop offset="0.67" stop-color="#803540"/><stop offset="1" stop-color="#6b343f"/></linearGradient><linearGradient id="未命名漸層_13" x1="352.98" y1="106" x2="433.79" y2="106" gradientUnits="userSpaceOnUse"><stop offset="0" stop-color="#994a47"/><stop offset="0.22" stop-color="#914146"/><stop offset="0.35" stop-color="#8b3945"/><stop offset="0.7" stop-color="#7a3944"/><stop offset="1" stop-color="#693843"/></linearGradient><linearGradient id="未命名漸層_12" x1="353.2" y1="105.74" x2="433.86" y2="105.74" gradientUnits="userSpaceOnUse"><stop offset="0" stop-color="#934c4b"/><stop offset="0.24" stop-color="#8b434a"/><stop offset="0.35" stop-color="#863d49"/><stop offset="0.73" stop-color="#753c48"/><stop offset="1" stop-color="#673b47"/></linearGradient><linearGradient id="未命名漸層_11" x1="353.42" y1="105.48" x2="433.94" y2="105.48" gradientUnits="userSpaceOnUse"><stop offset="0" stop-color="#8c4e4f"/><stop offset="0.26" stop-color="#85454e"/><stop offset="0.35" stop-color="#81404d"/><stop offset="0.75" stop-color="#703f4c"/><stop offset="1" stop-color="#643e4c"/></linearGradient><linearGradient id="未命名漸層_10" x1="353.64" y1="105.23" x2="434.01" y2="105.23" gradientUnits="userSpaceOnUse"><stop offset="0" stop-color="#865052"/><stop offset="0.27" stop-color="#7e4751"/><stop offset="0.35" stop-color="#7b4351"/><stop offset="0.81" stop-color="#6a4250"/><stop offset="1" stop-color="#624250"/></linearGradient><linearGradient id="未命名漸層_9" x1="353.86" y1="104.97" x2="434.09" y2="104.97" gradientUnits="userSpaceOnUse"><stop offset="0" stop-color="#7f5156"/><stop offset="0.31" stop-color="#774855"/><stop offset="0.35" stop-color="#764655"/><stop offset="0.84" stop-color="#654554"/><stop offset="1" stop-color="#5f4554"/></linearGradient><linearGradient id="未命名漸層_8" x1="354.08" y1="104.71" x2="434.16" y2="104.71" gradientUnits="userSpaceOnUse"><stop offset="0" stop-color="#79535a"/><stop offset="0.35" stop-color="#714a59"/><stop offset="0.9" stop-color="#604958"/><stop offset="1" stop-color="#5d4958"/></linearGradient><linearGradient id="未命名漸層_7" x1="354.3" y1="104.45" x2="434.24" y2="104.45" gradientUnits="userSpaceOnUse"><stop offset="0" stop-color="#72555e"/><stop offset="0.35" stop-color="#6b4d5d"/><stop offset="0.99" stop-color="#5a4c5c"/><stop offset="1" stop-color="#5a4c5c"/></linearGradient><linearGradient id="未命名漸層_6" x1="354.53" y1="104.2" x2="434.31" y2="104.2" gradientUnits="userSpaceOnUse"><stop offset="0" stop-color="#6c5762"/><stop offset="0.35" stop-color="#665061"/><stop offset="1" stop-color="#584f60"/></linearGradient><linearGradient id="未命名漸層_5" x1="354.75" y1="103.94" x2="434.38" y2="103.94" gradientUnits="userSpaceOnUse"><stop offset="0" stop-color="#655966"/><stop offset="0.35" stop-color="#615365"/><stop offset="1" stop-color="#555365"/></linearGradient><linearGradient id="未命名漸層_4" x1="354.97" y1="103.68" x2="434.46" y2="103.68" gradientUnits="userSpaceOnUse"><stop offset="0" stop-color="#5f5b6a"/><stop offset="0.35" stop-color="#5c5769"/><stop offset="1" stop-color="#535669"/></linearGradient><linearGradient id="未命名漸層_3" x1="355.19" y1="103.42" x2="434.53" y2="103.42" gradientUnits="userSpaceOnUse"><stop offset="0" stop-color="#595d6d"/><stop offset="0.35" stop-color="#565a6d"/><stop offset="1" stop-color="#515a6d"/></linearGradient><linearGradient id="未命名漸層_2" x1="355.41" y1="103.17" x2="434.61" y2="103.17" gradientUnits="userSpaceOnUse"><stop offset="0" stop-color="#525f71"/><stop offset="0.35" stop-color="#515d71"/><stop offset="1" stop-color="#4e5d71"/></linearGradient></defs><path class="cls-1" d="M368.41,141.6A47.44,47.44,0,1,0,407.91,57c-4.44-1.11-8.31-1.35-12.67-3.13-13.15-5.36-13-19.89,12.69-40.16-44,17.88-68.8,65.56-57.78,101.61a51,51,0,0,0,18.26,26.24Z"/><path class="cls-2" d="M366.63,141.81A47.34,47.34,0,1,0,406.1,57.69c-4.45-1.12-8.57-1.21-12.73-3.43-12.9-6.88-11.11-22.94,14.56-40.51-44,17.88-70.59,65.77-59.56,101.82a51,51,0,0,0,18.26,26.24Z"/><path class="cls-3" d="M432.66,114.35A41.05,41.05,0,1,1,398.1,67.71a41,41,0,0,1,34.56,46.64Z"/><path class="cls-4" d="M432.74,114.08a41,41,0,1,1-34.51-46.56,41,41,0,0,1,34.51,46.56Z"/><path class="cls-5" d="M432.81,113.81a40.9,40.9,0,1,1-34.44-46.47,40.9,40.9,0,0,1,34.44,46.47Z"/><path class="cls-6" d="M432.89,113.55a40.83,40.83,0,1,1-34.38-46.4,40.83,40.83,0,0,1,34.38,46.4Z"/><path class="cls-7" d="M433,113.28A40.76,40.76,0,1,1,398.64,67,40.75,40.75,0,0,1,433,113.28Z"/><path class="cls-8" d="M433,113a40.69,40.69,0,1,1-34.26-46.23A40.68,40.68,0,0,1,433,113Z"/><path class="cls-9" d="M433.12,112.74a40.62,40.62,0,1,1-34.2-46.14,40.61,40.61,0,0,1,34.2,46.14Z"/><path class="cls-10" d="M433.19,112.47a40.54,40.54,0,1,1-34.14-46.06,40.53,40.53,0,0,1,34.14,46.06Z"/><path class="cls-11" d="M433.27,112.21a40.47,40.47,0,1,1-34.08-46,40.46,40.46,0,0,1,34.08,46Z"/><path class="cls-12" d="M433.34,111.94a40.39,40.39,0,1,1-34-45.9,40.38,40.38,0,0,1,34,45.9Z"/><path class="cls-13" d="M433.42,111.67a40.32,40.32,0,1,1-34-45.82,40.32,40.32,0,0,1,34,45.82Z"/><path class="cls-14" d="M433.49,111.4A40.25,40.25,0,1,1,399.6,65.67a40.25,40.25,0,0,1,33.89,45.73Z"/><path class="cls-15" d="M433.57,111.13a40.18,40.18,0,1,1-33.83-45.65,40.18,40.18,0,0,1,33.83,45.65Z"/><path class="cls-16" d="M433.64,110.87A40.1,40.1,0,1,1,399.87,65.3a40.1,40.1,0,0,1,33.77,45.57Z"/><path class="cls-17" d="M433.72,110.6A40,40,0,1,1,400,65.11a40,40,0,0,1,33.71,45.49Z"/><path class="cls-18" d="M433.8,110.33a40,40,0,1,1-33.65-45.4,40,40,0,0,1,33.65,45.4Z"/><path class="cls-19" d="M433.87,110.06a39.89,39.89,0,1,1-33.59-45.32,39.89,39.89,0,0,1,33.59,45.32Z"/><path class="cls-20" d="M434,109.79a39.82,39.82,0,1,1-33.53-45.23A39.82,39.82,0,0,1,434,109.79Z"/><path class="cls-21" d="M434,109.53a39.74,39.74,0,1,1-33.46-45.16A39.73,39.73,0,0,1,434,109.53Z"/><path class="cls-22" d="M434.1,109.26a39.67,39.67,0,1,1-33.41-45.07,39.67,39.67,0,0,1,33.41,45.07Z"/><path class="cls-23" d="M434.17,109a39.6,39.6,0,1,1-33.34-45,39.58,39.58,0,0,1,33.34,45Z"/><path class="cls-24" d="M434.25,108.72A39.52,39.52,0,1,1,401,63.82a39.52,39.52,0,0,1,33.28,44.9Z"/><path class="cls-25" d="M434.25,108.72A39.52,39.52,0,1,1,401,63.82a39.52,39.52,0,0,1,33.28,44.9Z"/><path class="cls-25" d="M432.77,108.5a38,38,0,1,1-32-43.21,38,38,0,0,1,32,43.21Z"/><path class="cls-26" d="M382.35,78.8c-.14.58-.37,1.39-.71,2.42l-.5,1.53v15h-1V85.37q-1,2-1.74,3.33l-.68-1.06a32.75,32.75,0,0,0,3.67-9.19Zm4.29,13.27a20.85,20.85,0,0,1-3.87,5l-.72-.79a21.73,21.73,0,0,0,3.78-4.92Zm8.43-2.38h-5.85v8.16h-1V89.69h-6.06V88.56h6.06V86h-4.52V79.16h10.06V86h-4.5v2.61h5.85Zm-2.39-4.87V80.19h-8v4.63Zm2.52,11.31-.73.81A28.48,28.48,0,0,0,390.66,92l.79-.84A31.37,31.37,0,0,1,395.2,96.13Z"/><path class="cls-26" d="M403.9,79.45a31.28,31.28,0,0,1-6.11,1.77v4.86c1.42-.51,2.83-1.09,4.22-1.73a8.5,8.5,0,0,0-.79-1.4l.81-.6a16.24,16.24,0,0,1,1.76,3.44l-1,.56a4.43,4.43,0,0,0-.41-1c-2.46,1.09-4.31,1.87-5.57,2.32l-.49-1a1.1,1.1,0,0,0,.4-.89V80.21a21.41,21.41,0,0,0,6.43-1.74Zm7.25,18.38h-1v-1H398.87v1h-1.06V88.5h13.34ZM404,92V89.63h-5.09V92Zm0,3.73V93.08h-5.09v2.65Zm8.29-16.28c0,1.67-.05,3.17-.14,4.51a6.67,6.67,0,0,1-.4,2.39A2.24,2.24,0,0,1,411,87a9.28,9.28,0,0,1-3.08.27L407.54,86q.73.06,1.38.06a4.48,4.48,0,0,0,1.58-.17.82.82,0,0,0,.43-.6,15.1,15.1,0,0,0,.19-1.69c.07-.84.09-1.86.07-3.06h-2.75a10.17,10.17,0,0,1-3.91,7l-.8-.9a8.17,8.17,0,0,0,3.6-6.12h-2.64V79.45ZM410.13,92V89.63H405V92Zm0,3.73V93.08H405v2.65Z"/><path class="cls-26" d="M381.46,105.14c-.14.67-.34,1.49-.62,2.49l-.41,1.38v15.21h-1.05V112.1a34.38,34.38,0,0,1-1.53,3.15l-.55-1.19a36.14,36.14,0,0,0,3.13-9.25Zm13.29,15h-2.88v2.23a2.14,2.14,0,0,1-.39,1.31c-.26.34-.86.52-1.81.52a7,7,0,0,1-1.13-.08l-.55-1.07q.88.09,1.56.09a2.66,2.66,0,0,0,1-.11.37.37,0,0,0,.21-.36v-2.53h-9.47v-1h9.47v-1.3h1.08v1.3h2.88Zm.05-2.54-.68.71c-.2-.3-.47-.67-.8-1.11l-11.6.69-.16-1,5.75-.33v-1.52h-4.78V109h4.78v-1.52h-5.55v-1h5.55v-1.65h1v1.65h5.88v1h-5.88V109h5v6.09h-.69A16.61,16.61,0,0,1,394.8,117.63Zm-7.39,5-.75.86a27.23,27.23,0,0,0-3.5-2.12l.72-.86A27.27,27.27,0,0,1,387.41,122.61Zm-.1-11.08V110h-3.73v1.57Zm0,2.55v-1.6h-3.73v1.6Zm5-2.55V110h-3.94v1.57Zm0,2.55v-1.6h-3.94v1.6Zm.12,2.21a6.75,6.75,0,0,0-.88-.89l.36-.32h-3.54v1.43C389.66,116.41,391,116.33,392.41,116.29Z"/><path class="cls-26" d="M397.92,119a23.93,23.93,0,0,1-1.2,5.17l-.94-.38a22.58,22.58,0,0,0,1.17-5.06Zm4.79-1.37-.92.35a10.5,10.5,0,0,0-.31-1.28,47.91,47.91,0,0,1-5.24,1.52l-.29-1a33.92,33.92,0,0,0,3.9-5.45c-1.05.25-2.22.46-3.51.65l-.26-1a24.09,24.09,0,0,0,3.27-6.48l.93.37a23.25,23.25,0,0,1-2.89,5.91,23,23,0,0,0,3.12-.63,14.09,14.09,0,0,0,.79-1.66l.91.44a34.38,34.38,0,0,1-4.54,7.43,23.48,23.48,0,0,0,3.49-1.1c-.14-.43-.3-.89-.5-1.37l.89-.42A22.13,22.13,0,0,1,402.71,117.59Zm-2.35,5.62-1,.22a17.7,17.7,0,0,0-.64-4.5l1-.17A29.51,29.51,0,0,1,400.36,123.21Zm2.27-1.75-.93.34a20.89,20.89,0,0,0-.8-3.13l.91-.31A22.12,22.12,0,0,1,402.63,121.46ZM413,108.51h-6.07a28,28,0,0,1-2.66,5,50.12,50.12,0,0,0,6.21-.73,17.05,17.05,0,0,0-1.47-2l.87-.61a29.13,29.13,0,0,1,2.92,4.6l-.84.68a11.75,11.75,0,0,0-.91-1.65l-1.84.33v8.22c0,.32.15.48.46.48h1.4a.59.59,0,0,0,.46-.19,3.48,3.48,0,0,0,.29-1.35c.08-.76.13-1.63.14-2.6l1,.4a15.75,15.75,0,0,1-.3,3.39,1.83,1.83,0,0,1-.74,1.19,3.51,3.51,0,0,1-1.65.28,3,3,0,0,1-1.62-.31,1.37,1.37,0,0,1-.43-1.18v-8.19c-1.1.14-1.78.21-2.05.21q0,6.64-3.69,9.81l-.69-.79a9.72,9.72,0,0,0,2.49-3.47,14.23,14.23,0,0,0,.88-5.44,20.4,20.4,0,0,1-2.17.14l-.23-1a18.55,18.55,0,0,0,3.08-5.13h-3.36v-1.08h3.82c.22-.57.53-1.43.93-2.6l1,.33c-.34,1-.62,1.78-.84,2.27H413Z"/><path class="cls-27" d="M412.64,3.8A3.68,3.68,0,1,1,409,.12a3.68,3.68,0,0,1,3.68,3.68Z"/><path class="cls-26" d="M21.79,96.46H19.05v1.08H17.93V96.46H12.55v-.9h5.38V94.37h1.12v1.19h2.74Zm10.27,17.08H12.55v-.88H32.06Zm-.19-7.41H13v-.92H31.87ZM31.59,99H13v-.86H31.59Zm-2,5.19H15V100H29.62Zm0,7.36H15v-4.43H29.62Zm-7.85-9.85v-.92H16.13v.92Zm0,1.74v-.93H16.13v.93Zm0,5.46V108H16.13v.92Zm0,1.79v-1H16.13v1ZM32,96.46H26.83v1.08H25.68V96.46H22.8v-.9h2.88V94.37h1.15v1.19H32Zm-3.53,5.28v-.92H22.89v.92Zm0,1.74v-.93H22.89v.93Zm0,5.43V108H22.89v.89Zm0,1.82v-1H22.89v1Z"/><path class="cls-26" d="M54.71,112.6l-.39,1.1H46.9a12.37,12.37,0,0,1-4.69-.75,8.74,8.74,0,0,1-3.27-2.48,17.49,17.49,0,0,1-3.23,3.5l-.88-.86a13.13,13.13,0,0,0,4.81-6.85l1.15.29a11.49,11.49,0,0,1-1.22,2.88,7.25,7.25,0,0,0,4.93,3V105.3H35v-1.13H54.56v1.13h-8.9v2.87h7.66v1.12H45.66v3.24c.67,0,1.41.07,2.23.07Zm-3-10.2H37.91V94.94H51.73ZM50.49,98V96H39.12v2Zm0,3.26V99.21H39.12v2.08Z"/><path class="cls-26" d="M77,102.75H70.25a39.53,39.53,0,0,1-5.91,3.71v.73h8.83v1.14H64.34v3.46a.75.75,0,0,0,.29.61,1.06,1.06,0,0,0,.7.24h8a1.62,1.62,0,0,0,.94-.42c.36-.28.6-1.29.73-3l1.14.7a7.29,7.29,0,0,1-1,3.2,2.7,2.7,0,0,1-2.2.73h-8a1.76,1.76,0,0,1-1.4-.58,2.16,2.16,0,0,1-.51-1.48V107q-2.41,1.14-5.12,2.21l-.61-1.15a45.29,45.29,0,0,0,10.86-5.33H57.5v-1.16h7.87V98.33H59V97.11h6.35v-2.7h1.2v2.7H72v1.22H66.57v3.26h3.3a32.51,32.51,0,0,0,5.37-5.89l1,.74a58.53,58.53,0,0,1-4.6,5.15H77Z"/><path class="cls-26" d="M87.71,113.61H86.58v-1.94H81.73v2.38H80.59V98.12h2.09a21.88,21.88,0,0,0,1.6-3.86l1.12.23c-.27.79-.77,2-1.53,3.63h3.84Zm-1.13-9.53V99.25H81.73v4.83Zm0,6.45v-5.32H81.73v5.32ZM99,98.14c-.08,3.37-.25,6.5-.49,9.39a23.14,23.14,0,0,1-.71,5.1,2.43,2.43,0,0,1-.93,1.09,4.78,4.78,0,0,1-2.15.32l-1.81,0-.36-1.14c.61,0,1.28,0,2,0s1.09,0,1.27,0a1,1,0,0,0,.59-.28,1.42,1.42,0,0,0,.44-.6,16.43,16.43,0,0,0,.35-2.59c.15-1.49.27-3.13.36-4.93s.17-3.54.21-5.23H91.87a31.16,31.16,0,0,1-2.72,4.45l-.92-.65a23.93,23.93,0,0,0,4.18-8.64l1.14.3a33.74,33.74,0,0,1-1.23,3.43Zm-4.13,10.08-1,.67a23.49,23.49,0,0,0-3.26-5.24l1-.62A22.48,22.48,0,0,1,94.84,108.22Z"/><path class="cls-26" d="M111,104h-3.69v2.87h3.16V108h-3.28a8.82,8.82,0,0,1-3.07,6l-.84-.88A7.3,7.3,0,0,0,106,108h-3.22v-1.08h3.31V104h-3.67v-1.1h2.34a37,37,0,0,0-1.1-4l.86-.65h-1.8V97.22h3.68a12.44,12.44,0,0,0-.87-2.62l1-.43a18.23,18.23,0,0,1,1,3h3.06v1.09h-1.55l.76.62a30.85,30.85,0,0,1-1.23,4H111Zm-2.16-5.73h-4.12a33.31,33.31,0,0,1,1.26,4.63h1.51A35.09,35.09,0,0,0,108.8,98.31Zm13.25,13.12-.67.95a14.52,14.52,0,0,1-4.56-5.9V114h-1.08V106.6a13.94,13.94,0,0,1-5.48,5.84l-.63-.92a13.2,13.2,0,0,0,5.08-5.37h-2.95v-5.93h4V97.9h-4.07V96.8h4.07V94.41h1.08V96.8h5v1.1h-5v2.29h4v6h-3A13.76,13.76,0,0,0,122.05,111.43Zm-6.31-6.36v-3.8h-2.87v3.8Zm4,0v-3.8h-2.92v3.8Z"/><path class="cls-26" d="M134.33,106.31a1.26,1.26,0,0,1-.81-1.09,1,1,0,0,1,.27-.65,1,1,0,0,1,.78-.34c.71,0,1.06.46,1.06,1.39a2.9,2.9,0,0,1-1.33,2.18l-.47-.36A2.1,2.1,0,0,0,134.33,106.31Z"/><path class="cls-26" d="M156.15,97.88h-8.79V96.75h4a18.34,18.34,0,0,0-1-2l1.06-.51a15.93,15.93,0,0,1,1.15,2.51h3.5Zm-.77,3.32h-7.19v-1.14h7.19Zm0,3.13h-7.19v-1.11h7.19Zm-.15,9.37h-1.17v-1.35h-4.45v1.73h-1.22v-7.51h6.84Zm-1.17-2.48v-3.5h-4.45v3.5Zm12.85-2.13a13.22,13.22,0,0,1-.35,3.4,1.67,1.67,0,0,1-1,1,13.18,13.18,0,0,1-3.45.27,18.49,18.49,0,0,1-3.61-.18,1.45,1.45,0,0,1-.78-.63,1.72,1.72,0,0,1-.27-.91v-9.89h7.44V96.55H157V95.39H166v8H158.6V112a.56.56,0,0,0,.34.57,11.18,11.18,0,0,0,2.71.16,28,28,0,0,0,3.2-.1c.41-.07.66-.45.75-1.13a21.21,21.21,0,0,0,.1-2.89Z"/><path class="cls-26" d="M180.47,95.86h-1.85v18.27h-1.19v-4.61a65.35,65.35,0,0,1-7.23,2l-.43-1.1,2-.4V95.86h-2V94.75h10.7Zm-3,3.48V95.86H173v3.48Zm0,4.76v-3.59H173v3.59Zm0,4.23v-3.08H173v4.43C174.23,109.36,175.71,108.91,177.43,108.33Zm12,4.86-.79.92a25.73,25.73,0,0,1-3.95-4.09,23.47,23.47,0,0,1-4.34,4.11l-.79-.85a22.87,22.87,0,0,0,4.4-4.25,25.48,25.48,0,0,1-3.32-11.22h-.71V96.66h8.64a23.68,23.68,0,0,1-3.17,12.28,11.39,11.39,0,0,0,1.77,2.2A18,18,0,0,0,189.39,113.19Zm-2.06-15.38h-5.51a21.76,21.76,0,0,0,2.83,10.09A22.63,22.63,0,0,0,187.33,97.81Z"/><path class="cls-26" d="M201.59,112.57a1.44,1.44,0,0,1-.38,1,1.45,1.45,0,0,1-1.06.43q-.69,0-1.44,0c-.42,0-.81,0-1.17,0l-.41-1.2c.57,0,1.51.08,2.81.08a.45.45,0,0,0,.34-.17.6.6,0,0,0,.15-.39v-3.26h-5.1a11.92,11.92,0,0,1-2.17,5.13l-.9-.81c1.43-1.87,2.14-4.58,2.14-8.11v-5h7.19Zm10.21-14.2H192.29V97.25H211.8ZM200.43,108v-2.76h-4.86c0,.58,0,1.5-.13,2.76Zm0-3.93v-2.58h-4.86v2.58Zm0-7.62-1.13.47a13.64,13.64,0,0,0-2.25-2.07l1.24-.49A13.32,13.32,0,0,1,200.43,96.44Zm6.87-1.55a10.06,10.06,0,0,1-2.2,2l-1.19-.61a12.91,12.91,0,0,0,2.36-1.93Zm-1.68,15.41h-1.13v-9.63h1.13Zm4.45,2.12a1.72,1.72,0,0,1-.31,1,1.29,1.29,0,0,1-.74.51,10.61,10.61,0,0,1-1.73.09c-.49,0-1,0-1.58,0l-.43-1.23,3.08.11c.38,0,.56-.19.56-.65V100.13h1.15Z"/><path class="cls-26" d="M234.32,102.15h-7.46a30.75,30.75,0,0,1-3.85,2.63h8.72V114h-1.16v-1.16H220.49V114h-1.16v-7.46a39.42,39.42,0,0,1-3.89,1.42l-.66-1.06A33.72,33.72,0,0,0,225,102.15h-10.1V101h8.38V97.81H217V96.68h6.28V94.3h1.2v2.38H229v1.13h-4.54V101h2A45.47,45.47,0,0,0,232,95.31l.88.7a45.31,45.31,0,0,1-4.69,5h6.11Zm-3.75,6.13V105.9h-9.74l-.34.13v2.25Zm0,3.44v-2.31H220.49v2.31Z"/><path class="cls-26" d="M245,109.12q-1.5,1.91-2.92,3.41l-.64-1.23a1.16,1.16,0,0,0,.45-.9v-6.64h-1.61q0,6.8-2.14,10.14l-.84-.83c1.22-2.2,1.82-5.3,1.82-9.31h-1.86v-1.07h3.32V94.47h1.18v8.22h3.15v1.07H243v5.92c.38-.43.92-1.09,1.64-2Zm-5.26-8.5-1.09.56a36.3,36.3,0,0,0-1.2-5l1-.45A36.31,36.31,0,0,1,239.74,100.62Zm5-4.37a28.76,28.76,0,0,1-1,4.84l-1.06-.47a23.19,23.19,0,0,0,1-4.78Zm12.12,15.07h-5.3v2.83h-1.14v-2.83H245v-1.06h5.43v-1.82H246v-7.17h4.4V99.61h-2.85v-1h2.85V97.09h1.14v1.48h2.91v1h-2.91v1.66H256v7.17h-4.44v1.82h5.3Zm-.3-12.18h-1.16v-3h-8.71v3h-1.12V95.05h11Zm-6.14,5.09v-1.91H247.1v1.91Zm0,3.15V105.3H247.1v2.08Zm4.46-3.15v-1.91h-3.32v1.91Zm0,3.15V105.3h-3.32v2.08Z"/><path class="cls-26" d="M262.41,104l-1.14.65a20.85,20.85,0,0,0-1.6-5.5l1-.68A37,37,0,0,1,262.41,104ZM267,98.46a23.78,23.78,0,0,1-2.85,4.52c0,1.52-.08,2.66-.16,3.42a16.91,16.91,0,0,1,2.56,3.7l-.83.82a16.4,16.4,0,0,0-1.89-3.09A13.14,13.14,0,0,1,260.8,114l-1-.67A13.46,13.46,0,0,0,262,110a10.73,10.73,0,0,0,.9-3.38c.11-1.15.16-3,.16-5.46V94.37h1.11v6.92a18.74,18.74,0,0,0,1.91-3.66Zm12.27,15.08H266.38v-1.1h6v-2.65h-4.87v-1.1h4.87v-2.36H267v-1.1h11.86v1.1h-5.3v2.36h4.76v1.1h-4.76v2.65h5.77Zm-1.12-10.06H267.73v-7h3.38a10.41,10.41,0,0,0,.85-2.27l1.13.31a13.37,13.37,0,0,1-.86,2h6ZM277,99.36V97.6h-8.15v1.76Zm0,3v-1.89h-8.15v1.89Z"/><path class="cls-26" d="M284.69,108.71a22,22,0,0,1-1.47,5.13l-1-.52a27.75,27.75,0,0,0,1.44-4.86Zm5.28-1.63-1,.39c-.08-.42-.16-.77-.23-1-2.22.61-4.23,1.09-6,1.41l-.4-1a24.45,24.45,0,0,0,4.47-5.39c-1.24.24-2.58.45-4,.65l-.27-1a21.94,21.94,0,0,0,3.91-6.73l1.11.3a26,26,0,0,1-3.36,6.17q1.39-.17,3.3-.51a20.53,20.53,0,0,0,1.45-2.6l1.1.43a38.94,38.94,0,0,1-5.66,8.22c1.31-.26,2.65-.58,4-1a8.37,8.37,0,0,0-.64-1.57l1-.41A16.07,16.07,0,0,1,290,107.08Zm-2.53,6.13-1.09.22a24.62,24.62,0,0,0-.43-4.72l1-.2A18.94,18.94,0,0,1,287.44,113.21Zm3-1.82-1,.38a18.32,18.32,0,0,0-1-3.19l.94-.38A14.46,14.46,0,0,1,290.48,111.39Zm3.24-6-1,.47a26.32,26.32,0,0,0-2.81-4.38,31.18,31.18,0,0,0,2.5-4.14l1.05.41a23.71,23.71,0,0,1-2.22,3.73A23.61,23.61,0,0,1,293.72,105.39Zm8,8.17h-11.6v-1.12h5.19v-4.59h-4.58v-1.14h10.43v1.14h-4.66v4.59h5.22Zm-.28-17.44h-11.3V95h11.3Zm-3.77,9.13-1,.56a28.88,28.88,0,0,0-2.72-4.24,27.76,27.76,0,0,0,2.37-4l1.14.36a30,30,0,0,1-2.23,3.64A35.16,35.16,0,0,1,297.72,105.25Zm4,0-1,.54a26.89,26.89,0,0,0-2.76-4.21,29.18,29.18,0,0,0,2.42-4.16l1.1.41a33.75,33.75,0,0,1-2.15,3.66A34.69,34.69,0,0,1,301.7,105.3Z"/><path class="cls-26" d="M306.29,107.12a32.76,32.76,0,0,1-.62,5.45l-1.05-.24a28.23,28.23,0,0,0,.7-5.31Zm6.49-11h-2.54v2.16h2.12v1.05h-2.12v2.11h2.12v1.11h-2.12v2.23h2.12c0,1.25,0,2.26,0,3,0,1.59,0,2.86-.15,3.82a4.1,4.1,0,0,1-.48,1.86,1.54,1.54,0,0,1-.84.55,9.59,9.59,0,0,1-1.86.12l-.34-1.15,1.35,0a1,1,0,0,0,1-.61,17.16,17.16,0,0,0,.29-4.38c0-.81,0-1.54-.06-2.17h-5.52V95h7Zm-4.95,16.21-.92.13c0-.7,0-1.39,0-2,0-1.17,0-2.22-.14-3.14l.86-.13c.12,2.1.19,3.43.19,4S307.86,111.91,307.83,112.29Zm1.27-14.07V96.08h-2.19v2.14Zm0,3.18V99.32h-2.19v2.08Zm0,3.34v-2.23h-2.19v2.23Zm.47,6.65-.9.13a25.44,25.44,0,0,0-.47-4.38L309,107A32.49,32.49,0,0,1,309.57,111.39Zm1.39-1.2-.77.19a27.56,27.56,0,0,0-.67-3.51l.72-.18A30,30,0,0,1,311,110.19Zm13.37-10.38-.58,1A15.65,15.65,0,0,1,318.3,96a20.19,20.19,0,0,1-5.1,4.68l-.69-.94A16.74,16.74,0,0,0,318,94.3l1.14.36a3,3,0,0,1-.2.41A15.53,15.53,0,0,0,324.33,99.81ZM318.08,112l-.81.83a12.88,12.88,0,0,0-1.66-1.91,16.79,16.79,0,0,1-2.11,3.19l-.93-.63a15.48,15.48,0,0,0,3-5.51l1.06.36c-.22.65-.4,1.16-.56,1.53A18.19,18.19,0,0,1,318.08,112Zm-.29-4.57H313.5v-5.34h4.29Zm-1.08-1.05v-3.24h-2.16v3.24Zm4.55-5.87h-6V99.4h6Zm3.05,12.8-.84.77a16.29,16.29,0,0,0-2.73-2.85,17,17,0,0,1-2.05,3l-.92-.7a15.31,15.31,0,0,0,3.12-5.65l1.1.39a19.52,19.52,0,0,1-.78,1.93A20,20,0,0,1,324.31,113.28Zm-1-5.88H319v-5.34h4.34Zm-1.06-1.05v-3.24H320v3.24Z"/></svg>