<?xml version="1.0" encoding="utf-8"?>
<!-- Generator: Adobe Illustrator 24.1.1, SVG Export Plug-In . SVG Version: 6.00 Build 0)  -->
<svg version="1.1" id="圖層_1" xmlns="http://www.w3.org/2000/svg" xmlns:xlink="http://www.w3.org/1999/xlink" x="0px" y="0px"
	 viewBox="0 0 520 130" style="enable-background:new 0 0 520 130;" xml:space="preserve">
<style type="text/css">
	.st0{fill:#CF121B;}
</style>
<g>
	<g>
		<path class="st0" d="M57.6,30.5c-1.8,4-3,8.3-3.7,12.9c-0.7,4.5-1.1,9-1.2,13.3c-0.2,3.4-0.2,6.8,0,10.1
			c13.2-10.4,25.2-22.3,35.9-35.4c0.4-0.4,1-0.9,1.7-1.2c0.6-0.3,1.2-0.3,1.9,0.3c0.4,0.3,0.7,0.9,0.8,1.4c0,0.6-0.1,1.1-0.4,1.4
			c-6.3,6.5-12.7,12.9-19.2,19.1c-6.5,6.2-13.3,12-20.5,17.6c0.2,2.2,0.6,4.4,1,6.8c0.3,2.3,0.9,4.4,1.6,6.6
			c0.4,1.6,1.1,3.2,2.1,5.1c1,1.9,2.2,3.1,4.1,3.7c1.7,0.4,3.8,0.3,6.4-0.3c2.7-0.7,5.3-1.7,8.1-2.7c2.8-1.1,5.4-2.3,7.9-3.4
			c2.4-1.2,4.3-2.2,5.5-2.9l4.9-2.8c0.3-0.2,0.8-0.3,1.1-0.4c0.3-0.2,0.7-0.1,1.1,0.2c0.9,0.6,1,1.1,0.4,1.7c-0.6,0.6-1.1,1-1.7,1.2
			c-4.2,2-8.2,4.1-12.2,6.1c-4,2.1-8.1,4-12.3,5.8c-1.7,0.7-3.2,1.1-4.9,1.6c-1.6,0.3-3,0.3-4.3,0.1c-1.3-0.2-2.7-0.8-3.8-1.8
			c-1.1-1-2.1-2.3-2.9-4.2c-1.3-2.8-2.3-5.8-2.9-9c-0.6-3.1-1.1-6.3-1.3-9.4c-3.4,2.7-6.8,5.1-10.2,7.5c-3.4,2.4-6.9,4.7-10.5,6.9
			c-1.8,1.1-3.5,2.1-5.5,3.2c-1.9,1.1-3.8,2-5.8,3.1c-0.4,0.2-1.2,0.7-2.2,1.2c-1.1,0.6-2.1,1.1-3.2,1.4s-2,0.6-2.9,0.4
			c-0.9,0-1.3-0.6-1.3-1.7c-0.1-0.7,0.2-1.2,0.8-1.8c0.6-0.6,1.2-0.9,2.1-1.2c0.8-0.3,1.7-0.7,2.4-0.9c0.8-0.2,1.4-0.3,1.9-0.6
			c2.1-1,4.2-1.9,6.1-2.9c2-1.1,4-2.1,6-3.2c4-2.1,7.8-4.4,11.3-7c3.5-2.5,7.3-5.1,10.9-7.9c-0.4-4.8-0.6-9.6-0.3-14.4
			c0.2-4.8,0.7-9.6,1.3-14.3c0.3-1.9,0.7-3.7,1.1-5.5c0.4-1.9,0.9-3.7,1.6-5.5c0.3-0.6,0.8-0.9,1.2-1.1c0.6-0.2,1.1-0.1,1.6,0.1
			c0.4,0.2,0.8,0.4,1.1,1C57.8,29.3,57.8,29.8,57.6,30.5z"/>
		<path class="st0" d="M106.2,74.3c0.3-0.2,1.1-0.4,2.1-1c1.1-0.4,2.2-0.8,3.3-1.1c1.1-0.2,2-0.3,2.8-0.1c0.8,0.2,1.1,0.9,0.8,2.1
			c-0.2,0.7-0.4,1.3-1,2.1c-0.4,0.7-0.9,1.3-1.1,2.1c-0.4,1-0.9,2.2-1.3,3.7c-0.3,1.4-0.3,2.7,0.3,3.5c1.3,0.2,2.7,0,4.3-0.4
			c1.6-0.4,3-1,4.3-1.3c0.3-0.2,1.1-0.6,2.2-1.1c1.1-0.6,2.2-1.2,3.4-1.9c1.1-0.6,2.3-1,3.3-1.2c1-0.3,1.7-0.2,1.9,0.3
			c0.3,0.6,0.1,1.1-0.6,1.8c-0.7,0.6-1.6,1.1-2.7,1.7c-1.1,0.6-2.1,1-3.2,1.3c-1.1,0.3-1.8,0.7-2.1,0.9c-1.8,0.9-3.4,1.7-5.1,2.5
			c-1.8,0.8-3.4,1.3-5.4,1.7c-1.7,0.2-2.7-0.1-3.4-1.1c-0.6-1-1-2.1-1-3.4c0-1.4,0.2-3,0.7-4.7c0.3-1.7,0.9-3.2,1.3-4.5
			c-1.8,0.7-3.4,1.3-5.2,1.9c-1.8,0.6-3.4,1.2-5,2c-1.3,0.6-2.8,1.3-4.2,2.1c-0.9,0.2-1.6,0-2-0.7c-0.4-0.7-0.3-1.2,0.7-1.7
			L106.2,74.3z M119.9,50.9c0.3-1,1-1.9,1.9-2.7c0.8-0.8,1.8-1.3,2.7-1.9c1-0.4,2-0.9,3.2-1.1c1.1-0.3,2.2-0.4,3.2-0.7
			c2.8-0.2,5.5,0,8.2,0.3c0.4,0,1,0.1,1.6,0.2c0.6,0.2,0.9,0.6,0.8,1.2c-0.1,0.3-0.3,0.7-0.6,1c-0.2,0.3-0.7,0.3-1.1,0.3
			c-2.2-0.4-4.5-0.7-7-0.4c-2.4,0.2-4.7,0.9-6.5,2.1c-0.8,0.4-1.3,1.1-1.7,1.9c-0.3,0.8-0.8,1.3-1.3,1.9c-0.8,0.6-1.6,0.6-2.4,0
			C119.7,52.6,119.5,51.8,119.9,50.9z"/>
		<path class="st0" d="M129.6,79.9c0.9-0.4,2.3-1.2,4.3-2.4c2.1-1.1,4.2-2.2,6.4-3.2c2.2-1,4.2-1.8,6.1-2.1s3-0.1,3.4,1
			c0.3,0.8,0.2,1.6-0.3,2.2c-0.4,0.8-0.9,1.4-1.1,2l-1.3,3.2c1-0.6,2-1.1,3-1.7s2-1,3-1.3c2.5-1.3,5-2.7,7.6-4.2
			c2.7-1.4,5.3-2.7,8-3.4c1-0.2,1.9-0.3,2.7-0.1c0.8,0.2,1.3,0.6,1.9,1.1c0.3,0.4,0.7,1.1,0.7,1.9c0,0.8-0.3,1.7-1,2.7
			c-0.7,1.1-1.4,2-2.2,2.9c-0.8,0.9-1.7,1.8-2.5,2.8c-0.2,0.2-0.3,0.6-0.8,1s-0.8,0.9-1.2,1.3c-0.3,0.4-0.8,1-1.1,1.6
			c-0.3,0.4-0.6,1-0.7,1.3c0.6,0.2,1.2,0.2,2,0c0.8-0.2,1.7-0.3,2.4-0.7s1.6-0.6,2.3-0.9c0.8-0.3,1.2-0.6,1.7-0.7l4.8-2.1
			c0.3-0.2,0.7-0.3,1.2-0.7c0.4-0.3,1.1-0.6,1.6-0.9c0.6-0.3,1.1-0.4,1.6-0.8c0.4-0.2,0.9-0.3,1.2-0.3c0.7,0,1.1,0.3,1.1,1.1
			c0,0.7-0.3,1.2-1,1.7c-0.7,0.3-1.4,0.8-2.2,1.1c-0.8,0.3-1.6,0.7-2.4,1.1c-1.1,0.6-2.1,1.1-3.1,1.7c-1,0.6-2,1-3.1,1.6
			c-0.6,0.3-1.7,0.8-2.9,1.3c-1.3,0.6-2.7,1-4.1,1.2c-1.3,0.3-2.5,0.2-3.4-0.1c-1-0.3-1.6-1.2-1.6-2.8c0-0.8,0.2-1.4,0.6-2.1
			c0.3-0.6,0.9-1.2,1.3-1.9c0.4-0.7,1.1-1.1,1.7-1.7c0.6-0.6,1.1-1.1,1.6-1.6c0.4-0.3,1.2-1.1,2.3-2.4c1.1-1.2,1.8-2.4,2.1-3.4
			c-2.1,0.2-4.2,0.8-6.3,1.7c-2.1,0.9-4.1,1.8-5.8,2.7c-2.2,1.1-4.5,2.3-7,3.7c-2.4,1.3-4.4,2.9-6.3,4.9c-0.3,0.3-0.8,0.4-1.2,0.4
			c-0.3,0-0.9,0-1.2-0.2s-0.7-0.4-0.9-0.9c-0.2-0.4-0.2-0.9-0.1-1.6c0.2-0.7,0.8-1.3,1.8-1.9c0.3-0.6,0.8-1.3,1.1-2.1
			c0.3-0.8,0.7-1.2,0.8-1.4c0.2-0.6,0.3-1.1,0.4-1.7c0.2-0.6,0.3-1.1,0.3-1.9c-0.9,0.2-1.8,0.4-2.5,0.8c-0.9,0.3-1.6,0.6-1.9,0.7
			c-1.1,0.4-2.1,0.9-3.2,1.3c-1.1,0.3-2.1,0.9-3.2,1.4c-0.6,0.3-1.1,0.6-1.7,1c-0.4,0.3-1.1,0.6-1.7,0.8c-0.4,0.2-0.9,0.3-1.3,0.2
			c-0.3-0.1-0.8-0.3-1-0.4c-0.2-0.2-0.3-0.4-0.3-0.9C128.8,80.5,129.2,80.3,129.6,79.9z"/>
		<path class="st0" d="M189.5,78.5c2.7,0.2,5.4,0.3,8.2,0.1c2.8-0.2,5.5-0.3,8.2-0.8c1.1-0.2,2.5-0.4,4-0.9c1.6-0.3,2.9-0.6,4.1-0.3
			c1,0.2,1.7,0.7,1.9,1.7c0.2,1-0.2,1.7-1.1,2.1c-0.4,0.3-1,0.4-1.7,0.6c-0.6,0.1-1.2,0.1-1.9,0.1c-0.7,0-1.3,0-2,0s-1.2,0-1.9,0
			c-3,0.2-5.9,0.3-8.9,0.3c-1.3,0-2.7,0-4.1-0.1c-1.3,0-2.8-0.1-4.2-0.1c-0.3,0-0.8,0-1.2-0.1c-0.3-0.1-0.8-0.3-1-0.8
			c-0.3-0.4-0.3-1,0-1.3C188.4,78.5,188.9,78.3,189.5,78.5z"/>
		<path class="st0" d="M254,74.7c1.6-1.1,3-2.5,4.2-4.2c1.3-1.7,2.5-3.4,3.7-5.2s2.1-3.7,3-5.7c0.9-1.9,1.7-3.7,2.4-5.5
			c0.9-1.9,1.6-4,1.9-6c0.4-2.1,0.6-4.2,0.4-6.3c-0.2-2.2-1-3.5-2.4-4.2c-1.4-0.6-3.1-0.6-5.1-0.2c-2.1,0.3-4.1,1.1-6,2.1
			c-1.9,1.1-3.7,2.3-5.4,3.8c-1.8,1.4-3.3,3-4.9,4.7c-1.6,1.7-2.9,3.3-4.1,4.9c-2.8,3.4-5.3,7.1-7.5,10.9c-2.3,3.8-4.2,7.6-5.8,12
			c-0.6,1.3-1.2,3.1-1.9,5.2c-0.6,2.1-0.9,4.2-1,6.3c-0.1,2.1,0.3,4,1,5.8c0.8,1.8,2.1,2.8,4.2,3.4c2.1,0.6,4.2,0.9,6.4,0.7
			c2.2-0.2,4.4-0.4,6.6-1.1c2.2-0.6,4.4-1.2,6.5-2.1c2.1-0.9,4.2-1.7,6-2.4c2-0.9,4-1.8,6-2.7c1.9-1,4-1.9,6-2.9l6-2.9
			c0.3-0.2,0.9-0.4,1.4-0.9c0.6-0.3,1.1-0.7,1.9-1.1c0.7-0.3,1.2-0.7,1.9-1c0.6-0.2,1.1-0.3,1.7-0.3c0.7,0.1,1.1,0.4,1.1,1.2
			c0.1,0.8-0.2,1.2-0.8,1.4c-0.6,0.6-1.4,1.1-2.4,1.3c-1,0.3-1.9,0.6-2.7,1c-2.1,1.1-4.2,2.2-6.4,3.3c-2.1,1.1-4.2,2.2-6.5,3.3
			c-3.5,1.8-7.2,3.5-10.9,5.3c-3.7,1.8-7.5,3.1-11.5,4c-1.8,0.3-3.7,0.6-5.8,0.6c-2.1,0-3.9-0.3-5.7-0.8c-1.8-0.6-3.3-1.4-4.7-2.7
			c-1.3-1.2-2.2-2.9-2.7-5.1c-0.3-1.9-0.4-3.8-0.3-5.8c0.2-2,0.6-4,1.1-6c0.6-1.9,1.2-3.9,2.1-5.8c0.8-1.9,1.7-3.5,2.5-5.2
			c3.9-7.9,8.6-15.1,14.3-21.7c1.2-1.3,2.5-2.8,3.8-4.2c1.3-1.4,2.7-2.8,4.2-4.1c1.6-1.2,3.1-2.4,4.8-3.4s3.4-1.8,5.2-2.2
			c1.7-0.6,3.4-0.8,5.4-0.8c1.9,0,3.7,0.7,5,1.9c1.3,1.2,2.2,2.7,2.4,4.4s0.2,3.4-0.1,5.1c-0.7,4.1-1.9,8.1-3.8,12
			c-1.9,3.9-3.8,7.5-5.8,11.2c-1.1,1.8-2.1,3.4-3.2,5.2c-1.1,1.8-2.3,3.4-3.7,5c-0.6,0.3-1.2,0.4-1.9,0.3c-0.6-0.1-1.1-0.3-1.3-0.8
			c-0.3-0.3-0.4-0.9-0.4-1.3C253.1,75.7,253.4,75.2,254,74.7z"/>
		<path class="st0" d="M291.4,74.3c0.3-0.2,1.1-0.4,2.1-1c1.1-0.4,2.2-0.8,3.3-1.1c1.1-0.2,2-0.3,2.8-0.1c0.8,0.2,1.1,0.9,0.8,2.1
			c-0.2,0.7-0.4,1.3-1,2.1c-0.4,0.7-0.9,1.3-1.1,2.1c-0.4,1-0.9,2.2-1.3,3.7c-0.3,1.4-0.3,2.7,0.3,3.5c1.3,0.2,2.7,0,4.3-0.4
			c1.6-0.4,3-1,4.3-1.3c0.3-0.2,1.1-0.6,2.2-1.1c1.1-0.6,2.2-1.2,3.4-1.9c1.1-0.6,2.3-1,3.3-1.2c1-0.3,1.7-0.2,1.9,0.3
			c0.3,0.6,0.1,1.1-0.6,1.8c-0.7,0.6-1.6,1.1-2.7,1.7c-1.1,0.6-2.1,1-3.2,1.3c-1.1,0.3-1.8,0.7-2.1,0.9c-1.8,0.9-3.4,1.7-5.1,2.5
			c-1.8,0.8-3.4,1.3-5.4,1.7c-1.7,0.2-2.7-0.1-3.4-1.1c-0.6-1-1-2.1-1-3.4c0-1.4,0.2-3,0.7-4.7c0.3-1.7,0.9-3.2,1.3-4.5
			c-1.8,0.7-3.4,1.3-5.2,1.9c-1.8,0.6-3.4,1.2-5,2c-1.3,0.6-2.8,1.3-4.2,2.1c-0.9,0.2-1.6,0-2-0.7c-0.4-0.7-0.3-1.2,0.7-1.7
			L291.4,74.3z M305,50.9c0.3-1,1-1.9,1.9-2.7c0.8-0.8,1.8-1.3,2.7-1.9c1-0.4,2-0.9,3.2-1.1c1.1-0.3,2.2-0.4,3.2-0.7
			c2.8-0.2,5.5,0,8.2,0.3c0.4,0,1,0.1,1.6,0.2c0.6,0.2,0.9,0.6,0.8,1.2c-0.1,0.3-0.3,0.7-0.6,1c-0.3,0.3-0.7,0.3-1.1,0.3
			c-2.2-0.4-4.5-0.7-7-0.4c-2.4,0.1-4.7,0.9-6.5,2.1c-0.8,0.4-1.3,1.1-1.7,1.9s-0.8,1.3-1.3,1.9c-0.8,0.6-1.6,0.6-2.4,0
			C305,52.6,304.7,51.8,305,50.9z"/>
		<path class="st0" d="M325.5,65.6c1.3,0.1,2.8,0.1,4.2,0.1c1.3,0,2.8-0.1,4.2-0.3c2.1-3.3,4.4-6.8,7-10.4c2.5-3.5,5.3-6.5,8.5-9.1
			c0.6-0.3,1.2-0.8,1.9-1.1c0.7-0.3,1.3-0.6,2-0.7c0.8,0,1.3,0.3,1.8,1c0.3,0.6,0.4,1.2,0.2,1.9c-0.3,1.6-1.2,3-2.5,4.4
			c-1.3,1.4-2.4,2.7-3.4,3.9c-1.1,1.6-2.4,3-3.7,4.5c-1.2,1.4-2.7,2.9-3.9,4.2l6.9-1.7L360,59c0.6-0.2,1.1-0.3,1.7-0.4
			s1.1,0.1,1.6,0.8c0.4,0.6,0.6,1.2,0.3,1.9s-0.7,1.1-1.2,1.3c-3.5,1.2-7.3,2.2-11.2,2.9c-3.9,0.7-7.6,1.2-11.3,1.8l-1.7,0.3
			c-1,0.9-1.9,1.8-2.9,2.5c-1,0.9-2,1.8-3.1,2.5c-0.6,0.8-1,1.6-1.3,2.4c-0.3,0.8-0.8,1.7-1.1,2.5c-0.2,0.2-0.3,0.8-0.7,1.8
			c-0.3,1-0.6,1.9-0.9,2.8c-0.3,0.9-0.4,1.9-0.7,2.7s-0.1,1.2,0.1,1.2c1.7,0.3,3.4,0.3,5.2-0.3c1.9-0.6,3.4-1.1,5-1.4
			c1.8-0.6,3.5-1.2,5.3-1.9c1.8-0.6,3.5-1.3,5.3-2.1c0.4-0.2,1.1-0.3,1.9-0.3c0.8-0.1,1.1,0.3,1,1.3c-0.1,0.7-0.6,1.1-1.4,1.4
			c-0.9,0.3-1.7,0.4-2.1,0.8l-8.2,3c-1,0.3-2.2,1-3.9,1.7c-1.7,0.7-3.3,1.2-5,1.7c-1.7,0.3-3.2,0.4-4.5,0.2
			c-1.3-0.3-2.2-1.3-2.5-3.1c-0.2-1.8,0.2-3.4,1-5.2c0.8-1.8,1.8-3.5,2.8-5.7c-3.5,2.4-7.3,4.5-11.2,6.4c-0.4,0.2-0.9,0.3-1.1,0.1
			c-0.3-0.2-0.6-0.3-0.7-0.7c-0.2-0.3-0.2-0.7-0.1-1c0.1-0.3,0.3-0.7,0.8-0.9c2.7-1.2,5.3-2.7,7.9-4.1c2.5-1.4,5-3.1,7.3-4.9
			l1.7-2.8c-1.1,0.1-2.4,0.2-3.8,0.4c-1.3,0.2-2.5,0.1-3.4-0.3c-0.6-0.3-0.9-1-0.7-1.7C324.2,66,324.7,65.6,325.5,65.6z M346.4,54.6
			c0.3-0.6,0.8-1.1,1.1-1.8c0.3-0.6,0.7-1.2,1.1-1.9c-0.8,0.8-1.4,1.6-2.1,2.3c-0.7,0.8-1.2,1.3-1.7,1.9c-1.3,1.6-2.7,3.1-4.1,4.7
			c-1.3,1.6-2.5,3.3-3.5,5C340.5,61.8,343.6,58.3,346.4,54.6z"/>
		<path class="st0" d="M349.4,79.9c4.5-2.2,9-4.5,13.3-6.9c1.2-0.6,2.7-1.4,4.2-2.5s3-1.8,4.3-2.1c0.9-0.2,1.6,0.2,2.1,1
			c0.6,0.8,0.4,1.6-0.1,2.3c-0.3,0.7-1,1.3-1.7,1.9c-0.8,0.6-1.3,1.1-1.9,1.9c-1.6,1.9-2.8,3.8-3.8,5.9c-0.2,0.3-0.4,0.9-0.7,1.3
			c-0.2,0.6-0.3,1.1-0.6,1.7c-0.2,0.6-0.2,1.1-0.2,1.6c0,0.4,0.2,0.8,0.4,1.1c0.2,0.2,0.8,0.2,1.6-0.2c0.8-0.3,1.7-0.8,2.5-1.2
			c1-0.4,1.8-1,2.5-1.6c0.8-0.4,1.2-0.9,1.3-1c1.7-1.1,3.1-2.2,4.5-3.4c1.4-1.1,2.8-2.4,4.1-3.7c0.3-0.3,0.8-0.6,1.2-0.8
			c0.6-0.2,1.1-0.3,1.6-0.2c0.4,0.1,0.9,0.3,1.1,0.7c0.3,0.3,0.3,0.9,0.3,1.6c-0.2,0.9-0.7,1.8-1.2,2.7c-0.6,0.9-1.1,1.7-1.6,2.4
			c-0.6,0.9-1.1,1.8-1.7,2.5c-0.4,0.9-1,1.8-1.6,2.5l-9,16.5c2.7-3.4,5.5-6.6,8.8-9.6c0.3-0.3,1-1,2.1-1.9c1.1-1,2.3-2.1,3.7-3.4
			c1.3-1.2,2.9-2.5,4.4-3.8c1.6-1.2,3.1-2.4,4.5-3.3c1.4-1,2.7-1.6,3.7-1.9c1-0.3,1.7-0.3,1.9,0.2c0.2,0.4,0,1.1-0.7,1.7
			c-0.7,0.7-1.4,1.3-2.4,1.9c-1,0.7-1.9,1.2-2.9,1.9c-1,0.7-1.7,1-1.9,1.1c-1.8,1.3-3.4,2.7-5.1,4.1c-1.7,1.4-3.3,2.9-4.9,4.5
			c-3,3-5.8,6.3-8.5,9.8c-2.7,3.4-5.1,7.2-7.4,10.9c-0.9,1.6-1.8,3.1-2.5,4.7c-0.9,1.6-1.7,3.1-2.4,4.7c-0.3,0.4-0.6,1-0.8,1.6
			c-0.2,0.6-0.6,1-1,1.3c-0.6,0.3-1.2,0.4-1.9,0.2s-1.1-0.7-1.2-1.3c-0.2-0.6-0.2-1.1,0.2-1.7c0.3-0.4,0.7-1,1-1.4
			c1.1-1.9,2.1-3.8,3.2-5.8c1.1-1.9,2.1-3.8,3.2-5.8c2.1-4,4.2-7.9,6.3-11.7c2-3.9,4.1-7.9,6.1-12c0.4-1.1,1-2.1,1.6-3.2
			s1.1-2.1,1.6-3.2l-4.9,3.7c-0.7,0.6-1.4,1.2-2.3,2c-0.9,0.8-1.8,1.3-2.7,1.9c-1,0.6-1.9,1-2.8,1.2c-1,0.2-1.9,0.1-2.8-0.3
			c-1.3-0.4-2-1.2-2.2-2.4c-0.2-1.1-0.1-2.5,0.3-4c0.3-1.6,1.1-3.1,1.9-4.7c0.9-1.7,1.9-3.2,2.7-4.7l-5.8,2.4
			c-1.3,0.6-2.7,1.2-4,1.9c-1.3,0.7-2.7,1.3-4,2c-0.4,0.3-1,0.6-1.6,1c-0.6,0.3-1.1,0.3-1.8,0c-0.4-0.3-0.7-0.8-0.7-1.2
			C348.5,80.4,348.7,80.2,349.4,79.9z"/>
	</g>
	<g>
		<g>
			<path class="st0" d="M396.3,33.2l-13.7,8v3.8v11.2v0.8l2.9,1.7v-3.3l0,0V45l11-6.3l11,6.3v10.2l0,0v3.3l2.9-1.7v-0.8V44.9V41
				L396.3,33.2z M407.1,43.4L396.3,37l-11,6.3v-1l11-6.3l11,6.3L407.1,43.4L407.1,43.4z"/>
			<polygon class="st0" points="386.5,59.2 392.3,62.5 392.3,44.8 386.5,48.1 			"/>
			<polygon class="st0" points="400.3,62.5 405.9,59.2 405.9,48.1 400.3,44.8 			"/>
			<polygon class="st0" points="396.2,42.5 393.4,40.8 393.4,63.2 393.4,63.2 396.2,64.9 398.9,63.2 399,63.2 399,44.1 398.9,44.1 
							"/>
		</g>
		<g>
			<path class="st0" d="M429.3,37.4h1.9v16.1h1.8v-4.5h-1.3v-1h1.2v-4.4h-1.2v-0.9h1.2v-3.3h-1.2v-1h1.2v-0.7h2v15.8h1.8v1h-20.3v-1
				h1.8V37.8h2.1v1.7c0.2-0.1,0.3-0.3,0.6-0.6c0.2-0.3,0.3-0.4,0.6-0.6c0.1,0,0.2,0.1,0.4,0.2c0.2,0.1,0.3,0.1,0.3,0.2v-1.2h1.9v0.7
				h5L429.3,37.4C429.2,37.4,429.3,37.4,429.3,37.4z M422,55.6h3.1c-0.6,1.9-2.7,3.9-6.1,5.9h-1.4C420.4,59.8,421.9,57.9,422,55.6z
				 M422.4,39.5c-0.6,0.3-1.2,0.4-2,0.7v2.5h1.6v0.9h-1.6V48h1.6v1h-1.6v4.5h2V39.5z M429.3,39.3h-5v14.3h5V39.3z M424.8,41.6h4.1v1
				h-4.1V41.6z M425,44.1h1.2v1h1.1v-1h1.1v8.3h-1.1v-1.1h-1.1v1.1H425V44.1z M427.4,46h-1.1v4.3h1.1V46z M429.7,55
				c2.8,1.9,4.7,3.1,5.5,3.7c-0.2,0.9-0.3,1.9-0.9,2.7c-1.9-1.6-3.4-3.7-5.1-6.4L429.7,55L429.7,55z"/>
			<path class="st0" d="M444,44.1h2.2v-4h2.1v1h5v-4h2.1V41h2.3c-0.6-1.1-1.1-2.4-1.6-3.9c1,0.3,1.9,1.1,2.8,2.1
				c0,0.1,0,0.1-0.1,0.2c-0.2,0.7-0.6,1.1-1,1.6h1.9v1h-4.4v5.5c0,1.3,0.2,3.1,0.4,5.3c0.9-1.9,1.2-4.5,1.1-8.2h2.1
				c0.1,4.2-0.8,7.5-2.7,10.2c0.4,0.9,1.1,1.8,1.9,2.4l1-4.7h0.3l-0.3,5.1l0.7,0.4v3c-2.2-1.1-3.9-2.7-5.1-4.8
				c-0.3,0.6-1.6,1.7-3.4,3.1c-0.8,0.7-1.3,1.1-1.7,1.3H449c2.1-1.9,3.9-3.7,5.3-5.7c-0.8-1.9-1.1-5-1.1-9.3v-4.1h-5v3.8h1.7v-1h2.1
				V55c0,1.1-0.8,1.9-2.4,2.3c-0.1-0.3-0.3-0.3-0.8-0.3l-0.7,0.2l0.1-0.1c1.2-0.4,1.9-1,2-1.4v-8.9h-1.7v7.8c0.1,1.9-1.2,4.1-4,6.9
				h-0.7c1.9-2,2.7-4.5,2.7-7.4c-1.8,2.1-3.7,3.7-6,4.5c0.1-0.9-0.1-1.8-0.4-2.5c0.7-0.1,1.3-0.2,2-0.3V45.1h-2.2v-1h2.2v-7h2.1v7
				H444z M444,54.8c1.1-0.4,1.9-1,2.2-1.4v-8.2H444V54.8z"/>
			<path class="st0" d="M463.3,37.3h2.3v0.9H479v-0.8h2.4v23.5H479v-1h-13.3v0.9h-2.3V37.3z M465.7,39.1v19.7H479V39.1H465.7z
				 M475.3,39.6V42h2c-0.6-0.7-1.1-1.4-1.4-2.2l0.1-0.1c1,0.2,1.8,0.4,2.3,1c-0.2,0.3-0.3,0.9-0.8,1.3h1.1v1h-3.3
				c-0.1,1.2-0.1,2.7-0.1,4.5c0.1,1.8,0.2,3,0.2,3.9c0.7-1.3,1-3.7,0.8-7.1h2.1c0,0.1,0,0.3,0,0.7c-0.1,3.4-0.9,6.3-2.4,8.2
				c0.3,0.7,0.9,1.3,1.4,2l1-3.3h0.2l-0.3,3.8l0.4,0.3v2.2c-1.9-0.8-3.2-2-4.1-3.8c-1.1,1.1-2.8,2.2-5,3.5h-1.1
				c2.7-1.6,4.5-3.1,5.8-4.5c-0.6-1.8-1-5.2-1-10.6h-6.6v-1h6.6v-2.4L475.3,39.6L475.3,39.6L475.3,39.6z M472.9,53.1
				c-0.8,1.6-2.9,2.8-6.2,3.7c0.3-0.8,0.3-1.7-0.2-2.5C469.1,54.8,471.2,54.2,472.9,53.1L472.9,53.1z M466.9,44.5h2v1.1h1.2v-1.1h2
				v8.3h-2v-1.1h-1.2v1.1h-2V44.5z M470.2,46.4H469v4.2h1.2V46.4z"/>
			<path class="st0" d="M487,37.6v1h2v-0.7h2.1c0,2.2-0.2,3.8-0.6,4.7c-0.3,0.9-1.3,1.9-2.9,3.1c2.1,0.4,3.2,1.6,3.2,3.1v0.9
				c0.6-0.4,1.1-1.2,1.9-2.2c-0.4-0.7-1-1.6-1.6-2.7c-0.2,0.3-0.3,0.6-0.7,0.9h-0.7c1.7-1.8,2.3-4.4,2.1-8h2.3c0,0.4-0.1,1-0.2,1.4
				h1.1v-0.6h2.1c-0.1,3.4-1.3,6.5-3.8,9.2h7.2v1.1h-7.3v-0.7c-0.9,0.9-1.7,1.7-2.3,2.2v4.9c0.1,1.1-0.7,1.9-2.2,2.7
				c-0.3-0.2-0.6-0.2-0.8-0.1l-0.7,0.3v3.1h-2V37.6H487z M487,39.5v5.9c1.4-0.7,2-2.7,2-5.9H487z M487,45.9v11.9
				c1.2-0.7,1.9-1.6,1.8-2.3v-6C488.9,47.5,488.4,46.4,487,45.9z M492.1,52.9h2.2c-0.2,2.5-1.4,4.9-3.9,7h-1
				C491.3,58.8,492.1,56.4,492.1,52.9z M492.7,42.5c-0.1,0.1-0.2,0.3-0.4,0.7c-0.3,0.6-0.7,1-0.8,1.1c1,0.7,1.7,1.1,2.1,1.6
				c0.3-0.4,0.6-1,0.6-1.3C493.6,43.6,493.1,42.9,492.7,42.5z M502.9,50.9v1H498v6.8c0.1,1-0.8,1.8-2.7,2.3
				c-0.3-0.2-0.8-0.2-1.1-0.1l-1.2,0.3l-0.1-0.2c2.2-0.8,3.2-1.6,3.1-2.1v-7.1h-4.4v-1C491.6,50.9,502.9,50.9,502.9,50.9z M495.1,40
				h-1.4c-0.2,0.7-0.3,1.2-0.7,1.9c0.8,0.3,1.3,0.6,1.7,0.9C494.9,41.8,495.1,40.8,495.1,40z M497.7,37.2h0.2
				c0.2,0.8,0.2,1.3,0.2,1.8h2.8V38h2.1c-0.2,2.5-1.2,4.4-3.1,5.8c1.3,1.4,2.5,2.4,3.7,2.8c-0.9,0.8-1.1,1.9-0.6,3.2
				C499.2,47,497.4,42.7,497.7,37.2z M500.8,39.9h-2.7c0.3,1.3,0.9,2.4,1.4,3.4C500.3,42.5,500.8,41.3,500.8,39.9z M499.2,52.6
				c0.8,0.8,2,2.4,3.9,4.9c0.2,0.3,0.3,0.3,0.3,0.4c-0.1,0.1-0.2,0.3-0.3,0.3c-0.6,0.9-1,1.4-1.2,1.8C500.9,58,500,55.6,499.2,52.6
				L499.2,52.6z"/>
		</g>
	</g>
</g>
</svg>
