<?xml version="1.0" encoding="utf-8"?>
<!-- Generator: Adobe Illustrator 24.1.1, SVG Export Plug-In . SVG Version: 6.00 Build 0)  -->
<svg version="1.1" xmlns="http://www.w3.org/2000/svg" xmlns:xlink="http://www.w3.org/1999/xlink" x="0px" y="0px"
	 viewBox="0 0 850 250" style="enable-background:new 0 0 850 250;" xml:space="preserve">
<style type="text/css">
	.st0{fill:#CF121B;}
</style>
<g>
	<path class="st0" d="M118.6,26.7c-3.7,8.4-6.3,17.4-7.7,27c-1.4,9.6-2.2,18.9-2.6,27.9c-0.3,7.1-0.3,14.2,0,21.1
		c27.7-22,52.8-46.7,75.3-74.1c1-1,2.1-1.9,3.4-2.7c1.3-0.8,2.7-0.6,4.1,0.7c1,0.8,1.5,1.8,1.6,3c0.1,1.2-0.3,2.2-1.1,3
		c-13.1,13.8-26.5,27.1-40.1,40.1c-13.6,13-27.9,25.3-43,36.9c0.5,4.7,1.1,9.4,1.9,14.2c0.8,4.8,1.9,9.4,3.2,14
		c1,3.2,2.4,6.8,4.4,10.7c1.9,3.9,4.8,6.5,8.5,7.8c3.4,1,7.9,0.7,13.4-0.7c5.5-1.5,11.2-3.4,17-5.7c5.8-2.3,11.3-4.8,16.5-7.4
		c5.2-2.6,9.1-4.6,11.7-6.1l10.2-5.8c0.8-0.3,1.5-0.6,2.2-1c0.6-0.3,1.4-0.2,2.2,0.5c1.8,1.1,2.1,2.3,1,3.4c-1.1,1.1-2.3,2-3.4,2.7
		c-8.7,4.2-17.3,8.5-25.6,12.9c-8.3,4.4-17,8.4-25.9,12.1c-3.4,1.5-6.8,2.5-10.1,3.2c-3.3,0.6-6.4,0.7-9.2,0.2
		c-2.8-0.5-5.5-1.7-7.9-3.6s-4.5-4.9-6.1-8.7c-2.8-6-4.8-12.3-6.1-18.8c-1.3-6.6-2.3-13.2-2.9-19.8c-7.1,5.5-14.3,10.8-21.4,15.8
		c-7.1,5-14.5,9.8-22.1,14.3c-3.7,2.3-7.6,4.5-11.5,6.7c-4,2.2-8,4.3-12,6.4c-1,0.5-2.6,1.3-4.7,2.6c-2.2,1.2-4.4,2.2-6.7,3
		c-2.3,0.8-4.3,1.2-6.1,1.1c-1.8-0.1-2.8-1.3-2.9-3.5c-0.2-1.5,0.4-2.7,1.6-3.6c1.2-1,2.7-1.8,4.4-2.6c1.7-0.7,3.4-1.3,5.1-1.8
		c1.7-0.5,3-0.9,4-1.2c4.4-1.9,8.7-4,12.9-6.2c4.2-2.2,8.4-4.4,12.6-6.7c8.3-4.5,16.2-9.4,23.8-14.7c7.6-5.3,15.2-10.7,22.8-16.4
		c-1-10-1.2-20.1-0.7-30.2c0.5-10.1,1.5-20.1,2.9-30c0.6-3.9,1.4-7.8,2.2-11.7c0.8-3.9,1.9-7.8,3.2-11.7c0.6-1.1,1.5-1.9,2.7-2.2
		c1.1-0.3,2.2-0.3,3.2,0.1c1,0.4,1.7,1.1,2.2,1.9C119.3,24.1,119.3,25.2,118.6,26.7z"/>
	<path class="st0" d="M220.9,118.5c0.6-0.3,2.1-1,4.5-1.9c2.3-1,4.7-1.7,6.9-2.2c2.3-0.5,4.2-0.5,5.8-0.1c1.6,0.4,2.2,1.9,1.7,4.5
		c-0.3,1.5-1,2.9-2.1,4.4c-1.1,1.5-1.8,2.9-2.3,4.4c-1,2.1-1.9,4.7-2.8,7.8c-0.9,3.1-0.6,5.6,0.9,7.5c2.8,0.3,5.8,0,9.1-1
		c3.3-1,6.4-1.9,9.1-2.9c0.8-0.3,2.3-1.1,4.6-2.4c2.3-1.3,4.7-2.6,7.2-3.8c2.5-1.2,4.8-2.1,6.9-2.7c2.1-0.6,3.4-0.4,3.9,0.6
		c0.6,1.1,0.2,2.4-1.2,3.6c-1.5,1.3-3.3,2.5-5.5,3.5c-2.2,1.1-4.4,2-6.7,2.9c-2.3,0.9-3.7,1.5-4.4,1.8c-3.6,1.8-7.2,3.5-10.8,5.2
		c-3.6,1.7-7.4,2.9-11.3,3.5c-3.4,0.5-5.7-0.2-7-2.2c-1.3-1.9-1.9-4.4-1.9-7.4c0-3,0.4-6.2,1.3-9.7c0.9-3.5,1.8-6.7,2.8-9.6
		c-3.7,1.5-7.4,2.8-10.9,4c-3.6,1.2-7,2.6-10.4,4.3c-2.9,1.3-5.8,2.8-8.7,4.4c-1.8,0.5-3.2,0-4.3-1.3c-1.1-1.4-0.6-2.6,1.3-3.5
		L220.9,118.5z M249.3,69.5c0.8-2.1,2.1-3.9,3.8-5.5c1.7-1.5,3.6-2.8,5.7-3.8c2.1-1,4.3-1.7,6.7-2.3c2.3-0.6,4.6-1,6.7-1.3
		c5.8-0.3,11.6-0.1,17.2,0.7c1,0,2.1,0.2,3.3,0.5c1.2,0.3,1.7,1.2,1.6,2.7c-0.2,0.8-0.6,1.5-1.2,2.1c-0.6,0.6-1.4,0.8-2.2,0.6
		c-4.7-1-9.6-1.3-14.7-1.1c-5.1,0.2-9.7,1.7-13.7,4.5c-1.6,1-2.8,2.3-3.4,3.9c-0.6,1.6-1.6,2.9-2.9,3.9c-1.6,1.3-3.3,1.3-5.1,0
		C249.2,73,248.7,71.4,249.3,69.5z"/>
	<path class="st0" d="M269.9,130.4c1.8-1,4.9-2.6,9.2-5c4.4-2.3,8.9-4.6,13.5-6.7c4.6-2.1,8.9-3.6,12.8-4.4c3.9-0.8,6.3-0.2,7.3,1.9
		c0.6,1.6,0.4,3.2-0.6,4.7c-1.1,1.5-1.8,3-2.3,4.3l-2.9,6.8c2.1-1.3,4.2-2.4,6.3-3.4c2.1-1,4.2-1.9,6.3-2.9c5.2-2.8,10.5-5.7,16-8.7
		c5.5-3.1,11.1-5.4,16.8-7c2.1-0.5,4-0.5,5.6-0.1c1.6,0.4,2.9,1.1,3.8,2.2c0.9,1.1,1.3,2.4,1.3,4.1s-0.6,3.5-1.9,5.5
		c-1.5,2.3-3,4.3-4.7,6.1c-1.7,1.8-3.4,3.7-5.2,5.8c-0.3,0.5-0.9,1.1-1.7,1.9c-0.8,0.8-1.7,1.7-2.6,2.8c-0.9,1.1-1.7,2.1-2.4,3.2
		c-0.7,1.1-1.2,2-1.3,2.8c1.1,0.3,2.6,0.3,4.3,0c1.7-0.3,3.4-0.8,5.1-1.3c1.7-0.6,3.3-1.2,4.9-1.8c1.5-0.6,2.7-1.1,3.5-1.5l10-4.4
		c0.6-0.3,1.5-0.8,2.6-1.5c1.1-0.6,2.1-1.3,3.3-1.8c1.1-0.6,2.2-1.1,3.3-1.6c1.1-0.5,1.9-0.7,2.6-0.7c1.5,0,2.2,0.7,2.2,2.2
		c0,1.5-0.6,2.6-1.9,3.4c-1.5,0.8-3,1.6-4.6,2.3c-1.6,0.7-3.3,1.5-5.1,2.3c-2.3,1.3-4.5,2.4-6.6,3.4c-2.1,1-4.3,2-6.6,3.2
		c-1.3,0.6-3.4,1.6-6.2,2.8c-2.8,1.2-5.7,2.1-8.5,2.7c-2.8,0.6-5.3,0.5-7.4-0.2c-2.1-0.7-3.2-2.7-3.2-6c0-1.6,0.4-3.1,1.2-4.4
		c0.8-1.3,1.7-2.6,2.8-3.8c1.1-1.2,2.2-2.4,3.4-3.5c1.2-1.1,2.3-2.2,3.3-3.2c1-0.8,2.6-2.5,4.9-5.1c2.3-2.6,3.7-5,4.4-7.3
		c-4.4,0.5-8.8,1.6-13.2,3.4c-4.5,1.8-8.5,3.6-12.3,5.6c-4.7,2.3-9.6,4.8-14.6,7.7c-5,2.8-9.4,6.2-13.1,10.1c-0.8,0.6-1.7,1-2.6,1.1
		c-0.9,0.1-1.7-0.1-2.6-0.5c-0.8-0.4-1.4-1-1.8-1.8c-0.4-0.8-0.4-1.9-0.1-3.2c0.5-1.5,1.7-2.8,3.6-3.9c0.8-1.3,1.6-2.8,2.4-4.5
		c0.8-1.7,1.4-2.7,1.7-3c0.3-1.1,0.6-2.3,1-3.5c0.3-1.2,0.6-2.5,0.7-3.8c-1.8,0.5-3.6,1.1-5.3,1.7c-1.8,0.6-3.2,1.1-4.1,1.5
		c-2.3,1-4.5,1.9-6.8,2.8c-2.3,0.9-4.5,1.9-6.8,3c-1.3,0.6-2.5,1.3-3.5,1.9c-1.1,0.6-2.2,1.2-3.5,1.7c-1,0.5-1.9,0.6-2.8,0.4
		c-0.9-0.2-1.6-0.6-2.1-1.1s-0.7-1.1-0.6-1.8C268.2,131.5,268.8,130.9,269.9,130.4z"/>
	<path class="st0" d="M395.3,127.3c5.7,0.5,11.4,0.6,17.2,0.2c5.8-0.3,11.6-0.9,17.2-1.7c2.4-0.3,5.2-0.9,8.4-1.8
		c3.2-0.9,6-1.2,8.6-0.8c2.1,0.3,3.4,1.5,3.8,3.5c0.4,2-0.4,3.5-2.3,4.5c-1,0.6-2.1,1.1-3.4,1.2c-1.3,0.2-2.7,0.2-4.1,0.2
		c-1.5,0-2.9,0-4.3,0c-1.4,0-2.6,0-3.8,0c-6.3,0.5-12.5,0.7-18.5,0.7c-2.8,0-5.6,0-8.5-0.1c-2.9-0.1-5.8-0.1-8.7-0.1
		c-0.8,0-1.7-0.1-2.6-0.2c-0.9-0.2-1.6-0.7-2.1-1.7c-0.6-1-0.6-1.9,0-2.9C393,127.3,394,126.9,395.3,127.3z"/>
	<path class="st0" d="M530.6,119.5c3.2-2.4,6.2-5.3,9-8.7c2.8-3.4,5.3-7,7.7-10.9c2.3-3.9,4.5-7.8,6.3-11.8c1.9-4,3.5-7.8,5-11.5
		c1.8-4,3.2-8.3,4.1-12.6s1.3-8.7,1-13.1c-0.3-4.7-2-7.6-5-8.7c-3-1.1-6.6-1.3-10.8-0.5c-4.4,0.8-8.5,2.3-12.5,4.5
		c-4,2.2-7.7,4.8-11.3,7.9c-3.6,3.1-6.9,6.4-10.1,9.8c-3.2,3.5-6,6.8-8.6,10.1c-5.8,7.3-11.1,14.9-15.9,22.7
		c-4.8,7.9-8.8,16.2-12,24.9c-1.3,2.9-2.6,6.6-3.8,10.9c-1.2,4.4-1.9,8.7-2.1,13.1c-0.2,4.4,0.5,8.3,2.1,11.9c1.5,3.6,4.5,6,8.9,7.3
		c4.4,1.3,8.9,1.8,13.5,1.5c4.6-0.3,9.3-1.1,14-2.3c4.7-1.2,9.3-2.7,13.8-4.5c4.5-1.8,8.7-3.5,12.6-5.1c4.2-1.8,8.4-3.7,12.5-5.7
		c4.1-2,8.3-4.1,12.5-6.2l12.6-6.1c0.8-0.5,1.8-1.1,3-1.8c1.2-0.7,2.5-1.5,3.9-2.3c1.4-0.8,2.7-1.5,4-1.9c1.3-0.5,2.4-0.7,3.4-0.7
		c1.5,0.2,2.3,1,2.4,2.6c0.2,1.5-0.4,2.6-1.7,3c-1.3,1.3-3,2.2-5.1,2.8c-2.1,0.6-4,1.3-5.6,2.1c-4.5,2.3-9,4.6-13.5,6.9
		c-4.5,2.4-9,4.7-13.7,6.9c-7.5,3.7-15,7.4-22.7,11.2c-7.7,3.7-15.8,6.5-24.2,8.3c-3.7,0.8-7.7,1.2-11.9,1.2
		c-4.2,0-8.1-0.6-11.8-1.7c-3.6-1.1-6.9-3-9.7-5.6c-2.8-2.6-4.7-6.2-5.7-10.7c-0.8-3.9-1-7.9-0.6-12.1c0.4-4.2,1.2-8.4,2.4-12.5
		c1.2-4.1,2.7-8.1,4.4-12c1.7-3.9,3.4-7.5,5.2-10.9c8.1-16.5,18.1-31.7,29.9-45.4c2.6-2.9,5.3-5.9,8-9c2.8-3.1,5.7-6,8.9-8.6
		c3.2-2.7,6.5-5.1,10-7.2c3.5-2.1,7.2-3.6,11.1-4.6c3.4-1.1,7.2-1.7,11.3-1.6c4.1,0.1,7.7,1.4,10.6,4c2.9,2.6,4.6,5.7,5.1,9.4
		c0.5,3.6,0.4,7.2-0.2,10.8c-1.5,8.6-4.1,16.9-8,25c-3.9,8.1-7.9,15.9-12.1,23.3c-2.3,3.7-4.5,7.4-6.8,11.1
		c-2.3,3.6-4.9,7.1-7.8,10.3c-1.3,0.8-2.6,1.1-3.8,0.9c-1.2-0.2-2.2-0.8-2.9-1.6c-0.7-0.8-1.1-1.8-1.1-2.9
		C528.7,121.5,529.3,120.5,530.6,119.5z"/>
	<path class="st0" d="M609.1,118.5c0.6-0.3,2.1-1,4.5-1.9c2.3-1,4.7-1.7,6.9-2.2c2.3-0.5,4.2-0.5,5.8-0.1c1.6,0.4,2.2,1.9,1.7,4.5
		c-0.3,1.5-1,2.9-2.1,4.4c-1.1,1.5-1.8,2.9-2.3,4.4c-1,2.1-1.9,4.7-2.8,7.8c-0.9,3.1-0.6,5.6,0.9,7.5c2.8,0.3,5.8,0,9.1-1
		c3.3-1,6.4-1.9,9.1-2.9c0.8-0.3,2.3-1.1,4.6-2.4c2.3-1.3,4.7-2.6,7.2-3.8c2.5-1.2,4.8-2.1,6.9-2.7c2.1-0.6,3.4-0.4,3.9,0.6
		c0.6,1.1,0.2,2.4-1.2,3.6c-1.5,1.3-3.3,2.5-5.5,3.5c-2.2,1.1-4.4,2-6.7,2.9c-2.3,0.9-3.7,1.5-4.4,1.8c-3.6,1.8-7.2,3.5-10.8,5.2
		c-3.6,1.7-7.4,2.9-11.3,3.5c-3.4,0.5-5.7-0.2-7-2.2c-1.3-1.9-1.9-4.4-1.9-7.4c0-3,0.4-6.2,1.3-9.7c0.9-3.5,1.8-6.7,2.8-9.6
		c-3.7,1.5-7.4,2.8-10.9,4c-3.6,1.2-7,2.6-10.4,4.3c-2.9,1.3-5.8,2.8-8.7,4.4c-1.8,0.5-3.2,0-4.3-1.3c-1.1-1.4-0.6-2.6,1.3-3.5
		L609.1,118.5z M637.5,69.5c0.8-2.1,2.1-3.9,3.8-5.5c1.7-1.5,3.6-2.8,5.7-3.8c2.1-1,4.3-1.7,6.7-2.3c2.3-0.6,4.6-1,6.7-1.3
		c5.8-0.3,11.6-0.1,17.2,0.7c1,0,2.1,0.2,3.3,0.5c1.2,0.3,1.7,1.2,1.6,2.7c-0.2,0.8-0.6,1.5-1.2,2.1c-0.6,0.6-1.4,0.8-2.2,0.6
		c-4.7-1-9.6-1.3-14.7-1.1c-5.1,0.2-9.7,1.7-13.7,4.5c-1.6,1-2.8,2.3-3.4,3.9c-0.6,1.6-1.6,2.9-2.9,3.9c-1.6,1.3-3.3,1.3-5.1,0
		C637.4,73,636.8,71.4,637.5,69.5z"/>
	<path class="st0" d="M680.2,100.3c2.9,0.2,5.8,0.2,8.7,0.1c2.9-0.1,5.8-0.3,8.7-0.6c4.5-7,9.4-14.2,14.7-21.7
		c5.3-7.5,11.2-13.9,17.9-19.1c1.3-0.8,2.6-1.6,4-2.4c1.4-0.8,2.8-1.3,4.3-1.5c1.6,0,2.8,0.6,3.6,1.9c0.8,1.3,1,2.7,0.5,4.1
		c-0.8,3.2-2.6,6.4-5.3,9.4c-2.8,3-5.1,5.7-7,8.1c-2.4,3.2-5,6.4-7.7,9.5c-2.7,3.1-5.4,6.1-8.1,9l14.3-3.4l24-7.3
		c1.1-0.5,2.3-0.9,3.5-1.1s2.3,0.3,3.3,1.6c1,1.3,1.2,2.6,0.7,4c-0.5,1.4-1.4,2.3-2.7,2.8c-7.5,2.6-15.2,4.6-23.3,6.1
		c-8.1,1.5-16,2.7-23.8,3.6l-3.4,0.7c-1.9,1.8-4,3.6-6.1,5.3c-2.1,1.8-4.3,3.6-6.6,5.3c-1.1,1.6-2.1,3.3-2.9,5
		c-0.8,1.7-1.6,3.4-2.4,5.2c-0.3,0.5-0.8,1.7-1.5,3.6c-0.6,1.9-1.3,3.9-1.8,6c-0.6,2-1,3.9-1.3,5.6c-0.3,1.7-0.2,2.6,0.2,2.6
		c3.4,0.8,7.1,0.6,11.1-0.6c4-1.2,7.4-2.2,10.3-3c3.7-1.3,7.4-2.6,11.2-3.9c3.7-1.3,7.4-2.8,11.2-4.4c1-0.3,2.2-0.6,3.8-0.7
		c1.5-0.2,2.2,0.8,2.1,2.9c-0.2,1.5-1.2,2.5-3,3c-1.9,0.6-3.4,1.1-4.5,1.6l-17.2,6.3c-1.9,0.8-4.7,1.9-8.1,3.4
		c-3.5,1.5-7,2.6-10.4,3.5c-3.5,0.9-6.6,1-9.5,0.4c-2.8-0.6-4.6-2.8-5.2-6.6c-0.3-3.7,0.4-7.4,2.1-11.1c1.7-3.6,3.7-7.6,6-11.8
		c-7.5,5-15.2,9.5-23.3,13.4c-1,0.5-1.8,0.6-2.4,0.2c-0.6-0.3-1.1-0.8-1.5-1.5c-0.3-0.6-0.4-1.3-0.1-2.1c0.2-0.7,0.8-1.3,1.6-1.8
		c5.7-2.6,11.1-5.4,16.4-8.5c5.3-3.1,10.4-6.5,15.4-10.2l3.4-5.8c-2.4,0.2-5.1,0.5-8,1c-2.9,0.5-5.3,0.2-7-0.7
		c-1.3-0.8-1.7-1.9-1.3-3.4C677.8,101,678.8,100.3,680.2,100.3z M724.2,77.2c0.8-1.1,1.6-2.3,2.3-3.6c0.7-1.3,1.5-2.6,2.3-3.9
		c-1.6,1.6-3.1,3.2-4.5,4.9c-1.4,1.6-2.6,2.9-3.5,3.9c-2.9,3.2-5.7,6.5-8.5,9.8c-2.8,3.3-5.3,6.8-7.5,10.6
		C712.1,92.2,718.5,85,724.2,77.2z"/>
	<path class="st0" d="M730.5,130.4c9.6-4.7,18.9-9.5,27.9-14.3c2.6-1.3,5.5-3.1,8.7-5.3c3.2-2.3,6.3-3.7,9.2-4.4
		c1.8-0.3,3.2,0.3,4.4,1.9c1.1,1.6,1.1,3.2-0.2,4.9c-0.8,1.5-2,2.8-3.5,4c-1.5,1.2-2.9,2.5-4,3.8c-3.2,3.9-5.9,8-8,12.4
		c-0.5,0.8-1,1.8-1.5,2.9c-0.5,1.1-0.9,2.3-1.2,3.5c-0.3,1.2-0.5,2.3-0.5,3.3s0.3,1.7,1,2.2c0.5,0.5,1.5,0.4,3.2-0.4
		c1.6-0.7,3.4-1.6,5.3-2.7c1.9-1.1,3.7-2.1,5.3-3.2c1.6-1.1,2.6-1.7,2.9-2.1c3.4-2.3,6.6-4.6,9.6-7c3-2.4,5.9-5,8.6-7.8
		c0.6-0.6,1.5-1.2,2.7-1.7c1.1-0.5,2.2-0.6,3.2-0.5c1,0.2,1.7,0.6,2.3,1.3c0.6,0.7,0.8,1.8,0.6,3.3c-0.5,1.8-1.4,3.6-2.7,5.5
		c-1.3,1.9-2.3,3.5-3.2,5c-1.3,1.8-2.4,3.6-3.4,5.3c-1,1.8-2,3.6-3.2,5.3l-18.9,34.5c5.5-7.3,11.6-14.1,18.2-20.4
		c0.6-0.6,2.1-2,4.4-4.1c2.3-2.1,4.9-4.5,7.8-7c2.9-2.6,6-5.2,9.4-7.9c3.3-2.7,6.5-5,9.5-6.9c3-1.9,5.5-3.3,7.7-4.1
		c2.1-0.8,3.5-0.6,4.1,0.5c0.5,1,0,2.1-1.3,3.5c-1.4,1.4-3.1,2.8-5.1,4.1c-2,1.4-4.1,2.6-6.2,3.8c-2.1,1.1-3.5,1.9-4.1,2.4
		c-3.7,2.8-7.3,5.6-10.8,8.6c-3.5,3-6.8,6.2-10.1,9.6c-6.3,6.3-12.3,13.2-17.9,20.5c-5.6,7.4-10.8,14.9-15.7,22.7
		c-1.8,3.2-3.6,6.5-5.3,9.7c-1.8,3.2-3.5,6.5-5.1,9.7c-0.6,1-1.2,2-1.7,3.2c-0.5,1.1-1.1,2.1-1.9,2.9c-1.3,0.8-2.7,1-4.1,0.5
		c-1.5-0.5-2.3-1.5-2.7-2.9c-0.5-1.3-0.4-2.5,0.4-3.5c0.7-1.1,1.4-2.1,2.1-3c2.3-4.1,4.5-8,6.7-11.9c2.2-3.9,4.4-7.9,6.7-12.1
		c4.5-8.3,8.9-16.4,13.2-24.5c4.3-8.1,8.5-16.4,12.8-25c1-2.3,2-4.5,3.2-6.7c1.1-2.2,2.2-4.4,3.2-6.7l-10.2,7.8
		c-1.5,1.3-3.1,2.7-4.9,4.3c-1.8,1.5-3.6,2.9-5.6,4.1c-1.9,1.2-3.9,2.1-6,2.6c-2,0.5-4,0.2-6-0.7c-2.8-1-4.3-2.7-4.7-5.1
		c-0.4-2.4-0.2-5.2,0.7-8.4c0.9-3.2,2.3-6.4,4.1-9.8c1.9-3.4,3.8-6.6,5.7-9.7l-12.1,5.1c-2.8,1.3-5.5,2.6-8.3,4
		c-2.8,1.4-5.5,2.8-8.3,4.3c-1,0.6-2,1.3-3.2,1.9c-1.1,0.6-2.4,0.6-3.6,0c-1-0.6-1.4-1.5-1.3-2.7
		C728.8,131.5,729.4,130.8,730.5,130.4z"/>
</g>
</svg>
