<?xml version="1.0" encoding="utf-8"?>
<!-- Generator: Adobe Illustrator 24.1.1, SVG Export Plug-In . SVG Version: 6.00 Build 0)  -->
<svg version="1.1" xmlns="http://www.w3.org/2000/svg" xmlns:xlink="http://www.w3.org/1999/xlink" x="0px" y="0px"
	 viewBox="0 0 150 150" style="enable-background:new 0 0 150 150;" xml:space="preserve">
<style type="text/css">
	.st0{fill:#FFFFFF;}
</style>
<g>
	<g>
		<g>
			<path class="st0" d="M75.8,5.2L44.5,23.3v8.9v25.6v1.7l6.5,3.8v-7.5l0,0V32.6l24.9-14.3l24.9,14.3v23.2l0,0v7.5l6.5-3.8v-1.7
				V32.2v-8.9L75.8,5.2z M100.7,28.4L75.8,14.1L51,28.4v-2.2l24.9-14.3l24.9,14.3V28.4z"/>
			<polygon class="st0" points="53.6,64.6 66.8,72.2 66.8,31.8 53.6,39.4 			"/>
			<polygon class="st0" points="84.8,72.2 98,64.6 98,39.5 84.8,31.8 			"/>
			<polygon class="st0" points="75.6,26.4 69.2,22.7 69.2,73.6 69.3,73.7 75.7,77.4 82.1,73.7 82.3,73.6 82.3,30.3 82.1,30.2 			"/>
		</g>
		<g>
			<path class="st0" d="M27.3,103.3h3v25.4H33v-7.1h-2V120h2v-7h-2v-1.4h2v-5.3h-2v-1.5h2v-1.1h3.2v24.9H39v1.5H7.1v-1.5h2.8v-24.7
				h3.3v2.6c0.2-0.2,0.6-0.5,0.9-0.9c0.4-0.4,0.7-0.7,0.9-0.9c0.1,0,0.4,0.1,0.7,0.3c0.2,0.1,0.4,0.2,0.6,0.3v-2h3v1.4h8V103.3z
				 M15.6,131.9h4.8c-1,3-4.2,6.1-9.7,9.3H8.5C13.1,138.6,15.5,135.5,15.6,131.9z M16.3,106.6c-1,0.4-2,0.8-3.2,1.1v4h2.4v1.4h-2.4
				v7h2.4v1.5h-2.4v7.1h3.2V106.6z M27.3,106.3h-8v22.4h8V106.3z M20.1,109.8h6.5v1.5h-6.5V109.8z M20.4,113.8h2v1.5h1.9v-1.5h1.9
				V127h-1.9v-1.7h-1.9v1.7h-2V113.8z M24.3,116.9h-1.9v6.8h1.9V116.9z M28,131.2c4.5,2.9,7.4,4.8,8.7,5.9c-0.3,1.4-0.7,2.8-1.3,4.2
				c-2.8-2.5-5.6-5.8-8.2-10.1H28z"/>
			<path class="st0" d="M50.5,113.8H54v-6.3h3.3v1.5h7.8v-6.2h3.3v6.2h3.7c-1-1.8-1.8-3.8-2.4-6.2c1.5,0.6,3,1.8,4.5,3.4
				c0,0.1-0.1,0.2-0.2,0.3c-0.4,1-0.9,1.9-1.5,2.5h3v1.5h-7.1v8.7c0,2.2,0.2,4.9,0.7,8.4c1.4-2.9,2-7.2,1.9-13h3.3
				c0.1,6.6-1.2,12-4.1,16.1c0.7,1.4,1.7,2.7,3,3.9l1.5-7.3h0.6l-0.6,8l1.1,0.8v4.8c-3.5-1.7-6.2-4.1-8.2-7.4
				c-0.6,0.9-2.5,2.6-5.6,4.9c-1.2,1-2.1,1.8-2.6,2.2h-1.1c3.3-2.9,6.1-5.8,8.4-8.8c-1.2-2.9-1.8-7.8-1.7-14.7v-6.5h-7.8v6h2.6v-1.7
				h3.3v16.4c0,1.9-1.3,3.1-3.9,3.7c-0.1-0.5-0.6-0.7-1.3-0.5l-1.1,0.3l-0.2-0.5c2-0.7,3-1.5,3.2-2.3v-13.9h-2.6v12.2
				c0.1,2.9-2,6.5-6.3,10.8h-1.1c2.8-3.2,4.3-7.1,4.3-11.8c-2.7,3.4-5.9,5.8-9.5,7.1c0.1-1.3-0.1-2.7-0.7-4c1.1-0.1,2.2-0.3,3.2-0.6
				v-16.5h-3.5v-1.5h3.5v-11h3.3V113.8z M50.5,130.7c1.7-0.8,2.9-1.6,3.5-2.3v-13h-3.5V130.7z"/>
			<path class="st0" d="M81,103.2h3.7v1.4h21v-1.2h3.9v37.1h-3.9v-1.5h-21v1.4H81V103.2z M84.7,106.1v31.1h21v-31.1H84.7z
				 M99.7,106.9v3.9h3.2c-0.9-1.1-1.6-2.3-2.2-3.6l0.2-0.2c1.5,0.3,2.7,0.8,3.7,1.5c-0.2,0.6-0.7,1.3-1.3,2.2h1.7v1.5h-5.2
				c-0.1,2-0.2,4.3-0.2,7.1c0.1,2.7,0.2,4.7,0.4,6.2c1.1-2.2,1.5-5.9,1.3-11.1h3.3c0,0.2,0,0.6,0,1.1c-0.1,5.6-1.4,9.9-3.9,13
				c0.6,1,1.4,2.1,2.2,3.2l1.5-5.3h0.4l-0.6,6l0.7,0.5v3.6c-2.8-1.2-5-3.2-6.5-6c-1.9,1.6-4.5,3.6-7.8,5.7h-1.9
				c4.1-2.5,7.1-4.8,9.1-7.1c-1-2.7-1.5-8.3-1.5-16.9H85.8v-1.5h10.6v-3.9H99.7z M96,128.1c-1.2,2.5-4.5,4.4-9.8,5.9
				c0.6-1.2,0.5-2.6-0.4-4c4.2,0.7,7.5,0.1,10-2L96,128.1z M86.5,114.5h3.2v1.7h2v-1.7h3.2v13.1h-3.2v-1.9h-2v1.9h-3.2V114.5z
				 M91.7,117.6h-2v6.7h2V117.6z"/>
			<path class="st0" d="M118.4,103.6v1.5h3.2v-1.1h3.3c0,3.5-0.3,5.9-0.9,7.3c-0.6,1.4-2.2,3.1-4.6,4.9c3.3,0.7,5,2.4,5,4.9v1.2
				c0.9-0.8,1.9-2,3-3.6c-0.7-1-1.5-2.4-2.4-4.2c-0.3,0.4-0.6,0.9-1.1,1.4h-1.1c2.6-2.8,3.7-7,3.3-12.5h3.7c0,0.7-0.1,1.5-0.4,2.3
				h1.7V105h3.3c-0.1,5.5-2.1,10.3-5.9,14.5h11.3v1.7h-11.7v-1.1c-1.4,1.4-2.6,2.6-3.7,3.6v7.6c0.1,1.7-1.1,3.1-3.5,4.3
				c-0.5-0.3-0.9-0.4-1.3-0.2l-1.1,0.5v4.9h-3.2v-37.3H118.4z M118.4,106.7v9.3c2.2-1,3.3-4.1,3.2-9.3H118.4z M118.4,116.8v18.7
				c2-1.1,2.9-2.4,2.8-3.7v-9.4C121.3,119.3,120.4,117.4,118.4,116.8z M126.4,127.8h3.5c-0.2,3.9-2.3,7.6-6.1,11h-1.5
				C124.9,137.1,126.3,133.4,126.4,127.8z M127.3,111.2c-0.1,0.2-0.4,0.6-0.7,1.1c-0.6,0.9-1.1,1.5-1.3,1.9c1.5,1,2.6,1.9,3.3,2.5
				c0.6-0.8,0.9-1.5,0.9-2.2C128.6,113.1,127.8,112,127.3,111.2z M143.3,124.5v1.5h-7.6v10.7c0.1,1.5-1.3,2.8-4.3,3.7
				c-0.6-0.3-1.2-0.4-1.7-0.2l-2,0.6l-0.2-0.3c3.5-1.2,5.1-2.4,4.8-3.4v-11.1h-7.1v-1.5H143.3z M131.1,107.5h-2.2
				c-0.3,1-0.6,2.1-1.1,3.1c1.2,0.5,2.1,1,2.6,1.4C130.8,110.1,131.1,108.6,131.1,107.5z M135.1,103h0.4c0.2,1.2,0.4,2.2,0.4,2.8
				h4.5v-1.4h3.3c-0.4,3.9-2,7-4.8,9.1c2.1,2.3,4,3.8,5.8,4.5c-1.4,1.2-1.7,2.9-0.9,5.1C137.5,118.4,134.6,111.7,135.1,103z
				 M140.1,107.3h-4.1c0.6,2.1,1.4,3.9,2.2,5.4C139.4,111.2,140,109.4,140.1,107.3z M137.7,127.1c1.2,1.2,3.3,3.8,6.1,7.6
				c0.2,0.4,0.4,0.7,0.6,0.8c-0.1,0.2-0.3,0.4-0.6,0.6c-0.9,1.3-1.5,2.3-2,2.8c-1.5-3.2-2.9-7.1-4.3-11.6L137.7,127.1z"/>
		</g>
	</g>
</g>
</svg>
