<?xml version="1.0" encoding="utf-8"?>
<!-- Generator: Adobe Illustrator 24.1.1, SVG Export Plug-In . SVG Version: 6.00 Build 0)  -->
<svg version="1.1" id="圖層_1" xmlns="http://www.w3.org/2000/svg" xmlns:xlink="http://www.w3.org/1999/xlink" x="0px" y="0px"
	 viewBox="0 0 900 130" style="enable-background:new 0 0 900 130;" xml:space="preserve">
<style type="text/css">
	.st0{fill:#231815;}
</style>
<path class="st0" d="M115.8,17.5v0.9H114c-1.7,0-3.4,0.2-5.1,0.6c-2.2,0.4-4.3,1.1-6.2,2.2c-2.1,1.1-3.9,2.7-5.3,4.6
	c-1.6,2.4-2.4,5.3-2.2,8.1v85.4h-1L23.1,25.7v77.1c-0.2,2.9,0.6,5.8,2.2,8.3c1.4,1.9,3.2,3.5,5.3,4.7c2,1,4.1,1.8,6.2,2.2
	c1.7,0.3,3.4,0.5,5.1,0.6h1.8v0.9H1.4v-0.9h1.8c1.7,0,3.4-0.2,5.1-0.6c2.2-0.4,4.3-1.1,6.2-2.2c2.1-1.1,3.9-2.7,5.3-4.7
	c1.6-2.4,2.4-5.3,2.3-8.3V30.4c0-2,0-3.8-0.1-5.3c0-1.3-0.4-2.6-1.1-3.8c-0.8-1.1-1.9-1.9-3.2-2.2c-2.1-0.5-4.3-0.8-6.5-0.7H7.5
	v-0.9h25.9l60.8,79.6V33.9c0.1-2.9-0.6-5.7-2.2-8.1c-1.4-1.9-3.2-3.5-5.3-4.6c-1.9-1-4-1.8-6.2-2.1c-1.7-0.3-3.4-0.5-5.1-0.6h-1.8
	v-0.9L115.8,17.5L115.8,17.5z"/>
<path class="st0" d="M184.9,117.2c2.5-0.8,4.9-1.9,7.1-3.3c2-1.3,3.8-2.9,5.4-4.7c1.5-1.7,2.8-3.5,4-5.4c2.7-4.6,4.5-9.6,5.4-14.8
	h0.9l-3.5,30.3h-80v-0.9c2.3,0,4.7-0.1,7-0.4c1.6-0.2,3.2-0.8,4.5-1.8c1.2-1,2-2.3,2.4-3.8c0.6-2.1,0.8-4.3,0.7-6.5V32.4
	c0-0.3,0-0.5-0.1-0.8c0-0.3-0.1-0.5-0.1-0.8c0-4.7-0.8-7.9-2.4-9.6s-4.4-2.7-8.4-3h-3.9v-0.8h76.7v26.7h-0.8V44
	c-0.6-2.8-1.4-5.7-2.2-8.8c-0.8-3-2.2-5.8-4-8.3c-1.9-2.6-4.4-4.7-7.3-6.2c-3.1-1.7-7.1-2.5-12.1-2.5h-22.7V68h17.3
	c3.5-0.1,6.2-0.9,8.2-2.5c1.9-1.4,3.4-3.2,4.5-5.3c0.9-1.7,1.6-3.6,1.9-5.6c0.2-1.2,0.3-2.4,0.4-3.6v-0.4h0.9v35.5h-0.9v-0.4
	c-0.1-1.2-0.2-2.5-0.4-3.7c-0.3-2-1-4-1.9-5.8c-1.1-2.1-2.7-3.9-4.7-5.3c-2.1-1.5-4.9-2.3-8.5-2.3h-16.7v34.9
	c0.1,0.8,0.1,1.5,0.1,2.3c0,2,0.1,3.9,0.5,5.8c0.3,1.4,0.9,2.6,1.8,3.7c0.9,1,2.1,1.7,3.3,2.1c1.6,0.5,3.4,0.8,5.1,0.8h13.4
	C178.9,118.5,182,118.1,184.9,117.2z"/>
<path class="st0" d="M346.9,18.3h-0.6c-1.1,0-2.2,0.2-3.3,0.4c-1.7,0.4-3.4,1.1-4.9,2c-2,1.2-3.7,2.7-5.1,4.5
	c-1.9,2.4-3.2,5.2-3.9,8.2l-23.9,85.7h-0.8l-23.9-84.7L257,119h-1l-24.2-85.8l-0.5-1.7c-0.7-2.7-1.7-5.3-3.1-7.7
	c-0.9-1.5-2.1-2.8-3.5-3.8c-1.2-0.7-2.5-1.2-3.9-1.3c-1.4-0.1-2.8-0.3-4.4-0.6h-0.1v-0.9H256v0.9h-0.4c-2.1,0-4.1,0.1-5.9,0.2
	c-1.6,0-3.1,0.6-4.4,1.5c-1.2,1.1-1.9,2.7-2,4.3c-0.3,2,0.2,4.9,1.3,8.6l17.7,63.6l17.8-63.7c-0.1-0.2-0.2-0.4-0.2-0.7
	c0-0.2,0-0.4-0.1-0.6c-0.7-2.7-1.7-5.3-3.1-7.7c-0.9-1.5-2.1-2.8-3.5-3.8c-1.2-0.8-2.6-1.2-4-1.3c-1.4-0.1-2.9-0.3-4.3-0.6h-0.1V17
	h39.7v0.9h-0.4c-2.1,0-4,0-5.9,0.1c-1.6,0-3.2,0.5-4.5,1.5c-1.3,1.1-2,2.7-2.1,4.3c-0.3,2,0.2,4.9,1.3,8.7l17.8,63.7L329.1,30
	c0.7-2.8,0.6-5-0.4-6.6s-2.4-2.8-4-3.6c-1.6-0.8-3.4-1.4-5.3-1.6c-1.3-0.2-2.6-0.3-3.9-0.3h-0.7V17h32.4L346.9,18.3z"/>
<path class="st0" d="M355.6,87h1c0,2,0.2,4,0.6,5.9c0.4,2.2,1,4.4,1.7,6.5s1.6,4.2,2.7,6.2c0.9,1.8,2.1,3.3,3.5,4.7
	c5.2,4.8,11.9,7.5,19,7.6h1c3.5-0.1,7-0.9,10.3-2.2c3.4-1.6,6.2-4.1,8.2-7.3c2-3,3.1-6.5,3.2-10.1c0.1-3.8-0.9-7.6-2.8-10.8
	c-2-3.6-5.3-6.7-9.9-9.2L378.9,70c-4.5-2.3-8.6-5.3-12.1-9c-2.8-2.9-4.9-6.3-6.4-10.1c-1.2-3.3-1.7-6.8-1.4-10.2
	c0.3-3.3,1.3-6.6,2.9-9.5c1.6-3,3.8-5.7,6.5-7.9c2.8-2.3,5.9-4.2,9.3-5.5c1.6-0.7,3.2-1.1,4.8-1.4c1.7-0.3,3.3-0.4,5-0.4
	c3.7,0,7.4,0.7,10.9,2.2c1.3,0.5,2.7,1,4.1,1.5s2.9,0.8,4.4,0.9c1.4,0.1,2.8-0.2,4.1-0.8c1.5-0.8,2.6-2,3.4-3.4h0.8v27.7h-1
	c0-1.9-0.3-3.8-0.8-5.6c-0.5-1.9-1.2-3.8-2.1-5.7c-0.9-1.8-1.9-3.5-3-5.1c-1-1.4-2.1-2.8-3.4-4c-2.3-2.2-5-3.9-8-5
	c-3-1.2-6.2-1.8-9.4-1.8c-1.4,0-2.8,0.1-4.2,0.3c-1.4,0.2-2.7,0.5-4,1c-3.4,1.1-6.5,3.2-8.6,6.1c-2.1,2.8-3,6.2-2.5,9.7
	c0.4,3.6,2.2,7.5,5.4,11.7s8.3,8.2,15.1,12.3l13.9,7.5c4,2.2,7.6,5.2,10.5,8.7c2.5,3.1,4.3,6.7,5.3,10.5c1.8,7.4,0,15.2-4.9,21.1
	c-2.8,3.3-6.2,6-10.1,8c-4.7,2.4-9.8,4-15.1,4.6h0.2c-0.6,0.1-1.2,0.2-1.8,0.2s-1.1,0.1-1.6,0.1h-1.2c-3.6,0-7.2-0.7-10.5-2.2l0,0
	c-0.4-0.1-0.8-0.3-1.2-0.5c-2.5-1.2-5.2-1.9-8-2c-1.6-0.1-3.2,0.3-4.6,1c-1,0.5-1.8,1.3-2.2,2.3c-0.3,0.6-0.5,1.1-0.7,1.7v0.1h-0.8
	L355.6,87z"/>
<path class="st0" d="M426.2,119.3v-0.9c2.3,0,4.7-0.1,7-0.4c1.6-0.2,3.2-0.8,4.5-1.8c1.2-1,2-2.3,2.4-3.8c0.6-2.1,0.8-4.3,0.7-6.5
	v-75c0-4.7-0.8-7.9-2.4-9.6s-4.4-2.7-8.4-3h-3.9v-0.8h46c4.7-0.1,9.5,0.6,14,1.9c3.6,1.1,6.9,3,9.7,5.5c2.4,2.2,4.3,4.9,5.5,8
	c1.3,3.3,1.9,6.7,1.9,10.3c0,7.6-2.5,13.7-7.4,18.2c-2.8,2.5-6.1,4.4-9.7,5.5c-4.5,1.4-9.3,2.1-14,2h-18.5V106c0,2,0.1,3.9,0.5,5.8
	c0.3,1.4,0.9,2.6,1.8,3.7c0.9,1,2.1,1.7,3.4,2.1c1.7,0.5,3.4,0.8,5.1,0.8h3.8l-0.1,0.1v0.8H426.2L426.2,119.3z M453.8,68h17.4
	c3.7,0.1,7.3-1,10.3-3.2c1-0.8,1.9-1.7,2.7-2.6c1-1.1,1.8-2.4,2.5-3.8c1.1-2.2,1.9-4.5,2.4-6.9c0.6-2.8,0.9-5.6,0.8-8.5
	c0-7.3-1.5-13.2-4.5-17.6c-3.3-4.8-8.1-7.3-14.3-7.3h-7.7c-3.6,0.4-6.1,1.5-7.6,3.2c-1.4,1.7-2.1,4.8-2.1,9.3L453.8,68L453.8,68z"/>
<path class="st0" d="M492.7,118.2c0.1,0,0.8-0.1,2.1-0.3c1.7-0.3,3.3-0.9,4.7-1.7c2.1-1.2,4.1-2.7,5.7-4.5c2.3-2.5,4.1-5.5,5.2-8.8
	L543,17.4h1l32.4,85.3c1.1,3,2.4,5.8,4,8.6c0.9,1.7,2.2,3.2,3.6,4.5c1.1,0.9,2.3,1.5,3.7,1.8l4.3,0.7v0.9h-39.7v-0.9
	c2.9-0.2,5.4-0.4,7.4-0.6c1.7-0.1,3.3-0.7,4.7-1.7c1-0.9,1.5-2.4,1.3-4.5c-0.4-3.1-1.2-6.1-2.4-9l-8.9-23.7h-33.7l-9.2,24.1
	c-0.9,2-1.2,4.2-1,6.4c0.2,1.6,0.9,3.1,1.9,4.3c1,1.2,2.2,2.1,3.6,2.7c1.3,0.6,2.7,1.1,4.1,1.4c1.1,0.3,2.3,0.4,3.5,0.5l1.6,0.1v0.9
	h-32.3v-1H492.7z M537.6,34.4L521,77.8h33L537.6,34.4z"/>
<path class="st0" d="M597.6,119.3v-0.9c2.3,0,4.6-0.1,7-0.4c1.6-0.2,3.2-0.8,4.5-1.8c1.2-1,2-2.3,2.4-3.8c0.6-2.1,0.8-4.3,0.7-6.5
	v-75c0-4.7-0.8-7.9-2.4-9.6c-1.6-1.7-4.4-2.7-8.4-3h-3.9v-0.8h46c4.7-0.1,9.5,0.6,14,1.9c3.6,1.1,6.9,3,9.7,5.5
	c2.4,2.2,4.3,4.9,5.5,8c1.3,3.3,1.9,6.7,1.9,10.3c0,7.6-2.5,13.7-7.4,18.2c-2.8,2.5-6.1,4.4-9.7,5.5c-4.5,1.4-9.3,2.1-14,2h-18.4
	V106c0,2,0.1,3.9,0.5,5.8c0.3,1.4,0.9,2.6,1.8,3.7c0.9,1,2.1,1.7,3.4,2.1c1.7,0.5,3.4,0.8,5.1,0.8h3.8l-0.1,0.1v0.8H597.6
	L597.6,119.3z M625.1,68.1h17.4c3.7,0.1,7.3-1,10.3-3.2c1-0.8,1.9-1.7,2.7-2.6c1-1.1,1.8-2.4,2.5-3.8c1.1-2.2,1.9-4.5,2.4-6.9
	c0.6-2.8,0.9-5.6,0.8-8.5c0-7.3-1.5-13.2-4.5-17.6c-3.3-4.8-8.1-7.3-14.3-7.3h-7.7c-3.6,0.4-6.2,1.5-7.6,3.2
	c-1.4,1.7-2.1,4.8-2.1,9.3L625.1,68.1L625.1,68.1z"/>
<path class="st0" d="M741.6,117.2c2.5-0.8,4.9-1.9,7.1-3.3c2-1.3,3.8-2.9,5.4-4.7c1.5-1.7,2.8-3.5,4-5.4c2.7-4.6,4.5-9.6,5.4-14.8
	h0.8l-3.5,30.3h-79.9v-0.9c2.3,0,4.7-0.1,7-0.4c1.6-0.2,3.2-0.8,4.5-1.8c1.2-1,2-2.3,2.4-3.8c0.5-2.1,0.8-4.3,0.7-6.5V32.4
	c0-0.3,0-0.5-0.1-0.8c0-0.3-0.1-0.5-0.1-0.8c0-4.7-0.8-7.9-2.3-9.6s-4.4-2.7-8.4-3h-3.9v-0.8h76.7v26.7h-0.8V44
	c-0.7-2.8-1.4-5.7-2.2-8.8c-0.8-3-2.2-5.8-4-8.3c-1.9-2.6-4.4-4.8-7.3-6.2C740,19,736,18.2,731,18.2h-22.7V68h17.3
	c3.5-0.1,6.2-0.9,8.2-2.5c1.8-1.4,3.4-3.2,4.5-5.3c0.9-1.7,1.6-3.6,1.9-5.6c0.2-1.2,0.3-2.4,0.4-3.6v-0.4h0.8v35.5h-0.8v-0.4
	c-0.1-1.2-0.2-2.5-0.4-3.7c-0.3-2-1-4-1.9-5.8c-1.1-2.1-2.7-3.9-4.7-5.3c-2.1-1.5-4.9-2.3-8.5-2.3h-16.7v34.9
	c0.1,0.8,0.1,1.5,0.1,2.3c0,2,0.1,3.9,0.5,5.8c0.3,1.4,0.9,2.6,1.8,3.7c0.9,1,2.1,1.7,3.3,2.1c1.6,0.5,3.4,0.8,5.1,0.8h13.4
	C735.7,118.5,738.7,118.1,741.6,117.2z"/>
<path class="st0" d="M772,119.3v-0.9h0.1c2.3,0,4.6-0.1,7-0.4c1.6-0.2,3.2-0.8,4.5-1.8c1.1-1,2-2.3,2.4-3.8c0.5-2.1,0.8-4.3,0.7-6.5
	v-75c0-4.7-0.8-7.9-2.4-9.6s-4.4-2.7-8.4-3H772v-0.8h46c4.7-0.1,9.5,0.6,14,1.9c3.5,1.2,6.8,3.1,9.7,5.5c2.4,2.2,4.3,4.9,5.5,8
	c1.3,3.3,2,6.7,1.9,10.2c0,7.6-2.5,13.7-7.4,18.2c-2.8,2.4-6.1,4.3-9.7,5.5c-1.8,0.7-3.7,1.2-5.6,1.4c-2,0.3-4.1,0.5-6.2,0.6
	c1.9,0.6,3.7,1.5,5.4,2.7c2.5,2,4.7,4.3,6.5,7l22.7,33.2c1.1,1.5,2.4,2.8,4,3.8c1.5,0.8,3,1.5,4.6,2c1.3,0.4,2.6,0.7,3.9,0.8
	c1.1,0.1,1.8,0.1,2,0.1h0.1v0.9h-24.2l-29.5-43c-1-1.4-2.1-2.8-3.3-4c-0.9-0.9-1.8-1.6-2.9-2.2c-0.9-0.5-1.8-0.8-2.7-1
	s-1.8-0.2-2.8-0.3h-4.5V106c0,2,0.1,3.9,0.5,5.8c0.3,1.4,0.9,2.6,1.8,3.7c0.9,1,2.1,1.7,3.3,2.1c1.6,0.5,3.4,0.8,5.1,0.8h3.7v0.9
	H772L772,119.3z M799.6,68H817c3.6,0.1,7.2-1,10.2-3.2c1-0.8,1.9-1.6,2.7-2.6c1-1.2,1.9-2.4,2.6-3.8c1-2.2,1.8-4.5,2.3-6.9
	c0.6-2.8,0.9-5.6,0.8-8.5c0-7.3-1.5-13.2-4.5-17.6c-3.3-4.8-8.1-7.3-14.2-7.3H809c-1.5,0.1-3,0.4-4.5,1c-1.2,0.5-2.2,1.2-3,2.2
	c-0.8,1.1-1.4,2.4-1.6,3.7c-0.3,1.8-0.5,3.7-0.5,5.6L799.6,68L799.6,68z"/>
</svg>
