<svg id="圖層_1" data-name="圖層 1" xmlns="http://www.w3.org/2000/svg" viewBox="0 0 1500 650">
    <defs>
         <style>
         .cls-1{fill:#cf121b;}
         .cls-2{fill:none;stroke:#cf121b;stroke-miterlimit:10; fill:#cf121b}
         </style>
    </defs>
<path class="cls-1" d="M751.26,88,719.91,106.1v36.2l6.51,3.76v-7.51h0V115.33L751.26,101l24.85,14.35v23.22h0v7.51l6.51-3.76V106.1Zm24.85,23.22L751.26,96.86,726.4,111.21V109l24.86-14.35L776.11,109Z"/>
<polygon class="cls-1" points="729.04 147.33 742.19 154.92 742.19 114.53 729.04 122.15 729.04 147.33"/>
<polygon class="cls-1" points="760.27 154.92 773.41 147.33 773.41 122.22 760.27 114.6 760.27 154.92"/>
<polygon class="cls-1" points="751 109.18 744.62 105.49 744.62 156.37 744.77 156.45 751.16 160.14 757.54 156.45 757.76 156.33 757.76 113.1 757.54 112.97 751 109.18"/>
<path class="cls-1" d="M702.72,186.09h3v25.36h2.78v-7.11h-2v-1.55h2v-7h-2v-1.39h2v-5.26h-2v-1.55h2v-1.08h3.16v24.9h2.78V213H682.49v-1.55h2.78V186.71h3.35v2.62a9.79,9.79,0,0,0,.92-.92,10,10,0,0,1,.93-.93,2,2,0,0,1,.74.31,2.14,2.14,0,0,1,.56.31v-2h3v1.39h8ZM691,214.7h4.82q-1.49,4.49-9.65,9.28H684Q690.84,220.11,691,214.7Zm.74-25.37a25.88,25.88,0,0,1-3.15,1.09v4H691v1.39h-2.41v7H691v1.55h-2.41v7.11h3.15Zm11-.31h-8v22.43h8Zm-7.24,3.56H702v1.55h-6.5Zm.37,4h2v1.55h1.86V196.6h1.85v13.15h-1.85v-1.7h-1.86v1.7h-2Zm3.9,3.1h-1.86v6.8h1.86Zm3.71,14.22q6.67,4.34,8.72,5.88a16.75,16.75,0,0,1-1.3,4.18,43.43,43.43,0,0,1-8.16-10.06Z"/>
<path class="cls-1" d="M725.9,196.6h3.53v-6.34h3.34v1.55h7.79v-6.19h3.34v6.19h3.71a25.69,25.69,0,0,1-2.41-6.19,13,13,0,0,1,4.46,3.4.43.43,0,0,1-.19.31,6.65,6.65,0,0,1-1.48,2.48h3v1.54H743.9V202a61.13,61.13,0,0,0,.74,8.35c1.37-2.89,2-7.22,1.86-13h3.34q.18,9.9-4.08,16.08a13.66,13.66,0,0,0,3,3.87l1.48-7.27h.56l-.56,8,1.12.77v4.8a18.74,18.74,0,0,1-8.17-7.42q-.93,1.38-5.57,4.94l-2.6,2.17h-1.11a55.38,55.38,0,0,0,8.35-8.82q-1.85-4.32-1.67-14.69v-6.5h-7.79v6h2.6v-1.71h3.34v16.4q0,2.78-3.9,3.71c-.12-.51-.56-.67-1.3-.46l-1.11.31-.19-.47c2-.72,3-1.49,3.16-2.32V200.93h-2.6v12.22q.18,4.33-6.31,10.83h-1.11a17.08,17.08,0,0,0,4.26-11.76,21.9,21.9,0,0,1-9.46,7.12,7.79,7.79,0,0,0-.75-4,15,15,0,0,0,3.16-.62V198.15H719V196.6h3.52v-11h3.34Zm0,16.86a11.07,11.07,0,0,0,3.53-2.32v-13H725.9Z"/>
<path class="cls-1" d="M756.39,185.93h3.71v1.39h21v-1.23H785V223.2h-3.9v-1.54h-21v1.39h-3.71Zm3.71,2.94V220h21V188.87Zm15,.77v3.87h3.15a21.81,21.81,0,0,1-2.23-3.56l.19-.15a9.57,9.57,0,0,1,3.71,1.54,9.87,9.87,0,0,1-1.3,2.17h1.67v1.55h-5.19q-.2,2.94-.19,7.11c.12,2.68.25,4.74.37,6.19q1.68-3.26,1.3-11.14H780v1.08q-.18,8.35-3.9,13a34.52,34.52,0,0,0,2.23,3.24l1.48-5.25h.38l-.56,6,.74.46v3.56a13.12,13.12,0,0,1-6.49-6A67.57,67.57,0,0,1,766,219h-1.86a38.9,38.9,0,0,0,9.1-7.12q-1.49-4-1.49-16.85H761.22v-1.55h10.57v-3.87Zm-3.72,21.19q-1.84,3.72-9.83,5.88a4,4,0,0,0-.37-4q6.3,1.08,10-2ZM762,197.22h3.15v1.7h2v-1.7h3.15v13.15h-3.15v-1.86h-2v1.86H762Zm5.2,3.09h-2V207h2Z"/>
<path class="cls-1" d="M793.86,186.39v1.55H797v-1.08h3.34q0,5.26-.93,7.27-.93,2.16-4.64,5,5,1.08,5,4.95v1.23a26.12,26.12,0,0,0,3-3.55,29.48,29.48,0,0,1-2.41-4.18,8,8,0,0,1-1.12,1.39h-1.11q3.9-4.17,3.34-12.53h3.71a8.05,8.05,0,0,1-.37,2.33h1.67v-.93h3.34a21.77,21.77,0,0,1-5.94,14.54H815.2V204H803.51v-1.09a43.37,43.37,0,0,1-3.71,3.56v7.58c.12,1.65-1,3.09-3.53,4.33a1.2,1.2,0,0,0-1.29-.15l-1.12.46v4.95h-3.15V186.39Zm0,3.1v9.28q3.35-1.54,3.16-9.28Zm0,10v18.72q3-1.71,2.79-3.72v-9.43Q796.83,200.48,793.86,199.54Zm8,11h3.53q-.37,5.88-6.13,11h-1.48Q801.66,219,801.84,210.52Zm.93-16.55c-.13.21-.37.57-.74,1.09-.62.92-1,1.54-1.3,1.85,1.48,1,2.6,1.86,3.34,2.48a3.84,3.84,0,0,0,.93-2.17C804,195.88,803.26,194.8,802.77,194Zm16,13.3v1.55h-7.61v10.67q.18,2.32-4.27,3.71a1.94,1.94,0,0,0-1.67-.15l-2,.62-.18-.31q5.19-1.86,4.82-3.4V208.82h-7v-1.55Zm-12.25-17h-2.22a15.76,15.76,0,0,1-1.12,3.09,11.13,11.13,0,0,1,2.6,1.4A18.59,18.59,0,0,0,806.48,190.26Zm4.09-4.48h.37a16.2,16.2,0,0,1,.37,2.78h4.45v-1.39h3.34a12.35,12.35,0,0,1-4.82,9.12,17.65,17.65,0,0,0,5.75,4.49q-2,1.86-.93,5.1Q809.82,198.77,810.57,185.78Zm5,4.33h-4.09a26.84,26.84,0,0,0,2.23,5.41A10.19,10.19,0,0,0,815.58,190.11Zm-2.42,19.79a82.39,82.39,0,0,1,6.13,7.58,3.4,3.4,0,0,0,.56.78,2.82,2.82,0,0,1-.56.61,21.67,21.67,0,0,1-2,2.79,86.72,86.72,0,0,1-4.27-11.6Z"/>

 <a href="https://www.w3schools.com/graphics/tryit.asp?filename=trysvg_circle" >
        <polygon class="cls-2" points="6.42 109.41 6.42 281.43 155.39 367.43 304.36 281.43 304.36 109.41 155.39 23.41 6.42 109.41"/>
</a>

<polygon class="cls-2" points="304.36 109.41 304.36 281.43 453.32 367.43 602.29 281.43 602.29 109.41 453.32 23.41 304.36 109.41"/>
<polygon class="cls-2" points="453.32 367.36 453.32 539.37 602.29 625.38 751.26 539.37 751.26 367.36 602.29 281.36 453.32 367.36"/>
<polygon class="cls-2" points="751.26 367.36 751.26 539.37 900.23 625.38 1049.19 539.37 1049.19 367.36 900.23 281.36 751.26 367.36"/>
<polygon class="cls-2" points="900.23 109.41 900.23 281.43 1049.19 367.43 1198.16 281.43 1198.16 109.41 1049.19 23.41 900.23 109.41"/>
<polygon class="cls-2" points="1198.16 109.41 1198.16 281.43 1347.13 367.43 1496.09 281.43 1496.09 109.41 1347.13 23.41 1198.16 109.41"/>
</svg>