<svg id="圖層_1" data-name="圖層 1" xmlns="http://www.w3.org/2000/svg" xmlns:xlink="http://www.w3.org/1999/xlink" viewBox="0 0 500 160"><defs><style>.cls-1{fill:#5f7696;}.cls-1,.cls-2,.cls-27{fill-rule:evenodd;}.cls-2{fill:url(#新增漸層色票_1);}.cls-3{fill:url(#新增漸層色票_1-2);}.cls-4{fill:url(#未命名漸層_21);}.cls-5{fill:url(#未命名漸層_20);}.cls-6{fill:url(#未命名漸層_19);}.cls-7{fill:url(#未命名漸層_18);}.cls-8{fill:url(#未命名漸層_17);}.cls-9{fill:url(#未命名漸層_16);}.cls-10{fill:url(#未命名漸層_15);}.cls-11{fill:url(#未命名漸層_14);}.cls-12{fill:url(#未命名漸層_13);}.cls-13{fill:url(#未命名漸層_12);}.cls-14{fill:url(#未命名漸層_11);}.cls-15{fill:url(#未命名漸層_10);}.cls-16{fill:url(#未命名漸層_9);}.cls-17{fill:url(#未命名漸層_8);}.cls-18{fill:url(#未命名漸層_7);}.cls-19{fill:url(#未命名漸層_6);}.cls-20{fill:url(#未命名漸層_5);}.cls-21{fill:url(#未命名漸層_4);}.cls-22{fill:url(#未命名漸層_3);}.cls-23{fill:url(#未命名漸層_2);}.cls-24{fill:#4c6075;}.cls-25{fill:#fff;}.cls-26{fill:#211513;}.cls-27{fill:#ad181c;}.cls-28{fill:#cf121b;}</style><linearGradient id="新增漸層色票_1" x1="316.19" y1="75.72" x2="412.22" y2="75.72" gradientUnits="userSpaceOnUse"><stop offset="0" stop-color="#d33924"/><stop offset="0.15" stop-color="#cb3023"/><stop offset="0.35" stop-color="#bb1c21"/><stop offset="0.57" stop-color="#aa1b20"/><stop offset="1" stop-color="#7f191e"/><stop offset="1" stop-color="#7f191e"/></linearGradient><linearGradient id="新增漸層色票_1-2" x1="777.87" y1="-726.02" x2="859.98" y2="-726.02" gradientTransform="matrix(0.84, -0.54, 0.54, 0.84, 63.41, 1101.48)" xlink:href="#新增漸層色票_1"/><linearGradient id="未命名漸層_21" x1="739.64" y1="-705.11" x2="822.19" y2="-705.11" gradientTransform="translate(60.39 1049.03) rotate(-30.92) scale(0.99)" gradientUnits="userSpaceOnUse"><stop offset="0" stop-color="#cd3b28"/><stop offset="0.15" stop-color="#c53227"/><stop offset="0.35" stop-color="#b61f25"/><stop offset="0.57" stop-color="#a51e24"/><stop offset="1" stop-color="#7d1c22"/></linearGradient><linearGradient id="未命名漸層_20" x1="702.06" y1="-681.96" x2="785" y2="-681.96" gradientTransform="matrix(0.86, -0.48, 0.48, 0.86, 57.37, 996.58)" gradientUnits="userSpaceOnUse"><stop offset="0" stop-color="#c63d2c"/><stop offset="0.16" stop-color="#be342b"/><stop offset="0.35" stop-color="#b02329"/><stop offset="0.59" stop-color="#9f2228"/><stop offset="1" stop-color="#7a2026"/></linearGradient><linearGradient id="未命名漸層_19" x1="665.33" y1="-656.57" x2="748.6" y2="-656.57" gradientTransform="translate(54.35 944.13) rotate(-27.91) scale(0.98)" gradientUnits="userSpaceOnUse"><stop offset="0" stop-color="#c03f30"/><stop offset="0.17" stop-color="#b8362f"/><stop offset="0.35" stop-color="#ab262d"/><stop offset="0.6" stop-color="#9a252c"/><stop offset="1" stop-color="#78232a"/></linearGradient><linearGradient id="未命名漸層_18" x1="629.63" y1="-628.97" x2="713.19" y2="-628.97" gradientTransform="matrix(0.87, -0.43, 0.43, 0.87, 51.33, 891.68)" gradientUnits="userSpaceOnUse"><stop offset="0" stop-color="#b94133"/><stop offset="0.17" stop-color="#b23832"/><stop offset="0.35" stop-color="#a62931"/><stop offset="0.61" stop-color="#952830"/><stop offset="1" stop-color="#75272f"/></linearGradient><linearGradient id="未命名漸層_17" x1="595.16" y1="-599.22" x2="678.94" y2="-599.22" gradientTransform="translate(48.31 839.22) rotate(-24.84) scale(0.97)" gradientUnits="userSpaceOnUse"><stop offset="0" stop-color="#b34237"/><stop offset="0.18" stop-color="#ab3936"/><stop offset="0.35" stop-color="#a02c35"/><stop offset="0.63" stop-color="#8f2b34"/><stop offset="1" stop-color="#732a33"/></linearGradient><linearGradient id="未命名漸層_16" x1="562.1" y1="-567.41" x2="646.06" y2="-567.41" gradientTransform="translate(45.29 786.77) rotate(-23.29) scale(0.97)" gradientUnits="userSpaceOnUse"><stop offset="0" stop-color="#ac443b"/><stop offset="0.2" stop-color="#a43b3a"/><stop offset="0.35" stop-color="#9b3039"/><stop offset="0.64" stop-color="#8a2f38"/><stop offset="1" stop-color="#702d37"/></linearGradient><linearGradient id="未命名漸層_15" x1="530.65" y1="-533.61" x2="614.71" y2="-533.61" gradientTransform="translate(42.27 734.32) rotate(-21.72) scale(0.96)" gradientUnits="userSpaceOnUse"><stop offset="0" stop-color="#a6463f"/><stop offset="0.2" stop-color="#9e3d3e"/><stop offset="0.35" stop-color="#96333d"/><stop offset="0.66" stop-color="#85323c"/><stop offset="1" stop-color="#6e313b"/></linearGradient><linearGradient id="未命名漸層_14" x1="500.97" y1="-497.96" x2="585.07" y2="-497.96" gradientTransform="translate(39.25 681.87) rotate(-20.15) scale(0.96)" gradientUnits="userSpaceOnUse"><stop offset="0" stop-color="#9f4843"/><stop offset="0.21" stop-color="#983f42"/><stop offset="0.35" stop-color="#913641"/><stop offset="0.67" stop-color="#803540"/><stop offset="1" stop-color="#6b343f"/></linearGradient><linearGradient id="未命名漸層_13" x1="473.22" y1="-460.59" x2="557.3" y2="-460.59" gradientTransform="translate(36.23 629.42) rotate(-18.57) scale(0.96)" gradientUnits="userSpaceOnUse"><stop offset="0" stop-color="#994a47"/><stop offset="0.22" stop-color="#914146"/><stop offset="0.35" stop-color="#8b3945"/><stop offset="0.7" stop-color="#7a3944"/><stop offset="1" stop-color="#693843"/></linearGradient><linearGradient id="未命名漸層_12" x1="447.55" y1="-421.65" x2="531.54" y2="-421.65" gradientTransform="translate(33.22 576.97) rotate(-16.99) scale(0.96)" gradientUnits="userSpaceOnUse"><stop offset="0" stop-color="#934c4b"/><stop offset="0.24" stop-color="#8b434a"/><stop offset="0.35" stop-color="#863d49"/><stop offset="0.73" stop-color="#753c48"/><stop offset="1" stop-color="#673b47"/></linearGradient><linearGradient id="未命名漸層_11" x1="424.08" y1="-381.32" x2="507.93" y2="-381.32" gradientTransform="translate(30.2 524.51) rotate(-15.4) scale(0.96)" gradientUnits="userSpaceOnUse"><stop offset="0" stop-color="#8c4e4f"/><stop offset="0.26" stop-color="#85454e"/><stop offset="0.35" stop-color="#81404d"/><stop offset="0.75" stop-color="#703f4c"/><stop offset="1" stop-color="#643e4c"/></linearGradient><linearGradient id="未命名漸層_10" x1="402.93" y1="-339.79" x2="486.56" y2="-339.79" gradientTransform="translate(27.18 472.06) rotate(-13.82) scale(0.96)" gradientUnits="userSpaceOnUse"><stop offset="0" stop-color="#865052"/><stop offset="0.27" stop-color="#7e4751"/><stop offset="0.35" stop-color="#7b4351"/><stop offset="0.81" stop-color="#6a4250"/><stop offset="1" stop-color="#624250"/></linearGradient><linearGradient id="未命名漸層_9" x1="384.18" y1="-297.24" x2="467.53" y2="-297.24" gradientTransform="translate(24.16 419.61) rotate(-12.24) scale(0.96)" gradientUnits="userSpaceOnUse"><stop offset="0" stop-color="#7f5156"/><stop offset="0.31" stop-color="#774855"/><stop offset="0.35" stop-color="#764655"/><stop offset="0.84" stop-color="#654554"/><stop offset="1" stop-color="#5f4554"/></linearGradient><linearGradient id="未命名漸層_8" x1="367.89" y1="-253.88" x2="450.9" y2="-253.88" gradientTransform="translate(21.14 367.16) rotate(-10.67) scale(0.96)" gradientUnits="userSpaceOnUse"><stop offset="0" stop-color="#79535a"/><stop offset="0.35" stop-color="#714a59"/><stop offset="0.9" stop-color="#604958"/><stop offset="1" stop-color="#5d4958"/></linearGradient><linearGradient id="未命名漸層_7" x1="354.1" y1="-209.92" x2="436.71" y2="-209.92" gradientTransform="translate(18.12 314.71) rotate(-9.1) scale(0.97)" gradientUnits="userSpaceOnUse"><stop offset="0" stop-color="#72555e"/><stop offset="0.35" stop-color="#6b4d5d"/><stop offset="0.99" stop-color="#5a4c5c"/><stop offset="1" stop-color="#5a4c5c"/></linearGradient><linearGradient id="未命名漸層_6" x1="342.84" y1="-165.57" x2="424.99" y2="-165.57" gradientTransform="translate(15.1 262.26) rotate(-7.54) scale(0.97)" gradientUnits="userSpaceOnUse"><stop offset="0" stop-color="#6c5762"/><stop offset="0.35" stop-color="#665061"/><stop offset="1" stop-color="#584f60"/></linearGradient><linearGradient id="未命名漸層_5" x1="334.09" y1="-121.02" x2="415.72" y2="-121.02" gradientTransform="translate(12.08 209.81) rotate(-6) scale(0.98)" gradientUnits="userSpaceOnUse"><stop offset="0" stop-color="#655966"/><stop offset="0.35" stop-color="#615365"/><stop offset="1" stop-color="#555365"/></linearGradient><linearGradient id="未命名漸層_4" x1="327.83" y1="-76.49" x2="408.89" y2="-76.49" gradientTransform="translate(9.06 157.35) rotate(-4.48) scale(0.98)" gradientUnits="userSpaceOnUse"><stop offset="0" stop-color="#5f5b6a"/><stop offset="0.35" stop-color="#5c5769"/><stop offset="1" stop-color="#535669"/></linearGradient><linearGradient id="未命名漸層_3" x1="324.01" y1="-32.17" x2="404.45" y2="-32.17" gradientTransform="matrix(0.99, -0.05, 0.05, 0.99, 6.04, 104.9)" gradientUnits="userSpaceOnUse"><stop offset="0" stop-color="#595d6d"/><stop offset="0.35" stop-color="#565a6d"/><stop offset="1" stop-color="#515a6d"/></linearGradient><linearGradient id="未命名漸層_2" x1="322.56" y1="11.77" x2="402.33" y2="11.77" gradientTransform="translate(3.02 52.45) rotate(-1.47) scale(0.99)" gradientUnits="userSpaceOnUse"><stop offset="0" stop-color="#525f71"/><stop offset="0.35" stop-color="#515d71"/><stop offset="1" stop-color="#4e5d71"/></linearGradient></defs><path class="cls-1" d="M389.68,16.45a47.34,47.34,0,0,0-66,66.41A47.84,47.84,0,0,0,350.18,101c4.44,1.12,8.31,1.36,12.67,3.13,13.15,5.37,13,19.9-12.69,40.17,44-17.88,68.81-65.56,57.78-101.62a51.08,51.08,0,0,0-18.26-26.24Z"/><path class="cls-2" d="M391.46,16.24A47.34,47.34,0,1,0,352,100.37c4.45,1.11,8.57,1.21,12.73,3.43,12.9,6.87,11.11,22.94-14.55,40.51,44-17.88,70.58-65.78,59.55-101.83a51.08,51.08,0,0,0-18.26-26.24Z"/><path class="cls-3" d="M325.43,43.7A41.05,41.05,0,1,1,360,90.35,41,41,0,0,1,325.43,43.7Z"/><path class="cls-4" d="M325.35,44a41,41,0,1,1,34.51,46.56A41,41,0,0,1,325.35,44Z"/><path class="cls-5" d="M325.28,44.24a40.9,40.9,0,1,1,34.44,46.48,40.89,40.89,0,0,1-34.44-46.48Z"/><path class="cls-6" d="M325.2,44.51A40.83,40.83,0,1,1,359.59,90.9,40.83,40.83,0,0,1,325.2,44.51Z"/><path class="cls-7" d="M325.13,44.78a40.76,40.76,0,1,1,34.32,46.31,40.76,40.76,0,0,1-34.32-46.31Z"/><path class="cls-8" d="M325.05,45.05a40.69,40.69,0,1,1,34.26,46.22,40.7,40.7,0,0,1-34.26-46.22Z"/><path class="cls-9" d="M325,45.31a40.61,40.61,0,1,1,34.2,46.15A40.6,40.6,0,0,1,325,45.31Z"/><path class="cls-10" d="M324.9,45.58A40.54,40.54,0,1,1,359,91.64,40.54,40.54,0,0,1,324.9,45.58Z"/><path class="cls-11" d="M324.83,45.85a40.46,40.46,0,1,1,34.07,46,40.46,40.46,0,0,1-34.07-46Z"/><path class="cls-12" d="M324.75,46.12a40.39,40.39,0,1,1,34,45.89,40.4,40.4,0,0,1-34-45.89Z"/><path class="cls-13" d="M324.67,46.39a40.32,40.32,0,1,1,34,45.81,40.32,40.32,0,0,1-34-45.81Z"/><path class="cls-14" d="M324.6,46.65a40.25,40.25,0,1,1,33.89,45.74A40.24,40.24,0,0,1,324.6,46.65Z"/><path class="cls-15" d="M324.52,46.92a40.18,40.18,0,1,1,33.84,45.65,40.17,40.17,0,0,1-33.84-45.65Z"/><path class="cls-16" d="M324.45,47.19a40.11,40.11,0,1,1,33.77,45.57,40.1,40.1,0,0,1-33.77-45.57Z"/><path class="cls-17" d="M324.37,47.46a40,40,0,1,1,33.71,45.48,40,40,0,0,1-33.71-45.48Z"/><path class="cls-18" d="M324.3,47.73a40,40,0,1,1,33.64,45.4,39.94,39.94,0,0,1-33.64-45.4Z"/><path class="cls-19" d="M324.22,48a39.89,39.89,0,1,1,33.59,45.32A39.88,39.88,0,0,1,324.22,48Z"/><path class="cls-20" d="M324.15,48.26A39.81,39.81,0,1,1,357.67,93.5a39.8,39.8,0,0,1-33.52-45.24Z"/><path class="cls-21" d="M324.07,48.53a39.74,39.74,0,1,1,33.46,45.15,39.75,39.75,0,0,1-33.46-45.15Z"/><path class="cls-22" d="M324,48.8a39.67,39.67,0,1,1,33.4,45.07A39.66,39.66,0,0,1,324,48.8Z"/><path class="cls-23" d="M323.92,49.07a39.6,39.6,0,1,1,33.34,45,39.6,39.6,0,0,1-33.34-45Z"/><path class="cls-24" d="M323.84,49.33a39.53,39.53,0,1,1,33.28,44.91,39.53,39.53,0,0,1-33.28-44.91Z"/><path class="cls-25" d="M323.84,49.33a39.53,39.53,0,1,1,33.28,44.91,39.53,39.53,0,0,1-33.28-44.91Z"/><path class="cls-25" d="M325.32,49.55a38,38,0,1,1,32,43.21,38,38,0,0,1-32-43.21Z"/><path class="cls-26" d="M361.63,45a26,26,0,0,1-.28,2.62,6.71,6.71,0,0,1-.47,2,1.88,1.88,0,0,1-.7.67,1.81,1.81,0,0,1-.93.27h-3l-.4-1.17c.92.06,1.64.09,2.18.09a9.59,9.59,0,0,0,1.44-.08c.31,0,.53-.31.68-.77a13.05,13.05,0,0,0,.37-2.54H352.9q-1.35,3.19-6.61,4.58l-.59-1c3.07-.66,5.08-1.84,6.05-3.55h-6.09V45h6.51a5.77,5.77,0,0,0,.31-1.12h1a6.56,6.56,0,0,1-.24,1.12Zm-.46-2.38a1.61,1.61,0,0,1-.45,1.24c-.3.29-1.2.39-2.7.33l-.4-1.09a9.89,9.89,0,0,0,1.26.08A2.62,2.62,0,0,0,360,43a.51.51,0,0,0,.18-.46V41.7h-5.77v1.61h-1V41.7H348V44h-1V35.66h5.79a21.83,21.83,0,0,0-2.67-1.45l.55-.82a21.41,21.41,0,0,1,3.43,1.94q1.49-.66,4.56-2.45H346.34v-1h14.27v1c-1.79,1.06-3.48,2-5.09,2.78h5.65Zm-7.81-4.47V36.69H348v1.44Zm0,2.55V39.17H348v1.51Zm6.78-2.55V36.69h-5.77v1.44Zm0,2.55V39.17h-5.77v1.51Z"/><path class="cls-26" d="M372.36,36.63h-1.53V50.51h-1V46.93c-1.85.6-4,1.21-6.43,1.8l-.29-1.13c.75-.15,1.27-.27,1.55-.35V36.63h-1.55V35.55h4.26V32.86h-3.54V31.79h8.06v1.07h-3.48v2.69h4ZM369.81,39v-2.4h-4.13V39Zm0,3.63v-2.5h-4.13v2.5Zm0,3.05V43.77h-4.13V47C367.13,46.57,368.5,46.15,369.81,45.71Zm10.6,3.87-.67,1a12.55,12.55,0,0,1-3.78-3.8,15.42,15.42,0,0,1-3.74,3.75l-.69-1a11.71,11.71,0,0,0,3.83-3.75,18.91,18.91,0,0,1-1.65-5.59l1-.36A18.08,18.08,0,0,0,376,44.61a22.11,22.11,0,0,0,1.6-8.7h-2.84a27.69,27.69,0,0,1-2.05,4.88l-.81-.68a26.77,26.77,0,0,0,2.87-9.1l1,.31c-.26,1.45-.51,2.59-.73,3.41h5.25v1.18h-1.66c-.15,4.24-.83,7.53-2,9.84A11.35,11.35,0,0,0,380.41,49.58Z"/><path class="cls-26" d="M351,67.57a19.93,19.93,0,0,1-2.21,1v6.46a2.52,2.52,0,0,1-.34,1.3c-.23.37-.74.56-1.54.56-.35,0-.68,0-1,0l-.32-1.08c.35,0,.88,0,1.59,0a.57.57,0,0,0,.39-.2.59.59,0,0,0,.2-.41V69c-.79.38-1.58.71-2.37,1L345,69c1.11-.41,2-.78,2.75-1.1V62.75h-2.52V61.6h2.52v-4h1v4h1.94v1.15H348.8v4.63c.63-.28,1.28-.59,1.94-.93Zm4.51-.42a14.86,14.86,0,0,1-1,5.93,11.07,11.07,0,0,1-2.91,4l-.77-.82a10.37,10.37,0,0,0,3.56-7.84,26.35,26.35,0,0,1-3.31,3l-.67-1a32.54,32.54,0,0,0,4.13-3.68V57.58h1Zm-1.82-2.49-1,.53a27.68,27.68,0,0,0-1.82-4.5l1-.54A27.46,27.46,0,0,1,353.7,64.66Zm8.8,8.15a5.75,5.75,0,0,1-.69,3,1.92,1.92,0,0,1-1.64.79,5.15,5.15,0,0,1-2.35-.36c-.4-.24-.6-.77-.6-1.58V57.58h1v5.89a19.89,19.89,0,0,0,3.13-3l.75.94A34,34,0,0,1,358.24,65v1.85a24.7,24.7,0,0,1,4.07,3.36l-.68.94a25.44,25.44,0,0,0-3.39-3v6.6c0,.48.49.72,1.48.72A1.5,1.5,0,0,0,361,75a6.43,6.43,0,0,0,.46-2.62Z"/><path class="cls-26" d="M373.29,73.77h-4.16v3.14h-1V73.77h-4.6v-1h4.6V71h-3.68V63.67h8.33V71h-3.65v1.71h4.16ZM368,62.37h-4V58.11h4Zm-.95-1V59.2H365v2.16Zm1.07,5.37v-2h-2.67v2Zm0,3.22V67.82h-2.67V70Zm3.63-3.22v-2h-2.63v2Zm0,3.22V67.82h-2.63V70Zm1.51-7.58h-4V58.11h4Zm-1-1V59.22h-2.09v2.14ZM380.85,73a11.46,11.46,0,0,1-.9,3,1.4,1.4,0,0,1-1.23.88c-.91,0-1.68-1.3-2.29-3.89a23.16,23.16,0,0,1-3.34,3.33l-.75-.8a21.33,21.33,0,0,0,3.85-3.87,51.32,51.32,0,0,1-.56-6.56c-.37,0-1,.1-1.94.17l-.08-1.1a17.33,17.33,0,0,0,2-.2l-.06-6.33h1v6.22c.82,0,2.16-.18,4-.4l.08,1.11-4,.39a47,47,0,0,0,.38,5.44,21,21,0,0,0,2.3-4.65l.88.53a28.78,28.78,0,0,1-3,5.65,19.52,19.52,0,0,0,.52,2.07,5.06,5.06,0,0,0,.57,1.32c.18.26.33.39.44.39a.38.38,0,0,0,.25-.09,4.23,4.23,0,0,0,.44-1.07,14.19,14.19,0,0,0,.52-2.34Zm-.69-11.26-.86.6a15.15,15.15,0,0,0-1.81-3l.82-.57A15.09,15.09,0,0,1,380.16,61.71Z"/><path class="cls-27" d="M354.94,149.1a3.68,3.68,0,1,1-3.68-3.68,3.68,3.68,0,0,1,3.68,3.68Z"/><path class="cls-28" d="M47.36,80.14l-.8,1a20.4,20.4,0,0,1-5.79-5.36,21.31,21.31,0,0,1-3.24-7.55q-1.35,7.89-9.18,12.84l-.77-1a24.24,24.24,0,0,0,3.83-3,18.65,18.65,0,0,0,3.05-3.72,16.14,16.14,0,0,0,1.87-5.38H28V66.76h8.56a48.34,48.34,0,0,0,.38-5.46h1.29c-.08,2-.22,3.78-.43,5.46H47v1.17H38.67A20.27,20.27,0,0,0,42,75.47,18.94,18.94,0,0,0,47.36,80.14Z"/><path class="cls-28" d="M56.28,79.64a1.68,1.68,0,0,1-.2.86,1.17,1.17,0,0,1-.48.44,4.38,4.38,0,0,1-1.34.12,6.05,6.05,0,0,1-.63,0l-.38-1.16c.26,0,.79,0,1.59,0,.23,0,.34-.14.34-.43V72.6C53.89,74.08,53,75,52.57,75.49L52,74.76a23,23,0,0,1-1,6.37L50,80.38a25.5,25.5,0,0,0,.88-6.8V61.93h5.37Zm-1.1-11.78V63.08H52V66.2l.38-.51A16.45,16.45,0,0,1,55.18,67.86Zm0,.32-.45.69A20.33,20.33,0,0,0,52,66.63v7.75a31.5,31.5,0,0,0,3.17-3.5Zm14.54-2.06h-3.1v1.43a.33.33,0,0,0,.14.25.43.43,0,0,0,.26.13h2.43v1H66.82a1.24,1.24,0,0,1-.87-.36,1.15,1.15,0,0,1-.39-.86V66.12H63.48a5.2,5.2,0,0,1-2.68,3.36L60,68.63a3.81,3.81,0,0,0,2.3-2.51h-3v5.09q0,6.67-1.58,9.87l-.94-.65a19.08,19.08,0,0,0,1.41-8.11V66a5,5,0,0,1-.73.49l-.73-.87A10.37,10.37,0,0,0,61,61.21l1,.36a3,3,0,0,1-.45.84h5.8V63.5A19.82,19.82,0,0,1,66,65.05h3.75ZM65.9,63.5h-5a11.27,11.27,0,0,1-1.5,1.55h4.92A14.45,14.45,0,0,0,65.9,63.5Zm3.67,7.76H59.94V70.2h4a12.16,12.16,0,0,0-.61-1.53l1.08-.36a10.8,10.8,0,0,1,.67,1.89h4.46Zm-.75,9.82H67.7v-1H61.85v1H60.74V76.45h8.08Zm0-7.75H60.76v-1h8.06Zm0,2H60.76v-1h8.06ZM67.7,79v-1.5H61.85V79Z"/><path class="cls-28" d="M91.19,68.13H90V64.7H74.67v3.41H73.5V63.7h8.25V61.3h1.16v2.4h8.28Zm-.07,5.35H76a1.42,1.42,0,0,1-1-.37,1.3,1.3,0,0,1-.37-1V69.08h1.13v1.33H89.56v.94H75.75v.76c0,.31.14.47.43.47H91.12ZM89.52,81H88.36v-.9H76.26V81H75.12V74.85h14.4ZM79,62.81l-1.2.38A17.2,17.2,0,0,0,76,61.75l1.12-.47A9,9,0,0,1,79,62.81ZM88.36,77V75.79H76.26V77Zm0,2.19V77.89H76.26v1.27Zm-.34-10H76.71V66H88ZM87,68.22V66.94H77.79v1.28Zm1.82-6.45a10.61,10.61,0,0,1-1.84,1.46l-1.15-.54a10.31,10.31,0,0,0,1.82-1.41Z"/><path class="cls-28" d="M102.09,64.92h-7v-1.1H98.2a14.58,14.58,0,0,0-.9-2.25l1.08-.36a16.5,16.5,0,0,1,1.05,2.61h2.66Zm-.48,3.24h-6v-1.1h6Zm0,3.21h-6V70.3h6Zm-.28,9.14H100.2V79.39H97.07v1.66H95.86V73.58h5.47Zm-1.13-2.24V74.7H97.07v3.57Zm9-.9q-3.4,1.32-6.65,2.32l-.34-1.13c1-.29,2-.6,2.86-.92v-7h-2.25v-1.1h5.73v1.1H106.2v6.56c.85-.28,1.82-.63,2.9-1Zm5.55-.65Q114,81,112.62,81a1.3,1.3,0,0,1-1.1-.77,16.66,16.66,0,0,1-1.17-3.58,54.47,54.47,0,0,1-.91-10.06h-6.61V65.5h6.59c0-1.37,0-2.77,0-4.18h1.14V65.5h3.92v1.13H110.6a49.31,49.31,0,0,0,.92,10.24c.51,1.93.88,2.9,1.09,2.9s.28-.3.5-.9a13.64,13.64,0,0,0,.62-2.85Zm-.45-12.61-.88.61a15.46,15.46,0,0,0-1.76-2.31l.82-.62A9.46,9.46,0,0,1,114.31,64.11Z"/><path class="cls-28" d="M127,73.28a1.25,1.25,0,0,1-.81-1.09,1.06,1.06,0,0,1,.27-.65,1,1,0,0,1,.78-.33c.71,0,1.06.46,1.06,1.38A2.9,2.9,0,0,1,127,74.77l-.47-.36A2,2,0,0,0,127,73.28Z"/><path class="cls-28" d="M142.23,75.75A23.36,23.36,0,0,1,141,81L140,80.61a26.09,26.09,0,0,0,1.26-5.08Zm5.66-1.59-1,.38-.36-1.1c-2.63.7-4.62,1.19-6,1.45l-.29-.94a60.47,60.47,0,0,0,4.27-5.52c-.92.17-2.24.36-4,.58l-.13-1a25.68,25.68,0,0,0,4.16-6.7l1,.49A29.12,29.12,0,0,1,142,67.71c1.41-.14,2.47-.29,3.19-.43a22.43,22.43,0,0,0,1.27-2.09l1.07.54a51.19,51.19,0,0,1-5.66,7.71,39.85,39.85,0,0,0,4.2-1,7.84,7.84,0,0,0-.67-1.53l.92-.36A18.82,18.82,0,0,1,147.89,74.16Zm-2.63,6.13-1.12.14a25.22,25.22,0,0,0-.61-4.55l1.06-.26A29.5,29.5,0,0,1,145.26,80.29Zm2.76-2-1.07.26a17.79,17.79,0,0,0-.81-3.09l1-.32A19.45,19.45,0,0,1,148,78.3Zm11.52-13.92h-3l.88.63c-.35.95-.72,1.87-1.12,2.76h2.87v3.42H158V68.87h-3.92v3.21h4.21v5.58a1.43,1.43,0,0,1-.47,1c-.32.3-1.22.42-2.7.35l-.36-1h1.38a1.66,1.66,0,0,0,.82-.14.49.49,0,0,0,.21-.42V73.13h-3.09V81H153V73.13h-3v6.18H148.9V72.08H153V68.87h-3.91v2.34H148V67.77h3.06c-.14-.41-.56-1.33-1.24-2.76l.86-.63h-3v-1.1h5.12a5.69,5.69,0,0,0-.56-1.69l1.06-.38a14.19,14.19,0,0,1,.63,2.07h5.6Zm-3.24,0h-5.49a25.47,25.47,0,0,1,1.42,3.39h2.83A20.79,20.79,0,0,0,156.3,64.38Z"/><path class="cls-28" d="M182.25,79.46,182,80.61c-.75,0-3.44,0-8.06,0-3.82,0-6.52-.82-8.12-2.48a17.14,17.14,0,0,1-2.61,3l-.87-.79a13.48,13.48,0,0,0,4.38-7.19H163v-1c1-1.25,2.2-2.78,3.49-4.6h-3.92V66.33H168v1.18q-1,1.38-3.37,4.53H168v1.11a18.1,18.1,0,0,1-1.61,4.06,7.18,7.18,0,0,0,2.51,1.6,11.05,11.05,0,0,0,2.83.6q1.49.12,6,.12C180,79.53,181.5,79.5,182.25,79.46ZM167.17,64.74l-.87.78A18.25,18.25,0,0,0,163,62.2l.81-.84A15.38,15.38,0,0,1,167.17,64.74ZM182,69.79H168.72v-1.1h6.19V65.46h-3.62c-.67,1-1.15,1.73-1.42,2.09l-1-.61a15.85,15.85,0,0,0,2.76-5.26l1.1.25a16.32,16.32,0,0,1-.92,2.43h3.06v-3h1.14v3h4.85v1.1h-4.85v3.23H182Zm-1.35,7.31H170.41V71.71h10.23ZM179.46,76V72.85h-7.87V76Z"/><path class="cls-28" d="M189.2,76.24A29.16,29.16,0,0,1,186,81l-.92-.72a23.66,23.66,0,0,0,3.15-4.58Zm15.42-1.37H185.08V73.75h3.34V69.91h-2.89V68.76h2.89V66h1.14v2.72h2.9V66h1.15v2.72h2.92V66h1.12v2.72h3V66h1.09v2.72h2.43v1.15h-2.43v3.84h2.88Zm-.79-9.78H188.46a13.56,13.56,0,0,1-2.29,2l-.9-.81a22,22,0,0,0,4.89-4.93l1.16.43q-.81,1.11-1.8,2.25h14.31Zm-11.37,8.66V69.91h-2.9v3.84Zm.9,7-1.14.22a22,22,0,0,0-.71-4.92l1.13-.25A24,24,0,0,1,193.36,80.79Zm3.17-7V69.91h-2.92v3.84ZM199,80.63l-1.1.42a29.15,29.15,0,0,0-1.75-4.85l1.07-.41A26.74,26.74,0,0,1,199,80.63Zm1.65-6.88V69.91h-3v3.84Zm3.95,6.74-1,.54a24.82,24.82,0,0,0-2.76-4.74l1.07-.54A28.78,28.78,0,0,1,204.6,80.49Z"/><path class="cls-28" d="M212.71,68.22a9.59,9.59,0,0,1,2,5.29,2.86,2.86,0,0,1-.79,2.17c-.53.52-1.58.74-3.15.67l-.47-1.18c.37,0,.75,0,1.13,0a2.58,2.58,0,0,0,1.67-.39,2,2,0,0,0,.43-1.46,7.62,7.62,0,0,0-2-4.86q.7-1.87,1.78-5.42H209.7V81h-1.14V61.93h5.79v1.15A50.47,50.47,0,0,1,212.71,68.22Zm13.08,2.61h-8.16v8.72a26.26,26.26,0,0,0,3.67-1.35l.09,1.24A38.09,38.09,0,0,1,216.73,81l-.54-1.14a.88.88,0,0,0,.25-.63V61.89h9.35Zm-1.23-5.14V63.05h-6.93v2.64Zm0,4V66.83h-6.93v2.85Zm3,10.46-.81,1a14.21,14.21,0,0,1-6.36-8.38l1.1-.48a15.09,15.09,0,0,0,1.12,2.84A17.8,17.8,0,0,0,226,72.18l.9.76a24.88,24.88,0,0,1-3.78,3.15A11.13,11.13,0,0,0,227.52,80.14Z"/><path class="cls-28" d="M249.5,63H247V79.48a1.33,1.33,0,0,1-.52,1.12,2.05,2.05,0,0,1-1.26.39c-2,0-3.33,0-4,0l-.42-1.25c.93.08,2.37.11,4.34.11.48,0,.72-.22.72-.68V63H230V61.83H249.5Zm-7.61,12.85h-9.5v-9.1h9.5Zm-1.18-1.17V67.9h-7.14v6.75Z"/><path class="cls-28" d="M263,67.23l-.92.75a11.26,11.26,0,0,0-.86-1.35c-2.71.39-5.51.66-8.38.8l-.43-1A13,13,0,0,0,256,61.39l1.16.29a18.53,18.53,0,0,1-2.94,4.59q3.52-.28,6.23-.65a19.25,19.25,0,0,0-1.89-2.12l1-.64A17.31,17.31,0,0,1,263,67.23Zm-1.46,12.5a1.26,1.26,0,0,1-.41,1,1.57,1.57,0,0,1-.91.43c-.34,0-1,0-2.15,0L257.59,80l1.05,0A8,8,0,0,0,260,80a.39.39,0,0,0,.32-.41V75.92c-2.16,1-3.92,1.69-5.3,2.17l-.52-.76a12.82,12.82,0,0,1-1.07,3.78l-1-.6a14.66,14.66,0,0,0,1-5.36V69.1h8.06Zm-1.17-5.08V70.22h-5.69v1.6a30.2,30.2,0,0,1,4.87,1.33l-.53,1a34.74,34.74,0,0,0-4.34-1.2v2.19c0,.63,0,1.24-.09,1.84A47.83,47.83,0,0,0,260.36,74.65ZM272,77.21a7.53,7.53,0,0,1-.47,2.49,1.92,1.92,0,0,1-.85,1,4.91,4.91,0,0,1-1.83.23l-3.37,0a1.68,1.68,0,0,1-1.21-.44,1.49,1.49,0,0,1-.46-1.15V70.86H265v3.26h6.45v1.07H265v4c0,.43.27.64.81.64,2.28,0,3.58,0,3.91,0a1.07,1.07,0,0,0,.76-.45,6.52,6.52,0,0,0,.45-2.42Zm-.24-7.28h-6.54a1.27,1.27,0,0,1-1-.43,1.54,1.54,0,0,1-.39-1v-7H265v2.81h6.43v1.08H265v2.94q0,.54.6.54h6.21Z"/><path class="cls-28" d="M277.19,66.36a27.54,27.54,0,0,1-1.14,5.44l-1.15-.32A28.13,28.13,0,0,0,276,66.2ZM282,68.43l-.73.87a19.62,19.62,0,0,0-1.8-1.89V81h-1.18V61.34h1.18v4.57A23.13,23.13,0,0,1,282,68.43Zm12.48,12.08H281.6V79.35h6.27V73.48h-5.19V72.34h5.19v-5h-3.26a17.64,17.64,0,0,1-2,3.84l-1-.61a22.64,22.64,0,0,0,2.92-7.82l1.16.25a21.45,21.45,0,0,1-.76,3.15h2.86V61.42h1.24v4.76h4.94v1.19h-4.94v5h4.42v1.14h-4.42v5.87h5.32Z"/></svg>