<?xml version="1.0" encoding="utf-8"?>
<!-- Generator: Adobe Illustrator 24.1.1, SVG Export Plug-In . SVG Version: 6.00 Build 0)  -->
<svg version="1.1" xmlns="http://www.w3.org/2000/svg" xmlns:xlink="http://www.w3.org/1999/xlink" x="0px" y="0px"
	 viewBox="0 0 500 160" style="enable-background:new 0 0 500 160;" xml:space="preserve">
<style type="text/css">
	.st0{fill-rule:evenodd;clip-rule:evenodd;fill:#5F7696;}
	.st1{fill-rule:evenodd;clip-rule:evenodd;fill:url(#SVGID_1_);}
	.st2{fill:url(#SVGID_2_);}
	.st3{fill:url(#SVGID_3_);}
	.st4{fill:url(#SVGID_4_);}
	.st5{fill:url(#SVGID_5_);}
	.st6{fill:url(#SVGID_6_);}
	.st7{fill:url(#SVGID_7_);}
	.st8{fill:url(#SVGID_8_);}
	.st9{fill:url(#SVGID_9_);}
	.st10{fill:url(#SVGID_10_);}
	.st11{fill:url(#SVGID_11_);}
	.st12{fill:url(#SVGID_12_);}
	.st13{fill:url(#SVGID_13_);}
	.st14{fill:url(#SVGID_14_);}
	.st15{fill:url(#SVGID_15_);}
	.st16{fill:url(#SVGID_16_);}
	.st17{fill:url(#SVGID_17_);}
	.st18{fill:url(#SVGID_18_);}
	.st19{fill:url(#SVGID_19_);}
	.st20{fill:url(#SVGID_20_);}
	.st21{fill:url(#SVGID_21_);}
	.st22{fill:url(#SVGID_22_);}
	.st23{fill:#4C6075;}
	.st24{fill:#FFFFFF;}
	.st25{fill:#211513;}
	.st26{fill-rule:evenodd;clip-rule:evenodd;fill:#AD181C;}
	.st27{opacity:0;fill-rule:evenodd;clip-rule:evenodd;fill:#FFFFFF;}
</style>
<g id="圖層_1">
	<g>
		<path class="st0" d="M106.8,146.7c21.4,15.2,51,10.2,66.2-11.2c15.2-21.4,10.2-51-11.2-66.2c-4.7-3.3-9.9-5.8-15.5-7.2
			c-4.4-1.1-8.3-1.3-12.7-3.1c-13.2-5.4-13-19.9,12.7-40.2c-44,17.9-68.8,65.6-57.8,101.6C91.7,130.9,98.1,140.1,106.8,146.7
			L106.8,146.7z"/>
		
			<linearGradient id="SVGID_1_" gradientUnits="userSpaceOnUse" x1="84.2944" y1="73.1003" x2="180.3333" y2="73.1003" gradientTransform="matrix(1 0 0 -1 0 160.5511)">
			<stop  offset="0" style="stop-color:#D33924"/>
			<stop  offset="0.15" style="stop-color:#CB3023"/>
			<stop  offset="0.35" style="stop-color:#BB1C21"/>
			<stop  offset="0.57" style="stop-color:#AA1B20"/>
			<stop  offset="1" style="stop-color:#7F191E"/>
			<stop  offset="1" style="stop-color:#7F191E"/>
		</linearGradient>
		<path class="st1" d="M105.1,146.9c21.1,15.4,50.7,10.8,66.2-10.3s10.8-50.7-10.3-66.2c-4.9-3.6-10.5-6.2-16.4-7.7
			c-4.4-1.1-8.6-1.2-12.7-3.4c-12.9-6.9-11.1-22.9,14.6-40.5c-44,17.9-70.6,65.8-59.6,101.8C89.9,131.2,96.3,140.4,105.1,146.9
			L105.1,146.9z"/>
		
			<linearGradient id="SVGID_2_" gradientUnits="userSpaceOnUse" x1="89.4209" y1="47.1265" x2="171.5387" y2="47.1265" gradientTransform="matrix(1 0 0 -1 0 160.5511)">
			<stop  offset="0" style="stop-color:#D33924"/>
			<stop  offset="0.15" style="stop-color:#CB3023"/>
			<stop  offset="0.35" style="stop-color:#BB1C21"/>
			<stop  offset="0.57" style="stop-color:#AA1B20"/>
			<stop  offset="1" style="stop-color:#7F191E"/>
			<stop  offset="1" style="stop-color:#7F191E"/>
		</linearGradient>
		<path class="st2" d="M171.1,119.5c-3.3,22.4-24.2,37.9-46.6,34.6s-37.9-24.2-34.6-46.6c3.3-22.4,24.2-37.9,46.6-34.6c0,0,0,0,0,0
			C158.9,76.1,174.4,97,171.1,119.5C171.1,119.4,171.1,119.4,171.1,119.5z"/>
		
			<linearGradient id="SVGID_3_" gradientUnits="userSpaceOnUse" x1="89.5972" y1="47.3676" x2="171.6081" y2="47.3676" gradientTransform="matrix(1 0 0 -1 0 160.5511)">
			<stop  offset="0" style="stop-color:#CD3B28"/>
			<stop  offset="0.15" style="stop-color:#C53227"/>
			<stop  offset="0.35" style="stop-color:#B61F25"/>
			<stop  offset="0.57" style="stop-color:#A51E24"/>
			<stop  offset="1" style="stop-color:#7D1C22"/>
		</linearGradient>
		<path class="st3" d="M171.2,119.2c-3.3,22.4-24.2,37.9-46.6,34.5S86.7,129.6,90,107.2c3.3-22.4,24.2-37.9,46.6-34.5c0,0,0,0,0,0
			C159,76,174.5,96.8,171.2,119.2z"/>
		
			<linearGradient id="SVGID_4_" gradientUnits="userSpaceOnUse" x1="89.8706" y1="47.6537" x2="171.6816" y2="47.6537" gradientTransform="matrix(1 0 0 -1 0 160.5511)">
			<stop  offset="0" style="stop-color:#C63D2C"/>
			<stop  offset="0.16" style="stop-color:#BE342B"/>
			<stop  offset="0.35" style="stop-color:#B02329"/>
			<stop  offset="0.59" style="stop-color:#9F2228"/>
			<stop  offset="1" style="stop-color:#7A2026"/>
		</linearGradient>
		<path class="st4" d="M171.2,118.9c-3.3,22.3-24.1,37.8-46.5,34.4S87,129.2,90.3,106.9c3.3-22.3,24.1-37.8,46.5-34.4
			C159.1,75.8,174.6,96.6,171.2,118.9C171.2,118.9,171.2,118.9,171.2,118.9z"/>
		
			<linearGradient id="SVGID_5_" gradientUnits="userSpaceOnUse" x1="90.0884" y1="47.9233" x2="171.758" y2="47.9233" gradientTransform="matrix(1 0 0 -1 0 160.5511)">
			<stop  offset="0" style="stop-color:#C03F30"/>
			<stop  offset="0.17" style="stop-color:#B8362F"/>
			<stop  offset="0.35" style="stop-color:#AB262D"/>
			<stop  offset="0.6" style="stop-color:#9A252C"/>
			<stop  offset="1" style="stop-color:#78232A"/>
		</linearGradient>
		<path class="st5" d="M171.3,118.6c-3.3,22.3-24.1,37.7-46.4,34.4s-37.7-24.1-34.4-46.4s24.1-37.7,46.4-34.4c0,0,0,0,0,0
			C159.2,75.6,174.6,96.3,171.3,118.6z"/>
		
			<linearGradient id="SVGID_6_" gradientUnits="userSpaceOnUse" x1="90.3074" y1="48.1613" x2="171.837" y2="48.1613" gradientTransform="matrix(1 0 0 -1 0 160.5511)">
			<stop  offset="0" style="stop-color:#B94133"/>
			<stop  offset="0.17" style="stop-color:#B23832"/>
			<stop  offset="0.35" style="stop-color:#A62931"/>
			<stop  offset="0.61" style="stop-color:#952830"/>
			<stop  offset="1" style="stop-color:#75272F"/>
		</linearGradient>
		<path class="st6" d="M171.4,118.4c-3.3,22.3-24,37.6-46.3,34.3s-37.6-24-34.3-46.3c3.3-22.3,24-37.6,46.3-34.3
			C159.3,75.4,174.7,96.1,171.4,118.4z"/>
		
			<linearGradient id="SVGID_7_" gradientUnits="userSpaceOnUse" x1="90.5168" y1="48.4121" x2="171.9091" y2="48.4121" gradientTransform="matrix(1 0 0 -1 0 160.5511)">
			<stop  offset="0" style="stop-color:#B34237"/>
			<stop  offset="0.18" style="stop-color:#AB3936"/>
			<stop  offset="0.35" style="stop-color:#A02C35"/>
			<stop  offset="0.63" style="stop-color:#8F2B34"/>
			<stop  offset="1" style="stop-color:#732A33"/>
		</linearGradient>
		<path class="st7" d="M171.5,118.1c-3.3,22.2-24,37.6-46.2,34.3s-37.6-24-34.3-46.2s24-37.6,46.2-34.3c0,0,0,0,0,0
			C159.4,75.2,174.8,95.9,171.5,118.1C171.5,118.1,171.5,118.1,171.5,118.1L171.5,118.1z"/>
		
			<linearGradient id="SVGID_8_" gradientUnits="userSpaceOnUse" x1="90.736" y1="48.6715" x2="171.9883" y2="48.6715" gradientTransform="matrix(1 0 0 -1 0 160.5511)">
			<stop  offset="0" style="stop-color:#AC443B"/>
			<stop  offset="0.2" style="stop-color:#A43B3A"/>
			<stop  offset="0.35" style="stop-color:#9B3039"/>
			<stop  offset="0.64" style="stop-color:#8A2F38"/>
			<stop  offset="1" style="stop-color:#702D37"/>
		</linearGradient>
		<path class="st8" d="M171.5,117.9c-3.3,22.2-24,37.5-46.2,34.2c-22.2-3.3-37.5-24-34.2-46.2s24-37.5,46.2-34.2c0,0,0,0,0,0
			C159.5,75,174.8,95.7,171.5,117.9C171.5,117.8,171.5,117.8,171.5,117.9z"/>
		
			<linearGradient id="SVGID_9_" gradientUnits="userSpaceOnUse" x1="90.9651" y1="48.8796" x2="172.056" y2="48.8796" gradientTransform="matrix(1 0 0 -1 0 160.5511)">
			<stop  offset="0" style="stop-color:#A6463F"/>
			<stop  offset="0.2" style="stop-color:#9E3D3E"/>
			<stop  offset="0.35" style="stop-color:#96333D"/>
			<stop  offset="0.66" style="stop-color:#85323C"/>
			<stop  offset="1" style="stop-color:#6E313B"/>
		</linearGradient>
		<path class="st9" d="M171.6,117.6c-3.3,22.1-23.9,37.4-46.1,34.1c-22.1-3.3-37.4-23.9-34.1-46.1c3.3-22.1,23.9-37.4,46.1-34.1
			C159.6,74.9,174.9,95.5,171.6,117.6C171.6,117.6,171.6,117.6,171.6,117.6z"/>
		
			<linearGradient id="SVGID_10_" gradientUnits="userSpaceOnUse" x1="91.1872" y1="49.2085" x2="172.1381" y2="49.2085" gradientTransform="matrix(1 0 0 -1 0 160.5511)">
			<stop  offset="0" style="stop-color:#9F4843"/>
			<stop  offset="0.21" style="stop-color:#983F42"/>
			<stop  offset="0.35" style="stop-color:#913641"/>
			<stop  offset="0.67" style="stop-color:#803540"/>
			<stop  offset="1" style="stop-color:#6B343F"/>
		</linearGradient>
		<path class="st10" d="M171.7,117.3c-3.3,22.1-23.9,37.4-46,34.1s-37.4-23.9-34.1-46c3.3-22.1,23.9-37.3,46-34.1
			C159.7,74.6,175,95.2,171.7,117.3C171.7,117.3,171.7,117.3,171.7,117.3z"/>
		
			<linearGradient id="SVGID_11_" gradientUnits="userSpaceOnUse" x1="91.4138" y1="49.4499" x2="172.2047" y2="49.4499" gradientTransform="matrix(1 0 0 -1 0 160.5511)">
			<stop  offset="0" style="stop-color:#994A47"/>
			<stop  offset="0.22" style="stop-color:#914146"/>
			<stop  offset="0.35" style="stop-color:#8B3945"/>
			<stop  offset="0.7" style="stop-color:#7A3944"/>
			<stop  offset="1" style="stop-color:#693843"/>
		</linearGradient>
		<path class="st11" d="M171.8,117c-3.3,22.1-23.8,37.3-45.9,34c-22.1-3.3-37.3-23.8-34-45.9c3.3-22.1,23.8-37.3,45.9-34
			c0,0,0,0,0,0C159.8,74.4,175,95,171.8,117z"/>
		
			<linearGradient id="SVGID_12_" gradientUnits="userSpaceOnUse" x1="91.6332" y1="49.7004" x2="172.284" y2="49.7004" gradientTransform="matrix(1 0 0 -1 0 160.5511)">
			<stop  offset="0" style="stop-color:#934C4B"/>
			<stop  offset="0.24" style="stop-color:#8B434A"/>
			<stop  offset="0.35" style="stop-color:#863D49"/>
			<stop  offset="0.73" style="stop-color:#753C48"/>
			<stop  offset="1" style="stop-color:#673B47"/>
		</linearGradient>
		<path class="st12" d="M171.8,116.8c-3.3,22-23.8,37.2-45.8,34s-37.2-23.8-34-45.8c3.3-22,23.8-37.2,45.8-34
			C159.9,74.2,175.1,94.7,171.8,116.8C171.8,116.7,171.8,116.8,171.8,116.8z"/>
		
			<linearGradient id="SVGID_13_" gradientUnits="userSpaceOnUse" x1="91.8416" y1="49.9543" x2="172.3342" y2="49.9543" gradientTransform="matrix(1 0 0 -1 0 160.5511)">
			<stop  offset="0" style="stop-color:#8C4E4F"/>
			<stop  offset="0.26" style="stop-color:#85454E"/>
			<stop  offset="0.35" style="stop-color:#81404D"/>
			<stop  offset="0.75" style="stop-color:#703F4C"/>
			<stop  offset="1" style="stop-color:#643E4C"/>
		</linearGradient>
		<path class="st13" d="M171.9,116.5c-3.3,22-23.7,37.2-45.7,33.9c-22-3.3-37.2-23.7-33.9-45.7c3.3-22,23.7-37.2,45.7-33.9
			C160,74,175.2,94.5,171.9,116.5C171.9,116.5,171.9,116.5,171.9,116.5L171.9,116.5z"/>
		
			<linearGradient id="SVGID_14_" gradientUnits="userSpaceOnUse" x1="92.0653" y1="50.1761" x2="172.4373" y2="50.1761" gradientTransform="matrix(1 0 0 -1 0 160.5511)">
			<stop  offset="0" style="stop-color:#865052"/>
			<stop  offset="0.27" style="stop-color:#7E4751"/>
			<stop  offset="0.35" style="stop-color:#7B4351"/>
			<stop  offset="0.81" style="stop-color:#6A4250"/>
			<stop  offset="1" style="stop-color:#624250"/>
		</linearGradient>
		<path class="st14" d="M172,116.2c-3.2,22-23.7,37.1-45.6,33.9s-37.1-23.7-33.9-45.6s23.7-37.1,45.6-33.9c0,0,0,0,0,0
			C160.1,73.9,175.2,94.3,172,116.2z"/>
		
			<linearGradient id="SVGID_15_" gradientUnits="userSpaceOnUse" x1="92.2904" y1="50.4747" x2="172.5025" y2="50.4747" gradientTransform="matrix(1 0 0 -1 0 160.5511)">
			<stop  offset="0" style="stop-color:#7F5156"/>
			<stop  offset="0.31" style="stop-color:#774855"/>
			<stop  offset="0.35" style="stop-color:#764655"/>
			<stop  offset="0.84" style="stop-color:#654554"/>
			<stop  offset="1" style="stop-color:#5F4554"/>
		</linearGradient>
		<path class="st15" d="M172.1,116c-3.3,21.9-23.7,37-45.6,33.8s-37-23.7-33.8-45.6c3.3-21.9,23.7-37,45.6-33.8
			C160.2,73.7,175.3,94,172.1,116C172.1,116,172.1,116,172.1,116z"/>
		
			<linearGradient id="SVGID_16_" gradientUnits="userSpaceOnUse" x1="92.5736" y1="50.7593" x2="172.5844" y2="50.7593" gradientTransform="matrix(1 0 0 -1 0 160.5511)">
			<stop  offset="0" style="stop-color:#79535A"/>
			<stop  offset="0.35" style="stop-color:#714A59"/>
			<stop  offset="0.9" style="stop-color:#604958"/>
			<stop  offset="1" style="stop-color:#5D4958"/>
		</linearGradient>
		<path class="st16" d="M172.1,115.7c-3.3,21.8-23.6,36.9-45.5,33.7S89.8,125.7,93,103.9c3.3-21.8,23.6-36.9,45.4-33.7
			C160.3,73.5,175.4,93.8,172.1,115.7C172.1,115.7,172.1,115.7,172.1,115.7z"/>
		
			<linearGradient id="SVGID_17_" gradientUnits="userSpaceOnUse" x1="92.73" y1="50.9596" x2="172.66" y2="50.9596" gradientTransform="matrix(1 0 0 -1 0 160.5511)">
			<stop  offset="0" style="stop-color:#72555E"/>
			<stop  offset="0.35" style="stop-color:#6B4D5D"/>
			<stop  offset="0.99" style="stop-color:#5A4C5C"/>
			<stop  offset="1" style="stop-color:#5A4C5C"/>
		</linearGradient>
		<path class="st17" d="M172.2,115.4c-3.2,21.9-23.6,37-45.4,33.7s-37-23.6-33.7-45.4c3.2-21.9,23.6-37,45.4-33.7c0,0,0,0,0.1,0
			C160.4,73.3,175.4,93.6,172.2,115.4z"/>
		
			<linearGradient id="SVGID_18_" gradientUnits="userSpaceOnUse" x1="92.938" y1="51.2429" x2="172.7287" y2="51.2429" gradientTransform="matrix(1 0 0 -1 0 160.5511)">
			<stop  offset="0" style="stop-color:#6C5762"/>
			<stop  offset="0.35" style="stop-color:#665061"/>
			<stop  offset="1" style="stop-color:#584F60"/>
		</linearGradient>
		<path class="st18" d="M172.3,115.2c-3.2,21.8-23.5,36.8-45.3,33.6c-21.8-3.2-36.8-23.5-33.6-45.3c3.2-21.8,23.5-36.8,45.3-33.6
			c0,0,0,0,0,0C160.5,73.1,175.5,93.4,172.3,115.2z"/>
		
			<linearGradient id="SVGID_19_" gradientUnits="userSpaceOnUse" x1="93.1615" y1="51.5316" x2="172.8065" y2="51.5316" gradientTransform="matrix(1 0 0 -1 0 160.5511)">
			<stop  offset="0" style="stop-color:#655966"/>
			<stop  offset="0.35" style="stop-color:#615365"/>
			<stop  offset="1" style="stop-color:#555365"/>
		</linearGradient>
		<path class="st19" d="M172.4,114.9c-3.2,21.8-23.5,36.7-45.3,33.5s-36.7-23.5-33.5-45.3c3.2-21.7,23.5-36.7,45.2-33.5
			C160.6,72.9,175.6,93.1,172.4,114.9L172.4,114.9z"/>
		
			<linearGradient id="SVGID_20_" gradientUnits="userSpaceOnUse" x1="93.3869" y1="51.7647" x2="172.8776" y2="51.7647" gradientTransform="matrix(1 0 0 -1 0 160.5511)">
			<stop  offset="0" style="stop-color:#5F5B6A"/>
			<stop  offset="0.35" style="stop-color:#5C5769"/>
			<stop  offset="1" style="stop-color:#535669"/>
		</linearGradient>
		<path class="st20" d="M172.4,114.6c-3.2,21.7-23.4,36.7-45.2,33.5s-36.7-23.4-33.5-45.2s23.4-36.7,45.2-33.5c0,0,0,0,0,0
			C160.7,72.7,175.7,92.9,172.4,114.6z"/>
		
			<linearGradient id="SVGID_21_" gradientUnits="userSpaceOnUse" x1="93.6055" y1="52.0198" x2="172.9562" y2="52.0198" gradientTransform="matrix(1 0 0 -1 0 160.5511)">
			<stop  offset="0" style="stop-color:#595D6D"/>
			<stop  offset="0.35" style="stop-color:#565A6D"/>
			<stop  offset="1" style="stop-color:#515A6D"/>
		</linearGradient>
		<path class="st21" d="M172.5,114.4c-3.2,21.7-23.4,36.6-45.1,33.4S90.8,124.4,94,102.7c3.2-21.7,23.4-36.6,45.1-33.4
			C160.8,72.5,175.7,92.7,172.5,114.4C172.5,114.4,172.5,114.4,172.5,114.4z"/>
		
			<linearGradient id="SVGID_22_" gradientUnits="userSpaceOnUse" x1="93.8164" y1="52.2804" x2="173.0284" y2="52.2804" gradientTransform="matrix(1 0 0 -1 0 160.5511)">
			<stop  offset="0" style="stop-color:#525F71"/>
			<stop  offset="0.35" style="stop-color:#515D71"/>
			<stop  offset="1" style="stop-color:#4E5D71"/>
		</linearGradient>
		<path class="st22" d="M172.6,114.1c-3.2,21.6-23.4,36.6-45,33.3c-21.6-3.2-36.6-23.4-33.3-45c3.2-21.6,23.4-36.6,45-33.3
			C160.9,72.3,175.8,92.5,172.6,114.1C172.6,114.1,172.6,114.1,172.6,114.1z"/>
		<path class="st23" d="M172.7,113.8c-3.2,21.6-23.3,36.5-44.9,33.3s-36.5-23.3-33.3-44.9s23.3-36.5,44.9-33.3c0,0,0,0,0,0
			C161,72.1,175.9,92.2,172.7,113.8C172.7,113.8,172.7,113.8,172.7,113.8z"/>
		<path class="st24" d="M172.7,113.8c-3.2,21.6-23.3,36.5-44.9,33.3s-36.5-23.3-33.3-44.9s23.3-36.5,44.9-33.3c0,0,0,0,0,0
			C161,72.1,175.9,92.2,172.7,113.8C172.7,113.8,172.7,113.8,172.7,113.8z"/>
		<path class="st24" d="M171.2,113.6c-3.1,20.8-22.4,35.1-43.2,32c-20.8-3.1-35.1-22.4-32-43.2c3.1-20.7,22.4-35,43.2-32
			C159.9,73.5,174.3,92.8,171.2,113.6C171.2,113.6,171.2,113.6,171.2,113.6z"/>
		<path class="st25" d="M121.7,86.9h-5.9v-1.1h2.6c-0.2-0.7-0.5-1.4-0.8-2.1l0.9-0.4c0.4,0.8,0.8,1.6,1,2.5h2.2L121.7,86.9z
			 M121.3,90.2h-5V89h5V90.2z M121.3,93.3h-5v-1.1h5V93.3z M121,102.2h-1V101h-2.5v1.7h-1v-7.4h4.5V102.2z M120,100v-3.4h-2.5v3.4
			H120z M133,98.5c-0.1,1.1-0.3,2.1-0.6,3.2c-0.3,0.8-0.7,1.1-1.2,1.1c-0.9,0-1.6-1.3-2.1-3.8c-0.8,1.2-1.8,2.3-2.9,3.3l-0.7-0.9
			c1.3-1.1,2.4-2.4,3.3-3.8c-0.4-2.9-0.6-6-0.7-9.4h-4.4v2.8h3.2c0,2.1,0,3.8,0,5c0,0.8,0,1.5-0.2,2.3c-0.1,0.3-0.3,0.5-0.5,0.7
			c-0.4,0.2-0.8,0.3-1.2,0.3c-0.2,0-0.4,0-0.7-0.1l-0.2-1.1c0.2,0,0.6,0,1.2,0c0.3,0,0.5-0.3,0.6-0.9s0-2.3,0-5.2h-2.2
			c0.1,3.6-0.2,7.2-1.1,10.7l-1-0.5c0.9-3.2,1.2-6.6,1.2-9.9v-5.2h5.3c0-0.6,0-1.7,0-3.4h1l0.1,3.4h3.9v1.1h-3.9
			c0,2.6,0.2,5.2,0.6,7.7c0.9-1.8,1.5-3.7,2-5.7l0.9,0.6c-0.6,2.4-1.5,4.7-2.7,6.9c0.1,0.9,0.3,1.7,0.6,2.6c0.1,0.4,0.3,0.7,0.4,1.1
			c0.1,0.1,0.2,0.1,0.3,0.1c0.1,0,0.2,0,0.3-0.1c0.2-0.4,0.3-0.8,0.3-1.3c0.1-0.7,0.2-1.4,0.3-2.1L133,98.5z M132.5,86.1l-0.9,0.6
			c-0.3-0.8-0.7-1.5-1.3-2.2l0.8-0.6C131.6,84.6,132.1,85.3,132.5,86.1L132.5,86.1z"/>
		<path class="st25" d="M137.8,90.9c-0.6,3.2-1.5,6.4-2.8,9.5l-1-0.7c1.3-2.9,2.2-5.9,2.7-9.1L137.8,90.9z M147.5,96.6
			c-0.1,1.2-0.2,2.3-0.3,3.5c-0.1,0.6-0.2,1.2-0.5,1.8c-0.2,0.3-0.5,0.5-0.8,0.6c-0.8,0.1-1.6,0.2-2.4,0.2c-0.9,0-1.7,0-2.3-0.1
			c-0.5,0-1-0.2-1.3-0.5c-0.3-0.3-0.4-0.8-0.4-1.2V88.6h1.1v11.9c0,0.2,0.1,0.4,0.2,0.5c0.1,0.1,0.2,0.2,0.3,0.3
			c0.5,0.1,1,0.1,1.5,0.1h2.6c0.2,0,0.4-0.1,0.6-0.3c0.3-0.6,0.5-1.2,0.5-1.9c0.1-1,0.2-2,0.2-3L147.5,96.6z M145.7,89.5l-0.9,0.8
			c-1.2-2.2-2.7-4.3-4.5-6l0.8-0.8C142.9,85.3,144.4,87.3,145.7,89.5L145.7,89.5z M151.4,99.1l-1.1,0.4c-0.7-2.9-1.7-5.7-3.1-8.4
			l1-0.6C149.5,93.3,150.6,96.2,151.4,99.1L151.4,99.1z"/>
		<path class="st25" d="M132.7,120.8c0,1.4-0.1,2.8-0.2,4.2c-0.1,0.9-0.2,1.8-0.4,2.6c-0.1,0.4-0.3,0.7-0.6,1
			c-0.3,0.3-0.6,0.5-1,0.6c-0.7,0.1-1.4,0.2-2.1,0.2l-0.4-1.3c0.3,0,0.9,0,1.8,0c0.3,0,0.6-0.1,0.8-0.2c0.2-0.2,0.4-0.4,0.5-0.7
			c0.2-0.6,0.3-1.2,0.3-1.8c0.1-0.9,0.2-2.1,0.2-3.5h-12.2c-0.9,1.2-2,2.4-3.1,3.4l-0.6-1.1c3-2.6,5.1-6.1,6.1-9.9h-5.3v-1.2h5.5
			c0.3-1.4,0.5-2.6,0.6-3.3l1,0.3c-0.1,0.8-0.3,1.8-0.5,3h7.3c-0.2,1.3-0.4,2.5-0.7,3.8h2c-0.1,1.2-0.3,2.4-0.6,3.8L132.7,120.8z
			 M120.7,112.2l-0.9,0.6c-0.5-0.8-1.1-1.6-1.7-2.3l0.9-0.6C119.7,110.7,120.2,111.4,120.7,112.2L120.7,112.2z M121.2,123.7
			c-0.5,1.9-1.2,3.6-2.1,5.3l-1-0.6c0.9-1.6,1.6-3.3,2.1-5L121.2,123.7z M130.6,118.2h-8.8c-0.4,0.9-0.9,1.8-1.4,2.7h9.8
			C130.3,119.9,130.4,119,130.6,118.2L130.6,118.2z M129.3,114.4H123c-0.2,0.9-0.5,1.8-0.8,2.7h6.6
			C128.9,116.3,129.1,115.4,129.3,114.4L129.3,114.4z M124.1,128.7l-1.1,0.2c0-1.8-0.1-3.5-0.5-5.3l1-0.2
			C123.8,125.2,124,126.9,124.1,128.7L124.1,128.7z M127.3,127.5l-1,0.4c-0.2-1.5-0.6-2.9-1.1-4.3l1-0.4
			C126.6,124.6,127,126.1,127.3,127.5L127.3,127.5z M130.1,126.3l-0.9,0.5c-0.3-1.2-0.8-2.3-1.3-3.4l0.9-0.5
			C129.3,124,129.7,125.2,130.1,126.3L130.1,126.3z"/>
		<path class="st25" d="M151.4,125.1l-0.7,0.9c-3.5-2.9-6.1-6.8-7.4-11.1v9.4h4.3v1.1h-4.3v4h-1.1v-4h-4.4v-1.1h4.4v-9.4
			c-0.7,2.2-1.7,4.3-3,6.2c-1.3,1.8-2.9,3.5-4.6,4.9l-0.7-1c3.4-2.6,5.9-6.1,7.2-10.1h-6.7v-1.2h7.8V110h1.1v3.8h7.6v1.2h-6.5
			C145.7,118.9,148.1,122.5,151.4,125.1z"/>
		<path class="st26" d="M150.4,8.9c0,2-1.6,3.7-3.7,3.7c-2,0-3.7-1.6-3.7-3.7s1.6-3.7,3.7-3.7l0,0C148.8,5.2,150.4,6.9,150.4,8.9
			C150.4,8.9,150.4,8.9,150.4,8.9z"/>
		<path class="st25" d="M211.4,107c-0.7,3.3-1.7,6.6-3.1,9.7l-1.1-0.8c1.5-2.9,2.5-6,3-9.3L211.4,107z M222.5,112.8
			c-0.1,1.2-0.2,2.4-0.4,3.6c-0.1,0.7-0.3,1.3-0.6,1.8c-0.2,0.3-0.5,0.5-0.9,0.6c-0.9,0.1-1.8,0.2-2.7,0.2c-1,0-1.9,0-2.6-0.1
			c-0.5,0-1.1-0.2-1.5-0.5c-0.3-0.3-0.5-0.8-0.5-1.2v-12.5h1.2v12.1c0,0.2,0.1,0.4,0.2,0.6c0.1,0.1,0.2,0.2,0.4,0.3
			c0.1,0,0.7,0,1.7,0h2.9c0.3,0,0.5-0.1,0.7-0.3c0.4-0.6,0.6-1.3,0.6-2c0.1-1,0.2-2.1,0.2-3.1L222.5,112.8z M220.4,105.5l-1,0.8
			c-1.3-2.3-3.1-4.4-5.1-6.1l0.9-0.8C217.2,101.2,219,103.3,220.4,105.5z M226.9,115.3l-1.3,0.4c-0.8-3-1.9-5.9-3.5-8.5l1.1-0.6
			C224.7,109.4,225.9,112.3,226.9,115.3z"/>
		<path class="st25" d="M249.5,117.6l-0.5,1.2h-8.3c-2.4,0-4.2-0.7-5.4-2.1c-1.5,0.9-3.1,1.7-4.7,2.4l-0.8-1c3.6-1.5,6.9-3.6,10-6
			c2.6-2.2,4.8-4.9,6.7-7.8h-15.5v-1.3h8.6c-0.4-1.1-1-2.2-1.7-3.2l1.3-0.5c0.7,1.1,1.4,2.4,1.9,3.7h7.1v1.2
			c-2.9,4.8-6.9,8.9-11.6,11.8c1.1,1.1,2.7,1.7,4.3,1.5L249.5,117.6z"/>
		<path class="st25" d="M272,114.9l-0.8,0.9c-3.9-2.9-6.8-6.8-8.4-11.4v9.6h4.9v1.2h-4.9v4h-1.2v-4h-5v-1.2h5v-9.6
			c-0.8,2.3-2,4.4-3.4,6.3c-1.5,1.9-3.3,3.6-5.3,5l-0.8-1c4.1-3,6.8-6.4,8.1-10.3h-7.6v-1.2h8.9v-3.9h1.2v3.9h8.6v1.2h-7.3
			C265.6,108.7,268.3,112.4,272,114.9z"/>
		<path class="st25" d="M277,104.5c-0.2,1.8-0.6,3.7-1.1,5.4l-1.2-0.3c0.5-1.7,0.9-3.5,1.1-5.3L277,104.5z M281.8,106.6l-0.7,0.9
			c-0.6-0.7-1.2-1.3-1.8-1.9v13.6h-1.2V99.5h1.2v4.6C280.1,104.8,281,105.7,281.8,106.6z M294.2,118.6h-12.8v-1.2h6.3v-5.8h-5.2
			v-1.1h5.2v-5h-3.3c-0.5,1.4-1.2,2.6-2,3.8l-1-0.6c1.4-2.4,2.4-5.1,2.9-7.8l1.2,0.3c-0.2,1.1-0.4,2.1-0.8,3.2h2.9v-4.8h1.2v4.8h4.9
			v1.2h-4.9v5h4.4v1.1h-4.4v5.9h5.3L294.2,118.6z"/>
		<path class="st25" d="M306.6,111.4c-0.5-0.2-0.8-0.6-0.8-1.1c0-0.2,0.1-0.5,0.3-0.7c0.2-0.2,0.5-0.3,0.8-0.3
			c0.7,0,1.1,0.5,1.1,1.4c-0.1,0.9-0.6,1.7-1.3,2.2l-0.5-0.4C306.4,112.2,306.6,111.8,306.6,111.4z"/>
		<path class="st25" d="M326.4,102.9h-6.6v-1.1h2.9c-0.2-0.7-0.5-1.4-0.9-2.1l1-0.4c0.5,0.8,0.8,1.6,1.1,2.5h2.5L326.4,102.9z
			 M325.9,106.2h-5.7V105h5.7V106.2z M325.9,109.4h-5.7v-1.1h5.7V109.4z M325.5,118.5h-1.2v-1.2h-2.9v1.8h-1.1v-7.5h5.1V118.5z
			 M324.4,116.2v-3.5h-2.9v3.5H324.4z M339.2,114.7c-0.1,1.1-0.3,2.2-0.7,3.2c-0.3,0.8-0.8,1.2-1.4,1.2c-1.1,0-1.9-1.3-2.4-3.9
			c-1,1.2-2.1,2.4-3.3,3.3l-0.8-0.9c1.5-1.1,2.7-2.4,3.8-3.9c-0.4-3-0.7-6.1-0.8-9.6h-5v2.8h3.6c0,2.2,0,3.9,0,5.1
			c0,0.8,0,1.6-0.2,2.4c-0.1,0.3-0.3,0.6-0.6,0.7c-0.4,0.2-0.9,0.3-1.4,0.3c-0.2,0-0.5,0-0.7-0.1l-0.3-1.1c0.2,0,0.7,0,1.4,0
			c0.4,0,0.6-0.3,0.6-0.9s0.1-2.4,0-5.3h-2.5c0,4.7-0.5,8.3-1.3,10.8l-1.1-0.5c1-3.3,1.4-6.7,1.3-10.1v-5.2h6.1c0-0.6,0-1.8,0-3.5
			h1.1l0.1,3.5h4.5v1.1h-4.4c0,2.6,0.3,5.3,0.6,7.9c1-1.8,1.7-3.8,2.2-5.8l1.1,0.6c-0.7,2.5-1.8,4.8-3.1,7.1
			c0.1,0.9,0.3,1.8,0.6,2.6c0.1,0.4,0.3,0.8,0.5,1.1c0.1,0.1,0.2,0.1,0.3,0.1c0.1,0,0.2,0,0.3-0.1c0.2-0.4,0.3-0.8,0.4-1.3
			c0.2-0.7,0.3-1.4,0.4-2.2L339.2,114.7z M338.6,102l-1,0.6c-0.4-0.8-0.9-1.5-1.4-2.2l0.9-0.6C337.7,100.5,338.2,101.2,338.6,102z"
			/>
		<path class="st25" d="M347.8,99.9c-0.2,0.7-0.5,1.5-1,2.5l-0.6,1.4v15.4h-1.1v-13.1c-0.8,1.2-1.6,2.4-2.5,3.5l-0.6-1.1
			c2.2-2.7,3.8-5.7,4.7-9L347.8,99.9z M361.7,103.3h-13.8v-1.2h6.3c-0.2-0.8-0.6-1.5-1-2.2l1.1-0.4c0.5,0.8,0.9,1.7,1.1,2.6h6.3
			L361.7,103.3z M360.6,106.6h-11.9v-1.1h11.9V106.6z M360.6,110h-11.9v-1.1h11.9V110z M360.3,119.3h-1.1v-1.1h-9v1.1H349v-7h11.3
			L360.3,119.3z M359.1,117.1v-3.7h-9v3.7H359.1z"/>
		<path class="st25" d="M384.4,114.9l-0.8,0.9c-3.9-2.9-6.8-6.8-8.4-11.4v9.6h4.9v1.2h-4.9v4h-1.2v-4h-5v-1.2h5v-9.6
			c-0.8,2.3-2,4.4-3.4,6.3c-1.5,1.9-3.3,3.6-5.3,5l-0.8-1c4.1-3,6.8-6.4,8.1-10.3h-7.6v-1.2h8.9v-3.9h1.2v3.9h8.6v1.2h-7.3
			C378,108.7,380.7,112.4,384.4,114.9z"/>
		<path class="st25" d="M406.8,105.1l-0.6,1.2c-2.1-0.6-4.1-1.5-5.9-2.6v1h-6.8v-1.1c-1.9,1.1-3.8,1.9-5.9,2.6l-0.6-1.1
			c3.8-1.1,7.2-3.1,10-5.8l1.1,0.5c-0.1,0.2-0.3,0.4-0.5,0.5C400.2,102.8,403.3,104.4,406.8,105.1z M391.2,113.1
			c-0.8,1.8-1.8,3.5-3.1,5l-1-0.7c1.3-1.4,2.3-3,3-4.8L391.2,113.1z M404.2,107.8c-2.1,2.1-5.7,3.6-10.8,4.3l-0.6-1.2
			c4.3-0.4,7.5-1.4,9.7-3.1h-13.1v-1.2h14.8V107.8z M402.2,114.6c-0.1,1-0.3,2.1-0.6,3.1c-0.2,0.6-0.8,1-1.4,1.1
			c-0.7,0.1-2.6,0.1-5.8,0.1c-0.5,0-0.9-0.2-1.3-0.5c-0.3-0.4-0.5-0.8-0.5-1.3v-4.4h1.1v4.2c0,0.6,0.3,0.9,0.9,0.9
			c2.4,0,4,0,4.7-0.1c0.5,0,1-0.3,1.2-0.8c0.2-0.8,0.3-1.6,0.4-2.5L402.2,114.6z M399.9,103.6c-1.1-0.7-2.1-1.5-3.1-2.3
			c-1,0.9-2.1,1.7-3.2,2.3H399.9z M399.2,115.4l-1,0.5c-0.6-1.2-1.3-2.3-2.1-3.3l1-0.5C397.9,113.1,398.6,114.2,399.2,115.4
			L399.2,115.4z M406.5,117.4l-1.2,0.6c-0.8-1.8-1.8-3.6-3-5.2l1-0.6C404.6,113.7,405.6,115.5,406.5,117.4L406.5,117.4z"/>
	</g>
</g>
<g id="圖層_2">
	<rect y="-78.9" class="st27" width="500" height="318"/>
</g>
</svg>
